<?xml version="1.0" encoding="utf-8"?>
<!-- Generator: Adobe Illustrator 22.1.0, SVG Export Plug-In . SVG Version: 6.00 Build 0)  -->
<svg version="1.1" id="Capa_1" xmlns="http://www.w3.org/2000/svg" xmlns:xlink="http://www.w3.org/1999/xlink" x="0px" y="0px"
	 viewBox="0 0 89 89" style="enable-background:new 0 0 89 89;" xml:space="preserve">
<style type="text/css">
	.st0{fill:none;stroke:#8570F2;stroke-width:3;stroke-miterlimit:10;}
	.st1{fill:#8570F2;}
</style>
<g>
	<circle class="st0" cx="44.5" cy="44.5" r="43"/>
	<g transform="translate(0,-952.36218)">
		<path class="st1" d="M68.3,979.5c-3.1,0-5.7,2.6-5.7,5.7c0,1.2,0.4,2.3,1,3.2l-7.9,7.9c-1-0.8-2.3-1.3-3.6-1.3
			c-2.1,0-3.9,1.1-4.9,2.8l-4-1.5c0-0.2,0-0.3,0-0.5c0-3.1-2.6-5.7-5.7-5.7s-5.7,2.6-5.7,5.7c0,0.7,0.2,1.4,0.4,2.1l-8.1,6.6
			c-1-0.9-2.3-1.4-3.7-1.4c-3.1,0-5.7,2.6-5.7,5.7c0,3.1,2.6,5.7,5.7,5.7s5.7-2.6,5.7-5.7c0-0.5-0.1-1-0.2-1.5l8.3-6.8
			c0.9,0.6,2,1,3.2,1c1.8,0,3.4-0.9,4.4-2.2l4.5,1.7c0.2,3,2.6,5.4,5.6,5.4c3.1,0,5.7-2.6,5.7-5.7c0-0.5-0.1-1-0.2-1.5l8.6-8.6
			c0.7,0.3,1.4,0.4,2.2,0.4c3.1,0,5.7-2.6,5.7-5.7S71.4,979.5,68.3,979.5z M68.3,982.7c1.4,0,2.4,1.1,2.4,2.4c0,1.4-1.1,2.4-2.4,2.4
			c-1.4,0-2.4-1.1-2.4-2.4S67,982.7,68.3,982.7z M37.6,993.2c1.4,0,2.4,1.1,2.4,2.4c0,1.4-1.1,2.4-2.4,2.4s-2.4-1.1-2.4-2.4
			C35.2,994.3,36.3,993.2,37.6,993.2z M52.2,998.1c1.4,0,2.4,1.1,2.4,2.4s-1.1,2.4-2.4,2.4c-1.4,0-2.4-1.1-2.4-2.4
			c0-0.4,0-0.4,0.1-0.8C50.2,998.7,51.1,998.1,52.2,998.1z M20.7,1006.2c1.4,0,2.4,1.1,2.4,2.4c0,1.4-1.1,2.4-2.4,2.4
			s-2.4-1.1-2.4-2.4C18.2,1007.2,19.3,1006.2,20.7,1006.2z"/>
	</g>
</g>
</svg>
