<?xml version="1.0" encoding="utf-8"?>
<!-- Generator: Adobe Illustrator 22.1.0, SVG Export Plug-In . SVG Version: 6.00 Build 0)  -->
<svg version="1.1" id="Capa_1" xmlns="http://www.w3.org/2000/svg" xmlns:xlink="http://www.w3.org/1999/xlink" x="0px" y="0px"
	 viewBox="0 0 259.5 442" style="enable-background:new 0 0 259.5 442;" xml:space="preserve">
<style type="text/css">
	.st0{fill:#FC9383;}
	.st1{fill:none;stroke:#FFFFFF;stroke-width:5;stroke-miterlimit:10;}
	.st2{fill:none;stroke:#69DCA2;stroke-width:3;stroke-miterlimit:10;}
	.st3{fill:#69DCA2;}
	.st4{fill:#29264F;}
	.st5{fill:#F9C9C4;}
	.st6{fill:#5C61DF;}
	.st7{fill:#333351;}
	.st8{fill:#585DD4;}
	.st9{fill:none;stroke:#FFFFFF;stroke-width:2;stroke-miterlimit:10;}
	.st10{fill:#F6F7F9;}
	.st11{fill:#FC80A7;}
	.st12{opacity:0.1;fill:#131313;}
</style>
<g>
	<g>
		<path class="st0" d="M194.7,0c-33.7,0.8-61.1,28.4-61.7,62.1c-0.4,25.8,14.6,48.2,36.5,58.4l-0.1,0v19.1l14.3-14.3
			c4,0.8,8.2,1.2,12.4,1.2c34.9,0,63.2-28.3,63.2-63.2C259.5,27.8,230.4-0.8,194.7,0z"/>
		<line class="st1" x1="158.5" y1="63.5" x2="234.5" y2="63.5"/>
		<line class="st1" x1="158.5" y1="45.5" x2="194.5" y2="45.5"/>
		<line class="st1" x1="158.5" y1="80.5" x2="234.5" y2="80.5"/>
		<path class="st2" d="M159,63.2"/>
		<path class="st3" d="M109,194l-34.7,32.8c0,0-7.1,9.5-9.2,23.8c-2.1,14.3-6.1,34.9-6.1,34.9l-3.7,1.1c0,0-6.9-48.9-0.4-62.9
			s17.4-27.3,17.4-27.3L97.6,169c0,0,10.7-12.2,20.4-3.6C123,169.8,123.8,179.8,109,194z"/>
		<circle class="st4" cx="110.5" cy="177" r="14"/>
		<path class="st5" d="M55.4,286.6c0,0-1.8,1.3-4,7.8c-0.6,1.6-2.5,2.4-3.6,3.1c-0.7,0.4-0.8,1.3-0.3,1.9l0,0
			c0.4,0.6,1.2,0.7,1.8,0.3c1.8-1.2,6.1-3.1,7.2-6.9c0,0,1.5,7.1-6.5,10.8c-0.8,0.4-1,1.3-0.6,2l0,0c0.4,0.5,1.1,0.7,1.7,0.4
			c3-1.5,10.8-7,8-20.5L55.4,286.6z"/>
		<path class="st5" d="M56,291.6c0.2,2.1,0,6.6-5.5,9.8c-0.7,0.4-0.9,1.3-0.4,2l0,0c0.4,0.5,1.1,0.6,1.7,0.3
			c2.4-1.5,8.2-6.4,6.7-16.4C57.3,288.4,56.4,289.9,56,291.6z"/>
		<path class="st5" d="M124.7,327.5l7.9-70.6l-41.9-21.6c-16.2,35.4,7.2,83,6.6,91.8c-0.1,1-0.1,1.8-0.2,2.6
			c-0.1,0.7-0.2,1.4-0.3,2.1c-1.4,5.9-6,9.3-18,26.8C65.2,377.9,62.3,400,62.3,400l0,0L56,411.9l11.7,11.5c0,0-1-10.2,3.9-17.5
			c0,0,24.8-37.6,38.6-54.3c4.6-5.5,7.7-10,9.9-13.6c0.3-0.4,0.5-0.9,0.8-1.3C124.4,330.5,124.7,327.5,124.7,327.5z"/>
		<path class="st6" d="M120,338.1c0.3-0.4,0.5-0.9,0.8-1.3c3.6-6.3,3.9-9.3,3.9-9.3l7.9-70.6l-41.9-21.6c-16.2,35.4,7.2,83,6.6,91.8
			c-0.1,1-0.1,1.8-0.2,2.6c-0.1,0.7-0.2,1.4-0.3,2.1c0.2,3.4,1.8,6.7,4.6,9c5.4,4.5,13.5,3.8,18-1.7
			C119.6,338.8,119.8,338.4,120,338.1z"/>
		<path class="st6" d="M120.8,336.8c-0.2,0.4-0.5,0.8-0.8,1.3C120.3,337.7,120.6,337.2,120.8,336.8z"/>
		<path class="st6" d="M114.2,328.9c-0.2,1.6,0,3.2,0.4,4.7c0-0.7,0-1.4-0.1-2.1C114.4,330.7,114.3,329.8,114.2,328.9z"/>
		<path class="st6" d="M110.2,351.7c4.6-5.5,7.7-10,9.9-13.6c0.3-0.4,0.5-0.9,0.8-1.3c2.7-5.2,1.5-11.8-3.2-15.7
			c-5.4-4.5-13.5-3.8-18,1.7c-1.1,1.3-1.9,2.8-2.3,4.3c-0.1,1-0.1,1.8-0.2,2.6c-0.1,0.7-0.2,1.4-0.3,2.1c-1.4,5.9-6,9.3-18,26.8
			C65.2,377.9,62.3,400,62.3,400l9.3,6C71.6,406,96.4,368.3,110.2,351.7z"/>
		<path class="st7" d="M85,271.2c0,0,4,32.2,33.2,69.8c0,0,10.3-14.6,9.5-22L85,271.2z"/>
		<path class="st8" d="M56.9,410.3c0,0-3.8,8.1,3.3,11.6c7.1,3.6,24.5,13.6,24.5,13.6l1.1-1.5L68,416.1
			C60.9,417.1,56.9,410.3,56.9,410.3z"/>
		<path class="st5" d="M155,322.2L129.2,256L82,256.4c2.1,38.9,44.9,70.1,48.5,78.3c0.4,0.9,0.7,1.7,1,2.4c0.3,0.7,0.5,1.4,0.7,2
			c1.5,5.9-0.9,11-3.5,32.1c-2.9,23.4,4.8,44.3,4.8,44.3h0l0,13.4l15.7,4.8c0,0-5.6-8.6-4.7-17.3c0,0,4.4-44.8,8.9-66
			c1.5-7,2.2-12.5,2.4-16.7c0-0.5,0.1-1,0.1-1.5C156.2,325,155,322.2,155,322.2z"/>
		<path class="st6" d="M156.2,333.7c0-0.5,0.1-1,0.1-1.5c0.3-7.3-0.9-10.1-0.9-10.1L129.6,256l-47.2,0.4
			c2.1,38.9,44.9,70.1,48.5,78.3c0.4,0.9,0.7,1.7,1,2.4c0.3,0.7,0.5,1.4,0.7,2c1.8,2.9,4.7,5.1,8.3,5.9c6.9,1.5,13.7-2.9,15.2-9.9
			C156.1,334.6,156.2,334.2,156.2,333.7z"/>
		<path class="st6" d="M156.3,332.1c0,0.5,0,1-0.1,1.5C156.3,333.1,156.3,332.6,156.3,332.1z"/>
		<path class="st6" d="M146.8,328.2c0.6,1.5,1.5,2.8,2.5,3.9c-0.3-0.6-0.7-1.2-1.1-1.8C147.9,329.7,147.4,329,146.8,328.2z"/>
		<path class="st6" d="M153.8,350.3c1.5-7,2.2-12.5,2.4-16.7c0-0.5,0.1-1,0.1-1.5c0-5.9-4.1-11.1-10.1-12.4
			c-6.9-1.5-13.7,2.9-15.2,9.9c-0.4,1.7-0.4,3.3-0.1,4.9c0.4,0.9,0.7,1.7,1,2.4c0.3,0.7,0.5,1.4,0.7,2c1.5,5.9-0.9,11-3.5,32.1
			c-2.9,23.4,4.8,44.3,4.8,44.3l11,0.9C144.9,416.3,149.4,371.4,153.8,350.3z"/>
		<path class="st8" d="M133.9,426.9c0,0,0.4,8.9,8.3,8.7c7.9-0.1,28,0.7,28,0.7l0.3-1.9l-24.1-7.5
			C140.6,431.1,133.9,426.9,133.9,426.9z"/>
		<path class="st9" d="M83,265.8c6.9,28.6,40.9,60.9,45.5,66.6"/>
		<path class="st5" d="M131.6,114.5c0,0,6.1,8.8,8.2,11.8c1.3,1.8,1.8,4.8-4.4,7.6C123.6,139.2,120,167,120,167l-8.4,0.1
			c0,0,1.5-23.5,7.6-31.8c0,0-0.2-0.4,1-4c1.2-3.6,4.6-2.8,4.6-2.8S130,121.1,131.6,114.5z"/>
		<path class="st3" d="M127.1,204.3c0,0,2.5,42.8,16.5,59.6c0,0-30.7,17.8-63.9-2.2c0,0,13.4-39.4,7-84.3c-0.8-6,10-12,18.1-15.9
			C129.6,149.7,127.1,204.3,127.1,204.3z"/>
		<path class="st7" d="M100.6,186.7c0,0,10.1,63.7,33.7,58.5l-28-62.6L100.6,186.7z"/>
		<circle class="st4" cx="111.5" cy="176" r="14"/>
		<path class="st4" d="M169.5,170l15.6-14.1l-5.7-2c-0.5-0.2-1.1-0.1-1.5,0.3l-13.6,13.1c-0.3,0.3-0.2,0.9,0.2,1L169.5,170z"/>
		<polygon class="st10" points="178.7,155.5 185.3,157.6 173.5,170 166.3,167.2 		"/>
		<path class="st5" d="M188.4,154.6c-5.2,1.1-12.1,7.9-14,10.4c-2,2.5-2.7-0.5-3-3.7c-0.4-3.2-2.5-8.5-2.3-2.7
			c0.3,6.3,0.6,20.1,0.6,20.1l0,0c0,0.8,0.2,1.6,0.8,2.3c1.2,1.5,3.4,1.7,4.9,0.5c0.9-0.8,1.4-1.9,1.3-3l0.1,0
			c-1.5-4.7,3.1-5.9,5.2-8.1c2.1-2.2,1-4.4,0.9-6.7c-0.2-2.3,0.7-4.7,4.5-6.7C191.1,155,188.4,154.6,188.4,154.6z"/>
		<circle class="st5" cx="173" cy="179.5" r="3.5"/>
		<path class="st3" d="M130.7,215.3c-1.2,0.7-2.3,1.3-3.5,1.9c-2.3,1.9-4,4.7-4.3,7.9c-0.7,6.5,4,12.3,10.5,13
			c1.9,0.2,3.6-0.1,5.3-0.7c1.5-0.8,2.9-1.7,4.3-2.8c19.1-14.4,33.1-53.9,33.1-53.9s-4.5-1.7-5.6-4.2
			C170.5,176.6,145.2,206.6,130.7,215.3z"/>
		<path class="st3" d="M143,218c-2-3-3.7-6.1-4.9-9.1c-7.3-17.8-12.4-34.9-12.4-34.9c-3.4-10.1-9.1-13.2-14.9-13.2
			c-11,0-17.7,12.1-12.6,21.8l24.9,47.3c0.3,0.6,0.7,1.1,1,1.7c0,0,0,0,0,0c1.9,3.9,5.9,6.6,10.6,6.6c6.5,0,11.8-5.3,11.8-11.8
			C146.5,223.1,145.1,220.2,143,218z M140.3,216C140.3,216,140.3,216,140.3,216C140.3,216,140.3,216,140.3,216z M123.6,230.3
			C123.6,230.3,123.6,230.4,123.6,230.3C123.6,230.4,123.6,230.3,123.6,230.3z M123.2,229c0,0.1,0,0.1,0.1,0.2
			C123.2,229.2,123.2,229.1,123.2,229z M123,228c0-0.1,0-0.2,0-0.3C123,227.8,123,227.9,123,228z"/>
		<path class="st11" d="M124.4,107.5c-9.6-0.5-24.8,7.3-24.8,19.6s3.1,22.3-9.9,24.7s-29.5,2.7-35.5,11.8c-6,9.2-6.6,16.2-19.7,19.5
			c-13.1,3.2-37.8,11.5-34.1,30.1c1.5,6,15.9,0.6,19.5,5.8s10.6,25.6,37.1,25.6s34.9-25.8,36.3-31.7c1.4-5.9,4.9-35.3,7.3-37
			c2.4-1.7,17.5-9.1,18.1-15.7c0.3-3.7-2.8-14.5,2.4-21.9C127.2,129.7,139.6,108.3,124.4,107.5z"/>
		<path class="st0" d="M134.6,118l3.4,4.9c0.9-0.6,1.5-1,2-1.5c0.6-0.5,0.4-1.4-0.3-1.7L134.6,118z"/>
	</g>
	<ellipse class="st12" cx="111.5" cy="433.5" rx="65" ry="8.5"/>
</g>
</svg>
