<?xml version="1.0" encoding="utf-8"?>
<!-- Generator: Adobe Illustrator 22.1.0, SVG Export Plug-In . SVG Version: 6.00 Build 0)  -->
<svg version="1.1" id="Capa_1" xmlns="http://www.w3.org/2000/svg" xmlns:xlink="http://www.w3.org/1999/xlink" x="0px" y="0px"
	 viewBox="0 0 393.3 452" style="enable-background:new 0 0 393.3 452;" xml:space="preserve">
<style type="text/css">
	.st0{fill:#69DCA2;}
	.st1{fill:#3C3C56;}
	.st2{fill:#5C61DE;}
	.st3{fill:#FFFFFF;}
	.st4{fill:#F9C9C4;}
	.st5{fill:#55C58D;}
	.st6{fill:none;stroke:#55C58D;stroke-miterlimit:10;}
	.st7{fill:#FC80A7;}
	.st8{fill:#585BD2;}
	.st9{fill:none;stroke:#FFFFFF;stroke-width:2;stroke-miterlimit:10;}
	.st10{fill:none;stroke:#1B1B1B;stroke-width:2;stroke-miterlimit:10;}
	.st11{fill:none;stroke:#69DCA2;stroke-miterlimit:10;}
	.st12{fill:#15132D;}
	.st13{fill:none;stroke:#5C61DF;stroke-miterlimit:10;}
	.st14{fill:none;stroke:#FC80A7;stroke-miterlimit:10;}
	.st15{fill:#333351;}
	.st16{fill:none;}
	.st17{opacity:0.1;fill:#131313;}
</style>
<g>
	<g>
		<path class="st0" d="M181.5,0H86.9C72.7,0,59.7,7.5,52.6,19.8l-47.3,82c-7.1,12.2-7.1,27.3,0,39.5l47.3,82
			c7.1,12.2,20.1,19.8,34.2,19.8h94.7c14.1,0,27.2-7.5,34.2-19.8l47.3-82c7.1-12.2,7.1-27.3,0-39.5l-47.3-82
			C208.7,7.5,195.6,0,181.5,0z"/>
	</g>
	<g>
		<polygon class="st1" points="100.4,153.6 97,145.2 75.2,140.7 65.9,146.5 61,145.5 61,149.5 66.5,162.6 87.2,166.5 102.2,157.9 
			102.2,153.9 		"/>
		<polygon class="st2" points="66.3,158.6 87.1,162.5 102.2,153.9 97,141.1 75.1,136.6 60.8,145.4 		"/>
		<path class="st3" d="M72.9,144.9l-1.2-0.7l1.8-1l1.2,0.7c1.9-0.7,4-0.3,6.2,0.9l0.5,0.3l-2,1.2l-0.7-0.4c-1.1-0.7-2-0.7-2.6-0.3
			c-0.7,0.4-0.6,0.9,0.5,1.5c3.3,1.9,7.6-0.5,12.1,2.1c2.1,1.2,2.7,2.5,1.6,3.6l1.2,0.7l-1.8,1l-1.2-0.7c-1.9,0.7-4.1,0.3-6.2-0.9
			l-1.1-0.6l2-1.2l1.2,0.7c1.1,0.7,2,0.6,2.7,0.2c0.7-0.4,0.7-0.9-0.4-1.5c-3.3-1.9-7.6,0.5-12.1-2.1
			C72.3,147.3,71.7,146,72.9,144.9z"/>
		<polygon class="st1" points="144.5,153.6 141.1,145.2 119.3,140.7 110,146.5 105.1,145.5 105.1,149.5 110.6,162.6 131.3,166.5 
			146.3,157.9 146.3,153.9 		"/>
		<polygon class="st2" points="110.5,158.6 131.4,162.5 146.4,153.9 141.2,141.1 119.3,136.6 105,145.4 		"/>
		<path class="st3" d="M117.1,144.9l-1.2-0.7l1.8-1l1.2,0.7c1.9-0.7,4-0.3,6.2,0.9l0.5,0.3l-2,1.2l-0.7-0.4c-1.1-0.7-2-0.7-2.6-0.3
			c-0.7,0.4-0.6,0.9,0.5,1.5c3.3,1.9,7.6-0.5,12.1,2.1c2.1,1.2,2.7,2.5,1.6,3.6l1.2,0.7l-1.8,1l-1.2-0.7c-1.9,0.7-4.1,0.3-6.2-0.9
			l-1.1-0.6l2-1.2l1.2,0.7c1.1,0.7,2,0.6,2.7,0.2c0.7-0.4,0.7-0.9-0.4-1.5c-3.3-1.9-7.6,0.5-12.1-2.1
			C116.6,147.3,116,146,117.1,144.9z"/>
		<polygon class="st1" points="188.5,153.6 185.1,145.2 163.4,140.7 154.1,146.5 149.1,145.5 149.1,149.5 154.6,162.6 175.4,166.5 
			190.3,157.9 190.3,153.9 		"/>
		<polygon class="st2" points="154.7,158.6 175.6,162.5 190.6,153.9 185.4,141.1 163.5,136.6 149.2,145.4 		"/>
		<path class="st3" d="M161.3,144.9l-1.2-0.7l1.8-1l1.2,0.7c1.9-0.7,4-0.3,6.2,0.9l0.5,0.3l-2,1.2l-0.7-0.4c-1.1-0.7-2-0.7-2.6-0.3
			c-0.7,0.4-0.6,0.9,0.5,1.5c3.3,1.9,7.6-0.5,12.1,2.1c2.1,1.2,2.7,2.5,1.6,3.6l1.2,0.7l-1.8,1l-1.2-0.7c-1.9,0.7-4.1,0.3-6.2-0.9
			l-1.1-0.6l2-1.2l1.2,0.7c1.1,0.7,2,0.6,2.7,0.2c0.7-0.4,0.7-0.9-0.4-1.5c-3.3-1.9-7.6,0.5-12.1-2.1
			C160.8,147.3,160.2,146,161.3,144.9z"/>
		<polygon class="st1" points="116.7,123.6 113.3,115.2 91.5,110.8 82.2,116.5 77.3,115.5 77.3,119.5 82.8,132.6 103.5,136.5 
			118.5,128 118.5,124 		"/>
		<polygon class="st2" points="82.9,128.6 103.7,132.5 118.8,123.9 113.6,111.1 91.7,106.6 77.4,115.4 		"/>
		<path class="st3" d="M89.4,115l-1.2-0.7l1.8-1l1.2,0.7c1.9-0.7,4-0.3,6.2,0.9l0.5,0.3l-2,1.2l-0.7-0.4c-1.1-0.7-2-0.7-2.6-0.3
			c-0.7,0.4-0.6,0.9,0.5,1.5c3.3,1.9,7.6-0.5,12.1,2.1c2.1,1.2,2.7,2.5,1.6,3.6l1.2,0.7l-1.8,1l-1.2-0.7c-1.9,0.7-4.1,0.3-6.2-0.9
			l-1.1-0.6l2-1.2l1.2,0.7c1.1,0.7,2,0.6,2.7,0.2c0.7-0.4,0.7-0.9-0.4-1.5c-3.3-1.9-7.6,0.5-12.1-2.1
			C88.9,117.3,88.3,116.1,89.4,115z"/>
		<polygon class="st1" points="160.8,123.6 157.4,115.2 135.6,110.8 126.3,116.5 121.4,115.5 121.4,119.5 126.9,132.6 147.6,136.5 
			162.6,128 162.6,124 		"/>
		<polygon class="st2" points="127.1,128.6 148,132.5 163,123.9 157.8,111.1 135.9,106.6 121.6,115.4 		"/>
		<path class="st3" d="M133.7,115l-1.2-0.7l1.8-1l1.2,0.7c1.9-0.7,4-0.3,6.2,0.9l0.5,0.3l-2,1.2l-0.7-0.4c-1.1-0.7-2-0.7-2.6-0.3
			c-0.7,0.4-0.6,0.9,0.5,1.5c3.3,1.9,7.6-0.5,12.1,2.1c2.1,1.2,2.7,2.5,1.6,3.6l1.2,0.7l-1.8,1l-1.2-0.7c-1.9,0.7-4.1,0.3-6.2-0.9
			l-1.1-0.6l2-1.2l1.2,0.7c1.1,0.7,2,0.6,2.7,0.2c0.7-0.4,0.7-0.9-0.4-1.5c-3.3-1.9-7.6,0.5-12.1-2.1
			C133.1,117.3,132.5,116.1,133.7,115z"/>
		<polygon class="st1" points="205.8,123.6 202.4,115.2 180.6,110.8 171.3,116.5 166.4,115.5 166.4,119.5 171.9,132.6 192.6,136.5 
			207.6,128 207.6,124 		"/>
		<polygon class="st2" points="171.3,128.6 192.2,132.5 207.2,123.9 202,111.1 180.1,106.6 165.8,115.4 		"/>
		<path class="st3" d="M177.9,115l-1.2-0.7l1.8-1l1.2,0.7c1.9-0.7,4-0.3,6.2,0.9l0.5,0.3l-2,1.2l-0.7-0.4c-1.1-0.7-2-0.7-2.6-0.3
			c-0.7,0.4-0.6,0.9,0.5,1.5c3.3,1.9,7.6-0.5,12.1,2.1c2.1,1.2,2.7,2.5,1.6,3.6l1.2,0.7l-1.8,1l-1.2-0.7c-1.9,0.7-4.1,0.3-6.2-0.9
			l-1.1-0.6l2-1.2l1.2,0.7c1.1,0.7,2,0.6,2.7,0.2c0.7-0.4,0.7-0.9-0.4-1.5c-3.3-1.9-7.6,0.5-12.1-2.1
			C177.4,117.3,176.8,116.1,177.9,115z"/>
		<polygon class="st1" points="135.9,93.4 132.4,85.1 110.7,80.6 101.4,86.4 96.5,85.4 96.5,89.4 101.9,102.5 122.7,106.4 
			137.7,97.8 137.7,93.8 		"/>
		<polygon class="st2" points="101.9,98.5 122.7,102.4 137.8,93.8 132.5,81 110.6,76.5 96.3,85.3 		"/>
		<path class="st3" d="M108.4,84.8l-1.2-0.7l1.8-1l1.2,0.7c1.9-0.7,4-0.3,6.2,0.9l0.5,0.3l-2,1.2l-0.7-0.4c-1.1-0.7-2-0.7-2.6-0.3
			c-0.7,0.4-0.6,0.9,0.5,1.5c3.3,1.9,7.6-0.5,12.1,2.1c2.1,1.2,2.7,2.5,1.6,3.6l1.2,0.7l-1.8,1l-1.2-0.7c-1.9,0.7-4.1,0.3-6.2-0.9
			l-1.1-0.6l2-1.2l1.2,0.7c1.1,0.7,2,0.6,2.7,0.2c0.7-0.4,0.7-0.9-0.4-1.5c-3.3-1.9-7.6,0.5-12.1-2.1
			C107.9,87.2,107.3,85.9,108.4,84.8z"/>
	</g>
	<g>
		<path class="st4" d="M293,120.6c-0.4-0.5-0.8-0.9-1.2-1.4c-0.7-0.6-1.4-1.1-2.1-1.6c-2.2-2-4.3-4.1-6.4-6.4
			c-33.5-36.5-39.7-49.3-39.7-49.3l-7.5,5.6c0,0,11.6,38.3,37.6,66.2c1.3,1.4,2.7,2.8,4.1,4.1c4.7,2.8,10.9,2.1,14.7-2
			C296.4,131.6,296.6,125,293,120.6z"/>
		<path class="st5" d="M358.3,141.3c0,0-34,5.3-65.3-20.8c-1.1-0.9-2.2-1.9-3.4-2.9c-4.6-2.7-10.7-1.9-14.5,2.2
			c-3.6,3.9-4.1,9.6-1.6,14c1.3,1.4,2.7,2.8,4.1,4.1c2.7,2.6,5.5,5.1,8.4,7.4c34.8,27.2,67.2,25.8,67.2,25.8L358.3,141.3z"/>
		<path class="st4" d="M237.6,69.8c0,0,2.3,1.7-3.1-3.6c-5.4-5.2-5.3-5-6.6-11.2c-1.2-6.2,2.5-3.6,3.8,3.1c1.3,6.7,7.7,1.1,5.1-2.2
			s-15.6-15.5-15.6-15.5s-0.4-2.9,7.7,2.7c8.1,5.5,16.7,11,15.1,15.8c-1.6,4.8,0.2,7.1,0.2,7.1L237.6,69.8z"/>
		<circle class="st6" cx="356.6" cy="156.3" r="15.1"/>
		<g>
			<path class="st7" d="M349.6,74.1c0.2,0.2,0.3,0.5,0.1,0.7l-3.9,4.2c-0.4,0.4-0.7,0.8-1.2,1c-0.7,0.3-1.6,0-2.2-0.6l-1.5-1.6
				c-1.6-1.8-0.1-3,0.2-3.2c0.6-0.3,1.3,0.1,1.9,0.3c2.1,0.9,4.1,0.1,6.2-0.9C349.3,74,349.5,74,349.6,74.1L349.6,74.1z"/>
		</g>
		<path class="st4" d="M353.9,132.4c0,0-15.1,29.2-26.5,17l7-49.7l4.8-10.5l19.1-6.9C358.3,82.4,342.7,112.4,353.9,132.4z"/>
		<path class="st4" d="M332.4,88.6l34.3-31.3l10.2,10.4c0,0-12,35.5-22.1,34.3c-3.2-0.4-1.9-13.6-1.9-13.6l-10.3,6.3L332.4,88.6z"/>
		<path class="st1" d="M371.9,51.2c9.3,5.3,22.2,15.7,21.4,30.9c-0.8,15.2-25.5,27.6-25.5,27.6s-10.5,4.8-8.4,14.6s-6.4,7.4-9.8-4.6
			s-5.6-12.5,1-20.3s14.7-10.5,10.4-14.4c-1.6-1.5-3.1-1-7.5,4.7c-0.7,1-0.5,2.3-1.6,3.5c-5.3,5.9-15.6,11.1-22.9,8.9
			c-8.7-2.7-18.5-7.8-7.7-15.3s15.3,5.8,22.6,1.8c7.4-4.1,15-5.8,17.3-14.4s4.6-17.1-3.3-19.4C350,52.4,358.5,43.6,371.9,51.2z"/>
		<ellipse transform="matrix(0.8287 -0.5597 0.5597 0.8287 20.6217 208.8355)" class="st8" cx="351.5" cy="70.7" rx="7.2" ry="3"/>
		<path class="st9" d="M353.6,72.5l9,11.1c2.3,2.8,2.9,6.6,1.7,10l-0.9,2.4"/>
		<ellipse transform="matrix(0.8287 -0.5597 0.5597 0.8287 20.6217 208.8355)" class="st10" cx="351.5" cy="70.7" rx="7.2" ry="3"/>
		<circle class="st11" cx="340.5" cy="251.5" r="20.5"/>
		<circle class="st11" cx="304.5" cy="318.9" r="12.5"/>
		<path class="st12" d="M359,260.3c-14.7,24.5-35.5,40.4-41.5,60.4c-1.4,4.5-5.9,12.2-16.1,10.3c-10.1-1.9-9.7-14-9.7-14
			c4.7-34.9,22.7-60.2,30.7-75.2c0,0,8.2-15.1,24.5-9.7C362.6,237.2,362.6,254.3,359,260.3z"/>
		<circle class="st11" cx="286.2" cy="434.2" r="4.1"/>
		<path class="st12" d="M317,322.7c-4.3,12.6-8.7,25.3-12.1,38.2c-5.1,19.2-8.6,55.6-14.8,74.3c-1.9,5.8-8.3,2.7-8-1.1
			c2.3-29.4,2-89.4,9-115.1c0.4-1.3,0.7-2.6,1.1-3.9c0,0,5.6-11.8,16.2-8C318.9,310.7,317,322.7,317,322.7z"/>
		<path class="st0" d="M282.2,434c0,0-8.9,1.6-19.1,1.6s-8.4,4.4-1,5.9c7.4,1.5,23.8,5.5,27.3-4.2c0,0-2.1,2.6-5,1.3
			C281.8,437.4,282.2,434,282.2,434z"/>
		<path class="st13" d="M327.8,241.5c0,0-0.2,15.2-13.8,15.2"/>
		<path class="st14" d="M314,259.4c0,0,7.7-0.2,11.6-4.8"/>
		<circle class="st11" cx="370" cy="260.8" r="20.5"/>
		<circle class="st11" cx="334.1" cy="328.2" r="12.5"/>
		<path class="st15" d="M388.5,269.6c-14.7,24.5-35.5,40.4-41.5,60.4c-1.4,4.5-5.9,12.2-16.1,10.3c-10.1-1.9-9.7-14-9.7-14
			c4.7-34.9,22.7-60.2,30.7-75.2c0,0,8.2-15.1,24.5-9.7C392.1,246.5,392.1,263.6,388.5,269.6z"/>
		<path class="st13" d="M388.5,251.8c0,0-25,6.2-6.8,28"/>
		<circle class="st16" cx="378.9" cy="436" r="4.1"/>
		<path class="st15" d="M346.7,324.9c2.9,13,5.9,26.1,9.7,38.8c5.7,19,21.8,51.8,26.4,71c1.4,6-5.7,6.7-7.4,3.3
			c-13.4-26.2-45.2-77.1-52.7-102.7c-0.4-1.3-0.8-2.6-1.1-3.9c0,0-1.4-13,9.5-15.3C342,313.7,346.7,324.9,346.7,324.9z"/>
		<path class="st13" d="M347.5,328.4c0,0-1.7-6.7,0.8-11.8"/>
		<path class="st0" d="M374.7,435.8c0,0-8.4,3.2-18.5,5c-10,1.8-7.5,5.8,0.1,5.9s24.4,1.1,26.1-9.1c0,0-1.6,2.9-4.7,2.2
			C375,439.2,374.7,435.8,374.7,435.8z"/>
		<path class="st14" d="M371.2,265.5c0,0-0.1,6.4,5.2,13.4"/>
		<path class="st5" d="M353.9,132.4c0,0,46.6,25.6,37,123.6c-25.6,3.9-72.5-8.5-79.1-19.3c23.1-41.5,15.3-67.3,15.6-89.2
			C349.8,146.2,353.9,132.4,353.9,132.4z"/>
		<path class="st15" d="M327.5,189.9c0,0,10.7-2.7,20.5-8.9c0,0-9.3,19.6-24.7,28.7C323.3,209.7,325.5,205.6,327.5,189.9z"/>
		<circle class="st6" cx="357.1" cy="156.5" r="15.1"/>
		<path class="st4" d="M286.9,173c0,0-4.5,0.2-4.5,0.2c-2.9,0-6-0.1-9.1-0.3c-49.4-3.8-63-6.9-63-6.9l-1.3,7.2
			c0,0,34.6,20.1,72.7,22.8c1.9,0.1,3.8,0.2,5.8,0.3c5.4-1.1,9.4-5.8,9.4-11.5C296.9,178.7,292.5,173.8,286.9,173z"/>
		<path class="st5" d="M348.8,143.6c0,0-21.3,27-61.9,29.4c-1.5,0.1-2.9,0.1-4.5,0.2c-5.2,1.2-9.1,5.9-9.1,11.5
			c0,5.3,3.5,9.8,8.4,11.3c1.9,0.1,3.8,0.2,5.8,0.3c3.7,0.1,7.4,0,11.2-0.4c44-3.8,66.7-27,66.7-27L348.8,143.6z"/>
		<path class="st4" d="M210.3,165.9c0,0-0.2,0.2-4.3-2c-6.6-3.6-6.5-3.4-12.8-2.6s-2.6,3.5,4.2,2.6c6.7-1,3.5,6.9-0.4,5.5
			c-3.9-1.4-19.7-9.7-19.7-9.7s-2.9,0.5,5,6.4c7.9,5.9,15.9,12.2,19.9,9.2c4-3.1,6.8-2.2,6.8-2.2L210.3,165.9z"/>
	</g>
	<ellipse class="st17" cx="315.7" cy="442" rx="77.3" ry="10"/>
</g>
</svg>
