<?xml version="1.0" encoding="utf-8"?>
<!-- Generator: Adobe Illustrator 22.1.0, SVG Export Plug-In . SVG Version: 6.00 Build 0)  -->
<svg version="1.1" id="Capa_1" xmlns="http://www.w3.org/2000/svg" xmlns:xlink="http://www.w3.org/1999/xlink" x="0px" y="0px"
	 viewBox="0 0 397.8 410.9" style="enable-background:new 0 0 397.8 410.9;" xml:space="preserve">
<style type="text/css">
	.st0{fill:#F1F1F1;}
	.st1{fill:#15132D;}
	.st2{fill:#FFFFFF;}
	.st3{fill:#413E7A;}
	.st4{fill:#FC80A7;}
	.st5{fill:#FC9383;}
	.st6{fill:#69DCA2;}
	.st7{fill:#F9C9C4;}
	.st8{fill:#5C61DF;}
</style>
<g>
	<polygon class="st0" points="0,315 114.7,380.7 355.9,245 241.1,179.3 	"/>
	<polygon class="st1" points="103.4,135.6 103.4,373 344.4,237.3 344.4,0 	"/>
	<polygon class="st2" points="115.4,165.1 115.4,382.4 356.4,246.7 356.4,29.4 	"/>
	<g>
		<path class="st3" d="M353.3,14.5V245l-235,132.3V146.8L353.3,14.5 M356.3,9.4l-241,135.6v237.3l241-135.6V9.4L356.3,9.4z"/>
	</g>
	<g>
		<polygon class="st3" points="178.3,209.2 178.3,293.9 194.3,284.3 194.3,199.7 		"/>
		<polygon class="st4" points="206.3,227.2 206.3,277.6 222.3,268.1 222.3,217.7 		"/>
		<polygon class="st5" points="233.3,194.2 233.3,261.7 249.3,252.2 249.3,184.7 		"/>
		<polygon class="st4" points="261.3,161.2 261.3,245.8 277.3,236.3 277.3,151.7 		"/>
		<polygon class="st1" points="289.3,196.2 289.3,229.5 305.3,219.9 305.3,186.7 		"/>
	</g>
	<polygon class="st3" points="115.4,186.4 356.4,50.8 356.4,9.3 115.4,145 	"/>
	<ellipse transform="matrix(0.4622 -0.8868 0.8868 0.4622 153.2788 324.3232)" class="st6" cx="344" cy="35.8" rx="5" ry="2.8"/>
	<ellipse transform="matrix(0.4622 -0.8868 0.8868 0.4622 142.7803 318.3982)" class="st6" cx="333.9" cy="41.5" rx="5" ry="2.8"/>
	<ellipse transform="matrix(0.4622 -0.8868 0.8868 0.4622 132.2 312.5226)" class="st6" cx="323.7" cy="47.3" rx="5" ry="2.8"/>
	<g>
		<path class="st3" d="M273.3,374.4l61.8-36.6c2.5-1.4,5.6-1.4,8.1,0l53.5,31.5c1.5,0.9,1.5,3,0,3.9l-61.8,36.6
			c-2.5,1.4-5.6,1.4-8.1,0l-53.5-31.5C271.8,377.4,271.8,375.2,273.3,374.4z"/>
		<path class="st1" d="M273.3,353.5l61.8-36.6c2.5-1.4,5.6-1.4,8.1,0l53.5,31.5c1.5,0.9,1.5,3,0,3.9l-61.8,36.6
			c-2.5,1.4-5.6,1.4-8.1,0l-53.5-31.5C271.8,356.5,271.8,354.4,273.3,353.5z"/>
		<path class="st7" d="M309.1,275.2l5.9,5.9c0,0-10.4,5.2-14.7,8.3v-11.6l1.6-11.5L309.1,275.2z"/>
		<path class="st5" d="M295.4,268.1v10.3c0,0,0,3.9,3.9,3.9c3.9,0,3.1-4.4,3.1-4.4l0.1-6.8c0,0,2.1,0.6,2.1,2.5
			c-0.1,1.9-0.1,1.9-0.1,1.9l-1.1,0.3c0,0,0,2.6,2.6,2.6s3.5-1.4,3.5-3.5s0-7.7,0-7.7s1.3-3.2-4.6-6.6c-6-3.5-11-2.8-13,0
			C289.8,263.2,292.1,266.2,295.4,268.1z"/>
		<path class="st7" d="M296.4,268l5,2.7v3.1c0,1.4-1.1,2.5-2.5,2.5l0,0c-1.4,0-2.5-1.1-2.5-2.5V268z"/>
		<path class="st5" d="M296.4,274.8l-1.2-0.8c-0.4-0.3-0.5-0.8-0.2-1.2l1.4-2.3V274.8z"/>
		<path class="st3" d="M306.4,331.8l-2.2-1.2c-2.4-1.3-5.3-0.1-6.1,2.5l-3.2,14.4l2.1,0.4l7.4-5.6c0.7-1.1,2.2-1.1,3-0.2l3.8,4.7
			l3.7-3.7L306.4,331.8z"/>
		<path class="st1" d="M287.5,305c0,0,8.8-16.7,27.7-23.9c19-7.2,27,22.8,26.8,32.3c-0.1,9.5-2,22.5-2,22.5l-12.7,6.9
			c-3,1.6-6.7,1.7-9.7,0.1l-9.8-5.2l-8.4-22.7l-2.7,3L287.5,305z"/>
		<polygon class="st1" points="299.5,315 303.5,310.1 307.9,337.7 		"/>
		<path class="st7" d="M274.6,329.2l-1-23.3c0,0-0.1-0.6-1.2-2c-1.1-1.4-3.3-5.8,0.4-7.8c0,0,1.4-0.5,1.2,1.7
			c-0.2,2.3,0.4,3.7,1.1,2.2c0.7-1.5,2.2-1.1,2.2,0.2s-0.3,4.8-0.3,4.8l4,13.8L274.6,329.2z"/>
		<path class="st7" d="M287.5,305L275,327c0,0-1.5,4.1,1.5,5.3c3,1.2,3.9-0.5,7.7-3.8c3.8-3.3,12.6-10.5,12.6-10.5L287.5,305z"/>
		<path class="st8" d="M307.9,337.2l-27-2.1c-3-0.2-5.7,1.6-6.6,4.5l-10.8,34.2h1.6l15.3-24.7c0.8-1.3,2.4-1.9,3.9-1.5l27.3,7.6
			c0,0,8.6,1.9,15.7-2c7.1-3.9,11.3-5.2,12.8-17.8L307.9,337.2z"/>
		<polygon class="st5" points="263.4,374.2 257.8,375.5 259.2,376.4 264.8,377.4 265.4,376.6 265.1,374.4 		"/>
		<path class="st1" d="M275,358.3l-2.2-1.3c-1.2-0.7-1.2-2.5,0-3.2l8.2-4.9c-0.2,0.2-0.5,0.5-0.6,0.7L275,358.3z"/>
	</g>
</g>
</svg>
