<?xml version="1.0" encoding="utf-8"?>
<!-- Generator: Adobe Illustrator 22.1.0, SVG Export Plug-In . SVG Version: 6.00 Build 0)  -->
<svg version="1.1" id="Capa_1" xmlns="http://www.w3.org/2000/svg" xmlns:xlink="http://www.w3.org/1999/xlink" x="0px" y="0px"
	 viewBox="0 0 420 380" style="enable-background:new 0 0 420 380;" xml:space="preserve">
<style type="text/css">
	.st0{fill:#55C58D;}
	.st1{fill:#413E7A;}
	.st2{fill:#FFFFFF;}
	.st3{fill:#69DCA2;}
	.st4{fill:#FC9383;}
	.st5{fill:#FC80A7;}
	.st6{fill:#F9C9C4;}
	.st7{fill:#15132D;}
	.st8{fill:#FFA493;}
	.st9{fill:none;stroke:#FFFFFF;stroke-miterlimit:10;}
	.st10{fill:#5C61DF;}
	.st11{fill:#585DD4;}
	.st12{fill:#00B7F0;}
</style>
<g>
	<path class="st0" d="M335.6,369.5l0-15.5c0,0-73.2-39.9-149.2-81.2L0.6,166.7V192l0.1,0c0.1,0.8,0.6,1.5,1.4,2l327.4,184.5
		c1.6,0.9,3.4,1.4,5.2,1.4v-1.7l1,0V369.5z"/>
	<path class="st1" d="M344.1,351.7l-10.4,3.4v2.6v0l1,1l0,21.2c1.8,0,3.5-0.5,5.1-1.4l78.5-46.5c0.9-0.5,1.3-1.4,1.4-2.3l0,0v-24.4
		L344.1,351.7z"/>
	<g>
		<path class="st2" d="M1.4,165L80,118.4c3.2-1.8,7.1-1.8,10.3,0l328.3,184.9c1.9,1.1,1.9,3.8,0,4.9l-78.7,46.6
			c-3.2,1.8-7.1,1.8-10.3,0L1.4,169.9C-0.5,168.8-0.5,166.1,1.4,165z"/>
	</g>
	<g>
		<path class="st3" d="M85.2,119L85.2,119c1.4,0,2.9,0.4,4.1,1.1L417.6,305c0.4,0.2,0.4,0.6,0.4,0.7c0,0.2-0.1,0.5-0.4,0.8
			l-78.7,46.6c-1.3,0.7-2.7,1.1-4.1,1.1c-1.5,0-2.9-0.4-4.2-1.1L2.4,168.2C2.1,168,2,167.6,2,167.4c0-0.2,0.1-0.5,0.4-0.8L81,120.1
			C82.3,119.4,83.7,119,85.2,119 M85.2,117c-1.8,0-3.6,0.5-5.1,1.4L1.4,165c-1.9,1.1-1.9,3.8,0,4.9l328.2,184.9
			c1.6,0.9,3.4,1.4,5.1,1.4c1.8,0,3.5-0.5,5.1-1.4l78.7-46.6c1.9-1.1,1.9-3.8,0-4.9L90.3,118.4C88.7,117.5,87,117,85.2,117L85.2,117
			z"/>
	</g>
	<path class="st1" d="M44.6,11.1l68,34.8l1,141.7v6.1l-1,0l-0.1,6.2c-4.1,0-8.2-1-11.9-3.2l-52.7-30.4c-1.8-1.1-2.9-2.8-3.2-4.6
		l-0.1,0V11.1z"/>
	<path class="st4" d="M135.6,37.9v150c0,0,0,0,0,0v0.4l0,0c-0.1,2.1-1.2,4.2-3.4,5.4l-7.4,4.1c-3.8,2.1-8,3.2-12.2,3.2l-0.1-154
		L135.6,37.9z"/>
	<path class="st2" d="M48.1,7.2l7-4c7.3-4.2,16.3-4.2,23.7,0l52.9,30.4c4.4,2.5,4.4,8.9,0,11.4l-7.1,4c-7.3,4.2-16.4,4.2-23.7,0
		L48.1,18.5C43.7,16,43.7,9.7,48.1,7.2z"/>
	<g>
		<path class="st3" d="M66.9,2L66.9,2c3.8,0,7.5,1,10.8,2.9l52.9,30.4c1.4,0.8,2.3,2.3,2.3,4c0,1.7-0.9,3.1-2.3,4l-7.1,4
			c-3.3,1.9-7,2.9-10.8,2.9c-3.8,0-7.6-1-10.9-2.9L49.1,16.8c-1.4-0.8-2.3-2.3-2.3-4s0.9-3.1,2.3-4l7-4C59.3,3,63.1,2,66.9,2
			 M66.9,0C62.8,0,58.7,1.1,55,3.2l-7,4c-4.4,2.5-4.4,8.9,0,11.4L100.8,49c3.7,2.1,7.8,3.2,11.9,3.2c4.1,0,8.2-1.1,11.8-3.2l7.1-4
			c4.4-2.5,4.4-8.9,0-11.4L78.7,3.2C75,1.1,71,0,66.9,0L66.9,0z"/>
	</g>
	<polygon class="st2" points="49.6,33.6 49.6,146.4 106.6,179.5 106.6,64.1 	"/>
	<path class="st1" d="M77.5,126l-15.1-8.2c0,0-1.8-0.8-1.7-3.6c0-2.7,0-30.3,0-30.3s0.2-2.6,2.4-1.4s28.1,15.2,28.1,15.2
		s1.5,1.1,1.5,3.2c0,2.1,0,31,0,31s0,2.2-2.1,1.1c-2-1.1-7.9-4.3-7.9-4.3v-13.3l4.7,2.4l0.6-5.5l-4.3-3l0.1-3.7c0,0,0.1-2.3,2-1.2
		s3,1.7,3,1.7l0.1-4.9L84.9,99c0,0-6.1-3.8-6.2,4.5v3.6l-5-2.5l-0.1,5.6l4.1,2.3L77.5,126z"/>
	<path class="st1" d="M278.6,141.4l68,34.8l1,141.7v6.1l-1,0l-0.1,6.2c-4.1,0-8.2-1-11.9-3.2l-52.7-30.4c-1.8-1.1-2.9-2.8-3.2-4.6
		l-0.1,0V141.4z"/>
	<path class="st4" d="M369.6,168.2v150c0,0,0,0,0,0v0.4l0,0c-0.1,2.1-1.2,4.2-3.4,5.4l-7.4,4.1c-3.8,2.1-8,3.2-12.2,3.2l-0.1-154
		L369.6,168.2z"/>
	<path class="st2" d="M282,137.4l7-4c7.3-4.2,16.3-4.2,23.7,0l52.9,30.4c4.4,2.5,4.4,8.9,0,11.4l-7.1,4c-7.3,4.2-16.4,4.2-23.7,0
		L282,148.8C277.7,146.3,277.7,140,282,137.4z"/>
	<g>
		<path class="st3" d="M300.9,132.3L300.9,132.3c3.8,0,7.5,1,10.8,2.9l52.9,30.4c1.4,0.8,2.3,2.3,2.3,4c0,1.7-0.9,3.1-2.3,4l-7.1,4
			c-3.3,1.9-7,2.9-10.8,2.9c-3.8,0-7.6-1-10.9-2.9L283,147.1c-1.4-0.8-2.3-2.3-2.3-4c0-1.7,0.9-3.1,2.3-4l7-4
			C293.3,133.3,297.1,132.3,300.9,132.3 M300.9,130.3c-4.1,0-8.2,1.1-11.9,3.2l-7,4c-4.4,2.5-4.4,8.9,0,11.4l52.7,30.4
			c3.7,2.1,7.8,3.2,11.9,3.2c4.1,0,8.2-1.1,11.8-3.2l7.1-4c4.4-2.5,4.4-8.9,0-11.4l-52.9-30.4C309,131.3,304.9,130.3,300.9,130.3
			L300.9,130.3z"/>
	</g>
	<polygon class="st2" points="283.6,163.9 283.6,276.7 340.6,309.8 340.6,194.4 	"/>
	<path class="st1" d="M161.6,77l68,34.8l1,141.7v6.1l-1,0l-0.1,6.2c-4.1,0-8.2-1-11.9-3.2l-52.7-30.4c-1.8-1.1-2.9-2.8-3.2-4.6
		l-0.1,0V77z"/>
	<path class="st4" d="M252.6,103.8v150c0,0,0,0,0,0v0.4l0,0c-0.1,2.1-1.2,4.2-3.4,5.4l-7.4,4.1c-3.8,2.1-8,3.2-12.2,3.2l-0.1-154
		L252.6,103.8z"/>
	<path class="st2" d="M165.1,73l7-4c7.3-4.2,16.3-4.2,23.7,0l52.9,30.4c4.4,2.5,4.4,8.9,0,11.4l-7.1,4c-7.3,4.2-16.4,4.2-23.7,0
		l-52.7-30.4C160.7,81.9,160.7,75.5,165.1,73z"/>
	<g>
		<path class="st3" d="M183.9,67.9L183.9,67.9c3.8,0,7.5,1,10.8,2.9l52.9,30.4c1.4,0.8,2.3,2.3,2.3,4c0,1.7-0.9,3.1-2.3,4l-7.1,4
			c-3.3,1.9-7,2.9-10.8,2.9c-3.8,0-7.6-1-10.9-2.9l-52.7-30.4c-1.4-0.8-2.3-2.3-2.3-4c0-1.7,0.9-3.1,2.3-4l7-4
			C176.3,68.9,180.1,67.9,183.9,67.9 M183.9,65.9c-4.1,0-8.2,1.1-11.9,3.2l-7,4c-4.4,2.5-4.4,8.9,0,11.4l52.7,30.4
			c3.7,2.1,7.8,3.2,11.9,3.2c4.1,0,8.2-1.1,11.8-3.2l7.1-4c4.4-2.5,4.4-8.9,0-11.4L195.7,69C192,66.9,188,65.9,183.9,65.9
			L183.9,65.9z"/>
	</g>
	<polygon class="st2" points="166.6,99.5 166.6,212.3 223.6,245.3 223.6,130 	"/>
	<path class="st5" d="M202.7,156.6l-15.7-9.1c-4.7-2.7-8.5-0.1-8.4,5.8l0.3,20.8c0.1,5.9,3.9,13,8.7,15.7l15.7,9.1
		c4.7,2.7,8.5,0.1,8.4-5.8l-0.3-20.8C211.3,166.3,207.4,159.3,202.7,156.6z M208.9,191.1c0,3.7-2.3,5.3-5.2,3.6l-15.7-9.1
		c-2.9-1.7-5.3-6-5.3-9.7l-0.3-20.6c0-3.7,2.3-5.3,5.2-3.6l15.7,9.1c2.9,1.7,5.3,6,5.3,9.7L208.9,191.1z"/>
	<path class="st5" d="M194.9,162.3c-4.9-2.8-8.8-0.1-8.7,6c0.1,6.1,4.1,13.4,9,16.2c4.9,2.8,8.8,0.1,8.7-6
		C203.8,172.4,199.8,165.1,194.9,162.3z M195.2,180.4c-3.1-1.8-5.6-6.4-5.6-10.2c0-3.9,2.4-5.6,5.5-3.8s5.6,6.4,5.6,10.2
		C200.7,180.5,198.2,182.2,195.2,180.4z"/>
	
		<ellipse transform="matrix(0.8977 -0.4406 0.4406 0.8977 -52.7858 107.0085)" class="st5" cx="204.1" cy="167.2" rx="1.7" ry="3.1"/>
	<path class="st6" d="M50.9,134.6l2.2,6.8c0.7,2-0.9,4.1-3,4.1h-5.5v-6.4L50.9,134.6z"/>
	<path class="st4" d="M51.1,133.8c0,0,2.4-3.2,0-5.1c-2.4-1.9-4.6-0.3-5.6,0.7c-0.9,1-4.3,3-3.1,6.9s1.6,5.2,1.6,5.2
		s1.2,2.3,2.8,1.6c1.6-0.8,1.6-2.7,1.6-2.7s-1.5,0.3-1.5-1.1S49.4,136.1,51.1,133.8z"/>
	<path class="st5" d="M51.9,136.2l2.4,2.2c0.2,0.1,0.2,0.4,0,0.5l-1.2,0.9L51.9,136.2z"/>
	<polygon class="st6" points="50.6,144.8 50.6,150.2 45.2,144.5 	"/>
	<path class="st5" d="M42.7,251.5h3l-2.8,2.8c0,0-2,0.5-2-0.2s0.6-3.1,0.6-3.1L42.7,251.5z"/>
	<path class="st7" d="M48,216.5c0,0,0.7,5.2,0,8.8c-0.6,3.2-4.3,21.7-5.1,26c-0.1,0.5-0.6,0.9-1.1,0.9h0c-0.6,0-1.1-0.5-1.1-1.1
		l-0.7-43.6l-2.7-21.2l8.6,9.5L48,216.5z"/>
	<path class="st5" d="M54,259l3.8,1.7c-0.1,0.6-5.1,1.2-5.1,1.2l-0.6-1l0.5-2.1L54,259z"/>
	<polygon class="st7" points="78.2,146.9 65.2,140.1 55.9,157.5 69.2,164.5 	"/>
	<polygon class="st8" points="66.1,143.2 63.6,147.7 67.9,149.9 70.3,145.4 	"/>
	<polygon class="st8" points="63.2,148.6 60.8,153 65,155.2 67.4,150.7 	"/>
	<polyline class="st9" points="66.5,145.3 66.8,147 71.1,145.8 	"/>
	<polyline class="st9" points="63.8,150.7 64.1,152.5 68.4,151.3 	"/>
	<path class="st7" d="M57.9,188.5l1.3,26.5l-4.7,43.3c-0.1,0.5-0.5,0.9-1,0.9l0,0c-0.5,0-1-0.4-1-0.9L49,220L44,196.9
		c0,0-5.7-2.2-6.4-10.5C37,178.1,57.9,188.5,57.9,188.5z"/>
	<path class="st10" d="M67.5,163.1l-3.9-6.4c0,0-3.1-3.9-6.6-5.8c-3.6-1.8-12.2-6.4-12.2-6.4s-10.1-1.6-9.5,7.5
		c0.5,7.7,1.8,27.8,2.2,33.5c0.1,0.9,0.6,1.8,1.4,2.3l7.2,4.4c1.7,1,3.8,1.1,5.5,0l6.3-3.8l1.3-17.7l2.1,1.5L67.5,163.1z"/>
	<path class="st6" d="M67.5,163.1l7.9,12.4c0.7,1.1,0.4,2.6-0.6,3.4v0c-0.9,0.7-2.1,0.7-3.1,0l-10-7.4L67.5,163.1z"/>
	<path class="st6" d="M76,176.4l-1-17.8c0,0,3.5-2.9,0.5-5.4l-1.8,3.5v-2.6c0,0-2.2,0.3-1.6,2.1c0.5,1.8,0.4,2.4-0.1,4.4
		s-1.7,6.6-1.7,6.6L76,176.4z"/>
	<path class="st6" d="M174.9,197.6l2.2,6.8c0.7,2-0.9,4.1-3,4.1h-5.5v-6.4L174.9,197.6z"/>
	<path class="st7" d="M175.6,197.7c0,0,2.4-3.2,0-5.1c-2.4-1.9-4.6-0.3-5.6,0.7s-4.3,3-3.1,6.9c1.1,4,1.6,5.2,1.6,5.2
		s1.2,2.3,2.8,1.6c1.6-0.8,1.6-2.7,1.6-2.7s-1.5,0.3-1.5-1.1C171.4,201.8,173.9,200,175.6,197.7z"/>
	<path class="st5" d="M176.4,200.1l2.4,2.2c0.2,0.1,0.2,0.4,0,0.5l-1.2,0.9L176.4,200.1z"/>
	<polygon class="st6" points="174.6,208.7 174.6,214.1 169.2,208.4 	"/>
	<path class="st5" d="M167.3,315.5h3l-2.8,2.8c0,0-2,0.5-2-0.2s0.6-3.1,0.6-3.1L167.3,315.5z"/>
	<path class="st1" d="M173,280.4c0,0,0.7,5.2,0,8.8c-0.6,3.2-4.3,21.7-5.1,26c-0.1,0.5-0.6,0.9-1.1,0.9l0,0c-0.6,0-1.1-0.5-1.1-1.1
		l-0.7-43.6l-2.7-21.2l8.6,9.5L173,280.4z"/>
	<path class="st5" d="M178.6,322.9l3.8,1.7c-0.1,0.6-5.1,1.2-5.1,1.2l-0.6-1l0.5-2.1L178.6,322.9z"/>
	<polygon class="st7" points="202.7,210.8 189.8,204 180.4,221.4 193.8,228.4 	"/>
	<polygon class="st8" points="190.6,207.1 188.2,211.6 192.4,213.8 194.8,209.3 	"/>
	<polygon class="st8" points="187.8,212.5 185.3,216.9 189.5,219.1 192,214.7 	"/>
	<polyline class="st9" points="191,209.2 191.3,210.9 195.6,209.7 	"/>
	<polyline class="st9" points="188.3,214.7 188.6,216.4 192.9,215.2 	"/>
	<path class="st11" d="M182.4,252.5l1.3,26.5l-4.7,43.3c-0.1,0.5-0.5,0.9-1,0.9l0,0c-0.5,0-1-0.4-1-0.9l-3.3-38.3l-5.1-23.1
		c0,0-5.7-2.2-6.4-10.5C161.5,242,182.4,252.5,182.4,252.5z"/>
	<path class="st7" d="M192,227l-3.9-6.4c0,0-3.1-3.9-6.6-5.8c-3.6-1.8-12.2-6.4-12.2-6.4s-10.1-1.6-9.5,7.5
		c0.5,7.7,1.8,27.8,2.2,33.5c0.1,0.9,0.6,1.8,1.4,2.3l7.2,4.4c1.7,1,3.8,1.1,5.5,0l6.3-3.8l1.3-17.7l2.1,1.5L192,227z"/>
	<path class="st6" d="M192,227l7.9,12.4c0.7,1.1,0.4,2.6-0.6,3.4l0,0c-0.9,0.7-2.1,0.7-3.1,0l-10-7.4L192,227z"/>
	<path class="st6" d="M201,240.3l-1-17.8c0,0,3.5-2.9,0.5-5.4l-1.8,3.5V218c0,0-2.2,0.3-1.6,2.1s0.4,2.4-0.1,4.4
		c-0.4,1.9-1.7,6.6-1.7,6.6L201,240.3z"/>
	<g>
		<path class="st12" d="M304.8,249.2c14.8,2.7,22.9-7.9,22.9-18.3c0-0.3,0-0.7,0-1c1.6-0.8,2.9-1.9,4-3.3c-1.5,0.3-3,0.5-4.6,0.3
			c1.7-0.7,2.9-1.9,3.5-3.6c-1.6,0.6-3.3,0.9-5.1,0.9c-3-3.8-8.1-4.9-11.4-2.6c-2.1,1.5-3,4.2-2.3,7.1c-6.5-1.6-12.5-5.8-16.6-11.6
			c-2.1,3.2-1,8.2,2.5,11.2c-1.3-0.3-2.5-0.9-3.6-1.7c0,0,0,0.1,0,0.1c0,3.8,2.7,7.6,6.4,9.1c-1.2,0.1-2.4-0.1-3.6-0.5
			c1.1,3.5,4.1,6.2,7.5,6.9c-2.8,1.7-6.4,2.3-10,1.6c-0.6-0.1-1.3-0.3-1.9-0.5C296.2,246.4,300.4,248.4,304.8,249.2"/>
	</g>
</g>
</svg>
