<?xml version="1.0" encoding="utf-8"?>
<!-- Generator: Adobe Illustrator 22.1.0, SVG Export Plug-In . SVG Version: 6.00 Build 0)  -->
<svg version="1.1" id="Capa_1" xmlns="http://www.w3.org/2000/svg" xmlns:xlink="http://www.w3.org/1999/xlink" x="0px" y="0px"
	 viewBox="0 0 643.7 477" style="enable-background:new 0 0 643.7 477;" xml:space="preserve">
<style type="text/css">
	.st0{fill:#5C61DE;}
	.st1{fill:#FC80A7;}
	.st2{fill:#55C58D;}
	.st3{clip-path:url(#SVGID_2_);}
	.st4{fill:#F9C9C4;}
	.st5{fill:#FAB0A9;}
	.st6{fill:#00B4F9;}
	.st7{fill:#00A170;}
	.st8{fill:#333351;}
	.st9{fill:#413E7A;}
	.st10{fill:none;stroke:#FFFFFF;stroke-miterlimit:10;}
	.st11{fill:#676CFA;}
	.st12{fill:#FFFFFF;}
	.st13{fill:#1B1B1B;}
	.st14{fill:none;stroke:#FFFFFF;stroke-width:2;stroke-miterlimit:10;}
	.st15{fill:none;stroke:#FFFFFF;stroke-width:1.5;stroke-miterlimit:10;}
	.st16{opacity:0.3;fill:#FFFFFF;}
	.st17{fill:none;stroke:#5C61DF;stroke-width:3;stroke-miterlimit:10;}
	.st18{fill:#5C61DF;}
	.st19{opacity:0.6;fill:#69DCA2;}
	.st20{opacity:0.6;fill:#FC9383;}
	.st21{opacity:0.6;fill:#170C66;}
	.st22{opacity:0.6;fill:#FC80A7;}
</style>
<g>
	<g>
		<path class="st0" d="M262.9,0H114C99.8,0,86.8,7.5,79.7,19.8L5.3,148.7c-7.1,12.2-7.1,27.3,0,39.5l74.4,128.9
			c7.1,12.2,20.1,19.8,34.2,19.8h148.9c14.1,0,27.2-7.5,34.2-19.8l74.4-128.9c7.1-12.2,7.1-27.3,0-39.5L297.1,19.8
			C290,7.5,277,0,262.9,0z"/>
		<path class="st1" d="M30,226h21.4c2.1,0,4.1,1.1,5.2,3l10.7,18.5c1.1,1.8,1.1,4.1,0,6L56.5,272c-1.1,1.8-3,3-5.2,3H30
			c-2.1,0-4.1-1.1-5.2-3l-10.7-18.5c-1.1-1.8-1.1-4.1,0-6L24.8,229C25.9,227.1,27.8,226,30,226z"/>
		<path class="st2" d="M329.8,80.2h15.3c2.1,0,4.1,1.1,5.2,3l7.7,13.3c1.1,1.8,1.1,4.1,0,6l-7.7,13.3c-1.1,1.8-3,3-5.2,3h-15.3
			c-2.1,0-4.1-1.1-5.2-3l-7.7-13.3c-1.1-1.8-1.1-4.1,0-6l7.7-13.3C325.7,81.3,327.6,80.2,329.8,80.2z"/>
	</g>
	<g>
		<defs>
			<path id="SVGID_1_" d="M643.7,97h-589v380c74,0,589,0,589,0V97z"/>
		</defs>
		<clipPath id="SVGID_2_">
			<use xlink:href="#SVGID_1_"  style="overflow:visible;"/>
		</clipPath>
		<g class="st3">
			<g>
				<g>
					<path class="st4" d="M351.9,460.3c-0.2-1.9-0.4-3.9,0.4-5.6c2.2-4.7-2-94.1-18.3-118.7c-4.8-7.3,1.8-25.9-8.5-28.1
						c-13.8-2.9-36.8-4.6-40.2-5.6c0,0-0.2,1.1-0.6,2.8c0.4-1.7,0.6-2.8,0.6-2.8c-7.5-3-11.7-6.9-14.6-11.8
						c-4.3-7.3-1.7-17.8,5.6-22.2c4.4-2.7,9.8-3.1,14.6-5.1c10.9-4.5,16.8-16.2,21.7-26.9c7.9-17.3,24.1-48.7,24.1-48.7
						c4.6-5.5,8.3-13.6,4.5-19.6C338,163,330,155.6,324,155.7c-14.8,0.3-28.5,10.3-41.8,16.8c-7.1,3.5-14.1,8-18.3,14.8
						c-3.6,5.9-4.7,13-6.4,19.7c-3.9,15.3-11.2,29.6-14,45.1c-1.1,6.2-1.7,12.6-3.2,18.7c-4.2,17.5-27.5,24.9-27.5,24.9
						s1.3,2.2,3.1,5.1c-1.7-2.8-3-5-3.1-5.1c-18.4,4.6-36.3,11-53.4,19.1c-18.2,8.6-36.7,20.2-44.5,38.8c-3.6,8.6-4.6,18.1-5.1,27.4
						c-1.7,34.8,4.1,69.9,16.9,102.3c0.5,1.4,1.2,2.8,2.4,3.7c1.8,1.2,4.2,0.7,6.4,0.2C207.2,468.9,354,478,354,478
						C353.2,470.2,352.7,468.1,351.9,460.3z M216.4,301.4c-0.1-0.2-0.3-0.4-0.4-0.6C216.1,301,216.2,301.2,216.4,301.4z
						 M223.5,311.9C223.5,311.9,223.4,311.9,223.5,311.9C223.4,311.9,223.5,311.9,223.5,311.9z M223.2,311.6c0,0-0.1-0.1-0.1-0.1
						C223.2,311.5,223.2,311.6,223.2,311.6z M222.9,311.2c0-0.1-0.1-0.1-0.1-0.2C222.8,311.1,222.9,311.2,222.9,311.2z M222.6,310.9
						c-0.1-0.1-0.1-0.2-0.2-0.3C222.5,310.7,222.6,310.8,222.6,310.9z M222.3,310.4c-0.1-0.1-0.1-0.2-0.2-0.3
						C222.2,310.2,222.2,310.3,222.3,310.4z M221.9,309.9c-0.1-0.1-0.2-0.2-0.2-0.3C221.8,309.7,221.9,309.8,221.9,309.9z
						 M221.5,309.3c-0.1-0.1-0.2-0.2-0.3-0.4C221.4,309.1,221.5,309.2,221.5,309.3z M221.1,308.7c-0.1-0.1-0.2-0.2-0.2-0.3
						C220.9,308.5,221,308.6,221.1,308.7z M220.7,308.1c-0.1-0.1-0.2-0.2-0.2-0.4C220.5,307.8,220.6,308,220.7,308.1z M220.3,307.5
						c-0.1-0.1-0.2-0.3-0.3-0.4C220.1,307.2,220.2,307.3,220.3,307.5z M219.9,306.9c-0.1-0.2-0.2-0.3-0.3-0.5
						C219.7,306.5,219.8,306.7,219.9,306.9z M219.4,306.1c-0.1-0.2-0.2-0.3-0.3-0.5C219.2,305.8,219.3,306,219.4,306.1z M219,305.5
						c-0.1-0.2-0.2-0.4-0.3-0.5C218.7,305.1,218.9,305.3,219,305.5z M218.5,304.8c-0.1-0.2-0.2-0.4-0.4-0.6
						C218.3,304.5,218.4,304.6,218.5,304.8z M218.1,304.1c-0.1-0.2-0.2-0.4-0.4-0.6C217.8,303.7,218,303.9,218.1,304.1z
						 M217.7,303.5c-0.1-0.2-0.3-0.4-0.4-0.6C217.4,303,217.5,303.3,217.7,303.5z M217.2,302.8c-0.1-0.2-0.3-0.4-0.4-0.6
						C217,302.3,217.1,302.6,217.2,302.8z M216.8,302.1c-0.1-0.2-0.3-0.4-0.4-0.6C216.5,301.7,216.7,301.9,216.8,302.1z M269,342.5
						c-0.5,0.1-1.8-0.3-3.5-1.1C267.3,342.2,268.5,342.6,269,342.5c2.1-0.5,5.2-6.5,7.8-12.5C274.3,335.9,271.1,342,269,342.5z
						 M277.3,328.8c0.3-0.8,0.7-1.6,1-2.3C278,327.3,277.6,328,277.3,328.8z M279.7,323c0.6-1.6,1.1-3,1.4-3.9
						c0.1-0.2,0.1-0.3,0.2-0.5c-0.1,0.2-0.1,0.3-0.2,0.5C280.8,320,280.3,321.4,279.7,323z M284.7,305.2c0,0.1-0.1,0.2-0.1,0.4
						C284.6,305.5,284.7,305.4,284.7,305.2z M284.6,305.8c0,0.1,0,0.2-0.1,0.3C284.5,306,284.6,305.9,284.6,305.8z M284.4,306.4
						c-0.1,0.3-0.2,0.7-0.2,1.1C284.3,307.1,284.4,306.7,284.4,306.4z M284.2,307.6c0,0.1,0,0.2-0.1,0.3
						C284.1,307.8,284.1,307.7,284.2,307.6z M284,308.2c0,0.1,0,0.2-0.1,0.3C284,308.4,284,308.3,284,308.2z M283.9,308.9
						c0,0.1-0.1,0.2-0.1,0.3C283.8,309.1,283.8,309,283.9,308.9z M283.7,309.6c0,0.1,0,0.2-0.1,0.3
						C283.6,309.7,283.7,309.6,283.7,309.6z M283.5,310.2c0,0.1,0,0.1,0,0.2C283.5,310.4,283.5,310.3,283.5,310.2z M283.3,310.9
						c0,0,0,0.1,0,0.1C283.3,311,283.3,311,283.3,310.9z M283.2,311.6C283.2,311.7,283.2,311.7,283.2,311.6
						C283.2,311.7,283.2,311.7,283.2,311.6z M283,312.3C283,312.3,283,312.4,283,312.3C283,312.4,283,312.3,283,312.3z M282.8,313
						c0,0.1,0,0.1,0,0.2C282.8,313.1,282.8,313.1,282.8,313z M282.6,313.7C282.6,313.7,282.6,313.7,282.6,313.7
						C282.6,313.7,282.6,313.7,282.6,313.7z M282.5,314.4c0,0,0,0.1,0,0.1C282.4,314.5,282.5,314.4,282.5,314.4z M282.3,315
						c0,0.1-0.1,0.2-0.1,0.3C282.2,315.2,282.3,315.1,282.3,315z M282.1,315.7c0,0.1,0,0.2-0.1,0.3
						C282.1,315.9,282.1,315.8,282.1,315.7z M281.9,316.3c0,0,0,0.1,0,0.1C281.9,316.4,281.9,316.4,281.9,316.3z M281.6,317.5
						c-0.1,0.4-0.2,0.7-0.3,1C281.4,318.2,281.5,317.9,281.6,317.5z"/>
				</g>
			</g>
			<g>
				<path class="st5" d="M259.6,274.4c-2.6,18.1,10.5,26,25.5,28.7c0.1-0.5,0.2-0.8,0.2-0.8c-7.5-3-11.7-6.9-14.6-11.8
					c-4.3-7.3-1.7-17.8,5.6-22.2c4.4-2.7,9.8-3.1,14.6-5.1c0.9-0.4-20.8-5.9-19.9-6.4C267.9,258.1,261.4,262.1,259.6,274.4z"/>
			</g>
			<circle class="st4" cx="370.9" cy="499.8" r="21.7"/>
			<path class="st4" d="M476,533.5c-0.5,0.1-1,0.1-1.6,0.2C474.9,533.7,475.5,533.6,476,533.5z"/>
			<path class="st4" d="M474.8,535.6c0.5-0.1,1-0.1,1.6-0.2c12.3-1.6,23.9-7.1,35-12.8c4.4-2.3,12.5-7.3,13.8-8.5
				c1.4-1.3,2.4-3.1,3.3-4.9c3.2-6.7,11.4-19.4,4.5-16.6c-3.7,1.5-7.8,9.2-9,11.2c-2.3,3.8-7.9,8-13,9.7c0.3-2,0.7-4.6,0.8-5.2
				c0.3-1.8-2.4-5.9-8.5-0.3c-0.1-1.1-0.3-3.1-2.6-3.3c-2.1-0.2-4.2,1.4-5.3,3.1c0.3-1.7-3.7-4.6-6.9-2.7c-4.1,2.3-4.8,3.8-7.5,8
				c-0.9,1.4-1.2,2.3-1.4,3c-1.5,1.3-3.4,2.2-5.7,2.7c-0.5,0.1-1.1,0.2-1.6,0.3c-0.6,0.2-1.1,0.4-1.7,0.7c-3.6,2.1-7.2,7-5.1,10.7
				C466.9,532.9,472.1,535.6,474.8,535.6z"/>
			<path class="st4" d="M392,494.3c-6.1-17.9-36.3-75.5-40.6-140.9L287,338.1c19.7,81.7,50.7,156.5,69.8,179.9
				C367.3,530.7,399.4,516.5,392,494.3z"/>
			<circle class="st4" cx="320.2" cy="340.8" r="33.2"/>
			<path class="st6" d="M471.6,519.1c0.6-0.1,1.1-0.2,1.6-0.3C472.7,518.9,472.1,519,471.6,519.1z"/>
			<path class="st6" d="M475.4,533.8c-0.5,0.1-1,0.1-1.6,0.2C474.4,534,474.9,533.9,475.4,533.8z"/>
			<path class="st4" d="M351.6,509.8c1.9,4.7,6.6,8.9,12.2,10.8c31.8,10.9,106.5,15.5,110.2,15c0.5-0.1,1-0.1,1.6-0.2
				c0.7-0.2,1.4-0.4,2.1-0.8c3.6-2.1,4.7-8.4,2.6-12c-1.5-2.6-4.3-3.9-7-3.8c-0.5,0.1-1.1,0.2-1.6,0.3c-20,2.7-63.2-20.9-86.5-36
				c-8.2-5.3-16.9-7.2-24.5-2.5C350.7,486.7,346.5,497.2,351.6,509.8z"/>
			<circle class="st4" cx="473.7" cy="526.4" r="7.6"/>
			<g>
				<path class="st2" d="M353,349.7c0.2,11.6,1.1,18.8,3.4,40.5c0.9,8.5-54.1-1-65.4-4.9c-0.4-0.1-2.6-24.2-4-40.9
					c-2.2-25.6,21.2-38.2,32.5-37.3C360.6,310.6,352.9,346,353,349.7z"/>
			</g>
			<g>
				<path class="st2" d="M351.9,460.3c-0.2-1.9-0.4-3.9,0.4-5.6c2.2-4.7-2-94.1-18.3-118.7c-4.8-7.3,0.6-25.7-8.5-28.1
					c-13.6-3.5-36.8-4.6-40.2-5.6c0,0.2,2.1,36-16.3,36c-24.7,0-56-42.3-56.2-42.6c-18.4,4.6-36.3,11-53.4,19.1
					c-18.2,8.6-36.7,20.2-44.5,38.8c-3.6,8.6-4.6,18.1-5.1,27.4c-1.7,34.8,4.1,69.9,16.9,102.3c0.5,1.4,1.2,2.8,2.4,3.7
					c1.8,1.2,4.2,0.7,6.4,0.2C207.9,471.7,354,478,354,478C353.2,470.2,352.7,468.1,351.9,460.3z"/>
			</g>
			<g>
				<path class="st7" d="M271.2,346.7c20.6,0,19.7-37.3,19.5-42.4c-2.7-0.9-4.7-1.6-5.5-1.9c0,0.2,2.1,36-16.3,36
					c-24.7,0-56-42.3-56.2-42.6c-2.4,0.6-4.8,1.3-7.2,1.9C212.7,306.9,245.1,346.7,271.2,346.7z"/>
			</g>
			<path class="st8" d="M299.2,172.4c-2.8,4.9-14.5,32.2-14.7,40.6c-0.1,2.7,2.3,6.6,4.2,8.6c1,1,2.3,1.6,3.5,2.2
				c2.5,1.1,4.9,2.2,7.4,3.3c2.6,1.1,15.6,6.4,18.6,13.1c3.8,8.2,3.8,28.4,1.3,34.1c-1.4,3.4-3.9,6.6-7.4,7.9c-2.9,1-6.1,0.6-9.2,0
				c-16.2-3.1-43.8-13.8-32.6-51.1c5.4-18.1,13.1-33.8,8.3-35.4c-6.8-2.3-14.1-0.7-15.9,6.3c-1.4,5.1-2.6,11-2.4,15.1
				c0.3,5.8,7.6,1.6-0.3,18.3c-4.3,9-9.8,18-17.9,22.8c-2.9,1.7-6.2,3.1-9.5,1.3c-4.5-2.5-4.8-8.8-1-12.2
				c20.1-18.1,16.8-73.7,16.8-78.5c-0.1-14.6,9.2-28.7,22.3-35.2c13.1-6.5,29.4-5.5,42.1,1.8c5,2.9,51.6,24.9,42.9,47.5
				C348.6,201.3,320.9,134.4,299.2,172.4z"/>
			<path class="st8" d="M158.8,446.4c-8.2-3.5-16.5-19.1-27.8-22.1c14.3,8.1,3.1,49.3,31.1,58c0,0,23.9-2.9,58.3-3.2
				c-10.1-6.8-30.6-29.3-40.3-37.4C175,444.6,170.5,451.1,158.8,446.4z"/>
			<g>
				<path class="st1" d="M324.4,210.1c-0.5-0.3-1.1-0.1-1.4,0.4l-5,10.4c-0.5,0.9-0.9,1.9-0.9,3c0,1.6,1.2,2.9,2.6,3.7l4.1,1.6
					c4.6,1.7,5.7-2,5.8-2.7c0.2-1.4-1-2.3-1.9-3.2c-3.2-3.3-3.2-7.6-2.8-12.2C325,210.7,324.8,210.3,324.4,210.1L324.4,210.1z"/>
			</g>
			<path class="st9" d="M277.3,500.4L277.3,500.4c-2,0.9-4.1,1.7-6.2,2.2C273.2,502.2,275.3,501.5,277.3,500.4z"/>
			<path class="st9" d="M274.7,439.4c0.3-0.1,0.6-0.2,0.9-0.3C275.6,439.1,275.3,439.2,274.7,439.4z"/>
			<path class="st8" d="M268.1,502.6c5.6-0.1,92.6-24.4,92.6-24.4l-54.1,0.6L268.1,502.6z"/>
			<path class="st4" d="M284.7,451.4c-1.1-0.9-80.5-69-121.6-104.1c-17.6-15.1-45.2-6.9-51.2,15.5c-1.9,7.2-2.9,15.5-2.1,25.3
				l63.4,56.9c0,0,48.3,39.3,77.4,53.6c4.7,2.3,9.7,4.6,14.9,4.7c2,0.1,4-0.2,5.9-0.6c2.1-0.5,4.2-1.3,6.2-2.2
				C290.1,493.3,296.8,461.1,284.7,451.4z"/>
			<circle class="st4" cx="143.6" cy="373.6" r="33.2"/>
			<path class="st9" d="M277.3,500.4L277.3,500.4c-2,0.9-4.1,1.7-6.2,2.2C273.2,502.2,275.3,501.5,277.3,500.4z"/>
			<path class="st9" d="M274.7,439.4c0.3-0.1,0.6-0.2,0.9-0.3C275.6,439.1,275.3,439.2,274.7,439.4z"/>
			<path class="st4" d="M284.7,451.4c-1.1-0.9-80.5-69-121.6-104.1c-17.6-15.1-45.2-6.9-51.2,15.5c-1.9,7.2-2.9,15.5-2.1,25.3
				l63.4,56.9c0,0,48.3,39.3,77.4,53.6c4.7,2.3,9.7,4.6,14.9,4.7c2,0.1,4-0.2,5.9-0.6c2.1-0.5,4.2-1.3,6.2-2.2
				C290.1,493.3,296.8,461.1,284.7,451.4z"/>
			<circle class="st4" cx="143.6" cy="373.6" r="33.2"/>
			<circle class="st4" cx="268" cy="474.7" r="28.6"/>
			<circle class="st6" cx="401.2" cy="368.7" r="13.4"/>
			<path class="st4" d="M433.5,326.3c-5.4,2.8-11.1,5.2-16.2,8.4c-9.8,6.2-17.4,15.2-25,24c-0.8,0.7-1.5,1.6-2.2,2.5
				c-1.4,2.1-2.2,4.7-2.2,7.4c0,7.5,6.1,13.5,13.5,13.5c2.7,0,5.1-0.8,7.2-2.1c0.5-0.3,1-0.7,1.5-1.1c8.5-5.8,23.3-9.5,32.5-13.9
				c5.5-2.6,11-5,8.8-10.7c-0.6-1.5-1.7-2.9-1.9-4.5c-0.3-2.1,1.1-6.4,1.9-8.4c1.2-3.2-2.1-4.6-1-7.9c4.5-13.8,30.2-16.2,31.1-27.7
				C481.9,299,449,318.3,433.5,326.3z"/>
			<path class="st4" d="M401.2,355.2c-3.5,0-6.7,1.4-9.1,3.6c-0.8,0.7-1.5,1.6-2.2,2.5c-0.6,0.7-1.2,1.4-1.8,2.1
				c-29.1,33.3-85.3,67-127.9,83.7c-1.7,0.5-3.3,1.1-4.8,1.8c-0.1,0-0.2,0.1-0.3,0.1c0,0-0.2,0.1-0.4,0.3
				c-9.1,4.8-15.2,14.3-15.2,25.3c0,15.8,12.8,28.6,28.6,28.6c6.8,0,13-2.4,17.9-6.3c8.5-5,19.1-11.2,25.3-15.8
				c10.4-7.8,19.7-16.9,29-26c9.5-9.3,61.5-69.5,68.3-74.8c0.5-0.3,1-0.7,1.5-1.1c2.9-2.5,4.8-6.2,4.8-10.3
				C414.7,361.3,408.7,355.2,401.2,355.2z"/>
			<g>
				<path class="st5" d="M194,446.2c10.9-10.1,14.3-16.5,18.9-29.9l-38.4,29.8c23.5,22.3,46.7,38,75.8,52.3
					c4.7,2.3,8.5,4.8,17.7,4.8c9.3,0,14.6-3.8,21-7.7c8.6-5.2,17.2-10.3,25.2-16.3c8-6,15.3-12.7,22.4-19.6
					c-16.9,9.4-34.3,17.6-52.4,24.1C253.8,495.4,216.3,474.3,194,446.2z"/>
			</g>
			<g>
				<g>
					<path class="st10" d="M269.4,495.2"/>
				</g>
			</g>
			
				<ellipse transform="matrix(0.2913 -0.9566 0.9566 0.2913 32.1506 437.9651)" class="st11" cx="311.7" cy="197.3" rx="13.4" ry="9.7"/>
			<path class="st12" d="M318.8,189.1l-16,15.4c0.9,1.7,0.8,1.7,2.4,2.5l15-14.7C320.2,190.2,319.6,190.8,318.8,189.1z"/>
			<g>
				<path class="st13" d="M313.5,186.2L313.5,186.2c0.5,0,1,0.1,1.5,0.2c1.8,0.6,3.3,2.2,4.1,4.5c0.9,2.6,0.9,5.6-0.1,8.7
					c-1.6,5.2-5.4,8.9-9.2,8.9c-0.5,0-1-0.1-1.5-0.2c-1.8-0.6-3.3-2.2-4.1-4.5c-0.9-2.6-0.9-5.6,0.1-8.7
					C305.9,189.9,309.7,186.2,313.5,186.2 M313.5,184.2c-4.5,0-9.2,4.2-11.1,10.3c-2.2,7.1,0.2,14.1,5.4,15.6
					c0.7,0.2,1.4,0.3,2.1,0.3c4.5,0,9.2-4.2,11.1-10.3c2.2-7.1-0.2-14.1-5.4-15.6C314.9,184.3,314.2,184.2,313.5,184.2L313.5,184.2z
					"/>
			</g>
			
				<ellipse transform="matrix(0.2913 -0.9566 0.9566 0.2913 41.0779 464.8795)" class="st11" cx="334.3" cy="204.7" rx="12.4" ry="7.6"/>
			<path class="st12" d="M327.5,212c0.7,1.3,0,2,1.2,2.5l12.1-13.9c0.1-1.9,0.9-2.7,0.5-4.2L327.5,212z"/>
			<g>
				<path class="st13" d="M336.5,194.6L336.5,194.6c0.3,0,0.5,0,0.8,0.1c3.1,1,3.7,6.9,2.3,11.6c-1.6,5.3-5.1,8.5-7.6,8.5
					c-0.3,0-0.5,0-0.8-0.1c-3.1-1-3.7-6.9-2.3-11.6C330.6,197.8,334.1,194.6,336.5,194.6 M336.5,192.6c-3.7,0-7.7,4.1-9.5,9.9
					c-2,6.6-0.4,12.9,3.6,14.1c0.5,0.1,0.9,0.2,1.4,0.2c3.7,0,7.7-4.1,9.5-9.9c2-6.6,0.4-12.9-3.6-14.1
					C337.5,192.7,337,192.6,336.5,192.6L336.5,192.6z"/>
			</g>
			<line class="st14" x1="320.9" y1="200.1" x2="327" y2="202.5"/>
			<path class="st14" d="M303.1,192.7l-26.4-2.8c-7.8-0.8-15.4,2.9-19.6,9.5l-3.3,5.3"/>
			<path class="st2" d="M129.8,424.3c6.3-0.3,11.5,4.6,15.4,9.5c3.9,4.9,7.7,10.5,13.6,12.6c8.1,3,16.9-1.6,24.1-6.4
				c11.6-7.8,22.5-16.7,32.5-26.5c4.7-4.7,9.6-10.6,8.3-17.1c-0.6-2.9-2.3-5.4-4-7.8c-6.9-9.5-14.5-18.5-22.8-26.7l-19.3-19.4
				c-21.2-21.3-58.2-11.6-65.1,17.6c-0.1,0.6-0.3,1.2-0.4,1.8c-3.7,13.8-2.5,26.1-2.5,26.1L129.8,424.3z"/>
			<path class="st15" d="M196.8,361.9c8.3,8.3,15.9,17.2,22.8,26.7c1.7,2.4,3.4,4.9,4,7.8c1.3,6.5-3.6,12.5-8.3,17.1
				c-10,9.8-20.8,18.7-32.5,26.5c-7.2,4.8-16,9.4-24.1,6.4c-5.9-2.2-9.7-7.7-13.6-12.6c-3.9-4.9-9.2-9.8-15.4-9.5"/>
			<path class="st16" d="M611.4,271H367.6c-8.8,0-16.5,5.7-19.1,14.2l-50.3,164.9c-1.7,5.5,2.4,11,8.2,11h243.8
				c8.8,0,16.5-5.7,19.1-14.2L619.6,282C621.2,276.5,617.1,271,611.4,271z"/>
			<g>
				<line class="st17" x1="298.6" y1="447.5" x2="568.6" y2="447.5"/>
				<g>
					<path class="st18" d="M613,273c1.8,0,3.4,0.8,4.5,2.3c1.1,1.4,1.4,3.3,0.9,5l-50.7,166.5c-2.2,7.3-8.8,12.2-16.5,12.2H304.9
						c-1.8,0-3.4-0.8-4.5-2.3c-1.1-1.4-1.4-3.3-0.9-5l50.7-166.5c2.2-7.3,8.8-12.2,16.5-12.2H613 M613,270H366.7
						c-8.9,0-16.7,5.8-19.3,14.3l-50.7,166.5c-1.7,5.5,2.5,11.1,8.3,11.1h246.2c8.9,0,16.7-5.8,19.3-14.3l50.7-166.5
						C622.9,275.6,618.7,270,613,270L613,270z"/>
				</g>
				<polygon class="st19" points="598.7,294.2 555.7,438 502.2,438 546.3,294 				"/>
				<polygon class="st20" points="530.9,294 361.6,294 348.8,336 518.1,336 				"/>
				<polygon class="st21" points="514.3,350 444.9,350 432.4,388 502.6,388 				"/>
				<polygon class="st22" points="425.4,350 346.4,350 334.9,388 413.3,388 				"/>
				<polygon class="st19" points="498,400 427.9,400 416.1,438 486.3,438 				"/>
				<polygon class="st21" points="330,400 319.9,433.2 318.7,438 397.7,438 408.6,400 				"/>
				<line class="st17" x1="348.6" y1="284.5" x2="618.6" y2="284.5"/>
			</g>
		</g>
	</g>
</g>
</svg>
