<?xml version="1.0" encoding="utf-8"?>
<!-- Generator: Adobe Illustrator 22.1.0, SVG Export Plug-In . SVG Version: 6.00 Build 0)  -->
<svg version="1.1" id="Capa_1" xmlns="http://www.w3.org/2000/svg" xmlns:xlink="http://www.w3.org/1999/xlink" x="0px" y="0px"
	 viewBox="0 0 376.8 336.9" style="enable-background:new 0 0 376.8 336.9;" xml:space="preserve">
<style type="text/css">
	.st0{fill:#5C61DE;}
	.st1{fill:#FC80A7;}
	.st2{fill:#55C58D;}
</style>
<g>
	<path class="st0" d="M262.9,0H114C99.8,0,86.8,7.5,79.7,19.8L5.3,148.7c-7.1,12.2-7.1,27.3,0,39.5l74.4,128.9
		c7.1,12.2,20.1,19.8,34.2,19.8h148.9c14.1,0,27.2-7.5,34.2-19.8l74.4-128.9c7.1-12.2,7.1-27.3,0-39.5L297.1,19.8
		C290,7.5,277,0,262.9,0z"/>
	<path class="st1" d="M30,226h21.4c2.1,0,4.1,1.1,5.2,3l10.7,18.5c1.1,1.8,1.1,4.1,0,6L56.5,272c-1.1,1.8-3,3-5.2,3H30
		c-2.1,0-4.1-1.1-5.2-3l-10.7-18.5c-1.1-1.8-1.1-4.1,0-6L24.8,229C25.9,227.1,27.8,226,30,226z"/>
	<path class="st2" d="M329.8,80.2h15.3c2.1,0,4.1,1.1,5.2,3l7.7,13.3c1.1,1.8,1.1,4.1,0,6l-7.7,13.3c-1.1,1.8-3,3-5.2,3h-15.3
		c-2.1,0-4.1-1.1-5.2-3l-7.7-13.3c-1.1-1.8-1.1-4.1,0-6l7.7-13.3C325.7,81.3,327.6,80.2,329.8,80.2z"/>
</g>
</svg>
