<?xml version="1.0" encoding="utf-8"?>
<!-- Generator: Adobe Illustrator 22.1.0, SVG Export Plug-In . SVG Version: 6.00 Build 0)  -->
<svg version="1.1" id="Capa_1" xmlns="http://www.w3.org/2000/svg" xmlns:xlink="http://www.w3.org/1999/xlink" x="0px" y="0px"
	 viewBox="0 0 173.9 500.7" style="enable-background:new 0 0 173.9 500.7;" xml:space="preserve">
<style type="text/css">
	.st0{opacity:0.1;fill:#131313;}
	.st1{fill:none;}
	.st2{fill:#F9C9C4;}
	.st3{fill:#FC80A7;}
	.st4{fill:#3C3C56;}
	.st5{fill:#585BD2;}
	.st6{fill:none;stroke:#FFFFFF;stroke-width:2;stroke-miterlimit:10;}
	.st7{fill:none;stroke:#1B1B1B;stroke-width:2;stroke-miterlimit:10;}
	.st8{fill:none;stroke:#69DCA2;stroke-miterlimit:10;}
	.st9{fill:#15132D;}
	.st10{fill:#69DCA2;}
	.st11{fill:#333351;}
	.st12{fill:none;stroke:#5C61DF;stroke-miterlimit:10;}
	.st13{fill:none;stroke:#FC80A7;stroke-miterlimit:10;}
	.st14{fill:#55C58D;}
</style>
<g>
	<ellipse class="st0" cx="77.3" cy="490.7" rx="77.3" ry="10"/>
	<g>
		<circle class="st1" cx="116.6" cy="122.6" r="18.5"/>
		<path class="st1" d="M74.2,203.8c-0.7,0.8-1.3,1.8-1.8,2.7c1.2-1.4,2.3-2.8,3.4-4.3C75.2,202.7,74.7,203.3,74.2,203.8z"/>
		<path class="st1" d="M94.6,202.3c-5.5-4.7-13.5-4.6-18.8-0.1c-1.1,1.4-2.2,2.8-3.4,4.3c-3.1,5.8-1.9,13.2,3.3,17.7
			c5,4.3,12,4.6,17.2,1.2c1.7-1.7,3.3-3.4,4.9-5.2C101,214.4,99.8,206.9,94.6,202.3z"/>
		<path class="st1" d="M94.6,202.3c-5.5-4.7-13.5-4.6-18.8-0.1c-1.1,1.4-2.2,2.8-3.4,4.3c-3.1,5.8-1.9,13.2,3.3,17.7
			c5,4.3,12,4.6,17.2,1.2c1.7-1.7,3.3-3.4,4.9-5.2C101,214.4,99.8,206.9,94.6,202.3z"/>
		<path class="st2" d="M74,204.7c-0.4,0.6-0.9,1.2-1.2,1.8c-0.5,1-0.9,2-1.2,3c-1.7,3.1-3.5,6.3-5.6,9.5
			c-32.9,50.6-46.1,61.7-46.1,61.7l9,7c0,0,41.9-25.5,66.8-64.6c1.3-2,2.5-4,3.6-6c1.9-6.3-0.9-13.3-7-16.5
			C85.9,197.3,78.2,199.2,74,204.7z"/>
		<path class="st2" d="M31,285.2c0,0,1.2-3.3-3.3,4.7c-4.5,7.9-4.3,7.8-11.3,11.2c-7,3.4-5-1.8,2.5-5.4c7.5-3.6-1.1-9.3-4.2-5.2
			c-3.1,4-13.5,23-13.5,23s-3.3,1.4,0.7-9.8s7.8-23,14.1-22.6s8.4-2.5,8.4-2.5L31,285.2z"/>
		<g>
			<path class="st3" d="M84.7,39.3c0.4,0,0.6,0.3,0.6,0.7l-0.8,7c-0.1,0.6-0.2,1.3-0.5,1.8c-0.5,0.8-1.6,1.1-2.6,1l-2.7-0.5
				c-2.9-0.6-2.3-2.9-2.1-3.3c0.4-0.8,1.3-0.8,2.1-1c2.7-0.7,4.2-2.9,5.4-5.4C84.3,39.5,84.5,39.3,84.7,39.3L84.7,39.3z"/>
		</g>
		<path class="st2" d="M113.2,90.1c0,0,8.9,14-12.3,15.6L88.5,68.1l6.7-31l23.4-8.5C118.6,28.6,99.4,65.4,113.2,90.1z"/>
		<path class="st2" d="M78.2,66.2l11.1-55.9l17.7,2.9c0,0,13.9,43.8,3.1,50c-3.4,2-11.7-12-11.7-12l-5.6,13.8L78.2,66.2z"/>
		<path class="st4" d="M90.1,0.5c13-1.5,33.4-0.6,43.6,15s-5.2,45.8-5.2,45.8s-6.9,12.4,2.3,20.5c9.2,8.2-0.9,12-13.1,2.6
			s-14.6-8.3-13.7-20.8c0.9-12.5,6.9-21.1-0.2-21.8c-2.7-0.3-3.8,1.2-4,10.1c0,1.5,1.2,2.7,1,4.6c-1,9.7-7.3,22.3-16.2,25.4
			c-10.6,3.7-23.9,5.7-18.7-9.5s19.4-5.3,23.7-14.6c4.4-9.4,10.7-16.6,6.7-26.8s-7.9-20.3-17.4-16.8S71.3,2.8,90.1,0.5z"/>
		<ellipse transform="matrix(0.3363 -0.9417 0.9417 0.3363 23.1452 102.1961)" class="st5" cx="84.1" cy="34.7" rx="8.9" ry="3.7"/>
		<path class="st6" d="M87.5,34.9l17,4.4c4.3,1.1,7.7,4.4,9,8.7l0.9,3"/>
		<ellipse transform="matrix(0.3363 -0.9417 0.9417 0.3363 23.1452 102.1961)" class="st7" cx="84.1" cy="34.7" rx="8.9" ry="3.7"/>
		<circle class="st8" cx="68.7" cy="332.1" r="15.4"/>
		<circle class="st8" cx="73.5" cy="475.4" r="5"/>
		<path class="st9" d="M120.7,248.8c-12,33-33.3,57-36,82.5c-0.6,5.7-4.3,16.1-17,16.2s-14.9-14.6-14.9-14.6
			c-2.5-43.2,13.4-77.9,19.5-97.8c0,0,6.3-20.1,27.3-17.4C119.6,220.1,123.6,240.7,120.7,248.8z"/>
		<path class="st9" d="M84.6,332.1c-2.3,16.2-4.5,34.2-5.7,50.5c-1.7,24.3,2.5,69-0.5,93c-0.9,7.5-9.4,5.3-10,0.5
			c-4.1-35.9-18.5-108.2-16-140.8c0.1-1.7,0.3-3.3,0.4-5c0,0,4-15.6,17.6-13.5S84.6,332.1,84.6,332.1z"/>
		<path class="st10" d="M68.6,476.1c0,0-10.3,4-22.6,6.4c-12.3,2.3-9.1,7.2,0.2,7.3s29.9,1.1,32-11.4c0,0-1.9,3.6-5.7,2.8
			C68.9,480.3,68.6,476.1,68.6,476.1z"/>
		<circle class="st1" cx="132.9" cy="247.7" r="25.2"/>
		<circle class="st8" cx="118.5" cy="340.3" r="15.4"/>
		<path class="st11" d="M157.9,250.4c-7.1,34.4-21.7,77.9-24.9,103.3c-0.8,6-0.7,0-13.2,2c-12.5,1.9-16.7,2.6-16.7,2.6
			c-8.7-42.3,1.8-93.9,5-114.5c0,0,3.3-20.8,24.5-21.2C152.7,222.2,159.7,241.9,157.9,250.4z"/>
		<path class="st12" d="M150.8,229.8c0,0-26.4,17.3,3.4,35.2"/>
		<circle class="st1" cx="129" cy="483.3" r="5"/>
		<path class="st11" d="M134,341.4c-1.6,16.3-2.7,32.6-3.2,48.9c-0.7,24.4,5.3,68.8,3.2,92.9c-0.6,7.5-9.2,5.6-9.9,0.9
			c-5.5-35.7-22.7-107.4-21.6-140.1c0.1-1.7,0.1-3.4,0.2-5c0,0,3.4-15.7,17.1-14.1C133.4,326.6,134,341.4,134,341.4z"/>
		<path class="st10" d="M123.9,483.6c0,0-9.9,4.9-22,8.3c-12,3.4-8.5,8,0.8,7.2s29.9-1.6,30.8-14.2c0,0-1.6,3.8-5.4,3.3
			C124.6,487.8,123.9,483.6,123.9,483.6z"/>
		<path class="st13" d="M136.3,252.7c0,0,2.5,7.5,11.4,13.4"/>
		<path class="st12" d="M78.7,233.5c0,0,3.3,18.4-13.1,21.5"/>
		<path class="st13" d="M66.2,258.2c0,0,9.2-2,12.9-8.5"/>
		<path class="st14" d="M114.3,94.4c0,0,56.1,27.2,44.3,147.4c-31.4,4.7-89-10.4-97.1-23.7c28.3-50.9,39-85.7,39.4-112.5
			C118.1,103.9,114.3,94.4,114.3,94.4z"/>
		<path class="st11" d="M153.5,243.4l-13.7-0.9c5.3-66.9-39.1-111.8-39.1-111.8S153.8,149.1,153.5,243.4z"/>
		<circle class="st1" cx="117.4" cy="122.1" r="18.5"/>
		<path class="st2" d="M145.1,202.3c0,0,0.9,5.4,0.8,5.4c0.4,3.6,0.7,7.3,0.9,11.1c2.1,60.9,0.2,77.8,0.2,77.8l9,0.6
			c0,0,19.8-45,17.8-91.8c-0.1-2.4-0.3-4.7-0.5-7.1c-2.1-6.4-8.4-10.7-15.4-9.9C150.7,189.4,145.4,195.3,145.1,202.3z"/>
		<path class="st14" d="M100.7,130.8c0,0,35.9,22.2,44.3,71.5c0.3,1.8,0.6,3.6,0.8,5.4c2.2,6.2,8.4,10.3,15.2,9.6
			c6.5-0.7,11.5-5.7,12.6-11.8c-0.1-2.4-0.3-4.7-0.5-7.1c-0.4-4.5-1.1-9.1-2-13.6c-10.7-53.2-42.1-77.7-42.1-77.7L100.7,130.8z"/>
		<path class="st2" d="M147,296.7c0,0,0.2,0.3-1.9,5.5c-3.5,8.6-3.3,8.4-1.4,15.9c1.9,7.5,4.7,2.6,2.5-5.4s8-5.2,6.8-0.2
			c-1.1,5-9.1,25.4-9.1,25.4s1,3.4,7.1-7c6.1-10.4,12.8-21,8.4-25.6s-3.6-8-3.6-8L147,296.7z"/>
	</g>
</g>
</svg>
