<?xml version="1.0" encoding="utf-8"?>
<!-- Generator: Adobe Illustrator 22.1.0, SVG Export Plug-In . SVG Version: 6.00 Build 0)  -->
<svg version="1.1" xmlns="http://www.w3.org/2000/svg" xmlns:xlink="http://www.w3.org/1999/xlink" x="0px" y="0px"
	 viewBox="0 0 1366 789" style="enable-background:new 0 0 1366 789;" xml:space="preserve">
<style type="text/css">
	.st0{fill:url(#SVGID_1_);}
	.st1{fill:url(#SVGID_2_);}
	.st2{display:none;}
	.st3{display:inline;opacity:0.2;}
	.st4{fill:#FF00FF;}
</style>
<g id="Capa_1">
	<g>
		<linearGradient id="SVGID_1_" gradientUnits="userSpaceOnUse" x1="749.1594" y1="-162.7941" x2="1341.4973" y2="621.0848">
			<stop  offset="0" style="stop-color:#7D15EE"/>
			<stop  offset="1" style="stop-color:#F4B244"/>
		</linearGradient>
		<path class="st0" d="M848,614.5c-1.7,5.2,1.3,11,6.5,12.7L1366,789V0l-347.5,100c-5.2,1.7-10.9,7.3-12.5,12.6L848,614.5z"/>
		<linearGradient id="SVGID_2_" gradientUnits="userSpaceOnUse" x1="413.6947" y1="662.476" x2="2.2422" y2="237.2428">
			<stop  offset="0" style="stop-color:#37986B"/>
			<stop  offset="1" style="stop-color:#7F6FEF"/>
		</linearGradient>
		<path class="st1" d="M521,316.1c2.2-5-0.3-10.5-5.5-12.1L0,156.5v543.7l351-21.3c5.5-0.5,11.8-5,14-10L521,316.1z"/>
	</g>
</g>
<g id="grid" class="st2">
	<g class="st3">
		<rect x="6449" y="-1565" class="st4" width="92" height="6009"/>
		<rect x="6561" y="-1565" class="st4" width="92" height="6009"/>
		<rect x="6673" y="-1565" class="st4" width="92" height="6009"/>
		<rect x="6785" y="-1565" class="st4" width="92" height="6009"/>
		<rect x="6897" y="-1565" class="st4" width="92" height="6009"/>
		<rect x="7009" y="-1565" class="st4" width="92" height="6009"/>
		<rect x="7121" y="-1565" class="st4" width="92" height="6009"/>
		<rect x="7233" y="-1565" class="st4" width="92" height="6009"/>
		<rect x="7345" y="-1565" class="st4" width="92" height="6009"/>
		<rect x="7457" y="-1565" class="st4" width="92" height="6009"/>
		<rect x="7569" y="-1565" class="st4" width="92" height="6009"/>
		<rect x="7681" y="-1565" class="st4" width="92" height="6009"/>
	</g>
</g>
</svg>
