<svg xmlns="http://www.w3.org/2000/svg" width="56.626" height="56.626" viewBox="0 0 56.626 56.626">
  <g id="compass" transform="translate(0.25 0.25)">
    <path id="Trazado_993" data-name="Trazado 993" d="M28.063,0A28.063,28.063,0,1,0,56.126,28.063,28.063,28.063,0,0,0,28.063,0Zm0,54.255A26.192,26.192,0,1,1,54.255,28.063,26.192,26.192,0,0,1,28.063,54.255Zm0,0" fill="#7a27ff" stroke="#7a27ff" stroke-width="0.5"/>
    <path id="Trazado_994" data-name="Trazado 994" d="M63.386,40A23.386,23.386,0,1,0,86.771,63.386,23.386,23.386,0,0,0,63.386,40Zm0,44.9A21.515,21.515,0,1,1,84.9,63.386,21.515,21.515,0,0,1,63.386,84.9Zm0,0" transform="translate(-35.323 -35.323)" fill="#7a27ff" stroke="#7a27ff" stroke-width="0.5"/>
    <path id="Trazado_995" data-name="Trazado 995" d="M147.665,120.114a.935.935,0,0,0-1.123-.151l-16.7,9.531c-.01.007-.015.018-.025.024a2.807,2.807,0,0,0-.3.3c-.006.01-.017.015-.023.025l-9.534,16.7a.936.936,0,0,0,1.276,1.276l16.7-9.531c.01-.007.015-.018.025-.024a2.8,2.8,0,0,0,.3-.3c.006-.01.017-.015.023-.025l9.534-16.7A.936.936,0,0,0,147.665,120.114ZM123.284,144.5l7.227-12.657,5.435,5.43Zm13.981-8.546-5.425-5.426L144.5,123.3Zm0,0" transform="translate(-105.825 -105.828)" fill="#7a27ff" stroke="#7a27ff" stroke-width="0.5"/>
    <path id="Trazado_996" data-name="Trazado 996" d="M76.677,232H72.935a.935.935,0,0,0,0,1.871h3.742a.935.935,0,0,0,0-1.871Zm0,0" transform="translate(-63.581 -204.873)" fill="#7a27ff" stroke="#7a27ff" stroke-width="0.5"/>
    <path id="Trazado_997" data-name="Trazado 997" d="M364.677,232h-3.742a.935.935,0,1,0,0,1.871h3.742a.935.935,0,1,0,0-1.871Zm0,0" transform="translate(-317.906 -204.873)" fill="#7a27ff" stroke="#7a27ff" stroke-width="0.5"/>
    <path id="Trazado_998" data-name="Trazado 998" d="M232.935,77.613a.935.935,0,0,0,.935-.935V72.935a.935.935,0,0,0-1.871,0v3.742A.935.935,0,0,0,232.935,77.613Zm0,0" transform="translate(-204.873 -63.581)" fill="#7a27ff" stroke="#7a27ff" stroke-width="0.5"/>
    <path id="Trazado_999" data-name="Trazado 999" d="M232.935,360a.936.936,0,0,0-.935.935v3.742a.935.935,0,1,0,1.871,0v-3.742A.936.936,0,0,0,232.935,360Zm0,0" transform="translate(-204.873 -317.906)" fill="#7a27ff" stroke="#7a27ff" stroke-width="0.5"/>
  </g>
</svg>
