<svg xmlns="http://www.w3.org/2000/svg" width="19.227" height="21.63" viewBox="0 0 19.227 21.63">
  <path id="Trazado_817" data-name="Trazado 817" d="M351.872,2717.87h-5.325a2.392,2.392,0,0,1,.506,1.462v10.442a3.085,3.085,0,0,1-3.087,3h-.746a2.921,2.921,0,0,1-2.9-3v-6.857h1.442v6.857a1.319,1.319,0,0,0,1.454,1.314h.746a1.493,1.493,0,0,0,1.645-1.314v-10.442a1.608,1.608,0,0,0-1.645-1.462h-5.221a1.318,1.318,0,0,0-1.3,1.462v18.647a1.369,1.369,0,0,0,1.3,1.521h16.409a1.535,1.535,0,0,0,1.513-1.521v-15.365Zm-.252,5.047v-4.07l4.168,4.07Z" transform="translate(-337.44 -2717.87)" fill="#7f7f7f"/>
</svg>
