<?xml version="1.0" encoding="utf-8"?>
<!-- Generator: Adobe Illustrator 22.1.0, SVG Export Plug-In . SVG Version: 6.00 Build 0)  -->
<svg version="1.1" id="Capa_1" xmlns="http://www.w3.org/2000/svg" xmlns:xlink="http://www.w3.org/1999/xlink" x="0px" y="0px"
	 viewBox="0 0 363.8 358.9" style="enable-background:new 0 0 363.8 358.9;" xml:space="preserve">
<style type="text/css">
	.st0{fill:#FFB236;}
	.st1{fill:#585DD2;}
	.st2{fill:#58B685;}
	.st3{fill:#418563;}
	.st4{fill:none;stroke:#C0C2FD;stroke-miterlimit:10;}
</style>
<g>
	<path class="st0" d="M122.3,75h157c2.1,0,4.1,1.1,5.2,3L363,214c1.1,1.8,1.1,4.1,0,6l-78.5,136c-1.1,1.8-3,3-5.2,3h-157
		c-2.1,0-4.1-1.1-5.2-3l-78.5-136c-1.1-1.8-1.1-4.1,0-6l78.5-136C118.2,76.1,120.2,75,122.3,75z"/>
	<g>
		<path class="st1" d="M230.5,320.7c0,0-37.2-75.5-106.6-95.3l89.5,113.9l19.9-3.3L230.5,320.7z"/>
		<path class="st2" d="M241.4,336c0,0,44.5-36.4,22.8-67.4c-21.7-31-34.2-42.8-12-84.8s20.4-67.8,3.1-73.1c0,0-0.7,76.4-23.8,101.7
			s-20.2,67.1-11.8,89.2c8.5,22,6.3,34.4,6.3,34.4H241.4z"/>
		<path class="st3" d="M255.3,110.7c0,0,14.8,48-3.1,73.1s-34.7,56.4-23.1,80.3c11.6,23.9,20.2,45.6,14.1,56.5s-9.7,15.3-9.7,15.3
			h-7.4c0,0-5.6-21.8-17.2-49.7c-11.6-27.9-13-57.4,4.7-78.9S257.6,121,255.3,110.7z"/>
		<path class="st4" d="M225.9,336c0,0-16.9-41.5-41.1-64s-58.4-45.9-58.4-45.9"/>
		<path class="st4" d="M219.5,322.2c0,0-13.5-10.1-30.2-15.9"/>
		<path class="st4" d="M184.8,272.1c0,0-7.1-17.4-10.8-20.2"/>
		<path class="st1" d="M226,327.1c0,0-40.7-134.7-81.2-197.2S50,27.9,50,27.9S145.2,81.1,226,327.1z"/>
		<path class="st1" d="M98.1,73.2c0,0-50.1-19.9-98.1-6.2C0,67,76.3,79.6,98.1,73.2z"/>
		<path class="st1" d="M75.8,48.9c0,0-38.6-20-75.8-8.6C0,40.3,60.1,53.2,75.8,48.9z"/>
		<path class="st1" d="M114.2,93.9c0,0-44.7-3.8-76.3,5.1S3.8,111.6,3.8,111.6S105.4,105.3,114.2,93.9z"/>
		<path class="st1" d="M131.9,111.4c0,0-49.9,5.5-67.5,28.7s-17.7,23.2-17.7,23.2S130.7,121.9,131.9,111.4z"/>
		<path class="st1" d="M142.8,137.3c0,0-35.7,23.8-44.7,49.4s-8.8,21.9-8.8,21.9S140.8,144.7,142.8,137.3z"/>
		<path class="st1" d="M154.4,157.7c0,0-20,22-22.5,42.6s0,21.9,0,21.9S152.5,165.7,154.4,157.7z"/>
		<path class="st1" d="M55.8,31.8c0,0-31.6-16.6-47.4-9.9C8.4,21.9,50.5,27.7,55.8,31.8z"/>
		<path class="st2" d="M63.1,37.5c0,0-4.5-24.5,6.8-35.7S63.1,37.5,63.1,37.5z"/>
		<path class="st2" d="M80.9,54.1c0,0-3.8-30.5,0-42.7C80.9,11.4,87.1,28.4,80.9,54.1z"/>
		<path class="st2" d="M96.8,70c0,0,1.4-27.3,17.4-32.5S138,35,138,35s-7.3,0.4-17.5,8.3S101,53.9,96.8,70z"/>
		<path class="st2" d="M116,93.1c0,0,12-34,26.6-41s18.6-8.8,18.6-8.8L116,93.1z"/>
		<path class="st2" d="M128.6,111.8c0,0,10.5-25.3,28.5-33.4s24.8-8.5,24.8-8.5L128.6,111.8z"/>
		<path class="st2" d="M142.8,137.3c0,0,9.4-33.7,27.9-35s20.7,0,20.7,0L142.8,137.3z"/>
	</g>
</g>
</svg>
