<?xml version="1.0" encoding="utf-8"?>
<!-- Generator: Adobe Illustrator 22.1.0, SVG Export Plug-In . SVG Version: 6.00 Build 0)  -->
<svg version="1.1" id="Capa_1" xmlns="http://www.w3.org/2000/svg" xmlns:xlink="http://www.w3.org/1999/xlink" x="0px" y="0px"
	 viewBox="0 0 500 312.3" style="enable-background:new 0 0 500 312.3;" xml:space="preserve">
<style type="text/css">
	.st0{clip-path:url(#SVGID_2_);}
	.st1{fill:#FFB4A6;}
	.st2{fill:#F9C9C4;}
	.st3{fill:#00B4F9;}
	.st4{fill:#5C61DF;}
	.st5{fill:#333351;}
	.st6{fill:#FC80A7;}
	.st7{fill:#413E7A;}
	.st8{fill:none;stroke:#FFFFFF;stroke-miterlimit:10;}
	.st9{fill:#FFFFFF;}
	.st10{fill:#3C3972;}
	.st11{fill:none;stroke:#FEF6F6;stroke-miterlimit:10;}
	.st12{fill:#15132D;}
	.st13{fill:#2E2E5D;}
	.st14{opacity:0.3;fill:#FFFFFF;}
	.st15{opacity:0.7;fill:#F6F7F9;}
	.st16{opacity:0.7;fill:#FC80A7;}
	.st17{opacity:0.7;fill:#5C61DF;}
	.st18{opacity:0.75;fill:#69DCA2;}
	.st19{fill:#5C61DE;}
	.st20{fill:#55C58D;}
</style>
<g>
	<g>
		<defs>
			<rect id="SVGID_1_" width="500" height="312.3"/>
		</defs>
		<clipPath id="SVGID_2_">
			<use xlink:href="#SVGID_1_"  style="overflow:visible;"/>
		</clipPath>
		<g class="st0">
			<path class="st1" d="M463.5,298.3l-12.6-163.4c-1.3-17.2-10.9-32.6-25.7-41.4c-42.3-25.1-131.5-74-184.1-74
				c-59.3,0-188.2,212.6-194.5,269.8c-2.8,20.2,11.6,50.3,33.2,53.1c43.9-8.4,111.5-40,209.3-13.3
				C387.1,355.8,463.5,351.3,463.5,298.3z"/>
			<g>
				<g>
					<path class="st2" d="M270.4,315.8c0,0,66.1-11.6,121.2,2.4c1.6,0.4,14.6-132,0.5-138.6c-13.2-6.2-33.4,6.5-34.4-22.9
						c-0.2-4.9-1.6-9.6-2.5-14.4c-2.1-11.9-0.5-7.5-3.5-19.3c-1.3-5.2-2.2-10.6-4.9-15.1c-3.2-5.2-8.5-8.7-14-11.4
						c-10.2-5-20.7-12.7-32.1-12.9c-4.6-0.1-10.8,5.6-13.3,9.5c-3,4.6-0.1,10.8,3.4,15.1c0,0,12.4,24.1,18.5,37.4
						c3.8,8.2,19.3,1.1,22.7,3.2c5.6,3.4,5.6,17.5,2.2,23c-2.2,3.7-5.4,6.7-11.2,9.1c0,0,0,0,0,0c-2.6,0.8-20.3,2.1-30.8,4.3
						C284.4,186.8,304.7,267.6,270.4,315.8z"/>
				</g>
			</g>
			<path class="st2" d="M270.7,313.7c0.1-0.9,7.2-68.5,10.9-103.4c1.6-15,9.6-15.2,22.4-7.4c4.1,2.5,8.3,6.1,12.3,11
				c0,0-1.1,87.1-8.4,106.8c-1.2,3.2-2.5,6.5-4.9,8.9c-0.9,0.9-2,1.7-3.1,2.3c-1.2,0.7-2.5,1.3-3.9,1.7
				C286.9,335.8,269.3,323.6,270.7,313.7z"/>
			<path class="st2" d="M284.7,226.5c7,7.4,18.7,7.7,26.2,0.7c7.4-7,7.1-18.1,0-25.5c-7-7.4-18.1-8.4-25.5-1.4
				C278,207.4,277.7,219.1,284.7,226.5z"/>
			<circle class="st2" cx="289" cy="317.2" r="18.6"/>
			<circle class="st3" cx="178.8" cy="326.6" r="8.7"/>
			<path class="st2" d="M144.6,321c3.8-1.1,7.5-2.5,11.4-3.3c7.4-1.5,15-0.6,22.5,0.2c0.7,0,1.4,0.1,2.1,0.2
				c1.6,0.4,3.2,1.2,4.4,2.5c3.3,3.5,3.2,9.1-0.3,12.4c-1.3,1.2-2.8,1.9-4.4,2.2c-0.4,0.1-0.8,0.1-1.2,0.2c-6.6,1-15.2,5.9-21.6,7.9
				c-3.8,1.2-7.4,2.6-8.9-1.1c-0.4-1-0.5-2.1-1.1-3c-0.8-1.1-3.4-2.5-4.7-3.1c-2-1-1.1-3.1-3-4.2c-8.3-4.5-21.5,5.8-27,0.8
				C109.6,329.8,133.7,324.2,144.6,321z"/>
			<path class="st2" d="M172.8,320.3c1.7-1.6,3.8-2.4,5.9-2.4c0.7,0,1.4,0.1,2.1,0.2c0.6,0.1,1.2,0.1,1.8,0.2
				c28.6,2.7,70.2-6.4,97.7-17.6c1-0.5,2-0.9,3.1-1.3c0.1,0,0.1-0.1,0.2-0.1c0,0,0.1,0,0.3-0.1c6.4-1.8,13.6-0.1,18.5,5.1
				c7,7.4,6.7,19.2-0.7,26.2c-3.2,3-7.2,4.7-11.3,5c-6.2,1.4-14,3.2-19,3.8c-8.4,1-16.9,0.8-25.3,0.7c-8.7-0.2-60.1-5.4-65.6-4.8
				c-0.4,0.1-0.8,0.1-1.2,0.2c-2.5,0.1-5-0.8-6.9-2.7C169.1,329.2,169.2,323.6,172.8,320.3z"/>
			<path class="st4" d="M315,227.5c-0.1,3.1,0,6.5-1.7,9.1c-2.4,3.6-7.2,4.4-11.5,4.5c-7,0.3-9.2,0.3-16.1-0.7
				c-3.3-0.5-7-1.4-8.4-4.4c-0.6-1.3-0.7-2.8-0.7-4.3c0-5.8,0.4-11.7,1.2-17.4l2-13.5c2.2-14.8,19.2-21.3,30.6-11.6
				c0.2,0.2,0.5,0.4,0.7,0.6c5.6,4.4,6.6,14,6.6,14S315.2,224.4,315,227.5z"/>
			<path class="st4" d="M292.3,185.2c10.4-2.9,15.8-2.1,18.4-2.9c0,0.1,9.3,34.9,23.4,34.9c18.9,0,57.8-37.5,58-37.7
				c14.1,3.6,40.4-4.2-0.5,138.6c-50.2-3.6-121.2-2.4-121.2-2.4C303.6,267.2,270.4,191.3,292.3,185.2z"/>
			<path class="st5" d="M383.1,273.2l-28.5,44l-51-1.6c0,0,4.5-2.1,26.3-22.5s56.1-30.6,56.1-30.6L383.1,273.2z"/>
			<g>
				<path class="st6" d="M300.4,125.4c0.4-0.2,0.9-0.1,1.1,0.3l3.9,8c0.3,0.7,0.7,1.5,0.7,2.3c0,1.2-0.9,2.3-2,2.8l-3.2,1.2
					c-3.5,1.3-4.4-1.5-4.5-2.1c-0.1-1.1,0.8-1.8,1.5-2.5c2.4-2.5,2.5-5.9,2.2-9.3C300,125.8,300.1,125.6,300.4,125.4L300.4,125.4z"
					/>
			</g>
			<path class="st7" d="M331.3,286.1c-0.2-0.1-0.5-0.2-0.7-0.2C330.6,285.9,330.9,285.9,331.3,286.1z"/>
			<path class="st2" d="M300.4,278c0.7-0.6,52.3-44.8,79-67.7c11.4-9.8,17.4-4.5,21.3,10.1c1.2,4.6,1.9,10.1,1.4,16.4
				c0,0-60.6,62.5-79.5,71.8c-3.1,1.5-6.3,3-9.7,3.1c-1.3,0-2.6-0.1-3.8-0.4c-1.4-0.3-2.7-0.8-4-1.4
				C296.9,305.2,292.6,284.3,300.4,278z"/>
			<path class="st2" d="M370.5,224.3c0,10.2,8.3,18.5,18.5,18.5c10.2,0,17.6-8.3,17.6-18.5c0-10.2-7.4-18.5-17.6-18.5
				C378.8,205.8,370.5,214.1,370.5,224.3z"/>
			<circle class="st2" cx="311.3" cy="293.1" r="18.6"/>
			<circle class="st3" cx="224.8" cy="224.3" r="8.7"/>
			<path class="st2" d="M203.8,196.7c3.5,1.8,7.2,3.4,10.5,5.5c6.4,4,11.3,9.9,16.2,15.6c0.5,0.5,1,1,1.4,1.6c0.9,1.4,1.5,3,1.5,4.8
				c0,4.9-3.9,8.8-8.8,8.8c-1.7,0-3.3-0.5-4.7-1.4c-0.3-0.2-0.7-0.4-1-0.7c-5.5-3.8-15.1-6.2-21.1-9c-3.6-1.7-7.1-3.2-5.7-6.9
				c0.4-1,1.1-1.9,1.3-2.9c0.2-1.4-0.7-4.2-1.2-5.5c-0.8-2.1,1.3-3,0.6-5.1c-2.9-8.9-19.6-10.6-20.2-18
				C172.3,179,193.7,191.5,203.8,196.7z"/>
			<path class="st2" d="M224.8,215.5c2.3,0,4.4,0.9,5.9,2.3c0.5,0.5,1,1,1.4,1.6c0.4,0.5,0.8,0.9,1.2,1.4
				c18.9,21.6,55.4,43.5,83.1,54.4c1.1,0.3,2.1,0.7,3.1,1.2c0.1,0,0.1,0.1,0.2,0.1c0,0,0.1,0.1,0.3,0.2c5.9,3.1,9.9,9.3,9.9,16.4
				c0,10.2-8.3,18.6-18.6,18.6c-4.4,0-8.5-1.5-11.6-4.1c-5.5-3.2-12.4-7.3-16.4-10.3c-6.8-5.1-12.8-11-18.8-16.9
				c-6.2-6.1-39.9-45.2-44.4-48.6c-0.3-0.2-0.7-0.4-1-0.7c-1.9-1.6-3.1-4-3.1-6.7C216,219.4,219.9,215.5,224.8,215.5z"/>
			<g>
				<g>
					<path class="st8" d="M335.4,291"/>
				</g>
			</g>
			
				<ellipse transform="matrix(0.9566 -0.2913 0.2913 0.9566 -20.2125 95.352)" class="st6" cx="310.2" cy="115.6" rx="7.4" ry="10.3"/>
			<path class="st9" d="M304.7,109.3l12.3,11.8c-0.7,1.3-0.6,1.3-1.8,1.9l-11.5-11.3C303.6,110.1,304.1,110.6,304.7,109.3z"/>
			<path class="st10" d="M308.8,107.1c2.8,0,5.8,2.8,6.9,6.8c0.7,2.3,0.7,4.6,0.1,6.6c-0.6,1.8-1.7,3-3.1,3.4
				c-0.4,0.1-0.7,0.2-1.1,0.2c-2.8,0-5.8-2.8-6.9-6.8c-0.7-2.3-0.7-4.6-0.1-6.6c0.6-1.8,1.7-3,3.1-3.4
				C308,107.2,308.4,107.1,308.8,107.1 M308.8,105.5c-0.5,0-1.1,0.1-1.6,0.2c-3.9,1.2-5.8,6.6-4.1,12c1.4,4.7,5,7.9,8.5,7.9
				c0.5,0,1.1-0.1,1.6-0.2c3.9-1.2,5.8-6.6,4.1-12C315.9,108.7,312.3,105.5,308.8,105.5L308.8,105.5z"/>
			
				<ellipse transform="matrix(0.9566 -0.2913 0.2913 0.9566 -22.6279 90.539)" class="st6" cx="292.8" cy="121.3" rx="5.8" ry="9.6"/>
			<path class="st9" d="M298,126.9c-0.5,1,0,1.5-0.9,1.9l-9.3-10.7c-0.1-1.4-0.7-2.1-0.4-3.2L298,126.9z"/>
			<path class="st10" d="M291.1,113.6c1.8,0,4.5,2.4,5.7,6.5c0.6,2.1,0.8,4.3,0.3,6.1c-0.4,1.5-1.1,2.4-2,2.7
				c-0.2,0.1-0.4,0.1-0.6,0.1c-1.8,0-4.5-2.4-5.7-6.5c-0.6-2.1-0.8-4.3-0.3-6.1c0.4-1.5,1.1-2.4,2-2.7
				C290.7,113.6,290.9,113.6,291.1,113.6 M291.1,112c-0.4,0-0.7,0.1-1.1,0.2c-3.1,0.9-4.3,5.8-2.8,10.8c1.4,4.5,4.5,7.6,7.3,7.6
				c0.4,0,0.7-0.1,1.1-0.2c3.1-0.9,4.3-5.8,2.8-10.8C297,115.1,293.9,112,291.1,112L291.1,112z"/>
			
				<rect x="298.2" y="118.1" transform="matrix(0.9305 -0.3662 0.3662 0.9305 -22.5643 118.3526)" class="st9" width="5.1" height="1.1"/>
			<path class="st9" d="M354.2,121.6l-2.6-4.1c-3.1-4.9-8.8-7.7-14.5-7.1l-19.9,3.1l-0.2-1.1l19.9-3.1c6.2-0.7,12.3,2.3,15.6,7.6
				l2.6,4.1L354.2,121.6z"/>
			<path class="st4" d="M386.3,262.5c-2.5,3.2-5,6.8-8.8,8.2c-5.3,1.9-11-1-15.6-4.1c-7.6-5.1-9.9-6.8-16.4-13.2
				c-3.1-3-6.2-6.9-5.4-11.1c0.4-1.9,1.5-3.5,2.6-5.1c4.5-6.2,9.4-12,14.8-17.4l12.6-12.6c13.8-13.8,36.7-7.5,41.2,11.5
				c0.1,0.4,0.2,0.8,0.2,1.2c2.4,9-4,19.8-4,19.8S388.9,259.3,386.3,262.5z"/>
			<path class="st9" d="M373.6,272.2c-4.5,0-8.9-2.5-12.5-4.9c-7.6-5.1-9.7-7-16.2-13.3c-3.1-3.1-6.5-7.2-5.6-11.9
				c0.4-2,1.5-3.7,2.7-5.4c4.5-6.2,9.5-12.1,14.9-17.5l1.2,1.2c-5.3,5.3-10.3,11.2-14.7,17.3c-1.1,1.5-2.1,3.1-2.5,4.7
				c-0.8,3.9,2.4,7.6,5.2,10.4c6.5,6.4,8.4,8.1,15.9,13.1c4.3,2.9,9.8,5.9,14.9,4c3.1-1.2,5.4-4,7.5-6.8c0.3-0.4,0.6-0.8,0.9-1.2
				l1.3,1c-0.3,0.4-0.6,0.8-0.9,1.2c-2.3,2.9-4.7,6-8.3,7.3C376.2,272,374.9,272.2,373.6,272.2z"/>
			<g>
				<g>
					<path class="st11" d="M255.9,131.7"/>
				</g>
			</g>
			<path class="st12" d="M347.6,124.3c-0.7-1.7-1.9-3.1-1.9-3.1L347.6,124.3z"/>
			<path class="st10" d="M361.2,75.9c-34-31.4-86.1-0.8-82.9,17.5c2.7,15.5,20.1,15.9,39.1,13.9c0.1,0,0.2,0,0.3,0
				c16.7-0.8,13.2,21.9,19.7,27.4c9.7,8.1,16.7,6,19.7,20.2c0.3,1.6,0.5,3.2,0.7,4.7c0.1,0.8,0.2,1.6,0.2,2.4
				c1.6,16.5,17.1,15.2,17.1,15.2l7.9,0.3v-50.2C381.6,109.8,381,94.2,361.2,75.9z M340.9,129.9c-4.4-2.5-6.3-11.1-7-11.9
				c-0.1-0.2,4.7-2.7,8.2,1.4c0.4,0.6,0.9,1.1,1.3,1.7C344.2,122.9,346.7,128.6,340.9,129.9z"/>
			<path class="st13" d="M370.7,158.4c-0.1-0.8-0.2-1.6-0.2-2.4c-0.2-1.6-0.4-3.1-0.7-4.7c-3.1-14.2-10-12-19.7-20.2
				c-1.4-1.2-4.7-5.8-5.5-6c0.2,2-0.5,4.1-3.7,4.8c-4.4-2.5-6.3-11.1-7-11.9c-0.1-0.1,1.9-1.2,4.2-0.9c0-0.1-0.1-0.1-0.1-0.2
				c-4.3-7.7-12.6-12.4-21.5-12.4c-13.2,0-23.6-3.1-25.6-14.8c-1.5-8.7,9.5-20.2,25.1-26.5c-21.8,3.9-39.6,19.2-37.6,30.1
				c2.7,15.5,20.1,15.9,39.1,13.9c0.1,0,0.2,0,0.3,0c16.7-0.8,13.2,21.9,19.7,27.4c9.7,8.1,16.7,6,19.7,20.2
				c0.3,1.6,0.5,3.2,0.7,4.7c0.1,0.8,0.2,1.6,0.2,2.4c1.6,16.5,17.1,15.2,17.1,15.2l7.9,0.3v-4.4
				C378.4,172.2,371.7,168.9,370.7,158.4z"/>
			<path class="st9" d="M341.2,145.1c-3.1,0-5.9-1.5-7.5-4.1c-1.7-2.6-1.9-5.8-0.6-8.5c1.4-3.1,4.3-5.1,7.7-5.2
				c3.4-0.2,6.5,1.5,8.2,4.5c1.6,2.8,1.6,6.1,0,8.9C347.3,143.4,344.4,145.1,341.2,145.1z M341.2,128.3c-0.1,0-0.3,0-0.4,0
				c-3,0.1-5.5,1.9-6.8,4.6l0,0c-1.1,2.4-0.9,5.3,0.5,7.5c1.5,2.3,3.9,3.6,6.6,3.6c2.8,0,5.4-1.5,6.8-3.9c1.4-2.5,1.4-5.4,0-7.9
				C346.5,129.7,344,128.3,341.2,128.3z"/>
			<path class="st2" d="M340.9,129.9c-4.4-2.5-6.3-11.1-7-11.9c-0.1-0.2,4.7-2.7,8.2,1.4c0.4,0.6,0.9,1.1,1.3,1.7
				C344.2,122.9,346.7,128.6,340.9,129.9z"/>
			<path class="st14" d="M71.4,155.9h189.5c6.8,0,12.9,4.5,14.9,11l39.1,128.2c1.3,4.3-1.9,8.6-6.3,8.6H119c-6.8,0-12.9-4.5-14.9-11
				L65.1,164.5C63.8,160.2,66.9,155.9,71.4,155.9z"/>
			<path class="st9" d="M308.4,304.5H119c-7.2,0-13.5-4.7-15.6-11.6L64.3,164.7c-0.7-2.3-0.3-4.7,1.1-6.6c1.4-1.9,3.6-3,6-3h189.5
				c7.2,0,13.5,4.7,15.6,11.6l39.1,128.2c0.7,2.3,0.3,4.7-1.1,6.6C313,303.4,310.8,304.5,308.4,304.5z M71.4,156.7
				c-1.9,0-3.6,0.9-4.7,2.4c-1.1,1.5-1.4,3.4-0.9,5.2l39.1,128.2c1.9,6.2,7.6,10.4,14.1,10.4h189.5c1.9,0,3.6-0.9,4.7-2.4
				c1.1-1.5,1.4-3.4,0.9-5.2l-39.1-128.2c-1.9-6.2-7.6-10.4-14.1-10.4H71.4z"/>
			<polygon class="st15" points="97.3,219.2 117.9,287.8 159.1,287.8 137.7,219.1 			"/>
			<polygon class="st16" points="84.7,177.1 266.6,177.1 276.4,209.1 94.4,209.1 			"/>
			<polygon class="st17" points="149.5,219.3 203.2,219.3 212.8,248.7 158.6,248.7 			"/>
			<polygon class="st17" points="217.8,219.3 278.8,219.3 287.7,248.7 227.2,248.7 			"/>
			<polygon class="st16" points="162.1,258.4 216.2,258.4 225.3,287.7 171.1,287.7 			"/>
			<polygon class="st18" points="291.4,258.4 299.2,284 300.1,287.7 239.1,287.7 230.7,258.4 			"/>
			<rect x="65.8" y="166.1" class="st9" width="209.9" height="1.6"/>
			<rect x="104.4" y="291.4" class="st9" width="209.5" height="1.6"/>
		</g>
	</g>
	<path class="st19" d="M425.5,77.6h24.9c2.1,0,4.1,1.1,5.2,3l12.4,21.5c1.1,1.8,1.1,4.1,0,6l-12.4,21.5c-1.1,1.8-3,3-5.2,3h-24.9
		c-2.1,0-4.1-1.1-5.2-3L408,108.1c-1.1-1.8-1.1-4.1,0-6l12.4-21.5C421.5,78.8,423.4,77.6,425.5,77.6z"/>
	<path class="st6" d="M28.5,230.6h11c2.1,0,4.1,1.1,5.2,3l5.5,9.5c1.1,1.8,1.1,4.1,0,6l-5.5,9.5c-1.1,1.8-3,3-5.2,3h-11
		c-2.1,0-4.1-1.1-5.2-3l-5.5-9.5c-1.1-1.8-1.1-4.1,0-6l5.5-9.5C24.4,231.8,26.3,230.6,28.5,230.6z"/>
	<path class="st20" d="M137.8,89.6h11c2.1,0,4.1,1.1,5.2,3l5.5,9.5c1.1,1.8,1.1,4.1,0,6l-5.5,9.5c-1.1,1.8-3,3-5.2,3h-11
		c-2.1,0-4.1-1.1-5.2-3l-5.5-9.5c-1.1-1.8-1.1-4.1,0-6l5.5-9.5C133.7,90.8,135.6,89.6,137.8,89.6z"/>
</g>
</svg>
