<?xml version="1.0" encoding="utf-8"?>
<!-- Generator: Adobe Illustrator 22.1.0, SVG Export Plug-In . SVG Version: 6.00 Build 0)  -->
<svg version="1.1" id="Capa_1" xmlns="http://www.w3.org/2000/svg" xmlns:xlink="http://www.w3.org/1999/xlink" x="0px" y="0px"
	 viewBox="0 0 451.6 384.6" style="enable-background:new 0 0 451.6 384.6;" xml:space="preserve">
<style type="text/css">
	.st0{fill:none;}
	.st1{fill:#3C3C56;}
	.st2{fill:url(#SVGID_1_);}
	.st3{fill:none;stroke:#FFFFFF;stroke-width:2;stroke-miterlimit:10;}
	
		.st4{fill:none;stroke:#FFFFFF;stroke-width:2;stroke-linecap:round;stroke-linejoin:round;stroke-miterlimit:10;stroke-dasharray:4,10;}
	.st5{fill:none;stroke:#FFFFFF;stroke-width:2;stroke-linecap:round;stroke-linejoin:round;stroke-miterlimit:10;}
	.st6{fill:#FFFFFF;}
	.st7{font-family:'BebasNeueBold';}
	.st8{font-size:27.7646px;}
	.st9{letter-spacing:1;}
	.st10{font-size:10.4144px;}
	
		.st11{opacity:0.3;fill:none;stroke:#FFFFFF;stroke-width:3;stroke-linecap:round;stroke-linejoin:round;stroke-miterlimit:10;stroke-dasharray:4,10;}
	.st12{fill:#69DAA0;}
	.st13{fill:#5C61DE;}
	.st14{fill:#55C58D;}
	.st15{fill:#F9C9C4;}
	.st16{fill:#69DCA2;}
	.st17{fill:#FC80A7;}
	.st18{fill:#585BD2;}
	.st19{fill:none;stroke:#1B1B1B;stroke-width:2;stroke-miterlimit:10;}
	.st20{fill:none;stroke:#69DCA2;stroke-miterlimit:10;}
	.st21{fill:#15132D;}
	.st22{fill:none;stroke:#5C61DF;stroke-miterlimit:10;}
	.st23{fill:none;stroke:#FC80A7;stroke-miterlimit:10;}
	.st24{fill:#333351;}
</style>
<g>
	<circle class="st0" cx="377.1" cy="323.9" r="3.4"/>
	<path class="st1" d="M280,0H130c-14.1,0-27.2,7.5-34.2,19.8l-75,129.9c-7.1,12.2-7.1,27.3,0,39.5l75,129.9
		c7.1,12.2,20.1,19.8,34.2,19.8h150c14.1,0,27.2-7.5,34.2-19.8l75-129.9c7.1-12.2,7.1-27.3,0-39.5l-75-129.9
		C307.2,7.5,294.1,0,280,0z"/>
	<linearGradient id="SVGID_1_" gradientUnits="userSpaceOnUse" x1="120.7534" y1="198.5" x2="288.7534" y2="198.5">
		<stop  offset="0" style="stop-color:#FC80A7"/>
		<stop  offset="1" style="stop-color:#FC9383"/>
	</linearGradient>
	<path class="st2" d="M279.7,290H129.8c-5,0-9-4.1-9-9V116c0-5,4.1-9,9-9h149.9c5,0,9,4.1,9,9V281C288.8,285.9,284.7,290,279.7,290z
		"/>
	<path class="st3" d="M279.7,290H129.8c-5,0-9-4.1-9-9V116c0-5,4.1-9,9-9h149.9c5,0,9,4.1,9,9V281C288.8,285.9,284.7,290,279.7,290z
		"/>
	<path class="st4" d="M167.8,165c0-19.9,16.1-36,36-36"/>
	<path class="st5" d="M204.1,129.3c19.9,0,36.1,16.2,36.1,36.1s-16.2,36.1-36.1,36.1S168,185.4,168,165.5"/>
	<circle class="st6" cx="167.8" cy="166" r="4"/>
	<text transform="matrix(1 0 0 1 191.517 174.5234)" class="st6 st7 st8 st9">43</text>
	<text transform="matrix(1 0 0 1 216.2817 163.0488)" class="st6 st7 st10">%</text>
	<path class="st5" d="M137.1,261.9c0,0,2.2-6.6,8.6-7.2c6.4-0.6,10.4-0.4,15-5.8c4.6-5.4,11.2-13,17-13s10.7,6.8,14.5,11.4
		c3.8,4.6,7.5,10.2,14.5,10.2c7,0,11.1-4.3,15.9-11.5c4.8-7.2,12.9-19.7,22.1-19.7c9.2,0,12.1,6.6,16.7,12.8
		c4.6,6.3,6.1,10.7,10.1,10.7"/>
	<circle class="st6" cx="244.8" cy="227" r="4"/>
	<line class="st11" x1="137.3" y1="267.5" x2="273.3" y2="267.5"/>
	<line class="st11" x1="137.3" y1="250.5" x2="273.3" y2="250.5"/>
	<line class="st11" x1="137.3" y1="234.5" x2="273.3" y2="234.5"/>
	<line class="st11" x1="137.3" y1="218.5" x2="273.3" y2="218.5"/>
	<g>
		<path class="st12" d="M269.3,93.1H140.7c-11.1,0-20.1-9-20.1-20.1v-3.8c0-11.1,9-20.1,20.1-20.1h128.5c11.1,0,20.1,9,20.1,20.1V73
			C289.3,84.1,280.3,93.1,269.3,93.1z"/>
		<g>
			<path class="st6" d="M183.8,66.3c0-1.4,0.3-2.5,1-3.3s1.7-1.1,3.1-1.1s2.4,0.4,3.1,1.1c0.7,0.8,1,1.9,1,3.3v0.6h-2.6v-0.7
				c0-0.6-0.1-1.1-0.4-1.3s-0.6-0.4-1-0.4c-0.4,0-0.8,0.1-1,0.4c-0.2,0.3-0.4,0.7-0.4,1.3c0,0.6,0.1,1.1,0.4,1.6
				c0.3,0.5,0.6,0.9,1,1.3c0.4,0.4,0.8,0.8,1.3,1.2c0.5,0.4,0.9,0.9,1.3,1.3c0.4,0.5,0.7,1,1,1.7c0.3,0.6,0.4,1.4,0.4,2.2
				c0,1.4-0.3,2.5-1,3.3c-0.7,0.8-1.7,1.1-3.1,1.1c-1.4,0-2.4-0.4-3.1-1.1s-1-1.9-1-3.3v-1.1h2.6v1.3c0,0.6,0.1,1.1,0.4,1.3
				c0.3,0.3,0.6,0.4,1,0.4s0.8-0.1,1-0.4c0.3-0.3,0.4-0.7,0.4-1.3c0-0.6-0.1-1.1-0.4-1.6c-0.3-0.5-0.6-0.9-1-1.3s-0.8-0.8-1.3-1.2
				c-0.5-0.4-0.9-0.9-1.3-1.3c-0.4-0.5-0.7-1-1-1.7C183.9,67.9,183.8,67.2,183.8,66.3z"/>
			<path class="st6" d="M197.3,69.5h3.8v2.5h-3.8v5.2h4.8v2.5h-7.6V62.1h7.6v2.5h-4.8V69.5z"/>
			<path class="st6" d="M207.3,67v12.8h-2.5V62.1h3.5l2.8,10.5V62.1h2.5v17.6h-2.8L207.3,67z"/>
			<path class="st6" d="M216.6,62.1h4.4c1.4,0,2.4,0.4,3.1,1.1c0.7,0.7,1,1.8,1,3.2v8.9c0,1.4-0.3,2.5-1,3.2s-1.7,1.1-3.1,1.1h-4.4
				V62.1z M219.4,64.6v12.6h1.6c0.4,0,0.8-0.1,1-0.4c0.3-0.3,0.4-0.7,0.4-1.3v-9.2c0-0.6-0.1-1.1-0.4-1.3c-0.3-0.3-0.6-0.4-1-0.4
				H219.4z"/>
		</g>
	</g>
	<path class="st13" d="M408.3,93h24.9c2.1,0,4.1,1.1,5.2,3l12.4,21.5c1.1,1.8,1.1,4.1,0,6L438.3,145c-1.1,1.8-3,3-5.2,3h-24.9
		c-2.1,0-4.1-1.1-5.2-3l-12.4-21.5c-1.1-1.8-1.1-4.1,0-6L403.1,96C404.2,94.1,406.2,93,408.3,93z"/>
	<path class="st14" d="M338.5,252.3h11c2.1,0,4.1,1.1,5.2,3l5.5,9.5c1.1,1.8,1.1,4.1,0,6l-5.5,9.5c-1.1,1.8-3,3-5.2,3h-11
		c-2.1,0-4.1-1.1-5.2-3l-5.5-9.5c-1.1-1.8-1.1-4.1,0-6l5.5-9.5C334.4,253.5,336.4,252.3,338.5,252.3z"/>
	<g>
		<path class="st15" d="M98.4,110.6c0.4-0.2,0.9-0.4,1.4-0.6c0.7-0.2,1.4-0.4,2.1-0.5c2.3-0.8,4.6-1.6,7-2.7
			c37.5-16.2,46.5-23.8,46.5-23.8l3.7,6.8c0,0-21.8,25.1-50.8,37.3c-1.5,0.6-2.9,1.2-4.4,1.7c-4.5,0.6-8.8-2.1-10.3-6.6
			C92.1,117.8,94.2,112.8,98.4,110.6z"/>
		<path class="st16" d="M71.4,368.9c0,0,7,2.7,15.3,4.3c8.3,1.6,6.2,4.9-0.1,4.9s-20.3,0.7-21.7-7.7c0,0,1.3,2.5,3.9,1.9
			C71.2,371.8,71.4,368.9,71.4,368.9z"/>
		<path class="st16" d="M33.9,374c0,0,6.7,3.3,14.9,5.7c8.2,2.3,5.7,5.4-0.6,4.9s-20.3-1.1-20.9-9.6c0,0,1.1,2.6,3.7,2.2
			C33.4,376.9,33.9,374,33.9,374z"/>
		<path class="st15" d="M18.2,246.9c0,0-0.2,0.2,1.3,3.8c2.4,5.8,2.2,5.7,0.9,10.8s-3.2,1.8-1.7-3.7c1.4-5.5-5.4-3.6-4.6-0.2
			c0.8,3.4,6.2,17.2,6.2,17.2s-0.7,2.3-4.8-4.7s-8.7-14.3-5.7-17.3c2.9-3.1,2.4-5.4,2.4-5.4L18.2,246.9z"/>
		<circle class="st0" cx="38.6" cy="129.8" r="12.6"/>
		<path class="st0" d="M97.8,110.7c0.6-0.4,1.3-0.7,2-0.9c-1.1,0.6-2.2,1.2-3.2,1.8C96.9,111.2,97.4,110.9,97.8,110.7z"/>
		<path class="st0" d="M94.5,124.1c-2.5-4.2-1.5-9.5,2.1-12.6c1.1-0.6,2.2-1.2,3.2-1.8c4.2-1.4,9,0.3,11.5,4.2
			c2.3,3.8,1.7,8.5-1.1,11.6c-1.3,0.9-2.6,1.8-4,2.7C101.8,129.8,96.9,128.2,94.5,124.1z"/>
		<path class="st0" d="M94.5,124.1c-2.5-4.2-1.5-9.5,2.1-12.6c1.1-0.6,2.2-1.2,3.2-1.8c4.2-1.4,9,0.3,11.5,4.2
			c2.3,3.8,1.7,8.5-1.1,11.6c-1.3,0.9-2.6,1.8-4,2.7C101.8,129.8,96.9,128.2,94.5,124.1z"/>
		<path class="st14" d="M39.8,117.3c0,0,26.8,10.1,56.8-5.7c1.1-0.6,2.2-1.2,3.2-1.8c4.2-1.4,9,0.3,11.5,4.2
			c2.3,3.8,1.7,8.5-1.1,11.6c-1.3,0.9-2.6,1.8-4,2.7c-2.6,1.7-5.3,3.2-8.1,4.6c-33.1,16.2-59.2,9.5-59.2,9.5L39.8,117.3z"/>
		<path class="st15" d="M157.1,91.1c0,0-2.3,0.5,3.5-1.7c5.8-2.1,5.7-2,8.8-6.3c3.1-4.3-0.6-3.6-3.9,1.1c-3.2,4.6-6.1-1.8-3-3.4
			c3.1-1.6,16.9-6.4,16.9-6.4s1.3-2-6.6-0.6c-7.9,1.4-16.3,2.6-16.7,6.8s-2.6,5.4-2.6,5.4L157.1,91.1z"/>
		<path class="st17" d="M60.5,72.3c-0.2,0-0.4,0.2-0.4,0.5l0.5,4.8c0,0.4,0.1,0.9,0.3,1.2c0.4,0.5,1.1,0.8,1.7,0.7l1.8-0.3
			c2-0.4,1.6-2,1.4-2.3c-0.3-0.5-0.9-0.6-1.4-0.7c-1.8-0.4-2.8-2-3.7-3.7C60.8,72.4,60.6,72.3,60.5,72.3L60.5,72.3z"/>
		<path class="st15" d="M41.2,106.7c0,0-6.1,9.5,8.3,10.6l8.4-25.5l-4.5-21l-15.9-5.8C37.5,65.1,50.6,90.1,41.2,106.7z"/>
		<path class="st15" d="M64.9,90.6l-7.5-37.9l-12,1.9c0,0-9.5,29.7-2.1,33.9c2.3,1.3,8-8.2,8-8.2l3.8,9.3L64.9,90.6z"/>
		<path class="st1" d="M56.9,46c-8.8-1-22.6-0.4-29.6,10.2s3.5,31.1,3.5,31.1s4.7,8.4-1.6,13.9c-6.3,5.5,0.6,8.1,8.9,1.8
			c8.3-6.4,9.9-5.7,9.3-14.1S42.7,74.5,47.5,74c1.8-0.2,2.6,0.8,2.7,6.9c0,1-0.8,1.8-0.7,3.1c0.7,6.6,5,15.2,11,17.2
			c7.2,2.5,16.2,3.9,12.7-6.5s-13.1-3.6-16.1-9.9c-3-6.4-7.2-11.3-4.6-18.2S58,53,64.4,55.3S69.6,47.5,56.9,46z"/>
		<path class="st6" d="M50.9,45.7c2.1,0,4.2,0.1,6,0.4c11.4,1.4,13.7,9.6,9.3,9.6c-0.5,0-1.1-0.1-1.7-0.3c-0.9-0.3-1.7-0.5-2.4-0.5
			c-4.8,0-7.1,5.9-9.4,11.9c-2.7,6.9,1.6,11.8,4.6,18.2c2.9,6.3,12.5-0.4,16.1,9.9c2.1,6.3-0.3,8.2-4.3,8.2c-2.5,0-5.6-0.8-8.5-1.8
			c-6-2.1-10.3-10.6-11-17.2c-0.1-1.3,0.7-2.1,0.7-3.1c-0.1-5.6-0.8-6.9-2.4-6.9c-0.1,0-0.2,0-0.4,0c-4.8,0.5-0.7,6.3-0.1,14.8
			c0.6,8.5-1,7.8-9.3,14.1c-3.4,2.6-6.6,3.7-8.7,3.7c-3,0-3.9-2.2-0.2-5.5c6.3-5.5,1.6-13.9,1.6-13.9s-10.4-20.5-3.5-31.1
			C32.8,47.8,42.6,45.7,50.9,45.7 M50.9,44.9c-7.8,0-18.3,1.9-24.2,10.9c-7.1,10.8,3,31,3.5,31.8c0.2,0.3,4.3,8-1.4,13
			c-2.9,2.6-2.8,4.3-2.5,5.1c0.4,1.1,1.6,1.7,3.2,1.7c2.6,0,5.9-1.4,9.1-3.9c1.4-1.1,2.7-2,3.7-2.8c5-3.6,6.4-4.6,5.8-12
			c-0.2-3-0.9-5.8-1.4-8c-0.6-2.5-1.1-4.6-0.5-5.5c0.2-0.3,0.7-0.5,1.4-0.6c0.1,0,0.2,0,0.3,0c0.8,0,1.5,0.5,1.7,6.2
			c0,0.3-0.1,0.6-0.3,1c-0.2,0.6-0.5,1.3-0.4,2.2c0.7,7.1,5.2,15.7,11.5,17.8c3.5,1.2,6.4,1.8,8.7,1.8c2.3,0,4-0.7,4.9-2
			c1.1-1.6,1.1-3.9,0-7.2c-2.1-6.3-6.5-6.7-10.1-7.1c-2.7-0.3-4.9-0.5-6-2.9c-0.6-1.3-1.3-2.6-1.9-3.8c-2.5-4.6-4.6-8.6-2.6-13.8
			c2.3-5.9,4.4-11.4,8.7-11.4c0.7,0,1.4,0.1,2.2,0.4c0.7,0.3,1.4,0.4,2,0.4c1.6,0,2.7-1,2.8-2.5c0.2-2.9-3.5-7.6-12-8.6
			C54.9,45.1,52.9,44.9,50.9,44.9L50.9,44.9z"/>
		<ellipse transform="matrix(0.9417 -0.3363 0.3363 0.9417 -19.7205 24.5183)" class="st18" cx="60.9" cy="69.2" rx="2.5" ry="6"/>
		<path class="st3" d="M58.6,69.4l-11.5,3c-2.9,0.8-5.2,3-6.1,5.9l-0.6,2"/>
		<ellipse transform="matrix(0.9417 -0.3363 0.3363 0.9417 -19.7205 24.5183)" class="st19" cx="60.9" cy="69.2" rx="2.5" ry="6"/>
		<circle class="st20" cx="52.6" cy="210.2" r="17.1"/>
		<circle class="st20" cx="71.3" cy="270.9" r="10.4"/>
		<path class="st21" d="M36.1,214.4c8.1,22.4,22.6,38.7,24.4,55.9c0.4,3.9,2.9,10.9,11.5,11s10.1-9.9,10.1-9.9
			c1.7-29.3-9.1-52.8-13.2-66.3c0,0-4.3-13.6-18.5-11.8C36.8,195,34.1,208.9,36.1,214.4z"/>
		<path class="st21" d="M60.5,270.9c1.5,11,3.1,23.2,3.8,34.3c1.1,16.5-1.7,46.8,0.3,63.1c0.6,5.1,6.4,3.6,6.8,0.4
			c2.7-24.4,12.5-73.4,10.9-95.5c-0.1-1.1-0.2-2.3-0.3-3.4c0,0-2.7-10.6-11.9-9.1C60.9,262,60.5,270.9,60.5,270.9z"/>
		<path class="st22" d="M64.6,204c0,0-2.3,12.5,8.9,14.6"/>
		<path class="st23" d="M73,220.8c0,0-6.2-1.3-8.8-5.8"/>
		<circle class="st0" cx="27.8" cy="213.7" r="17.1"/>
		<circle class="st20" cx="37.6" cy="276.5" r="10.4"/>
		<path class="st24" d="M10.8,215.5c4.8,23.3,14.7,52.9,16.9,70.1c0.5,4,0.5,0,8.9,1.3c8.5,1.3,11.3,1.8,11.3,1.8
			c5.9-28.7-1.2-63.7-3.4-77.6c0,0-2.3-14.1-16.6-14.4C14.3,196.4,9.6,209.8,10.8,215.5z"/>
		<path class="st22" d="M15.7,201.5c0,0,17.9,11.7-2.3,23.9"/>
		<path class="st24" d="M27,277.3c1.1,11.1,1.8,22.1,2.2,33.2c0.5,16.5-3.6,46.7-2.2,63c0.4,5.1,6.2,3.8,6.7,0.6
			c3.7-24.2,15.4-72.8,14.6-95c0-1.1-0.1-2.3-0.2-3.4c0,0-2.3-10.7-11.6-9.6S27,277.3,27,277.3z"/>
		<path class="st23" d="M25.5,217c0,0-1.7,5.1-7.7,9.1"/>
		<path class="st14" d="M40.4,109.7c0,0-38.1,18.4-30.1,100c21.3,3.2,60.3-7.1,65.9-16c-19.2-34.6-26.4-58.1-26.7-76.3
			C37.9,116.1,40.4,109.7,40.4,109.7z"/>
		<path class="st24" d="M13.8,210.8l9.3-0.6c-3.6-45.4,26.5-75.8,26.5-75.8S13.6,146.8,13.8,210.8z"/>
		<circle class="st0" cx="38.3" cy="128.5" r="12.6"/>
		<path class="st15" d="M19.5,182.9c0,0-0.6,3.7-0.5,3.7c-0.3,2.4-0.5,4.9-0.6,7.5c-1.4,41.3-0.2,52.8-0.2,52.8l-6.1,0.4
			c0,0-13.4-30.5-12.1-62.3c0.1-1.6,0.2-3.2,0.3-4.8c1.4-4.3,5.7-7.2,10.4-6.7C15.7,174.1,19.3,178.1,19.5,182.9z"/>
		<path class="st14" d="M49.6,134.4c0,0-24.4,15.1-30.1,48.5c-0.2,1.2-0.4,2.4-0.5,3.7c-1.5,4.2-5.7,7-10.3,6.5
			c-4.4-0.5-7.8-3.8-8.6-8c0.1-1.6,0.2-3.2,0.3-4.8c0.3-3.1,0.7-6.2,1.3-9.2C9,135,30.3,118.4,30.3,118.4L49.6,134.4z"/>
	</g>
</g>
</svg>
