<svg xmlns="http://www.w3.org/2000/svg" width="464.867" height="418.438" viewBox="0 0 464.867 418.438">
  <g id="Grupo_112" data-name="Grupo 112" transform="translate(-682.937 -5797)">
    <path id="Trazado_671" data-name="Trazado 671" d="M1003.795,6011.632H932.06a39.524,39.524,0,0,0-34.228,19.762l-35.867,62.124a39.523,39.523,0,0,0,0,39.523l35.867,62.124a39.525,39.525,0,0,0,34.228,19.761h71.735a39.523,39.523,0,0,0,34.228-19.761l35.867-62.124a39.518,39.518,0,0,0,0-39.523l-35.867-62.124A39.523,39.523,0,0,0,1003.795,6011.632Z" fill="#e280a5"/>
    <path id="Trazado_672" data-name="Trazado 672" d="M951.064,6186.266l-3-7.337-19.116-3.921-8.191,5.033-4.308-.885v3.531l4.82,11.519,18.218,3.431,13.153-7.516v-3.531Z" fill="#3e3e56"/>
    <path id="Trazado_673" data-name="Trazado 673" d="M921.269,6190.654l18.218,3.431,13.153-7.516-4.575-11.192-19.116-3.921-12.5,7.679Z" fill="#5e61db"/>
    <path id="Trazado_674" data-name="Trazado 674" d="M927,6178.742l-1.027-.593,1.539-.889,1.027.593a6.4,6.4,0,0,1,5.394.785l.434.25-1.778,1.027-.573-.33a2.175,2.175,0,0,0-2.3-.244c-.6.346-.566.76.421,1.33,2.844,1.641,6.658-.4,10.607,1.878,1.876,1.083,2.379,2.183,1.361,3.136l1.007.581-1.539.888-1.007-.581a6.429,6.429,0,0,1-5.43-.786l-.948-.547,1.778-1.027,1.086.627a2.185,2.185,0,0,0,2.317.213c.6-.346.62-.768-.368-1.338-2.843-1.642-6.657.4-10.606-1.879C926.54,6180.765,926.022,6179.7,927,6178.742Z" fill="#fff"/>
    <path id="Trazado_675" data-name="Trazado 675" d="M989.7,6186.266l-3-7.337-19.116-3.921-8.191,5.033-4.308-.885v3.531l4.82,11.519,18.218,3.431,13.153-7.516v-3.531Z" fill="#3e3e56"/>
    <path id="Trazado_676" data-name="Trazado 676" d="M959.91,6190.654l18.218,3.431,13.153-7.516-4.575-11.192-19.116-3.921-12.5,7.679Z" fill="#5e61db"/>
    <path id="Trazado_677" data-name="Trazado 677" d="M965.643,6178.742l-1.027-.593,1.539-.889,1.027.593a6.4,6.4,0,0,1,5.394.785l.435.25-1.779,1.027-.572-.33a2.177,2.177,0,0,0-2.3-.244c-.6.346-.566.76.422,1.33,2.843,1.641,6.657-.4,10.606,1.878,1.876,1.083,2.379,2.183,1.361,3.136l1.007.581-1.539.888-1.007-.581a6.429,6.429,0,0,1-5.43-.786l-.948-.547,1.778-1.027,1.086.627a2.185,2.185,0,0,0,2.317.213c.6-.346.62-.768-.367-1.338-2.844-1.642-6.658.4-10.607-1.879C965.18,6180.765,964.662,6179.7,965.643,6178.742Z" fill="#fff"/>
    <path id="Trazado_678" data-name="Trazado 678" d="M1028.345,6186.266l-3-7.337-19.116-3.921-8.191,5.033-4.308-.885v3.531l4.82,11.519,18.218,3.431,13.153-7.516v-3.531Z" fill="#3e3e56"/>
    <path id="Trazado_679" data-name="Trazado 679" d="M998.55,6190.654l18.218,3.431,13.153-7.516-4.575-11.192-19.116-3.921-12.5,7.679Z" fill="#5e61db"/>
    <path id="Trazado_680" data-name="Trazado 680" d="M1004.283,6178.742l-1.026-.593,1.539-.889,1.026.593a6.394,6.394,0,0,1,5.394.785l.435.25-1.779,1.027-.572-.33a2.176,2.176,0,0,0-2.3-.244c-.6.346-.565.76.422,1.33,2.843,1.641,6.657-.4,10.606,1.878,1.876,1.083,2.379,2.183,1.362,3.136l1.007.581-1.539.888-1.007-.581a6.431,6.431,0,0,1-5.431-.786l-.948-.547,1.778-1.027,1.086.627a2.187,2.187,0,0,0,2.318.213c.6-.346.619-.768-.368-1.338-2.843-1.642-6.658.4-10.607-1.879C1003.82,6180.765,1003.3,6179.7,1004.283,6178.742Z" fill="#fff"/>
    <path id="Trazado_681" data-name="Trazado 681" d="M965.558,6160.084l-3-7.337-19.116-3.921-8.192,5.033-4.308-.885v3.531l4.82,11.519,18.218,3.431,13.153-7.516v-3.532Z" fill="#3e3e56"/>
    <path id="Trazado_682" data-name="Trazado 682" d="M935.763,6164.473l18.218,3.431,13.153-7.516-4.575-11.192-19.116-3.921-12.5,7.679Z" fill="#5e61db"/>
    <path id="Trazado_683" data-name="Trazado 683" d="M941.5,6152.561l-1.026-.593,1.539-.889,1.026.593a6.4,6.4,0,0,1,5.394.785l.435.25-1.779,1.027-.572-.33a2.175,2.175,0,0,0-2.3-.244c-.6.345-.565.759.422,1.329,2.843,1.642,6.658-.4,10.606,1.879,1.876,1.083,2.379,2.183,1.362,3.136l1.007.581-1.539.888-1.007-.581a6.429,6.429,0,0,1-5.431-.786l-.948-.547,1.779-1.027,1.086.627a2.186,2.186,0,0,0,2.317.213c.6-.346.619-.768-.368-1.338-2.843-1.642-6.658.4-10.607-1.879C941.033,6154.584,940.516,6153.515,941.5,6152.561Z" fill="#fff"/>
    <path id="Trazado_684" data-name="Trazado 684" d="M1004.2,6160.084l-3-7.337-19.116-3.921-8.191,5.033-4.308-.885v3.531l4.82,11.519,18.218,3.431,13.153-7.516v-3.532Z" fill="#3e3e56"/>
    <path id="Trazado_685" data-name="Trazado 685" d="M974.4,6164.473l18.218,3.431,13.153-7.516L1001.2,6149.2l-19.116-3.921-12.5,7.679Z" fill="#5e61db"/>
    <path id="Trazado_686" data-name="Trazado 686" d="M980.137,6152.561l-1.027-.593,1.539-.889,1.027.593a6.4,6.4,0,0,1,5.394.785l.434.25-1.778,1.027-.573-.33a2.175,2.175,0,0,0-2.3-.244c-.6.345-.565.759.422,1.329,2.843,1.642,6.658-.4,10.607,1.879,1.875,1.083,2.379,2.183,1.361,3.136l1.007.581-1.539.888-1.007-.581a6.429,6.429,0,0,1-5.431-.786l-.947-.547,1.778-1.027,1.086.627a2.186,2.186,0,0,0,2.317.213c.6-.346.619-.768-.368-1.338-2.843-1.642-6.658.4-10.606-1.879C979.674,6154.584,979.156,6153.515,980.137,6152.561Z" fill="#fff"/>
    <path id="Trazado_687" data-name="Trazado 687" d="M1042.838,6160.084l-3-7.337-19.116-3.921-8.191,5.033-4.308-.885v3.531l4.82,11.519,18.218,3.431,13.153-7.516v-3.532Z" fill="#3e3e56"/>
    <path id="Trazado_688" data-name="Trazado 688" d="M1013.043,6164.473l18.218,3.431,13.153-7.516-4.575-11.192-19.116-3.921-12.5,7.679Z" fill="#5e61db"/>
    <path id="Trazado_689" data-name="Trazado 689" d="M1018.777,6152.561l-1.027-.593,1.539-.889,1.027.593a6.4,6.4,0,0,1,5.394.785l.434.25-1.778,1.027-.573-.33a2.175,2.175,0,0,0-2.3-.244c-.6.345-.565.759.422,1.329,2.844,1.642,6.658-.4,10.607,1.879,1.875,1.083,2.379,2.183,1.361,3.136l1.007.581-1.539.888-1.007-.581a6.429,6.429,0,0,1-5.431-.786l-.947-.547,1.778-1.027,1.086.627a2.186,2.186,0,0,0,2.317.213c.6-.346.619-.768-.368-1.338-2.843-1.642-6.657.4-10.606-1.879C1018.314,6154.584,1017.8,6153.515,1018.777,6152.561Z" fill="#fff"/>
    <path id="Trazado_690" data-name="Trazado 690" d="M926.692,6160.084l-3-7.337-19.116-3.921-8.191,5.033-4.308-.885v3.531l4.82,11.519,18.218,3.431,13.153-7.516v-3.532Z" fill="#3e3e56"/>
    <path id="Trazado_691" data-name="Trazado 691" d="M896.9,6164.473l18.218,3.431,13.153-7.516-4.575-11.192-19.116-3.921-12.5,7.679Z" fill="#5e61db"/>
    <path id="Trazado_692" data-name="Trazado 692" d="M902.631,6152.561l-1.027-.593,1.539-.889,1.027.593a6.4,6.4,0,0,1,5.394.785l.434.25-1.778,1.027-.573-.33a2.173,2.173,0,0,0-2.3-.244c-.6.345-.566.759.421,1.329,2.844,1.642,6.658-.4,10.607,1.879,1.876,1.083,2.379,2.183,1.361,3.136l1.007.581-1.539.888-1.007-.581a6.427,6.427,0,0,1-5.43-.786l-.948-.547,1.778-1.027,1.086.627a2.186,2.186,0,0,0,2.317.213c.6-.346.62-.768-.368-1.338-2.843-1.642-6.657.4-10.606-1.879C902.168,6154.584,901.65,6153.515,902.631,6152.561Z" fill="#fff"/>
    <path id="Trazado_693" data-name="Trazado 693" d="M943.494,6133.74l-3-7.337-19.116-3.921-8.192,5.033-4.308-.885v3.531l4.82,11.519,18.218,3.431,13.153-7.516v-3.531Z" fill="#3e3e56"/>
    <path id="Trazado_694" data-name="Trazado 694" d="M913.7,6138.128l18.218,3.431,13.153-7.516-4.575-11.192-19.116-3.921-12.5,7.679Z" fill="#5e61db"/>
    <path id="Trazado_695" data-name="Trazado 695" d="M919.433,6126.216l-1.027-.592,1.539-.889,1.027.593a6.391,6.391,0,0,1,5.394.784l.434.251-1.778,1.027-.573-.331a2.176,2.176,0,0,0-2.3-.244c-.6.346-.566.76.421,1.33,2.844,1.642,6.658-.4,10.607,1.879,1.876,1.083,2.379,2.183,1.361,3.135l1.007.581-1.539.889-1.007-.581a6.43,6.43,0,0,1-5.43-.786l-.948-.547,1.778-1.027,1.086.627a2.182,2.182,0,0,0,2.317.212c.6-.345.62-.768-.368-1.338-2.843-1.641-6.657.4-10.606-1.878C918.97,6128.239,918.452,6127.17,919.433,6126.216Z" fill="#fff"/>
    <path id="Trazado_696" data-name="Trazado 696" d="M982.134,6133.74l-3-7.337-19.116-3.921-8.191,5.033-4.308-.885v3.531l4.82,11.519,18.218,3.431,13.153-7.516v-3.531Z" fill="#3e3e56"/>
    <path id="Trazado_697" data-name="Trazado 697" d="M952.34,6138.128l18.218,3.431,13.153-7.516-4.575-11.192-19.116-3.921-12.5,7.679Z" fill="#5e61db"/>
    <path id="Trazado_698" data-name="Trazado 698" d="M958.073,6126.216l-1.027-.592,1.539-.889,1.027.593a6.39,6.39,0,0,1,5.394.784l.435.251-1.779,1.027-.572-.331a2.178,2.178,0,0,0-2.3-.244c-.6.346-.566.76.422,1.33,2.843,1.642,6.657-.4,10.606,1.879,1.876,1.083,2.379,2.183,1.361,3.135l1.007.581-1.539.889-1.007-.581a6.43,6.43,0,0,1-5.43-.786l-.948-.547,1.778-1.027,1.086.627a2.182,2.182,0,0,0,2.317.212c.6-.345.62-.768-.367-1.338-2.844-1.641-6.658.4-10.607-1.878C957.61,6128.239,957.092,6127.17,958.073,6126.216Z" fill="#fff"/>
    <path id="Trazado_699" data-name="Trazado 699" d="M1020.775,6133.74l-3-7.337-19.116-3.921-8.191,5.033-4.308-.885v3.531l4.82,11.519,18.218,3.431,13.153-7.516v-3.531Z" fill="#3e3e56"/>
    <path id="Trazado_700" data-name="Trazado 700" d="M990.98,6138.128l18.218,3.431,13.153-7.516-4.575-11.192-19.116-3.921-12.5,7.679Z" fill="#5e61db"/>
    <path id="Trazado_701" data-name="Trazado 701" d="M996.713,6126.216l-1.026-.592,1.539-.889,1.026.593a6.39,6.39,0,0,1,5.394.784l.435.251-1.779,1.027-.572-.331a2.178,2.178,0,0,0-2.3-.244c-.6.346-.565.76.422,1.33,2.843,1.642,6.657-.4,10.606,1.879,1.876,1.083,2.379,2.183,1.362,3.135l1.007.581-1.539.889-1.007-.581a6.432,6.432,0,0,1-5.431-.786l-.948-.547,1.778-1.027,1.086.627a2.184,2.184,0,0,0,2.318.212c.6-.345.619-.768-.368-1.338-2.843-1.641-6.658.4-10.607-1.878C996.25,6128.239,995.732,6127.17,996.713,6126.216Z" fill="#fff"/>
    <path id="Trazado_702" data-name="Trazado 702" d="M904.629,6133.74l-3-7.337-19.116-3.921-8.191,5.033-4.308-.885v3.531l4.82,11.519,18.218,3.431L906.2,6137.6v-3.531Z" fill="#3e3e56"/>
    <path id="Trazado_703" data-name="Trazado 703" d="M874.834,6138.128l18.218,3.431,13.153-7.516-4.575-11.192-19.116-3.921-12.5,7.679Z" fill="#5e61db"/>
    <path id="Trazado_704" data-name="Trazado 704" d="M880.567,6126.216l-1.026-.592,1.539-.889,1.026.593a6.39,6.39,0,0,1,5.394.784l.435.251-1.779,1.027-.572-.331a2.178,2.178,0,0,0-2.3-.244c-.6.346-.565.76.422,1.33,2.843,1.642,6.658-.4,10.606,1.879,1.876,1.083,2.379,2.183,1.362,3.135l1.007.581-1.539.889-1.007-.581a6.432,6.432,0,0,1-5.431-.786l-.948-.547,1.779-1.027,1.086.627a2.182,2.182,0,0,0,2.317.212c.6-.345.619-.768-.368-1.338-2.843-1.641-6.658.4-10.607-1.878C880.1,6128.239,879.587,6127.17,880.567,6126.216Z" fill="#fff"/>
    <path id="Trazado_705" data-name="Trazado 705" d="M1059.708,6133.74l-3-7.337-19.116-3.921-8.191,5.033-4.308-.885v3.531l4.82,11.519,18.218,3.431,13.153-7.516v-3.531Z" fill="#3e3e56"/>
    <path id="Trazado_706" data-name="Trazado 706" d="M1029.914,6138.128l18.218,3.431,13.153-7.516-4.575-11.192-19.116-3.921-12.5,7.679Z" fill="#5e61db"/>
    <path id="Trazado_707" data-name="Trazado 707" d="M1035.647,6126.216l-1.026-.592,1.539-.889,1.026.593a6.39,6.39,0,0,1,5.394.784l.435.251-1.779,1.027-.572-.331a2.178,2.178,0,0,0-2.3-.244c-.6.346-.565.76.422,1.33,2.843,1.642,6.657-.4,10.606,1.879,1.876,1.083,2.379,2.183,1.362,3.135l1.007.581-1.539.889-1.007-.581a6.432,6.432,0,0,1-5.431-.786l-.948-.547,1.778-1.027,1.086.627a2.184,2.184,0,0,0,2.318.212c.6-.345.619-.768-.368-1.338-2.843-1.641-6.658.4-10.607-1.878C1035.184,6128.239,1034.666,6127.17,1035.647,6126.216Z" fill="#fff"/>
    <path id="Trazado_708" data-name="Trazado 708" d="M1040.367,5797H968.632a39.523,39.523,0,0,0-34.228,19.761l-35.868,62.125a39.523,39.523,0,0,0,0,39.523l35.868,62.124a39.522,39.522,0,0,0,34.228,19.761h71.735a39.522,39.522,0,0,0,34.227-19.761l35.868-62.124a39.524,39.524,0,0,0,0-39.523l-35.868-62.125A39.522,39.522,0,0,0,1040.367,5797Z" fill="#95dca4"/>
    <path id="Trazado_709" data-name="Trazado 709" d="M988.834,5973.042l-3-7.337-19.116-3.921-8.191,5.033-4.308-.885v3.531l4.82,11.519,18.218,3.431,13.153-7.516v-3.531Z" fill="#3e3e56"/>
    <path id="Trazado_710" data-name="Trazado 710" d="M959.04,5977.43l18.218,3.431,13.153-7.516-4.575-11.192-19.116-3.921-12.5,7.679Z" fill="#5e61db"/>
    <path id="Trazado_711" data-name="Trazado 711" d="M964.773,5965.518l-1.026-.593,1.539-.889,1.026.593a6.394,6.394,0,0,1,5.394.784l.435.251-1.779,1.027-.572-.331a2.175,2.175,0,0,0-2.3-.243c-.6.345-.565.759.422,1.329,2.843,1.642,6.657-.4,10.606,1.879,1.876,1.083,2.379,2.183,1.362,3.135l1.006.582-1.539.888-1.006-.581a6.434,6.434,0,0,1-5.431-.786l-.948-.547,1.778-1.027,1.086.627a2.188,2.188,0,0,0,2.318.213c.6-.346.619-.768-.368-1.338-2.844-1.642-6.658.4-10.607-1.879C964.31,5967.54,963.792,5966.472,964.773,5965.518Z" fill="#fff"/>
    <path id="Trazado_712" data-name="Trazado 712" d="M1027.475,5973.042l-3-7.337-19.117-3.921-8.191,5.033-4.308-.885v3.531l4.82,11.519,18.218,3.431,13.153-7.516v-3.531Z" fill="#3e3e56"/>
    <path id="Trazado_713" data-name="Trazado 713" d="M997.68,5977.43l18.218,3.431,13.153-7.516-4.575-11.192-19.117-3.921-12.5,7.679Z" fill="#5e61db"/>
    <path id="Trazado_714" data-name="Trazado 714" d="M1003.413,5965.518l-1.026-.593,1.539-.889,1.026.593a6.394,6.394,0,0,1,5.394.784l.435.251-1.779,1.027-.572-.331a2.175,2.175,0,0,0-2.3-.243c-.6.345-.565.759.422,1.329,2.843,1.642,6.657-.4,10.606,1.879,1.876,1.083,2.379,2.183,1.362,3.135l1.007.582-1.539.888-1.007-.581a6.434,6.434,0,0,1-5.431-.786l-.948-.547,1.779-1.027,1.085.627a2.188,2.188,0,0,0,2.318.213c.6-.346.619-.768-.368-1.338-2.843-1.642-6.658.4-10.607-1.879C1002.95,5967.54,1002.432,5966.472,1003.413,5965.518Z" fill="#fff"/>
    <path id="Trazado_715" data-name="Trazado 715" d="M1066.115,5973.042l-3-7.337L1044,5961.783l-8.191,5.033-4.308-.885v3.531l4.82,11.519,18.218,3.431,13.153-7.516v-3.531Z" fill="#3e3e56"/>
    <path id="Trazado_716" data-name="Trazado 716" d="M1036.32,5977.43l18.218,3.431,13.153-7.516-4.575-11.192L1044,5958.231l-12.5,7.679Z" fill="#5e61db"/>
    <path id="Trazado_717" data-name="Trazado 717" d="M1042.054,5965.518l-1.027-.593,1.539-.889,1.027.593a6.4,6.4,0,0,1,5.394.784l.434.251-1.778,1.027-.573-.331a2.175,2.175,0,0,0-2.3-.243c-.6.345-.565.759.422,1.329,2.843,1.642,6.658-.4,10.607,1.879,1.875,1.083,2.379,2.183,1.361,3.135l1.007.582-1.539.888-1.007-.581a6.434,6.434,0,0,1-5.431-.786l-.948-.547,1.779-1.027,1.086.627a2.186,2.186,0,0,0,2.317.213c.6-.346.619-.768-.368-1.338-2.843-1.642-6.658.4-10.607-1.879C1041.591,5967.54,1041.073,5966.472,1042.054,5965.518Z" fill="#fff"/>
    <path id="Trazado_718" data-name="Trazado 718" d="M1003.328,5946.86l-3-7.337-19.116-3.921-8.191,5.033-4.308-.885v3.531l4.82,11.519,18.218,3.431,13.153-7.516v-3.531Z" fill="#3e3e56"/>
    <path id="Trazado_719" data-name="Trazado 719" d="M973.533,5951.249l18.218,3.431,13.153-7.516-4.575-11.192-19.116-3.921-12.5,7.679Z" fill="#5e61db"/>
    <path id="Trazado_720" data-name="Trazado 720" d="M979.267,5939.337l-1.027-.593,1.539-.889,1.027.593a6.389,6.389,0,0,1,5.394.784l.434.251-1.778,1.027-.573-.331a2.174,2.174,0,0,0-2.3-.243c-.6.345-.565.759.422,1.329,2.843,1.642,6.658-.4,10.607,1.879,1.875,1.083,2.379,2.183,1.361,3.135l1.007.582-1.539.888-1.007-.581a6.433,6.433,0,0,1-5.431-.786l-.947-.547,1.778-1.027,1.086.627a2.182,2.182,0,0,0,2.317.212c.6-.345.619-.767-.368-1.337-2.843-1.642-6.658.4-10.606-1.879C978.8,5941.359,978.286,5940.29,979.267,5939.337Z" fill="#fff"/>
    <path id="Trazado_721" data-name="Trazado 721" d="M1041.968,5946.86l-3-7.337-19.116-3.921-8.191,5.033-4.308-.885v3.531l4.82,11.519,18.218,3.431,13.153-7.516v-3.531Z" fill="#3e3e56"/>
    <path id="Trazado_722" data-name="Trazado 722" d="M1012.173,5951.249l18.218,3.431,13.153-7.516-4.575-11.192-19.116-3.921-12.5,7.679Z" fill="#5e61db"/>
    <path id="Trazado_723" data-name="Trazado 723" d="M1017.907,5939.337l-1.027-.593,1.539-.889,1.027.593a6.389,6.389,0,0,1,5.394.784l.434.251-1.778,1.027-.573-.331a2.172,2.172,0,0,0-2.3-.243c-.6.345-.566.759.421,1.329,2.844,1.642,6.658-.4,10.607,1.879,1.876,1.083,2.379,2.183,1.361,3.135l1.007.582-1.539.888-1.007-.581a6.432,6.432,0,0,1-5.431-.786l-.947-.547,1.778-1.027,1.086.627a2.182,2.182,0,0,0,2.317.212c.6-.345.619-.767-.368-1.337-2.843-1.642-6.657.4-10.606-1.879C1017.444,5941.359,1016.926,5940.29,1017.907,5939.337Z" fill="#fff"/>
    <path id="Trazado_724" data-name="Trazado 724" d="M1080.608,5946.86l-3-7.337-19.116-3.921-8.192,5.033-4.308-.885v3.531l4.82,11.519,18.218,3.431,13.153-7.516v-3.531Z" fill="#3e3e56"/>
    <path id="Trazado_725" data-name="Trazado 725" d="M1050.813,5951.249l18.218,3.431,13.153-7.516-4.575-11.192-19.116-3.921-12.5,7.679Z" fill="#5e61db"/>
    <path id="Trazado_726" data-name="Trazado 726" d="M1056.547,5939.337l-1.027-.593,1.539-.889,1.027.593a6.389,6.389,0,0,1,5.394.784l.434.251-1.778,1.027-.573-.331a2.172,2.172,0,0,0-2.3-.243c-.6.345-.566.759.422,1.329,2.843,1.642,6.657-.4,10.606,1.879,1.876,1.083,2.379,2.183,1.361,3.135l1.007.582-1.539.888-1.007-.581a6.43,6.43,0,0,1-5.43-.786l-.948-.547,1.778-1.027,1.086.627a2.182,2.182,0,0,0,2.317.212c.6-.345.62-.767-.368-1.337-2.843-1.642-6.657.4-10.606-1.879C1056.084,5941.359,1055.566,5940.29,1056.547,5939.337Z" fill="#fff"/>
    <path id="Trazado_727" data-name="Trazado 727" d="M964.462,5946.86l-3-7.337-19.116-3.921-8.191,5.033-4.308-.885v3.531l4.82,11.519,18.218,3.431,13.153-7.516v-3.531Z" fill="#3e3e56"/>
    <path id="Trazado_728" data-name="Trazado 728" d="M934.668,5951.249l18.218,3.431,13.153-7.516-4.575-11.192-19.116-3.921-12.5,7.679Z" fill="#5e61db"/>
    <path id="Trazado_729" data-name="Trazado 729" d="M940.4,5939.337l-1.027-.593,1.539-.889,1.027.593a6.389,6.389,0,0,1,5.394.784l.435.251-1.779,1.027-.572-.331a2.174,2.174,0,0,0-2.3-.243c-.6.345-.566.759.422,1.329,2.843,1.642,6.657-.4,10.606,1.879,1.876,1.083,2.379,2.183,1.361,3.135l1.007.582-1.539.888-1.007-.581a6.431,6.431,0,0,1-5.43-.786l-.948-.547,1.778-1.027,1.086.627a2.182,2.182,0,0,0,2.317.212c.6-.345.62-.767-.367-1.337-2.844-1.642-6.658.4-10.607-1.879C939.938,5941.359,939.42,5940.29,940.4,5939.337Z" fill="#fff"/>
    <path id="Trazado_730" data-name="Trazado 730" d="M1019.9,5920.516l-3-7.337-19.116-3.921-8.191,5.033-4.308-.885v3.532l4.82,11.519,18.218,3.431,13.153-7.516v-3.531Z" fill="#3e3e56"/>
    <path id="Trazado_731" data-name="Trazado 731" d="M990.11,5924.9l18.218,3.431,13.153-7.516-4.575-11.192-19.116-3.921-12.5,7.679Z" fill="#5e61db"/>
    <path id="Trazado_732" data-name="Trazado 732" d="M995.843,5912.992l-1.026-.593,1.539-.888,1.026.593a6.39,6.39,0,0,1,5.394.784l.435.251-1.779,1.027-.572-.331a2.179,2.179,0,0,0-2.3-.244c-.6.346-.565.76.422,1.33,2.843,1.641,6.657-.4,10.606,1.879,1.876,1.082,2.379,2.183,1.362,3.135l1.007.581-1.539.889-1.007-.582a6.434,6.434,0,0,1-5.431-.785l-.948-.548,1.779-1.026,1.086.627a2.182,2.182,0,0,0,2.317.212c.6-.345.619-.768-.368-1.338-2.843-1.641-6.658.4-10.607-1.878C995.38,5915.015,994.862,5913.946,995.843,5912.992Z" fill="#fff"/>
    <path id="Trazado_733" data-name="Trazado 733" d="M1067.042,6004.766H1088.4a5.958,5.958,0,0,1,5.16,2.979l10.679,18.5a5.96,5.96,0,0,1,0,5.958l-10.679,18.5a5.958,5.958,0,0,1-5.16,2.979h-21.357a5.958,5.958,0,0,1-5.16-2.979l-10.679-18.5a5.96,5.96,0,0,1,0-5.958l10.679-18.5A5.958,5.958,0,0,1,1067.042,6004.766Z" fill="#5e61db"/>
    <path id="Trazado_734" data-name="Trazado 734" d="M830.062,5869.218H758.328A39.522,39.522,0,0,0,724.1,5888.98L688.232,5951.1a39.523,39.523,0,0,0,0,39.523l35.868,62.124a39.522,39.522,0,0,0,34.228,19.762h71.734a39.522,39.522,0,0,0,34.228-19.762l35.868-62.124a39.523,39.523,0,0,0,0-39.523L864.29,5888.98A39.522,39.522,0,0,0,830.062,5869.218Z" fill="#3e3e56"/>
    <g id="Grupo_99" data-name="Grupo 99">
      <g id="Grupo_97" data-name="Grupo 97">
        <path id="Trazado_735" data-name="Trazado 735" d="M777.27,6045.943l-3-7.337-19.116-3.921-8.191,5.032-4.308-.885v3.532l4.82,11.519,18.218,3.431,13.153-7.516v-3.532Z" fill="#3e3e56"/>
        <path id="Trazado_736" data-name="Trazado 736" d="M747.476,6050.331l18.218,3.431,13.153-7.516-4.575-11.192-19.116-3.921-12.5,7.679Z" fill="#5e61db"/>
      </g>
      <g id="Grupo_98" data-name="Grupo 98">
        <path id="Trazado_737" data-name="Trazado 737" d="M753.209,6038.419l-1.026-.592,1.539-.889,1.026.593a6.391,6.391,0,0,1,5.394.784l.435.251-1.779,1.027-.572-.331a2.177,2.177,0,0,0-2.3-.244c-.6.346-.565.76.422,1.33,2.843,1.642,6.657-.4,10.606,1.879,1.876,1.083,2.379,2.183,1.362,3.135l1.006.581-1.539.889-1.006-.581a6.432,6.432,0,0,1-5.431-.786l-.948-.548,1.778-1.026,1.086.627a2.184,2.184,0,0,0,2.318.212c.6-.345.619-.768-.368-1.338-2.844-1.641-6.658.4-10.607-1.878C752.746,6040.442,752.228,6039.373,753.209,6038.419Z" fill="#fff"/>
      </g>
    </g>
    <g id="Grupo_102" data-name="Grupo 102">
      <g id="Grupo_100" data-name="Grupo 100">
        <path id="Trazado_738" data-name="Trazado 738" d="M815.911,6045.943l-3-7.337-19.116-3.921-8.191,5.032-4.308-.885v3.532l4.82,11.519,18.218,3.431,13.153-7.516v-3.532Z" fill="#3e3e56"/>
        <path id="Trazado_739" data-name="Trazado 739" d="M786.116,6050.331l18.218,3.431,13.153-7.516-4.575-11.192-19.116-3.921-12.5,7.679Z" fill="#5e61db"/>
      </g>
      <g id="Grupo_101" data-name="Grupo 101">
        <path id="Trazado_740" data-name="Trazado 740" d="M791.849,6038.419l-1.026-.592,1.539-.889,1.026.593a6.39,6.39,0,0,1,5.394.784l.435.251-1.779,1.027-.572-.331a2.177,2.177,0,0,0-2.3-.244c-.6.346-.565.76.422,1.33,2.843,1.642,6.657-.4,10.606,1.879,1.876,1.083,2.379,2.183,1.362,3.135l1.007.581-1.539.889-1.007-.581a6.433,6.433,0,0,1-5.431-.786l-.948-.548,1.779-1.026,1.085.627a2.184,2.184,0,0,0,2.318.212c.6-.345.619-.768-.368-1.338-2.843-1.641-6.658.4-10.607-1.878C791.386,6040.442,790.868,6039.373,791.849,6038.419Z" fill="#fff"/>
      </g>
    </g>
    <g id="Grupo_105" data-name="Grupo 105">
      <g id="Grupo_103" data-name="Grupo 103">
        <path id="Trazado_741" data-name="Trazado 741" d="M854.551,6045.943l-3-7.337-19.116-3.921-8.191,5.032-4.308-.885v3.532l4.82,11.519,18.218,3.431,13.153-7.516v-3.532Z" fill="#3e3e56"/>
        <path id="Trazado_742" data-name="Trazado 742" d="M824.756,6050.331l18.218,3.431,13.153-7.516-4.575-11.192-19.116-3.921-12.5,7.679Z" fill="#5e61db"/>
      </g>
      <g id="Grupo_104" data-name="Grupo 104">
        <path id="Trazado_743" data-name="Trazado 743" d="M830.49,6038.419l-1.027-.592,1.539-.889,1.027.593a6.391,6.391,0,0,1,5.394.784l.434.251-1.778,1.027-.573-.331a2.176,2.176,0,0,0-2.3-.244c-.6.346-.565.76.422,1.33,2.843,1.642,6.658-.4,10.607,1.879,1.875,1.083,2.379,2.183,1.361,3.135l1.007.581-1.539.889-1.007-.581a6.433,6.433,0,0,1-5.431-.786l-.948-.548,1.779-1.026,1.086.627a2.182,2.182,0,0,0,2.317.212c.6-.345.619-.768-.368-1.338-2.843-1.641-6.658.4-10.607-1.878C830.027,6040.442,829.509,6039.373,830.49,6038.419Z" fill="#fff"/>
      </g>
    </g>
    <g id="Grupo_108" data-name="Grupo 108">
      <g id="Grupo_106" data-name="Grupo 106">
        <path id="Trazado_744" data-name="Trazado 744" d="M791.764,6019.762l-3-7.337-19.116-3.921-8.191,5.033-4.308-.885v3.532l4.82,11.519,18.218,3.431,13.153-7.516v-3.531Z" fill="#3e3e56"/>
        <path id="Trazado_745" data-name="Trazado 745" d="M761.969,6024.15l18.218,3.431,13.153-7.516-4.575-11.192-19.116-3.921-12.5,7.679Z" fill="#5e61db"/>
      </g>
      <g id="Grupo_107" data-name="Grupo 107">
        <path id="Trazado_746" data-name="Trazado 746" d="M767.7,6012.238l-1.027-.593,1.539-.888,1.027.593a6.391,6.391,0,0,1,5.394.784l.434.251-1.778,1.027-.573-.331a2.179,2.179,0,0,0-2.3-.244c-.6.346-.565.76.422,1.33,2.843,1.641,6.658-.4,10.607,1.879,1.875,1.082,2.379,2.183,1.361,3.135l1.007.581-1.539.889-1.007-.581a6.436,6.436,0,0,1-5.431-.786l-.947-.548,1.778-1.026,1.086.627a2.181,2.181,0,0,0,2.317.212c.6-.345.619-.768-.368-1.338-2.843-1.641-6.658.4-10.606-1.878C767.24,6014.261,766.722,6013.192,767.7,6012.238Z" fill="#fff"/>
      </g>
    </g>
    <g id="Grupo_111" data-name="Grupo 111">
      <g id="Grupo_109" data-name="Grupo 109">
        <path id="Trazado_747" data-name="Trazado 747" d="M830.4,6019.762l-3-7.337-19.116-3.921-8.191,5.033-4.308-.885v3.532l4.82,11.519,18.218,3.431,13.153-7.516v-3.531Z" fill="#3e3e56"/>
        <path id="Trazado_748" data-name="Trazado 748" d="M800.609,6024.15l18.218,3.431,13.153-7.516-4.575-11.192-19.116-3.921-12.5,7.679Z" fill="#5e61db"/>
      </g>
      <g id="Grupo_110" data-name="Grupo 110">
        <path id="Trazado_749" data-name="Trazado 749" d="M806.343,6012.238l-1.027-.593,1.539-.888,1.027.593a6.391,6.391,0,0,1,5.394.784l.434.251-1.778,1.027-.573-.331a2.177,2.177,0,0,0-2.3-.244c-.6.346-.566.76.421,1.33,2.844,1.641,6.658-.4,10.607,1.879,1.876,1.082,2.379,2.183,1.361,3.135l1.007.581-1.539.889-1.007-.581a6.436,6.436,0,0,1-5.431-.786l-.947-.548,1.778-1.026,1.086.627a2.181,2.181,0,0,0,2.317.212c.6-.345.619-.768-.368-1.338-2.843-1.641-6.657.4-10.606-1.878C805.88,6014.261,805.362,6013.192,806.343,6012.238Z" fill="#fff"/>
      </g>
    </g>
    <path id="Trazado_750" data-name="Trazado 750" d="M872.044,5820.927h12.475a13.65,13.65,0,0,1,11.822,6.825l6.237,10.8a13.648,13.648,0,0,1,0,13.651l-6.237,10.8a13.652,13.652,0,0,1-11.822,6.825H872.044a13.652,13.652,0,0,1-11.822-6.825l-6.237-10.8a13.649,13.649,0,0,1,0-13.651l6.237-10.8A13.65,13.65,0,0,1,872.044,5820.927Z" fill="#e280a5"/>
    <path id="Trazado_751" data-name="Trazado 751" d="M811.4,6080.142h12.475a13.653,13.653,0,0,1,11.822,6.825l6.237,10.8a13.647,13.647,0,0,1,0,13.65l-6.237,10.8a13.65,13.65,0,0,1-11.822,6.825H811.4a13.65,13.65,0,0,1-11.822-6.825l-6.237-10.8a13.646,13.646,0,0,1,0-13.65l6.237-10.8A13.653,13.653,0,0,1,811.4,6080.142Z" fill="#95dca4"/>
    <circle id="Elipse_96" data-name="Elipse 96" cx="11.147" cy="11.147" r="11.147" transform="translate(1109.586 5989.847)" fill="none" stroke="#82c590" stroke-miterlimit="10" stroke-width="1"/>
    <path id="Trazado_752" data-name="Trazado 752" d="M1072.917,5973.592a8.793,8.793,0,0,0-1.583-1.165q1.238,1.129,2.485,2.162A8.815,8.815,0,0,0,1072.917,5973.592Z" fill="none"/>
    <path id="Trazado_753" data-name="Trazado 753" d="M1073.342,5985.882a8.691,8.691,0,0,0,.477-11.293q-1.246-1.035-2.485-2.162a8.691,8.691,0,0,0-11.862,11.9q1.455,1.559,2.991,3.052A8.7,8.7,0,0,0,1073.342,5985.882Z" fill="none"/>
    <path id="Trazado_754" data-name="Trazado 754" d="M1073.342,5985.882a8.691,8.691,0,0,0,.477-11.293q-1.246-1.035-2.485-2.162a8.691,8.691,0,0,0-11.862,11.9q1.455,1.559,2.991,3.052A8.7,8.7,0,0,0,1073.342,5985.882Z" fill="none"/>
    <path id="Trazado_755" data-name="Trazado 755" d="M1073.819,5974.589a8.25,8.25,0,0,0-2.485-2.162q-2.4-2.185-4.742-4.73c-24.755-26.972-29.308-36.382-29.308-36.382l-5.57,4.125s8.546,28.3,27.758,48.887q1.455,1.559,2.991,3.052a8.691,8.691,0,0,0,11.356-12.79Z" fill="#edc9c4"/>
    <path id="Trazado_756" data-name="Trazado 756" d="M1122.037,5989.923s-25.1,3.881-48.218-15.334q-1.246-1.035-2.485-2.162a8.691,8.691,0,0,0-11.862,11.9q1.455,1.559,2.991,3.052a77.055,77.055,0,0,0,6.2,5.434c25.7,20.115,49.584,19.05,49.584,19.05Z" fill="#82c590"/>
    <path id="Trazado_757" data-name="Trazado 757" d="M1032.9,5937.106s1.734,1.232-2.258-2.631-3.94-3.715-4.856-8.305,1.845-2.635,2.782,2.284,5.677.789,3.763-1.628-11.5-11.422-11.5-11.422-.32-2.135,5.663,1.958,12.362,8.131,11.18,11.7.129,5.276.129,5.276Z" fill="#edc9c4"/>
    <path id="Trazado_758" data-name="Trazado 758" d="M1115.6,5940.292a.367.367,0,0,1,.043.538l-2.894,3.128a2.442,2.442,0,0,1-.9.707,1.661,1.661,0,0,1-1.609-.407l-1.11-1.191a1.433,1.433,0,0,1,.154-2.369c.459-.249.927.047,1.37.232,1.556.649,3.048.066,4.554-.678a.366.366,0,0,1,.39.04Z" fill="#e280a5"/>
    <path id="Trazado_759" data-name="Trazado 759" d="M1118.77,5983.338s-11.129,21.533-19.539,12.561l5.157-36.689,3.546-7.728,14.078-5.1S1110.448,5968.541,1118.77,5983.338Z" fill="#edc9c4"/>
    <path id="Trazado_760" data-name="Trazado 760" d="M1102.881,5950.969l25.287-23.131,7.561,7.688s-8.85,26.192-16.336,25.33c-2.35-.27-1.4-10.013-1.4-10.013l-7.595,4.681Z" fill="#edc9c4"/>
    <path id="Trazado_761" data-name="Trazado 761" d="M1132.006,5923.388c6.842,3.878,16.381,11.584,15.77,22.777s-18.813,20.371-18.813,20.371-7.732,3.542-6.176,10.782-4.709,5.468-7.271-3.418-4.107-9.246.763-14.975,10.854-7.774,7.681-10.629c-1.206-1.084-2.3-.765-5.559,3.458-.542.7-.373,1.734-1.161,2.6-3.942,4.345-11.506,8.22-16.886,6.545-6.457-2.011-13.644-5.745-5.687-11.285s11.281,4.3,16.7,1.346c5.493-3,11.089-4.259,12.806-10.6s3.405-12.61-2.432-14.358S1122.126,5917.787,1132.006,5923.388Z" fill="#3e3e56"/>
    <ellipse id="Elipse_97" data-name="Elipse 97" cx="5.351" cy="2.203" rx="5.351" ry="2.203" transform="matrix(0.829, -0.56, 0.56, 0.829, 1111.285, 5938.973)" fill="#595bcf"/>
    <path id="Trazado_762" data-name="Trazado 762" d="M1118.5,5939.129l6.639,8.188a7.657,7.657,0,0,1,1.261,7.409l-.63,1.757" fill="none" stroke="#fff" stroke-miterlimit="10" stroke-width="2"/>
    <ellipse id="Elipse_98" data-name="Elipse 98" cx="5.351" cy="2.203" rx="5.351" ry="2.203" transform="matrix(0.829, -0.56, 0.56, 0.829, 1111.285, 5938.973)" fill="none" stroke="#212121" stroke-miterlimit="10" stroke-width="2"/>
    <circle id="Elipse_99" data-name="Elipse 99" cx="15.126" cy="15.126" r="15.126" transform="translate(1093.7 6056.129)" fill="none" stroke="#95dca4" stroke-miterlimit="10" stroke-width="1"/>
    <circle id="Elipse_100" data-name="Elipse 100" cx="9.241" cy="9.241" r="9.241" transform="translate(1073.051 6111.735)" fill="none" stroke="#95dca4" stroke-miterlimit="10" stroke-width="1"/>
    <path id="Trazado_763" data-name="Trazado 763" d="M1122.5,6077.721c-10.857,18.109-26.174,29.855-30.633,44.579-1,3.313-4.389,9-11.856,7.632s-7.13-10.332-7.13-10.332c3.448-25.764,16.767-44.449,22.671-55.5,0,0,6.018-11.151,18.1-7.184C1125.14,6060.688,1125.156,6073.292,1122.5,6077.721Z" fill="#1b1a30"/>
    <circle id="Elipse_101" data-name="Elipse 101" cx="3.009" cy="3.009" r="3.009" transform="translate(1065.777 6203.131)" fill="none" stroke="#95dca4" stroke-miterlimit="10" stroke-width="1"/>
    <path id="Trazado_764" data-name="Trazado 764" d="M1091.537,6123.8c-3.2,9.318-6.4,18.646-8.928,28.168-3.762,14.178-6.379,41.011-10.89,54.839-1.409,4.318-6.161,2.026-5.937-.829,1.707-21.677,1.44-65.979,6.611-84.972q.4-1.474.827-2.887s4.164-8.72,11.93-5.934S1091.537,6123.8,1091.537,6123.8Z" fill="#1b1a30"/>
    <path id="Trazado_765" data-name="Trazado 765" d="M1065.784,6205.962a86.139,86.139,0,0,1-14.074,1.171c-7.53-.027-6.223,3.233-.725,4.326s17.547,4.06,20.18-3.084a3.248,3.248,0,0,1-3.688.989C1065.492,6208.509,1065.784,6205.962,1065.784,6205.962Z" fill="#95dca4"/>
    <path id="Trazado_766" data-name="Trazado 766" d="M1099.449,6063.874s-.123,11.228-10.182,11.228" fill="none" stroke="#5e61dc" stroke-miterlimit="10" stroke-width="1"/>
    <path id="Trazado_767" data-name="Trazado 767" d="M1089.267,6077.068s5.654-.123,8.591-3.549" fill="none" stroke="#e280a5" stroke-miterlimit="10" stroke-width="1"/>
    <circle id="Elipse_102" data-name="Elipse 102" cx="15.126" cy="15.126" r="15.126" transform="translate(1115.507 6062.995)" fill="none" stroke="#95dca4" stroke-miterlimit="10" stroke-width="1"/>
    <circle id="Elipse_103" data-name="Elipse 103" cx="9.241" cy="9.241" r="9.241" transform="translate(1094.858 6118.602)" fill="none" stroke="#95dca4" stroke-miterlimit="10" stroke-width="1"/>
    <path id="Trazado_768" data-name="Trazado 768" d="M1144.308,6084.588c-10.857,18.108-26.174,29.854-30.633,44.578-1,3.313-4.389,9-11.856,7.632s-7.13-10.332-7.13-10.332c3.448-25.764,16.767-44.449,22.672-55.495,0,0,6.017-11.152,18.1-7.185C1146.947,6067.554,1146.963,6080.158,1144.308,6084.588Z" fill="#363651"/>
    <path id="Trazado_769" data-name="Trazado 769" d="M1144.319,6071.5s-18.421,4.57-5.024,20.668" fill="none" stroke="#5e61dc" stroke-miterlimit="10" stroke-width="1"/>
    <circle id="Elipse_104" data-name="Elipse 104" cx="3.009" cy="3.009" r="3.009" transform="translate(1134.224 6204.441)" fill="none"/>
    <path id="Trazado_770" data-name="Trazado 770" d="M1113.454,6125.4c2.159,9.612,4.321,19.235,7.16,28.668,4.228,14.046,16.062,38.27,19.469,52.411,1.063,4.416-4.185,4.955-5.49,2.405-9.908-19.355-33.356-56.944-38.907-75.83q-.43-1.466-.808-2.892s-1.025-9.609,7.049-11.307S1113.454,6125.4,1113.454,6125.4Z" fill="#363651"/>
    <path id="Trazado_771" data-name="Trazado 771" d="M1114.044,6128.027s-1.223-4.958.59-8.675" fill="none" stroke="#5e61dc" stroke-miterlimit="10" stroke-width="1"/>
    <path id="Trazado_772" data-name="Trazado 772" d="M1134.139,6207.286a86.139,86.139,0,0,1-13.624,3.716c-7.409,1.346-5.53,4.313.075,4.386s17.993.794,19.28-6.71a3.25,3.25,0,0,1-3.446,1.645C1134.316,6209.843,1134.139,6207.286,1134.139,6207.286Z" fill="#95dca4"/>
    <path id="Trazado_773" data-name="Trazado 773" d="M1131.559,6081.6a17.381,17.381,0,0,0,3.816,9.871" fill="none" stroke="#e280a5" stroke-miterlimit="10" stroke-width="1"/>
    <path id="Trazado_774" data-name="Trazado 774" d="M1118.77,5983.338s34.418,18.935,27.324,91.23c-18.9,2.852-53.491-6.259-58.4-14.225,17.025-30.627,11.286-49.707,11.543-65.828C1115.742,5993.536,1118.77,5983.338,1118.77,5983.338Z" fill="#82c590"/>
    <path id="Trazado_775" data-name="Trazado 775" d="M1099.236,6025.788a59.023,59.023,0,0,0,15.1-6.56s-6.9,14.488-18.209,21.187C1096.128,6040.415,1097.8,6037.367,1099.236,6025.788Z" fill="#363651"/>
    <circle id="Elipse_105" data-name="Elipse 105" cx="11.147" cy="11.147" r="11.147" transform="translate(1109.936 5989.944)" fill="none" stroke="#82c590" stroke-miterlimit="10" stroke-width="1"/>
    <path id="Trazado_776" data-name="Trazado 776" d="M1069.28,6013.283s-3.289.152-3.291.114c-2.162.025-4.394-.044-6.694-.223-36.5-2.83-46.527-5.1-46.527-5.1l-.98,5.311s25.555,14.86,53.647,16.8q2.127.147,4.269.191a8.69,8.69,0,0,0-.424-17.1Z" fill="#edc9c4"/>
    <path id="Trazado_777" data-name="Trazado 777" d="M1114.995,5991.6s-15.707,19.965-45.715,21.687q-1.617.093-3.291.114a8.691,8.691,0,0,0-.554,16.793q2.127.147,4.269.191a77.264,77.264,0,0,0,8.243-.26c32.517-2.83,49.249-19.9,49.249-19.9Z" fill="#82c590"/>
    <path id="Trazado_778" data-name="Trazado 778" d="M1012.768,6008.075s-.175.128-3.181-1.5c-4.883-2.65-4.8-2.516-9.434-1.887s-1.891,2.6,3.066,1.887,2.594,5.109-.315,4.087-14.543-7.153-14.543-7.153-2.123.393,3.7,4.716,11.713,9.041,14.7,6.761,5.032-1.6,5.032-1.6Z" fill="#edc9c4"/>
  </g>
</svg>
