<?xml version="1.0" encoding="utf-8"?>
<!-- Generator: Adobe Illustrator 22.1.0, SVG Export Plug-In . SVG Version: 6.00 Build 0)  -->
<svg version="1.1" id="Capa_1" xmlns="http://www.w3.org/2000/svg" xmlns:xlink="http://www.w3.org/1999/xlink" x="0px" y="0px"
	 viewBox="0 0 478.9 336.9" style="enable-background:new 0 0 478.9 336.9;" xml:space="preserve">
<style type="text/css">
	.st0{fill:#69DCA2;}
	.st1{fill:#FFFFFF;}
	.st2{fill:#F6F7F9;}
	.st3{fill:#E7E9EB;}
	.st4{fill:#FB9282;}
	.st5{fill:#333351;}
	.st6{fill:#5C61DE;}
	.st7{fill:#F1F3F4;}
	.st8{fill:#5C61DF;}
	.st9{fill:#27273D;}
	.st10{fill:#D6D6D8;}
	.st11{fill:#3C3972;}
	.st12{fill:url(#SVGID_1_);}
	.st13{fill:#585DD4;}
	.st14{fill:#5BC28E;}
	.st15{fill:url(#SVGID_2_);}
	.st16{opacity:0.3;fill:#FFFFFF;}
	.st17{fill:#4C4C75;}
	.st18{fill:#69DAA0;}
	.st19{fill:#FC80A7;}
	.st20{fill:#FC9383;}
	.st21{fill:#F9C9C4;}
	.st22{fill:#3C3C56;}
</style>
<g>
	<path class="st0" d="M325,0H176.1C162,0,149,7.5,141.9,19.8L67.5,148.7c-7.1,12.2-7.1,27.3,0,39.5l74.4,128.9
		c7.1,12.2,20.1,19.8,34.2,19.8H325c14.1,0,27.2-7.5,34.2-19.8l74.4-128.9c7.1-12.2,7.1-27.3,0-39.5L359.3,19.8
		C352.2,7.5,339.2,0,325,0z"/>
	<g>
		<path class="st1" d="M162.9,87.7v178.8c0,3.6,2.6,6.5,5.9,6.5H473c3.2,0,5.9-2.9,5.9-6.5V69.5c0-3.6-2.6-6.5-5.9-6.5H168.7
			c-3.2,0-5.9,2.9-5.9,6.5V87.7z"/>
		<circle class="st0" cx="457.5" cy="69.5" r="2"/>
		<circle class="st0" cx="464.2" cy="69.5" r="2"/>
		<circle class="st0" cx="470.9" cy="69.5" r="2"/>
		<path class="st2" d="M434.2,136.6H254.4c-3.9,0-7-3.1-7-7v-1.3c0-3.9,3.1-7,7-7h179.8c3.9,0,7,3.1,7,7v1.3
			C441.2,133.5,438,136.6,434.2,136.6z"/>
		<path class="st2" d="M434.2,115.2H254.4c-3.9,0-7-3.1-7-7v-1.3c0-3.9,3.1-7,7-7h179.8c3.9,0,7,3.1,7,7v1.3
			C441.2,112.1,438,115.2,434.2,115.2z"/>
		<path class="st3" d="M290.6,136.6h-36.3c-3.9,0-7-3.1-7-7v-1.3c0-3.9,3.1-7,7-7h36.3c3.9,0,7,3.1,7,7v1.3
			C297.6,133.5,294.5,136.6,290.6,136.6z"/>
		<path class="st4" d="M464.7,108.8h-1c-2.8,0-5-2.3-5-5v-1c0-2.8,2.3-5,5-5h1c2.8,0,5,2.3,5,5v1
			C469.7,106.6,467.4,108.8,464.7,108.8z"/>
		<path class="st5" d="M464.7,125.4h-1c-2.8,0-5-2.3-5-5v-1c0-2.8,2.3-5,5-5h1c2.8,0,5,2.3,5,5v1
			C469.7,123.1,467.4,125.4,464.7,125.4z"/>
		<path class="st6" d="M464.7,141.9h-1c-2.8,0-5-2.3-5-5v-1c0-2.8,2.3-5,5-5h1c2.8,0,5,2.3,5,5v1
			C469.7,139.7,467.4,141.9,464.7,141.9z"/>
		<circle class="st7" cx="464.2" cy="103.3" r="1"/>
		<circle class="st7" cx="464.2" cy="119.9" r="1"/>
		<circle class="st7" cx="464.2" cy="136.4" r="1"/>
		<rect x="264.5" y="128.7" class="st8" width="26.1" height="0.5"/>
		<rect x="309.6" y="128.7" class="st9" width="26.1" height="0.5"/>
		<rect x="354.7" y="128.7" class="st9" width="26.1" height="0.5"/>
		<rect x="399.8" y="128.7" class="st9" width="26.1" height="0.5"/>
		<rect x="449.9" y="94" class="st10" width="1" height="179"/>
		<path class="st8" d="M257.4,125.9c1.5,0,2.8,1.3,2.8,2.8c0,1.5-1.3,2.8-2.8,2.8c-1.5,0-2.8-1.3-2.8-2.8
			C254.6,127.1,255.9,125.9,257.4,125.9 M257.4,125.4c-1.8,0-3.3,1.5-3.3,3.3c0,1.8,1.5,3.3,3.3,3.3c1.8,0,3.3-1.5,3.3-3.3
			C260.7,126.9,259.2,125.4,257.4,125.4L257.4,125.4z"/>
		<path class="st11" d="M255.9,105.5c1,0,1.8,0.8,1.8,1.8s-0.8,1.8-1.8,1.8c-1,0-1.8-0.8-1.8-1.8S254.9,105.5,255.9,105.5
			 M255.9,105c-1.2,0-2.3,1-2.3,2.3s1,2.3,2.3,2.3c1.2,0,2.3-1,2.3-2.3S257.1,105,255.9,105L255.9,105z"/>
		
			<rect x="257.7" y="108.4" transform="matrix(0.7071 -0.7071 0.7071 0.7071 -1.689 214.417)" class="st11" width="0.5" height="1.6"/>
		<linearGradient id="SVGID_1_" gradientUnits="userSpaceOnUse" x1="468.4009" y1="273.7679" x2="373.7227" y2="203.2462">
			<stop  offset="0" style="stop-color:#5954A1"/>
			<stop  offset="1" style="stop-color:#585DD4"/>
		</linearGradient>
		<path class="st12" d="M429.8,250h-69.9c-5,0-9-4.1-9-9V197c0-5,4.1-9,9-9h69.9c5,0,9,4.1,9,9V241C438.9,245.9,434.8,250,429.8,250
			z"/>
		<path class="st1" d="M395.3,238c-0.1,0-0.2-0.1-0.3-0.2c0-0.1,0.1-0.3,0.2-0.3c0.3,0,0.7,0,1-0.1c0.1,0,0.3,0.1,0.3,0.2
			c0,0.1-0.1,0.3-0.2,0.3C396,238,395.7,238,395.3,238C395.4,238,395.4,238,395.3,238z M392.8,238C392.8,238,392.8,238,392.8,238
			c-0.4,0-0.7-0.1-1-0.1c-0.1,0-0.2-0.1-0.2-0.3c0-0.1,0.1-0.2,0.3-0.2c0.3,0,0.7,0.1,1,0.1c0.1,0,0.2,0.1,0.2,0.3
			C393.1,237.9,393,238,392.8,238z M398.8,237.6c-0.1,0-0.2-0.1-0.2-0.2c0-0.1,0.1-0.3,0.2-0.3c0.3-0.1,0.6-0.2,1-0.2
			c0.1,0,0.3,0,0.3,0.2c0,0.1,0,0.3-0.2,0.3C399.5,237.4,399.2,237.5,398.8,237.6C398.9,237.6,398.8,237.6,398.8,237.6z
			 M389.4,237.3C389.4,237.3,389.3,237.3,389.4,237.3c-0.4-0.1-0.7-0.2-1-0.3c-0.1,0-0.2-0.2-0.2-0.3c0-0.1,0.2-0.2,0.3-0.2
			c0.3,0.1,0.6,0.2,0.9,0.3c0.1,0,0.2,0.2,0.2,0.3C389.6,237.3,389.5,237.3,389.4,237.3z M402.2,236.5c-0.1,0-0.2-0.1-0.2-0.2
			c-0.1-0.1,0-0.3,0.1-0.3c0.3-0.1,0.6-0.3,0.9-0.4c0.1-0.1,0.3,0,0.3,0.1c0.1,0.1,0,0.3-0.1,0.3
			C402.9,236.2,402.6,236.3,402.2,236.5C402.2,236.5,402.2,236.5,402.2,236.5z M386.1,236.1c0,0-0.1,0-0.1,0
			c-0.3-0.1-0.6-0.3-0.9-0.5c-0.1-0.1-0.2-0.2-0.1-0.3c0.1-0.1,0.2-0.2,0.3-0.1c0.3,0.2,0.6,0.3,0.9,0.5c0.1,0.1,0.2,0.2,0.1,0.3
			C386.3,236,386.2,236.1,386.1,236.1z M405.2,234.8c-0.1,0-0.2,0-0.2-0.1c-0.1-0.1,0-0.3,0.1-0.3c0.3-0.2,0.5-0.4,0.8-0.6
			c0.1-0.1,0.3-0.1,0.4,0c0.1,0.1,0.1,0.3,0,0.4c-0.3,0.2-0.5,0.4-0.8,0.6C405.3,234.8,405.3,234.8,405.2,234.8z M383.1,234.2
			c-0.1,0-0.1,0-0.2-0.1c-0.3-0.2-0.5-0.4-0.8-0.6c-0.1-0.1-0.1-0.2,0-0.4c0.1-0.1,0.2-0.1,0.4,0c0.3,0.2,0.5,0.4,0.8,0.6
			c0.1,0.1,0.1,0.2,0,0.4C383.3,234.2,383.2,234.2,383.1,234.2z M407.9,232.6c-0.1,0-0.1,0-0.2-0.1c-0.1-0.1-0.1-0.3,0-0.4
			c0.2-0.2,0.5-0.5,0.7-0.7c0.1-0.1,0.3-0.1,0.4,0c0.1,0.1,0.1,0.3,0,0.4c-0.2,0.2-0.5,0.5-0.7,0.7
			C408.1,232.5,408,232.6,407.9,232.6z M380.5,231.9c-0.1,0-0.1,0-0.2-0.1c-0.2-0.2-0.5-0.5-0.7-0.8c-0.1-0.1-0.1-0.3,0-0.4
			c0.1-0.1,0.3-0.1,0.4,0c0.2,0.3,0.4,0.5,0.6,0.7c0.1,0.1,0.1,0.3,0,0.4C380.7,231.9,380.6,231.9,380.5,231.9z M410.2,229.9
			c0,0-0.1,0-0.1,0c-0.1-0.1-0.1-0.2-0.1-0.3c0.2-0.3,0.4-0.5,0.5-0.8c0.1-0.1,0.2-0.2,0.3-0.1c0.1,0.1,0.2,0.2,0.1,0.3
			c-0.2,0.3-0.4,0.6-0.6,0.9C410.4,229.8,410.3,229.9,410.2,229.9z M378.4,229.1c-0.1,0-0.2,0-0.2-0.1c-0.2-0.3-0.4-0.6-0.5-0.9
			c-0.1-0.1,0-0.3,0.1-0.3c0.1-0.1,0.3,0,0.3,0.1c0.2,0.3,0.3,0.6,0.5,0.9c0.1,0.1,0,0.3-0.1,0.3
			C378.5,229.1,378.5,229.1,378.4,229.1z M411.9,226.8c0,0-0.1,0-0.1,0c-0.1-0.1-0.2-0.2-0.1-0.3c0.1-0.3,0.3-0.6,0.4-0.9
			c0-0.1,0.2-0.2,0.3-0.1c0.1,0,0.2,0.2,0.1,0.3c-0.1,0.3-0.3,0.6-0.4,0.9C412.1,226.8,412,226.8,411.9,226.8z M376.8,226
			c-0.1,0-0.2-0.1-0.2-0.2c-0.1-0.3-0.2-0.6-0.3-1c0-0.1,0-0.3,0.2-0.3c0.1,0,0.3,0,0.3,0.2c0.1,0.3,0.2,0.6,0.3,0.9
			C377.1,225.7,377.1,225.9,376.8,226C376.9,225.9,376.9,226,376.8,226z M413.1,223.5C413,223.5,413,223.5,413.1,223.5
			c-0.2,0-0.3-0.2-0.2-0.3c0.1-0.3,0.1-0.6,0.2-1c0-0.1,0.2-0.2,0.3-0.2c0.1,0,0.2,0.2,0.2,0.3c-0.1,0.3-0.1,0.7-0.2,1
			C413.3,223.4,413.2,223.5,413.1,223.5z M375.9,222.6c-0.1,0-0.2-0.1-0.2-0.2c-0.1-0.3-0.1-0.7-0.2-1c0-0.1,0.1-0.3,0.2-0.3
			c0.1,0,0.3,0.1,0.3,0.2c0,0.3,0.1,0.7,0.2,1C376.1,222.4,376,222.6,375.9,222.6C375.9,222.6,375.9,222.6,375.9,222.6z M413.6,220
			C413.6,220,413.6,220,413.6,220c-0.2,0-0.3-0.1-0.3-0.3c0-0.3,0-0.7,0-1l0-0.2c0-0.1,0.1-0.3,0.2-0.3c0,0,0,0,0,0
			c0.1,0,0.2,0.1,0.3,0.2l0,0.2c0,0.3,0,0.7,0,1C413.8,219.9,413.7,220,413.6,220z M375.5,219.1c-0.1,0-0.3-0.1-0.3-0.3v-0.1
			c0-0.3,0-0.6,0-0.9c0-0.1,0.1-0.2,0.3-0.2c0.1,0,0.2,0.1,0.2,0.3c0,0.3,0,0.6,0,0.9v0.1C375.8,219,375.7,219.1,375.5,219.1z
			 M413.4,216.4c-0.1,0-0.2-0.1-0.2-0.2c0-0.3-0.1-0.7-0.2-1c0-0.1,0.1-0.3,0.2-0.3c0.1,0,0.3,0.1,0.3,0.2c0.1,0.3,0.1,0.7,0.2,1
			C413.7,216.2,413.6,216.3,413.4,216.4C413.4,216.4,413.4,216.4,413.4,216.4z M375.8,215.6C375.8,215.6,375.8,215.6,375.8,215.6
			c-0.2,0-0.3-0.2-0.2-0.3c0.1-0.3,0.1-0.7,0.2-1c0-0.1,0.2-0.2,0.3-0.2c0.1,0,0.2,0.2,0.2,0.3c-0.1,0.3-0.1,0.6-0.2,1
			C376.1,215.5,376,215.6,375.8,215.6z M412.6,213c-0.1,0-0.2-0.1-0.2-0.2c-0.1-0.3-0.2-0.6-0.3-0.9c-0.1-0.1,0-0.3,0.1-0.3
			c0.1-0.1,0.3,0,0.3,0.1c0.1,0.3,0.2,0.6,0.3,1C412.9,212.8,412.8,212.9,412.6,213C412.7,212.9,412.6,213,412.6,213z M376.8,212.2
			C376.8,212.2,376.7,212.2,376.8,212.2c-0.2-0.1-0.3-0.2-0.2-0.3c0.1-0.3,0.3-0.6,0.4-0.9c0.1-0.1,0.2-0.2,0.3-0.1
			c0.1,0.1,0.2,0.2,0.1,0.3c-0.1,0.3-0.3,0.6-0.4,0.9C377,212.2,376.9,212.2,376.8,212.2z M411.2,209.7c-0.1,0-0.2,0-0.2-0.1
			c-0.2-0.3-0.3-0.6-0.5-0.9c-0.1-0.1,0-0.3,0.1-0.3c0.1-0.1,0.3,0,0.3,0.1c0.2,0.3,0.4,0.6,0.5,0.9c0.1,0.1,0,0.3-0.1,0.3
			C411.3,209.7,411.2,209.7,411.2,209.7z M378.3,209.1c0,0-0.1,0-0.1,0c-0.1-0.1-0.2-0.2-0.1-0.3c0.2-0.3,0.4-0.6,0.6-0.9
			c0.1-0.1,0.2-0.1,0.3-0.1c0.1,0.1,0.1,0.2,0.1,0.3c-0.2,0.3-0.4,0.6-0.5,0.8C378.5,209,378.4,209.1,378.3,209.1z M409.2,206.9
			c-0.1,0-0.1,0-0.2-0.1c-0.2-0.3-0.4-0.5-0.7-0.7c-0.1-0.1-0.1-0.3,0-0.4c0.1-0.1,0.3-0.1,0.4,0c0.2,0.2,0.5,0.5,0.7,0.8
			c0.1,0.1,0.1,0.3,0,0.4C409.3,206.8,409.3,206.9,409.2,206.9z M380.4,206.3c-0.1,0-0.1,0-0.2-0.1c-0.1-0.1-0.1-0.3,0-0.4
			c0.2-0.3,0.5-0.5,0.7-0.7c0.1-0.1,0.3-0.1,0.4,0c0.1,0.1,0.1,0.3,0,0.4c-0.2,0.2-0.5,0.5-0.7,0.7
			C380.6,206.2,380.5,206.3,380.4,206.3z M406.7,204.4c-0.1,0-0.1,0-0.2-0.1c-0.3-0.2-0.5-0.4-0.8-0.6c-0.1-0.1-0.1-0.2-0.1-0.4
			c0.1-0.1,0.2-0.1,0.4-0.1c0.3,0.2,0.5,0.4,0.8,0.6c0.1,0.1,0.1,0.2,0,0.4C406.9,204.3,406.8,204.4,406.7,204.4z M383,203.9
			c-0.1,0-0.2,0-0.2-0.1c-0.1-0.1-0.1-0.3,0-0.4c0.3-0.2,0.5-0.4,0.8-0.6c0.1-0.1,0.3,0,0.3,0.1c0.1,0.1,0,0.3-0.1,0.3
			c-0.3,0.2-0.5,0.4-0.8,0.6C383.1,203.9,383.1,203.9,383,203.9z M403.8,202.4c0,0-0.1,0-0.1,0c-0.3-0.2-0.6-0.3-0.9-0.5
			c-0.1-0.1-0.2-0.2-0.1-0.3c0.1-0.1,0.2-0.2,0.3-0.1c0.3,0.1,0.6,0.3,0.9,0.5c0.1,0.1,0.2,0.2,0.1,0.3
			C404,202.3,403.9,202.4,403.8,202.4z M386,202c-0.1,0-0.2-0.1-0.2-0.1c-0.1-0.1,0-0.3,0.1-0.3c0.3-0.2,0.6-0.3,0.9-0.4
			c0.1-0.1,0.3,0,0.3,0.1c0.1,0.1,0,0.3-0.1,0.3c-0.3,0.1-0.6,0.3-0.9,0.4C386.1,202,386,202,386,202z M400.6,201
			C400.6,201,400.6,201,400.6,201c-0.4-0.1-0.7-0.2-1-0.3c-0.1,0-0.2-0.2-0.2-0.3c0-0.1,0.2-0.2,0.3-0.2c0.3,0.1,0.6,0.2,1,0.3
			c0.1,0,0.2,0.2,0.2,0.3C400.8,200.9,400.7,201,400.6,201z M389.2,200.7c-0.1,0-0.2-0.1-0.2-0.2c0-0.1,0-0.3,0.2-0.3
			c0.3-0.1,0.7-0.2,1-0.3c0.1,0,0.3,0.1,0.3,0.2c0,0.1-0.1,0.3-0.2,0.3C390,200.6,389.6,200.6,389.2,200.7
			C389.3,200.7,389.3,200.7,389.2,200.7z M397.2,200.2C397.2,200.2,397.2,200.2,397.2,200.2c-0.4,0-0.7-0.1-1-0.1
			c-0.1,0-0.2-0.1-0.2-0.3c0-0.1,0.1-0.2,0.3-0.2c0.3,0,0.7,0.1,1,0.1c0.1,0,0.2,0.1,0.2,0.3C397.4,200.1,397.3,200.2,397.2,200.2z
			 M392.7,200.1c-0.1,0-0.2-0.1-0.2-0.2c0-0.1,0.1-0.3,0.2-0.3c0.3,0,0.7-0.1,1-0.1c0.1,0,0.3,0.1,0.3,0.2c0,0.1-0.1,0.3-0.2,0.3
			C393.4,200,393,200,392.7,200.1C392.7,200.1,392.7,200.1,392.7,200.1z"/>
		<path class="st1" d="M394.6,238.2c-0.2,0-0.4-0.2-0.4-0.4c0-0.2,0.2-0.4,0.4-0.4c10.3,0,18.7-8.4,18.7-18.7
			c0-10.3-8.4-18.7-18.7-18.7c-0.2,0-0.4-0.2-0.4-0.4c0-0.2,0.2-0.4,0.4-0.4c10.7,0,19.4,8.7,19.4,19.4
			C414,229.5,405.3,238.2,394.6,238.2z"/>
		<circle class="st1" cx="394.9" cy="238.1" r="2.1"/>
		<g>
			<path class="st1" d="M391.1,220.2v1c0,0.4,0.1,0.6,0.2,0.8c0.2,0.1,0.4,0.2,0.6,0.2c0.3,0,0.5-0.1,0.6-0.2
				c0.2-0.1,0.2-0.4,0.2-0.8v-2.3c0-0.4-0.1-0.6-0.2-0.8c-0.2-0.2-0.4-0.2-0.6-0.2c-0.3,0-0.5,0.1-0.6,0.2c-0.2,0.2-0.2,0.4-0.2,0.8
				v0.3h-1.5l0.3-5.9h4.2v1.5h-2.8l-0.1,2.4c0.3-0.5,0.8-0.7,1.4-0.7c0.6,0,1,0.2,1.3,0.6c0.3,0.4,0.4,1,0.4,1.7v2.3
				c0,0.8-0.2,1.5-0.6,1.9c-0.4,0.4-1,0.7-1.8,0.7s-1.4-0.2-1.8-0.7c-0.4-0.4-0.6-1.1-0.6-1.9v-0.8H391.1z"/>
			<path class="st1" d="M395.5,214.6c0.3,0,0.6,0,0.8-0.1c0.2-0.1,0.4-0.2,0.5-0.3c0.1-0.1,0.2-0.3,0.3-0.4c0.1-0.2,0.1-0.3,0.2-0.5
				h1.1v10.2h-1.6v-7.8h-1.2V214.6z"/>
		</g>
		<g>
			<path class="st1" d="M401.2,214.2c0-0.2,0-0.3,0.1-0.5c0.1-0.1,0.2-0.2,0.4-0.2c0.2,0,0.3,0.1,0.4,0.2c0.1,0.1,0.1,0.3,0.1,0.5
				v1.3c0,0.2,0,0.3-0.1,0.5c-0.1,0.1-0.2,0.2-0.4,0.2c-0.2,0-0.3-0.1-0.4-0.2c-0.1-0.1-0.1-0.3-0.1-0.5V214.2z M401.5,215.5
				c0,0.2,0.1,0.2,0.2,0.2c0.1,0,0.1,0,0.1-0.1c0,0,0.1-0.1,0.1-0.2v-1.3c0-0.1,0-0.1-0.1-0.2c0,0-0.1-0.1-0.1-0.1
				c-0.1,0-0.2,0.1-0.2,0.2V215.5z M403.3,213.7h0.4l-1.5,3.8h-0.4L403.3,213.7z M403.1,215.7c0-0.2,0-0.3,0.1-0.5
				c0.1-0.1,0.2-0.2,0.4-0.2c0.2,0,0.3,0.1,0.4,0.2c0.1,0.1,0.1,0.3,0.1,0.5v1.3c0,0.2,0,0.3-0.1,0.5c-0.1,0.1-0.2,0.2-0.4,0.2
				c-0.2,0-0.3-0.1-0.4-0.2c-0.1-0.1-0.1-0.3-0.1-0.5V215.7z M403.4,216.9c0,0.2,0.1,0.2,0.2,0.2c0.1,0,0.1,0,0.1-0.1
				c0,0,0.1-0.1,0.1-0.2v-1.3c0-0.1,0-0.1-0.1-0.2c0,0-0.1-0.1-0.1-0.1c-0.1,0-0.2,0.1-0.2,0.2V216.9z"/>
		</g>
		<path class="st1" d="M360.3,244.4h-2.9c-0.3,0-0.5-0.2-0.5-0.5v-3c0-0.3,0.2-0.5,0.5-0.5c0.3,0,0.5,0.2,0.5,0.5v2.5h2.4
			c0.3,0,0.5,0.2,0.5,0.5C360.8,244.2,360.5,244.4,360.3,244.4z"/>
		<path class="st1" d="M357.3,244.4c-0.1,0-0.3,0-0.4-0.1c-0.2-0.2-0.2-0.5,0-0.7l3-3c0.2-0.2,0.5-0.2,0.7,0c0.2,0.2,0.2,0.5,0,0.7
			l-3,3C357.6,244.4,357.4,244.4,357.3,244.4z"/>
		<g>
			<path class="st1" d="M427.1,192.5c0.1,0,0.2,0,0.3,0s0.1-0.1,0.2-0.1c0,0,0.1-0.1,0.1-0.1c0-0.1,0-0.1,0.1-0.2h0.4v3.4h-0.5v-2.6
				h-0.4V192.5z"/>
			<path class="st1" d="M428.8,192.9c0-0.3,0.1-0.5,0.2-0.6c0.1-0.1,0.3-0.2,0.6-0.2s0.5,0.1,0.6,0.2c0.1,0.1,0.2,0.4,0.2,0.6v1.8
				c0,0.3-0.1,0.5-0.2,0.6c-0.1,0.1-0.3,0.2-0.6,0.2s-0.5-0.1-0.6-0.2c-0.1-0.1-0.2-0.4-0.2-0.6V192.9z M429.3,194.7
				c0,0.1,0,0.2,0.1,0.3c0,0.1,0.1,0.1,0.2,0.1s0.2,0,0.2-0.1c0,0,0.1-0.1,0.1-0.3v-1.8c0-0.1,0-0.2-0.1-0.3c0,0-0.1-0.1-0.2-0.1
				s-0.2,0-0.2,0.1c0,0.1-0.1,0.1-0.1,0.3V194.7z"/>
			<path class="st1" d="M430.9,192.9c0-0.3,0.1-0.5,0.2-0.6c0.1-0.1,0.3-0.2,0.6-0.2s0.5,0.1,0.6,0.2c0.1,0.1,0.2,0.4,0.2,0.6v1.8
				c0,0.3-0.1,0.5-0.2,0.6c-0.1,0.1-0.3,0.2-0.6,0.2s-0.5-0.1-0.6-0.2c-0.1-0.1-0.2-0.4-0.2-0.6V192.9z M431.5,194.7
				c0,0.1,0,0.2,0.1,0.3c0,0.1,0.1,0.1,0.2,0.1s0.2,0,0.2-0.1c0,0,0.1-0.1,0.1-0.3v-1.8c0-0.1,0-0.2-0.1-0.3c0,0-0.1-0.1-0.2-0.1
				s-0.2,0-0.2,0.1c0,0.1-0.1,0.1-0.1,0.3V194.7z"/>
		</g>
		<g>
			<path class="st1" d="M433.5,192.6c0-0.1,0-0.2,0.1-0.3c0.1-0.1,0.1-0.1,0.3-0.1s0.2,0,0.3,0.1c0.1,0.1,0.1,0.2,0.1,0.3v0.7
				c0,0.1,0,0.2-0.1,0.3c-0.1,0.1-0.1,0.1-0.3,0.1s-0.2,0-0.3-0.1c-0.1-0.1-0.1-0.2-0.1-0.3V192.6z M433.7,193.4
				c0,0.1,0,0.1,0.1,0.1c0,0,0.1,0,0.1,0c0,0,0-0.1,0-0.1v-0.8c0,0,0-0.1,0-0.1s0,0-0.1,0c-0.1,0-0.1,0-0.1,0.1V193.4z M434.8,192.3
				h0.2l-0.9,2.3h-0.2L434.8,192.3z M434.6,193.4c0-0.1,0-0.2,0.1-0.3c0.1-0.1,0.1-0.1,0.3-0.1s0.2,0,0.3,0.1
				c0.1,0.1,0.1,0.2,0.1,0.3v0.7c0,0.1,0,0.2-0.1,0.3c-0.1,0.1-0.1,0.1-0.3,0.1s-0.2,0-0.3-0.1c-0.1-0.1-0.1-0.2-0.1-0.3V193.4z
				 M434.9,194.2c0,0.1,0,0.1,0.1,0.1c0,0,0.1,0,0.1,0c0,0,0-0.1,0-0.1v-0.8c0,0,0-0.1,0-0.1s0,0-0.1,0c-0.1,0-0.1,0-0.1,0.1V194.2z
				"/>
		</g>
		<path class="st0" d="M430.8,181h-70.9c-5,0-9-4.1-9-9V152c0-5,4.1-9,9-9h70.9c5,0,9,4.1,9,9V172C439.9,176.9,435.8,181,430.8,181z
			"/>
		<g>
			<g>
				<path class="st1" d="M362,153.9C362,153.9,362,153.9,362,153.9c0-0.1,0-0.1,0-0.1s0-0.1,0-0.1c0,0,0-0.1,0-0.1v-0.4
					c0-0.1,0-0.2-0.1-0.3s-0.1-0.1-0.2-0.1h-0.2v1.2h-0.4v-2.8h0.7c0.2,0,0.4,0.1,0.5,0.2s0.2,0.3,0.2,0.5v0.2
					c0,0.3-0.1,0.5-0.3,0.6c0.1,0,0.2,0.1,0.2,0.2c0,0.1,0.1,0.2,0.1,0.4v0.4c0,0.1,0,0.1,0,0.2c0,0.1,0,0.1,0,0.2H362z
					 M361.6,151.5v0.9h0.2c0.1,0,0.1,0,0.2-0.1c0,0,0.1-0.1,0.1-0.2v-0.3c0-0.1,0-0.2-0.1-0.2c0,0-0.1-0.1-0.2-0.1H361.6z"/>
				<path class="st1" d="M363.5,152.2h0.6v0.4h-0.6v0.8h0.8v0.4h-1.2v-2.8h1.2v0.4h-0.8V152.2z"/>
				<path class="st1" d="M366.2,152.8v0.4c0,0.2-0.1,0.4-0.2,0.5s-0.3,0.2-0.5,0.2c-0.2,0-0.4-0.1-0.5-0.2s-0.2-0.3-0.2-0.5v-1.5
					c0-0.2,0.1-0.4,0.2-0.5s0.3-0.2,0.5-0.2c0.2,0,0.4,0.1,0.5,0.2s0.2,0.3,0.2,0.5v0.3h-0.4v-0.3c0-0.1,0-0.2-0.1-0.2
					s-0.1-0.1-0.2-0.1s-0.1,0-0.2,0.1s-0.1,0.1-0.1,0.2v1.5c0,0.1,0,0.2,0.1,0.2c0,0,0.1,0.1,0.2,0.1s0.1,0,0.2-0.1
					c0,0,0.1-0.1,0.1-0.2v-0.4H366.2z"/>
				<path class="st1" d="M366.8,151.1h0.4v2.8h-0.4V151.1z"/>
				<path class="st1" d="M368.5,151.1c0.2,0,0.4,0.1,0.5,0.2s0.2,0.3,0.2,0.5v0.1c0,0.1,0,0.3-0.1,0.4s-0.1,0.2-0.2,0.2
					c0.1,0,0.2,0.1,0.3,0.2c0,0.1,0.1,0.2,0.1,0.4v0.2c0,0.2-0.1,0.4-0.2,0.5c-0.1,0.1-0.3,0.2-0.5,0.2h-0.7v-2.8H368.5z
					 M368.3,151.5v0.8h0.2c0.1,0,0.1,0,0.2-0.1c0,0,0.1-0.1,0.1-0.2v-0.2c0-0.1,0-0.2-0.1-0.2c0,0-0.1-0.1-0.2-0.1H368.3z
					 M368.3,152.6v0.9h0.3c0.1,0,0.1,0,0.2-0.1c0,0,0.1-0.1,0.1-0.2V153c0-0.1,0-0.2-0.1-0.3c0,0-0.1-0.1-0.2-0.1H368.3z"/>
				<path class="st1" d="M369.8,151.1h0.4v2.8h-0.4V151.1z"/>
				<path class="st1" d="M370.9,151.1h0.7c0.2,0,0.4,0.1,0.5,0.2c0.1,0.1,0.2,0.3,0.2,0.5v1.4c0,0.2-0.1,0.4-0.2,0.5
					c-0.1,0.1-0.3,0.2-0.5,0.2h-0.7V151.1z M371.4,151.5v2h0.3c0.1,0,0.1,0,0.2-0.1c0,0,0.1-0.1,0.1-0.2v-1.5c0-0.1,0-0.2-0.1-0.2
					c0,0-0.1-0.1-0.2-0.1H371.4z"/>
				<path class="st1" d="M372.9,151.7c0-0.2,0.1-0.4,0.2-0.5s0.3-0.2,0.5-0.2s0.4,0.1,0.5,0.2s0.2,0.3,0.2,0.5v1.5
					c0,0.2-0.1,0.4-0.2,0.5s-0.3,0.2-0.5,0.2s-0.4-0.1-0.5-0.2s-0.2-0.3-0.2-0.5V151.7z M373.3,153.2c0,0.1,0,0.2,0.1,0.2
					s0.1,0.1,0.2,0.1s0.1,0,0.2-0.1s0.1-0.1,0.1-0.2v-1.5c0-0.1,0-0.2-0.1-0.2s-0.1-0.1-0.2-0.1s-0.1,0-0.2,0.1s-0.1,0.1-0.1,0.2
					V153.2z"/>
				<path class="st1" d="M374.8,151.7c0-0.2,0.1-0.4,0.2-0.5s0.3-0.2,0.5-0.2c0.2,0,0.4,0.1,0.5,0.2s0.2,0.3,0.2,0.5v0.1h-0.4v-0.1
					c0-0.1,0-0.2-0.1-0.2s-0.1-0.1-0.2-0.1s-0.1,0-0.2,0.1s-0.1,0.1-0.1,0.2c0,0.1,0,0.2,0.1,0.3s0.1,0.1,0.2,0.2
					c0.1,0.1,0.1,0.1,0.2,0.2s0.1,0.1,0.2,0.2c0.1,0.1,0.1,0.2,0.2,0.3c0,0.1,0.1,0.2,0.1,0.4c0,0.2-0.1,0.4-0.2,0.5
					s-0.3,0.2-0.5,0.2c-0.2,0-0.4-0.1-0.5-0.2s-0.2-0.3-0.2-0.5V153h0.4v0.2c0,0.1,0,0.2,0.1,0.2c0,0,0.1,0.1,0.2,0.1s0.1,0,0.2-0.1
					c0,0,0.1-0.1,0.1-0.2c0-0.1,0-0.2-0.1-0.3s-0.1-0.1-0.2-0.2s-0.1-0.1-0.2-0.2s-0.1-0.1-0.2-0.2c-0.1-0.1-0.1-0.2-0.2-0.3
					C374.8,152,374.8,151.9,374.8,151.7z"/>
			</g>
		</g>
		<g>
			<g>
				<path class="st1" d="M422.9,151.8c0-0.2,0.1-0.4,0.2-0.5c0.1-0.1,0.3-0.2,0.5-0.2c0.2,0,0.4,0.1,0.5,0.2s0.2,0.3,0.2,0.5v0.1
					h-0.4v-0.1c0-0.1,0-0.2-0.1-0.2s-0.1-0.1-0.2-0.1c-0.1,0-0.1,0-0.2,0.1c0,0-0.1,0.1-0.1,0.3v0.5c0.1-0.2,0.2-0.3,0.4-0.3
					c0.2,0,0.3,0.1,0.4,0.2c0.1,0.1,0.1,0.3,0.1,0.5v0.5c0,0.2-0.1,0.4-0.2,0.5s-0.3,0.2-0.5,0.2s-0.4-0.1-0.5-0.2
					c-0.1-0.1-0.2-0.3-0.2-0.5V151.8z M423.5,152.4c-0.1,0-0.1,0-0.2,0.1c0,0-0.1,0.1-0.1,0.2v0.5c0,0.1,0,0.2,0.1,0.2
					c0,0,0.1,0.1,0.2,0.1s0.1,0,0.2-0.1c0,0,0.1-0.1,0.1-0.2v-0.5c0-0.1,0-0.2-0.1-0.2C423.7,152.5,423.6,152.4,423.5,152.4z"/>
				<path class="st1" d="M426,151.1v0.4l-0.7,2.4h-0.4l0.7-2.4h-0.9v-0.4H426z"/>
				<path class="st1" d="M426.4,151.5c0-0.1,0-0.3,0.1-0.3c0.1-0.1,0.2-0.1,0.3-0.1s0.2,0,0.3,0.1c0.1,0.1,0.1,0.2,0.1,0.3v0.9
					c0,0.1,0,0.3-0.1,0.3c-0.1,0.1-0.2,0.1-0.3,0.1s-0.2,0-0.3-0.1c-0.1-0.1-0.1-0.2-0.1-0.3V151.5z M426.7,152.4
					c0,0.1,0,0.2,0.1,0.2c0,0,0.1,0,0.1,0s0-0.1,0-0.1v-1c0-0.1,0-0.1,0-0.1s-0.1,0-0.1,0c-0.1,0-0.1,0.1-0.1,0.2V152.4z
					 M427.9,151.1h0.3l-1.1,2.8h-0.3L427.9,151.1z M427.8,152.5c0-0.1,0-0.3,0.1-0.3c0.1-0.1,0.2-0.1,0.3-0.1s0.2,0,0.3,0.1
					c0.1,0.1,0.1,0.2,0.1,0.3v0.9c0,0.1,0,0.3-0.1,0.3c-0.1,0.1-0.2,0.1-0.3,0.1s-0.2,0-0.3-0.1c-0.1-0.1-0.1-0.2-0.1-0.3V152.5z
					 M428.1,153.5c0,0.1,0,0.2,0.1,0.2c0,0,0.1,0,0.1,0c0,0,0-0.1,0-0.1v-1c0-0.1,0-0.1,0-0.1c0,0-0.1,0-0.1,0
					c-0.1,0-0.1,0.1-0.1,0.2V153.5z"/>
			</g>
		</g>
		<g>
			<g>
				<path class="st1" d="M423.7,164.4c0-0.1,0-0.2-0.1-0.3c0,0-0.1-0.1-0.2-0.1c-0.1,0-0.1,0-0.2,0.1s-0.1,0.1-0.1,0.2v0.2h-0.4
					v-0.2c0-0.2,0.1-0.4,0.2-0.5c0.1-0.1,0.3-0.2,0.5-0.2s0.4,0.1,0.5,0.2c0.1,0.1,0.2,0.3,0.2,0.5v0.1c0,0.3-0.1,0.5-0.3,0.6
					c0.1,0,0.2,0.1,0.2,0.2c0,0.1,0.1,0.2,0.1,0.4v0.2c0,0.2-0.1,0.4-0.2,0.5c-0.1,0.1-0.3,0.2-0.5,0.2s-0.4-0.1-0.5-0.2
					c-0.1-0.1-0.2-0.3-0.2-0.5v-0.2h0.4v0.3c0,0.1,0,0.2,0.1,0.2s0.1,0.1,0.2,0.1c0.1,0,0.1,0,0.2-0.1c0,0,0.1-0.1,0.1-0.3v-0.2
					c0-0.1,0-0.2-0.1-0.3c0-0.1-0.1-0.1-0.2-0.1h-0.1v-0.4h0.2c0.1,0,0.1,0,0.2-0.1c0,0,0.1-0.1,0.1-0.2V164.4z"/>
				<path class="st1" d="M425,165.6v0.3c0,0.1,0,0.2,0.1,0.2c0,0,0.1,0.1,0.2,0.1s0.1,0,0.2-0.1c0,0,0.1-0.1,0.1-0.2v-0.6
					c0-0.1,0-0.2-0.1-0.2s-0.1-0.1-0.2-0.1s-0.1,0-0.2,0.1s-0.1,0.1-0.1,0.2v0.1h-0.4l0.1-1.6h1.2v0.4h-0.8l0,0.7
					c0.1-0.1,0.2-0.2,0.4-0.2c0.2,0,0.3,0.1,0.4,0.2c0.1,0.1,0.1,0.3,0.1,0.5v0.6c0,0.2-0.1,0.4-0.2,0.5s-0.3,0.2-0.5,0.2
					s-0.4-0.1-0.5-0.2c-0.1-0.1-0.2-0.3-0.2-0.5v-0.2H425z"/>
				<path class="st1" d="M426.4,164.1c0-0.1,0-0.3,0.1-0.3c0.1-0.1,0.2-0.1,0.3-0.1s0.2,0,0.3,0.1c0.1,0.1,0.1,0.2,0.1,0.3v0.9
					c0,0.1,0,0.3-0.1,0.3c-0.1,0.1-0.2,0.1-0.3,0.1s-0.2,0-0.3-0.1c-0.1-0.1-0.1-0.2-0.1-0.3V164.1z M426.7,165.1
					c0,0.1,0,0.2,0.1,0.2c0,0,0.1,0,0.1,0s0-0.1,0-0.1v-1c0-0.1,0-0.1,0-0.1s-0.1,0-0.1,0c-0.1,0-0.1,0.1-0.1,0.2V165.1z
					 M427.9,163.7h0.3l-1.1,2.8h-0.3L427.9,163.7z M427.8,165.1c0-0.1,0-0.3,0.1-0.3c0.1-0.1,0.2-0.1,0.3-0.1s0.2,0,0.3,0.1
					c0.1,0.1,0.1,0.2,0.1,0.3v0.9c0,0.1,0,0.3-0.1,0.3c-0.1,0.1-0.2,0.1-0.3,0.1s-0.2,0-0.3-0.1c-0.1-0.1-0.1-0.2-0.1-0.3V165.1z
					 M428.1,166.1c0,0.1,0,0.2,0.1,0.2c0,0,0.1,0,0.1,0c0,0,0-0.1,0-0.1v-1c0-0.1,0-0.1,0-0.1c0,0-0.1,0-0.1,0
					c-0.1,0-0.1,0.1-0.1,0.2V166.1z"/>
			</g>
		</g>
		<path class="st13" d="M362,156c-0.6,0-1.1,0.5-1.1,1.1c0,0.6,0.5,1.1,1.1,1.1h42.5V156H362z"/>
		<path class="st14" d="M428,156h-23.5v2.1H428c0.6,0,1.1-0.5,1.1-1.1C429,156.5,428.6,156,428,156z"/>
		<g>
			<g>
				<path class="st1" d="M361.6,164.9h0.6v0.4h-0.6v0.8h0.8v0.4h-1.2v-2.8h1.2v0.4h-0.8V164.9z"/>
				<path class="st1" d="M363.3,164.4v2.1h-0.4v-2.8h0.6l0.5,1.7v-1.7h0.4v2.8h-0.5L363.3,164.4z"/>
				<path class="st1" d="M365.7,166l0.3-2.3h0.4l-0.4,2.8h-0.7l-0.4-2.8h0.4L365.7,166z"/>
				<path class="st1" d="M366.9,163.7h0.4v2.8h-0.4V163.7z"/>
				<path class="st1" d="M369.5,166.5H369l-0.1-0.5h-0.5l-0.1,0.5h-0.4l0.5-2.8h0.7L369.5,166.5z M368.5,165.6h0.4l-0.2-1.4
					L368.5,165.6z"/>
				<path class="st1" d="M370,163.7h0.7c0.2,0,0.4,0.1,0.5,0.2c0.1,0.1,0.2,0.3,0.2,0.5v1.4c0,0.2-0.1,0.4-0.2,0.5
					c-0.1,0.1-0.3,0.2-0.5,0.2H370V163.7z M370.5,164.1v2h0.3c0.1,0,0.1,0,0.2-0.1c0,0,0.1-0.1,0.1-0.2v-1.5c0-0.1,0-0.2-0.1-0.2
					c0,0-0.1-0.1-0.2-0.1H370.5z"/>
				<path class="st1" d="M372,164.3c0-0.2,0.1-0.4,0.2-0.5s0.3-0.2,0.5-0.2s0.4,0.1,0.5,0.2s0.2,0.3,0.2,0.5v1.5
					c0,0.2-0.1,0.4-0.2,0.5s-0.3,0.2-0.5,0.2s-0.4-0.1-0.5-0.2s-0.2-0.3-0.2-0.5V164.3z M372.4,165.9c0,0.1,0,0.2,0.1,0.2
					s0.1,0.1,0.2,0.1s0.1,0,0.2-0.1s0.1-0.1,0.1-0.2v-1.5c0-0.1,0-0.2-0.1-0.2s-0.1-0.1-0.2-0.1s-0.1,0-0.2,0.1s-0.1,0.1-0.1,0.2
					V165.9z"/>
				<path class="st1" d="M373.9,164.3c0-0.2,0.1-0.4,0.2-0.5s0.3-0.2,0.5-0.2c0.2,0,0.4,0.1,0.5,0.2s0.2,0.3,0.2,0.5v0.1h-0.4v-0.1
					c0-0.1,0-0.2-0.1-0.2s-0.1-0.1-0.2-0.1s-0.1,0-0.2,0.1s-0.1,0.1-0.1,0.2c0,0.1,0,0.2,0.1,0.3s0.1,0.1,0.2,0.2
					c0.1,0.1,0.1,0.1,0.2,0.2s0.1,0.1,0.2,0.2c0.1,0.1,0.1,0.2,0.2,0.3c0,0.1,0.1,0.2,0.1,0.4c0,0.2-0.1,0.4-0.2,0.5
					s-0.3,0.2-0.5,0.2c-0.2,0-0.4-0.1-0.5-0.2s-0.2-0.3-0.2-0.5v-0.2h0.4v0.2c0,0.1,0,0.2,0.1,0.2c0,0,0.1,0.1,0.2,0.1
					s0.1,0,0.2-0.1c0,0,0.1-0.1,0.1-0.2c0-0.1,0-0.2-0.1-0.3s-0.1-0.1-0.2-0.2s-0.1-0.1-0.2-0.2s-0.1-0.1-0.2-0.2
					c-0.1-0.1-0.1-0.2-0.2-0.3C373.9,164.6,373.9,164.5,373.9,164.3z"/>
			</g>
		</g>
		<path class="st1" d="M362,168.6c-0.6,0-1.1,0.5-1.1,1.1c0,0.6,0.5,1.1,1.1,1.1h22.9v-2.1H362z"/>
		<path class="st14" d="M428,168.6h-43.1v2.1H428c0.6,0,1.1-0.5,1.1-1.1C429,169.1,428.6,168.6,428,168.6z"/>
		<linearGradient id="SVGID_2_" gradientUnits="userSpaceOnUse" x1="246.8728" y1="196" x2="345.8728" y2="196">
			<stop  offset="0" style="stop-color:#FC80A7"/>
			<stop  offset="1" style="stop-color:#FC9383"/>
		</linearGradient>
		<path class="st15" d="M336.8,250h-80.9c-5,0-9-4.1-9-9V151c0-5,4.1-9,9-9h80.9c5,0,9,4.1,9,9V241C345.9,245.9,341.8,250,336.8,250
			z"/>
		<path class="st1" d="M297.2,198.3c-0.1,0-0.2-0.1-0.3-0.2c0-0.1,0.1-0.3,0.2-0.3c0.3,0,0.7,0,1-0.1c0.1,0,0.3,0.1,0.3,0.2
			c0,0.1-0.1,0.3-0.2,0.3C297.9,198.3,297.6,198.3,297.2,198.3C297.2,198.3,297.2,198.3,297.2,198.3z M294.7,198.3
			C294.7,198.3,294.7,198.3,294.7,198.3c-0.4,0-0.7-0.1-1-0.1c-0.1,0-0.2-0.1-0.2-0.3c0-0.1,0.1-0.2,0.3-0.2c0.3,0,0.7,0.1,1,0.1
			c0.1,0,0.2,0.1,0.2,0.3C294.9,198.2,294.8,198.3,294.7,198.3z M300.7,197.9c-0.1,0-0.2-0.1-0.2-0.2c0-0.1,0.1-0.3,0.2-0.3
			c0.3-0.1,0.6-0.1,1-0.2c0.1,0,0.3,0,0.3,0.2c0,0.1,0,0.3-0.2,0.3C301.4,197.8,301.1,197.8,300.7,197.9
			C300.7,197.9,300.7,197.9,300.7,197.9z M291.2,197.7C291.2,197.7,291.2,197.7,291.2,197.7c-0.4-0.1-0.7-0.2-1-0.3
			c-0.1,0-0.2-0.2-0.2-0.3c0-0.1,0.2-0.2,0.3-0.2c0.3,0.1,0.6,0.2,1,0.3c0.1,0,0.2,0.2,0.2,0.3C291.4,197.6,291.3,197.7,291.2,197.7
			z M304.1,196.9c-0.1,0-0.2-0.1-0.2-0.2c0-0.1,0-0.3,0.1-0.3c0.3-0.1,0.6-0.2,0.9-0.4c0.1-0.1,0.3,0,0.3,0.1s0,0.3-0.1,0.3
			C304.8,196.7,304.5,196.8,304.1,196.9C304.1,196.9,304.1,196.9,304.1,196.9z M287.9,196.6C287.9,196.6,287.8,196.6,287.9,196.6
			c-0.4-0.2-0.7-0.3-1-0.4c-0.1-0.1-0.2-0.2-0.1-0.3c0.1-0.1,0.2-0.2,0.3-0.1c0.3,0.1,0.6,0.3,0.9,0.4c0.1,0.1,0.2,0.2,0.1,0.3
			C288.1,196.5,288,196.6,287.9,196.6z M307.2,195.4c-0.1,0-0.2,0-0.2-0.1c-0.1-0.1,0-0.3,0.1-0.3c0.3-0.2,0.6-0.3,0.8-0.5
			c0.1-0.1,0.3,0,0.3,0.1c0.1,0.1,0,0.3-0.1,0.3c-0.3,0.2-0.6,0.4-0.9,0.5C307.3,195.4,307.2,195.4,307.2,195.4z M284.8,194.9
			c0,0-0.1,0-0.1,0c-0.3-0.2-0.6-0.4-0.8-0.6c-0.1-0.1-0.1-0.2-0.1-0.4c0.1-0.1,0.2-0.1,0.4-0.1c0.3,0.2,0.5,0.4,0.8,0.6
			c0.1,0.1,0.1,0.2,0.1,0.3C285,194.9,284.9,194.9,284.8,194.9z M310.1,193.4c-0.1,0-0.1,0-0.2-0.1c-0.1-0.1-0.1-0.3,0-0.4
			c0.3-0.2,0.5-0.4,0.7-0.7c0.1-0.1,0.3-0.1,0.4,0c0.1,0.1,0.1,0.3,0,0.4c-0.2,0.2-0.5,0.5-0.8,0.7
			C310.2,193.4,310.1,193.4,310.1,193.4z M282,192.8c-0.1,0-0.1,0-0.2-0.1c-0.2-0.2-0.5-0.5-0.7-0.7c-0.1-0.1-0.1-0.3,0-0.4
			c0.1-0.1,0.3-0.1,0.4,0c0.2,0.2,0.5,0.5,0.7,0.7c0.1,0.1,0.1,0.3,0,0.4C282.2,192.7,282.1,192.8,282,192.8z M312.6,190.9
			c-0.1,0-0.1,0-0.2-0.1c-0.1-0.1-0.1-0.2,0-0.4c0.2-0.2,0.4-0.5,0.6-0.8c0.1-0.1,0.2-0.1,0.4,0c0.1,0.1,0.1,0.2,0,0.4
			c-0.2,0.3-0.4,0.5-0.6,0.8C312.7,190.9,312.6,190.9,312.6,190.9z M279.7,190.2c-0.1,0-0.1,0-0.2-0.1c-0.2-0.3-0.4-0.5-0.6-0.8
			c-0.1-0.1-0.1-0.3,0.1-0.3c0.1-0.1,0.3-0.1,0.3,0.1c0.2,0.3,0.4,0.5,0.6,0.8c0.1,0.1,0.1,0.3,0,0.4
			C279.8,190.2,279.7,190.2,279.7,190.2z M314.6,188.1c0,0-0.1,0-0.1,0c-0.1-0.1-0.2-0.2-0.1-0.3c0.2-0.3,0.3-0.6,0.5-0.9
			c0.1-0.1,0.2-0.2,0.3-0.1s0.2,0.2,0.1,0.3c-0.2,0.3-0.3,0.6-0.5,0.9C314.8,188,314.7,188.1,314.6,188.1z M277.7,187.3
			c-0.1,0-0.2,0-0.2-0.1c-0.2-0.3-0.3-0.6-0.5-0.9c-0.1-0.1,0-0.3,0.1-0.3c0.1-0.1,0.3,0,0.3,0.1c0.1,0.3,0.3,0.6,0.5,0.9
			c0.1,0.1,0,0.3-0.1,0.3C277.8,187.3,277.8,187.3,277.7,187.3z M316.2,184.9C316.1,184.9,316.1,184.9,316.2,184.9
			c-0.2-0.1-0.3-0.2-0.2-0.3c0.1-0.3,0.2-0.6,0.3-0.9c0-0.1,0.2-0.2,0.3-0.2c0.1,0,0.2,0.2,0.2,0.3c-0.1,0.3-0.2,0.6-0.4,1
			C316.4,184.9,316.3,184.9,316.2,184.9z M276.3,184.1c-0.1,0-0.2-0.1-0.2-0.2c-0.1-0.3-0.2-0.6-0.3-1c0-0.1,0-0.3,0.2-0.3
			c0.1,0,0.3,0,0.3,0.2c0.1,0.3,0.2,0.6,0.3,0.9C276.6,183.9,276.5,184,276.3,184.1C276.4,184.1,276.3,184.1,276.3,184.1z
			 M317.2,181.6C317.2,181.6,317.2,181.6,317.2,181.6c-0.2,0-0.3-0.2-0.2-0.3c0.1-0.3,0.1-0.6,0.2-1c0-0.1,0.2-0.2,0.3-0.2
			c0.1,0,0.2,0.2,0.2,0.3c-0.1,0.3-0.1,0.7-0.2,1C317.4,181.5,317.3,181.6,317.2,181.6z M275.4,180.7c-0.1,0-0.2-0.1-0.2-0.2
			c-0.1-0.3-0.1-0.7-0.1-1c0-0.1,0.1-0.3,0.2-0.3c0.1,0,0.3,0.1,0.3,0.2c0,0.3,0.1,0.7,0.1,1C275.7,180.5,275.6,180.6,275.4,180.7
			C275.5,180.7,275.4,180.7,275.4,180.7z M317.6,178.1C317.6,178.1,317.6,178.1,317.6,178.1c-0.2,0-0.3-0.1-0.3-0.3c0-0.3,0-0.7,0-1
			l0-0.2c0-0.1,0.1-0.3,0.2-0.3c0,0,0,0,0,0c0.1,0,0.2,0.1,0.3,0.2l0,0.2c0,0.3,0,0.7,0,1C317.9,178,317.8,178.1,317.6,178.1z
			 M275.1,177.2c-0.1,0-0.2-0.1-0.3-0.2l0-0.1c0-0.3,0-0.6,0-0.9c0-0.1,0.1-0.2,0.3-0.2c0,0,0,0,0,0c0.1,0,0.2,0.1,0.2,0.3
			c0,0.3,0,0.6,0,0.9l0,0.1C275.4,177.1,275.3,177.2,275.1,177.2C275.1,177.2,275.1,177.2,275.1,177.2z M317.5,174.4
			c-0.1,0-0.2-0.1-0.2-0.2c0-0.3-0.1-0.7-0.1-1c0-0.1,0.1-0.3,0.2-0.3c0.1,0,0.3,0.1,0.3,0.2c0.1,0.3,0.1,0.7,0.2,1
			C317.8,174.2,317.7,174.4,317.5,174.4C317.5,174.4,317.5,174.4,317.5,174.4z M275.4,173.7C275.4,173.7,275.4,173.7,275.4,173.7
			c-0.2,0-0.3-0.2-0.2-0.3c0.1-0.3,0.1-0.7,0.2-1c0-0.1,0.2-0.2,0.3-0.2c0.1,0,0.2,0.2,0.2,0.3c-0.1,0.3-0.1,0.7-0.2,1
			C275.6,173.6,275.5,173.7,275.4,173.7z M316.8,170.9c-0.1,0-0.2-0.1-0.2-0.2c-0.1-0.3-0.2-0.6-0.3-0.9c0-0.1,0-0.3,0.2-0.3
			c0.1,0,0.3,0,0.3,0.2c0.1,0.3,0.2,0.6,0.3,1C317.1,170.8,317,170.9,316.8,170.9C316.8,170.9,316.8,170.9,316.8,170.9z
			 M276.2,170.3C276.2,170.3,276.2,170.3,276.2,170.3c-0.2-0.1-0.3-0.2-0.2-0.3c0.1-0.3,0.2-0.6,0.3-1c0.1-0.1,0.2-0.2,0.3-0.1
			c0.1,0.1,0.2,0.2,0.1,0.3c-0.1,0.3-0.2,0.6-0.3,0.9C276.4,170.2,276.4,170.3,276.2,170.3z M315.5,167.7c-0.1,0-0.2-0.1-0.2-0.1
			c-0.1-0.3-0.3-0.6-0.5-0.9c-0.1-0.1,0-0.3,0.1-0.3c0.1-0.1,0.3,0,0.3,0.1c0.2,0.3,0.3,0.6,0.5,0.9c0.1,0.1,0,0.3-0.1,0.3
			C315.6,167.7,315.5,167.7,315.5,167.7z M277.6,167c0,0-0.1,0-0.1,0c-0.1-0.1-0.2-0.2-0.1-0.3c0.2-0.3,0.3-0.6,0.5-0.9
			c0.1-0.1,0.2-0.2,0.3-0.1c0.1,0.1,0.2,0.2,0.1,0.3c-0.2,0.3-0.3,0.6-0.5,0.9C277.8,167,277.7,167,277.6,167z M313.7,164.7
			c-0.1,0-0.2,0-0.2-0.1c-0.2-0.3-0.4-0.5-0.6-0.8c-0.1-0.1-0.1-0.3,0-0.4c0.1-0.1,0.3-0.1,0.4,0c0.2,0.3,0.4,0.5,0.6,0.8
			c0.1,0.1,0.1,0.3-0.1,0.4C313.8,164.7,313.7,164.7,313.7,164.7z M279.5,164.1c-0.1,0-0.1,0-0.2-0.1c-0.1-0.1-0.1-0.2,0-0.4
			c0.2-0.3,0.4-0.5,0.6-0.8c0.1-0.1,0.2-0.1,0.4,0c0.1,0.1,0.1,0.2,0,0.4c-0.2,0.2-0.4,0.5-0.6,0.8
			C279.7,164.1,279.6,164.1,279.5,164.1z M311.4,162c-0.1,0-0.1,0-0.2-0.1c-0.2-0.2-0.5-0.5-0.7-0.7c-0.1-0.1-0.1-0.3,0-0.4
			c0.1-0.1,0.3-0.1,0.4,0c0.3,0.2,0.5,0.5,0.7,0.7c0.1,0.1,0.1,0.3,0,0.4C311.5,162,311.5,162,311.4,162z M281.9,161.5
			c-0.1,0-0.1,0-0.2-0.1c-0.1-0.1-0.1-0.3,0-0.4c0.2-0.2,0.5-0.5,0.8-0.7c0.1-0.1,0.3-0.1,0.4,0c0.1,0.1,0.1,0.3,0,0.4
			c-0.3,0.2-0.5,0.4-0.7,0.7C282,161.5,282,161.5,281.9,161.5z M308.7,159.7c-0.1,0-0.1,0-0.1,0c-0.3-0.2-0.5-0.4-0.8-0.6
			c-0.1-0.1-0.2-0.2-0.1-0.3c0.1-0.1,0.2-0.1,0.3-0.1c0.3,0.2,0.6,0.4,0.8,0.6c0.1,0.1,0.1,0.2,0.1,0.3
			C308.9,159.7,308.8,159.7,308.7,159.7z M284.7,159.3c-0.1,0-0.2,0-0.2-0.1c-0.1-0.1,0-0.3,0.1-0.3c0.3-0.2,0.6-0.4,0.9-0.5
			c0.1-0.1,0.3,0,0.3,0.1c0.1,0.1,0,0.3-0.1,0.3c-0.3,0.2-0.6,0.3-0.8,0.5C284.8,159.3,284.7,159.3,284.7,159.3z M305.7,157.9
			c0,0-0.1,0-0.1,0c-0.3-0.1-0.6-0.3-0.9-0.4c-0.1-0.1-0.2-0.2-0.1-0.3c0.1-0.1,0.2-0.2,0.3-0.1c0.3,0.1,0.6,0.3,0.9,0.4
			c0.1,0.1,0.2,0.2,0.1,0.3C305.9,157.9,305.8,157.9,305.7,157.9z M287.7,157.6c-0.1,0-0.2-0.1-0.2-0.1c-0.1-0.1,0-0.3,0.1-0.3
			c0.3-0.1,0.6-0.3,0.9-0.4c0.1-0.1,0.3,0,0.3,0.1c0.1,0.1,0,0.3-0.1,0.3c-0.3,0.1-0.6,0.2-0.9,0.4
			C287.8,157.6,287.8,157.6,287.7,157.6z M302.4,156.7C302.4,156.7,302.4,156.7,302.4,156.7c-0.4-0.1-0.7-0.2-1-0.3
			c-0.1,0-0.2-0.2-0.2-0.3c0-0.1,0.2-0.2,0.3-0.2c0.3,0.1,0.7,0.2,1,0.3c0.1,0,0.2,0.2,0.2,0.3C302.7,156.6,302.6,156.7,302.4,156.7
			z M291,156.5c-0.1,0-0.2-0.1-0.2-0.2c0-0.1,0-0.3,0.2-0.3c0.3-0.1,0.7-0.2,1-0.2c0.1,0,0.3,0.1,0.3,0.2c0,0.1-0.1,0.3-0.2,0.3
			C291.8,156.3,291.4,156.4,291,156.5C291.1,156.5,291.1,156.5,291,156.5z M299,156C299,156,299,156,299,156c-0.4,0-0.7-0.1-1-0.1
			c-0.1,0-0.2-0.1-0.2-0.3c0-0.1,0.1-0.2,0.3-0.2c0.3,0,0.7,0.1,1,0.1c0.1,0,0.2,0.1,0.2,0.3C299.2,155.9,299.1,156,299,156z
			 M294.5,155.9c-0.1,0-0.2-0.1-0.2-0.2c0-0.1,0.1-0.3,0.2-0.3c0.3,0,0.7-0.1,1-0.1c0.1,0,0.3,0.1,0.3,0.2c0,0.1-0.1,0.3-0.2,0.3
			C295.2,155.8,294.9,155.9,294.5,155.9C294.5,155.9,294.5,155.9,294.5,155.9z"/>
		<path class="st1" d="M296.4,198.5c-11.9,0-21.6-9.7-21.6-21.6c0-0.2,0.2-0.4,0.4-0.4c0.2,0,0.4,0.2,0.4,0.4
			c0,11.5,9.4,20.9,20.9,20.9c11.5,0,20.9-9.4,20.9-20.9c0-11.5-9.4-20.9-20.9-20.9c-0.2,0-0.4-0.2-0.4-0.4c0-0.2,0.2-0.4,0.4-0.4
			c11.9,0,21.6,9.7,21.6,21.6C318,188.8,308.3,198.5,296.4,198.5z"/>
		<circle class="st1" cx="275.1" cy="177.1" r="2.3"/>
		<g>
			<path class="st1" d="M289.2,178.5l3.3-7.7h2v7.7h0.9v1.6h-0.9v2.1h-1.8v-2.1h-3.5V178.5z M292.7,178.5v-4.3l-1.8,4.3H292.7z"/>
			<path class="st1" d="M300.2,173.5c0-0.5-0.1-0.9-0.3-1s-0.4-0.3-0.7-0.3s-0.5,0.1-0.7,0.3s-0.3,0.5-0.3,0.9v0.7h-1.7v-0.6
				c0-0.9,0.2-1.6,0.7-2.1c0.5-0.5,1.1-0.7,2-0.7s1.5,0.2,2,0.7c0.5,0.5,0.7,1.2,0.7,2.1v0.3c0,1.2-0.4,2-1.3,2.4
				c0.5,0.2,0.8,0.5,1,0.9c0.2,0.4,0.3,0.9,0.3,1.5v0.9c0,0.9-0.2,1.6-0.7,2.1c-0.5,0.5-1.1,0.7-2,0.7s-1.6-0.2-2-0.7
				c-0.5-0.5-0.7-1.2-0.7-2.1v-0.9h1.7v1.1c0,0.4,0.1,0.7,0.3,0.9c0.2,0.2,0.4,0.3,0.7,0.3s0.5-0.1,0.7-0.3c0.2-0.2,0.3-0.5,0.3-1
				v-0.9c0-0.5-0.1-0.9-0.3-1.1c-0.2-0.2-0.5-0.3-0.9-0.3h-0.6v-1.6h0.7c0.3,0,0.6-0.1,0.8-0.3c0.2-0.2,0.3-0.5,0.3-0.9V173.5z"/>
		</g>
		<g>
			<path class="st1" d="M303.8,171.8c0-0.2,0.1-0.4,0.2-0.5c0.1-0.1,0.3-0.2,0.5-0.2s0.4,0.1,0.5,0.2c0.1,0.1,0.2,0.3,0.2,0.5v1.4
				c0,0.2-0.1,0.4-0.2,0.5c-0.1,0.1-0.3,0.2-0.5,0.2s-0.4-0.1-0.5-0.2c-0.1-0.1-0.2-0.3-0.2-0.5V171.8z M304.2,173.2
				c0,0.2,0.1,0.3,0.2,0.3c0.1,0,0.1,0,0.2-0.1c0,0,0.1-0.1,0.1-0.2v-1.5c0-0.1,0-0.2-0.1-0.2c0,0-0.1-0.1-0.2-0.1
				c-0.1,0-0.2,0.1-0.2,0.3V173.2z M306.1,171.1h0.4l-1.7,4.3h-0.4L306.1,171.1z M305.9,173.3c0-0.2,0.1-0.4,0.2-0.5
				c0.1-0.1,0.3-0.2,0.5-0.2s0.4,0.1,0.5,0.2c0.1,0.1,0.2,0.3,0.2,0.5v1.4c0,0.2-0.1,0.4-0.2,0.5c-0.1,0.1-0.3,0.2-0.5,0.2
				s-0.4-0.1-0.5-0.2c-0.1-0.1-0.2-0.3-0.2-0.5V173.3z M306.3,174.8c0,0.2,0.1,0.3,0.2,0.3c0.1,0,0.1,0,0.2-0.1c0,0,0.1-0.1,0.1-0.2
				v-1.5c0-0.1,0-0.2-0.1-0.2c0,0-0.1-0.1-0.2-0.1c-0.1,0-0.2,0.1-0.2,0.3V174.8z"/>
		</g>
		<g>
			<path class="st1" d="M332.7,147.5c0.1,0,0.2,0,0.3,0s0.1-0.1,0.2-0.1c0,0,0.1-0.1,0.1-0.2c0-0.1,0.1-0.1,0.1-0.2h0.4v3.8h-0.6
				v-2.9h-0.5V147.5z"/>
			<path class="st1" d="M334.7,147.9c0-0.3,0.1-0.5,0.2-0.7c0.2-0.2,0.4-0.2,0.7-0.2s0.5,0.1,0.7,0.2c0.2,0.2,0.2,0.4,0.2,0.7v2
				c0,0.3-0.1,0.5-0.2,0.7s-0.4,0.2-0.7,0.2s-0.5-0.1-0.7-0.2s-0.2-0.4-0.2-0.7V147.9z M335.3,149.9c0,0.1,0,0.2,0.1,0.3
				c0.1,0.1,0.1,0.1,0.2,0.1s0.2,0,0.2-0.1c0.1-0.1,0.1-0.2,0.1-0.3v-2c0-0.1,0-0.2-0.1-0.3c-0.1-0.1-0.1-0.1-0.2-0.1
				s-0.2,0-0.2,0.1c-0.1,0.1-0.1,0.2-0.1,0.3V149.9z"/>
			<path class="st1" d="M337.1,147.9c0-0.3,0.1-0.5,0.2-0.7c0.2-0.2,0.4-0.2,0.7-0.2s0.5,0.1,0.7,0.2c0.2,0.2,0.2,0.4,0.2,0.7v2
				c0,0.3-0.1,0.5-0.2,0.7s-0.4,0.2-0.7,0.2s-0.5-0.1-0.7-0.2s-0.2-0.4-0.2-0.7V147.9z M337.6,149.9c0,0.1,0,0.2,0.1,0.3
				c0.1,0.1,0.1,0.1,0.2,0.1s0.2,0,0.2-0.1c0.1-0.1,0.1-0.2,0.1-0.3v-2c0-0.1,0-0.2-0.1-0.3c-0.1-0.1-0.1-0.1-0.2-0.1
				s-0.2,0-0.2,0.1c-0.1,0.1-0.1,0.2-0.1,0.3V149.9z"/>
		</g>
		<g>
			<path class="st1" d="M340,147.6c0-0.1,0-0.2,0.1-0.3c0.1-0.1,0.2-0.1,0.3-0.1c0.1,0,0.2,0,0.3,0.1c0.1,0.1,0.1,0.2,0.1,0.3v0.8
				c0,0.1,0,0.2-0.1,0.3c-0.1,0.1-0.2,0.1-0.3,0.1c-0.1,0-0.2,0-0.3-0.1c-0.1-0.1-0.1-0.2-0.1-0.3V147.6z M340.2,148.4
				c0,0.1,0,0.2,0.1,0.2c0,0,0.1,0,0.1,0c0,0,0-0.1,0-0.1v-0.9c0-0.1,0-0.1,0-0.1c0,0-0.1,0-0.1,0c-0.1,0-0.1,0.1-0.1,0.2V148.4z
				 M341.3,147.2h0.2l-1,2.5h-0.2L341.3,147.2z M341.2,148.5c0-0.1,0-0.2,0.1-0.3c0.1-0.1,0.2-0.1,0.3-0.1s0.2,0,0.3,0.1
				c0.1,0.1,0.1,0.2,0.1,0.3v0.8c0,0.1,0,0.2-0.1,0.3c-0.1,0.1-0.2,0.1-0.3,0.1s-0.2,0-0.3-0.1c-0.1-0.1-0.1-0.2-0.1-0.3V148.5z
				 M341.5,149.3c0,0.1,0,0.2,0.1,0.2c0,0,0.1,0,0.1,0c0,0,0-0.1,0-0.1v-0.9c0-0.1,0-0.1,0-0.1c0,0-0.1,0-0.1,0
				c-0.1,0-0.1,0.1-0.1,0.2V149.3z"/>
		</g>
		<path class="st1" d="M256.9,234.2c-0.1,0-0.1,0-0.2,0c-0.3-0.1-0.5-0.5-0.4-0.8c0.1-0.2,1.5-4.3,5.6-4.7c0.4,0,0.7-0.1,1.1-0.1
			c3.2-0.3,5.1-0.4,7.4-3.1c2.7-3.1,6.7-7.9,10.5-7.9c3.4,0,6.1,3.4,8.4,6.1c0.2,0.3,0.5,0.6,0.7,0.8c0.2,0.3,0.5,0.6,0.7,0.9
			c1.9,2.4,4,4.9,7.4,4.9c3.8,0,6-2.3,8.8-6.5l0.2-0.3c2.9-4.3,7.7-11.6,13.4-11.6c5,0,7,3,9.2,6.2c0.4,0.5,0.7,1.1,1.1,1.6
			c0.7,1,1.3,1.9,1.8,2.7c1.5,2.3,2.3,3.4,3.6,3.4c0.3,0,0.6,0.3,0.6,0.6c0,0.3-0.3,0.6-0.6,0.6c-2.1,0-3.2-1.7-4.7-3.9
			c-0.5-0.8-1.1-1.7-1.8-2.6c-0.4-0.6-0.8-1.1-1.2-1.6c-2.1-3-3.9-5.7-8.2-5.7c-5,0-9.6,6.9-12.3,11l-0.2,0.3c-3,4.5-5.5,7-9.9,7
			c-4,0-6.3-2.9-8.3-5.4c-0.2-0.3-0.5-0.6-0.7-0.8c-0.2-0.3-0.4-0.5-0.7-0.8c-2-2.5-4.6-5.7-7.4-5.7c-3.2,0-7.2,4.7-9.5,7.4
			c-2.6,3.1-5,3.3-8.2,3.5c-0.3,0-0.7,0.1-1.1,0.1c-3.3,0.3-4.5,3.8-4.5,3.8C257.4,234.1,257.2,234.2,256.9,234.2z"/>
		<circle class="st1" cx="320.3" cy="212.9" r="2.3"/>
		<path class="st16" d="M335.2,237.1h-1c-0.2,0-0.4-0.2-0.4-0.4c0-0.2,0.2-0.4,0.4-0.4h1c0.2,0,0.4,0.2,0.4,0.4
			C335.6,236.9,335.4,237.1,335.2,237.1z M331.7,237.1h-1c-0.2,0-0.4-0.2-0.4-0.4c0-0.2,0.2-0.4,0.4-0.4h1c0.2,0,0.4,0.2,0.4,0.4
			C332.1,236.9,331.9,237.1,331.7,237.1z M328.2,237.1h-1c-0.2,0-0.4-0.2-0.4-0.4c0-0.2,0.2-0.4,0.4-0.4h1c0.2,0,0.4,0.2,0.4,0.4
			C328.6,236.9,328.4,237.1,328.2,237.1z M324.7,237.1h-1c-0.2,0-0.4-0.2-0.4-0.4c0-0.2,0.2-0.4,0.4-0.4h1c0.2,0,0.4,0.2,0.4,0.4
			C325.1,236.9,324.9,237.1,324.7,237.1z M321.2,237.1h-1c-0.2,0-0.4-0.2-0.4-0.4c0-0.2,0.2-0.4,0.4-0.4h1c0.2,0,0.4,0.2,0.4,0.4
			C321.5,236.9,321.4,237.1,321.2,237.1z M317.7,237.1h-1c-0.2,0-0.4-0.2-0.4-0.4c0-0.2,0.2-0.4,0.4-0.4h1c0.2,0,0.4,0.2,0.4,0.4
			C318,236.9,317.9,237.1,317.7,237.1z M314.1,237.1h-1c-0.2,0-0.4-0.2-0.4-0.4c0-0.2,0.2-0.4,0.4-0.4h1c0.2,0,0.4,0.2,0.4,0.4
			C314.5,236.9,314.4,237.1,314.1,237.1z M310.6,237.1h-1c-0.2,0-0.4-0.2-0.4-0.4c0-0.2,0.2-0.4,0.4-0.4h1c0.2,0,0.4,0.2,0.4,0.4
			C311,236.9,310.8,237.1,310.6,237.1z M307.1,237.1h-1c-0.2,0-0.4-0.2-0.4-0.4c0-0.2,0.2-0.4,0.4-0.4h1c0.2,0,0.4,0.2,0.4,0.4
			C307.5,236.9,307.3,237.1,307.1,237.1z M303.6,237.1h-1c-0.2,0-0.4-0.2-0.4-0.4c0-0.2,0.2-0.4,0.4-0.4h1c0.2,0,0.4,0.2,0.4,0.4
			C304,236.9,303.8,237.1,303.6,237.1z M300.1,237.1h-1c-0.2,0-0.4-0.2-0.4-0.4c0-0.2,0.2-0.4,0.4-0.4h1c0.2,0,0.4,0.2,0.4,0.4
			C300.5,236.9,300.3,237.1,300.1,237.1z M296.6,237.1h-1c-0.2,0-0.4-0.2-0.4-0.4c0-0.2,0.2-0.4,0.4-0.4h1c0.2,0,0.4,0.2,0.4,0.4
			C297,236.9,296.8,237.1,296.6,237.1z M293.1,237.1h-1c-0.2,0-0.4-0.2-0.4-0.4c0-0.2,0.2-0.4,0.4-0.4h1c0.2,0,0.4,0.2,0.4,0.4
			C293.4,236.9,293.3,237.1,293.1,237.1z M289.6,237.1h-1c-0.2,0-0.4-0.2-0.4-0.4c0-0.2,0.2-0.4,0.4-0.4h1c0.2,0,0.4,0.2,0.4,0.4
			C289.9,236.9,289.8,237.1,289.6,237.1z M286,237.1h-1c-0.2,0-0.4-0.2-0.4-0.4c0-0.2,0.2-0.4,0.4-0.4h1c0.2,0,0.4,0.2,0.4,0.4
			C286.4,236.9,286.2,237.1,286,237.1z M282.5,237.1h-1c-0.2,0-0.4-0.2-0.4-0.4c0-0.2,0.2-0.4,0.4-0.4h1c0.2,0,0.4,0.2,0.4,0.4
			C282.9,236.9,282.7,237.1,282.5,237.1z M279,237.1h-1c-0.2,0-0.4-0.2-0.4-0.4c0-0.2,0.2-0.4,0.4-0.4h1c0.2,0,0.4,0.2,0.4,0.4
			C279.4,236.9,279.2,237.1,279,237.1z M275.5,237.1h-1c-0.2,0-0.4-0.2-0.4-0.4c0-0.2,0.2-0.4,0.4-0.4h1c0.2,0,0.4,0.2,0.4,0.4
			C275.9,236.9,275.7,237.1,275.5,237.1z M272,237.1h-1c-0.2,0-0.4-0.2-0.4-0.4c0-0.2,0.2-0.4,0.4-0.4h1c0.2,0,0.4,0.2,0.4,0.4
			C272.4,236.9,272.2,237.1,272,237.1z M268.5,237.1h-1c-0.2,0-0.4-0.2-0.4-0.4c0-0.2,0.2-0.4,0.4-0.4h1c0.2,0,0.4,0.2,0.4,0.4
			C268.9,236.9,268.7,237.1,268.5,237.1z M265,237.1h-1c-0.2,0-0.4-0.2-0.4-0.4c0-0.2,0.2-0.4,0.4-0.4h1c0.2,0,0.4,0.2,0.4,0.4
			C265.3,236.9,265.2,237.1,265,237.1z M261.4,237.1h-1c-0.2,0-0.4-0.2-0.4-0.4c0-0.2,0.2-0.4,0.4-0.4h1c0.2,0,0.4,0.2,0.4,0.4
			C261.8,236.9,261.7,237.1,261.4,237.1z M257.9,237.1h-1c-0.2,0-0.4-0.2-0.4-0.4c0-0.2,0.2-0.4,0.4-0.4h1c0.2,0,0.4,0.2,0.4,0.4
			C258.3,236.9,258.1,237.1,257.9,237.1z"/>
		<path class="st16" d="M335.2,227.4h-1c-0.2,0-0.4-0.2-0.4-0.4s0.2-0.4,0.4-0.4h1c0.2,0,0.4,0.2,0.4,0.4S335.4,227.4,335.2,227.4z
			 M331.7,227.4h-1c-0.2,0-0.4-0.2-0.4-0.4s0.2-0.4,0.4-0.4h1c0.2,0,0.4,0.2,0.4,0.4S331.9,227.4,331.7,227.4z M328.2,227.4h-1
			c-0.2,0-0.4-0.2-0.4-0.4s0.2-0.4,0.4-0.4h1c0.2,0,0.4,0.2,0.4,0.4S328.4,227.4,328.2,227.4z M324.7,227.4h-1
			c-0.2,0-0.4-0.2-0.4-0.4s0.2-0.4,0.4-0.4h1c0.2,0,0.4,0.2,0.4,0.4S324.9,227.4,324.7,227.4z M321.2,227.4h-1
			c-0.2,0-0.4-0.2-0.4-0.4s0.2-0.4,0.4-0.4h1c0.2,0,0.4,0.2,0.4,0.4S321.4,227.4,321.2,227.4z M317.7,227.4h-1
			c-0.2,0-0.4-0.2-0.4-0.4s0.2-0.4,0.4-0.4h1c0.2,0,0.4,0.2,0.4,0.4S317.9,227.4,317.7,227.4z M314.1,227.4h-1
			c-0.2,0-0.4-0.2-0.4-0.4s0.2-0.4,0.4-0.4h1c0.2,0,0.4,0.2,0.4,0.4S314.4,227.4,314.1,227.4z M310.6,227.4h-1
			c-0.2,0-0.4-0.2-0.4-0.4s0.2-0.4,0.4-0.4h1c0.2,0,0.4,0.2,0.4,0.4S310.8,227.4,310.6,227.4z M307.1,227.4h-1
			c-0.2,0-0.4-0.2-0.4-0.4s0.2-0.4,0.4-0.4h1c0.2,0,0.4,0.2,0.4,0.4S307.3,227.4,307.1,227.4z M303.6,227.4h-1
			c-0.2,0-0.4-0.2-0.4-0.4s0.2-0.4,0.4-0.4h1c0.2,0,0.4,0.2,0.4,0.4S303.8,227.4,303.6,227.4z M300.1,227.4h-1
			c-0.2,0-0.4-0.2-0.4-0.4s0.2-0.4,0.4-0.4h1c0.2,0,0.4,0.2,0.4,0.4S300.3,227.4,300.1,227.4z M296.6,227.4h-1
			c-0.2,0-0.4-0.2-0.4-0.4s0.2-0.4,0.4-0.4h1c0.2,0,0.4,0.2,0.4,0.4S296.8,227.4,296.6,227.4z M293.1,227.4h-1
			c-0.2,0-0.4-0.2-0.4-0.4s0.2-0.4,0.4-0.4h1c0.2,0,0.4,0.2,0.4,0.4S293.3,227.4,293.1,227.4z M289.6,227.4h-1
			c-0.2,0-0.4-0.2-0.4-0.4s0.2-0.4,0.4-0.4h1c0.2,0,0.4,0.2,0.4,0.4S289.8,227.4,289.6,227.4z M286,227.4h-1c-0.2,0-0.4-0.2-0.4-0.4
			s0.2-0.4,0.4-0.4h1c0.2,0,0.4,0.2,0.4,0.4S286.2,227.4,286,227.4z M282.5,227.4h-1c-0.2,0-0.4-0.2-0.4-0.4s0.2-0.4,0.4-0.4h1
			c0.2,0,0.4,0.2,0.4,0.4S282.7,227.4,282.5,227.4z M279,227.4h-1c-0.2,0-0.4-0.2-0.4-0.4s0.2-0.4,0.4-0.4h1c0.2,0,0.4,0.2,0.4,0.4
			S279.2,227.4,279,227.4z M275.5,227.4h-1c-0.2,0-0.4-0.2-0.4-0.4s0.2-0.4,0.4-0.4h1c0.2,0,0.4,0.2,0.4,0.4
			S275.7,227.4,275.5,227.4z M272,227.4h-1c-0.2,0-0.4-0.2-0.4-0.4s0.2-0.4,0.4-0.4h1c0.2,0,0.4,0.2,0.4,0.4S272.2,227.4,272,227.4z
			 M268.5,227.4h-1c-0.2,0-0.4-0.2-0.4-0.4s0.2-0.4,0.4-0.4h1c0.2,0,0.4,0.2,0.4,0.4S268.7,227.4,268.5,227.4z M265,227.4h-1
			c-0.2,0-0.4-0.2-0.4-0.4s0.2-0.4,0.4-0.4h1c0.2,0,0.4,0.2,0.4,0.4S265.2,227.4,265,227.4z M261.4,227.4h-1c-0.2,0-0.4-0.2-0.4-0.4
			s0.2-0.4,0.4-0.4h1c0.2,0,0.4,0.2,0.4,0.4S261.7,227.4,261.4,227.4z M257.9,227.4h-1c-0.2,0-0.4-0.2-0.4-0.4s0.2-0.4,0.4-0.4h1
			c0.2,0,0.4,0.2,0.4,0.4S258.1,227.4,257.9,227.4z"/>
		<path class="st16" d="M335.2,217.8h-1c-0.2,0-0.4-0.2-0.4-0.4c0-0.2,0.2-0.4,0.4-0.4h1c0.2,0,0.4,0.2,0.4,0.4
			C335.6,217.6,335.4,217.8,335.2,217.8z M331.7,217.8h-1c-0.2,0-0.4-0.2-0.4-0.4c0-0.2,0.2-0.4,0.4-0.4h1c0.2,0,0.4,0.2,0.4,0.4
			C332.1,217.6,331.9,217.8,331.7,217.8z M328.2,217.8h-1c-0.2,0-0.4-0.2-0.4-0.4c0-0.2,0.2-0.4,0.4-0.4h1c0.2,0,0.4,0.2,0.4,0.4
			C328.6,217.6,328.4,217.8,328.2,217.8z M324.7,217.8h-1c-0.2,0-0.4-0.2-0.4-0.4c0-0.2,0.2-0.4,0.4-0.4h1c0.2,0,0.4,0.2,0.4,0.4
			C325.1,217.6,324.9,217.8,324.7,217.8z M321.2,217.8h-1c-0.2,0-0.4-0.2-0.4-0.4c0-0.2,0.2-0.4,0.4-0.4h1c0.2,0,0.4,0.2,0.4,0.4
			C321.5,217.6,321.4,217.8,321.2,217.8z M317.7,217.8h-1c-0.2,0-0.4-0.2-0.4-0.4c0-0.2,0.2-0.4,0.4-0.4h1c0.2,0,0.4,0.2,0.4,0.4
			C318,217.6,317.9,217.8,317.7,217.8z M314.1,217.8h-1c-0.2,0-0.4-0.2-0.4-0.4c0-0.2,0.2-0.4,0.4-0.4h1c0.2,0,0.4,0.2,0.4,0.4
			C314.5,217.6,314.4,217.8,314.1,217.8z M310.6,217.8h-1c-0.2,0-0.4-0.2-0.4-0.4c0-0.2,0.2-0.4,0.4-0.4h1c0.2,0,0.4,0.2,0.4,0.4
			C311,217.6,310.8,217.8,310.6,217.8z M307.1,217.8h-1c-0.2,0-0.4-0.2-0.4-0.4c0-0.2,0.2-0.4,0.4-0.4h1c0.2,0,0.4,0.2,0.4,0.4
			C307.5,217.6,307.3,217.8,307.1,217.8z M303.6,217.8h-1c-0.2,0-0.4-0.2-0.4-0.4c0-0.2,0.2-0.4,0.4-0.4h1c0.2,0,0.4,0.2,0.4,0.4
			C304,217.6,303.8,217.8,303.6,217.8z M300.1,217.8h-1c-0.2,0-0.4-0.2-0.4-0.4c0-0.2,0.2-0.4,0.4-0.4h1c0.2,0,0.4,0.2,0.4,0.4
			C300.5,217.6,300.3,217.8,300.1,217.8z M296.6,217.8h-1c-0.2,0-0.4-0.2-0.4-0.4c0-0.2,0.2-0.4,0.4-0.4h1c0.2,0,0.4,0.2,0.4,0.4
			C297,217.6,296.8,217.8,296.6,217.8z M293.1,217.8h-1c-0.2,0-0.4-0.2-0.4-0.4c0-0.2,0.2-0.4,0.4-0.4h1c0.2,0,0.4,0.2,0.4,0.4
			C293.4,217.6,293.3,217.8,293.1,217.8z M289.6,217.8h-1c-0.2,0-0.4-0.2-0.4-0.4c0-0.2,0.2-0.4,0.4-0.4h1c0.2,0,0.4,0.2,0.4,0.4
			C289.9,217.6,289.8,217.8,289.6,217.8z M286,217.8h-1c-0.2,0-0.4-0.2-0.4-0.4c0-0.2,0.2-0.4,0.4-0.4h1c0.2,0,0.4,0.2,0.4,0.4
			C286.4,217.6,286.2,217.8,286,217.8z M282.5,217.8h-1c-0.2,0-0.4-0.2-0.4-0.4c0-0.2,0.2-0.4,0.4-0.4h1c0.2,0,0.4,0.2,0.4,0.4
			C282.9,217.6,282.7,217.8,282.5,217.8z M279,217.8h-1c-0.2,0-0.4-0.2-0.4-0.4c0-0.2,0.2-0.4,0.4-0.4h1c0.2,0,0.4,0.2,0.4,0.4
			C279.4,217.6,279.2,217.8,279,217.8z M275.5,217.8h-1c-0.2,0-0.4-0.2-0.4-0.4c0-0.2,0.2-0.4,0.4-0.4h1c0.2,0,0.4,0.2,0.4,0.4
			C275.9,217.6,275.7,217.8,275.5,217.8z M272,217.8h-1c-0.2,0-0.4-0.2-0.4-0.4c0-0.2,0.2-0.4,0.4-0.4h1c0.2,0,0.4,0.2,0.4,0.4
			C272.4,217.6,272.2,217.8,272,217.8z M268.5,217.8h-1c-0.2,0-0.4-0.2-0.4-0.4c0-0.2,0.2-0.4,0.4-0.4h1c0.2,0,0.4,0.2,0.4,0.4
			C268.9,217.6,268.7,217.8,268.5,217.8z M265,217.8h-1c-0.2,0-0.4-0.2-0.4-0.4c0-0.2,0.2-0.4,0.4-0.4h1c0.2,0,0.4,0.2,0.4,0.4
			C265.3,217.6,265.2,217.8,265,217.8z M261.4,217.8h-1c-0.2,0-0.4-0.2-0.4-0.4c0-0.2,0.2-0.4,0.4-0.4h1c0.2,0,0.4,0.2,0.4,0.4
			C261.8,217.6,261.7,217.8,261.4,217.8z M257.9,217.8h-1c-0.2,0-0.4-0.2-0.4-0.4c0-0.2,0.2-0.4,0.4-0.4h1c0.2,0,0.4,0.2,0.4,0.4
			C258.3,217.6,258.1,217.8,257.9,217.8z"/>
		<path class="st16" d="M335.2,208.2h-1c-0.2,0-0.4-0.2-0.4-0.4c0-0.2,0.2-0.4,0.4-0.4h1c0.2,0,0.4,0.2,0.4,0.4
			C335.6,208,335.4,208.2,335.2,208.2z M331.7,208.2h-1c-0.2,0-0.4-0.2-0.4-0.4c0-0.2,0.2-0.4,0.4-0.4h1c0.2,0,0.4,0.2,0.4,0.4
			C332.1,208,331.9,208.2,331.7,208.2z M328.2,208.2h-1c-0.2,0-0.4-0.2-0.4-0.4c0-0.2,0.2-0.4,0.4-0.4h1c0.2,0,0.4,0.2,0.4,0.4
			C328.6,208,328.4,208.2,328.2,208.2z M324.7,208.2h-1c-0.2,0-0.4-0.2-0.4-0.4c0-0.2,0.2-0.4,0.4-0.4h1c0.2,0,0.4,0.2,0.4,0.4
			C325.1,208,324.9,208.2,324.7,208.2z M321.2,208.2h-1c-0.2,0-0.4-0.2-0.4-0.4c0-0.2,0.2-0.4,0.4-0.4h1c0.2,0,0.4,0.2,0.4,0.4
			C321.5,208,321.4,208.2,321.2,208.2z M317.7,208.2h-1c-0.2,0-0.4-0.2-0.4-0.4c0-0.2,0.2-0.4,0.4-0.4h1c0.2,0,0.4,0.2,0.4,0.4
			C318,208,317.9,208.2,317.7,208.2z M314.1,208.2h-1c-0.2,0-0.4-0.2-0.4-0.4c0-0.2,0.2-0.4,0.4-0.4h1c0.2,0,0.4,0.2,0.4,0.4
			C314.5,208,314.4,208.2,314.1,208.2z M310.6,208.2h-1c-0.2,0-0.4-0.2-0.4-0.4c0-0.2,0.2-0.4,0.4-0.4h1c0.2,0,0.4,0.2,0.4,0.4
			C311,208,310.8,208.2,310.6,208.2z M307.1,208.2h-1c-0.2,0-0.4-0.2-0.4-0.4c0-0.2,0.2-0.4,0.4-0.4h1c0.2,0,0.4,0.2,0.4,0.4
			C307.5,208,307.3,208.2,307.1,208.2z M303.6,208.2h-1c-0.2,0-0.4-0.2-0.4-0.4c0-0.2,0.2-0.4,0.4-0.4h1c0.2,0,0.4,0.2,0.4,0.4
			C304,208,303.8,208.2,303.6,208.2z M300.1,208.2h-1c-0.2,0-0.4-0.2-0.4-0.4c0-0.2,0.2-0.4,0.4-0.4h1c0.2,0,0.4,0.2,0.4,0.4
			C300.5,208,300.3,208.2,300.1,208.2z M296.6,208.2h-1c-0.2,0-0.4-0.2-0.4-0.4c0-0.2,0.2-0.4,0.4-0.4h1c0.2,0,0.4,0.2,0.4,0.4
			C297,208,296.8,208.2,296.6,208.2z M293.1,208.2h-1c-0.2,0-0.4-0.2-0.4-0.4c0-0.2,0.2-0.4,0.4-0.4h1c0.2,0,0.4,0.2,0.4,0.4
			C293.4,208,293.3,208.2,293.1,208.2z M289.6,208.2h-1c-0.2,0-0.4-0.2-0.4-0.4c0-0.2,0.2-0.4,0.4-0.4h1c0.2,0,0.4,0.2,0.4,0.4
			C289.9,208,289.8,208.2,289.6,208.2z M286,208.2h-1c-0.2,0-0.4-0.2-0.4-0.4c0-0.2,0.2-0.4,0.4-0.4h1c0.2,0,0.4,0.2,0.4,0.4
			C286.4,208,286.2,208.2,286,208.2z M282.5,208.2h-1c-0.2,0-0.4-0.2-0.4-0.4c0-0.2,0.2-0.4,0.4-0.4h1c0.2,0,0.4,0.2,0.4,0.4
			C282.9,208,282.7,208.2,282.5,208.2z M279,208.2h-1c-0.2,0-0.4-0.2-0.4-0.4c0-0.2,0.2-0.4,0.4-0.4h1c0.2,0,0.4,0.2,0.4,0.4
			C279.4,208,279.2,208.2,279,208.2z M275.5,208.2h-1c-0.2,0-0.4-0.2-0.4-0.4c0-0.2,0.2-0.4,0.4-0.4h1c0.2,0,0.4,0.2,0.4,0.4
			C275.9,208,275.7,208.2,275.5,208.2z M272,208.2h-1c-0.2,0-0.4-0.2-0.4-0.4c0-0.2,0.2-0.4,0.4-0.4h1c0.2,0,0.4,0.2,0.4,0.4
			C272.4,208,272.2,208.2,272,208.2z M268.5,208.2h-1c-0.2,0-0.4-0.2-0.4-0.4c0-0.2,0.2-0.4,0.4-0.4h1c0.2,0,0.4,0.2,0.4,0.4
			C268.9,208,268.7,208.2,268.5,208.2z M265,208.2h-1c-0.2,0-0.4-0.2-0.4-0.4c0-0.2,0.2-0.4,0.4-0.4h1c0.2,0,0.4,0.2,0.4,0.4
			C265.3,208,265.2,208.2,265,208.2z M261.4,208.2h-1c-0.2,0-0.4-0.2-0.4-0.4c0-0.2,0.2-0.4,0.4-0.4h1c0.2,0,0.4,0.2,0.4,0.4
			C261.8,208,261.7,208.2,261.4,208.2z M257.9,208.2h-1c-0.2,0-0.4-0.2-0.4-0.4c0-0.2,0.2-0.4,0.4-0.4h1c0.2,0,0.4,0.2,0.4,0.4
			C258.3,208,258.1,208.2,257.9,208.2z"/>
		<rect x="162.9" y="76" class="st5" width="316" height="18"/>
		<circle class="st4" cx="463.9" cy="85" r="5"/>
		<path class="st4" d="M169,80.6c-0.5,0.6-0.8,1.3-0.8,2.1v3.8c0,1.2,0.6,2.2,1.6,2.7V81L169,80.6z"/>
		<path class="st1" d="M176.9,84.6l-7.2-3.6v8.2c0.5,0.3,1,0.4,1.5,0.4h11.2c0.6,0,1.1-0.2,1.5-0.4V81L176.9,84.6z"/>
		<path class="st4" d="M184.8,80.6L184,81v8.2c0.9-0.5,1.6-1.5,1.6-2.7v-3.8C185.6,81.9,185.3,81.2,184.8,80.6z"/>
		<path class="st4" d="M184.8,80.6L184.8,80.6c-0.6-0.6-1.4-1-2.3-1h-11.2c-0.9,0-1.7,0.4-2.3,1l7.9,4L184.8,80.6z"/>
		<path class="st17" d="M441.7,83h-0.6c-0.7,0-1.2-0.5-1.2-1.2v-0.6c0-0.7,0.5-1.2,1.2-1.2h0.6c0.7,0,1.2,0.5,1.2,1.2v0.6
			C442.9,82.5,442.3,83,441.7,83z"/>
		<path class="st17" d="M445.7,83h-0.6c-0.7,0-1.2-0.5-1.2-1.2v-0.6c0-0.7,0.5-1.2,1.2-1.2h0.6c0.7,0,1.2,0.5,1.2,1.2v0.6
			C446.9,82.5,446.3,83,445.7,83z"/>
		<path class="st17" d="M449.7,83h-0.6c-0.7,0-1.2-0.5-1.2-1.2v-0.6c0-0.7,0.5-1.2,1.2-1.2h0.6c0.7,0,1.2,0.5,1.2,1.2v0.6
			C450.9,82.5,450.3,83,449.7,83z"/>
		<path class="st17" d="M441.7,87h-0.6c-0.7,0-1.2-0.5-1.2-1.2v-0.6c0-0.7,0.5-1.2,1.2-1.2h0.6c0.7,0,1.2,0.5,1.2,1.2v0.6
			C442.9,86.5,442.3,87,441.7,87z"/>
		<path class="st17" d="M445.7,87h-0.6c-0.7,0-1.2-0.5-1.2-1.2v-0.6c0-0.7,0.5-1.2,1.2-1.2h0.6c0.7,0,1.2,0.5,1.2,1.2v0.6
			C446.9,86.5,446.3,87,445.7,87z"/>
		<path class="st17" d="M449.7,87h-0.6c-0.7,0-1.2-0.5-1.2-1.2v-0.6c0-0.7,0.5-1.2,1.2-1.2h0.6c0.7,0,1.2,0.5,1.2,1.2v0.6
			C450.9,86.5,450.3,87,449.7,87z"/>
		<path class="st17" d="M441.7,91h-0.6c-0.7,0-1.2-0.5-1.2-1.2v-0.6c0-0.7,0.5-1.2,1.2-1.2h0.6c0.7,0,1.2,0.5,1.2,1.2v0.6
			C442.9,90.5,442.3,91,441.7,91z"/>
		<path class="st17" d="M445.7,91h-0.6c-0.7,0-1.2-0.5-1.2-1.2v-0.6c0-0.7,0.5-1.2,1.2-1.2h0.6c0.7,0,1.2,0.5,1.2,1.2v0.6
			C446.9,90.5,446.3,91,445.7,91z"/>
		<path class="st17" d="M449.7,91h-0.6c-0.7,0-1.2-0.5-1.2-1.2v-0.6c0-0.7,0.5-1.2,1.2-1.2h0.6c0.7,0,1.2,0.5,1.2,1.2v0.6
			C450.9,90.5,450.3,91,449.7,91z"/>
		<path class="st18" d="M225.9,115h-45c-3.9,0-7-3.1-7-7v-1c0-3.9,3.1-7,7-7h45c3.9,0,7,3.1,7,7v1C232.9,111.9,229.7,115,225.9,115z
			"/>
		<g>
			<path class="st1" d="M195.6,105.9c0-0.5,0.1-0.9,0.4-1.1s0.6-0.4,1.1-0.4c0.5,0,0.8,0.1,1.1,0.4c0.2,0.3,0.4,0.6,0.4,1.1v0.2
				h-0.9v-0.3c0-0.2,0-0.4-0.1-0.5c-0.1-0.1-0.2-0.1-0.4-0.1s-0.3,0-0.4,0.1c-0.1,0.1-0.1,0.2-0.1,0.5c0,0.2,0,0.4,0.1,0.6
				s0.2,0.3,0.4,0.5s0.3,0.3,0.5,0.4s0.3,0.3,0.5,0.5s0.3,0.4,0.4,0.6s0.1,0.5,0.1,0.8c0,0.5-0.1,0.9-0.4,1.1
				c-0.2,0.3-0.6,0.4-1.1,0.4c-0.5,0-0.8-0.1-1.1-0.4s-0.4-0.6-0.4-1.1v-0.4h0.9v0.4c0,0.2,0,0.4,0.1,0.5c0.1,0.1,0.2,0.1,0.4,0.1
				s0.3,0,0.4-0.1s0.1-0.2,0.1-0.5c0-0.2,0-0.4-0.1-0.6c-0.1-0.2-0.2-0.3-0.4-0.5s-0.3-0.3-0.5-0.4c-0.2-0.1-0.3-0.3-0.5-0.5
				c-0.1-0.2-0.3-0.4-0.4-0.6S195.6,106.2,195.6,105.9z"/>
			<path class="st1" d="M200.3,107h1.3v0.9h-1.3v1.8h1.7v0.9h-2.6v-6.1h2.6v0.9h-1.7V107z"/>
			<path class="st1" d="M203.8,106.1v4.5h-0.9v-6.1h1.2l1,3.7v-3.7h0.9v6.1h-1L203.8,106.1z"/>
			<path class="st1" d="M207,104.4h1.5c0.5,0,0.8,0.1,1.1,0.4c0.2,0.3,0.4,0.6,0.4,1.1v3.1c0,0.5-0.1,0.9-0.4,1.1
				c-0.2,0.3-0.6,0.4-1.1,0.4H207V104.4z M208,105.3v4.4h0.5c0.2,0,0.3,0,0.4-0.1s0.1-0.2,0.1-0.5v-3.2c0-0.2,0-0.4-0.1-0.5
				s-0.2-0.1-0.4-0.1H208z"/>
		</g>
		<path class="st2" d="M226.1,136.6h-44.9c-3.9,0-7-3.1-7-7v-1.3c0-3.9,3.1-7,7-7h44.9c3.9,0,7,3.1,7,7v1.3
			C233.1,133.5,230,136.6,226.1,136.6z"/>
		<path class="st2" d="M225.6,261.4h-43.9c-4.1,0-7.5-3.4-7.5-7.5v-33c0-4.1,3.4-7.5,7.5-7.5h43.9c4.1,0,7.5,3.4,7.5,7.5v33
			C233.1,258.1,229.8,261.4,225.6,261.4z"/>
		<path class="st2" d="M226.1,155.1h-44.9c-3.9,0-7-3.1-7-7v-1.3c0-3.9,3.1-7,7-7h44.9c3.9,0,7,3.1,7,7v1.3
			C233.1,151.9,230,155.1,226.1,155.1z"/>
		<path class="st2" d="M226.1,173.5h-44.9c-3.9,0-7-3.1-7-7v-1.3c0-3.9,3.1-7,7-7h44.9c3.9,0,7,3.1,7,7v1.3
			C233.1,170.4,230,173.5,226.1,173.5z"/>
		<path class="st2" d="M226.1,191.9h-44.9c-3.9,0-7-3.1-7-7v-1.3c0-3.9,3.1-7,7-7h44.9c3.9,0,7,3.1,7,7v1.3
			C233.1,188.8,230,191.9,226.1,191.9z"/>
		<path class="st2" d="M226.1,210.3h-44.9c-3.9,0-7-3.1-7-7V202c0-3.9,3.1-7,7-7h44.9c3.9,0,7,3.1,7,7v1.3
			C233.1,207.2,230,210.3,226.1,210.3z"/>
		<path class="st8" d="M180.6,125.9c1.5,0,2.8,1.3,2.8,2.8c0,1.5-1.3,2.8-2.8,2.8s-2.8-1.3-2.8-2.8
			C177.8,127.1,179.1,125.9,180.6,125.9 M180.6,125.4c-1.8,0-3.3,1.5-3.3,3.3c0,1.8,1.5,3.3,3.3,3.3s3.3-1.5,3.3-3.3
			C183.9,126.9,182.4,125.4,180.6,125.4L180.6,125.4z"/>
		<path class="st19" d="M180.6,144.3c1.5,0,2.8,1.3,2.8,2.8c0,1.5-1.3,2.8-2.8,2.8s-2.8-1.3-2.8-2.8
			C177.8,145.5,179.1,144.3,180.6,144.3 M180.6,143.8c-1.8,0-3.3,1.5-3.3,3.3s1.5,3.3,3.3,3.3s3.3-1.5,3.3-3.3
			S182.4,143.8,180.6,143.8L180.6,143.8z"/>
		<path class="st20" d="M180.6,162.4c1.5,0,2.8,1.3,2.8,2.8c0,1.5-1.3,2.8-2.8,2.8s-2.8-1.3-2.8-2.8
			C177.8,163.7,179.1,162.4,180.6,162.4 M180.6,161.9c-1.8,0-3.3,1.5-3.3,3.3c0,1.8,1.5,3.3,3.3,3.3s3.3-1.5,3.3-3.3
			C183.9,163.4,182.4,161.9,180.6,161.9L180.6,161.9z"/>
		<path class="st8" d="M180.6,181.3c1.5,0,2.8,1.3,2.8,2.8s-1.3,2.8-2.8,2.8s-2.8-1.3-2.8-2.8S179.1,181.3,180.6,181.3 M180.6,180.8
			c-1.8,0-3.3,1.5-3.3,3.3c0,1.8,1.5,3.3,3.3,3.3s3.3-1.5,3.3-3.3C183.9,182.3,182.4,180.8,180.6,180.8L180.6,180.8z"/>
		<path class="st19" d="M180.6,199.8c1.5,0,2.8,1.3,2.8,2.8c0,1.5-1.3,2.8-2.8,2.8s-2.8-1.3-2.8-2.8
			C177.8,201,179.1,199.8,180.6,199.8 M180.6,199.3c-1.8,0-3.3,1.5-3.3,3.3s1.5,3.3,3.3,3.3s3.3-1.5,3.3-3.3
			S182.4,199.3,180.6,199.3L180.6,199.3z"/>
		<g>
			<path class="st5" d="M124,125.1l15.7-11.9c2.2-1.7,5.2-1.7,7.4,0l1.4,1.1L124,125.1z"/>
			<path class="st21" d="M142,121.9l0.5-2.7c0.2-0.4,0.4-0.8,0.6-1.2c0.4-0.8,0.9-1.5,1.6-2.1c0.9-0.8,1.9-1.4,3-1.7
				c1.4-0.7,2.8-1.2,4.2-1.5c1.8-0.3,3.9-0.6,6.1-1.1c3.5-0.7,7.4-1.6,11.4-2.9c13.5-4.4,18.7-5.9,20.1-2.3c1.4,3.6-0.8,4.6-3.6,5.9
				c-1.4,0.7-13.3,6.8-24.7,12.7l-6.3,2.2c-1.5,1.3-3.5,2-5.4,1.9l-1.1,0.4C148.4,129.4,142,127,142,121.9z"/>
			<path class="st21" d="M86.2,153.6l37.9-28.6l7-3l9.7-4.4l4.6-2.3c0.6-0.4,1.2-0.7,2-1c4-1.3,8.3,0.8,9.6,4.8
				c1.2,3.7-0.5,7.6-4,9.2l0.1,0.2l-13,6.2c0,0-7.8,5.3-0.8,15c7,9.7,16.1,3.7,16.1,3.7s14.8-12.2,17.1-13.4c2.2-1.2,5.2-1.6,6.2,0
				c1,1.5,3,3.7-1,7.4c-3.1,2.9-10.2,15.2-13.1,20.5c-1,1.8-2.6,3.1-4.6,3.6c-6.2,1.6-18.9,3.5-31,5.1c-18.2,2.4-34.4,13-44,28.7
				l-33.1,54.3L30,194L86.2,153.6z"/>
			<polygon class="st11" points="66.1,168 95.4,202.4 51.9,261 30,194 			"/>
		</g>
	</g>
	<path class="st19" d="M22.2,84h17.1c4.9,0,9.4,2.6,11.8,6.8l8.6,14.8c2.4,4.2,2.4,9.4,0,13.7l-8.6,14.8c-2.4,4.2-6.9,6.8-11.8,6.8
		H22.2c-4.9,0-9.4-2.6-11.8-6.8l-8.6-14.8c-2.4-4.2-2.4-9.4,0-13.7l8.6-14.8C12.8,86.6,17.3,84,22.2,84z"/>
	<path class="st6" d="M395.6,0L406,0c2.1,0,4.1,1.1,5.2,3l5.2,9c1.1,1.8,1.1,4.1,0,6l-5.2,9c-1.1,1.8-3,3-5.2,3h-10.4
		c-2.1,0-4.1-1.1-5.2-3l-5.2-9c-1.1-1.8-1.1-4.1,0-6l5.2-9C391.5,1.1,393.5,0,395.6,0z"/>
	<path class="st22" d="M102.6,306H113c2.1,0,4.1,1.1,5.2,3l5.2,9c1.1,1.8,1.1,4.1,0,6l-5.2,9c-1.1,1.8-3,3-5.2,3h-10.4
		c-2.1,0-4.1-1.1-5.2-3l-5.2-9c-1.1-1.8-1.1-4.1,0-6l5.2-9C98.5,307.1,100.5,306,102.6,306z"/>
</g>
</svg>
