<?xml version="1.0" encoding="utf-8"?>
<!-- Generator: Adobe Illustrator 22.1.0, SVG Export Plug-In . SVG Version: 6.00 Build 0)  -->
<svg version="1.1" id="Capa_1" xmlns="http://www.w3.org/2000/svg" xmlns:xlink="http://www.w3.org/1999/xlink" x="0px" y="0px"
	 viewBox="0 0 420 401" style="enable-background:new 0 0 420 401;" xml:space="preserve">
<style type="text/css">
	.st0{fill:none;stroke:#69DCA2;stroke-miterlimit:10;}
	.st1{fill:#69DCA2;}
	.st2{fill:none;}
	.st3{fill:#5C61DE;}
	.st4{fill:none;stroke:#FFFFFF;stroke-width:2;stroke-miterlimit:10;}
	.st5{fill:#FFFFFF;}
	.st6{font-family:'BebasNeueBold';}
	.st7{font-size:7.0607px;}
	.st8{fill:#585DD4;}
	.st9{fill:#5BC28E;}
	.st10{fill:url(#SVGID_1_);}
	
		.st11{fill:none;stroke:#FFFFFF;stroke-width:2;stroke-linecap:round;stroke-linejoin:round;stroke-miterlimit:10;stroke-dasharray:4,10;}
	.st12{font-size:25.4702px;}
	.st13{letter-spacing:-1;}
	.st14{font-size:9.5538px;}
	.st15{fill:none;stroke:#FFFFFF;stroke-width:2;stroke-linecap:round;stroke-linejoin:round;stroke-miterlimit:10;}
	.st16{font-size:8.4438px;}
	.st17{font-size:5.6259px;}
	.st18{fill:#FC80A7;}
	.st19{fill:#55C58D;}
	.st20{fill:#F9C9C4;}
	.st21{fill:#3C3C56;}
	.st22{fill:#585BD2;}
	.st23{fill:none;stroke:#1B1B1B;stroke-width:2;stroke-miterlimit:10;}
	.st24{fill:#15132D;}
	.st25{fill:none;stroke:#5C61DF;stroke-miterlimit:10;}
	.st26{fill:none;stroke:#FC80A7;stroke-miterlimit:10;}
	.st27{fill:#333351;}
	.st28{fill:url(#SVGID_2_);}
	
		.st29{opacity:0.3;fill:none;stroke:#FFFFFF;stroke-width:3;stroke-linecap:round;stroke-linejoin:round;stroke-miterlimit:10;stroke-dasharray:4,10;}
</style>
<g>
	<circle class="st0" cx="326" cy="375" r="3.5"/>
	<path class="st1" d="M322.1,385.4c0,0-6.9,2.7-15.2,4.3s-6.2,4.9,0.1,4.9c6.3,0,20.2,0.7,21.5-7.7c0,0-1.3,2.4-3.8,1.9
		C322.3,388.3,322.1,385.4,322.1,385.4z"/>
	<circle class="st2" cx="362.5" cy="379.5" r="3.5"/>
	<path class="st1" d="M359.3,390.4c0,0-6.7,3.3-14.8,5.6c-8.1,2.3-5.7,5.4,0.6,4.9c6.3-0.5,20.1-1.1,20.8-9.6c0,0-1.1,2.5-3.7,2.2
		C359.8,393.3,359.3,390.4,359.3,390.4z"/>
	<path class="st3" d="M300.1,19H151.2c-14.1,0-27.2,7.5-34.2,19.8L42.6,167.7c-7.1,12.2-7.1,27.3,0,39.5L117,336.2
		c7.1,12.2,20.1,19.8,34.2,19.8h148.9c14.1,0,27.2-7.5,34.2-19.8l74.4-128.9c7.1-12.2,7.1-27.3,0-39.5L334.4,38.8
		C327.3,26.5,314.2,19,300.1,19z"/>
	<path class="st1" d="M409.9,153H274c-5,0-9-4.1-9-9V95c0-5,4.1-9,9-9h135.9c5,0,9,4.1,9,9V144C419,148.9,414.9,153,409.9,153z"/>
	<path class="st4" d="M409.9,153H274c-5,0-9-4.1-9-9V95c0-5,4.1-9,9-9h135.9c5,0,9,4.1,9,9V144C419,148.9,414.9,153,409.9,153z"/>
	<text transform="matrix(1 0 0 1 282.401 106.0664)" class="st5 st6 st7">RECIBIDOS</text>
	<text transform="matrix(1 0 0 1 389.9742 106.0664)" class="st5 st6 st7">67%</text>
	<text transform="matrix(1 0 0 1 389.9742 128.0332)" class="st5 st6 st7">35%</text>
	<path class="st8" d="M282.5,109c-1.3,0-2.3,1.5-1.7,3c0.3,0.7,1,1,1.7,1l75.4,0v-4H282.5z"/>
	<path class="st9" d="M399.7,109l-41.7,0v4h41.8c1.3,0,2.3-1.5,1.7-3C401.1,109.4,400.4,109,399.7,109z"/>
	<text transform="matrix(1 0 0 1 282.401 128.0332)" class="st5 st6 st7">ENVIADOS</text>
	<path class="st5" d="M280.5,132c-1.4,0-2.5,1.5-1.7,3c0.3,0.6,1,1,1.7,1H324v-4H280.5z"/>
	<path class="st9" d="M400.5,132H324v4h76.6c1.3,0,2.3-1.5,1.7-3C401.9,132.4,401.2,132,400.5,132z"/>
	<linearGradient id="SVGID_1_" gradientUnits="userSpaceOnUse" x1="463.3863" y1="324.6374" x2="292.87" y2="197.6273">
		<stop  offset="0" style="stop-color:#5954A1"/>
		<stop  offset="1" style="stop-color:#585DD4"/>
	</linearGradient>
	<path class="st10" d="M398.9,280H263c-5,0-9-4.1-9-9V181c0-5,4.1-9,9-9h135.9c5,0,9,4.1,9,9V271C408,275.9,403.9,280,398.9,280z"/>
	<path class="st4" d="M398.9,280H263c-5,0-9-4.1-9-9V181c0-5,4.1-9,9-9h135.9c5,0,9,4.1,9,9V271C408,275.9,403.9,280,398.9,280z"/>
	<circle class="st11" cx="330" cy="226" r="33"/>
	<text transform="matrix(1 0 0 1 320.2203 234.1885)" class="st5 st6 st12 st13">51</text>
	<text transform="matrix(1 0 0 1 340.985 223.6602)" class="st5 st6 st14">%</text>
	<polyline class="st15" points="265,264 265,270 270,270 	"/>
	<line class="st15" x1="264.9" y1="269.7" x2="270.1" y2="264.5"/>
	<text transform="matrix(1 0 0 1 385.5279 185.3115)" class="st5 st6 st16">100</text>
	<text transform="matrix(1 0 0 1 397.4898 183.6211)" class="st5 st6 st17">%</text>
	<path class="st15" d="M329.8,192.7c18.3,0,33.1,14.8,33.1,33.1S348.1,259,329.8,259"/>
	<circle class="st5" cx="330.5" cy="259.5" r="3.5"/>
	<path class="st18" d="M28.9,281h30.4c4.9,0,9.4,2.6,11.8,6.8l15.2,26.3c2.4,4.2,2.4,9.4,0,13.7l-15.2,26.3
		c-2.4,4.2-6.9,6.8-11.8,6.8H28.9c-4.9,0-9.4-2.6-11.8-6.8L1.8,327.8c-2.4-4.2-2.4-9.4,0-13.7L17,287.8C19.5,283.6,24,281,28.9,281z
		"/>
	<path class="st18" d="M370.7,23h10.4c2.1,0,4.1,1.1,5.2,3l5.2,9c1.1,1.8,1.1,4.1,0,6l-5.2,9c-1.1,1.8-3,3-5.2,3h-10.4
		c-2.1,0-4.1-1.1-5.2-3l-5.2-9c-1.1-1.8-1.1-4.1,0-6l5.2-9C366.6,24.1,368.6,23,370.7,23z"/>
	<path class="st19" d="M15.7,212h10.4c2.1,0,4.1,1.1,5.2,3l5.2,9c1.1,1.8,1.1,4.1,0,6l-5.2,9c-1.1,1.8-3,3-5.2,3H15.7
		c-2.1,0-4.1-1.1-5.2-3l-5.2-9c-1.1-1.8-1.1-4.1,0-6l5.2-9C11.6,213.1,13.5,212,15.7,212z"/>
	<circle class="st2" cx="354.5" cy="147.5" r="12.5"/>
	<path class="st2" d="M325.8,202c-0.5,0.6-0.9,1.2-1.2,1.8c0.8-1,1.6-1.9,2.3-2.9C326.5,201.3,326.2,201.7,325.8,202z"/>
	<path class="st2" d="M339.6,201c-3.7-3.2-9.1-3.1-12.7,0c-0.7,1-1.5,1.9-2.3,2.9c-2.1,3.9-1.3,8.9,2.2,11.9
		c3.3,2.9,8.1,3.1,11.6,0.8c1.1-1.1,2.2-2.3,3.3-3.5C343.9,209.2,343.1,204.1,339.6,201z"/>
	<path class="st2" d="M339.6,201c-3.7-3.2-9.1-3.1-12.7,0c-0.7,1-1.5,1.9-2.3,2.9c-2.1,3.9-1.3,8.9,2.2,11.9
		c3.3,2.9,8.1,3.1,11.6,0.8c1.1-1.1,2.2-2.3,3.3-3.5C343.9,209.2,343.1,204.1,339.6,201z"/>
	<path class="st20" d="M325.7,202.6c-0.3,0.4-0.6,0.8-0.8,1.2c-0.4,0.7-0.6,1.3-0.8,2c-1.1,2.1-2.4,4.3-3.8,6.4
		c-22.1,34-31,41.6-31,41.6l6.1,4.7c0,0,28.2-17.2,45-43.5c0.8-1.3,1.7-2.7,2.5-4.1c1.3-4.3-0.6-9-4.7-11.1
		C333.8,197.6,328.5,198.9,325.7,202.6z"/>
	<path class="st19" d="M342,146.4c0,0,5.4,27.9-15,54.6c-0.7,1-1.5,1.9-2.3,2.9c-2.1,3.9-1.3,8.9,2.2,11.9c3.3,2.9,8.1,3.1,11.6,0.8
		c1.1-1.1,2.2-2.3,3.3-3.5c2.1-2.3,4-4.7,5.8-7.2c21.4-29.6,19.1-56.3,19.1-56.3L342,146.4z"/>
	<path class="st20" d="M296.8,256.9c0,0,0.8-2.2-2.2,3.2c-3,5.4-2.9,5.3-7.6,7.5c-4.7,2.3-3.4-1.2,1.7-3.6c5.1-2.4-0.8-6.3-2.8-3.5
		s-9.1,15.5-9.1,15.5s-2.2,1,0.5-6.6c2.7-7.5,5.3-15.5,9.5-15.2c4.2,0.2,5.7-1.7,5.7-1.7L296.8,256.9z"/>
	<path class="st18" d="M332.9,91.3c0.2,0,0.4,0.2,0.4,0.5l-0.5,4.7c0,0.4-0.1,0.9-0.3,1.2c-0.4,0.5-1.1,0.8-1.7,0.7l-1.8-0.3
		c-2-0.4-1.6-2-1.4-2.2c0.2-0.5,0.9-0.6,1.4-0.7c1.8-0.4,2.8-2,3.7-3.6C332.6,91.4,332.8,91.3,332.9,91.3L332.9,91.3z"/>
	<path class="st20" d="M352.1,125.4c0,0,6,9.4-8.3,10.5l-8.3-25.3l4.5-20.9l15.8-5.7C355.7,84,342.8,108.9,352.1,125.4z"/>
	<path class="st20" d="M328.5,109.3l7.5-37.6l11.9,1.9c0,0,9.4,29.5,2.1,33.7c-2.3,1.3-7.9-8.1-7.9-8.1l-3.8,9.3L328.5,109.3z"/>
	<path class="st21" d="M336.5,65.1c8.7-1,22.5-0.4,29.3,10.1c6.9,10.5-3.5,30.9-3.5,30.9s-4.6,8.3,1.6,13.8s-0.6,8.1-8.8,1.7
		c-8.2-6.3-9.8-5.6-9.2-14c0.6-8.4,4.6-14.2-0.1-14.7c-1.8-0.2-2.6,0.8-2.7,6.8c0,1,0.8,1.8,0.7,3.1c-0.7,6.5-4.9,15.1-10.9,17.1
		c-7.2,2.5-16.1,3.9-12.6-6.4c3.5-10.3,13-3.6,16-9.9c3-6.3,7.2-11.2,4.5-18.1S335.4,72,329,74.3C322.6,76.6,323.9,66.6,336.5,65.1z
		"/>
	<ellipse transform="matrix(0.415 -0.9098 0.9098 0.415 113.9795 354.2602)" class="st22" cx="332.5" cy="88.5" rx="5.9" ry="2.7"/>
	<path class="st4" d="M334.8,88.3l11.4,3c2.9,0.8,5.2,3,6.1,5.9l0.6,2"/>
	<ellipse transform="matrix(0.415 -0.9098 0.9098 0.415 113.9795 354.2602)" class="st23" cx="332.5" cy="88.5" rx="5.9" ry="2.7"/>
	<circle class="st0" cx="341.5" cy="227.5" r="17"/>
	<circle class="st0" cx="322" cy="289" r="10.5"/>
	<path class="st24" d="M357.2,232.3c-8.1,22.2-22.4,38.4-24.2,55.5c-0.4,3.9-2.9,10.8-11.4,10.9c-8.5,0.1-10-9.8-10-9.8
		c-1.7-29.1,9-52.4,13.1-65.8c0,0,4.2-13.5,18.4-11.7C356.5,213,359.2,226.9,357.2,232.3z"/>
	<path class="st24" d="M332.9,288.4c-1.5,10.9-3.1,23-3.8,34c-1.1,16.4,1.7,46.5-0.3,62.6c-0.6,5-6.3,3.5-6.7,0.3
		c-2.7-24.2-12.4-72.9-10.8-94.8c0.1-1.1,0.2-2.3,0.3-3.4c0,0,2.7-10.5,11.9-9.1C332.6,279.6,332.9,288.4,332.9,288.4z"/>
	<path class="st25" d="M328.9,222c0,0,2.3,12.4-8.8,14.5"/>
	<path class="st26" d="M320.5,238.7c0,0,6.2-1.3,8.7-5.7"/>
	<circle class="st2" cx="365" cy="231" r="17"/>
	<circle class="st0" cx="356" cy="294" r="10.5"/>
	<path class="st27" d="M382.3,233.4c-4.8,23.2-14.6,52.5-16.8,69.6c-0.5,4-0.5,0-8.9,1.3c-8.4,1.3-11.2,1.7-11.2,1.7
		c-5.9-28.5,1.2-63.2,3.4-77.1c0,0,2.2-14,16.5-14.3C378.8,214.4,383.4,227.7,382.3,233.4z"/>
	<path class="st25" d="M377.4,219.5c0,0-17.8,11.6,2.3,23.7"/>
	<path class="st27" d="M366.1,294.7c-1.1,11-1.8,21.9-2.2,33c-0.5,16.4,3.5,46.4,2.2,62.6c-0.4,5.1-6.2,3.8-6.7,0.6
		c-3.7-24.1-15.3-72.3-14.5-94.3c0-1.1,0.1-2.3,0.2-3.4c0,0,2.3-10.6,11.5-9.5S366.1,294.7,366.1,294.7z"/>
	<path class="st26" d="M367.7,234.9c0,0,1.7,5,7.7,9"/>
	<path class="st19" d="M352.9,128.3c0,0,37.8,18.3,29.9,99.3c-21.2,3.2-59.9-7-65.4-15.9c19.1-34.3,26.2-57.7,26.5-75.8
		C355.4,134.7,352.9,128.3,352.9,128.3z"/>
	<path class="st27" d="M379.3,228.7l-9.2-0.6c3.6-45.1-26.3-75.3-26.3-75.3S379.5,165.2,379.3,228.7z"/>
	<circle class="st2" cx="355.5" cy="147.5" r="12.5"/>
	<path class="st20" d="M373.6,201c0,0,0.6,3.6,0.5,3.6c0.3,2.4,0.5,4.9,0.6,7.5c1.4,41,0.2,52.4,0.2,52.4l6,0.4
		c0,0,13.3-30.3,12-61.8c-0.1-1.6-0.2-3.2-0.3-4.8c-1.4-4.3-5.7-7.2-10.3-6.6C377.4,192.3,373.8,196.3,373.6,201z"/>
	<path class="st19" d="M343.7,152.9c0,0,24.2,15,29.9,48.2c0.2,1.2,0.4,2.4,0.5,3.6c1.5,4.2,5.7,7,10.3,6.4c4.4-0.5,7.7-3.8,8.5-7.9
		c-0.1-1.6-0.2-3.2-0.3-4.8c-0.3-3.1-0.7-6.1-1.3-9.1c-7.2-35.8-28.3-52.3-28.3-52.3L343.7,152.9z"/>
	<path class="st20" d="M374.9,264.6c0,0,0.2,0.2-1.3,3.7c-2.3,5.8-2.2,5.7-0.9,10.7c1.3,5.1,3.1,1.8,1.7-3.6s5.4-3.5,4.6-0.2
		c-0.8,3.4-6.1,17.1-6.1,17.1s0.7,2.3,4.8-4.7c4.1-7,8.6-14.2,5.7-17.2c-2.9-3-2.4-5.4-2.4-5.4L374.9,264.6z"/>
	<linearGradient id="SVGID_2_" gradientUnits="userSpaceOnUse" x1="58.9615" y1="94.5" x2="230.9615" y2="94.5">
		<stop  offset="0" style="stop-color:#FC80A7"/>
		<stop  offset="1" style="stop-color:#FC9383"/>
	</linearGradient>
	<path class="st28" d="M221.9,188H68c-5,0-9-4.1-9-9V10c0-5,4.1-9,9-9h153.9c5,0,9,4.1,9,9V179C231,183.9,226.9,188,221.9,188z"/>
	<path class="st4" d="M221.9,188H68c-5,0-9-4.1-9-9V10c0-5,4.1-9,9-9h153.9c5,0,9,4.1,9,9V179C231,183.9,226.9,188,221.9,188z"/>
	<path class="st11" d="M108,61c0-20.4,16.6-37,37-37"/>
	<path class="st15" d="M144.6,24.1c20.5,0,37,16.6,37,37s-16.6,37-37,37s-37-16.6-37-37"/>
	<circle class="st5" cx="107" cy="61" r="4"/>
	<g>
		<path class="st5" d="M132.1,64l5.7-13.5h3.4V64h1.5v2.8h-1.5v3.6h-3.1v-3.6h-6V64z M138.1,64v-7.5L135,64H138.1z"/>
		<path class="st5" d="M151.3,55.4c0-0.9-0.1-1.5-0.4-1.8c-0.3-0.3-0.7-0.5-1.2-0.5s-0.9,0.1-1.2,0.4c-0.3,0.3-0.4,0.8-0.4,1.5v1.3
			h-3v-1.1c0-1.6,0.4-2.9,1.2-3.7c0.8-0.9,2-1.3,3.5-1.3c1.5,0,2.7,0.4,3.5,1.3c0.8,0.9,1.2,2.1,1.2,3.7v0.5c0,2.1-0.7,3.5-2.2,4.1
			c0.8,0.3,1.4,0.9,1.7,1.6s0.5,1.6,0.5,2.6v1.6c0,1.6-0.4,2.9-1.2,3.7c-0.8,0.9-2,1.3-3.5,1.3c-1.5,0-2.7-0.4-3.5-1.3
			c-0.8-0.9-1.2-2.1-1.2-3.7V64h3v1.9c0,0.7,0.1,1.2,0.4,1.5s0.7,0.4,1.2,0.4s0.9-0.2,1.2-0.5c0.3-0.3,0.4-0.9,0.4-1.8V64
			c0-0.9-0.2-1.6-0.5-2c-0.3-0.4-0.8-0.6-1.6-0.6h-1.1v-2.8h1.2c0.6,0,1-0.2,1.4-0.5s0.5-0.9,0.5-1.7V55.4z"/>
	</g>
	<g>
		<path class="st5" d="M157.5,52.3c0-0.4,0.1-0.7,0.3-0.9c0.2-0.2,0.5-0.3,0.8-0.3s0.7,0.1,0.8,0.3c0.2,0.2,0.3,0.5,0.3,0.9v2.5
			c0,0.4-0.1,0.7-0.3,0.9S159,56,158.6,56s-0.7-0.1-0.8-0.3s-0.3-0.5-0.3-0.9V52.3z M158.2,54.9c0,0.3,0.1,0.5,0.4,0.5
			c0.1,0,0.2,0,0.3-0.1c0.1-0.1,0.1-0.2,0.1-0.4v-2.6c0-0.2,0-0.3-0.1-0.4c-0.1-0.1-0.2-0.1-0.3-0.1c-0.3,0-0.4,0.2-0.4,0.5V54.9z
			 M161.5,51.2h0.7l-2.9,7.5h-0.7L161.5,51.2z M161.2,55.1c0-0.4,0.1-0.7,0.3-0.9s0.5-0.3,0.8-0.3s0.7,0.1,0.8,0.3s0.3,0.5,0.3,0.9
			v2.5c0,0.4-0.1,0.7-0.3,0.9c-0.2,0.2-0.5,0.3-0.8,0.3s-0.7-0.1-0.8-0.3c-0.2-0.2-0.3-0.5-0.3-0.9V55.1z M161.9,57.6
			c0,0.3,0.1,0.5,0.4,0.5c0.1,0,0.2,0,0.3-0.1c0.1-0.1,0.1-0.2,0.1-0.4V55c0-0.2,0-0.3-0.1-0.4c-0.1-0.1-0.2-0.1-0.3-0.1
			c-0.3,0-0.4,0.2-0.4,0.5V57.6z"/>
	</g>
	<path class="st15" d="M75.9,160.1c0,0,2.3-6.8,8.8-7.4s10.7-0.4,15.4-6s11.5-13.3,17.4-13.3c6,0,11,7,14.9,11.7
		c3.9,4.7,7.7,10.5,14.9,10.5s11.4-4.4,16.3-11.8c4.9-7.4,13.3-20.2,22.7-20.2s12.4,6.7,17.2,13.2c4.7,6.4,6.2,11,10.3,11"/>
	<circle class="st5" cx="187" cy="124" r="4"/>
	<line class="st29" x1="76.5" y1="165.5" x2="215.5" y2="165.5"/>
	<line class="st29" x1="76.5" y1="148.5" x2="215.5" y2="148.5"/>
	<line class="st29" x1="76.5" y1="131.5" x2="215.5" y2="131.5"/>
	<line class="st29" x1="76.5" y1="114.5" x2="215.5" y2="114.5"/>
</g>
</svg>
