<?xml version="1.0" encoding="utf-8"?>
<!-- Generator: Adobe Illustrator 22.1.0, SVG Export Plug-In . SVG Version: 6.00 Build 0)  -->
<svg version="1.1" id="Capa_1" xmlns="http://www.w3.org/2000/svg" xmlns:xlink="http://www.w3.org/1999/xlink" x="0px" y="0px"
	 viewBox="0 0 605.8 350" style="enable-background:new 0 0 605.8 350;" xml:space="preserve">
<style type="text/css">
	.st0{fill:#F1F1F1;}
	.st1{fill:#69DCA2;}
	.st2{fill:#FFFFFF;}
	.st3{fill:#413E7A;}
	.st4{fill:#55C58D;}
	.st5{fill:#15132D;}
	.st6{fill:#FC80A7;}
	.st7{fill:#FC9383;}
	.st8{fill:#F9C9C4;}
	.st9{fill:#5C61DF;}
	.st10{opacity:0.4;fill:#413E7A;}
	.st11{fill:#5954A1;}
	.st12{clip-path:url(#SVGID_2_);fill:#15132D;}
	.st13{clip-path:url(#SVGID_4_);fill:#15132D;}
	.st14{clip-path:url(#SVGID_6_);fill:#15132D;}
	.st15{clip-path:url(#SVGID_8_);fill:#15132D;}
	.st16{clip-path:url(#SVGID_10_);fill:#15132D;}
	.st17{fill:#FFA493;}
	.st18{fill:#585DD4;}
	.st19{fill:#E6E6E6;}
	.st20{fill:url(#SVGID_11_);}
	.st21{fill:#3C3972;}
</style>
<g>
	<path class="st0" d="M473.3,222.5l-126.9,73.3c-14.9,8.6-41,7.5-58.2-2.4l-146.5-84.6c-17.2-9.9-19.1-25-4.2-33.6l126.9-73.3
		c14.9-8.6,41-7.5,58.2,2.4l146.5,84.6C486.3,198.9,488.2,213.9,473.3,222.5z"/>
	<path class="st1" d="M473.3,209.8L346.4,283c-14.9,8.6-41,7.5-58.2-2.4L141.7,196c-17.2-9.9-19.1-25-4.2-33.6l126.9-73.3
		c14.9-8.6,41-7.5,58.2,2.4l146.5,84.6C486.3,186.1,488.2,201.1,473.3,209.8z"/>
	<path class="st2" d="M473.3,203.8l-126.9,73.3c-14.9,8.6-41,7.5-58.2-2.4l-146.5-84.6c-17.2-9.9-19.1-25-4.2-33.6l126.9-73.3
		c14.9-8.6,41-7.5,58.2,2.4l146.5,84.6C486.3,180.2,488.2,195.2,473.3,203.8z"/>
	<path class="st3" d="M371.2,59.7V51l-21.6,13.2l-9.2,2.4l0,3.3l0,0l0,4l0,4.1c0.6,0,1.3-0.2,1.9-0.5l28.5-16.9
		C371.1,60.4,371.2,60.1,371.2,59.7L371.2,59.7L371.2,59.7C371.2,59.7,371.2,59.7,371.2,59.7z"/>
	<path class="st4" d="M340.4,78l0-10.5l-51.1-28.4l-18.8-14c-0.4,0.1-0.8,0.2-1.2,0.4l-2.2,1.2l-7.3-4.1v9.1l0,0
		c0,0.3,0.2,0.6,0.5,0.7l78.2,44.9C339.1,77.8,339.7,78,340.4,78l-0.1-0.1L340.4,78z"/>
	<path class="st5" d="M260.3,22.2l28.5-16.9c1.2-0.7,2.6-0.7,3.7,0l78.3,44.9c0.7,0.4,0.7,1.4,0,1.8l-28.5,16.9
		c-1.2,0.7-2.6,0.7-3.7,0l-78.2-44.9C259.6,23.5,259.6,22.5,260.3,22.2z"/>
	<path class="st1" d="M290.6,4.8v0.4c0.6,0,1.1,0.2,1.6,0.4l78.3,44.9c0.2,0.1,0.3,0.3,0.3,0.5c0,0.2-0.1,0.4-0.3,0.5L342,68.5
		c-0.5,0.3-1.1,0.4-1.7,0.4c-0.6,0-1.2-0.2-1.7-0.4l-78.2-44.9c-0.2-0.1-0.3-0.3-0.3-0.5c0-0.2,0.1-0.4,0.3-0.5L289,5.6
		c0.5-0.3,1.1-0.4,1.7-0.4V4.8 M290.6,4.8c-0.6,0-1.3,0.2-1.9,0.5l-28.5,16.9c-0.7,0.4-0.7,1.4,0,1.8l78.2,44.9
		c0.6,0.3,1.2,0.5,1.9,0.5c0.6,0,1.3-0.2,1.9-0.5l28.5-16.9c0.7-0.4,0.7-1.4,0-1.8L292.5,5.3C291.9,4.9,291.3,4.8,290.6,4.8
		L290.6,4.8z"/>
	<path class="st1" d="M270,20.2l24.4-14.5c1-0.6,2.2-0.6,3.2,0l67.1,38.5c0.6,0.3,0.6,1.2,0,1.5l-24.5,14.5c-1,0.6-2.2,0.6-3.2,0
		L270,21.7C269.4,21.4,269.4,20.5,270,20.2z"/>
	<path class="st3" d="M321.1,20.6l-8.8,5.8l-6.5-4.4L306,33l0,1.3l0,0l0,1.4c0.9,0,1.8-0.2,2.6-0.7l11.7-6.7c0.4-0.2,0.6-0.6,0.7-1
		l0,0V20.6z"/>
	<path class="st4" d="M297.3,21.9l-1.7-3.8c-1.2-0.2-2.5,0-3.5,0.6l-1,0.6l-11.4-4.8v6c0,0,0,0,0,0v0.1l0,0c0,0.5,0.3,0.9,0.7,1.2
		l23.1,13.1c0.8,0.5,1.7,0.7,2.6,0.7l0-10.1L297.3,21.9z"/>
	<path class="st5" d="M320.4,19.7l-23-13.1c-1.6-0.9-3.6-0.9-5.2,0l-11.7,6.7c-1,0.6-1,2,0,2.5l23.1,13.1c1.6,0.9,3.6,0.9,5.2,0
		l11.7-6.7C321.4,21.6,321.4,20.2,320.4,19.7z"/>
	<path class="st1" d="M294.7,6.7c0.8,0,1.5,0.2,2.2,0.6l23,13.1c0.3,0.2,0.3,0.4,0.3,0.5c0,0.1,0,0.4-0.3,0.5l-11.7,6.7
		c-0.7,0.4-1.4,0.6-2.2,0.6c-0.8,0-1.5-0.2-2.2-0.6L280.8,15c-0.3-0.2-0.3-0.4-0.3-0.5c0-0.1,0-0.4,0.3-0.5l11.7-6.7
		C293.2,6.9,293.9,6.7,294.7,6.7 M294.7,5.8c-0.9,0-1.8,0.2-2.6,0.7l-11.7,6.7c-1,0.6-1,2,0,2.5l23.1,13.1c0.8,0.5,1.7,0.7,2.6,0.7
		c0.9,0,1.8-0.2,2.6-0.7l11.7-6.7c1-0.6,1-2,0-2.5l-23-13.1C296.5,6.1,295.6,5.8,294.7,5.8L294.7,5.8z"/>
	<path class="st3" d="M321.1,14.7l-8.8,5.8l-6.5-4.4l0.2,7l0,1.3l0,0l0,1.4c0.9,0,1.8-0.2,2.6-0.7l11.7-6.7c0.4-0.2,0.6-0.6,0.7-1
		l0,0V14.7z"/>
	<path class="st4" d="M297.3,16l-1.7-3.8c-1.2-0.2-2.5,0-3.5,0.6l-1,0.6l-11.4-4.8v2c0,0,0,0,0,0v0.1l0,0c0,0.5,0.3,0.9,0.7,1.2
		L303.5,25c0.8,0.5,1.7,0.7,2.6,0.7l0-6L297.3,16z"/>
	<path class="st2" d="M320.4,13.8l-23-13.1c-1.6-0.9-3.6-0.9-5.2,0l-11.7,6.7c-1,0.6-1,2,0,2.5l23.1,13.1c1.6,0.9,3.6,0.9,5.2,0
		l11.7-6.7C321.3,15.8,321.3,14.4,320.4,13.8z"/>
	<path class="st6" d="M299.4,14.8l7-4.1c0.3-0.2,0.6-0.2,0.9,0l2,1.2c0.2,0.1,0.2,0.3,0,0.4l-7,4.1c-0.3,0.2-0.6,0.2-0.9,0l-2-1.2
		C299.2,15.2,299.2,14.9,299.4,14.8z"/>
	<path class="st7" d="M295.1,12.2l7-4.1c0.3-0.2,0.6-0.2,0.9,0l2,1.2c0.2,0.1,0.2,0.3,0,0.4l-7,4.1c-0.3,0.2-0.6,0.2-0.9,0l-2-1.2
		C294.9,12.6,294.9,12.3,295.1,12.2z"/>
	<path class="st3" d="M304,17.5l3.6-2.2c0.3-0.2,0.6-0.2,0.9,0l2,1.2c0.2,0.1,0.2,0.3,0,0.4l-3.6,2.2c-0.3,0.2-0.6,0.2-0.9,0l-2-1.2
		C303.8,17.8,303.8,17.6,304,17.5z"/>
	<path class="st1" d="M294.7,0.4c0.8,0,1.7,0.2,2.4,0.6l23,13.1c0.3,0.2,0.5,0.5,0.5,0.9c0,0.4-0.2,0.7-0.5,0.9l-11.7,6.7
		c-0.7,0.4-1.6,0.6-2.4,0.6c-0.8,0-1.7-0.2-2.4-0.6L280.6,9.6c-0.3-0.2-0.5-0.5-0.5-0.9c0-0.4,0.2-0.7,0.5-0.9l11.7-6.7
		C293,0.6,293.9,0.4,294.7,0.4 M294.7,0c-0.9,0-1.8,0.2-2.6,0.7l-11.7,6.7c-1,0.6-1,2,0,2.5l23.1,13.1c0.8,0.5,1.7,0.7,2.6,0.7
		c0.9,0,1.8-0.2,2.6-0.7l11.7-6.7c1-0.6,1-2,0-2.5l-23-13.1C296.5,0.2,295.6,0,294.7,0L294.7,0z"/>
	<path class="st3" d="M354.4,39l-8.8,5.8l-6.5-4.4l0.2,11.1l0,1.3l0,0l0,1.4c0.9,0,1.8-0.2,2.6-0.7l11.7-6.7c0.4-0.2,0.6-0.6,0.7-1
		l0,0V39z"/>
	<path class="st4" d="M330.6,40.3l-1.7-3.8c-1.2-0.2-2.5,0-3.5,0.6l-1,0.6L313,32.9v6v0v0.1l0,0c0,0.5,0.3,0.9,0.7,1.2l23.1,13.1
		c0.8,0.5,1.7,0.7,2.6,0.7l0-10.1L330.6,40.3z"/>
	<path class="st5" d="M353.7,38.1l-23-13.1c-1.6-0.9-3.6-0.9-5.2,0l-11.7,6.7c-1,0.6-1,2,0,2.5l23.1,13.1c1.6,0.9,3.6,0.9,5.2,0
		l11.7-6.7C354.7,40.1,354.7,38.7,353.7,38.1z"/>
	<path class="st1" d="M328,25.1c0.8,0,1.5,0.2,2.2,0.6l23,13.1c0.3,0.2,0.3,0.4,0.3,0.5c0,0.1,0,0.4-0.3,0.5l-11.7,6.7
		c-0.7,0.4-1.4,0.6-2.2,0.6c-0.8,0-1.5-0.2-2.2-0.6l-23.1-13.1c-0.3-0.2-0.3-0.4-0.3-0.5c0-0.1,0-0.4,0.3-0.5l11.7-6.7
		C326.5,25.3,327.3,25.1,328,25.1 M328,24.3c-0.9,0-1.8,0.2-2.6,0.7l-11.7,6.7c-1,0.6-1,2,0,2.5l23.1,13.1c0.8,0.5,1.7,0.7,2.6,0.7
		c0.9,0,1.8-0.2,2.6-0.7l11.7-6.7c1-0.6,1-2,0-2.5l-23-13.1C329.9,24.5,328.9,24.3,328,24.3L328,24.3z"/>
	<path class="st3" d="M354.4,33.2l-8.8,5.8l-6.5-4.4l0.2,7l0,1.3l0,0l0,1.4c0.9,0,1.8-0.2,2.6-0.7l11.7-6.7c0.4-0.2,0.6-0.6,0.7-1
		l0,0V33.2z"/>
	<path class="st4" d="M330.6,34.5l-1.7-3.8c-1.2-0.2-2.5,0-3.5,0.6l-1,0.6L313,27.1v2c0,0,0,0,0,0v0.1l0,0c0,0.5,0.3,0.9,0.7,1.2
		l23.1,13.1c0.8,0.5,1.7,0.7,2.6,0.7l0-6L330.6,34.5z"/>
	<path class="st2" d="M353.7,32.3l-23-13.1c-1.6-0.9-3.6-0.9-5.2,0l-11.7,6.7c-1,0.6-1,2,0,2.5l23.1,13.1c1.6,0.9,3.6,0.9,5.2,0
		l11.7-6.7C354.7,34.2,354.7,32.8,353.7,32.3z"/>
	<path class="st3" d="M331,32.2l7-4.1c0.3-0.2,0.6-0.2,0.9,0l2,1.2c0.2,0.1,0.2,0.3,0,0.4l-7,4.1c-0.3,0.2-0.6,0.2-0.9,0l-2-1.2
		C330.9,32.6,330.9,32.3,331,32.2z"/>
	<path class="st7" d="M326.8,29.6l7-4.1c0.3-0.2,0.6-0.2,0.9,0l2,1.2c0.2,0.1,0.2,0.3,0,0.4l-7,4.1c-0.3,0.2-0.6,0.2-0.9,0l-2-1.2
		C326.6,30,326.6,29.7,326.8,29.6z"/>
	<path class="st6" d="M335.7,34.8l3.6-2.2c0.3-0.2,0.6-0.2,0.9,0l2,1.2c0.2,0.1,0.2,0.3,0,0.4l-3.6,2.2c-0.3,0.2-0.6,0.2-0.9,0
		l-2-1.2C335.5,35.2,335.5,34.9,335.7,34.8z"/>
	<path class="st1" d="M328,18.9c0.8,0,1.7,0.2,2.4,0.6l23,13.1c0.3,0.2,0.5,0.5,0.5,0.9c0,0.4-0.2,0.7-0.5,0.9l-11.7,6.7
		c-0.7,0.4-1.6,0.6-2.4,0.6c-0.8,0-1.7-0.2-2.4-0.6L313.9,28c-0.3-0.2-0.5-0.5-0.5-0.9c0-0.4,0.2-0.7,0.5-0.9l11.7-6.7
		C326.4,19.1,327.2,18.9,328,18.9 M328,18.4c-0.9,0-1.8,0.2-2.6,0.7l-11.7,6.7c-1,0.6-1,2,0,2.5l23.1,13.1c0.8,0.5,1.7,0.7,2.6,0.7
		c0.9,0,1.8-0.2,2.6-0.7l11.7-6.7c1-0.6,1-2,0-2.5l-23-13.1C329.9,18.7,328.9,18.4,328,18.4L328,18.4z"/>
	<path class="st3" d="M317.5,70.8l-12.4-7.3c-0.5-0.3-1.1-0.3-1.6,0l-10.7,6.3c-0.3,0.2-0.3,0.6,0,0.8l12.4,7.3
		c0.5,0.3,1.1,0.3,1.6,0l10.7-6.3C317.8,71.4,317.8,70.9,317.5,70.8z"/>
	<path class="st5" d="M317.5,66.6l-12.4-7.3c-0.5-0.3-1.1-0.3-1.6,0l-10.7,6.3c-0.3,0.2-0.3,0.6,0,0.8l12.4,7.3
		c0.5,0.3,1.1,0.3,1.6,0l10.7-6.3C317.8,67.2,317.8,66.8,317.5,66.6z"/>
	<path class="st8" d="M310.3,50.9l-1.2,1.2c0,0,2.1,1,2.9,1.7v-2.3l-0.3-2.3L310.3,50.9z"/>
	<path class="st7" d="M313,49.4v2.1c0,0,0,0.7-0.7,0.7c-0.7,0-0.6-0.8-0.6-0.8l0-1.4c0,0-0.4,0.1-0.4,0.5c0,0.4,0,0.4,0,0.4l0.2,0.1
		c0,0,0,0.5-0.5,0.5s-0.7-0.3-0.7-0.7c0-0.4,0-1.6,0-1.6s-0.3-0.6,0.9-1.3s2.1-0.5,2.5,0S313.6,49.1,313,49.4z"/>
	<path class="st8" d="M313,49.4L312,50v0.7c0,0.3,0.2,0.5,0.5,0.5l0,0c0.3,0,0.5-0.2,0.5-0.5V49.4z"/>
	<path class="st7" d="M313,50.8l0.2-0.2c0.1-0.1,0.1-0.2,0-0.2L313,50V50.8z"/>
	<path class="st3" d="M310.9,62.3l0.4-0.2c0.5-0.3,1.1,0,1.2,0.5l0.6,2.9l-0.4,0.1l-1.5-1.1c-0.1-0.2-0.4-0.2-0.6,0l-0.8,0.9
		l-0.7-0.7L310.9,62.3z"/>
	<path class="st9" d="M314.7,56.9c0,0-1.8-3.3-5.6-4.8c-3.8-1.4-5.4,4.6-5.4,6.5c0,1.9,0.4,4.5,0.4,4.5l2.5,1.4
		c0.6,0.3,1.3,0.3,1.9,0l2-1l1.7-4.5l0.5,0.6L314.7,56.9z"/>
	<polygon class="st5" points="312.3,58.9 311.5,57.9 310.6,63.4 	"/>
	<path class="st8" d="M317.3,61.7l0.2-4.7c0,0,0-0.1,0.2-0.4c0.2-0.3,0.7-1.2-0.1-1.6c0,0-0.3-0.1-0.2,0.3s-0.1,0.7-0.2,0.4
		c-0.1-0.3-0.4-0.2-0.4,0c0,0.3,0.1,1,0.1,1l-0.8,2.8L317.3,61.7z"/>
	<path class="st8" d="M314.7,56.9l2.5,4.4c0,0,0.3,0.8-0.3,1.1c-0.6,0.2-0.8-0.1-1.5-0.8s-2.5-2.1-2.5-2.1L314.7,56.9z"/>
	<path class="st6" d="M310.6,63.4L316,63c0.6,0,1.1,0.3,1.3,0.9l2.2,6.9h-0.3l-3.1-4.9c-0.2-0.3-0.5-0.4-0.8-0.3l-5.5,1.5
		c0,0-1.7,0.4-3.1-0.4c-1.4-0.8-2.3-1-2.6-3.6L310.6,63.4z"/>
	<polygon class="st7" points="319.5,70.7 320.6,71 320.4,71.2 319.2,71.4 319.1,71.2 319.2,70.8 	"/>
	<path class="st5" d="M317.2,67.6l0.4-0.3c0.2-0.1,0.2-0.5,0-0.6l-1.6-1c0,0,0.1,0.1,0.1,0.1L317.2,67.6z"/>
	<path class="st3" d="M285.6,53.4l-12.4-7.3c-0.5-0.3-1.1-0.3-1.6,0l-10.7,6.3c-0.3,0.2-0.3,0.6,0,0.8l12.4,7.3
		c0.5,0.3,1.1,0.3,1.6,0l10.7-6.3C285.9,54,285.9,53.6,285.6,53.4z"/>
	<path class="st5" d="M285.6,49.3l-12.4-7.3c-0.5-0.3-1.1-0.3-1.6,0l-10.7,6.3c-0.3,0.2-0.3,0.6,0,0.8l12.4,7.3
		c0.5,0.3,1.1,0.3,1.6,0l10.7-6.3C285.9,49.9,285.9,49.4,285.6,49.3z"/>
	<path class="st8" d="M278.4,33.6l-1.2,1.2c0,0,2.1,1,2.9,1.7v-2.3l-0.3-2.3L278.4,33.6z"/>
	<path class="st7" d="M281,32.1v2.1c0,0,0,0.7-0.7,0.7c-0.7,0-0.6-0.8-0.6-0.8l0-1.4c0,0-0.4,0.1-0.4,0.5c0,0.4,0,0.4,0,0.4l0.2,0.1
		c0,0,0,0.5-0.5,0.5s-0.7-0.3-0.7-0.7c0-0.4,0-1.6,0-1.6s-0.3-0.6,0.9-1.3c1.1-0.7,2.1-0.5,2.5,0C282.1,31.2,281.7,31.7,281,32.1z"
		/>
	<path class="st8" d="M281,32.1l-1.1,0.6v0.7c0,0.3,0.2,0.5,0.5,0.5l0,0c0.3,0,0.5-0.2,0.5-0.5V32.1z"/>
	<path class="st7" d="M281,33.5l0.2-0.2c0.1-0.1,0.1-0.2,0-0.2l-0.3-0.5V33.5z"/>
	<path class="st3" d="M278.9,44.9l0.4-0.2c0.5-0.3,1.1,0,1.2,0.5l0.6,2.9l-0.4,0.1l-1.5-1.1c-0.1-0.2-0.4-0.2-0.6,0l-0.8,0.9
		l-0.7-0.7L278.9,44.9z"/>
	<path class="st5" d="M282.7,39.5c0,0-1.8-3.3-5.6-4.8c-3.8-1.4-5.4,4.6-5.4,6.5c0,1.9,0.4,4.5,0.4,4.5l2.5,1.4
		c0.6,0.3,1.3,0.3,1.9,0l2-1l1.7-4.5l0.5,0.6L282.7,39.5z"/>
	<path class="st8" d="M285.3,44.4l0.2-4.7c0,0,0-0.1,0.2-0.4c0.2-0.3,0.7-1.2-0.1-1.6c0,0-0.3-0.1-0.2,0.3c0,0.5-0.1,0.7-0.2,0.4
		c-0.1-0.3-0.4-0.2-0.4,0c0,0.3,0.1,1,0.1,1l-0.8,2.8L285.3,44.4z"/>
	<path class="st8" d="M282.7,39.5l2.5,4.4c0,0,0.3,0.8-0.3,1.1c-0.6,0.2-0.8-0.1-1.5-0.8c-0.8-0.7-2.5-2.1-2.5-2.1L282.7,39.5z"/>
	<path class="st9" d="M278.6,46.1l5.4-0.4c0.6,0,1.1,0.3,1.3,0.9l2.2,6.9h-0.3l-3.1-4.9c-0.2-0.3-0.5-0.4-0.8-0.3l-5.5,1.5
		c0,0-1.7,0.4-3.1-0.4c-1.4-0.8-2.3-1-2.6-3.6L278.6,46.1z"/>
	<polygon class="st7" points="287.5,53.4 288.7,53.7 288.4,53.8 287.3,54 287.1,53.9 287.2,53.4 	"/>
	<path class="st5" d="M285.2,50.2l0.4-0.3c0.2-0.1,0.2-0.5,0-0.6l-1.6-1c0,0,0.1,0.1,0.1,0.1L285.2,50.2z"/>
	<g>
		<path class="st2" d="M473.3,203.8l-126.9,73.3c-14.9,8.6-41,7.5-58.2-2.4l-146.5-84.6c-17.2-9.9-19.1-25-4.2-33.6l126.9-73.3
			c14.9-8.6,41-7.5,58.2,2.4l146.5,84.6C486.3,180.2,488.2,195.2,473.3,203.8z"/>
	</g>
	<path class="st1" d="M289.7,78.7c11.6,0,23.4,2.9,32.3,8.1l146.5,84.6c8.6,5,13.6,11.5,13.6,17.9c0,5.2-3.3,10-9.4,13.5L345.7,276
		c-6.3,3.6-15,5.6-24.6,5.6c-11.6,0-23.4-2.9-32.3-8.1L142.3,189c-8.6-5-13.6-11.5-13.6-17.9c0-5.2,3.3-10,9.4-13.5L265,84.3
		C271.3,80.7,280.1,78.7,289.7,78.7L289.7,78.7 M289.7,77.4c-9.5,0-18.5,1.9-25.3,5.8l-126.9,73.3c-14.9,8.6-13,23.6,4.2,33.6
		l146.5,84.6c9.4,5.4,21.5,8.2,32.9,8.2c9.5,0,18.5-1.9,25.3-5.8l126.9-73.3c14.9-8.6,13-23.6-4.2-33.6L322.6,85.7
		C313.2,80.2,301.1,77.4,289.7,77.4L289.7,77.4z"/>
	<path class="st3" d="M341,145.2c-9.7,0.4-21.7,5-30.2,9.1v-7.3c8.5-4,20.6-8.6,30.2-9.1V145.2z"/>
	<path class="st5" d="M254.8,112.9l-18.8,9l13.4,24.9l16.8-9.6c5.2-2.6,20.3-8.5,35.8,0.5c5.6,3.2,8.1,6.4,8.8,9.2
		c8.5-4,20.6-8.6,30.2-9.1C316.2,95.2,268.8,107.5,254.8,112.9z"/>
	<path class="st3" d="M302,137.7c-15.6-9-30.9-3-36-0.4l-16.7,9.1l3.4,5.8l13.5-7.9c5.3-2.6,20.3-8.4,35.8,0.5
		c5.6,3.2,8.1,6.4,8.8,9.2v-7.2C310.1,144.1,307.6,141,302,137.7z"/>
	<path class="st1" d="M286.7,107.4c10.6,0,20.2,2.1,28.6,6.2c10.2,5,18.6,13,25,23.8c-10.3,0.6-22.5,5.7-29.2,8.9
		c-1-3.1-4-6.2-8.9-9c-5.6-3.2-11.6-4.8-18-4.8c-8.3,0-15,2.7-18.3,4.4l0,0l0,0l-16.4,9.4l-13-24.1l18.4-8.8
		C258.6,111.9,271.2,107.4,286.7,107.4 M286.7,107c-13.8,0-25.9,3.6-31.8,5.9l-18.8,9l13.4,24.9l16.8-9.6c3.1-1.6,9.9-4.3,18.1-4.3
		c5.5,0,11.6,1.2,17.8,4.8c5.6,3.2,8.1,6.4,8.8,9.2c8.5-4,20.6-8.6,30.2-9.1C326.8,113.4,305.2,107,286.7,107L286.7,107z"/>
	<path class="st4" d="M254.8,106.4l-18.8,9l13.4,24.9l16.8-9.6c5.2-2.6,20.3-8.5,35.8,0.5c5.6,3.2,8.1,6.4,8.8,9.2
		c8.5-4,20.6-8.6,30.2-9.1C316.2,88.7,268.8,101,254.8,106.4z"/>
	<path class="st1" d="M286.7,103.1c10.2,0,19.5,2,27.6,6c8.9,4.4,16.4,11.1,22.3,20.1c-8.8,1.3-18.2,5-24.5,7.8
		c-1.6-2.8-4.6-5.5-8.9-8c-5.9-3.4-12.3-5.1-19.1-5.1c-8.7,0-15.8,2.9-19.2,4.6l-0.1,0l-0.1,0l-14.5,8.3l-10.8-20.2l16.3-7.8
		C259.4,107.4,271.7,103.1,286.7,103.1"/>
	<polygon class="st4" points="345.1,221.2 370.1,236.4 370.1,236.4 370.1,227.6 345.1,212.4 	"/>
	<polygon class="st4" points="314,159.8 339.8,173.9 339.8,165.2 314,151 	"/>
	<path class="st3" d="M412.6,159.1c-26.8-15.5-55.7-11-62.2-9.8l-1.3,0.3c-3.3,0.5-6.5,1.1-9.4,1.7v22.6l0,0l0.1-0.1
		c0,0,20.9-13.1,42.5-0.6c21.6,12.5,2.1,23.7,2.1,23.7l-14.4,30.7l0,8.8c15-8.5,41.9-23.9,48.6-27.8
		C433.7,200,443,176.6,412.6,159.1z"/>
	<path class="st5" d="M314.2,150.9L314,151l25.8,14.1l0.1-0.1c0,0,20.9-13.1,42.5-0.6s2.1,23.7,2.1,23.7l-39.4,24.3l25,15.2
		c15-8.5,41.9-23.9,48.6-27.8c14.9-8.6,24.2-32-6.2-49.5c-26.8-15.5-55.7-11-62.2-9.8l-1.3,0.3c-19.8,3.1-31.9,8.3-34.6,9.9
		C314.3,150.8,314.2,150.9,314.2,150.9z"/>
	<path class="st1" d="M367.9,139.4c11.4,0,28.3,2,44.5,11.3c16.4,9.5,19.9,19.8,19.9,26.8c0,8.6-5.4,17.2-13.7,22
		c-6.6,3.8-33,18.9-48.4,27.7l-24.2-14.7l38.8-23.9c0.3-0.2,8.3-4.9,8.3-11.7c0-4.5-3.5-8.8-10.4-12.8c-6.2-3.6-13-5.4-20.2-5.4
		c-12.1,0-21.5,5.3-22.6,6l-25-13.7c2.9-1.6,15-6.8,34.4-9.8l0,0l0,0l1.3-0.3C352.9,140.5,359.4,139.4,367.9,139.4 M367.9,138.9
		c-8.5,0-14.8,1-17.5,1.6l-1.3,0.3c-19.8,3.1-31.9,8.3-34.6,9.9c-0.2,0.1-0.3,0.2-0.3,0.2L314,151l25.8,14.1l0.1-0.1
		c0,0,9.6-6,22.5-6c6.1,0,13,1.4,20,5.4c21.6,12.5,2.1,23.7,2.1,23.7l-39.4,24.3l25,15.2c15-8.5,41.9-23.9,48.6-27.8
		c14.9-8.6,24.2-32-6.2-49.5C396.8,141.1,380.2,138.9,367.9,138.9L367.9,138.9z"/>
	<path class="st4" d="M314.2,144.4l-0.2,0.1l25.8,14.1l0.1-0.1c0,0,20.9-13.1,42.5-0.6s2.1,23.7,2.1,23.7L345.1,206l25,15.2
		c15-8.5,41.9-23.9,48.6-27.8c14.9-8.6,24.2-32-6.2-49.5c-26.8-15.5-64.6-16.8-98.1,0.4C314.3,144.4,314.2,144.4,314.2,144.4z"/>
	<path class="st1" d="M319,144.5l20.5,11.1c0,0,18.2-11,41.6-1.9L402,141C373.3,127.7,337.9,134.3,319,144.5z"/>
	<path class="st1" d="M406.2,144.3c1.4,0.6,5.5,2.5,9.8,5.7c4.8,3.7,11,9.9,12.8,18.9c1.1,5.6-0.8,11-5.7,16c-3.8,3.8-7.9,6-8,6l0,0
		l0,0l-45,26.1l-18.4-11.3l36.8-21.9l0,0l0,0c0.3-0.2,8.5-5.9,8.4-14.1c-0.1-5.1-3.4-10-9.7-14.4L406.2,144.3 M406.1,142.9
		l-21.2,12.5c22.5,14.3,3,27.6,3,27.6l-38.6,23l20.8,12.8l45.7-26.5c0,0,17.3-8.8,14.3-23.4C426.4,150.5,406.1,142.9,406.1,142.9
		L406.1,142.9z"/>
	<path class="st4" d="M294.3,198.7l0-8.5v-12.1c-0.7,0.1-1.4,0.4-2.1,0.8l-4.8,2.7l-11.6-7.6v15.7l0,0c0.1,0.5,0.4,1,0.9,1.2
		l14.3,8.3c1,0.6,2.1,0.9,3.2,0.9L294.3,198.7L294.3,198.7z"/>
	<path class="st3" d="M330.5,178.5v-15l-11.7,7.2l-3.6-2.1c-1.3-0.8-21,14.1-21,14.1l0,17.2c1.1,0,2.2-0.3,3.2-0.9l32.2-19.1
		c0.6-0.3,0.9-0.9,0.9-1.4l0,0V178.5C330.5,178.5,330.5,178.5,330.5,178.5z"/>
	<path class="st5" d="M276.7,172.8l32.1-19.1c2-1.1,4.4-1.2,6.4,0l14.4,8.3c1.2,0.7,1.2,2.4,0,3.1l-32.2,19.1c-2,1.1-4.4,1.1-6.4,0
		l-14.3-8.3C275.5,175.2,275.5,173.5,276.7,172.8z"/>
	<path class="st1" d="M312,153.3L312,153.3c1.1,0,2.1,0.3,3,0.8l14.4,8.3c0.4,0.2,0.7,0.7,0.7,1.2c0,0.5-0.3,0.9-0.7,1.2l-32.2,19.1
		c-0.9,0.5-2,0.8-3,0.8c-1.1,0-2.1-0.3-3-0.8l-14.3-8.3c-0.4-0.2-0.7-0.7-0.7-1.2c0-0.5,0.3-0.9,0.7-1.2l32.1-19.1
		C309.9,153.6,311,153.3,312,153.3 M312,152.9c-1.1,0-2.2,0.3-3.2,0.9l-32.1,19.1c-1.2,0.7-1.2,2.4,0,3.1l14.3,8.3
		c1,0.6,2.1,0.9,3.2,0.9c1.1,0,2.2-0.3,3.2-0.9l32.2-19.1c1.2-0.7,1.2-2.4,0-3.1l-14.4-8.3C314.3,153.2,313.1,152.9,312,152.9
		L312,152.9z"/>
	<path class="st10" d="M288.7,167.5l25.2-15.1c1.2-0.7,3.7-0.9,4.6,0.7c1.6,3,3.8,7.3,3.8,7.3c1,1.6,1,2.9-0.6,4.1l-25.1,15
		c-1.2,0.7-3.5,0.9-4.4-0.5c-1.3-2.2-4.2-7.9-4.2-7.9C287.2,169.3,288,168,288.7,167.5z"/>
	<path class="st2" d="M316.1,152.3L316.1,152.3c0.6,0,1.6,0.1,2.1,1.1c1.6,2.9,3.8,7.3,3.8,7.3l0,0l0,0c0.9,1.6,0.8,2.6-0.5,3.5
		l-25,15c-0.5,0.3-1.3,0.5-1.9,0.5c-0.5,0-1.4-0.1-1.9-0.9c-1.3-2.1-4.1-7.8-4.2-7.9c-0.8-1.6-0.2-2.7,0.4-3l25.2-15.1
		C314.7,152.5,315.4,152.3,316.1,152.3 M316.1,151.9c-0.8,0-1.6,0.2-2.1,0.5l-25.2,15.1c-0.7,0.4-1.5,1.7-0.6,3.6
		c0,0,2.9,5.7,4.2,7.9c0.5,0.8,1.3,1.1,2.2,1.1c0.8,0,1.6-0.2,2.1-0.6l25.1-15c1.6-1.2,1.6-2.5,0.6-4.1c0,0-2.2-4.4-3.8-7.3
		C318.1,152.2,317.1,151.9,316.1,151.9L316.1,151.9z"/>
	<g>
		<path class="st7" d="M298.3,173.1c-0.1,0.1-0.2,0.1-0.3,0l-0.7-0.2c-0.1,0-0.2,0-0.3,0l-0.5-0.8c0.4-0.3,0.6-1,0.3-1.5l-0.2,0.1
			c0.2,0.4,0.1,0.9-0.2,1.2l-0.9-1.7l0.2-0.1l0,0c0,0,0.1-1,0.1-1.2c0-0.4-0.2-1.6-0.2-1.8c0-0.1,0.2-0.2,0.3-0.2
			c0.2,0.1,0.3,0.4,0.4,0.6c0,0.1,0.1,0.1,0.1,0.1c0.2,0.4,0.4,1.6,0.4,1.6l0,0.1l0.5-0.3l-0.1-0.2l-0.3,0.2
			c-0.1-0.3-0.2-1.2-0.4-1.5c0,0,0-0.1-0.1-0.1c-0.1-0.2-0.3-0.6-0.5-0.7c-0.1-0.1-0.3,0-0.3,0.1c0,0,0,0,0,0
			c-0.1,0-0.2,0.1-0.2,0.3l0,0c0,0,0.3,1.3,0.2,1.7c0,0.2-0.1,1-0.1,1.2l-0.1,0l-0.2-0.4c0-0.1-0.1-0.1-0.2-0.1l-2.6,1.5l2.3,4.2
			l2.6-1.5c0.1,0,0.1-0.1,0.1-0.2l-0.2-0.5c0.1,0,0.1,0,0.2,0l0.7,0.2c0.1,0.1,0.3,0,0.4,0l1-0.6l-0.1-0.2L298.3,173.1z M294.7,175
			l-2.1-3.8l2.4-1.4l1.8,3.2l-0.1,0.1l0.1,0.2l0.1-0.1l0.2,0.4L294.7,175z"/>
		<path class="st7" d="M300.7,171.2c-0.1-0.1-0.2-0.2-0.3-0.3c0.2-0.2,0.3-0.5,0.2-0.8c-0.1-0.2-0.2-0.3-0.4-0.3
			c0.2-0.2,0.3-0.5,0.1-0.8c-0.1-0.3-0.4-0.4-0.7-0.3c0-0.1,0-0.3-0.1-0.5c-0.2-0.3-0.5-0.4-0.8-0.3l-0.9,0.5
			c-0.3,0.2-0.4,0.5-0.2,0.8c0.1,0.2,0.3,0.3,0.5,0.3c-0.1,0.2-0.1,0.4,0,0.6c0.1,0.2,0.3,0.3,0.5,0.3c-0.1,0.2-0.1,0.4,0,0.6
			c0.1,0.2,0.3,0.3,0.5,0.3c-0.1,0.2-0.1,0.4,0,0.6c0.2,0.3,0.5,0.4,0.8,0.3l0.6-0.3C300.8,171.9,300.9,171.5,300.7,171.2z
			 M297.8,169.3c-0.1-0.2,0-0.5,0.1-0.6l0.9-0.5c0.2-0.1,0.4,0,0.5,0.2c0.1,0.2,0,0.5-0.1,0.6l-0.9,0.5
			C298.2,169.6,298,169.5,297.8,169.3z M298.3,170.2c-0.1-0.2,0-0.5,0.1-0.6l0.9-0.5l0,0l0.3-0.1c0.2-0.1,0.4,0,0.5,0.2
			c0.1,0.2,0,0.5-0.1,0.6l-0.3,0.1l0,0l-0.9,0.5C298.7,170.5,298.4,170.4,298.3,170.2z M298.8,171.1c-0.1-0.2,0-0.5,0.1-0.6l0.9-0.5
			c0.2-0.1,0.4,0,0.5,0.2c0.1,0.2,0,0.5-0.1,0.6l-0.9,0.5C299.2,171.4,298.9,171.3,298.8,171.1z M300.4,171.9l-0.6,0.3
			c-0.2,0.1-0.4,0-0.5-0.2c-0.1-0.2,0-0.5,0.1-0.6l0.6-0.3c0.2-0.1,0.4,0,0.5,0.2C300.7,171.5,300.6,171.8,300.4,171.9z"/>
	</g>
	<g>
		<path class="st7" d="M307.1,167.6c-0.1,0.1-0.2,0.1-0.3,0l-0.7-0.2c-0.1,0-0.2,0-0.3,0l-0.5-0.8c0.4-0.3,0.6-1,0.3-1.5l-0.2,0.1
			c0.2,0.4,0.1,0.9-0.2,1.2l-0.9-1.7l0.2-0.1l0,0c0,0,0.1-1,0.1-1.2c0-0.4-0.2-1.6-0.2-1.8c0-0.1,0.2-0.2,0.3-0.2
			c0.2,0.1,0.3,0.4,0.4,0.6c0,0.1,0.1,0.1,0.1,0.1c0.2,0.4,0.4,1.6,0.4,1.6l0,0.1l0.5-0.3l-0.1-0.2l-0.3,0.2
			c-0.1-0.3-0.2-1.2-0.4-1.5c0,0,0-0.1-0.1-0.1c-0.1-0.2-0.3-0.6-0.5-0.7c-0.1-0.1-0.3,0-0.3,0.1c0,0,0,0,0,0
			c-0.1,0-0.2,0.1-0.2,0.3l0,0c0,0,0.3,1.3,0.2,1.7c0,0.2-0.1,1-0.1,1.2l-0.1,0l-0.2-0.4c0-0.1-0.1-0.1-0.2-0.1l-2.6,1.5l2.3,4.2
			l2.6-1.5c0.1,0,0.1-0.1,0.1-0.2l-0.2-0.5c0.1,0,0.1,0,0.2,0l0.7,0.2c0.1,0.1,0.3,0,0.4,0l1-0.6l-0.1-0.2L307.1,167.6z M306,168.1
			l-2.4,1.4l-2.1-3.8l2.4-1.4l1.8,3.2l-0.1,0.1l0.1,0.2l0.1-0.1L306,168.1z"/>
		<path class="st7" d="M309.6,165.7c-0.1-0.1-0.2-0.2-0.3-0.3c0.2-0.2,0.3-0.5,0.2-0.8c-0.1-0.2-0.2-0.3-0.4-0.3
			c0.2-0.2,0.3-0.5,0.1-0.8c-0.1-0.3-0.4-0.4-0.7-0.3c0-0.1,0-0.3-0.1-0.5c-0.2-0.3-0.5-0.4-0.8-0.3l-0.9,0.5
			c-0.3,0.2-0.4,0.5-0.2,0.8c0.1,0.2,0.3,0.3,0.5,0.3c-0.1,0.2-0.1,0.4,0,0.6c0.1,0.2,0.3,0.3,0.5,0.3c-0.1,0.2-0.1,0.4,0,0.6
			c0.1,0.2,0.3,0.3,0.5,0.3c-0.1,0.2-0.1,0.4,0,0.6c0.2,0.3,0.5,0.4,0.8,0.3l0.6-0.3C309.7,166.4,309.8,166,309.6,165.7z
			 M306.7,163.8c-0.1-0.2,0-0.5,0.1-0.6l0.9-0.5c0.2-0.1,0.4,0,0.5,0.2c0.1,0.2,0,0.5-0.1,0.6l-0.9,0.5
			C307.1,164,306.9,164,306.7,163.8z M307.2,164.7c-0.1-0.2,0-0.5,0.1-0.6l0.9-0.5l0.3-0.1c0.2-0.1,0.4,0,0.5,0.2
			c0.1,0.2,0,0.5-0.1,0.6l-0.3,0.1l0,0l-0.9,0.5C307.6,164.9,307.3,164.9,307.2,164.7z M307.7,165.6c-0.1-0.2,0-0.5,0.1-0.6l0.9-0.5
			c0.2-0.1,0.4,0,0.5,0.2c0.1,0.2,0,0.5-0.1,0.6l-0.9,0.5C308.1,165.9,307.8,165.8,307.7,165.6z M309.3,166.3l-0.6,0.3
			c-0.2,0.1-0.4,0-0.5-0.2c-0.1-0.2,0-0.5,0.1-0.6l0.6-0.3c0.2-0.1,0.4,0,0.5,0.2C309.6,166,309.5,166.2,309.3,166.3z"/>
	</g>
	<g>
		<path class="st7" d="M318.5,160.5c-0.1-0.1-0.2-0.2-0.3-0.3c0.2-0.2,0.3-0.5,0.2-0.8c-0.1-0.2-0.2-0.3-0.4-0.3
			c0.2-0.2,0.3-0.5,0.1-0.8c-0.1-0.3-0.4-0.4-0.7-0.3c0-0.1,0-0.3-0.1-0.5c-0.2-0.3-0.5-0.4-0.8-0.3l-0.9,0.5
			c-0.3,0.2-0.4,0.5-0.2,0.8c0.1,0.2,0.3,0.3,0.5,0.3c-0.1,0.2-0.1,0.4,0,0.6c0.1,0.2,0.3,0.3,0.5,0.3c-0.1,0.2-0.1,0.4,0,0.6
			c0.1,0.2,0.3,0.3,0.5,0.3c-0.1,0.2-0.1,0.4,0,0.6c0.2,0.3,0.5,0.4,0.8,0.3l0.6-0.3C318.6,161.2,318.7,160.8,318.5,160.5z
			 M315.6,158.6c-0.1-0.2,0-0.5,0.1-0.6l0.9-0.5c0.2-0.1,0.4,0,0.5,0.2c0.1,0.2,0,0.5-0.1,0.6l-0.9,0.5
			C316,158.8,315.8,158.8,315.6,158.6z M316.1,159.5c-0.1-0.2,0-0.5,0.1-0.6l0.9-0.5l0,0l0.3-0.1c0.2-0.1,0.4,0,0.5,0.2
			c0.1,0.2,0,0.5-0.1,0.6l-0.3,0.1l0,0l-0.9,0.5C316.5,159.7,316.2,159.7,316.1,159.5z M316.6,160.4c-0.1-0.2,0-0.5,0.1-0.6l0.9-0.5
			c0.2-0.1,0.4,0,0.5,0.2c0.1,0.2,0,0.5-0.1,0.6l-0.3,0.2l-0.6,0.3C317,160.7,316.7,160.6,316.6,160.4z M318.2,161.1l-0.6,0.3
			c-0.2,0.1-0.4,0-0.5-0.2c-0.1-0.2,0-0.5,0.1-0.6l0.6-0.3c0.2-0.1,0.4,0,0.5,0.2C318.5,160.8,318.4,161,318.2,161.1z"/>
		<path class="st7" d="M316,162.4c-0.1,0.1-0.2,0.1-0.3,0l-0.7-0.2c-0.1,0-0.2,0-0.3,0l-0.5-0.8c0.4-0.3,0.6-1,0.3-1.5l-0.2,0.1
			c0.2,0.4,0.1,0.9-0.2,1.2l-0.9-1.7l0.2-0.1l0,0c0,0,0.1-1,0.1-1.2c0-0.4-0.2-1.6-0.2-1.8c0-0.1,0.2-0.2,0.3-0.2
			c0.2,0.1,0.3,0.4,0.4,0.6c0,0.1,0.1,0.1,0.1,0.1c0.2,0.4,0.4,1.6,0.4,1.6l0,0.1l0.5-0.3l-0.1-0.2l-0.3,0.2
			c-0.1-0.3-0.2-1.2-0.4-1.5c0,0,0-0.1-0.1-0.1c-0.1-0.2-0.3-0.6-0.5-0.7c-0.1-0.1-0.3,0-0.3,0.1c0,0,0,0,0,0
			c-0.1,0-0.2,0.1-0.2,0.3l0,0c0,0,0.3,1.3,0.2,1.7c0,0.2-0.1,1-0.1,1.2l-0.1,0l-0.2-0.4c0-0.1-0.1-0.1-0.2-0.1l-2.6,1.5l2.3,4.2
			l2.6-1.5c0.1,0,0.1-0.1,0.1-0.2l-0.2-0.5c0.1,0,0.1,0,0.2,0l0.7,0.2c0.1,0.1,0.3,0,0.4,0l1-0.6l-0.1-0.2L316,162.4z M314.9,162.9
			l-2.4,1.4l-2.1-3.8l2.4-1.4l1.8,3.2l-0.1,0.1l0.1,0.2l0.1-0.1L314.9,162.9z"/>
	</g>
	<path class="st11" d="M327.6,170.4c0.1,0,0.3,0.1,0.3,0.3v5.3c0,0.5-0.3,0.9-0.7,1.2l-28.6,17c0,0-0.1,0-0.2,0
		c-0.1,0-0.3-0.1-0.3-0.3v-5.8c0-0.5,0.3-1,0.7-1.2l28.6-16.5C327.5,170.4,327.5,170.4,327.6,170.4 M327.6,169.6
		c-0.2,0-0.4,0-0.6,0.2l-28.6,16.5c-0.7,0.4-1.1,1.1-1.1,1.9v5.8c0,0.7,0.5,1.1,1.1,1.1c0.2,0,0.4-0.1,0.6-0.2l28.6-17
		c0.7-0.4,1.1-1.1,1.1-1.9v-5.3C328.7,170.1,328.2,169.6,327.6,169.6L327.6,169.6z"/>
	<path class="st4" d="M252.2,205.6l0-4.7c0,0-14-10.4-14.4-10.2l-2.1,1.2l-5.7-3.5v7.4l0,0c0,0.2,0.2,0.5,0.4,0.6l20.1,11.9
		c0.5,0.3,1,0.4,1.5,0.4l0-0.6l0,0L252.2,205.6z"/>
	<path class="st3" d="M255.2,200.2l-3.1,1l0,0.9l0,0l0,0.3l0,6.3c0.5,0,1-0.1,1.5-0.4l23.3-13.8c0.3-0.2,0.4-0.4,0.4-0.7l0,0v-7.1
		L255.2,200.2z"/>
	<path class="st5" d="M230.5,187.9l23.3-13.8c0.9-0.5,2.1-0.5,3,0l20.2,11.9c0.6,0.3,0.6,1.1,0,1.5l-23.3,13.8c-0.9,0.5-2.1,0.5-3,0
		l-20.1-11.9C229.9,189,229.9,188.2,230.5,187.9z"/>
	<path class="st2" d="M235.7,186.6l18-10.7c0.7-0.4,1.6-0.4,2.4,0l15.6,9.2c0.4,0.3,0.4,0.9,0,1.1l-18,10.7c-0.7,0.4-1.6,0.4-2.4,0
		l-15.6-9.2C235.3,187.4,235.3,186.8,235.7,186.6z"/>
	<path class="st1" d="M254.9,176L254.9,176c0.3,0,0.7,0.1,1,0.3l15.6,9.2c0.1,0.1,0.1,0.2,0.1,0.2c0,0,0,0.1-0.1,0.2l-18,10.7
		c-0.3,0.2-0.6,0.3-1,0.3c-0.3,0-0.7-0.1-1-0.3l-15.6-9.2c-0.1-0.1-0.1-0.2-0.1-0.2c0,0,0-0.1,0.1-0.2l18-10.7
		C254.2,176.1,254.6,176,254.9,176 M254.9,175.6c-0.4,0-0.8,0.1-1.2,0.3l-18,10.7c-0.4,0.3-0.4,0.9,0,1.1l15.6,9.2
		c0.4,0.2,0.8,0.3,1.2,0.3c0.4,0,0.8-0.1,1.2-0.3l18-10.7c0.4-0.3,0.4-0.9,0-1.1l-15.6-9.2C255.7,175.7,255.3,175.6,254.9,175.6
		L254.9,175.6z"/>
	<path id="XMLID_4_" class="st7" d="M257.1,182.5c-1.7-1-4.3-1.1-5.8-0.2c-0.7,0.4-1.1,1-1,1.6c-1.1-0.1-2.1,0.1-2.8,0.6
		c-1.5,0.9-1.3,2.3,0.4,3.3c0.8,0.5,1.9,0.7,2.9,0.8l8.2,0.3l-0.6-4.9c0-0.1-0.1-0.2-0.1-0.2C258.2,183.4,257.7,182.9,257.1,182.5z"
		/>
	<path class="st4" d="M265.6,216l0-4v-5.7c-0.3,0.1-0.7,0.2-1,0.4l-2.2,1.3l-5.5-3.6v7.4l0,0c0,0.2,0.2,0.5,0.4,0.6l6.8,3.9
		c0.5,0.3,1,0.4,1.5,0.4L265.6,216L265.6,216z"/>
	<path class="st3" d="M290.8,201.7v-7.1l-17.2,10.5l-5.9,1.5c-0.6-0.4-1.4-0.5-2.1-0.4v3.8l0,0l0,1.9v4.7c0.5,0,1-0.1,1.5-0.4
		l23.3-13.8C290.6,202.3,290.8,202,290.8,201.7L290.8,201.7L290.8,201.7C290.8,201.7,290.8,201.7,290.8,201.7z"/>
	<path class="st5" d="M257.3,203.8l23.3-13.8c0.9-0.5,2.1-0.5,3,0l6.8,3.9c0.6,0.3,0.6,1.1,0,1.5l-23.3,13.8c-0.9,0.5-2.1,0.5-3,0
		l-6.8-3.9C256.7,204.9,256.7,204.1,257.3,203.8z"/>
	<path class="st2" d="M259.7,198.5l19.9-11.8c0.8-0.5,1.8-0.5,2.6,0l5.8,3.3c0.5,0.3,0.5,1,0,1.3l-19.9,11.8c-0.8,0.5-1.8,0.5-2.6,0
		l-5.8-3.3C259.2,199.4,259.2,198.7,259.7,198.5z"/>
	<path class="st1" d="M280.9,186.8L280.9,186.8c0.4,0,0.8,0.1,1.1,0.3l5.8,3.3c0.1,0.1,0.1,0.2,0.1,0.3c0,0.1,0,0.2-0.2,0.3
		l-19.9,11.8c-0.3,0.2-0.7,0.3-1.1,0.3c-0.4,0-0.8-0.1-1.1-0.3l-5.8-3.3c-0.1-0.1-0.1-0.2-0.1-0.3c0-0.1,0-0.2,0.2-0.3l19.9-11.8
		C280.1,186.9,280.5,186.8,280.9,186.8 M280.9,186.3c-0.4,0-0.9,0.1-1.3,0.3l-19.9,11.8c-0.5,0.3-0.5,1,0,1.2l5.8,3.3
		c0.4,0.2,0.9,0.3,1.3,0.3c0.4,0,0.9-0.1,1.3-0.3l19.9-11.8c0.5-0.3,0.5-1,0-1.3l-5.8-3.3C281.8,186.5,281.3,186.3,280.9,186.3
		L280.9,186.3z"/>
	<path class="st4" d="M268.5,313.3l0-4.4l-16.4-9.3l-5.7-3.5v7.4l0,0c0,0.2,0.2,0.5,0.4,0.6L267,316c0.5,0.3,1,0.4,1.5,0.4l0-0.6
		l0,0L268.5,313.3z"/>
	<path class="st3" d="M271.6,307.9l-3.1,1l0,0.9l0,0l0,0.3l0,6.3c0.5,0,1-0.1,1.5-0.4l23.3-13.8c0.3-0.2,0.4-0.4,0.4-0.7l0,0v-7.1
		L271.6,307.9z"/>
	<path class="st6" d="M246.9,295.6l23.3-13.8c0.9-0.5,2.1-0.5,3,0l20.2,11.9c0.6,0.3,0.6,1.1,0,1.5L270,308.9c-0.9,0.5-2.1,0.5-3,0
		L246.9,297C246.3,296.7,246.3,295.9,246.9,295.6z"/>
	<path class="st2" d="M271.6,282.2L271.6,282.2c0.4,0,0.8,0.1,1.1,0.3l20.2,11.9l-23.3,13.8c-0.3,0.2-0.7,0.3-1.1,0.3
		c-0.4,0-0.8-0.1-1.1-0.3l-20.1-11.9l23.2-13.8C270.9,282.3,271.3,282.2,271.6,282.2 M271.6,281.4c-0.5,0-1.1,0.1-1.5,0.4
		l-23.3,13.8c-0.6,0.3-0.6,1.1,0,1.5l20.1,11.9c0.5,0.3,1,0.4,1.5,0.4c0.5,0,1-0.1,1.5-0.4l23.3-13.8c0.6-0.3,0.6-1.1,0-1.5
		l-20.2-11.9C272.7,281.5,272.2,281.4,271.6,281.4L271.6,281.4z"/>
	<path class="st4" d="M301.8,333.3l0-4.4l-16.4-9.3l-5.7-3.5v7.4l0,0c0,0.2,0.2,0.5,0.4,0.6l20.1,11.9c0.5,0.3,1,0.4,1.5,0.4l0-0.6
		l0,0L301.8,333.3z"/>
	<path class="st3" d="M304.8,327.9l-3.1,1l0,0.9l0,0l0,0.3l0,6.3c0.5,0,1-0.1,1.5-0.4l23.3-13.8c0.3-0.2,0.4-0.4,0.4-0.7l0,0v-7.1
		L304.8,327.9z"/>
	<path class="st6" d="M280.2,315.5l23.3-13.8c0.9-0.5,2.1-0.5,3,0l20.2,11.9c0.6,0.3,0.6,1.1,0,1.5l-23.3,13.8c-0.9,0.5-2.1,0.5-3,0
		L280.2,317C279.6,316.7,279.6,315.9,280.2,315.5z"/>
	<path class="st2" d="M304.9,302.2L304.9,302.2c0.4,0,0.8,0.1,1.1,0.3l20.2,11.9l-23.3,13.8c-0.3,0.2-0.7,0.3-1.1,0.3
		c-0.4,0-0.8-0.1-1.1-0.3l-20.1-11.9l23.2-13.8C304.2,302.3,304.5,302.2,304.9,302.2 M304.9,301.4c-0.5,0-1.1,0.1-1.5,0.4
		l-23.3,13.8c-0.6,0.3-0.6,1.1,0,1.5l20.1,11.9c0.5,0.3,1,0.4,1.5,0.4c0.5,0,1-0.1,1.5-0.4l23.3-13.8c0.6-0.3,0.6-1.1,0-1.5
		l-20.2-11.9C306,301.5,305.4,301.4,304.9,301.4L304.9,301.4z"/>
	<path class="st4" d="M580.6,216.8l0-4.7c0,0-21.6-11.8-44.1-24l-54.9-31.4v7.4l0,0c0,0.2,0.2,0.5,0.4,0.6l97.1,54.7
		c0.5,0.3,1,0.4,1.5,0.4l0-0.6l0,0L580.6,216.8z"/>
	<path class="st3" d="M583.6,211.4l-3.1,1l0,0.9l0,0l0,0.3l0,6.3c0.5,0,1-0.1,1.5-0.4l23.3-13.8c0.3-0.2,0.4-0.4,0.4-0.7l0,0v-7.1
		L583.6,211.4z"/>
	<g>
		<path class="st2" d="M482,156.2l23.3-13.8c0.9-0.5,2.1-0.5,3,0l97.1,54.7c0.6,0.3,0.6,1.1,0,1.5l-23.3,13.8c-0.9,0.5-2.1,0.5-3,0
			L482,157.7C481.5,157.4,481.5,156.6,482,156.2z"/>
	</g>
	<path class="st1" d="M506.8,142.9L506.8,142.9c0.4,0,0.8,0.1,1.1,0.3l97.1,54.7l-23.3,13.8c-0.3,0.2-0.7,0.3-1.1,0.3
		c-0.4,0-0.8-0.1-1.1-0.3l-97-54.7l23.2-13.8C506,143,506.4,142.9,506.8,142.9 M506.8,142.1c-0.5,0-1.1,0.1-1.5,0.4L482,156.2
		c-0.6,0.3-0.6,1.1,0,1.5l97.1,54.7c0.5,0.3,1,0.4,1.5,0.4c0.5,0,1-0.1,1.5-0.4l23.3-13.8c0.6-0.3,0.6-1.1,0-1.5l-97.1-54.7
		C507.8,142.2,507.3,142.1,506.8,142.1L506.8,142.1z"/>
	<path class="st3" d="M360.2,241.8V235l-17.1,10.4l-7.3,1.9l0,2.6l0,0l0,3.2l0,3.2c0.5,0,1-0.1,1.5-0.4l22.5-13.3
		C360.1,242.4,360.2,242.2,360.2,241.8L360.2,241.8L360.2,241.8L360.2,241.8z"/>
	<path class="st4" d="M335.9,256.3l0-8.3l-40.4-22.4l-14.8-11c-0.3,0.1-0.6,0.2-0.9,0.3l-1.7,1l-5.8-3.2v7.2l0,0
		c0,0.2,0.2,0.4,0.4,0.6l61.8,35.5C334.8,256.2,335.3,256.3,335.9,256.3L335.9,256.3L335.9,256.3z"/>
	<path class="st5" d="M272.6,212.2l22.5-13.3c0.9-0.5,2-0.5,2.9,0l61.8,35.5c0.5,0.3,0.5,1.1,0,1.4l-22.5,13.3c-0.9,0.5-2,0.5-2.9,0
		l-61.8-35.5C272,213.3,272,212.5,272.6,212.2z"/>
	<path class="st1" d="M296.5,198.9L296.5,198.9c0.4,0,0.9,0.1,1.3,0.3l61.8,35.5c0.2,0.1,0.2,0.3,0.2,0.3c0,0.1,0,0.2-0.2,0.3
		l-22.5,13.3c-0.4,0.2-0.8,0.3-1.3,0.3c-0.4,0-0.9-0.1-1.3-0.3l-61.8-35.5c-0.2-0.1-0.2-0.3-0.2-0.3c0-0.1,0-0.2,0.2-0.3l22.5-13.3
		C295.7,199,296.1,198.9,296.5,198.9 M296.5,198.5c-0.5,0-1,0.1-1.5,0.4l-22.5,13.3c-0.5,0.3-0.5,1.1,0,1.4l61.8,35.5
		c0.5,0.3,1,0.4,1.5,0.4c0.5,0,1-0.1,1.5-0.4l22.5-13.3c0.5-0.3,0.5-1.1,0-1.4L298,198.8C297.6,198.6,297,198.5,296.5,198.5
		L296.5,198.5z"/>
	<path class="st1" d="M280.2,210.6l19.3-11.4c0.8-0.5,1.7-0.5,2.5,0l53,30.4c0.5,0.3,0.5,0.9,0,1.2l-19.3,11.4
		c-0.8,0.5-1.7,0.5-2.5,0l-53-30.4C279.8,211.6,279.8,210.9,280.2,210.6z"/>
	<path class="st3" d="M312.9,193.8l12.4-7.3c0.5-0.3,1.1-0.3,1.6,0l10.7,6.3c0.3,0.2,0.3,0.6,0,0.8l-12.4,7.3
		c-0.5,0.3-1.1,0.3-1.6,0l-10.7-6.3C312.6,194.4,312.6,194,312.9,193.8z"/>
	<path class="st5" d="M312.9,189.7l12.4-7.3c0.5-0.3,1.1-0.3,1.6,0l10.7,6.3c0.3,0.2,0.3,0.6,0,0.8l-12.4,7.3
		c-0.5,0.3-1.1,0.3-1.6,0l-10.7-6.3C312.6,190.3,312.6,189.8,312.9,189.7z"/>
	
		<ellipse transform="matrix(5.951955e-02 -0.9982 0.9982 5.951955e-02 171.9671 474.8018)" class="st5" cx="338" cy="146.1" rx="2.7" ry="4.7"/>
	<path class="st2" d="M337.6,143.9L337.6,143.9c2,0,3.9,0.8,4.5,1.8c0.2,0.4,0.2,0.8,0,1.1c-0.4,0.7-1.4,1.3-2.8,1.5
		c-0.3,0-0.7,0.1-1,0.1c-2,0-3.9-0.8-4.5-1.8c-0.2-0.4-0.2-0.8,0-1.1c0.4-0.7,1.4-1.3,2.8-1.5C336.9,143.9,337.3,143.9,337.6,143.9
		 M337.6,143.5c-0.4,0-0.7,0-1.1,0.1c-2.5,0.3-3.9,1.8-3.1,3.2c0.7,1.2,2.7,2.1,4.8,2.1c0.4,0,0.7,0,1.1-0.1
		c2.5-0.3,3.9-1.8,3.1-3.2C341.8,144.3,339.8,143.5,337.6,143.5L337.6,143.5z"/>
	<path class="st7" d="M337.8,147.2c0,0-0.1,0-0.1,0l-1.7-0.6c-0.2-0.1-0.3-0.3-0.3-0.5s0.3-0.3,0.5-0.3l1.4,0.5l1.3-1.4
		c0.2-0.2,0.4-0.2,0.6,0c0.2,0.2,0.2,0.4,0,0.6l-1.5,1.6C338.1,147.1,337.9,147.2,337.8,147.2z"/>
	
		<ellipse transform="matrix(5.951955e-02 -0.9982 0.9982 5.951955e-02 189.8045 484.9395)" class="st5" cx="352.3" cy="141.7" rx="2.7" ry="4.7"/>
	<path class="st2" d="M351.9,139.5L351.9,139.5c2,0,3.9,0.8,4.5,1.8c0.2,0.4,0.2,0.8,0,1.1c-0.4,0.7-1.4,1.3-2.8,1.5
		c-0.3,0-0.7,0.1-1,0.1c-2,0-3.9-0.8-4.5-1.8c-0.2-0.4-0.2-0.8,0-1.1c0.4-0.7,1.4-1.3,2.8-1.5C351.2,139.5,351.6,139.5,351.9,139.5
		 M351.9,139.1c-0.4,0-0.7,0-1.1,0.1c-2.5,0.3-3.9,1.8-3.1,3.2c0.7,1.2,2.7,2.1,4.8,2.1c0.4,0,0.7,0,1.1-0.1
		c2.5-0.3,3.9-1.8,3.1-3.2C356.1,139.9,354.1,139.1,351.9,139.1L351.9,139.1z"/>
	<path class="st7" d="M352.1,142.8c0,0-0.1,0-0.1,0l-1.7-0.6c-0.2-0.1-0.3-0.3-0.3-0.5c0.1-0.2,0.3-0.3,0.5-0.3l1.4,0.5l1.3-1.4
		c0.2-0.2,0.4-0.2,0.6,0c0.2,0.2,0.2,0.4,0,0.6l-1.5,1.6C352.4,142.8,352.2,142.8,352.1,142.8z"/>
	
		<ellipse transform="matrix(5.951955e-02 -0.9982 0.9982 5.951955e-02 205.5717 500.4085)" class="st5" cx="368.4" cy="141.1" rx="2.7" ry="4.7"/>
	<path class="st2" d="M368,138.8L368,138.8c2,0,3.9,0.8,4.5,1.8c0.2,0.4,0.2,0.8,0,1.1c-0.4,0.7-1.4,1.3-2.8,1.5
		c-0.3,0-0.7,0.1-1,0.1c-2,0-3.9-0.8-4.5-1.8c-0.2-0.4-0.2-0.8,0-1.1c0.4-0.7,1.4-1.3,2.8-1.5C367.3,138.9,367.7,138.8,368,138.8
		 M368,138.4c-0.4,0-0.7,0-1.1,0.1c-2.5,0.3-3.9,1.8-3.1,3.2c0.7,1.2,2.7,2.1,4.8,2.1c0.4,0,0.7,0,1.1-0.1c2.5-0.3,3.9-1.8,3.1-3.2
		C372.2,139.3,370.1,138.4,368,138.4L368,138.4z"/>
	<path class="st7" d="M368.2,142.2c0,0-0.1,0-0.1,0l-1.7-0.6c-0.2-0.1-0.3-0.3-0.3-0.5c0.1-0.2,0.3-0.3,0.5-0.3l1.4,0.5l1.3-1.4
		c0.2-0.2,0.4-0.2,0.6,0c0.2,0.2,0.2,0.4,0,0.6l-1.5,1.6C368.4,142.1,368.3,142.2,368.2,142.2z"/>
	
		<ellipse transform="matrix(5.951955e-02 -0.9982 0.9982 5.951955e-02 217.7476 517.7161)" class="st5" cx="383.6" cy="143.3" rx="2.7" ry="4.7"/>
	<path class="st2" d="M383.3,141L383.3,141c2,0,3.9,0.8,4.5,1.8c0.2,0.4,0.2,0.8,0,1.1c-0.4,0.7-1.4,1.3-2.8,1.5
		c-0.3,0-0.7,0.1-1,0.1c-2,0-3.9-0.8-4.5-1.8c-0.2-0.4-0.2-0.8,0-1.1c0.4-0.7,1.4-1.3,2.8-1.5C382.6,141.1,382.9,141,383.3,141
		 M383.3,140.6c-0.4,0-0.7,0-1.1,0.1c-2.5,0.3-3.9,1.8-3.1,3.2c0.7,1.2,2.7,2.1,4.8,2.1c0.4,0,0.7,0,1.1-0.1
		c2.5-0.3,3.9-1.8,3.1-3.2C387.4,141.4,385.4,140.6,383.3,140.6L383.3,140.6z"/>
	<path class="st7" d="M383.5,144.4c0,0-0.1,0-0.1,0l-1.7-0.6c-0.2-0.1-0.3-0.3-0.3-0.5c0.1-0.2,0.3-0.3,0.5-0.3l1.4,0.5l1.3-1.4
		c0.2-0.2,0.4-0.2,0.6,0c0.2,0.2,0.2,0.4,0,0.6l-1.5,1.6C383.7,144.3,383.6,144.4,383.5,144.4z"/>
	
		<ellipse transform="matrix(5.951955e-02 -0.9982 0.9982 5.951955e-02 225.1555 551.8588)" class="st2" cx="405.4" cy="156.4" rx="6.5" ry="11.5"/>
	<g>
		<defs>
			
				<ellipse id="SVGID_1_" transform="matrix(5.951955e-02 -0.9982 0.9982 5.951955e-02 225.1555 551.8588)" cx="405.4" cy="156.4" rx="6.5" ry="11.5"/>
		</defs>
		<use xlink:href="#SVGID_1_"  style="overflow:visible;fill:#FFFFFF;"/>
		<clipPath id="SVGID_2_">
			<use xlink:href="#SVGID_1_"  style="overflow:visible;"/>
		</clipPath>
		<path class="st12" d="M415.6,149.4l-20.4-0.9v9.9l0,0c0,0.6,0.1,1.3,0.5,1.9c1.7,3.1,7.4,5,12.8,4.3c4.3-0.6,7.1-2.7,7.1-5.2l0,0
			V149.4z"/>
	</g>
	<path class="st5" d="M415.6,149.4l-20.4-0.9v6.7l0,0c0,0.6,0.1,1.3,0.5,1.9c1.7,3.1,7.4,5,12.8,4.3c4.3-0.6,7.1-2.7,7.1-5.2l0,0
		V149.4z"/>
	
		<ellipse transform="matrix(5.951955e-02 -0.9982 0.9982 5.951955e-02 232.4852 544.9531)" class="st1" cx="405.4" cy="149.1" rx="5.8" ry="10.2"/>
	<polygon class="st3" points="408.1,147.8 401.3,147.7 405,151.1 406.2,149.9 408.1,150.5 408.9,149.7 406.9,149.1 	"/>
	<path class="st7" d="M405,151.4l-4.2-3.9l7.8,0.1l-1.3,1.3l1.9,0.6l-1.1,1.2l-1.9-0.6L405,151.4z M401.9,147.9l3.1,2.9l1.1-1.2
		l1.9,0.6l0.5-0.5l-1.9-0.6l1.1-1.1L401.9,147.9z"/>
	
		<ellipse transform="matrix(5.951955e-02 -0.9982 0.9982 5.951955e-02 216.9086 572.4188)" class="st2" cx="412.2" cy="171.1" rx="6.5" ry="11.5"/>
	<g>
		<defs>
			
				<ellipse id="SVGID_3_" transform="matrix(5.951955e-02 -0.9982 0.9982 5.951955e-02 216.9086 572.4188)" cx="412.2" cy="171.1" rx="6.5" ry="11.5"/>
		</defs>
		<use xlink:href="#SVGID_3_"  style="overflow:visible;fill:#FFFFFF;"/>
		<clipPath id="SVGID_4_">
			<use xlink:href="#SVGID_3_"  style="overflow:visible;"/>
		</clipPath>
		<path class="st13" d="M422.4,164.1l-20.4-0.9v9.9l0,0c0,0.6,0.1,1.3,0.5,1.9c1.7,3.1,7.4,5,12.8,4.3c4.3-0.6,7.1-2.7,7.1-5.2l0,0
			V164.1z"/>
	</g>
	<path class="st5" d="M422.4,164.1l-20.4-0.9v6.7l0,0c0,0.6,0.1,1.3,0.5,1.9c1.7,3.1,7.4,5,12.8,4.3c4.3-0.6,7.1-2.7,7.1-5.2l0,0
		V164.1z"/>
	
		<ellipse transform="matrix(5.951955e-02 -0.9982 0.9982 5.951955e-02 224.2383 565.5132)" class="st1" cx="412.2" cy="163.8" rx="5.8" ry="10.2"/>
	<polygon class="st3" points="414.9,162.5 408.1,162.4 411.8,165.8 412.9,164.5 414.9,165.2 415.7,164.4 413.7,163.7 	"/>
	<path class="st7" d="M411.8,166.1l-4.2-3.9l7.8,0.1l-1.3,1.3l1.9,0.6l-1.1,1.2l-1.9-0.6L411.8,166.1z M408.7,162.6l3.1,2.9l1.1-1.2
		l1.9,0.6l0.5-0.5l-1.9-0.6l1.1-1.1L408.7,162.6z"/>
	
		<ellipse transform="matrix(5.951955e-02 -0.9982 0.9982 5.951955e-02 194.5153 577.5289)" class="st2" cx="403.8" cy="185.5" rx="6.5" ry="11.5"/>
	<g>
		<defs>
			
				<ellipse id="SVGID_5_" transform="matrix(5.951955e-02 -0.9982 0.9982 5.951955e-02 194.5153 577.5289)" cx="403.8" cy="185.5" rx="6.5" ry="11.5"/>
		</defs>
		<use xlink:href="#SVGID_5_"  style="overflow:visible;fill:#FFFFFF;"/>
		<clipPath id="SVGID_6_">
			<use xlink:href="#SVGID_5_"  style="overflow:visible;"/>
		</clipPath>
		<path class="st14" d="M413.9,178.5l-20.4-0.9v9.9l0,0c0,0.6,0.1,1.3,0.5,1.9c1.7,3.1,7.4,5,12.8,4.3c4.3-0.6,7.1-2.7,7.1-5.2l0,0
			V178.5z"/>
	</g>
	<path class="st5" d="M413.9,178.5l-20.4-0.9v6.7l0,0c0,0.6,0.1,1.3,0.5,1.9c1.7,3.1,7.4,5,12.8,4.3c4.3-0.6,7.1-2.7,7.1-5.2l0,0
		V178.5z"/>
	
		<ellipse transform="matrix(5.951955e-02 -0.9982 0.9982 5.951955e-02 201.845 570.6232)" class="st1" cx="403.8" cy="178.2" rx="5.8" ry="10.2"/>
	<polygon class="st3" points="406.4,176.9 399.7,176.8 403.3,180.2 404.5,179 406.4,179.6 407.2,178.8 405.2,178.1 	"/>
	<path class="st7" d="M403.3,180.5l-4.2-3.9l7.8,0.1l-1.3,1.3l1.9,0.6l-1.1,1.2l-1.9-0.6L403.3,180.5z M400.2,177l3.1,2.9l1.1-1.2
		l1.9,0.6l0.5-0.5l-1.9-0.6l1.1-1.1L400.2,177z"/>
	
		<ellipse transform="matrix(5.951955e-02 -0.9982 0.9982 5.951955e-02 168.1579 571.2993)" class="st2" cx="387.3" cy="196.4" rx="6.5" ry="11.5"/>
	<g>
		<defs>
			
				<ellipse id="SVGID_7_" transform="matrix(5.951955e-02 -0.9982 0.9982 5.951955e-02 168.1579 571.2993)" cx="387.3" cy="196.4" rx="6.5" ry="11.5"/>
		</defs>
		<use xlink:href="#SVGID_7_"  style="overflow:visible;fill:#FFFFFF;"/>
		<clipPath id="SVGID_8_">
			<use xlink:href="#SVGID_7_"  style="overflow:visible;"/>
		</clipPath>
		<path class="st15" d="M397.5,189.4l-20.4-0.9v9.9l0,0c0,0.6,0.1,1.3,0.5,1.9c1.7,3.1,7.4,5,12.8,4.3c4.3-0.6,7.1-2.7,7.1-5.2l0,0
			V189.4z"/>
	</g>
	<path class="st5" d="M397.5,189.4l-20.4-0.9v6.7l0,0c0,0.6,0.1,1.3,0.5,1.9c1.7,3.1,7.4,5,12.8,4.3c4.3-0.6,7.1-2.7,7.1-5.2l0,0
		V189.4z"/>
	
		<ellipse transform="matrix(5.951955e-02 -0.9982 0.9982 5.951955e-02 175.4876 564.3936)" class="st1" cx="387.3" cy="189.1" rx="5.8" ry="10.2"/>
	<polygon class="st3" points="389.9,187.8 383.2,187.7 386.8,191.1 388,189.8 389.9,190.5 390.7,189.7 388.8,189 	"/>
	<path class="st7" d="M386.8,191.4l-4.2-3.9l7.8,0.1l-1.3,1.3l1.9,0.6l-1.1,1.2l-1.9-0.6L386.8,191.4z M383.7,187.9l3.1,2.9l1.1-1.2
		l1.9,0.6l0.5-0.5l-1.9-0.6l1.1-1.1L383.7,187.9z"/>
	
		<ellipse transform="matrix(5.951955e-02 -0.9982 0.9982 5.951955e-02 142.3687 563.6208)" class="st2" cx="370.3" cy="206.3" rx="6.5" ry="11.5"/>
	<g>
		<defs>
			
				<ellipse id="SVGID_9_" transform="matrix(5.951955e-02 -0.9982 0.9982 5.951955e-02 142.3687 563.6208)" cx="370.3" cy="206.3" rx="6.5" ry="11.5"/>
		</defs>
		<use xlink:href="#SVGID_9_"  style="overflow:visible;fill:#FFFFFF;"/>
		<clipPath id="SVGID_10_">
			<use xlink:href="#SVGID_9_"  style="overflow:visible;"/>
		</clipPath>
		<path class="st16" d="M380.5,199.2l-20.4-0.9v9.9l0,0c0,0.6,0.1,1.3,0.5,1.9c1.7,3.1,7.4,5,12.8,4.3c4.3-0.6,7.1-2.7,7.1-5.2l0,0
			V199.2z"/>
	</g>
	<path class="st5" d="M380.5,199.2l-20.4-0.9v6.7l0,0c0,0.6,0.1,1.3,0.5,1.9c1.7,3.1,7.4,5,12.8,4.3c4.3-0.6,7.1-2.7,7.1-5.2l0,0
		V199.2z"/>
	
		<ellipse transform="matrix(5.951955e-02 -0.9982 0.9982 5.951955e-02 149.6984 556.7152)" class="st1" cx="370.3" cy="198.9" rx="5.8" ry="10.2"/>
	<polygon class="st3" points="373,197.6 366.2,197.5 369.8,200.9 371,199.7 372.9,200.3 373.7,199.5 371.8,198.9 	"/>
	<path class="st7" d="M369.8,201.2l-4.2-3.9l7.8,0.1l-1.3,1.3l1.9,0.6l-1.1,1.2l-1.9-0.6L369.8,201.2z M366.7,197.8l3.1,2.9l1.1-1.2
		l1.9,0.6l0.5-0.5l-1.9-0.6l1.1-1.1L366.7,197.8z"/>
	<path class="st3" d="M320.6,210.9l-6.9,4.6l-5.1-3.5l0.1,8.7l0,1l0,0l0,1.1c0.7,0,1.4-0.2,2.1-0.6l9.2-5.3c0.3-0.2,0.5-0.5,0.6-0.8
		l0,0V210.9z"/>
	<path class="st4" d="M301.8,212l-1.3-3c-0.9-0.2-1.9,0-2.8,0.5l-0.8,0.5l-9-3.8v4.8c0,0,0,0,0,0v0.1l0,0c0,0.4,0.2,0.7,0.6,0.9
		l18.2,10.4c0.6,0.4,1.3,0.6,2.1,0.6l0-8L301.8,212z"/>
	<path class="st5" d="M320.1,210.2l-18.2-10.4c-1.3-0.7-2.9-0.7-4.1,0l-9.2,5.3c-0.8,0.4-0.8,1.5,0,2l18.2,10.4
		c1.3,0.7,2.9,0.7,4.1,0l9.2-5.3C320.8,211.8,320.8,210.7,320.1,210.2z"/>
	<path class="st1" d="M299.8,200.1c0.6,0,1.1,0.2,1.7,0.4l18.2,10.4c0.1,0.1,0.2,0.2,0.2,0.3s0,0.2-0.2,0.3l-9.2,5.3
		c-0.5,0.3-1.1,0.4-1.6,0.4c-0.6,0-1.1-0.2-1.6-0.4l-18.2-10.4c-0.1-0.1-0.2-0.2-0.2-0.3c0-0.1,0-0.2,0.2-0.3l9.2-5.3
		C298.6,200.3,299.2,200.1,299.8,200.1 M299.8,199.3c-0.7,0-1.4,0.2-2.1,0.6l-9.2,5.3c-0.8,0.4-0.8,1.5,0,2l18.2,10.4
		c0.6,0.4,1.4,0.6,2.1,0.6c0.7,0,1.4-0.2,2.1-0.6l9.2-5.3c0.8-0.4,0.8-1.5,0-2l-18.2-10.4C301.2,199.5,300.5,199.3,299.8,199.3
		L299.8,199.3z"/>
	<path class="st3" d="M320.6,206.3l-6.9,4.6l-5.1-3.5l0.1,5.5l0,1l0,0l0,1.1c0.7,0,1.4-0.2,2.1-0.6l9.2-5.3c0.3-0.2,0.5-0.5,0.6-0.8
		l0,0V206.3z"/>
	<path class="st4" d="M301.8,207.4l-1.3-3c-0.9-0.2-1.9,0-2.8,0.5l-0.8,0.5l-9-3.8v1.5c0,0,0,0,0,0v0.1l0,0c0,0.4,0.2,0.7,0.6,0.9
		l18.2,10.4c0.6,0.4,1.3,0.6,2.1,0.6l0-4.8L301.8,207.4z"/>
	<path class="st2" d="M320,205.6l-18.2-10.4c-1.3-0.7-2.9-0.7-4.1,0l-9.2,5.3c-0.8,0.4-0.8,1.5,0,2l18.2,10.4c1.3,0.7,2.9,0.7,4.1,0
		l9.2-5.3C320.8,207.2,320.8,206.1,320,205.6z"/>
	<path class="st6" d="M303.5,206.4l5.5-3.3c0.2-0.1,0.5-0.1,0.7,0l1.6,0.9c0.1,0.1,0.1,0.3,0,0.3l-5.5,3.3c-0.2,0.1-0.5,0.1-0.7,0
		l-1.6-0.9C303.3,206.7,303.3,206.5,303.5,206.4z"/>
	<path class="st7" d="M300.1,204.3l5.5-3.3c0.2-0.1,0.5-0.1,0.7,0l1.6,0.9c0.1,0.1,0.1,0.3,0,0.3l-5.5,3.3c-0.2,0.1-0.5,0.1-0.7,0
		l-1.6-0.9C300,204.6,300,204.4,300.1,204.3z"/>
	<path class="st3" d="M307.1,208.5l2.9-1.7c0.2-0.1,0.5-0.1,0.7,0l1.6,0.9c0.1,0.1,0.1,0.3,0,0.3l-2.9,1.7c-0.2,0.1-0.5,0.1-0.7,0
		l-1.6-0.9C307,208.7,307,208.5,307.1,208.5z"/>
	<path class="st1" d="M299.8,195.1c0.7,0,1.3,0.2,1.9,0.5l18.2,10.4c0.2,0.1,0.4,0.4,0.4,0.6c0,0.3-0.1,0.5-0.4,0.6l-9.2,5.3
		c-0.6,0.3-1.2,0.5-1.9,0.5c-0.7,0-1.3-0.2-1.9-0.5l-18.2-10.4c-0.2-0.1-0.4-0.4-0.4-0.6s0.1-0.5,0.4-0.6l9.2-5.3
		C298.5,195.3,299.1,195.1,299.8,195.1 M299.8,194.7c-0.7,0-1.4,0.2-2.1,0.6l-9.2,5.3c-0.8,0.4-0.8,1.5,0,2l18.2,10.4
		c0.6,0.4,1.4,0.6,2.1,0.6c0.7,0,1.4-0.2,2.1-0.6l9.2-5.3c0.8-0.4,0.8-1.5,0-2l-18.2-10.4C301.2,194.9,300.5,194.7,299.8,194.7
		L299.8,194.7z"/>
	<path class="st3" d="M346.9,225.5l-6.9,4.6l-5.1-3.5l0.1,8.7l0,1l0,0l0,1.1c0.7,0,1.4-0.2,2.1-0.6l9.2-5.3c0.3-0.2,0.5-0.5,0.6-0.8
		l0,0V225.5z"/>
	<path class="st4" d="M328.2,226.5l-1.3-3c-0.9-0.2-1.9,0-2.8,0.5l-0.8,0.5l-9-3.8v4.8v0v0.1l0,0c0,0.4,0.2,0.7,0.6,0.9l18.2,10.4
		c0.6,0.4,1.3,0.6,2.1,0.6l0-8L328.2,226.5z"/>
	<path class="st5" d="M346.4,224.8l-18.2-10.4c-1.3-0.7-2.9-0.7-4.1,0l-9.2,5.3c-0.8,0.4-0.8,1.5,0,2l18.2,10.4
		c1.3,0.7,2.9,0.7,4.1,0l9.2-5.3C347.1,226.3,347.1,225.2,346.4,224.8z"/>
	<path class="st1" d="M326.1,214.7c0.6,0,1.1,0.2,1.7,0.4l18.2,10.4c0.1,0.1,0.2,0.2,0.2,0.3c0,0.1,0,0.2-0.2,0.3l-9.2,5.3
		c-0.5,0.3-1.1,0.4-1.6,0.4c-0.6,0-1.1-0.2-1.6-0.4L315.2,221c-0.1-0.1-0.2-0.2-0.2-0.3c0-0.1,0-0.2,0.2-0.3l9.2-5.3
		C325,214.8,325.5,214.7,326.1,214.7 M326.1,213.9c-0.7,0-1.4,0.2-2.1,0.6l-9.2,5.3c-0.8,0.4-0.8,1.5,0,2l18.2,10.4
		c0.6,0.4,1.4,0.6,2.1,0.6c0.7,0,1.4-0.2,2.1-0.6l9.2-5.3c0.8-0.4,0.8-1.5,0-2l-18.2-10.4C327.5,214,326.8,213.9,326.1,213.9
		L326.1,213.9z"/>
	<path class="st3" d="M346.9,220.9l-6.9,4.6l-5.1-3.5l0.1,5.5l0,1l0,0l0,1.1c0.7,0,1.4-0.2,2.1-0.6l9.2-5.3c0.3-0.2,0.5-0.5,0.6-0.8
		l0,0V220.9z"/>
	<path class="st4" d="M328.2,221.9l-1.3-3c-0.9-0.2-1.9,0-2.8,0.5l-0.8,0.5l-9-3.8v1.5v0v0.1l0,0c0,0.4,0.2,0.7,0.6,0.9L333,229
		c0.6,0.4,1.3,0.6,2.1,0.6l0-4.8L328.2,221.9z"/>
	<path class="st2" d="M346.4,220.2l-18.2-10.4c-1.3-0.7-2.9-0.7-4.1,0l-9.2,5.3c-0.8,0.4-0.8,1.5,0,2l18.2,10.4
		c1.3,0.7,2.9,0.7,4.1,0l9.2-5.3C347.1,221.7,347.1,220.6,346.4,220.2z"/>
	<path class="st3" d="M328.5,220.1l5.5-3.3c0.2-0.1,0.5-0.1,0.7,0l1.6,0.9c0.1,0.1,0.1,0.3,0,0.3l-5.5,3.3c-0.2,0.1-0.5,0.1-0.7,0
		l-1.6-0.9C328.3,220.4,328.3,220.2,328.5,220.1z"/>
	<path class="st7" d="M325.1,218.1l5.5-3.3c0.2-0.1,0.5-0.1,0.7,0l1.6,0.9c0.1,0.1,0.1,0.3,0,0.3l-5.5,3.3c-0.2,0.1-0.5,0.1-0.7,0
		l-1.6-0.9C325,218.4,325,218.2,325.1,218.1z"/>
	<path class="st6" d="M332.1,222.2l2.9-1.7c0.2-0.1,0.5-0.1,0.7,0l1.6,0.9c0.1,0.1,0.1,0.3,0,0.3l-2.9,1.7c-0.2,0.1-0.5,0.1-0.7,0
		l-1.6-0.9C332,222.5,332,222.3,332.1,222.2z"/>
	<path class="st1" d="M326.1,209.7c0.7,0,1.3,0.2,1.9,0.5l18.2,10.4c0.2,0.1,0.4,0.4,0.4,0.6c0,0.3-0.1,0.5-0.4,0.6l-9.2,5.3
		c-0.6,0.3-1.2,0.5-1.9,0.5c-0.7,0-1.3-0.2-1.9-0.5L315,216.7c-0.2-0.1-0.4-0.4-0.4-0.6c0-0.3,0.1-0.5,0.4-0.6l9.2-5.3
		C324.8,209.8,325.5,209.7,326.1,209.7 M326.1,209.2c-0.7,0-1.4,0.2-2.1,0.6l-9.2,5.3c-0.8,0.4-0.8,1.5,0,2l18.2,10.4
		c0.6,0.4,1.4,0.6,2.1,0.6c0.7,0,1.4-0.2,2.1-0.6l9.2-5.3c0.8-0.4,0.8-1.5,0-2l-18.2-10.4C327.5,209.4,326.8,209.2,326.1,209.2
		L326.1,209.2z"/>
	<path class="st5" d="M262.7,115.8c-2.5-1.1-5.7-1.3-8.4-0.8l-5.5-0.5v4.5c-0.3,1.5,0.7,3.2,2.9,4.4c3.7,2,9.4,2.1,12.7,0.2
		c1.1-0.6,1.8-1.4,2.1-2.3l0,0l0,0l0,0l0-2.7l0-2.4L262.7,115.8z"/>
	<path class="st2" d="M266.2,113.4c-0.5-0.8-1.3-1.5-2.4-2.2c-3.7-2-9.4-2.1-12.7-0.2c-3.3,1.9-3.1,5.2,0.6,7.2
		c3.7,2,9.4,2.1,12.7,0.2c1.1-0.6,1.8-1.4,2.1-2.3l0,0l3.9-1.3L266.2,113.4L266.2,113.4z"/>
	
		<ellipse transform="matrix(5.951955e-02 -0.9982 0.9982 5.951955e-02 122.7861 363.6282)" class="st7" cx="254.4" cy="116.7" rx="0.8" ry="1.4"/>
	
		<ellipse transform="matrix(5.951955e-02 -0.9982 0.9982 5.951955e-02 127.8101 365.1245)" class="st7" cx="257.7" cy="114.7" rx="0.8" ry="1.4"/>
	
		<ellipse transform="matrix(5.951955e-02 -0.9982 0.9982 5.951955e-02 132.834 366.6207)" class="st7" cx="261" cy="112.8" rx="0.8" ry="1.4"/>
	<polygon class="st3" points="266.6,121.3 266.5,116.2 270.4,114.9 270.4,120.1 	"/>
	<path class="st5" d="M292.8,110.4c-2.5-1.1-5.7-1.3-8.4-0.8l-5.5-0.5v4.5c-0.3,1.5,0.7,3.2,2.9,4.4c3.7,2,9.4,2.1,12.7,0.2
		c1.1-0.6,1.8-1.4,2.1-2.3l0,0l0,0l0,0l0-2.7l0-2.4L292.8,110.4z"/>
	<path class="st2" d="M296.3,107.9c-0.5-0.8-1.3-1.5-2.4-2.2c-3.7-2-9.4-2.1-12.7-0.2c-3.3,1.9-3.1,5.2,0.6,7.2
		c3.7,2,9.4,2.1,12.7,0.2c1.1-0.6,1.8-1.4,2.1-2.3l0,0l3.9-1.3L296.3,107.9L296.3,107.9z"/>
	
		<ellipse transform="matrix(5.951955e-02 -0.9982 0.9982 5.951955e-02 156.506 388.5307)" class="st7" cx="284.4" cy="111.2" rx="0.8" ry="1.4"/>
	
		<ellipse transform="matrix(5.951955e-02 -0.9982 0.9982 5.951955e-02 161.5299 390.0269)" class="st7" cx="287.8" cy="109.3" rx="0.8" ry="1.4"/>
	
		<ellipse transform="matrix(5.951955e-02 -0.9982 0.9982 5.951955e-02 166.5539 391.5231)" class="st7" cx="291.1" cy="107.4" rx="0.8" ry="1.4"/>
	<polygon class="st3" points="296.6,115.9 296.6,110.8 300.5,109.5 300.5,114.6 	"/>
	<path class="st5" d="M319.4,120.3c-2.5-1.1-5.7-1.3-8.4-0.8l-5.5-0.5v4.5c-0.3,1.5,0.7,3.2,2.9,4.4c3.7,2,9.4,2.1,12.7,0.2
		c1.1-0.6,1.8-1.4,2.1-2.3l0,0l0,0l0,0l0-2.7l0-2.4L319.4,120.3z"/>
	<path class="st2" d="M322.8,117.9c-0.5-0.8-1.3-1.5-2.4-2.2c-3.7-2-9.4-2.1-12.7-0.2c-3.3,1.9-3.1,5.2,0.6,7.2
		c3.7,2,9.4,2.1,12.7,0.2c1.1-0.6,1.8-1.4,2.1-2.3l0,0l3.9-1.3L322.8,117.9L322.8,117.9z"/>
	
		<ellipse transform="matrix(5.951955e-02 -0.9982 0.9982 5.951955e-02 171.5671 424.3798)" class="st7" cx="311" cy="121.1" rx="0.8" ry="1.4"/>
	
		<ellipse transform="matrix(5.951955e-02 -0.9982 0.9982 5.951955e-02 176.591 425.8761)" class="st7" cx="314.3" cy="119.2" rx="0.8" ry="1.4"/>
	
		<ellipse transform="matrix(5.951955e-02 -0.9982 0.9982 5.951955e-02 181.6149 427.3723)" class="st7" cx="317.6" cy="117.3" rx="0.8" ry="1.4"/>
	<polygon class="st3" points="323.2,125.8 323.1,120.7 327.1,119.4 327.1,124.5 	"/>
	<path class="st8" d="M320.1,174l1.2,1.2c0,0-2.1,1-2.9,1.7v-2.3l0.3-2.3L320.1,174z"/>
	<path class="st7" d="M317.4,172.5v2.1c0,0,0,0.7,0.7,0.7c0.7,0,0.6-0.8,0.6-0.8l0-1.4c0,0,0.4,0.1,0.4,0.5c0,0.4,0,0.4,0,0.4
		l-0.2,0.1c0,0,0,0.5,0.5,0.5c0.5,0,0.7-0.3,0.7-0.7c0-0.4,0-1.6,0-1.6s0.3-0.6-0.9-1.3s-2.1-0.5-2.5,0
		C316.4,171.6,316.8,172.1,317.4,172.5z"/>
	<path class="st8" d="M317.4,172.5l1.1,0.6v0.7c0,0.3-0.2,0.5-0.5,0.5l0,0c-0.3,0-0.5-0.2-0.5-0.5V172.5z"/>
	<path class="st7" d="M317.4,173.9l-0.2-0.2c-0.1-0.1-0.1-0.2,0-0.2l0.3-0.5V173.9z"/>
	<path class="st3" d="M319.5,185.3l-0.4-0.2c-0.5-0.3-1.1,0-1.2,0.5l-0.6,2.9l0.4,0.1l1.5-1.1c0.1-0.2,0.4-0.2,0.6,0l0.8,0.9
		l0.7-0.7L319.5,185.3z"/>
	<path class="st5" d="M315.7,179.9c0,0,1.8-3.3,5.6-4.8c3.8-1.4,5.4,4.6,5.4,6.5c0,1.9-0.4,4.5-0.4,4.5l-2.5,1.4
		c-0.6,0.3-1.3,0.3-1.9,0l-2-1l-1.7-4.5l-0.5,0.6L315.7,179.9z"/>
	<polygon class="st5" points="318.2,181.9 319,181 319.8,186.5 	"/>
	<path class="st8" d="M313.2,184.8l-0.2-4.7c0,0,0-0.1-0.2-0.4s-0.7-1.2,0.1-1.6c0,0,0.3-0.1,0.2,0.3c0,0.5,0.1,0.7,0.2,0.4
		s0.4-0.2,0.4,0s-0.1,1-0.1,1l0.8,2.8L313.2,184.8z"/>
	<path class="st8" d="M315.7,179.9l-2.5,4.4c0,0-0.3,0.8,0.3,1.1s0.8-0.1,1.5-0.8c0.8-0.7,2.5-2.1,2.5-2.1L315.7,179.9z"/>
	<path class="st9" d="M319.8,186.5l-5.4-0.4c-0.6,0-1.1,0.3-1.3,0.9l-2.2,6.9h0.3l3.1-4.9c0.2-0.3,0.5-0.4,0.8-0.3l5.5,1.5
		c0,0,1.7,0.4,3.1-0.4c1.4-0.8,2.3-1,2.6-3.6L319.8,186.5z"/>
	<polygon class="st7" points="310.9,193.8 309.8,194.1 310.1,194.3 311.2,194.5 311.3,194.3 311.3,193.8 	"/>
	<path class="st5" d="M313.3,190.6l-0.4-0.3c-0.2-0.1-0.2-0.5,0-0.6l1.6-1c0,0-0.1,0.1-0.1,0.1L313.3,190.6z"/>
	<path class="st8" d="M292.5,201.3l0.7,2c0.2,0.6-0.3,1.2-0.9,1.2h-1.6v-1.9L292.5,201.3z"/>
	<path class="st5" d="M292.5,201.3c0,0,0.7-0.9,0-1.5c-0.7-0.6-1.4-0.1-1.6,0.2c-0.3,0.3-1.3,0.9-0.9,2.1c0.3,1.2,0.5,1.5,0.5,1.5
		s0.4,0.7,0.8,0.5c0.5-0.2,0.5-0.8,0.5-0.8s-0.4,0.1-0.4-0.3C291.2,202.5,292,202,292.5,201.3z"/>
	<path class="st6" d="M292.7,202l0.7,0.6c0,0,0,0.1,0,0.2l-0.4,0.3L292.7,202z"/>
	<polygon class="st8" points="292.3,204.6 292.3,206.2 290.6,204.5 	"/>
	<path class="st6" d="M290,236.3h0.9l-0.8,0.8c0,0-0.6,0.1-0.6-0.1c0-0.2,0.2-0.9,0.2-0.9L290,236.3z"/>
	<path class="st7" d="M291.7,225.8c0,0,0.2,1.5,0,2.6c-0.2,1-1.3,6.4-1.5,7.7c0,0.2-0.2,0.3-0.3,0.3l0,0c-0.2,0-0.3-0.1-0.3-0.3
		l-0.2-12.9l-0.8-6.3l2.5,2.8L291.7,225.8z"/>
	<path class="st6" d="M293.4,238.3l1.1,0.5c0,0.2-1.5,0.3-1.5,0.3l-0.2-0.3l0.1-0.6L293.4,238.3z"/>
	<polygon class="st5" points="300.5,205.2 296.7,203.2 293.9,208.3 297.9,210.4 	"/>
	<polygon class="st17" points="296.9,204.1 296.2,205.4 297.5,206 298.2,204.7 	"/>
	<polygon class="st17" points="296.1,205.7 295.4,207 296.6,207.6 297.3,206.3 	"/>
	<polygon class="st2" points="297,205.5 296.9,204.7 297.3,204.7 297.3,204.9 298.4,204.7 298.5,205.1 	"/>
	<polygon class="st2" points="296.2,207.1 296,206.3 296.5,206.3 296.5,206.5 297.6,206.3 297.7,206.7 	"/>
	<path class="st17" d="M294.5,217.5l0.4,7.8l-1.4,12.8c0,0.2-0.1,0.3-0.3,0.3l0,0c-0.2,0-0.3-0.1-0.3-0.3l-1-11.3l-1.5-6.8
		c0,0-1.7-0.6-1.9-3.1S294.5,217.5,294.5,217.5z"/>
	<path class="st9" d="M297.3,210l-1.1-1.9c0,0-0.9-1.2-2-1.7c-1.1-0.5-3.6-1.9-3.6-1.9s-3-0.5-2.8,2.2c0.1,2.3,0.5,8.2,0.6,9.9
		c0,0.3,0.2,0.5,0.4,0.7l2.1,1.3c0.5,0.3,1.1,0.3,1.6,0l1.9-1.1l0.4-5.2l0.6,0.4L297.3,210z"/>
	<path class="st8" d="M297.3,210l2.3,3.7c0.2,0.3,0.1,0.8-0.2,1l0,0c-0.3,0.2-0.6,0.2-0.9,0l-2.9-2.2L297.3,210z"/>
	<path class="st8" d="M299.8,213.9l-0.3-5.3c0,0,1-0.9,0.2-1.6l-0.5,1v-0.8c0,0-0.6,0.1-0.5,0.6c0.1,0.5,0.1,0.7,0,1.3
		c-0.1,0.6-0.5,1.9-0.5,1.9L299.8,213.9z"/>
	<path class="st8" d="M321.3,212.5l0.8,2.5c0.2,0.5-0.2,1-0.7,1h-2.1v-2L321.3,212.5z"/>
	<path class="st7" d="M321.3,212.5c0,0,0.8-1,0-1.6s-1.5-0.1-1.8,0.2c-0.3,0.3-1.4,0.9-1,2.2c0.4,1.3,0.5,1.6,0.5,1.6
		s0.4,0.7,0.9,0.5c0.5-0.2,0.5-0.9,0.5-0.9s-0.5,0.1-0.5-0.3C319.9,213.8,320.7,213.2,321.3,212.5z"/>
	<path class="st6" d="M321.5,213.2l0.5,0.4c0,0,0,0.1,0,0.1l-0.2,0.2L321.5,213.2z"/>
	<polygon class="st8" points="320.8,216 320.6,218 317.7,217.5 319.3,215.9 	"/>
	<path class="st6" d="M318.6,250h1l-0.9,0.9c0,0-0.6,0.2-0.6-0.1s0.2-1,0.2-1L318.6,250z"/>
	<path class="st3" d="M320.4,238.7c0,0,0.2,1.6,0,2.8c-0.2,1-1.4,6.9-1.6,8.2c0,0.2-0.2,0.3-0.3,0.3l0,0c-0.2,0-0.4-0.2-0.4-0.3
		l-0.2-13.8l-0.8-6.7l2.7,3L320.4,238.7z"/>
	<path class="st6" d="M322.2,252.2l1.2,0.5c0,0.2-1.6,0.4-1.6,0.4l-0.2-0.3l0.2-0.7L322.2,252.2z"/>
	<polygon class="st5" points="329.9,216.6 325.8,214.5 322.8,220 327,222.2 	"/>
	<path class="st18" d="M323.4,229.8l0.4,8.4l-1.5,13.7c0,0.2-0.2,0.3-0.3,0.3l0,0c-0.2,0-0.3-0.1-0.3-0.3l-1.1-12.1l-1.6-7.3
		c0,0-1.8-0.7-2-3.3C316.8,226.5,323.4,229.8,323.4,229.8z"/>
	<path class="st5" d="M325.3,222.4c0,0-2.4-3.2-4.2-4.9c-1.2,0.6-3.2-0.3-3.2-0.3s-1.7,1.8-1.5,4.7c0.2,2.5,0.5,5.2,0.6,7
		c0,0.3,0.2,0.6,0.4,0.7l2.3,1.4c0.5,0.3,1.2,0.3,1.8,0l2-1.2l0.4-5.6l0.7,0.5L325.3,222.4z"/>
	<path class="st8" d="M325.3,222.4l3.7,3.3c0.2,0.4,0.1,0.8-0.2,1.1l0,0c-0.3,0.2-0.7,0.2-1,0l-3.3-2.1L325.3,222.4z"/>
	<path class="st8" d="M329.1,226l-0.3-5.7c0,0,1.1-0.9,0.2-1.7l-0.6,1.1v-0.8c0,0-0.7,0.1-0.5,0.7c0.2,0.6,0.1,0.8,0,1.4
		s-0.3,3.7-0.3,3.7L329.1,226z"/>
	<path class="st7" d="M321.1,212.7c0,0-1.1,2.9,1,5.1c0,0-4.3,1.8-4.3-0.8c0-2.7,0.5-4.4,1.4-5.5
		C319.9,210.4,321.1,212.7,321.1,212.7z"/>
	<polygon class="st4" points="326,215.3 325.2,216.7 326.5,217.4 327.3,216 	"/>
	<polygon class="st4" points="324.8,217.4 324.1,218.8 325.4,219.5 326.2,218.1 	"/>
	<polygon class="st2" points="326,216.8 325.9,216 326.3,215.9 326.4,216.2 327.5,215.9 327.6,216.4 	"/>
	<polygon class="st2" points="324.9,218.9 324.8,218.1 325.2,218 325.3,218.4 326.4,218.1 326.5,218.5 	"/>
	<polygon class="st3" points="256.4,168.1 256.4,158.6 211.1,184.7 211.1,184.7 211.1,194.2 211.1,194.2 	"/>
	<polygon class="st1" points="143.3,171.6 143.2,171.5 143.2,181 143.3,181.1 211.1,194.2 211.1,184.7 	"/>
	<polygon class="st1" points="120.6,132.5 120.6,142 143.2,181 143.2,171.5 	"/>
	<polygon class="st4" points="165.9,106.4 120.6,132.5 143.3,171.7 211.1,184.7 256.4,158.6 233.7,119.4 	"/>
	<polygon class="st5" points="235,155 249.8,146.5 236.5,122.3 178,156.1 219.5,179.9 249.2,163.1 	"/>
	<polygon class="st2" points="234.4,139.2 249.8,130.3 236.5,106.1 177.4,140.3 218.7,164.2 248.4,147.4 	"/>
	<path class="st1" d="M236.4,106.7l12.8,23.5l-15,8.7l-0.6,0.4l0.6,0.4l13.3,7.8l-28.8,16.4l-40.4-23.5L236.4,106.7 M236.5,106.1
		l-59.1,34.2l41.3,23.9l29.7-16.8l-13.9-8.2l15.3-8.9L236.5,106.1L236.5,106.1z"/>
	<polygon class="st3" points="218.7,164.2 218.7,172.4 248.4,155.6 248.4,147.4 	"/>
	<polygon class="st1" points="218.7,164.2 218.7,172.4 177.4,148.5 177.4,140.3 	"/>
	<polygon class="st3" points="249.8,130.3 249.8,138.5 241.5,143.3 234.4,139.2 	"/>
	<polygon class="st0" points="219,160.5 194.2,146.1 217.5,132.7 242.4,147.1 	"/>
	<path id="XMLID_3_" class="st7" d="M220.9,143.2c-1.7-1-4.3-1.1-5.8-0.2c-0.7,0.4-1.1,1-1,1.6c-1.1-0.1-2.1,0.1-2.8,0.6
		c-1.5,0.9-1.3,2.3,0.4,3.3c0.8,0.5,1.9,0.7,2.9,0.8l8.2,0.3l-0.6-4.9c0-0.1-0.1-0.2-0.1-0.2C222,144,221.6,143.6,220.9,143.2z"/>
	<polygon class="st4" points="190,143.5 192.2,144.8 215.5,131.4 213.4,130.1 	"/>
	<polygon class="st4" points="185.8,140.9 187.9,142.2 211.2,128.8 209.2,127.5 	"/>
	<polygon class="st4" points="216.6,128.2 218.7,129.5 239.1,117.7 238.1,115.9 	"/>
	<polygon class="st4" points="212.3,125.6 214.4,126.9 237,113.9 236,112 	"/>
	<polygon class="st19" points="231.9,137.3 221.5,131 240.3,120 245.6,129.5 	"/>
	<path class="st0" d="M353.9,309l66.3-37.8c4.7-2.7,10.4-2.7,15.1,0l33.7,19.4c2.8,1.6,2.8,5.6,0,7.3l-66.4,37.9
		c-4.7,2.7-10.4,2.7-15.1,0l-33.6-19.4C351.1,314.6,351.1,310.6,353.9,309z"/>
	<path class="st4" d="M351.8,298.9l25.3,16.6l18.6-12.7l-0.5,20.1l0,3.6l-0.1,0l0,4c-2.6,0-5.2-0.7-7.6-2l-33.6-19.4
		c-1.2-0.7-1.8-1.8-2-2.9l-0.1,0V298.9z"/>
	<path class="st3" d="M420.2,302.6l4.8-10.9c3.5-0.6,7.1,0,10.2,1.8l2.9,1.7l32.9-13.7v5.6c0,0,0,0,0,0v0.2l0,0
		c-0.1,1.3-0.8,2.6-2.1,3.4l-66.4,37.9c-2.3,1.3-4.9,2-7.5,2l0-17.3L420.2,302.6z"/>
	<path class="st2" d="M353.9,296.3l66.3-37.8c4.7-2.7,10.4-2.7,15.1,0l33.7,19.4c2.8,1.6,2.8,5.6,0,7.3l-66.4,37.9
		c-4.7,2.7-10.4,2.7-15.1,0l-33.6-19.4C351.1,301.9,351.1,297.9,353.9,296.3z"/>
	<path class="st6" d="M412.9,300.4l-20.1-11.9c-0.8-0.5-1.8-0.5-2.6,0l-5.9,3.4c-0.5,0.3-0.5,1,0,1.3l20.1,11.9
		c0.8,0.5,1.8,0.5,2.6,0l5.9-3.4C413.4,301.4,413.4,300.7,412.9,300.4z"/>
	<path class="st7" d="M425.3,292.9L405.2,281c-0.8-0.5-1.8-0.5-2.6,0l-5.9,3.4c-0.5,0.3-0.5,1,0,1.3l20.1,11.9
		c0.8,0.5,1.8,0.5,2.6,0l5.9-3.4C425.8,293.9,425.8,293.2,425.3,292.9z"/>
	<path class="st3" d="M399.6,308l-10.5-6.3c-0.8-0.5-1.8-0.5-2.6,0l-5.9,3.4c-0.5,0.3-0.5,1,0,1.3l10.5,6.3c0.8,0.5,1.8,0.5,2.6,0
		l5.9-3.4C400.1,308.9,400.1,308.2,399.6,308z"/>
	<path class="st1" d="M427.7,256.4v1.3c2.4,0,4.8,0.6,6.9,1.8l33.7,19.4c0.9,0.5,1.5,1.5,1.5,2.5c0,1.1-0.5,2-1.5,2.5l-66.4,37.9
		c-2.1,1.2-4.5,1.8-6.9,1.8c-2.4,0-4.8-0.6-6.9-1.9l-33.6-19.4c-0.9-0.5-1.5-1.5-1.5-2.5c0-1.1,0.5-2,1.5-2.5l66.3-37.8
		c2.1-1.2,4.5-1.9,6.9-1.9L427.7,256.4 M427.7,256.4c-2.6,0-5.2,0.7-7.5,2l-66.3,37.8c-2.8,1.6-2.8,5.6,0,7.2l33.6,19.4
		c2.3,1.3,4.9,2,7.5,2c2.6,0,5.2-0.7,7.5-2l66.4-37.9c2.8-1.6,2.8-5.6,0-7.3l-33.7-19.4C432.9,257.1,430.3,256.4,427.7,256.4
		L427.7,256.4z"/>
	<path class="st1" d="M428.8,269.4l4.4,8.5l14.6-2.1C445.1,271.2,436.8,268.4,428.8,269.4z"/>
	<path class="st6" d="M448,275.9c0-0.1-0.1-0.1-0.1-0.2l-14.6,2.1l0,0l15.1,2.7C448.9,279.1,448.8,277.5,448,275.9z"/>
	<path class="st3" d="M433.2,277.9L433.2,277.9L433.2,277.9l-4.4-8.5c-0.1,0-0.3,0-0.4,0c-8.2,1.1-12.7,5.9-10.2,10.6c0,0,0,0,0,0.1
		c2.5,4.6,10.8,7.5,18.8,6.6l0,0c0,0,0.4,0,0.6-0.1c0,0,0,0,0.1,0v0c0,0,0.1,0,0.1,0c5.5-0.8,9.3-3.1,10.5-6.1L433.2,277.9z"/>
	<path class="st0" d="M446.6,256.5l66.3-37.8c4.7-2.7,10.4-2.7,15.1,0l33.7,19.4c2.8,1.6,2.8,5.6,0,7.3l-66.4,37.9
		c-4.7,2.7-10.4,2.7-15.1,0l-33.6-19.4C443.8,262.2,443.8,258.1,446.6,256.5z"/>
	<path class="st4" d="M444.5,246.5l25.3,16.6l18.6-12.7l-0.5,20.1l0,3.6l-0.1,0l0,4c-2.6,0-5.2-0.7-7.6-2l-33.6-19.4
		c-1.2-0.7-1.8-1.8-2-2.9l-0.1,0V246.5z"/>
	<path class="st3" d="M513,250.2l4.8-10.9c3.5-0.6,7.1,0,10.2,1.8l2.9,1.7l32.9-13.7v5.6c0,0,0,0,0,0v0.2l0,0
		c-0.1,1.3-0.8,2.6-2.1,3.4l-66.4,37.9c-2.3,1.3-4.9,2-7.5,2l0-17.3L513,250.2z"/>
	<path class="st2" d="M446.6,243.9l66.3-37.8c4.7-2.7,10.4-2.7,15.1,0l33.7,19.4c2.8,1.6,2.8,5.6,0,7.3l-66.4,37.9
		c-4.7,2.7-10.4,2.7-15.1,0l-33.6-19.4C443.8,249.5,443.8,245.5,446.6,243.9z"/>
	<path class="st6" d="M493.7,254.3l-20.1-11.9c-0.8-0.5-1.8-0.5-2.6,0l-5.9,3.4c-0.5,0.3-0.5,1,0,1.3l20.1,11.9
		c0.8,0.5,1.8,0.5,2.6,0l5.9-3.4C494.2,255.3,494.2,254.5,493.7,254.3z"/>
	<path class="st7" d="M519.3,239.2l-20.1-11.9c-0.8-0.5-1.8-0.5-2.6,0l-5.9,3.4c-0.5,0.3-0.5,1,0,1.3l20.1,11.9
		c0.8,0.5,1.8,0.5,2.6,0l5.9-3.4C519.8,240.2,519.8,239.5,519.3,239.2z"/>
	<path class="st3" d="M507.1,246.7l-10.5-6.3c-0.8-0.5-1.8-0.5-2.6,0l-5.9,3.4c-0.5,0.3-0.5,1,0,1.3l10.5,6.3c0.8,0.5,1.8,0.5,2.6,0
		l5.9-3.4C507.6,247.7,507.6,247,507.1,246.7z"/>
	<path class="st1" d="M520.5,204v1.3c2.4,0,4.8,0.6,6.9,1.8l33.7,19.4c0.9,0.5,1.5,1.5,1.5,2.5c0,1.1-0.5,2-1.5,2.5l-66.4,37.9
		c-2.1,1.2-4.5,1.8-6.9,1.8c-2.4,0-4.8-0.6-6.9-1.9L447.3,250c-0.9-0.5-1.5-1.5-1.5-2.5c0-1.1,0.5-2,1.5-2.5l66.3-37.8
		c2.1-1.2,4.5-1.9,6.9-1.9L520.5,204 M520.5,204c-2.6,0-5.2,0.7-7.5,2l-66.3,37.8c-2.8,1.6-2.8,5.6,0,7.2l33.6,19.4
		c2.3,1.3,4.9,2,7.5,2c2.6,0,5.2-0.7,7.5-2l66.4-37.9c2.8-1.6,2.8-5.6,0-7.3L528,206C525.7,204.7,523.1,204,520.5,204L520.5,204z"/>
	<path class="st7" d="M521.4,215.6c-0.1,0-0.3,0-0.4,0c-8.2,1.1-12.7,5.9-10.2,10.6l14.9-2.2L521.4,215.6z"/>
	<path class="st1" d="M521.4,215.6l4.4,8.5l14.6-2.1C537.8,217.4,529.4,214.6,521.4,215.6z"/>
	<path class="st3" d="M540.6,222.1c0-0.1-0.1-0.1-0.1-0.2l-14.6,2.1l-14.9,2.2c0,0,0,0,0,0.1c2.6,4.7,11.3,7.7,19.4,6.5
		c0,0,0.1,0,0.1,0C538.7,231.7,543.2,226.9,540.6,222.1z"/>
	<path class="st0" d="M259.9,76l-48.6,28.1c-5.7,3.3-15.7,2.9-22.3-0.9l-56.2-32.4c-6.6-3.8-7.3-9.6-1.6-12.9l48.6-28.1
		c5.7-3.3,15.7-2.9,22.3,0.9l56.2,32.4C264.9,66.9,265.7,72.7,259.9,76z"/>
	<path class="st3" d="M259.9,69.1l-48.6,28.1c-5.7,3.3-15.7,2.9-22.3-0.9l-56.2-32.4c-6.6-3.8-7.3-9.6-1.6-12.9l48.6-28.1
		c5.7-3.3,15.7-2.9,22.3,0.9l56.2,32.4C264.9,60,265.7,65.8,259.9,69.1z"/>
	<path class="st2" d="M259.9,64.2l-48.6,28.1c-5.7,3.3-15.7,2.9-22.3-0.9l-56.2-32.4c-6.6-3.8-7.3-9.6-1.6-12.9L179.9,18
		c5.7-3.3,15.7-2.9,22.3,0.9l56.2,32.4C264.9,55.1,265.7,60.9,259.9,64.2z"/>
	<path class="st1" d="M189.6,17c4.3,0,8.7,1.1,12,3l56.2,32.4c3.1,1.8,4.8,4,4.8,6.2c0,1.7-1.1,3.3-3.2,4.5l-48.6,28.1
		c-2.3,1.3-5.5,2.1-9,2.1c-4.3,0-8.7-1.1-12-3l-56.2-32.4c-3.1-1.8-4.8-4-4.8-6.2c0-1.7,1.1-3.3,3.2-4.5l48.6-28.1
		C182.8,17.7,186,17,189.6,17L189.6,17 M189.6,15.7c-3.6,0-7.1,0.7-9.7,2.2L131.3,46c-5.7,3.3-5,9.1,1.6,12.9L189,91.3
		c3.6,2.1,8.2,3.2,12.6,3.2c3.6,0,7.1-0.7,9.7-2.2l48.6-28.1c5.7-3.3,5-9.1-1.6-12.9l-56.2-32.4C198.6,16.8,194,15.7,189.6,15.7
		L189.6,15.7z"/>
	<path class="st0" d="M155.8,108.8L55.3,166c-3.8,2.2-10.3,1.9-14.7-0.6L3.6,144c-4.3-2.5-4.8-6.3-1.1-8.5l100.5-57.2
		c3.8-2.2,10.3-1.9,14.7,0.6l37,21.4C159.1,102.8,159.6,106.6,155.8,108.8z"/>
	<path class="st3" d="M155.8,101.4L55.3,158.6c-3.8,2.2-10.3,1.9-14.7-0.6l-37-21.4c-4.3-2.5-4.8-6.3-1.1-8.5L103.1,71
		c3.8-2.2,10.3-1.9,14.7,0.6l37,21.4C159.1,95.4,159.6,99.2,155.8,101.4z"/>
	<path class="st2" d="M155.9,96L55.4,153.2c-3.8,2.2-10.3,1.9-14.7-0.6l-37-21.4c-4.3-2.5-4.8-6.3-1.1-8.5l100.5-57.2
		c3.8-2.2,10.3-1.9,14.7,0.6l37,21.4C159.2,90,159.7,93.8,155.9,96z"/>
	<path class="st1" d="M109.4,64.2v1.3c2.8,0,5.6,0.7,7.7,1.9l37,21.4c1.9,1.1,3,2.5,3,3.7c0,1.2-1,2.1-1.9,2.6L54.7,152.2
		c-1.4,0.8-3.5,1.3-5.7,1.3c-2.8,0-5.6-0.7-7.7-1.9l-37-21.4c-1.9-1.1-3-2.5-3-3.7c0-1.2,1-2.1,1.9-2.6l100.5-57.2
		c1.4-0.8,3.5-1.3,5.7-1.3L109.4,64.2 M109.4,64.2c-2.4,0-4.7,0.5-6.4,1.5L2.5,122.8c-3.8,2.2-3.3,6,1.1,8.5l37,21.4
		c2.4,1.4,5.4,2.1,8.3,2.1c2.4,0,4.7-0.5,6.4-1.5l100.5-57.2c3.8-2.2,3.3-6-1.1-8.5l-37-21.4C115.4,64.9,112.3,64.2,109.4,64.2
		L109.4,64.2z"/>
	<path class="st0" d="M541.9,111.3l-59.2,34.2c-7,4-19.1,3.5-27.1-1.1l-68.3-39.5c-8-4.6-8.9-11.6-1.9-15.7L444.5,55
		c7-4,19.1-3.5,27.1,1.1L540,95.6C548,100.2,548.9,107.3,541.9,111.3z"/>
	<path class="st3" d="M544.6,100.2l-61.2,35.4c-7.2,4.2-19.8,3.6-28.1-1.2l-70.7-40.8c-8.3-4.8-9.2-12.1-2-16.2L443.8,42
		c7.2-4.2,19.8-3.6,28.1,1.2L542.6,84C550.9,88.8,551.8,96.1,544.6,100.2z"/>
	<path class="st2" d="M544.6,94.1l-61.2,35.4c-7.2,4.2-19.8,3.6-28.1-1.2l-70.7-40.8c-8.3-4.8-9.2-12.1-2-16.2l61.2-35.4
		c7.2-4.2,19.8-3.6,28.1,1.2l70.7,40.8C550.9,82.7,551.8,89.9,544.6,94.1z"/>
	<path class="st1" d="M456,34.3c5.5,0,11.1,1.4,15.2,3.8L542,79c4,2.3,6.2,5.2,6.2,8.1c0,2.3-1.5,4.4-4.2,5.9l-61.2,35.4
		c-2.9,1.7-7,2.6-11.6,2.6c-5.5,0-11.1-1.4-15.2-3.8l-70.7-40.8c-4-2.3-6.2-5.2-6.2-8.1c0-2.3,1.5-4.4,4.2-5.9L444.5,37
		C447.4,35.3,451.5,34.3,456,34.3L456,34.3 M456,33.1c-4.6,0-8.9,0.9-12.2,2.8l-61.2,35.4c-7.2,4.2-6.3,11.4,2,16.2l70.7,40.8
		c4.5,2.6,10.4,4,15.9,4c4.6,0,8.9-0.9,12.2-2.8l61.2-35.4c7.2-4.2,6.3-11.4-2-16.2L471.9,37C467.3,34.4,461.5,33.1,456,33.1
		L456,33.1z"/>
	<path class="st7" d="M433.7,73.8l0-25.9V31.4c-0.4,0.1-0.7,0.2-1.1,0.4l-0.7,3l-7.8-3.2v37.5l0,0c0,0.3,0.2,0.5,0.4,0.6l7.4,4.3
		c0.5,0.3,1.1,0.4,1.7,0.4L433.7,73.8L433.7,73.8z"/>
	<path class="st3" d="M436.8,35.9l-0.8-4.1c-0.7-0.4-1.5-0.5-2.2-0.4v6.5l0,0l0,11.2v25.4c0.6,0,1.1-0.1,1.7-0.4l8-4.6
		c0.3-0.2,0.4-0.5,0.5-0.7l0,0V31.5L436.8,35.9z"/>
	<path class="st5" d="M424.7,31.1l8-4.6c1-0.6,2.3-0.6,3.3,0l7.4,4.3c0.6,0.4,0.6,1.2,0,1.6l-8,4.6c-1,0.6-2.3,0.6-3.3,0l-7.4-4.3
		C424,32.3,424,31.4,424.7,31.1z"/>
	<path class="st2" d="M428.2,31.2l5-2.9c0.6-0.4,1.4-0.4,2.1,0l4.7,2.7c0.4,0.2,0.4,0.8,0,1l-5,2.9c-0.6,0.4-1.4,0.4-2.1,0l-4.6-2.7
		C427.8,32,427.8,31.5,428.2,31.2z"/>
	<path class="st7" d="M490.3,74.8l0-25.9V32.5c-0.4,0.1-0.7,0.2-1.1,0.4l-0.7,3l-7.8-3.2v37.5l0,0c0,0.3,0.2,0.5,0.4,0.6l7.4,4.3
		c0.5,0.3,1.1,0.4,1.7,0.4L490.3,74.8L490.3,74.8z"/>
	<path class="st3" d="M500.4,69.6V32.5l-7,4.4l-0.8-4.1c-0.7-0.4-1.5-0.5-2.2-0.4v6.5l0,0l0,11.2v25.4c0.6,0,1.1-0.1,1.7-0.4l8-4.6
		C500.3,70.3,500.4,70,500.4,69.6L500.4,69.6L500.4,69.6C500.4,69.6,500.4,69.6,500.4,69.6z"/>
	<path class="st5" d="M481.2,32.1l8-4.6c1-0.6,2.3-0.6,3.3,0l7.4,4.3c0.6,0.4,0.6,1.2,0,1.6l-8,4.6c-1,0.6-2.3,0.6-3.3,0l-7.4-4.3
		C480.6,33.3,480.6,32.4,481.2,32.1z"/>
	<path class="st2" d="M484.7,32.3l5-2.9c0.6-0.4,1.4-0.4,2.1,0l4.7,2.7c0.4,0.2,0.4,0.8,0,1l-5,2.9c-0.6,0.4-1.4,0.4-2.1,0l-4.6-2.7
		C484.3,33,484.3,32.5,484.7,32.3z"/>
	<path class="st7" d="M460.6,95.6l0-9.7V72.3c-0.8,0.1-1.6,0.4-2.3,0.9l-7.3,4.2l-11.2-4.6v12.6l0,0c0.1,0.6,0.4,1.1,1,1.4l16.2,9.3
		c1.1,0.7,2.4,1,3.7,1L460.6,95.6L460.6,95.6z"/>
	<path class="st3" d="M482.7,84.3V72.5l-8.8,5.5l-8.5-4.9c-1.5-0.9-3.3-1.2-4.9-0.8v14.1l0,0l0,2.8v7.8c1.2,0,2.5-0.3,3.6-1
		L481.7,86c0.6-0.4,1-1,1-1.6l0,0V84.3C482.7,84.3,482.7,84.3,482.7,84.3z"/>
	<path class="st5" d="M440.7,71.5l17.5-10.1c2.2-1.3,5-1.3,7.3,0l16.3,9.3c1.3,0.8,1.4,2.7,0,3.5l-17.6,10.1c-2.3,1.3-5,1.3-7.3,0
		L440.7,75C439.3,74.3,439.3,72.3,440.7,71.5z"/>
	<path class="st1" d="M461.8,61.3L461.8,61.3c1.1,0,2.2,0.3,3.2,0.9l16.3,9.3c0.4,0.2,0.6,0.6,0.6,1c0,0.4-0.2,0.8-0.6,1l-17.6,10.1
		c-1,0.6-2.1,0.9-3.2,0.9c-1.1,0-2.2-0.3-3.2-0.9l-16.2-9.3c-0.4-0.2-0.6-0.6-0.6-1c0-0.4,0.2-0.8,0.6-1l17.5-10.1
		C459.6,61.6,460.7,61.3,461.8,61.3 M461.8,60.5c-1.3,0-2.5,0.3-3.6,1l-17.5,10.1c-1.3,0.8-1.3,2.7,0,3.5l16.2,9.3
		c1.1,0.7,2.4,1,3.6,1c1.3,0,2.5-0.3,3.6-1l17.6-10.1c1.3-0.8,1.3-2.7,0-3.5l-16.3-9.3C464.3,60.8,463.1,60.5,461.8,60.5L461.8,60.5
		z"/>
	<path class="st2" d="M448.3,71.1l11-6.3c1.4-0.8,3.1-0.8,4.6,0l10.2,5.9c0.8,0.5,0.8,1.7,0,2.2l-11,6.4c-1.4,0.8-3.2,0.8-4.6,0
		l-10.2-5.9C447.5,72.8,447.5,71.6,448.3,71.1z"/>
	<path class="st7" d="M460.6,74.2l0-9.7V51c-0.8,0.1-1.6,0.4-2.3,0.9l-7.3,4.2l-11.2-4.6V64l0,0c0.1,0.6,0.4,1.1,1,1.4l16.2,9.3
		c1.1,0.7,2.4,1,3.7,1L460.6,74.2L460.6,74.2z"/>
	<path class="st3" d="M482.7,62.9V51.1l-8.8,5.5l-8.5-4.9c-1.5-0.9-3.3-1.2-4.9-0.8v14.1l0,0l0,2.8v7.8c1.2,0,2.5-0.3,3.6-1
		l17.6-10.1c0.6-0.4,1-1,1-1.6l0,0V62.9C482.7,62.9,482.7,62.9,482.7,62.9z"/>
	<path class="st5" d="M440.7,50.2l17.5-10.1c2.2-1.3,5-1.3,7.3,0l16.3,9.3c1.3,0.8,1.4,2.7,0,3.5L464.1,63c-2.3,1.3-5,1.3-7.3,0
		l-16.2-9.3C439.3,52.9,439.3,50.9,440.7,50.2z"/>
	<path class="st1" d="M461.8,39.9L461.8,39.9c1.1,0,2.2,0.3,3.2,0.9l16.3,9.3c0.4,0.2,0.6,0.6,0.6,1c0,0.4-0.2,0.8-0.6,1l-17.6,10.1
		c-1,0.6-2.1,0.9-3.2,0.9c-1.1,0-2.2-0.3-3.2-0.9l-16.2-9.3c-0.4-0.2-0.6-0.6-0.6-1s0.2-0.8,0.6-1l17.5-10.1
		C459.6,40.2,460.7,39.9,461.8,39.9 M461.8,39.1c-1.3,0-2.5,0.3-3.6,1l-17.5,10.1c-1.3,0.8-1.3,2.7,0,3.5l16.2,9.3
		c1.1,0.7,2.4,1,3.6,1c1.3,0,2.5-0.3,3.6-1l17.6-10.1c1.3-0.8,1.3-2.7,0-3.5l-16.3-9.3C464.3,39.4,463.1,39.1,461.8,39.1L461.8,39.1
		z"/>
	<path class="st2" d="M448.3,49.7l11-6.3c1.4-0.8,3.1-0.8,4.6,0l10.2,5.9c0.8,0.5,0.8,1.7,0,2.2l-11,6.4c-1.4,0.8-3.2,0.8-4.6,0
		l-10.2-5.9C447.5,51.4,447.5,50.2,448.3,49.7z"/>
	<path class="st7" d="M433.4,104.6l0-25.9V62.3c-0.4,0.1-0.7,0.2-1.1,0.4l-0.7,3l-7.8-3.2V100l0,0c0,0.3,0.2,0.5,0.4,0.6l7.4,4.3
		c0.5,0.3,1.1,0.4,1.7,0.4L433.4,104.6L433.4,104.6z"/>
	<path class="st3" d="M436.5,66.8l-0.8-4.1c-0.7-0.4-1.5-0.5-2.2-0.4v6.5l0,0l0,11.2v25.4c0.6,0,1.1-0.1,1.7-0.4l8-4.6
		c0.3-0.2,0.4-0.5,0.5-0.7l0,0V62.3L436.5,66.8z"/>
	<path class="st5" d="M424.3,61.9l8-4.6c1-0.6,2.3-0.6,3.3,0l7.4,4.3c0.6,0.4,0.6,1.2,0,1.6l-8,4.6c-1,0.6-2.3,0.6-3.3,0l-7.4-4.3
		C423.7,63.2,423.7,62.3,424.3,61.9z"/>
	<path class="st2" d="M427.8,62.1l5-2.9c0.6-0.4,1.4-0.4,2.1,0l4.7,2.7c0.4,0.2,0.4,0.8,0,1l-5,2.9c-0.6,0.4-1.4,0.4-2.1,0l-4.6-2.7
		C427.4,62.8,427.4,62.3,427.8,62.1z"/>
	<path class="st7" d="M495.4,103l0-25.9V60.7c-0.4,0.1-0.7,0.2-1.1,0.4l-0.7,3l-7.8-3.2v37.5l0,0c0,0.3,0.2,0.5,0.4,0.6l7.4,4.3
		c0.5,0.3,1.1,0.4,1.7,0.4L495.4,103L495.4,103z"/>
	<path class="st3" d="M505.5,97.9V60.7l-7,4.4l-0.8-4.1c-0.7-0.4-1.5-0.5-2.2-0.4v6.5l0,0l0,11.2v25.4c0.6,0,1.1-0.1,1.7-0.4l8-4.6
		C505.3,98.5,505.5,98.2,505.5,97.9L505.5,97.9L505.5,97.9L505.5,97.9z"/>
	<path class="st5" d="M486.3,60.3l8-4.6c1-0.6,2.3-0.6,3.3,0L505,60c0.6,0.4,0.6,1.2,0,1.6l-8,4.6c-1,0.6-2.3,0.6-3.3,0l-7.4-4.3
		C485.7,61.6,485.7,60.7,486.3,60.3z"/>
	<path class="st2" d="M489.8,60.5l5-2.9c0.6-0.4,1.4-0.4,2.1,0l4.7,2.7c0.4,0.2,0.4,0.8,0,1l-5,2.9c-0.6,0.4-1.4,0.4-2.1,0l-4.6-2.7
		C489.4,61.2,489.4,60.7,489.8,60.5z"/>
	<path class="st1" d="M468.6,50.2l-2.2-1.2c0,0-0.1,0-0.1,0l-0.2,0.1c-0.6,0.3-1.5,0.3-2.2,0l-1-0.6h0l-0.7-0.4
		c-1.7-1-4.4-1-5.9-0.1l0,0l0,0c-1.6,0.9-1.4,2.4,0.3,3.4l0.7,0.4v0l1,0.6c0.6,0.3,0.7,0.9,0.1,1.2l-0.2,0.1c0,0,0,0,0,0.1l2.2,1.2
		c0,0,0.1,0,0.1,0l2.7-1.6c0.9,0.4,2.1,0.4,2.7,0c0.7-0.4,0.6-1.1-0.1-1.6L468.6,50.2C468.6,50.2,468.6,50.2,468.6,50.2z"/>
	
		<ellipse transform="matrix(5.951955e-02 -0.9982 0.9982 5.951955e-02 300.1239 477.3979)" class="st1" cx="403.4" cy="79.4" rx="5.8" ry="10.2"/>
	
		<ellipse transform="matrix(5.951955e-02 -0.9982 0.9982 5.951955e-02 325.8536 577.8808)" class="st1" cx="469.6" cy="116" rx="5.8" ry="10.2"/>
	
		<ellipse transform="matrix(5.951955e-02 -0.9982 0.9982 5.951955e-02 408.4128 602.8979)" class="st1" cx="524.2" cy="84.7" rx="5.8" ry="10.2"/>
	<path class="st3" d="M75,45.5L68,40.5l0,0c-1-0.9-2.4-1.3-3.8-1.3l-0.6-1.7l-4.8-3.1c-0.4-0.3-0.8-0.6-1.3-0.8l0,0l0,0
		C55,32.5,52,32.6,49,34.3c-3.8,2.2-6.5,6.4-6.8,10.8c-1.8-0.5-3.9-0.2-5.8,0.9c-3.9,2.3-6.2,7.2-5.3,11.3c-0.3,0.1-0.6,0.3-0.9,0.4
		c-3.9,2.2-6,7.2-4.8,11.1c0.4,1.3,1.1,2.3,2,3l0,0l0.1,0c0.2,0.2,0.5,0.3,0.7,0.5l5.6,3.6L55,60.2c5.2-3,9.6-5.5,10.2-5.8
		c1.7-1,3.1-2.7,4-4.6L75,45.5z"/>
	<path class="st2" d="M40.7,75.9c-3.8,2.2-7.9,0.8-9.1-3.1c-1.2-3.9,0.9-8.9,4.8-11.1c0.3-0.2,0.6-0.3,0.9-0.4
		c-0.9-4.1,1.4-9.1,5.3-11.3c1.9-1.1,4-1.4,5.8-0.9c0.4-4.3,3-8.6,6.8-10.8c5.2-3,10.7-1.1,12.3,4.1c0.1,0.4,0.2,0.9,0.3,1.4
		c3.6-1.5,7.1,0,8.2,3.6c1.2,3.8-1,8.9-4.6,11C69.7,59.2,42.5,74.8,40.7,75.9L40.7,75.9z"/>
	<path class="st6" d="M60.1,38.1c2.9,0,5.2,1.7,6.1,4.6c0.1,0.4,0.2,0.8,0.3,1.2l0.3,1.6l1.5-0.6c0.8-0.3,1.5-0.5,2.3-0.5
		c2,0,3.6,1.2,4.3,3.2c1,3.2-0.9,7.7-4,9.5l-13.1,7.5C49.7,69.2,41,74.2,40,74.8c-1,0.6-2,0.9-3,0.9c-2,0-3.6-1.2-4.3-3.3
		c-1-3.3,0.9-7.7,4.2-9.6c0.2-0.1,0.5-0.3,0.7-0.4l1-0.4l-0.2-1c-0.8-3.6,1.3-8,4.7-9.9c1.1-0.6,2.3-1,3.4-1c0.5,0,1,0.1,1.4,0.2
		l1.5,0.4l0.1-1.5c0.3-4,2.8-7.8,6.2-9.8C57.1,38.5,58.6,38.1,60.1,38.1 M60.1,36.8c-1.6,0-3.3,0.5-5,1.4c-3.8,2.2-6.5,6.4-6.8,10.8
		c-0.6-0.2-1.2-0.2-1.8-0.2c-1.3,0-2.7,0.4-4,1.1c-3.9,2.3-6.2,7.2-5.3,11.3c-0.3,0.1-0.6,0.3-0.9,0.4c-3.9,2.2-6,7.2-4.8,11.1
		c0.8,2.7,3,4.2,5.5,4.2c1.2,0,2.4-0.3,3.6-1c1.8-1,29.1-16.6,30.7-17.6c3.6-2.1,5.8-7.2,4.6-11c-0.8-2.6-3-4.1-5.5-4.1
		c-0.9,0-1.8,0.2-2.7,0.6c-0.1-0.5-0.2-0.9-0.3-1.4C66.3,38.8,63.4,36.8,60.1,36.8L60.1,36.8z"/>
	<path class="st2" d="M91.7,44c-3.8,2.2-7.9,0.8-9.1-3.1c-1.2-3.9,0.9-8.9,4.8-11.1c0.3-0.2,0.6-0.3,0.9-0.4
		c-0.9-4.1,1.4-9.1,5.3-11.3c1.9-1.1,4-1.4,5.8-0.9c0.4-4.3,3-8.6,6.8-10.8c5.2-3,10.7-1.1,12.3,4.1c0.1,0.4,0.2,0.9,0.3,1.4
		c3.6-1.5,7.1,0,8.2,3.6c1.2,3.8-1,8.9-4.6,11C120.8,27.3,93.5,42.9,91.7,44L91.7,44z"/>
	<path class="st3" d="M129.9,15.1l-7.1-4.9l0,0c-1-0.9-2.4-1.3-3.8-1.3l-0.6-1.7l-4.8-3.1c-0.4-0.3-0.8-0.6-1.3-0.8l0,0l0,0
		c-2.4-1.2-5.5-1.1-8.4,0.6c-3.8,2.2-6.5,6.4-6.8,10.8c-1.8-0.5-3.9-0.2-5.8,0.9C87.3,17.9,85,22.9,86,27c-0.3,0.1-0.6,0.3-0.9,0.4
		c-3.9,2.2-6,7.2-4.8,11.1c0.4,1.3,1.1,2.3,2,3l0,0l0.1,0c0.2,0.2,0.5,0.3,0.7,0.5l5.6,3.6l21.3-15.7c5.2-3,9.6-5.5,10.2-5.8
		c1.7-1,3.1-2.7,4-4.6L129.9,15.1z"/>
	<path class="st2" d="M95.5,45.5c-3.8,2.2-7.9,0.8-9.1-3.1c-1.2-3.9,0.9-8.9,4.8-11.1c0.3-0.2,0.6-0.3,0.9-0.4
		c-0.9-4.1,1.4-9.1,5.3-11.3c1.9-1.1,4-1.4,5.8-0.9c0.4-4.3,3-8.6,6.8-10.8c5.2-3,10.7-1.1,12.3,4.1c0.1,0.4,0.2,0.9,0.3,1.4
		c3.6-1.5,7.1,0,8.2,3.6c1.2,3.8-1,8.9-4.6,11C124.6,28.9,97.3,44.5,95.5,45.5L95.5,45.5z"/>
	<path class="st6" d="M114.9,7.8c2.9,0,5.2,1.7,6.1,4.6c0.1,0.4,0.2,0.8,0.3,1.2l0.3,1.6l1.5-0.6c0.8-0.3,1.5-0.5,2.3-0.5
		c2,0,3.6,1.2,4.3,3.2c1,3.2-0.9,7.7-4,9.5l-15.3,8.7l-15.4,8.8c-1,0.6-2,0.9-3,0.9c-2,0-3.6-1.2-4.3-3.3c-1-3.3,0.9-7.7,4.2-9.6
		c0.2-0.1,0.5-0.3,0.7-0.4l1-0.4l-0.2-1c-0.8-3.6,1.3-8,4.7-9.9c1.1-0.6,2.3-1,3.4-1c0.5,0,1,0.1,1.4,0.2l1.5,0.4l0.1-1.5
		c0.3-4,2.8-7.8,6.2-9.8C112,8.2,113.5,7.8,114.9,7.8 M114.9,6.5c-1.6,0-3.3,0.5-5,1.4c-3.8,2.2-6.5,6.4-6.8,10.8
		c-0.6-0.2-1.2-0.2-1.8-0.2c-1.3,0-2.7,0.4-4,1.1c-3.9,2.3-6.2,7.2-5.3,11.3c-0.3,0.1-0.6,0.3-0.9,0.4c-3.9,2.2-6,7.2-4.8,11.1
		c0.8,2.7,3,4.2,5.5,4.2c1.2,0,2.4-0.3,3.6-1c1.8-1,29.1-16.6,30.7-17.6c3.6-2.1,5.8-7.2,4.6-11c-0.8-2.6-3-4.1-5.5-4.1
		c-0.9,0-1.8,0.2-2.7,0.6c-0.1-0.5-0.2-0.9-0.3-1.4C121.2,8.5,118.3,6.5,114.9,6.5L114.9,6.5z"/>
	<path class="st3" d="M60.3,127.1l-1.4,0.4c-1.6-2.8-4.3-5.3-7.6-7c0.1-1.2-0.3-2.1-0.6-3.3c-0.5,0.9-1,1.5-1.9,2.2
		c0.1-1.2-0.4-2.4-1.2-3.5c0.1,0.6-0.3,1.2-0.6,1.7c-0.3,0.5-0.8,1.1-1.6,1.3c-0.6,0.2-1.3,0.1-2,0.2c-0.1,0-0.2,0-0.3,0L38,117v5.7
		l0,0c0,1.6,1.8,3.6,4.5,4.6l0,0.1c-1.3,0.7-3.4,1.5-6.2,2.1l-1.3-0.1v-1.2l-9.9-4v5.7c0.1,0.5,2.2,3,6.8,3.8v1.1c0,0,0,0,0,0
		c0,0,0,0,0,0v0l0,0c2.9,1.6,5.9,1.9,8.1,1.6v1c0,0,0,0,0,0c1.3,0.5,2.6,0.7,3.9,0.7v5.1c0,0,0,0,0,0c0,0,0,0,0,0v0l0.1,0
		c3.4,0,15.8-3.3,16.4-9.6c0-0.3,0-0.5,0-0.8l0,0V127.1z"/>
	<g>
		<linearGradient id="SVGID_11_" gradientUnits="userSpaceOnUse" x1="33.1563" y1="123.6071" x2="97.827" y2="124.8752">
			<stop  offset="5.750000e-02" style="stop-color:#585DD4"/>
			<stop  offset="1" style="stop-color:#C286BC"/>
		</linearGradient>
		<path class="st20" d="M43.7,137.5c3.6-1.7,4.7-3.4,5.3-6.3c-0.1,0.3-5,2.2-9.1,0.5c1-0.4,2-0.7,2.2-1.5c-2.1,0.8-6.3,1.2-10.3-1.1
			c1.2-0.1,1.9-0.3,3.1-0.9c-6.8,0.1-9.7-3.4-9.9-4c8.2,1.2,14.7-1,17.4-2.4l0-0.1c-2.8-1.1-4.6-3.2-4.5-4.8
			c0.2-1.7,2.6-3.3,5.4-3.4c0.7,0,1.4,0,2-0.2c0.9-0.2,1.3-0.8,1.6-1.3c0.3-0.5,0.7-1.1,0.6-1.7c0.9,1.1,1.3,2.4,1.2,3.5
			c1-0.8,1.4-1.3,1.9-2.2c0.4,1.2,0.8,2.1,0.6,3.3c5.4,2.8,9.4,7.6,8.9,13C59.7,134.2,46.9,137.5,43.7,137.5L43.7,137.5z"/>
	</g>
	<path class="st3" d="M135.4,92.7v-7.9L121,81.2l-3.9,0.5l-2.3-1.3c-1.2-0.7-3-0.8-4-0.2l-5.4,3.1l-2.7,0.4l-9.2-1.3l0.1,8
		c-0.2,0.6,0.1,1.2,0.9,1.7l19.6,11.4c1.2,0.7,3,0.8,4,0.2l16.7-9.7C135.4,93.7,135.6,93.2,135.4,92.7z"/>
	<polygon class="st2" points="96.4,82.7 113.2,73.4 133.2,84.4 116.1,95 	"/>
	<path d="M110.9,71.8l-16.7,9.7c-1,0.6-0.9,1.6,0.3,2.3L114,95.2c1.2,0.7,3,0.8,4,0.2l16.7-9.7c1-0.6,0.9-1.6-0.3-2.3L114.9,72
		C113.7,71.3,111.9,71.2,110.9,71.8L110.9,71.8z M119.2,90.9c0.3,0.2,0.4,0.5,0.1,0.7l-2.3,1.3c-0.3,0.2-0.8,0.1-1.2-0.1l-11.2-6.5
		c-0.4-0.2-0.4-0.5-0.1-0.7l2.3-1.3c0.3-0.2,0.8-0.1,1.2,0.1L119.2,90.9z M104.7,84.4c-1.2,0.7-3.3,0.6-4.7-0.2
		c-1.4-0.8-1.6-2-0.4-2.7c1.2-0.7,3.3-0.6,4.7,0.2C105.7,82.5,105.9,83.7,104.7,84.4L104.7,84.4z M131.2,84c0.3,0.2,0.4,0.5,0.1,0.6
		l-2.5,1.4c-0.3,0.2-0.8,0.1-1.1-0.1l-5.3-3.1c-0.8-0.5-3.2-2.1-5.2-1c-1.5,0.9,0,2.1,0.8,2.6l6.1,3.5c0.3,0.2,0.4,0.5,0.1,0.6
		l-2.4,1.4c-0.3,0.2-0.8,0.1-1.1-0.1l-11.3-6.6c-0.3-0.2-0.4-0.5-0.1-0.6l2.4-1.4c0.3-0.2,0.8-0.1,1.1,0.1l1,0.6
		c-0.4-0.9-0.4-1.8,1.4-2.8c3.9-2.3,8.2,0.2,10.6,1.6L131.2,84z M131.2,84"/>
	<polygon class="st0" points="114.2,242.6 137.2,255.8 185.5,228.6 162.5,215.5 	"/>
	<polygon class="st5" points="135,206.7 135,254.3 183.3,227.1 183.3,179.6 	"/>
	<polygon class="st2" points="137.4,208.6 137.4,256.2 185.7,229 185.7,181.4 	"/>
	<path class="st3" d="M184.4,183.6v44.6L138.6,254v-44.6L184.4,183.6 M185.7,181.4l-48.3,27.2v47.6l48.3-27.2V181.4L185.7,181.4z"/>
	<polygon class="st3" points="145.9,221.9 145.9,242.8 149.9,240.5 149.9,219.6 	"/>
	<polygon class="st6" points="152.9,226.4 152.9,238.8 156.8,236.5 156.8,224 	"/>
	<polygon class="st7" points="159.8,218.1 159.8,234.8 163.8,232.5 163.8,215.8 	"/>
	<polygon class="st6" points="166.8,209.9 166.8,230.8 170.8,228.4 170.8,207.5 	"/>
	<polygon class="st5" points="173.8,218.6 173.8,226.8 177.8,224.4 177.8,216.2 	"/>
	<polygon class="st3" points="137.4,216.9 185.7,189.7 185.7,181.4 137.4,208.6 	"/>
	
		<ellipse transform="matrix(0.4622 -0.8868 0.8868 0.4622 -67.0593 262.9548)" class="st1" cx="183.3" cy="186.8" rx="1.7" ry="0.9"/>
	
		<ellipse transform="matrix(0.4622 -0.8868 0.8868 0.4622 -70.5745 260.9709)" class="st1" cx="179.9" cy="188.7" rx="1.7" ry="0.9"/>
	
		<ellipse transform="matrix(0.4622 -0.8868 0.8868 0.4622 -74.1171 259.0036)" class="st1" cx="176.5" cy="190.6" rx="1.7" ry="0.9"/>
	<polygon class="st0" points="41,203.7 64,216.8 112.3,189.7 89.3,176.5 	"/>
	<polygon class="st2" points="63.8,169.3 63.8,216.9 112.1,189.7 112.1,142.1 	"/>
	<path class="st7" d="M94.7,167.5c-0.1,0-0.2,0-0.2,0c-5.5-0.4-11.7,5.4-14.1,12.8l10.1,0.5L94.7,167.5z"/>
	<path class="st1" d="M94.7,167.5l-4.3,13.3l9.9,0.5C102.4,174.1,99.9,168,94.7,167.5z"/>
	<path class="st3" d="M100.2,181.7c0-0.1,0.1-0.2,0.1-0.3l-9.9-0.5l-10.1-0.5c0,0,0,0.1,0,0.1c-2.3,7.5,0.2,13.8,5.7,14.2
		c0,0,0,0,0.1,0C91.6,194.9,97.9,189.1,100.2,181.7z"/>
	<path class="st3" d="M110.9,144.3v44.6l-45.8,25.8v-44.6L110.9,144.3 M112.1,142.1l-48.3,27.2v47.6l48.3-27.2V142.1L112.1,142.1z"
		/>
	<polygon class="st3" points="63.8,177.6 112.1,150.4 112.1,142.1 63.8,169.3 	"/>
	
		<ellipse transform="matrix(0.4622 -0.8868 0.8868 0.4622 -71.6877 176.7998)" class="st1" cx="109.9" cy="147.5" rx="1.7" ry="0.9"/>
	
		<ellipse transform="matrix(0.4622 -0.8868 0.8868 0.4622 -75.203 174.8159)" class="st1" cx="106.5" cy="149.4" rx="1.7" ry="0.9"/>
	
		<ellipse transform="matrix(0.4622 -0.8868 0.8868 0.4622 -78.7456 172.8486)" class="st1" cx="103.1" cy="151.3" rx="1.7" ry="0.9"/>
	<path class="st3" d="M168.9,254.5l12.4-7.3c0.5-0.3,1.1-0.3,1.6,0l10.7,6.3c0.3,0.2,0.3,0.6,0,0.8l-12.4,7.3
		c-0.5,0.3-1.1,0.3-1.6,0l-10.7-6.3C168.6,255.1,168.6,254.7,168.9,254.5z"/>
	<path class="st5" d="M168.9,250.4l12.4-7.3c0.5-0.3,1.1-0.3,1.6,0l10.7,6.3c0.3,0.2,0.3,0.6,0,0.8l-12.4,7.3
		c-0.5,0.3-1.1,0.3-1.6,0l-10.7-6.3C168.6,251,168.6,250.5,168.9,250.4z"/>
	<path class="st8" d="M176.2,234.7l1.2,1.2c0,0-2.1,1-2.9,1.7v-2.3l0.3-2.3L176.2,234.7z"/>
	<path class="st7" d="M173.5,233.2v2.1c0,0,0,0.7,0.7,0.7s0.6-0.8,0.6-0.8l0-1.4c0,0,0.4,0.1,0.4,0.5c0,0.4,0,0.4,0,0.4l-0.2,0.1
		c0,0,0,0.5,0.5,0.5s0.7-0.3,0.7-0.7s0-1.6,0-1.6s0.3-0.6-0.9-1.3c-1.1-0.7-2.1-0.5-2.5,0C172.4,232.3,172.9,232.8,173.5,233.2z"/>
	<path class="st8" d="M173.5,233.2l1.1,0.6v0.7c0,0.3-0.2,0.5-0.5,0.5l0,0c-0.3,0-0.5-0.2-0.5-0.5V233.2z"/>
	<path class="st7" d="M173.5,234.6l-0.2-0.2c-0.1-0.1-0.1-0.2,0-0.2l0.3-0.5V234.6z"/>
	<path class="st3" d="M175.6,246l-0.4-0.2c-0.5-0.3-1.1,0-1.2,0.5l-0.6,2.9l0.4,0.1l1.5-1.1c0.1-0.2,0.4-0.2,0.6,0l0.8,0.9l0.7-0.7
		L175.6,246z"/>
	<path class="st5" d="M171.8,240.6c0,0,1.8-3.3,5.6-4.8c3.8-1.4,5.4,4.6,5.4,6.5c0,1.9-0.4,4.5-0.4,4.5l-2.5,1.4
		c-0.6,0.3-1.3,0.3-1.9,0l-2-1l-1.7-4.5l-0.5,0.6L171.8,240.6z"/>
	<polygon class="st5" points="174.2,242.7 175,241.7 175.9,247.2 	"/>
	<path class="st8" d="M169.2,245.5l-0.2-4.7c0,0,0-0.1-0.2-0.4c-0.2-0.3-0.7-1.2,0.1-1.6c0,0,0.3-0.1,0.2,0.3c0,0.5,0.1,0.7,0.2,0.4
		s0.4-0.2,0.4,0s-0.1,1-0.1,1l0.8,2.8L169.2,245.5z"/>
	<path class="st8" d="M171.8,240.6l-2.5,4.4c0,0-0.3,0.8,0.3,1.1c0.6,0.2,0.8-0.1,1.5-0.8c0.8-0.7,2.5-2.1,2.5-2.1L171.8,240.6z"/>
	<path class="st9" d="M175.9,247.2l-5.4-0.4c-0.6,0-1.1,0.3-1.3,0.9l-2.2,6.9h0.3l3.1-4.9c0.2-0.3,0.5-0.4,0.8-0.3l5.5,1.5
		c0,0,1.7,0.4,3.1-0.4c1.4-0.8,2.3-1,2.6-3.6L175.9,247.2z"/>
	<polygon class="st7" points="167,254.5 165.9,254.8 166.1,255 167.2,255.2 167.4,255 167.3,254.5 	"/>
	<path class="st5" d="M169.3,251.3l-0.4-0.3c-0.2-0.1-0.2-0.5,0-0.6l1.6-1c0,0-0.1,0.1-0.1,0.1L169.3,251.3z"/>
	<path class="st3" d="M494.8,110.8l20.1,10.3L515,163l0,1.7l0,0l0,1.8c-1.2,0-2.4-0.3-3.5-0.9l-15.6-9c-0.5-0.3-0.9-0.8-0.9-1.4l0,0
		V110.8z"/>
	<path class="st7" d="M521.5,119v43.7c0,0,0,0,0,0v0.1l0,0c0,0.6-0.4,1.2-1,1.6l-2.1,1.2c-1.1,0.6-2.3,0.9-3.5,0.9l0-44.8L521.5,119
		z"/>
	<path class="st2" d="M495.8,109.6l2.1-1.2c2.2-1.2,4.8-1.3,7,0l15.7,9c1.3,0.7,1.3,2.6,0,3.4l-2.1,1.2c-2.2,1.2-4.8,1.2-7,0
		l-15.6-9C494.5,112.2,494.5,110.3,495.8,109.6z"/>
	<path class="st1" d="M501.4,108.3L501.4,108.3c1.1,0,2.1,0.3,3.1,0.8l15.7,9c0.5,0.3,0.6,0.8,0.6,1c0,0.2-0.1,0.7-0.5,0.9l-2.1,1.2
		c-0.9,0.5-2,0.8-3.1,0.8c-1.1,0-2.1-0.3-3.1-0.8l-15.6-9c-0.5-0.3-0.5-0.8-0.5-1c0-0.2,0.1-0.7,0.5-0.9l2.1-1.2
		C499.2,108.6,500.3,108.3,501.4,108.3 M501.4,107.5c-1.2,0-2.4,0.3-3.5,0.9l-2.1,1.2c-1.3,0.7-1.3,2.6,0,3.4l15.6,9
		c1.1,0.6,2.3,0.9,3.5,0.9c1.2,0,2.4-0.3,3.5-0.9l2.1-1.2c1.3-0.7,1.3-2.6,0-3.4l-15.7-9C503.8,107.8,502.6,107.5,501.4,107.5
		L501.4,107.5z"/>
	<polygon class="st2" points="496.4,117.5 496.4,150.7 513.2,160.4 513.2,126.5 	"/>
	<path class="st3" d="M504.6,144.9l-4.3-2.5c0,0-0.6-0.2-0.6-1.1c0-0.8,0.1-9.2,0.1-9.2s0.1-0.8,0.7-0.4s8,4.6,8,4.6s0.6,0.3,0.6,1
		c0,0.6-0.1,9.4-0.1,9.4s0,0.7-0.6,0.3c-0.6-0.3-2.3-1.3-2.3-1.3l0.1-4.1l1.2,0.7l0.2-1.5l-1.4-0.8l0-1.2c0,0,0-0.7,0.6-0.4
		c0.6,0.3,0.9,0.5,0.9,0.5l0-1.5l-1.1-0.7c0,0-1.8-1.1-1.8,1.3l0,1.1l-1.2-0.7l0,1.6l1.2,0.7L504.6,144.9z"/>
	<path class="st2" d="M82.6,110.7c2.6,1.4,6.4,1.6,8.5,0.3c2.2-1.3,1.8-3.4-0.7-4.9L82.6,110.7z"/>
	<path class="st6" d="M91.8,99.1l-0.5,0.3c-1.5,0.9-4,0.8-5.7-0.1L83,97.8l0,0l-1.8-1c-4.5-2.5-11.5-2.6-15.6-0.2l0,0l0,0l0,0l0,0
		c-4.1,2.4-3.8,6.4,0.7,8.9l1.8,1v0l2.6,1.5c1.6,0.9,1.7,2.4,0.3,3.2l-0.5,0.3c-0.1,0-0.1,0.1,0,0.2l5.8,3.3c0.1,0,0.2,0,0.3,0
		L98,102.5c0.1,0,0.1-0.1,0-0.2l-5.8-3.3C92,99,91.9,99,91.8,99.1z"/>
	<polygon class="st3" points="76.4,114.9 76.5,123.2 83.3,119.3 83.3,111 	"/>
	<path class="st3" d="M91,106.5c0,0,1.5,0.9,1.5,2.5c0,1.3-1.5,2.2-1.5,2.2l0,3.7l7-4.1v-8.3L91,106.5z"/>
	<path class="st5" d="M92.5,109.4c-0.1,0.6-0.5,1.2-1.3,1.7c-2,1.1-5.6,1.1-8-0.2l0.1,8.3c2.3,1.3,6,1.3,8,0.2
		c0.8-0.5,1.2-1.1,1.3-1.7L92.5,109.4z"/>
	<polygon class="st5" points="70.5,111.6 70.5,119.9 76.5,123.2 76.4,114.9 	"/>
	<path class="st5" d="M70.9,108c-0.7-0.4-5.5-3.1-5.5-3.1c-2.2-1.5-2.6-3.1-2.7-3.9l0,7.6c0,0.2,0,0.5,0,0.8c0.3,3,4.9,5.1,4.9,5.1
		l2.8,1.6l0-4.4c0,0,1.5-0.7,1.5-1.7C72,108.9,71.7,108.4,70.9,108z"/>
	<path class="st3" d="M231.1,44.7l-6-0.4c-8.2-7.2-23.7-11.1-38.3-9c-6.2,0.9-11.5,2.7-15.4,5.1l-8.2-0.6v12.1
		c-0.2,2.2,0.3,4.4,1.6,6.7c5.7,10.4,24.8,16.8,42.6,14.3c13.7-1.9,22.7-8.5,23.6-16.1l0.1,0V44.7z"/>
	<g>
		
			<ellipse transform="matrix(5.951955e-02 -0.9982 0.9982 5.951955e-02 143.2483 236.7989)" class="st2" cx="197.3" cy="42.4" rx="19.3" ry="34.2"/>
	</g>
	<path class="st1" d="M194.9,23.8c7.4,0,14.9,1.4,21.1,4c6.2,2.6,10.9,6.3,13.1,10.4c1.9,3.4,2,7,0.3,10.3
		c-3,5.9-11.2,10.4-21.9,11.9c-2.5,0.4-5.2,0.5-7.8,0.5c-7.4,0-14.9-1.4-21.1-4c-6.2-2.6-10.9-6.3-13.1-10.4c-1.9-3.4-2-7-0.3-10.3
		c3-5.9,11.2-10.4,21.9-11.9C189.6,24,192.3,23.8,194.9,23.8L194.9,23.8 M194.9,23c-2.6,0-5.3,0.2-7.9,0.5
		c-18,2.5-27.9,13-22.2,23.4c4.9,8.9,19.6,14.9,34.9,14.9c2.6,0,5.3-0.2,7.9-0.5c18-2.5,27.9-13,22.2-23.4C225,29,210.3,23,194.9,23
		L194.9,23z"/>
	<polygon class="st5" points="219.2,44.1 212.2,41.5 212.2,46.3 	"/>
	<path class="st5" d="M205.3,36.5c-4.5-1.9-10.2-2.4-15.1-1.5l-9.9-1v8.1c-0.5,2.8,1.2,5.7,5.2,7.9c6.6,3.7,16.8,3.8,22.8,0.3
		c2-1.2,3.3-2.6,3.8-4.1l0,0l0,0l0,0l0-4.8l0-4.4L205.3,36.5z"/>
	<path class="st2" d="M211.6,32.1c-0.9-1.4-2.3-2.7-4.3-3.9c-6.6-3.7-16.8-3.8-22.8-0.3c-6,3.5-5.5,9.3,1,13
		c6.6,3.7,16.8,3.8,22.8,0.3c2-1.2,3.3-2.6,3.8-4.1l0,0l7-2.3L211.6,32.1L211.6,32.1z"/>
	<path class="st1" d="M195.2,26.3c4.3,0,8.5,1,11.6,2.8c1.8,1,3.2,2.3,4,3.6l0.3,0.5l0.4-0.1l5,1.8l-4.4,1.4l-0.5-0.2l-0.3,0.8
		c-0.5,1.4-1.7,2.6-3.5,3.6c-2.7,1.6-6.3,2.4-10.3,2.4c-4.3,0-8.5-1-11.6-2.8c-3-1.7-4.8-4-4.8-6.2c0-2,1.3-3.9,3.8-5.3
		C187.6,27.1,191.2,26.3,195.2,26.3 M195.2,25.4c-4,0-7.9,0.8-10.8,2.5c-6,3.5-5.5,9.3,1,13c3.4,1.9,7.8,2.9,12,2.9
		c4,0,7.9-0.8,10.8-2.5c2-1.2,3.3-2.6,3.8-4.1l0,0l7-2.3l-7.6-2.8l0,0c-0.9-1.4-2.3-2.7-4.3-3.9C203.9,26.4,199.5,25.4,195.2,25.4
		L195.2,25.4z"/>
	
		<ellipse transform="matrix(5.951955e-02 -0.9982 0.9982 5.951955e-02 141.1105 225.7408)" class="st7" cx="190.4" cy="38" rx="1.4" ry="2.5"/>
	
		<ellipse transform="matrix(5.951955e-02 -0.9982 0.9982 5.951955e-02 150.1244 228.4253)" class="st7" cx="196.3" cy="34.5" rx="1.4" ry="2.5"/>
	
		<ellipse transform="matrix(5.951955e-02 -0.9982 0.9982 5.951955e-02 159.1382 231.1098)" class="st7" cx="202.2" cy="31.1" rx="1.4" ry="2.5"/>
	<polygon class="st3" points="212.2,46.3 212.1,37.2 219.2,34.9 219.2,44.1 	"/>
	<path class="st6" d="M83,247.5c-1.7,0-4-0.9-6.6-4.6c-1.3-1.8-2.6-2.6-3.9-2.5c-2.5,0.3-4.6,4.2-5.2,5.7l-1.2-0.5
		c0.1-0.2,2.5-6.1,6.2-6.5c1.8-0.2,3.5,0.8,5.1,3c2.1,3,4.3,4.3,6.2,4c2.2-0.4,3.7-3,4.4-5.3c0.2-0.8,0.5-2,0.7-3.4
		c1.2-5.8,2.9-14.6,8.7-17.8l0.6,1.1c-5.2,2.9-6.9,11.3-8,16.9c-0.3,1.4-0.5,2.6-0.8,3.5c-0.8,2.7-2.6,5.7-5.4,6.2
		C83.5,247.4,83.3,247.5,83,247.5z"/>
	<polygon class="st0" points="36.1,257.7 59,270.8 107.3,243.7 84.4,230.5 	"/>
	<polygon class="st2" points="58.2,224.3 58.2,271.9 106.5,244.7 106.5,197.2 	"/>
	<path class="st3" d="M105.2,199.3V244l-45.8,25.8v-44.6L105.2,199.3 M106.5,197.2l-48.3,27.2v47.6l48.3-27.2V197.2L106.5,197.2z"/>
	<polygon class="st0" points="66.7,237.7 66.7,258.6 70.7,256.2 70.7,235.3 	"/>
	<polygon class="st0" points="73.7,242.1 73.7,254.6 77.6,252.2 77.6,239.7 	"/>
	<polygon class="st0" points="80.7,233.9 80.7,250.5 84.6,248.2 84.6,231.5 	"/>
	<polygon class="st0" points="87.6,225.6 87.6,246.5 91.6,244.2 91.6,223.3 	"/>
	<polygon class="st0" points="94.6,234.3 94.6,242.5 98.6,240.2 98.6,231.9 	"/>
	<polygon class="st3" points="58.2,232.6 106.5,205.5 106.5,197.2 58.2,224.3 	"/>
	
		<ellipse transform="matrix(0.4622 -0.8868 0.8868 0.4622 -123.5951 201.1956)" class="st1" cx="104.1" cy="202.5" rx="1.7" ry="0.9"/>
	
		<ellipse transform="matrix(0.4622 -0.8868 0.8868 0.4622 -127.1104 199.2118)" class="st1" cx="100.7" cy="204.4" rx="1.7" ry="0.9"/>
	
		<ellipse transform="matrix(0.4622 -0.8868 0.8868 0.4622 -130.653 197.2444)" class="st1" cx="97.3" cy="206.3" rx="1.7" ry="0.9"/>
	<path class="st9" d="M71.3,255.9c-2.3,0-4.2-1.6-5.1-2.8l1-0.7c0.1,0.2,2.7,3.7,6.1,1.7c1.6-0.9,1.8-2.5,2.2-4.8
		c0.4-2.8,1-6.2,4.3-9.9c3.2-3.5,6.1-3.4,9.2-3.3c2.7,0.1,5.6,0.2,9.2-2.1l0.7,1.1c-3.9,2.5-7.1,2.3-9.9,2.3
		c-3.1-0.1-5.5-0.2-8.2,2.9c-3.1,3.4-3.6,6.6-4,9.2c-0.4,2.4-0.7,4.4-2.8,5.7C73.1,255.7,72.1,255.9,71.3,255.9z"/>
	<path class="st8" d="M92.2,231.9l-0.8,2.5c-0.2,0.5,0.2,1,0.7,1h2.1v-2L92.2,231.9z"/>
	<path class="st7" d="M92.2,231.9c0,0-0.8-1,0-1.6c0.8-0.6,1.5-0.1,1.8,0.2c0.3,0.3,1.4,0.9,1,2.2c-0.4,1.3-0.5,1.6-0.5,1.6
		s-0.4,0.7-0.9,0.5C93,234.6,93,234,93,234s0.5,0.1,0.5-0.3S92.7,232.6,92.2,231.9z"/>
	<path class="st6" d="M91.9,232.6l-0.5,0.4c0,0,0,0.1,0,0.1l0.2,0.2L91.9,232.6z"/>
	<polygon class="st8" points="92.6,235.4 92.8,237.4 95.7,236.9 94.1,235.3 	"/>
	<path class="st6" d="M94.8,269.4h-1l0.9,0.9c0,0,0.6,0.2,0.6-0.1c0-0.2-0.2-1-0.2-1L94.8,269.4z"/>
	<path class="st3" d="M93,258.1c0,0-0.2,1.6,0,2.8c0.2,1,1.4,6.9,1.6,8.2c0,0.2,0.2,0.3,0.3,0.3l0,0c0.2,0,0.4-0.2,0.4-0.3l0.2-13.8
		l0.8-6.7l-2.7,3L93,258.1z"/>
	<path class="st6" d="M91.2,271.6l-1.2,0.5c0,0.2,1.6,0.4,1.6,0.4l0.2-0.3l-0.2-0.7L91.2,271.6z"/>
	<polygon class="st5" points="83.6,236 87.7,233.9 90.6,239.4 86.4,241.6 	"/>
	<path class="st18" d="M90,249.2l-0.4,8.4l1.5,13.7c0,0.2,0.2,0.3,0.3,0.3l0,0c0.2,0,0.3-0.1,0.3-0.3l1.1-12.1l1.6-7.3
		c0,0,1.8-0.7,2-3.3C96.6,245.9,90,249.2,90,249.2z"/>
	<path class="st5" d="M88.2,241.8c0,0,2.4-3.2,4.2-4.9c1.2,0.6,3.2-0.3,3.2-0.3s1.7,1.8,1.5,4.7c-0.2,2.5-0.5,5.2-0.6,7
		c0,0.3-0.2,0.6-0.4,0.7l-2.3,1.4c-0.5,0.3-1.2,0.3-1.8,0l-2-1.2l-0.4-5.6l-0.7,0.5L88.2,241.8z"/>
	<path class="st8" d="M88.2,241.8l-3.7,3.3c-0.2,0.4-0.1,0.8,0.2,1.1l0,0c0.3,0.2,0.7,0.2,1,0l3.3-2.1L88.2,241.8z"/>
	<path class="st8" d="M84.3,245.4l0.3-5.7c0,0-1.1-0.9-0.2-1.7l0.6,1.1v-0.8c0,0,0.7,0.1,0.5,0.7c-0.2,0.6-0.1,0.8,0,1.4
		c0.1,0.6,0.3,3.7,0.3,3.7L84.3,245.4z"/>
	<path class="st7" d="M92.4,232.1c0,0,1.1,2.9-1,5.1c0,0,4.3,1.8,4.3-0.8c0-2.7-0.5-4.4-1.4-5.5S92.4,232.1,92.4,232.1z"/>
	<polygon class="st4" points="84.9,236.3 85.6,237.7 86.9,237 86.2,235.6 	"/>
	<polygon class="st4" points="85.9,238.4 86.7,239.8 88,239.1 87.3,237.7 	"/>
	<polygon class="st2" points="86.1,237 85.4,236.7 85.6,236.3 85.9,236.5 86.3,235.4 86.6,235.5 	"/>
	<polygon class="st2" points="87.2,239.1 86.5,238.8 86.7,238.4 87,238.6 87.4,237.4 87.8,237.6 	"/>
	<path class="st4" d="M309.2,350c-2,0-3.9-0.5-5.6-1.5l-77.2-44.6c-1.3-0.8-2.1-2.1-2.1-3.7c0-1.5,0.8-2.9,2.1-3.7l51.5-29.7
		l0.6,1.1L227,297.7c-0.9,0.5-1.5,1.5-1.5,2.6c0,1.1,0.6,2,1.5,2.6l77.2,44.6c3.1,1.8,6.9,1.8,10,0l57.4-33.2l0.6,1.1l-57.4,33.2
		C313.2,349.5,311.2,350,309.2,350z"/>
	
		<rect x="136.6" y="73.6" transform="matrix(0.866 -0.5001 0.5001 0.866 -17.6559 82.6366)" class="st4" width="17.5" height="1.3"/>
	
		<rect x="240.9" y="73.8" transform="matrix(0.5116 -0.8592 0.8592 0.5116 44.5392 249.2598)" class="st4" width="1.3" height="23.2"/>
	
		<rect x="391.5" y="117.9" transform="matrix(0.866 -0.5001 0.5001 0.866 -4.3976 220.5696)" class="st4" width="35.6" height="1.3"/>
	<path class="st3" d="M103.3,285.2l-0.6-1.1l28.4-16.4c1.7-1,3.8-1,5.5,0l20.6,11.9l-0.6,1.1l-20.6-11.9c-1.3-0.8-2.9-0.8-4.2,0
		L103.3,285.2z"/>
	
		<rect x="453" y="265.2" transform="matrix(0.8626 -0.5059 0.5059 0.8626 -71.3788 268.9374)" class="st4" width="13" height="1.3"/>
	<path class="st3" d="M564,149.3l20.1,10.3l0.1,41.9l0,1.7l0,0l0,1.8c-1.2,0-2.4-0.3-3.5-0.9l-15.6-9c-0.5-0.3-0.9-0.8-0.9-1.4l0,0
		V149.3z"/>
	<path class="st7" d="M590.7,157.6v43.7c0,0,0,0,0,0v0.1l0,0c0,0.6-0.4,1.2-1,1.6l-2.1,1.2c-1.1,0.6-2.3,0.9-3.5,0.9l0-44.8
		L590.7,157.6z"/>
	<path class="st2" d="M565,148.1l2.1-1.2c2.2-1.2,4.8-1.3,7,0l15.7,9c1.3,0.7,1.3,2.6,0,3.4l-2.1,1.2c-2.2,1.2-4.8,1.2-7,0l-15.6-9
		C563.7,150.7,563.7,148.8,565,148.1z"/>
	<path class="st1" d="M570.6,146.8L570.6,146.8c1.1,0,2.1,0.3,3.1,0.8l15.7,9c0.5,0.3,0.6,0.8,0.6,1c0,0.2-0.1,0.7-0.5,0.9l-2.1,1.2
		c-0.9,0.5-2,0.8-3.1,0.8c-1.1,0-2.1-0.3-3.1-0.8l-15.6-9c-0.5-0.3-0.5-0.8-0.5-1c0-0.2,0.1-0.7,0.5-0.9l2.1-1.2
		C568.4,147.1,569.5,146.8,570.6,146.8 M570.6,146c-1.2,0-2.4,0.3-3.5,0.9l-2.1,1.2c-1.3,0.7-1.3,2.6,0,3.4l15.6,9
		c1.1,0.6,2.3,0.9,3.5,0.9c1.2,0,2.4-0.3,3.5-0.9l2.1-1.2c1.3-0.7,1.3-2.6,0-3.4l-15.7-9C573,146.3,571.8,146,570.6,146L570.6,146z"
		/>
	<polygon class="st2" points="565.6,156 565.6,189.2 582.4,198.9 582.4,165 	"/>
	<path class="st4" d="M579,180.7c-0.2-0.4-0.2-0.8-0.2-1.1c0,0,0,0,0,0c0-3.1-2-6.7-4.7-8.1c-0.6-0.3-1.1-0.5-1.6-0.5
		c-0.3,0-0.6-0.2-0.9-0.4c-0.2-0.2-0.5-0.4-0.8-0.5c-1.2-0.5-2.1,0.1-2.2,1.4c0,0.6,0.1,1.3,0.4,2c0.2,0.4,0.2,0.8,0.2,1.1l0,0
		c0,3.1,2,6.7,4.7,8.1c0.6,0.3,1.1,0.5,1.6,0.5c0.3,0,0.6,0.2,0.9,0.4c0.2,0.2,0.5,0.4,0.8,0.5c1.2,0.5,2.1-0.1,2.2-1.4
		C579.4,182,579.3,181.3,579,180.7L579,180.7z M574.2,176.2c1,0.8,2.4,1.9,2.4,3.8c0,0.9-0.4,1.4-1.1,1.4c-0.5,0-1.1-0.3-1.6-0.5
		c-1.5-0.8-2.4-2.7-2.5-2.7c-0.2-0.5-0.2-1,0.1-1.1c0.3-0.1,0.8,0.2,1,0.7c0,0,0.6,1.1,1.4,1.5c1,0.5,1.2,0.3,1.2,0
		c0-0.3-0.2-0.7-1.3-1.6c-0.9-0.7-2.3-1.8-2.2-3.6c0-0.5,0.2-2.2,2.6-0.9c1.5,0.8,2.4,2.7,2.4,2.7c0.2,0.5,0.2,1-0.2,1.1
		c-0.3,0.1-0.8-0.2-1-0.7c0,0-0.5-1-1.3-1.5c-0.6-0.4-1.1-0.4-1.2-0.1C573,175.1,573.2,175.3,574.2,176.2L574.2,176.2z M574.2,176.2
		"/>
	<path class="st3" d="M529.4,130.3l20.1,10.3l0.1,41.9l0,1.7l0,0l0,1.8c-1.2,0-2.4-0.3-3.5-0.9l-15.6-9c-0.5-0.3-0.9-0.8-0.9-1.4
		l0,0V130.3z"/>
	<path class="st7" d="M556.1,138.5v43.7c0,0,0,0,0,0v0.1l0,0c0,0.6-0.4,1.2-1,1.6l-2.1,1.2c-1.1,0.6-2.3,0.9-3.5,0.9l0-44.8
		L556.1,138.5z"/>
	<path class="st2" d="M530.4,129l2.1-1.2c2.2-1.2,4.8-1.3,7,0l15.7,9c1.3,0.7,1.3,2.6,0,3.4l-2.1,1.2c-2.2,1.2-4.8,1.2-7,0l-15.6-9
		C529.1,131.7,529.1,129.8,530.4,129z"/>
	<path class="st1" d="M536,127.8L536,127.8c1.1,0,2.1,0.3,3.1,0.8l15.7,9c0.5,0.3,0.6,0.8,0.6,1c0,0.2-0.1,0.7-0.5,0.9l-2.1,1.2
		c-0.9,0.5-2,0.8-3.1,0.8c-1.1,0-2.1-0.3-3.1-0.8l-15.6-9c-0.5-0.3-0.5-0.8-0.5-1c0-0.2,0.1-0.7,0.5-0.9l2.1-1.2
		C533.8,128.1,534.9,127.8,536,127.8 M536,126.9c-1.2,0-2.4,0.3-3.5,0.9l-2.1,1.2c-1.3,0.7-1.3,2.6,0,3.4l15.6,9
		c1.1,0.6,2.3,0.9,3.5,0.9c1.2,0,2.4-0.3,3.5-0.9l2.1-1.2c1.3-0.7,1.3-2.6,0-3.4l-15.7-9C538.4,127.2,537.2,126.9,536,126.9
		L536,126.9z"/>
	<polygon class="st2" points="531,137 531,170.2 547.8,179.9 547.8,146 	"/>
	<path class="st6" d="M541.5,153.7l-4.7-2.7c-1.4-0.8-2.5,0-2.5,1.7l0.1,6.2c0,1.8,1.2,3.9,2.6,4.7l4.7,2.7c1.4,0.8,2.5,0,2.5-1.7
		l-0.1-6.2C544.1,156.6,542.9,154.5,541.5,153.7z M543.3,164c0,1.1-0.7,1.6-1.6,1.1l-4.7-2.7c-0.9-0.5-1.6-1.8-1.6-2.9l-0.1-6.2
		c0-1.1,0.7-1.6,1.6-1.1l4.7,2.7c0.9,0.5,1.6,1.8,1.6,2.9L543.3,164z"/>
	<path class="st6" d="M539.2,155.4c-1.4-0.8-2.6,0-2.6,1.8c0,1.8,1.2,4,2.6,4.8c1.4,0.8,2.6,0,2.6-1.8
		C541.9,158.4,540.7,156.3,539.2,155.4z M539.3,160.8c-0.9-0.5-1.7-1.9-1.7-3c0-1.1,0.7-1.6,1.6-1.1c0.9,0.5,1.7,1.9,1.7,3
		C540.9,160.8,540.2,161.3,539.3,160.8z"/>
	
		<ellipse transform="matrix(0.8977 -0.4406 0.4406 0.8977 -13.6882 254.8279)" class="st6" cx="541.9" cy="156.9" rx="0.5" ry="0.9"/>
	<path class="st8" d="M496.7,147l0.7,2c0.2,0.6-0.3,1.2-0.9,1.2h-1.6v-1.9L496.7,147z"/>
	<path class="st7" d="M496.7,147c0,0,0.7-0.9,0-1.5c-0.7-0.6-1.4-0.1-1.6,0.2c-0.3,0.3-1.3,0.9-0.9,2.1c0.3,1.2,0.5,1.5,0.5,1.5
		s0.4,0.7,0.8,0.5c0.5-0.2,0.5-0.8,0.5-0.8s-0.4,0.1-0.4-0.3C495.5,148.2,496.2,147.7,496.7,147z"/>
	<path class="st6" d="M496.9,147.7l0.7,0.6c0,0,0,0.1,0,0.2l-0.4,0.3L496.9,147.7z"/>
	<polygon class="st8" points="496.5,150.3 496.5,151.9 494.8,150.2 	"/>
	<path class="st6" d="M494.2,182h0.9l-0.8,0.8c0,0-0.6,0.1-0.6-0.1c0-0.2,0.2-0.9,0.2-0.9L494.2,182z"/>
	<path class="st5" d="M495.9,171.5c0,0,0.2,1.5,0,2.6c-0.2,1-1.3,6.4-1.5,7.7c0,0.2-0.2,0.3-0.3,0.3l0,0c-0.2,0-0.3-0.1-0.3-0.3
		l-0.2-12.9l-0.8-6.3l2.5,2.8L495.9,171.5z"/>
	<path class="st6" d="M497.6,184l1.1,0.5c0,0.2-1.5,0.3-1.5,0.3l-0.2-0.3l0.1-0.6L497.6,184z"/>
	<polygon class="st5" points="504.7,150.9 500.9,148.9 498.1,154 502.1,156.1 	"/>
	<polygon class="st17" points="501.1,149.8 500.4,151.1 501.7,151.8 502.4,150.5 	"/>
	<polygon class="st17" points="500.3,151.4 499.6,152.7 500.8,153.3 501.5,152 	"/>
	<polygon class="st2" points="501.2,151.2 501.1,150.4 501.5,150.4 501.5,150.7 502.6,150.4 502.7,150.8 	"/>
	<polygon class="st2" points="500.4,152.8 500.3,152.1 500.7,152 500.7,152.3 501.8,152 501.9,152.4 	"/>
	<path class="st5" d="M498.7,163.2l0.4,7.8l-1.4,12.8c0,0.2-0.1,0.3-0.3,0.3l0,0c-0.2,0-0.3-0.1-0.3-0.3l-1-11.3l-1.5-6.8
		c0,0-1.7-0.6-1.9-3.1C492.5,160.1,498.7,163.2,498.7,163.2z"/>
	<path class="st9" d="M501.5,155.7l-1.1-1.9c0,0-0.9-1.2-2-1.7c-1.1-0.5-3.6-1.9-3.6-1.9s-3-0.5-2.8,2.2c0.1,2.3,0.5,8.2,0.6,9.9
		c0,0.3,0.2,0.5,0.4,0.7l2.1,1.3c0.5,0.3,1.1,0.3,1.6,0l1.9-1.1l0.4-5.2l0.6,0.4L501.5,155.7z"/>
	<path class="st8" d="M501.5,155.7l2.3,3.7c0.2,0.3,0.1,0.8-0.2,1l0,0c-0.3,0.2-0.6,0.2-0.9,0l-2.9-2.2L501.5,155.7z"/>
	<path class="st8" d="M504,159.6l-0.3-5.3c0,0,1-0.9,0.2-1.6l-0.5,1V153c0,0-0.6,0.1-0.5,0.6c0.1,0.5,0.1,0.7,0,1.3
		c-0.1,0.6-0.5,1.9-0.5,1.9L504,159.6z"/>
	<path class="st8" d="M533.5,165.9l0.7,2c0.2,0.6-0.3,1.2-0.9,1.2h-1.6v-1.9L533.5,165.9z"/>
	<path class="st5" d="M533.5,165.9c0,0,0.7-0.9,0-1.5c-0.7-0.6-1.4-0.1-1.6,0.2c-0.3,0.3-1.3,0.9-0.9,2.1c0.3,1.2,0.5,1.5,0.5,1.5
		s0.4,0.7,0.8,0.5c0.5-0.2,0.5-0.8,0.5-0.8s-0.4,0.1-0.4-0.3S533,166.6,533.5,165.9z"/>
	<path class="st6" d="M533.8,166.6l0.7,0.6c0,0,0,0.1,0,0.2l-0.4,0.3L533.8,166.6z"/>
	<polygon class="st8" points="533.3,169.2 533.3,170.8 531.7,169.1 	"/>
	<path class="st6" d="M531.1,200.9h0.9l-0.8,0.8c0,0-0.6,0.1-0.6-0.1c0-0.2,0.2-0.9,0.2-0.9L531.1,200.9z"/>
	<path class="st3" d="M532.7,190.4c0,0,0.2,1.5,0,2.6c-0.2,1-1.3,6.4-1.5,7.7c0,0.2-0.2,0.3-0.3,0.3l0,0c-0.2,0-0.3-0.1-0.3-0.3
		l-0.2-12.9l-0.8-6.3l2.5,2.8L532.7,190.4z"/>
	<path class="st6" d="M534.4,202.9l1.1,0.5c0,0.2-1.5,0.3-1.5,0.3l-0.2-0.3l0.1-0.6L534.4,202.9z"/>
	<polygon class="st5" points="541.5,169.8 537.7,167.8 534.9,172.9 538.9,175 	"/>
	<polygon class="st17" points="538,168.7 537.2,170 538.5,170.7 539.2,169.4 	"/>
	<polygon class="st17" points="537.1,170.3 536.4,171.6 537.6,172.2 538.4,170.9 	"/>
	<polygon class="st2" points="538,170.1 537.9,169.3 538.3,169.3 538.3,169.6 539.4,169.3 539.5,169.7 	"/>
	<polygon class="st2" points="537.2,171.7 537.1,171 537.5,170.9 537.5,171.2 538.6,170.9 538.7,171.3 	"/>
	<path class="st18" d="M535.5,182.1l0.4,7.8l-1.4,12.8c0,0.2-0.1,0.3-0.3,0.3l0,0c-0.2,0-0.3-0.1-0.3-0.3l-1-11.3l-1.5-6.8
		c0,0-1.7-0.6-1.9-3.1C529.3,179,535.5,182.1,535.5,182.1z"/>
	<path class="st5" d="M538.4,174.6l-1.1-1.9c0,0-0.9-1.2-2-1.7c-1.1-0.5-3.6-1.9-3.6-1.9s-3-0.5-2.8,2.2c0.1,2.3,0.5,8.2,0.6,9.9
		c0,0.3,0.2,0.5,0.4,0.7l2.1,1.3c0.5,0.3,1.1,0.3,1.6,0l1.9-1.1l0.4-5.2l0.6,0.4L538.4,174.6z"/>
	<path class="st8" d="M538.4,174.6l2.3,3.7c0.2,0.3,0.1,0.8-0.2,1v0c-0.3,0.2-0.6,0.2-0.9,0l-2.9-2.2L538.4,174.6z"/>
	<path class="st8" d="M540.8,178.5l-0.3-5.3c0,0,1-0.9,0.2-1.6l-0.5,1v-0.8c0,0-0.6,0.1-0.5,0.6c0.1,0.5,0.1,0.7,0,1.3
		s-0.5,1.9-0.5,1.9L540.8,178.5z"/>
	<path class="st6" d="M207.3,296.9c0-0.2,0-0.4,0-0.7v-6.8l-2.7,1.3c-1-1-2.2-1.9-3.7-2.8l-12.2-7c-7.8-4.5-19.7-5-26.5-1.1
		l-25.7,14.9l-4.6-1.1v8.2l0,0c0.2,2.9,2.4,5.8,6.5,8.2l12.2,7c7.8,4.5,19.7,5,26.5,1.1l4.8-2.8c1.6-0.9,4.1-1.2,6.6-0.7l12.9,2.7
		v-7.5l-5.2-1.7c0.1-0.8,0.7-1.5,1.6-2l5-2.9C205.6,301.5,207.1,299.3,207.3,296.9L207.3,296.9L207.3,296.9z"/>
	<path class="st21" d="M162.2,272.3l-25.7,14.9c-6.8,3.9-5.9,10.8,1.9,15.3l12.2,7c7.8,4.5,19.7,5,26.5,1.1l4.8-2.8
		c1.6-0.9,4.1-1.2,6.6-0.7l12.9,2.7l-4.7-7.3c-0.9-1.4-0.5-2.9,1.2-3.9l5-2.9c6.8-3.9,5.9-10.8-1.9-15.3l-12.2-7
		C180.8,268.9,169,268.4,162.2,272.3z"/>
	<path id="XMLID_2_" class="st2" d="M170,288.1c-2.6-1.5-6.6-1.7-8.9-0.4c-1.2,0.7-1.6,1.6-1.5,2.5c-1.6-0.1-3.2,0.2-4.4,0.9
		c-2.3,1.3-2,3.6,0.6,5.1c1.3,0.7,2.9,1.2,4.4,1.2L173,298l-0.9-7.5c0-0.1-0.1-0.3-0.1-0.3C171.7,289.5,171,288.7,170,288.1z"/>
	<polygon class="st2" points="173.7,280.8 173.7,280.8 173,283.4 175.3,284.6 176.1,282.2 186.8,288.4 188.6,287.3 175.5,279.8 	"/>
	<path class="st6" d="M118.4,305.1c0-0.2,0-0.4,0-0.7v-6.8l-2.7,1.3c-1-1-2.2-1.9-3.7-2.8l-12.2-7c-7.8-4.5-19.7-5-26.5-1.1
		l-25.7,14.9l-4.6-1.1v8.2l0,0c0.2,2.9,2.4,5.8,6.5,8.2l12.2,7c7.8,4.5,19.7,5,26.5,1.1l4.8-2.8c1.6-0.9,4.1-1.2,6.6-0.7l12.9,2.7
		v-7.5l-5.2-1.7c0.1-0.8,0.7-1.5,1.6-2l5-2.9C116.7,309.7,118.2,307.4,118.4,305.1L118.4,305.1L118.4,305.1z"/>
	<path class="st21" d="M73.3,280.5l-25.7,14.9c-6.8,3.9-5.9,10.8,1.9,15.3l12.2,7c7.8,4.5,19.7,5,26.5,1.1l4.8-2.8
		c1.6-0.9,4.1-1.2,6.6-0.7l12.9,2.7l-4.7-7.3c-0.9-1.4-0.5-2.9,1.2-3.9l5-2.9c6.8-3.9,5.9-10.8-1.9-15.3l-12.2-7
		C91.9,277.1,80.1,276.6,73.3,280.5z"/>
	<path id="XMLID_1_" class="st2" d="M81.1,296.3c-2.6-1.5-6.6-1.7-8.9-0.4c-1.2,0.7-1.6,1.6-1.5,2.5c-1.6-0.1-3.2,0.2-4.4,0.9
		c-2.3,1.3-2,3.6,0.6,5.1c1.3,0.7,2.9,1.2,4.4,1.2l12.7,0.5l-0.9-7.5c0-0.1-0.1-0.3-0.1-0.3C82.8,297.6,82.1,296.9,81.1,296.3z"/>
	<polygon class="st2" points="84.8,289 84.8,289 84.1,291.5 86.4,292.8 87.1,290.4 97.9,296.6 99.7,295.5 86.6,287.9 	"/>
</g>
</svg>
