<?xml version="1.0" encoding="utf-8"?>
<!-- Generator: Adobe Illustrator 22.1.0, SVG Export Plug-In . SVG Version: 6.00 Build 0)  -->
<svg version="1.1" id="Capa_1" xmlns="http://www.w3.org/2000/svg" xmlns:xlink="http://www.w3.org/1999/xlink" x="0px" y="0px"
	 viewBox="0 0 503.5 336.9" style="enable-background:new 0 0 503.5 336.9;" xml:space="preserve">
<style type="text/css">
	.st0{fill:#5C61DE;}
	.st1{fill:#FC80A7;}
	.st2{fill:#FFFFFF;}
	.st3{fill:#69DCA2;}
	.st4{fill:#F1F1F1;}
	.st5{fill:none;stroke:#DDDDDD;stroke-width:3;stroke-miterlimit:10;}
	.st6{fill:none;stroke:#DDDDDD;stroke-width:2;stroke-miterlimit:10;}
	.st7{fill:url(#SVGID_1_);}
	.st8{fill:#585DD2;}
	.st9{fill:#DC7C71;}
	.st10{fill:#FFA493;}
	.st11{fill:#58B685;}
	.st12{fill:#418563;}
	.st13{fill:none;stroke:#C0C2FD;stroke-miterlimit:10;}
</style>
<g>
	<path class="st0" d="M389.5,0H240.6c-14.1,0-27.2,7.5-34.2,19.8L132,148.7c-7.1,12.2-7.1,27.3,0,39.5l74.4,128.9
		c7.1,12.2,20.1,19.8,34.2,19.8h148.9c14.1,0,27.2-7.5,34.2-19.8l74.4-128.9c7.1-12.2,7.1-27.3,0-39.5L423.7,19.8
		C416.7,7.5,403.6,0,389.5,0z"/>
	<path class="st1" d="M460.1,4h10.4c2.1,0,4.1,1.1,5.2,3l5.2,9c1.1,1.8,1.1,4.1,0,6l-5.2,9c-1.1,1.8-3,3-5.2,3h-10.4
		c-2.1,0-4.1-1.1-5.2-3l-5.2-9c-1.1-1.8-1.1-4.1,0-6l5.2-9C456,5.1,457.9,4,460.1,4z"/>
	<g>
		<path class="st2" d="M157.3,85.2V264c0,3.6,2.6,6.5,5.9,6.5h304.3c3.2,0,5.9-2.9,5.9-6.5V67c0-3.6-2.6-6.5-5.9-6.5H163.2
			c-3.2,0-5.9,2.9-5.9,6.5V85.2z"/>
		<g>
			<circle class="st3" cx="451.3" cy="71.5" r="2"/>
			<circle class="st3" cx="458.3" cy="71.5" r="2"/>
			<circle class="st3" cx="465.3" cy="71.5" r="2"/>
		</g>
		<path class="st4" d="M157.3,82.5V264c0,3.6,2.6,6.5,5.9,6.5h304.3c3.2,0,5.9-2.9,5.9-6.5V82.5H157.3z"/>
		<g>
			<g>
				<path class="st5" d="M456.8,252c0,1.1-0.9,2-2,2h-275c-1.1,0-2-0.9-2-2V106c0-1.1,0.9-2,2-2h275c1.1,0,2,0.9,2,2V252z"/>
			</g>
			<line class="st5" x1="208.8" y1="103.5" x2="208.8" y2="253.5"/>
			<line class="st5" x1="239.8" y1="103.5" x2="239.8" y2="253.5"/>
			<line class="st5" x1="270.8" y1="103.5" x2="270.8" y2="253.5"/>
			<line class="st5" x1="301.8" y1="103.5" x2="301.8" y2="253.5"/>
			<line class="st5" x1="332.8" y1="103.5" x2="332.8" y2="253.5"/>
			<line class="st5" x1="363.8" y1="103.5" x2="363.8" y2="253.5"/>
			<line class="st5" x1="394.8" y1="103.5" x2="394.8" y2="253.5"/>
			<line class="st5" x1="425.8" y1="103.5" x2="425.8" y2="253.5"/>
			<line class="st5" x1="456.8" y1="103.5" x2="456.8" y2="253.5"/>
			<line class="st6" x1="177.3" y1="103.5" x2="177.3" y2="253.5"/>
			<line class="st5" x1="177.3" y1="164" x2="456.3" y2="164"/>
			<line class="st5" x1="177.3" y1="134" x2="456.3" y2="134"/>
			<line class="st5" x1="177.3" y1="194" x2="456.3" y2="194"/>
			<line class="st5" x1="177.3" y1="224" x2="456.3" y2="224"/>
		</g>
		<linearGradient id="SVGID_1_" gradientUnits="userSpaceOnUse" x1="191.5686" y1="149.5062" x2="381.5686" y2="149.5062">
			<stop  offset="0" style="stop-color:#FC80A7"/>
			<stop  offset="1" style="stop-color:#FC9383"/>
		</linearGradient>
		<path class="st7" d="M374.6,156.5l-175.7,0c-3.6,0-6.8-2.6-7.2-6.1c-0.5-4.3,2.8-7.9,6.9-7.9h175.7c3.6,0,6.8,2.6,7.2,6.1
			C382,152.9,378.7,156.5,374.6,156.5z"/>
		<path class="st3" d="M401.6,185.5l-49.7,0c-3.6,0-6.8-2.6-7.2-6.1c-0.5-4.3,2.8-7.9,6.9-7.9h49.7c3.6,0,6.8,2.6,7.2,6.1
			C409,181.9,405.7,185.5,401.6,185.5z"/>
	</g>
	<g>
		<path class="st8" d="M157.7,275c0,0-25.5-51.7-72.9-65.2l61.2,77.9l13.6-2.2L157.7,275z"/>
		<path class="st9" d="M120.6,303.8h54c3.4,0,6.2-2.8,6.2-6.2v-6.1c0-3.4-2.8-6.2-6.2-6.2h-54c-3.4,0-6.2,2.8-6.2,6.2v6.1
			C114.5,301,117.2,303.8,120.6,303.8z"/>
		<polygon class="st10" points="172.6,303.8 164.2,336.9 131.6,336.9 122.8,303.8 		"/>
		<path class="st11" d="M165.1,285.4c0,0,30.4-24.9,15.6-46.1c-14.8-21.2-23.4-29.3-8.2-58c15.2-28.7,13.9-46.4,2.1-50
			c0,0-0.5,52.3-16.3,69.6s-13.8,45.9-8,61c5.8,15.1,4.3,23.6,4.3,23.6H165.1z"/>
		<path class="st12" d="M174.6,131.2c0,0,10.1,32.9-2.1,50c-12.2,17.1-23.8,38.6-15.8,55c7.9,16.4,13.8,31.2,9.6,38.7
			c-4.2,7.4-6.7,10.5-6.7,10.5h-5.1c0,0-3.8-14.9-11.8-34c-7.9-19.1-8.9-39.3,3.2-54C158.2,182.7,176.3,138.3,174.6,131.2z"/>
		<path class="st13" d="M154.6,285.5c0,0-11.6-28.4-28.1-43.8s-40-31.4-40-31.4"/>
		<path class="st13" d="M150.2,276c0,0-9.3-6.9-20.7-10.9"/>
		<path class="st13" d="M126.4,241.7c0,0-4.8-11.9-7.4-13.8"/>
		<path class="st8" d="M154.6,279.3c0,0-27.9-92.2-55.6-134.9S34.2,74.6,34.2,74.6S99.4,111,154.6,279.3z"/>
		<path class="st8" d="M67.1,105.7c0,0-34.3-13.6-67.1-4.2C0,101.4,52.2,110,67.1,105.7z"/>
		<path class="st8" d="M51.8,89.1c0,0-26.4-13.7-51.8-5.9C0,83.1,41.1,91.9,51.8,89.1z"/>
		<path class="st8" d="M78.1,119.8c0,0-30.6-2.6-52.2,3.5s-23.3,8.6-23.3,8.6S72.1,127.6,78.1,119.8z"/>
		<path class="st8" d="M90.2,131.8c0,0-34.1,3.7-46.2,19.6s-12.1,15.9-12.1,15.9S89.4,139,90.2,131.8z"/>
		<path class="st8" d="M97.7,149.5c0,0-24.4,16.3-30.6,33.8c-6.2,17.5-6,15-6,15S96.3,154.6,97.7,149.5z"/>
		<path class="st8" d="M105.6,163.5c0,0-13.7,15.1-15.4,29.1c-1.7,14.1,0,15,0,15S104.3,168.9,105.6,163.5z"/>
		<path class="st8" d="M38.2,77.3c0,0-21.6-11.4-32.4-6.8C5.8,70.5,34.5,74.5,38.2,77.3z"/>
		<path class="st11" d="M43.2,81.2c0,0-3.1-16.7,4.6-24.4S43.2,81.2,43.2,81.2z"/>
		<path class="st11" d="M55.4,92.6c0,0-2.6-20.8,0-29.2C55.4,63.3,59.6,75,55.4,92.6z"/>
		<path class="st11" d="M66.2,103.5c0,0,1-18.7,11.9-22.3s16.2-1.7,16.2-1.7s-5,0.3-12,5.7S69.1,92.5,66.2,103.5z"/>
		<path class="st11" d="M79.4,119.3c0,0,8.2-23.3,18.2-28c9.9-4.8,12.7-6,12.7-6L79.4,119.3z"/>
		<path class="st11" d="M88,132.1c0,0,7.2-17.3,19.5-22.8s17-5.8,17-5.8L88,132.1z"/>
		<path class="st11" d="M97.7,149.5c0,0,6.4-23,19.1-23.9c12.6-0.9,14.2,0,14.2,0L97.7,149.5z"/>
	</g>
</g>
</svg>
