<?xml version="1.0" encoding="utf-8"?>
<!-- Generator: Adobe Illustrator 22.1.0, SVG Export Plug-In . SVG Version: 6.00 Build 0)  -->
<svg version="1.1" id="Capa_1" xmlns="http://www.w3.org/2000/svg" xmlns:xlink="http://www.w3.org/1999/xlink" x="0px" y="0px"
	 viewBox="0 0 89 89" style="enable-background:new 0 0 89 89;" xml:space="preserve">
<style type="text/css">
	.st0{fill:none;stroke:#7F6FEF;stroke-width:3;stroke-miterlimit:10;}
	.st1{fill:#7F6FEF;stroke:#7F6FEF;stroke-miterlimit:10;}
</style>
<g>
	<circle class="st0" cx="44.5" cy="44.5" r="43"/>
	<g>
		<path class="st1" d="M50.9,39.5c-2.4,0-4.5,1.8-4.8,4.1c-0.1,0-0.2-0.1-0.3-0.1l-19.4-0.1c-2.1,0-3.9,0.8-5.4,2.2
			c-1.4,1.4-2.3,3.3-2.3,5.4l0,5.3c0,2.1,0.8,4.1,2.2,5.5c1.3,1.4,3.1,2.1,4.9,2.1l6,0l-1.6,1.6c-0.3,0.3-0.3,0.8,0,1.1
			c0.2,0.2,0.4,0.2,0.6,0.2c0.2,0,0.4-0.1,0.6-0.2l3-3c0.2-0.1,0.2-0.4,0.2-0.6c0-0.2-0.1-0.4-0.2-0.6l-3-3c-0.3-0.3-0.8-0.3-1.1,0
			c-0.3,0.3-0.3,0.8,0,1.1l1.6,1.6l-6,0c-1.4,0-2.8-0.6-3.8-1.6c-1.1-1.1-1.8-2.7-1.8-4.4l0-5.3c0-1.6,0.6-3.1,1.8-4.2
			c1.1-1.1,2.7-1.7,4.3-1.7l19.4,0.1c0,0,0,0,0,0c0.1,0,0.2,0,0.3-0.1c0.3,2.4,2.4,4.2,4.8,4.2h0c2.7,0,4.9-2.2,4.9-4.9
			C55.9,41.7,53.7,39.5,50.9,39.5z M50.9,47.7v0.8V47.7c-0.9,0-1.7-0.4-2.4-1c-0.6-0.6-1-1.5-1-2.3c0-1.8,1.5-3.3,3.3-3.3
			c1.8,0,3.3,1.5,3.3,3.3C54.2,46.2,52.8,47.7,50.9,47.7z"/>
		<path class="st1" d="M41.5,58.7c-2.7,0-4.9,2.2-4.9,4.9c0,2.7,2.2,4.9,4.9,4.9h0c2.7,0,4.9-2.2,4.9-4.9
			C46.4,60.9,44.3,58.7,41.5,58.7z M41.5,66.9v0.8V66.9c-1.8,0-3.3-1.5-3.3-3.3c0-1.8,1.5-3.3,3.3-3.3c1.8,0,3.3,1.5,3.3,3.3
			C44.8,65.4,43.3,66.9,41.5,66.9z"/>
		<path class="st1" d="M62.7,24.9l-26.7-0.2c-0.4-2.3-2.4-4.1-4.8-4.1c-2.7,0-4.9,2.2-4.9,4.9c0,2.7,2.2,4.9,4.9,4.9h0
			c2.4,0,4.4-1.8,4.8-4.1l26.7,0.2c3.3,0,6,2.7,6,6.1l0,5.2c0,1.6-0.5,3.2-1.4,4.3c-0.8,1.1-1.9,1.7-3,1.7c0,0,0,0,0,0l-4.2,0
			l1.6-1.6c0.3-0.3,0.3-0.8,0-1.1c-0.3-0.3-0.8-0.3-1.1,0l-3,3c-0.2,0.1-0.2,0.4-0.2,0.6c0,0.2,0.1,0.4,0.2,0.6l3,3
			c0.2,0.2,0.4,0.2,0.6,0.2c0.2,0,0.4-0.1,0.6-0.2c0.3-0.3,0.3-0.8,0-1.1l-1.6-1.6l4.2,0c0,0,0,0,0,0c1.6,0,3.1-0.8,4.2-2.3
			c1.1-1.4,1.7-3.3,1.7-5.3l0-5.2C70.2,28.3,66.8,24.9,62.7,24.9z M31.1,28.7v0.8V28.7c-1.8,0-3.3-1.5-3.3-3.3
			c0-1.8,1.5-3.3,3.3-3.3c1.8,0,3.3,1.5,3.3,3.3C34.4,27.2,32.9,28.7,31.1,28.7z"/>
	</g>
</g>
</svg>
