<?xml version="1.0" encoding="utf-8"?>
<!-- Generator: Adobe Illustrator 22.1.0, SVG Export Plug-In . SVG Version: 6.00 Build 0)  -->
<svg version="1.1" id="Capa_1" xmlns="http://www.w3.org/2000/svg" xmlns:xlink="http://www.w3.org/1999/xlink" x="0px" y="0px"
	 viewBox="0 0 29 29" style="enable-background:new 0 0 29 29;" xml:space="preserve">
<style type="text/css">
	.st0{fill:#E62C29;}
</style>
<g>
	<g>
		<g>
			<path class="st0" d="M14.5,29C6.5,29,0,22.5,0,14.5S6.5,0,14.5,0S29,6.5,29,14.5S22.5,29,14.5,29z M14.5,1.3
				C7.2,1.3,1.3,7.2,1.3,14.5s5.9,13.2,13.2,13.2s13.2-5.9,13.2-13.2S21.8,1.3,14.5,1.3z"/>
			<g>
				<polygon class="st0" points="18.1,8.1 14.5,11.6 10.9,8.1 8.6,10.5 12.1,14.1 8.6,17.6 10.9,20 14.5,16.5 18.1,20 20.4,17.6 
					16.9,14.1 20.4,10.5 				"/>
			</g>
		</g>
	</g>
</g>
</svg>
