<?xml version="1.0" encoding="utf-8"?>
<!-- Generator: Adobe Illustrator 22.1.0, SVG Export Plug-In . SVG Version: 6.00 Build 0)  -->
<svg version="1.1" id="Capa_1" xmlns="http://www.w3.org/2000/svg" xmlns:xlink="http://www.w3.org/1999/xlink" x="0px" y="0px"
	 viewBox="0 0 20.9 20.9" style="enable-background:new 0 0 20.9 20.9;" xml:space="preserve">
<style type="text/css">
	.st0{fill:#1C1C1C;}
</style>
<g>
	<g>
		<path class="st0" d="M10.4,1.9c2.8,0,3.1,0,4.2,0.1c1,0,1.6,0.2,1.9,0.4c0.5,0.2,0.8,0.4,1.2,0.8c0.4,0.4,0.6,0.7,0.8,1.2
			c0.1,0.4,0.3,0.9,0.4,1.9C19,7.3,19,7.7,19,10.4s0,3.1-0.1,4.2c0,1-0.2,1.6-0.4,1.9c-0.2,0.5-0.4,0.8-0.8,1.2
			c-0.4,0.4-0.7,0.6-1.2,0.8c-0.4,0.1-0.9,0.3-1.9,0.4C13.6,19,13.2,19,10.4,19s-3.1,0-4.2-0.1c-1,0-1.6-0.2-1.9-0.4
			c-0.5-0.2-0.8-0.4-1.2-0.8c-0.4-0.4-0.6-0.7-0.8-1.2c-0.1-0.4-0.3-0.9-0.4-1.9c-0.1-1.1-0.1-1.4-0.1-4.2s0-3.1,0.1-4.2
			c0-1,0.2-1.6,0.4-1.9c0.2-0.5,0.4-0.8,0.8-1.2c0.4-0.4,0.7-0.6,1.2-0.8C4.7,2.2,5.2,2,6.2,1.9C7.3,1.9,7.7,1.9,10.4,1.9 M10.4,0
			C7.6,0,7.3,0,6.1,0.1C5,0.1,4.3,0.3,3.6,0.5C2.9,0.8,2.3,1.2,1.8,1.8C1.2,2.3,0.8,2.9,0.5,3.6C0.3,4.3,0.1,5,0.1,6.1
			C0,7.3,0,7.6,0,10.4c0,2.8,0,3.2,0.1,4.3c0.1,1.1,0.2,1.9,0.5,2.5c0.3,0.7,0.6,1.3,1.2,1.9c0.6,0.6,1.2,0.9,1.9,1.2
			c0.7,0.3,1.4,0.4,2.5,0.5c1.1,0.1,1.5,0.1,4.3,0.1s3.2,0,4.3-0.1c1.1-0.1,1.9-0.2,2.5-0.5c0.7-0.3,1.3-0.6,1.9-1.2
			c0.6-0.6,0.9-1.2,1.2-1.9c0.3-0.7,0.4-1.4,0.5-2.5c0.1-1.1,0.1-1.5,0.1-4.3s0-3.2-0.1-4.3c-0.1-1.1-0.2-1.9-0.5-2.5
			c-0.3-0.7-0.6-1.3-1.2-1.9c-0.6-0.6-1.2-0.9-1.9-1.2c-0.7-0.3-1.4-0.4-2.5-0.5C13.6,0,13.3,0,10.4,0L10.4,0z"/>
		<path class="st0" d="M10.4,5.1c-3,0-5.4,2.4-5.4,5.4s2.4,5.4,5.4,5.4s5.4-2.4,5.4-5.4S13.4,5.1,10.4,5.1z M10.4,13.9
			c-1.9,0-3.5-1.6-3.5-3.5S8.5,7,10.4,7c1.9,0,3.5,1.6,3.5,3.5S12.4,13.9,10.4,13.9z"/>
		<circle class="st0" cx="16" cy="4.9" r="1.3"/>
	</g>
</g>
</svg>
