<?xml version="1.0" encoding="utf-8"?>
<!-- Generator: Adobe Illustrator 22.1.0, SVG Export Plug-In . SVG Version: 6.00 Build 0)  -->
<svg version="1.1" id="Capa_1" xmlns="http://www.w3.org/2000/svg" xmlns:xlink="http://www.w3.org/1999/xlink" x="0px" y="0px"
	 viewBox="0 0 19.7 19.6" style="enable-background:new 0 0 19.7 19.6;" xml:space="preserve">
<style type="text/css">
	.st0{fill:#1C1C1C;}
</style>
<path class="st0" d="M0.3,19.6h4.1V6.5H0.3V19.6z M2.4,0C1.1,0,0,1.1,0,2.4c0,1.3,1.1,2.4,2.4,2.4c1.3,0,2.4-1.1,2.4-2.4
	C4.7,1.1,3.7,0,2.4,0z M14.8,6.2c-2,0-3.3,1.1-3.9,2.1h-0.1V6.5H7v13.1H11v-6.5c0-1.7,0.3-3.4,2.4-3.4c2.1,0,2.1,2,2.1,3.5v6.4h4.1
	v-7.2C19.7,8.9,18.9,6.2,14.8,6.2z"/>
</svg>
