<?xml version="1.0" encoding="utf-8"?>
<!-- Generator: Adobe Illustrator 22.1.0, SVG Export Plug-In . SVG Version: 6.00 Build 0)  -->
<svg version="1.1" id="Capa_1" xmlns="http://www.w3.org/2000/svg" xmlns:xlink="http://www.w3.org/1999/xlink" x="0px" y="0px"
	 viewBox="0 0 1193.8 426.6" style="enable-background:new 0 0 1193.8 426.6;" xml:space="preserve">
<style type="text/css">
	.st0{fill:url(#SVGID_1_);}
	.st1{fill:#FFFFFF;}
	.st2{opacity:0.8;fill:#FFFFFF;enable-background:new    ;}
	.st3{fill:none;}
	.st4{opacity:0.15;}
	.st5{fill:#23E584;}
	.st6{opacity:5.000000e-02;}
	.st7{opacity:2.000000e-02;}
	.st8{opacity:0.1;}
	.st9{opacity:0.25;}
	.st10{fill:#F4B244;}
	.st11{opacity:0.7;fill:#FFFFFF;enable-background:new    ;}
</style>
<g>
	<g>
		
			<linearGradient id="SVGID_1_" gradientUnits="userSpaceOnUse" x1="249.8504" y1="91.2628" x2="899.011" y2="301.6666" gradientTransform="matrix(1 0 0 -1 0 425.8898)">
			<stop  offset="0" style="stop-color:#F4B244"/>
			<stop  offset="0.4869" style="stop-color:#7F6FEF"/>
			<stop  offset="1" style="stop-color:#37986B"/>
		</linearGradient>
		<path class="st0" d="M324.2,231.5c3.3,0,7.3-2.3,9-5.2l19.6-33.9c1.6-2.9,1.6-7.5,0-10.4l-19.6-33.9c-1.6-2.9-5.7-5.2-9-5.2h-39.1
			c-3.3,0-7.4,2.3-9,5.2L256.5,182c-1.6,2.9-1.6,7.5,0,10.4l19.6,33.9c1.6,2.9,5.7,5.2,9,5.2L324.2,231.5L324.2,231.5z M248.6,196.4
			c-1.6-2.9-5.7-5.2-9-5.2h-39.1c-3.3,0-7.3,2.3-9,5.2l-19.6,33.9c-1.6,2.9-1.6,7.5,0,10.4l19.6,33.9c1.7,2.9,5.7,5.2,9,5.2h39.1
			c3.3,0,7.3-2.3,9-5.2l19.6-33.9c1.6-2.9,1.6-7.5,0-10.4L248.6,196.4z M360.1,274.6c1.7,2.9,5.7,5.2,9,5.2h39.1
			c3.3,0,7.4-2.3,9-5.2l19.6-33.9c1.6-2.9,1.6-7.5,0-10.4l-19.6-33.9c-1.6-2.9-5.7-5.2-9-5.2h-39.1c-3.3,0-7.3,2.3-9,5.2l-19.6,33.9
			c-1.6,2.9-1.6,7.5,0,10.4L360.1,274.6z M612.9,226.3c1.7,2.9,5.7,5.2,9,5.2H661c3.3,0,7.3-2.3,9-5.2l19.6-33.9
			c1.6-2.9,1.7-7.5,0-10.4L670,148.1c-1.6-2.9-5.7-5.2-9-5.2h-39.1c-3.3,0-7.3,2.3-9,5.2L593.3,182c-1.7,2.9-1.7,7.5,0,10.4
			L612.9,226.3z M826.7,231.9c3.3,0,7.3-2.3,9-5.2l19.6-33.9c1.6-2.9,1.7-7.5,0-10.4l-19.6-33.9c-1.6-2.9-5.7-5.2-9-5.2h-39.1
			c-3.3,0-7.3,2.3-9,5.2L759,182.4c-1.7,2.9-1.7,7.5,0,10.4l19.6,33.9c1.7,2.9,5.7,5.2,9,5.2L826.7,231.9L826.7,231.9z M577.4,279.8
			c3.3,0,7.4-2.3,9-5.2l19.6-33.9c1.6-2.9,1.6-7.5,0-10.4l-19.6-33.9c-1.6-2.9-5.7-5.2-9-5.2h-39.1c-3.3,0-7.3,2.3-9,5.2l-19.6,33.9
			c-1.6,2.9-1.6,7.5,0,10.4l19.6,33.9c1.7,2.9,5.7,5.2,9,5.2H577.4z M661,328.5c3.3,0,7.3-2.3,9-5.2l19.6-33.9
			c1.6-2.9,1.7-7.5,0-10.4L670,245.1c-1.6-2.9-5.7-5.2-9-5.2h-39.1c-3.3,0-7.3,2.3-9,5.2L593.3,279c-1.7,2.9-1.7,7.5,0,10.4
			l19.6,33.9c1.7,2.9,5.7,5.2,9,5.2H661z M910,184.6c3.3,0,7.3-2.3,9-5.2l19.6-33.9c1.7-2.9,1.7-7.5,0-10.4L919,101.2
			c-1.6-2.9-5.7-5.2-9-5.2h-39.1c-3.3,0-7.4,2.3-9,5.2l-19.6,33.9c-1.7,2.9-1.6,7.5,0,10.4l19.6,33.9c1.7,2.9,5.7,5.2,9,5.2
			L910,184.6L910,184.6z M695.8,274.6c1.7,2.9,5.7,5.2,9,5.2h39.1c3.3,0,7.3-2.3,9-5.2l19.6-33.9c1.6-2.9,1.7-7.5,0-10.4l-19.6-33.9
			c-1.6-2.9-5.7-5.2-9-5.2h-39.1c-3.3,0-7.3,2.3-9,5.2l-19.6,33.9c-1.7,2.9-1.7,7.5,0,10.4L695.8,274.6z M436.8,337.4
			c1.6-2.9,1.6-7.5,0-10.4l-19.6-33.9c-1.6-2.9-5.7-5.2-9-5.2h-39.1c-3.3,0-7.3,2.3-9,5.2L340.5,327c-1.6,2.9-1.6,7.5,0,10.4
			l19.6,33.9c1.7,2.9,5.7,5.2,9,5.2h39.1c3.3,0,7.4-2.3,9-5.2L436.8,337.4z M503.2,245.1c-1.6-2.9-5.7-5.2-9-5.2H455
			c-3.3,0-7.4,2.3-9,5.2L426.5,279c-1.6,2.9-1.6,7.5,0,10.4l19.6,33.9c1.6,2.9,5.7,5.2,9,5.2h39.1c3.3,0,7.4-2.3,9-5.2l19.6-33.9
			c1.6-2.9,1.6-7.5,0-10.4L503.2,245.1z M787.5,239.4c-3.3,0-7.3,2.3-9,5.2l-19.6,33.9c-1.7,2.9-1.7,7.5,0,10.4l19.6,33.9
			c1.7,2.9,5.7,5.2,9,5.2h39.1c3.3,0,7.3-2.3,9-5.2l19.6-33.9c1.6-2.9,1.7-7.5,0-10.4l-19.6-33.9c-1.6-2.9-5.7-5.2-9-5.2
			L787.5,239.4L787.5,239.4z M870.6,191.2c-3.3,0-7.4,2.3-9,5.2L842,230.3c-1.7,2.9-1.6,7.5,0,10.4l19.6,33.9c1.7,2.9,5.7,5.2,9,5.2
			h39.1c3.3,0,7.3-2.3,9-5.2l19.6-33.9c1.7-2.9,1.7-7.5,0-10.4l-19.6-33.9c-1.6-2.9-5.7-5.2-9-5.2H870.6z M577.4,184.6
			c3.3,0,7.4-2.3,9-5.2l19.6-33.9c1.6-2.9,1.6-7.5,0-10.4l-19.6-33.9c-1.6-2.9-5.7-5.2-9-5.2h-39.1c-3.3,0-7.3,2.3-9,5.2l-19.6,33.9
			c-1.6,2.9-1.6,7.5,0,10.4l19.6,33.9c1.7,2.9,5.7,5.2,9,5.2L577.4,184.6L577.4,184.6z M494.2,231.5c3.3,0,7.4-2.3,9-5.2l19.6-33.9
			c1.6-2.9,1.6-7.5,0-10.4l-19.6-33.9c-1.6-2.9-5.7-5.2-9-5.2H455c-3.3,0-7.4,2.3-9,5.2L426.4,182c-1.6,2.9-1.6,7.5,0,10.4
			l19.6,33.9c1.7,2.9,5.7,5.2,9,5.2L494.2,231.5L494.2,231.5z M285.4,240.1c-3.3,0-7.4,2.3-9,5.2l-19.6,33.9
			c-1.6,2.9-1.6,7.5,0,10.4l19.6,33.9c1.7,2.9,5.7,5.2,9,5.2h39.1c3.3,0,7.4-2.3,9-5.2l19.6-33.9c1.6-2.9,1.6-7.5,0-10.4l-19.6-33.9
			c-1.6-2.9-5.7-5.2-9-5.2L285.4,240.1L285.4,240.1z"/>
	</g>
	<path class="st1" d="M911.1,235c-0.3-1.5-1.1-2.7-2.5-3.4c-1.2-0.5-2.4-0.6-3.6-0.4c-2.3,0.5-3.8,2.4-3.8,4.7c0,0.8,0,1.6,0,2.4
		c0,0.7,0.1,1.5,0.2,2.2c0.2,1,0.6,1.8,1.4,2.5c0.9,0.8,1.9,1,3.1,1.1c0.8,0,1.5,0,2.3-0.1c0.8,0,1.6-0.1,2.4-0.1
		c0.2,0,0.3,0,0.5-0.1V241c-0.1,0-0.1,0-0.2,0c-1,0.1-1.9,0.2-2.9,0.2c-0.7,0-1.4,0.1-2.2,0.1c-0.7,0-1.1-0.3-1.4-1
		c-0.1-0.2-0.1-0.5-0.2-0.8c0-0.1,0-0.3-0.1-0.5h7.1c0-0.1,0-0.2,0-0.3c0-0.8,0-1.5,0-2.3C911.3,235.9,911.2,235.4,911.1,235z
		 M904.1,236.2c-0.1-0.3,0-0.6,0.1-0.8c0.2-0.8,0.9-1.3,1.7-1.3c0.3,0,0.7,0,1,0.1c0.8,0.2,1.2,0.6,1.3,1.4c0,0.2,0,0.4,0.1,0.7
		L904.1,236.2L904.1,236.2z M898.9,232.5c-1-1.1-2.2-1.5-3.7-1.3c-0.7,0.1-1.3,0.3-2,0.5c-0.4,0.1-0.7,0.3-1.1,0.4
		c-0.2-0.1-0.4-0.3-0.6-0.4c-0.8-0.5-1.7-0.8-2.7-0.6c-0.6,0.1-1.2,0.3-1.7,0.5c-0.1,0-0.2,0.1-0.3,0.1c0-0.2,0-0.3,0-0.4h-2.9v12.8
		h3v-9.2c0.8-0.3,1.6-0.7,2.4-0.8c0.5-0.1,0.8,0.1,1.1,0.6c0.2,0.3,0.2,0.7,0.2,1.1c0,2.7,0,5.4,0,8.1c0,0.1,0,0.2,0,0.3h2.9v-9.4
		c0.6-0.2,1.3-0.4,1.9-0.6c0.4-0.1,0.8,0,1.2,0.3s0.5,0.8,0.5,1.3c0,2.7,0,5.4,0,8.1c0,0.1,0,0.2,0,0.3h2.9c0-0.1,0-0.2,0-0.3
		c0-2.8,0-5.5,0-8.3C900.1,234.4,899.7,233.3,898.9,232.5z M871.9,230c0-0.1,0-0.1,0-0.2c-0.2-0.6-0.5-1.2-1-1.6
		c-1.1-1-2.4-1.4-3.8-1.4c-1.5,0-2.9,0-4.4,0c-0.4,0-0.9,0-1.3,0.1c-1,0.1-1.9,0.5-2.6,1.2c-1.2,1.3-1.6,2.9-1.4,4.6
		c0.2,1.7,1.1,2.8,2.5,3.6c0.9,0.5,1.8,0.8,2.8,1c0.5,0.1,1.1,0.2,1.6,0.5c0.4,0.2,0.7,0.6,0.8,1.1c0,0.3,0,0.6,0,0.9
		c-0.1,0.6-0.5,1.1-1.1,1.3c-0.3,0.1-0.6,0.2-0.9,0.2c-0.8,0-1.5,0-2.3,0c-0.9,0-1.9-0.1-2.8-0.2c-0.3,0-0.5,0-0.8,0v3
		c0.1,0,0.1,0,0.2,0c0.5,0,0.9,0.1,1.4,0.1c1,0,2,0.1,3,0.1c0.9,0,1.8,0,2.7-0.1c1.6-0.2,2.7-1.1,3.3-2.6c0.4-1.1,0.5-2.2,0.4-3.3
		c-0.2-1.4-0.8-2.4-2-3.1c-0.7-0.4-1.4-0.6-2.1-0.8c-0.8-0.2-1.6-0.4-2.3-0.8c-0.9-0.5-1.3-1.2-1.2-2.2c0.1-0.6,0.3-1.1,0.9-1.4
		c0.4-0.2,0.8-0.3,1.2-0.3c1.4,0,2.8,0,4.2,0c0.3,0,0.5,0,0.7,0c0.4,0.1,0.8,0.2,1.1,0.5c0.1,0.1,0.2,0.2,0.3,0.3c1-0.2,2-0.3,3-0.5
		C871.9,230,871.9,230,871.9,230z M923.1,231.3c-1.1,0-2.2,0-3.3,0c-0.2,0-0.3,0.1-0.3,0.2c-1,1.1-2,2.2-2.9,3.4
		c-0.3,0.3-0.5,0.6-0.8,0.9c-0.1,0-0.2,0-0.4,0v-9h-3v17.4h3v-5.4h0.3c1.3,1.8,2.6,3.6,3.8,5.4h3.6c-1.6-2.3-3.2-4.5-4.8-6.8
		c1.7-2,3.3-3.9,5-5.9C923.2,231.3,923.2,231.3,923.1,231.3z M882.8,231.3h-9.7v2.9h5.6c-0.1,0.1-0.1,0.2-0.1,0.2
		c-1.8,2.5-3.6,4.9-5.3,7.4c-0.1,0.1-0.1,0.2-0.1,0.3c0,0.6,0,1.2,0,1.9v0.1h9.7v-2.9h-5.5c0.1-0.1,0.1-0.1,0.1-0.2
		c1.7-2.4,3.5-4.9,5.2-7.3c0.1-0.1,0.1-0.3,0.1-0.4c0-0.6,0-1.1,0-1.7C882.8,231.5,882.8,231.4,882.8,231.3z M869,244.1h3v-12.8h-3
		V244.1z M923,226.7l-0.2,0.7l-0.2-0.7h-0.4v1.1h0.3V227l0.2,0.8h0.2l0.2-0.8v0.8h0.3v-1.1H923z M921.4,227.8h0.3V227h0.3v-0.3h-1
		v0.3h0.3v0.8H921.4z"/>
	<g>
		<path class="st1" d="M802.9,215.6l-0.6-1.6H799l-0.6,1.6h-1l2.7-7.4h1.1l2.7,7.4H802.9z M799.4,213.2h2.7l-1.4-3.8L799.4,213.2z"
			/>
		<path class="st1" d="M805.6,214.8c-0.5-0.6-0.8-1.3-0.8-2.2s0.3-1.6,0.8-2.2s1.2-0.8,2-0.8c0.5,0,0.9,0.1,1.3,0.4
			c0.4,0.2,0.7,0.5,0.8,0.9v-3.2h1v7.9h-1v-1.2c-0.2,0.4-0.5,0.7-0.8,0.9c-0.4,0.2-0.8,0.4-1.3,0.4
			C806.8,215.7,806.1,215.4,805.6,214.8z M809.2,214.2c0.4-0.4,0.6-0.9,0.6-1.6c0-0.7-0.2-1.2-0.6-1.6c-0.4-0.4-0.9-0.6-1.4-0.6
			s-1,0.2-1.4,0.6c-0.4,0.4-0.6,0.9-0.6,1.6c0,0.7,0.2,1.2,0.6,1.6c0.4,0.4,0.9,0.6,1.4,0.6S808.8,214.6,809.2,214.2z"/>
		<path class="st1" d="M812.1,211.4c0-0.5,0.2-0.9,0.6-1.2c0.4-0.3,0.9-0.5,1.6-0.5c0.6,0,1.2,0.2,1.5,0.5c0.4,0.3,0.6,0.8,0.6,1.4
			h-1c0-0.3-0.1-0.6-0.3-0.8s-0.5-0.3-0.9-0.3s-0.7,0.1-0.9,0.3s-0.3,0.4-0.3,0.7s0.1,0.5,0.4,0.6c0.2,0.1,0.5,0.3,0.9,0.3
			c0.3,0.1,0.7,0.1,1,0.2s0.6,0.3,0.9,0.5c0.2,0.2,0.4,0.6,0.4,1s-0.2,0.8-0.6,1.1c-0.4,0.3-0.9,0.5-1.6,0.5s-1.2-0.2-1.6-0.5
			s-0.6-0.8-0.6-1.4h1c0,0.3,0.1,0.6,0.3,0.8s0.5,0.3,0.9,0.3s0.7-0.1,0.9-0.2c0.2-0.2,0.3-0.4,0.3-0.6s-0.1-0.5-0.3-0.6
			s-0.4-0.3-0.6-0.3c-0.3-0.1-0.5-0.1-0.8-0.2s-0.6-0.2-0.8-0.2c-0.3-0.1-0.5-0.2-0.6-0.5C812.2,212,812.1,211.7,812.1,211.4z"/>
	</g>
	<g>
		<path class="st1" d="M780.5,303.9v-7.4h1v7.4H780.5z"/>
		<path class="st1" d="M784,298v0.9c0.4-0.7,1-1,1.9-1c0.6,0,1.2,0.2,1.6,0.6s0.6,1,0.6,1.8v3.5h-1v-3.3c0-0.6-0.1-1-0.4-1.3
			s-0.7-0.5-1.2-0.5s-0.9,0.2-1.2,0.5s-0.4,0.8-0.4,1.3v3.3h-1V298H784z"/>
		<path class="st1" d="M789.5,299.7c0-0.5,0.2-0.9,0.6-1.2c0.4-0.3,0.9-0.5,1.6-0.5c0.6,0,1.2,0.2,1.5,0.5c0.4,0.3,0.6,0.8,0.6,1.4
			h-1c0-0.3-0.1-0.6-0.3-0.8c-0.2-0.2-0.5-0.3-0.9-0.3s-0.7,0.1-0.9,0.3c-0.2,0.2-0.3,0.4-0.3,0.7c0,0.3,0.1,0.5,0.4,0.6
			c0.2,0.1,0.5,0.3,0.9,0.3c0.3,0.1,0.7,0.1,1,0.2s0.6,0.3,0.9,0.5c0.2,0.2,0.4,0.6,0.4,1s-0.2,0.8-0.6,1.1
			c-0.4,0.3-0.9,0.5-1.6,0.5s-1.2-0.2-1.6-0.5s-0.6-0.8-0.6-1.4h1c0,0.3,0.1,0.6,0.3,0.8c0.2,0.2,0.5,0.3,0.9,0.3s0.7-0.1,0.9-0.2
			c0.2-0.2,0.3-0.4,0.3-0.6s-0.1-0.5-0.3-0.6s-0.4-0.3-0.6-0.3c-0.3-0.1-0.5-0.1-0.8-0.2s-0.6-0.2-0.8-0.2c-0.3-0.1-0.5-0.2-0.6-0.5
			C789.6,300.3,789.5,300,789.5,299.7z"/>
		<path class="st1" d="M797.3,303.1h0.8v0.8h-1c-1,0-1.5-0.5-1.5-1.5v-3.6h-0.8V298h0.8v-1.4h1v1.4h1.5v0.8h-1.5v3.6
			c0,0.3,0.1,0.4,0.2,0.6C796.8,303,797,303.1,797.3,303.1z"/>
		<path class="st1" d="M799.5,303.1c-0.5-0.6-0.8-1.3-0.8-2.2c0-0.9,0.3-1.6,0.8-2.2s1.2-0.8,2-0.8c0.5,0,0.9,0.1,1.3,0.4
			c0.4,0.2,0.7,0.5,0.8,0.9V298h1v5.8h-1v-1.2c-0.2,0.4-0.5,0.7-0.8,0.9c-0.4,0.2-0.8,0.4-1.3,0.4
			C800.7,304,800.1,303.7,799.5,303.1z M803.1,302.5c0.4-0.4,0.6-0.9,0.6-1.6s-0.2-1.2-0.6-1.6c-0.4-0.4-0.9-0.6-1.4-0.6
			s-1,0.2-1.4,0.6s-0.6,0.9-0.6,1.6s0.2,1.2,0.6,1.6c0.4,0.4,0.9,0.6,1.4,0.6S802.7,302.9,803.1,302.5z"/>
		<path class="st1" d="M806.7,303.1c-0.5-0.6-0.8-1.3-0.8-2.2c0-0.9,0.3-1.6,0.8-2.2s1.2-0.8,2-0.8c0.5,0,0.9,0.1,1.3,0.4
			c0.4,0.2,0.7,0.5,0.8,0.9V298h1v6c0,0.8-0.3,1.5-0.8,2s-1.2,0.8-2,0.8s-1.5-0.2-2-0.6s-0.8-0.9-0.9-1.4h0.9
			c0.1,0.3,0.3,0.6,0.6,0.8c0.3,0.2,0.8,0.3,1.3,0.3s0.9-0.2,1.3-0.5c0.3-0.3,0.5-0.8,0.5-1.4v-1.3c-0.2,0.4-0.5,0.7-0.8,0.9
			c-0.4,0.2-0.8,0.4-1.3,0.4C807.9,304,807.2,303.7,806.7,303.1z M810.2,302.5c0.4-0.4,0.6-0.9,0.6-1.6s-0.2-1.2-0.6-1.6
			c-0.4-0.4-0.9-0.6-1.4-0.6s-1,0.2-1.4,0.6s-0.6,0.9-0.6,1.6s0.2,1.2,0.6,1.6c0.4,0.4,0.9,0.6,1.4,0.6S809.8,302.9,810.2,302.5z"/>
		<path class="st1" d="M814.3,298v1c0.3-0.7,0.9-1.1,1.8-1.1v1h-0.3c-0.5,0-0.9,0.1-1.1,0.4s-0.4,0.7-0.4,1.3v3.2h-1V298H814.3z"/>
		<path class="st1" d="M817.7,303.1c-0.5-0.6-0.8-1.3-0.8-2.2c0-0.9,0.3-1.6,0.8-2.2s1.2-0.8,2-0.8c0.5,0,0.9,0.1,1.3,0.4
			c0.4,0.2,0.7,0.5,0.8,0.9V298h1v5.8h-1v-1.2c-0.2,0.4-0.5,0.7-0.8,0.9c-0.4,0.2-0.8,0.4-1.3,0.4
			C818.9,304,818.2,303.7,817.7,303.1z M821.3,302.5c0.4-0.4,0.6-0.9,0.6-1.6s-0.2-1.2-0.6-1.6c-0.4-0.4-0.9-0.6-1.4-0.6
			s-1,0.2-1.4,0.6s-0.6,0.9-0.6,1.6s0.2,1.2,0.6,1.6c0.4,0.4,0.9,0.6,1.4,0.6S820.9,302.9,821.3,302.5z"/>
		<path class="st1" d="M825.4,298v0.9c0.4-0.7,1-1,1.9-1c0.4,0,0.9,0.1,1.2,0.3c0.4,0.2,0.6,0.5,0.8,0.9c0.2-0.4,0.5-0.7,0.9-0.9
			s0.8-0.3,1.2-0.3c0.7,0,1.2,0.2,1.6,0.6s0.6,1,0.6,1.8v3.5h-1v-3.3c0-0.6-0.1-1-0.4-1.3s-0.7-0.5-1.2-0.5s-0.9,0.2-1.2,0.5
			s-0.4,0.8-0.4,1.3v3.3h-1v-3.3c0-0.6-0.1-1-0.4-1.3s-0.7-0.5-1.2-0.5s-0.9,0.2-1.2,0.5s-0.4,0.8-0.4,1.3v3.3h-1V298H825.4z"/>
		<path class="st1" d="M802.9,316.6l-0.6-1.6H799l-0.6,1.6h-1l2.7-7.4h1.1l2.7,7.4H802.9z M799.4,314.2h2.7l-1.4-3.8L799.4,314.2z"
			/>
		<path class="st1" d="M805.6,315.9c-0.5-0.6-0.8-1.3-0.8-2.2c0-0.9,0.3-1.6,0.8-2.2s1.2-0.8,2-0.8c0.5,0,0.9,0.1,1.3,0.4
			c0.4,0.2,0.7,0.5,0.8,0.9v-3.2h1v7.9h-1v-1.2c-0.2,0.4-0.5,0.7-0.8,0.9c-0.4,0.2-0.8,0.4-1.3,0.4
			C806.8,316.7,806.1,316.4,805.6,315.9z M809.2,315.3c0.4-0.4,0.6-0.9,0.6-1.6s-0.2-1.2-0.6-1.6c-0.4-0.4-0.9-0.6-1.4-0.6
			s-1,0.2-1.4,0.6s-0.6,0.9-0.6,1.6s0.2,1.2,0.6,1.6c0.4,0.4,0.9,0.6,1.4,0.6S808.8,315.7,809.2,315.3z"/>
		<path class="st1" d="M812.1,312.4c0-0.5,0.2-0.9,0.6-1.2c0.4-0.3,0.9-0.5,1.6-0.5c0.6,0,1.2,0.2,1.5,0.5c0.4,0.3,0.6,0.8,0.6,1.4
			h-1c0-0.3-0.1-0.6-0.3-0.8c-0.2-0.2-0.5-0.3-0.9-0.3s-0.7,0.1-0.9,0.3c-0.2,0.2-0.3,0.4-0.3,0.7c0,0.3,0.1,0.5,0.4,0.6
			c0.2,0.1,0.5,0.3,0.9,0.3c0.3,0.1,0.7,0.1,1,0.2s0.6,0.3,0.9,0.5c0.2,0.2,0.4,0.6,0.4,1s-0.2,0.8-0.6,1.1
			c-0.4,0.3-0.9,0.5-1.6,0.5s-1.2-0.2-1.6-0.5s-0.6-0.8-0.6-1.4h1c0,0.3,0.1,0.6,0.3,0.8c0.2,0.2,0.5,0.3,0.9,0.3s0.7-0.1,0.9-0.2
			c0.2-0.2,0.3-0.4,0.3-0.6s-0.1-0.5-0.3-0.6s-0.4-0.3-0.6-0.3c-0.3-0.1-0.5-0.1-0.8-0.2s-0.6-0.2-0.8-0.2c-0.3-0.1-0.5-0.2-0.6-0.5
			C812.2,313,812.1,312.8,812.1,312.4z"/>
	</g>
	<path class="st1" d="M828.8,171c-1.6,0.7-3.3,1.2-5.1,1.4c1.8-1.1,3.3-2.9,3.9-4.9c-1.7,1-3.6,1.8-5.7,2.2
		c-1.6-1.7-3.9-2.8-6.5-2.8c-4.9,0-8.9,4-8.9,8.9c0,0.7,0.1,1.4,0.2,2c-7.4-0.4-14-3.9-18.4-9.3c-0.8,1.3-1.2,2.9-1.2,4.5
		c0,3.1,1.6,5.8,4,7.4c-1.5,0-2.8-0.4-4-1.1v0.1c0,4.3,3.1,7.9,7.2,8.8c-0.7,0.2-1.5,0.3-2.4,0.3c-0.6,0-1.1-0.1-1.7-0.2
		c1.1,3.5,4.4,6.1,8.3,6.2c-3.1,2.4-6.9,3.8-11.1,3.8c-0.7,0-1.4,0-2.1-0.1c4,2.5,8.6,4,13.7,4c16.4,0,25.4-13.6,25.4-25.4
		c0-0.4,0-0.8,0-1.2C826.1,174.4,827.6,172.8,828.8,171L828.8,171z"/>
	<path class="st1" d="M496.4,173.8c-1.6,0.7-3.3,1.2-5.1,1.4c1.8-1.1,3.3-2.9,3.9-4.9c-1.7,1-3.6,1.8-5.7,2.2
		c-1.6-1.7-3.9-2.8-6.5-2.8c-4.9,0-8.9,4-8.9,8.9c0,0.7,0.1,1.4,0.2,2c-7.4-0.4-14-3.9-18.4-9.3c-0.8,1.3-1.2,2.9-1.2,4.5
		c0,3.1,1.6,5.8,4,7.4c-1.5,0-2.8-0.4-4-1.1v0.1c0,4.3,3.1,7.9,7.2,8.8c-0.7,0.2-1.5,0.3-2.4,0.3c-0.6,0-1.1-0.1-1.7-0.2
		c1.1,3.5,4.4,6.1,8.3,6.2c-3.1,2.4-6.9,3.8-11.1,3.8c-0.7,0-1.4,0-2.1-0.1c4,2.5,8.6,4,13.7,4c16.4,0,25.4-13.6,25.4-25.4
		c0-0.4,0-0.8,0-1.2C493.7,177.1,495.2,175.5,496.4,173.8L496.4,173.8z"/>
	<g>
		<polygon class="st1" points="807.6,285.8 800.8,285.8 796.6,272.1 803.4,272.1 		"/>
		<path class="st1" d="M801.3,273.1h-4.5c-2.8,0-5-2.3-5-5v-2.9c0-2.8,2.3-5,5-5h4.5V273.1L801.3,273.1z"/>
		<path class="st1" d="M818.9,253l-5.7,3.9c-3,2.1-6.5,3.2-10.1,3.2h-2v13h2c3.5,0,7,1.1,10.1,3.2l5.7,3.9V253L818.9,253z"/>
		<path class="st1" d="M821.4,281.5h-0.6c-0.6,0-1-0.4-1-1v-27.7c0-0.6,0.4-1,1-1h0.6c0.6,0,1,0.4,1,1v27.7
			C822.4,281.1,821.9,281.5,821.4,281.5L821.4,281.5z"/>
		<path class="st1" d="M792.6,264.5c0.2,0,0.4,1,0.4,2.1c0,1.2-0.2,2.1-0.4,2.1s-0.4-1-0.4-2.1C792.1,265.4,792.3,264.5,792.6,264.5
			L792.6,264.5z"/>
	</g>
	<g>
		<path class="st1" d="M699.3,258.1v-7.4h4.1v0.8h-3.2v2.5h2.5v0.8h-2.5v3.3H699.3z"/>
		<path class="st1" d="M704.9,257.4c-0.5-0.6-0.8-1.3-0.8-2.2c0-0.9,0.3-1.6,0.8-2.2s1.2-0.8,2-0.8c0.5,0,0.9,0.1,1.3,0.4
			c0.4,0.2,0.7,0.5,0.8,0.9v-1.2h1v5.8h-1v-1.2c-0.2,0.4-0.5,0.7-0.8,0.9c-0.4,0.2-0.8,0.4-1.3,0.4
			C706.1,258.2,705.4,257.9,704.9,257.4z M708.5,256.8c0.4-0.4,0.6-0.9,0.6-1.6c0-0.7-0.2-1.2-0.6-1.6c-0.4-0.4-0.9-0.6-1.4-0.6
			s-1,0.2-1.4,0.6c-0.4,0.4-0.6,0.9-0.6,1.6c0,0.7,0.2,1.2,0.6,1.6c0.4,0.4,0.9,0.6,1.4,0.6S708.1,257.2,708.5,256.8z"/>
		<path class="st1" d="M712,257.4c-0.5-0.6-0.8-1.3-0.8-2.2s0.3-1.6,0.8-2.2c0.5-0.6,1.2-0.8,2-0.8c0.7,0,1.3,0.2,1.7,0.5
			s0.8,0.8,0.9,1.4h-1c-0.1-0.3-0.3-0.6-0.6-0.8s-0.6-0.3-1-0.3c-0.6,0-1,0.2-1.3,0.6c-0.3,0.4-0.5,0.9-0.5,1.6s0.2,1.3,0.5,1.6
			c0.3,0.4,0.8,0.6,1.3,0.6c0.8,0,1.4-0.4,1.6-1.1h1c-0.2,0.6-0.5,1-0.9,1.4c-0.5,0.3-1,0.5-1.7,0.5
			C713.2,258.2,712.5,257.9,712,257.4z"/>
		<path class="st1" d="M720.5,258.2c-0.8,0-1.5-0.3-2-0.8c-0.5-0.6-0.8-1.3-0.8-2.2c0-0.9,0.3-1.6,0.8-2.2c0.5-0.5,1.2-0.8,2.1-0.8
			c0.8,0,1.5,0.3,2,0.8s0.8,1.2,0.8,2c0,0.2,0,0.4,0,0.6h-4.6c0,0.6,0.2,1,0.5,1.4s0.8,0.5,1.3,0.5c0.4,0,0.7-0.1,1-0.3
			c0.3-0.2,0.5-0.4,0.6-0.7h1c-0.2,0.5-0.5,0.9-1,1.3C721.7,258,721.1,258.2,720.5,258.2z M721.8,253.5c-0.3-0.3-0.8-0.5-1.3-0.5
			s-0.9,0.2-1.3,0.5c-0.3,0.3-0.5,0.8-0.6,1.4h3.7C722.3,254.3,722.1,253.8,721.8,253.5z"/>
		<path class="st1" d="M727.6,252.2c0.8,0,1.5,0.3,2,0.8s0.8,1.3,0.8,2.2c0,0.9-0.3,1.6-0.8,2.2s-1.2,0.9-2,0.9
			c-0.5,0-0.9-0.1-1.3-0.4c-0.4-0.2-0.7-0.5-0.9-0.9v1.2h-1v-7.9h1v3.2c0.2-0.4,0.5-0.7,0.9-0.9
			C726.7,252.3,727.1,252.2,727.6,252.2z M727.4,257.4c0.5,0,1-0.2,1.4-0.6s0.6-0.9,0.6-1.6s-0.2-1.2-0.6-1.6
			c-0.4-0.4-0.9-0.6-1.4-0.6s-1,0.2-1.4,0.6c-0.4,0.4-0.6,0.9-0.6,1.6s0.2,1.2,0.6,1.6S726.9,257.4,727.4,257.4z"/>
		<path class="st1" d="M732,257.4c-0.5-0.6-0.8-1.3-0.8-2.2c0-0.9,0.3-1.6,0.8-2.2c0.6-0.6,1.3-0.8,2.1-0.8s1.5,0.3,2.1,0.8
			c0.6,0.6,0.8,1.3,0.8,2.2c0,0.9-0.3,1.6-0.9,2.2s-1.3,0.8-2.1,0.8S732.6,257.9,732,257.4z M734.1,257.4c0.5,0,1-0.2,1.4-0.6
			s0.6-0.9,0.6-1.6c0-0.7-0.2-1.2-0.6-1.6s-0.8-0.6-1.4-0.6s-1,0.2-1.4,0.6c-0.4,0.4-0.6,0.9-0.6,1.6s0.2,1.2,0.5,1.6
			C733.1,257.2,733.6,257.4,734.1,257.4z"/>
		<path class="st1" d="M738.8,257.4c-0.5-0.6-0.8-1.3-0.8-2.2c0-0.9,0.3-1.6,0.8-2.2c0.6-0.6,1.3-0.8,2.1-0.8s1.5,0.3,2.1,0.8
			c0.6,0.6,0.8,1.3,0.8,2.2c0,0.9-0.3,1.6-0.9,2.2s-1.3,0.8-2.1,0.8S739.3,257.9,738.8,257.4z M740.8,257.4c0.5,0,1-0.2,1.4-0.6
			s0.6-0.9,0.6-1.6c0-0.7-0.2-1.2-0.6-1.6s-0.8-0.6-1.4-0.6s-1,0.2-1.4,0.6c-0.4,0.4-0.6,0.9-0.6,1.6s0.2,1.2,0.5,1.6
			C739.8,257.2,740.3,257.4,740.8,257.4z"/>
		<path class="st1" d="M746,258.1h-1v-7.9h1v4.6l2.2-2.6h1.4l-2.8,2.9l2.8,2.9h-1.3l-2.3-2.6L746,258.1L746,258.1z"/>
		<path class="st1" d="M720,270.9l-0.6-1.6h-3.3l-0.6,1.6h-1l2.7-7.4h1.1l2.7,7.4H720z M716.4,268.5h2.7l-1.4-3.8L716.4,268.5z"/>
		<path class="st1" d="M722.6,270.1c-0.5-0.6-0.8-1.3-0.8-2.2c0-0.9,0.3-1.6,0.8-2.2s1.2-0.8,2-0.8c0.5,0,0.9,0.1,1.3,0.4
			c0.4,0.2,0.7,0.5,0.8,0.9V263h1v7.9h-1v-1.2c-0.2,0.4-0.5,0.7-0.8,0.9c-0.4,0.2-0.8,0.4-1.3,0.4
			C723.8,271,723.2,270.7,722.6,270.1z M726.2,269.6c0.4-0.4,0.6-0.9,0.6-1.6s-0.2-1.2-0.6-1.6c-0.4-0.4-0.9-0.6-1.4-0.6
			s-1,0.2-1.4,0.6s-0.6,0.9-0.6,1.6s0.2,1.2,0.6,1.6c0.4,0.4,0.9,0.6,1.4,0.6S725.8,270,726.2,269.6z"/>
		<path class="st1" d="M729.1,266.7c0-0.5,0.2-0.9,0.6-1.2c0.4-0.3,0.9-0.5,1.6-0.5c0.6,0,1.2,0.2,1.5,0.5c0.4,0.3,0.6,0.8,0.6,1.4
			h-1c0-0.3-0.1-0.6-0.3-0.8c-0.2-0.2-0.5-0.3-0.9-0.3s-0.7,0.1-0.9,0.3c-0.2,0.2-0.3,0.4-0.3,0.7c0,0.3,0.1,0.5,0.4,0.6
			c0.2,0.1,0.5,0.3,0.9,0.3c0.3,0.1,0.7,0.1,1,0.2s0.6,0.3,0.9,0.5c0.2,0.2,0.4,0.6,0.4,1s-0.2,0.8-0.6,1.1
			c-0.4,0.3-0.9,0.5-1.6,0.5s-1.2-0.2-1.6-0.5s-0.6-0.8-0.6-1.4h1c0,0.3,0.1,0.6,0.3,0.8c0.2,0.2,0.5,0.3,0.9,0.3s0.7-0.1,0.9-0.2
			c0.2-0.2,0.3-0.4,0.3-0.6s-0.1-0.5-0.3-0.6s-0.4-0.3-0.6-0.3c-0.3-0.1-0.5-0.1-0.8-0.2s-0.6-0.2-0.8-0.2c-0.3-0.1-0.5-0.2-0.6-0.5
			C729.2,267.3,729.1,267,729.1,266.7z"/>
	</g>
	<g>
		<path class="st1" d="M625.4,302.9c1.2,0,2.1,0.3,2.8,1s1,1.6,1,2.7s-0.3,2-1,2.7c-0.7,0.6-1.6,1-2.8,1h-2.3v-7.4L625.4,302.9
			L625.4,302.9z M624.1,309.5h1.4c0.9,0,1.6-0.3,2.1-0.8s0.7-1.2,0.7-2.1s-0.2-1.6-0.7-2.1s-1.2-0.8-2.1-0.8h-1.4V309.5z"/>
		<path class="st1" d="M631.5,303.3c-0.1,0.1-0.3,0.2-0.5,0.2s-0.3-0.1-0.5-0.2c-0.1-0.1-0.2-0.3-0.2-0.5s0.1-0.3,0.2-0.5
			c0.1-0.1,0.3-0.2,0.5-0.2s0.3,0.1,0.5,0.2c0.1,0.1,0.2,0.3,0.2,0.5S631.6,303.1,631.5,303.3z M630.5,310.2v-5.8h1v5.8H630.5z"/>
		<path class="st1" d="M632.9,306.1c0-0.5,0.2-0.9,0.6-1.2c0.4-0.3,0.9-0.5,1.6-0.5c0.6,0,1.2,0.2,1.5,0.5c0.4,0.3,0.6,0.8,0.6,1.4
			h-1c0-0.3-0.1-0.6-0.3-0.8c-0.2-0.2-0.5-0.3-0.9-0.3s-0.7,0.1-0.9,0.3c-0.2,0.2-0.3,0.4-0.3,0.7c0,0.3,0.1,0.5,0.4,0.6
			c0.2,0.1,0.5,0.3,0.9,0.3c0.3,0.1,0.7,0.1,1,0.2s0.6,0.3,0.9,0.5c0.2,0.2,0.4,0.6,0.4,1s-0.2,0.8-0.6,1.1
			c-0.4,0.3-0.9,0.5-1.6,0.5s-1.2-0.2-1.6-0.5s-0.6-0.8-0.6-1.4h1c0,0.3,0.1,0.6,0.3,0.8c0.2,0.2,0.5,0.3,0.9,0.3s0.7-0.1,0.9-0.2
			c0.2-0.2,0.3-0.4,0.3-0.6s-0.1-0.5-0.3-0.6s-0.4-0.3-0.6-0.3c-0.3-0.1-0.5-0.1-0.8-0.2s-0.6-0.2-0.8-0.2c-0.3-0.1-0.5-0.2-0.6-0.5
			C633,306.7,632.9,306.4,632.9,306.1z"/>
		<path class="st1" d="M641.8,304.3c0.8,0,1.5,0.3,2,0.8s0.8,1.3,0.8,2.2c0,0.9-0.3,1.6-0.8,2.2s-1.2,0.9-2,0.9
			c-0.5,0-0.9-0.1-1.3-0.4c-0.4-0.2-0.7-0.5-0.9-0.9v4h-1v-8.6h1v1.2c0.2-0.4,0.5-0.7,0.9-0.9C640.9,304.4,641.3,304.3,641.8,304.3z
			 M641.6,309.5c0.5,0,1-0.2,1.4-0.6s0.6-0.9,0.6-1.6s-0.2-1.2-0.6-1.6c-0.4-0.4-0.9-0.6-1.4-0.6s-1,0.2-1.4,0.6s-0.6,0.9-0.6,1.6
			s0.2,1.2,0.6,1.6S641.1,309.5,641.6,309.5z"/>
		<path class="st1" d="M645.8,310.2v-7.9h1v7.9H645.8z"/>
		<path class="st1" d="M648.8,309.5c-0.5-0.6-0.8-1.3-0.8-2.2c0-0.9,0.3-1.6,0.8-2.2s1.2-0.8,2-0.8c0.5,0,0.9,0.1,1.3,0.4
			c0.4,0.2,0.7,0.5,0.8,0.9v-1.2h1v5.8h-1V309c-0.2,0.4-0.5,0.7-0.8,0.9c-0.4,0.2-0.8,0.4-1.3,0.4
			C650,310.3,649.3,310.1,648.8,309.5z M652.3,308.9c0.4-0.4,0.6-0.9,0.6-1.6s-0.2-1.2-0.6-1.6c-0.4-0.4-0.9-0.6-1.4-0.6
			s-1,0.2-1.4,0.6s-0.6,0.9-0.6,1.6s0.2,1.2,0.6,1.6c0.4,0.4,0.9,0.6,1.4,0.6S652,309.3,652.3,308.9z"/>
		<path class="st1" d="M657.1,310.1l-2.3-5.7h1.1l1.8,4.7l1.8-4.7h1L657,313h-1L657.1,310.1z"/>
	</g>
	<g>
		<path class="st1" d="M370.4,352.8l-0.6-1.6h-3.3l-0.6,1.6h-1l2.7-7.4h1.1l2.7,7.4H370.4z M366.8,350.4h2.7l-1.4-3.8L366.8,350.4z"
			/>
		<path class="st1" d="M373.6,347v0.9c0.4-0.7,1-1,1.9-1c0.6,0,1.2,0.2,1.6,0.6s0.6,1,0.6,1.8v3.5h-1v-3.3c0-0.6-0.1-1-0.4-1.3
			s-0.7-0.5-1.2-0.5s-0.9,0.2-1.2,0.5s-0.4,0.8-0.4,1.3v3.3h-1V347H373.6z"/>
		<path class="st1" d="M379.7,352c-0.5-0.6-0.8-1.3-0.8-2.2c0-0.9,0.3-1.6,0.8-2.2c0.5-0.5,1.2-0.8,2-0.8c0.5,0,0.9,0.1,1.3,0.4
			c0.4,0.2,0.7,0.5,0.8,0.9V347h1v5.8h-1v-1.2c-0.2,0.4-0.5,0.7-0.8,0.9c-0.4,0.2-0.8,0.4-1.3,0.4
			C380.9,352.9,380.2,352.6,379.7,352z M383.3,351.5c0.4-0.4,0.6-0.9,0.6-1.6s-0.2-1.2-0.6-1.6s-0.9-0.6-1.4-0.6s-1,0.2-1.4,0.6
			s-0.6,0.9-0.6,1.6s0.2,1.2,0.6,1.6s0.9,0.6,1.4,0.6S382.9,351.9,383.3,351.5z"/>
		<path class="st1" d="M386.4,352.8v-7.9h1v7.9H386.4z"/>
		<path class="st1" d="M390.6,352.7l-2.3-5.7h1.1l1.8,4.7l1.8-4.7h1l-3.5,8.6h-1L390.6,352.7z"/>
		<path class="st1" d="M396.8,352h0.8v0.8h-1c-1,0-1.5-0.5-1.5-1.5v-3.6h-0.8V347h0.8v-1.4h1v1.4h1.5v0.8h-1.5v3.6
			c0,0.3,0.1,0.4,0.2,0.6C396.4,352,396.6,352,396.8,352z"/>
		<path class="st1" d="M399.6,345.8c-0.1,0.1-0.3,0.2-0.5,0.2s-0.3-0.1-0.5-0.2c-0.1-0.1-0.2-0.3-0.2-0.5s0.1-0.3,0.2-0.5
			c0.1-0.1,0.3-0.2,0.5-0.2s0.3,0.1,0.5,0.2c0.1,0.1,0.2,0.3,0.2,0.5S399.8,345.7,399.6,345.8z M398.7,352.8V347h1v5.8H398.7z"/>
		<path class="st1" d="M401.7,352.1c-0.5-0.6-0.8-1.3-0.8-2.2s0.3-1.6,0.8-2.2s1.2-0.8,2-0.8c0.7,0,1.3,0.2,1.7,0.5
			c0.4,0.3,0.8,0.8,0.9,1.4h-1c-0.1-0.3-0.3-0.6-0.6-0.8s-0.6-0.3-1-0.3c-0.6,0-1,0.2-1.3,0.6s-0.5,0.9-0.5,1.6s0.2,1.3,0.5,1.6
			c0.3,0.4,0.8,0.6,1.3,0.6c0.8,0,1.4-0.4,1.6-1.1h1c-0.2,0.6-0.5,1-0.9,1.4c-0.5,0.3-1,0.5-1.7,0.5
			C402.9,352.9,402.2,352.6,401.7,352.1z"/>
		<path class="st1" d="M407.4,348.6c0-0.5,0.2-0.9,0.6-1.2s0.9-0.5,1.6-0.5s1.2,0.2,1.5,0.5c0.4,0.3,0.6,0.8,0.6,1.4h-1
			c0-0.3-0.1-0.6-0.3-0.8c-0.2-0.2-0.5-0.3-0.9-0.3s-0.7,0.1-0.9,0.3c-0.2,0.2-0.3,0.4-0.3,0.7c0,0.3,0.1,0.5,0.4,0.6
			c0.2,0.1,0.5,0.3,0.9,0.3s0.7,0.1,1,0.2s0.6,0.3,0.9,0.5c0.2,0.2,0.4,0.6,0.4,1s-0.2,0.8-0.6,1.1c-0.4,0.3-0.9,0.5-1.6,0.5
			s-1.2-0.2-1.6-0.5s-0.6-0.8-0.6-1.4h1c0,0.3,0.1,0.6,0.3,0.8c0.2,0.2,0.5,0.3,0.9,0.3s0.7-0.1,0.9-0.2s0.3-0.4,0.3-0.6
			s-0.1-0.5-0.3-0.6c-0.2-0.1-0.4-0.3-0.6-0.3c-0.3-0.1-0.5-0.1-0.8-0.2s-0.6-0.2-0.8-0.2s-0.5-0.2-0.6-0.5S407.4,348.9,407.4,348.6
			z"/>
	</g>
	<g>
		<polygon class="st1" points="724.7,240 717.8,240 713.6,226.4 720.5,226.4 		"/>
		<path class="st1" d="M718.3,227.4h-4.5c-2.8,0-5-2.3-5-5v-2.9c0-2.8,2.3-5,5-5h4.5V227.4L718.3,227.4z"/>
		<path class="st1" d="M735.9,207.3l-5.7,3.9c-3,2.1-6.5,3.2-10.1,3.2h-2v13h2c3.5,0,7,1.1,10.1,3.2l5.7,3.9V207.3L735.9,207.3z"/>
		<path class="st1" d="M738.4,235.8h-0.6c-0.6,0-1-0.4-1-1V207c0-0.6,0.4-1,1-1h0.6c0.6,0,1,0.4,1,1v27.7
			C739.4,235.3,739,235.8,738.4,235.8L738.4,235.8z"/>
		<path class="st1" d="M709.6,218.7c0.2,0,0.4,1,0.4,2.1c0,1.2-0.2,2.1-0.4,2.1s-0.4-1-0.4-2.1C709.2,219.7,709.4,218.7,709.6,218.7
			L709.6,218.7z"/>
	</g>
	<g>
		<path class="st1" d="M539.5,257c0,0.3,0.1,0.5,0.2,0.7c0.1,0.2,0.3,0.3,0.6,0.4s0.5,0.2,0.8,0.2c0.3,0.1,0.6,0.1,0.9,0.2
			c0.3,0.1,0.5,0.2,0.8,0.3s0.4,0.3,0.6,0.6c0.1,0.3,0.2,0.6,0.2,0.9c0,0.6-0.2,1.1-0.7,1.5c-0.4,0.4-1,0.6-1.8,0.6
			s-1.4-0.2-1.8-0.5s-0.7-0.8-0.7-1.4h1c0,0.3,0.2,0.6,0.4,0.8c0.2,0.2,0.6,0.3,1.1,0.3s0.8-0.1,1.1-0.4c0.3-0.2,0.4-0.5,0.4-0.8
			s-0.1-0.6-0.2-0.7c-0.1-0.2-0.3-0.3-0.6-0.4s-0.5-0.2-0.8-0.2c-0.3-0.1-0.6-0.1-0.9-0.2c-0.3-0.1-0.5-0.2-0.8-0.3
			s-0.4-0.3-0.6-0.6s-0.2-0.6-0.2-1c0-0.6,0.2-1.1,0.7-1.5c0.4-0.4,1-0.6,1.7-0.6s1.3,0.2,1.7,0.5s0.7,0.8,0.7,1.4h-1.1
			c0-0.3-0.2-0.5-0.4-0.7c-0.2-0.2-0.6-0.3-1-0.3s-0.8,0.1-1,0.3C539.7,256.3,539.5,256.6,539.5,257z"/>
		<path class="st1" d="M547.4,262.5c-0.8,0-1.5-0.3-2-0.8c-0.5-0.6-0.8-1.3-0.8-2.2c0-0.9,0.3-1.6,0.8-2.2c0.5-0.5,1.2-0.8,2.1-0.8
			c0.8,0,1.5,0.3,2,0.8s0.8,1.2,0.8,2c0,0.2,0,0.4,0,0.6h-4.6c0,0.6,0.2,1,0.5,1.4c0.3,0.3,0.8,0.5,1.3,0.5c0.4,0,0.7-0.1,1-0.3
			c0.3-0.2,0.5-0.4,0.6-0.7h1c-0.2,0.5-0.5,0.9-1,1.3C548.7,262.3,548.1,262.5,547.4,262.5z M548.7,257.7c-0.3-0.3-0.8-0.5-1.3-0.5
			s-0.9,0.2-1.3,0.5c-0.3,0.3-0.5,0.8-0.6,1.4h3.7C549.3,258.5,549.1,258.1,548.7,257.7z"/>
		<path class="st1" d="M551.9,261.6c-0.5-0.6-0.8-1.3-0.8-2.2c0-0.9,0.3-1.6,0.8-2.2c0.5-0.5,1.2-0.8,2-0.8c0.5,0,0.9,0.1,1.3,0.4
			c0.4,0.2,0.7,0.5,0.8,0.9v-1.2h1v5.8h-1v-1.2c-0.2,0.4-0.5,0.7-0.8,0.9c-0.4,0.2-0.8,0.4-1.3,0.4
			C553.1,262.5,552.4,262.2,551.9,261.6z M555.5,261c0.4-0.4,0.6-0.9,0.6-1.6s-0.2-1.2-0.6-1.6c-0.4-0.4-0.9-0.6-1.4-0.6
			s-1,0.2-1.4,0.6s-0.6,0.9-0.6,1.6s0.2,1.2,0.6,1.6c0.4,0.4,0.9,0.6,1.4,0.6S555.1,261.4,555.5,261z"/>
		<path class="st1" d="M559.6,256.5v1c0.3-0.7,0.9-1.1,1.8-1.1v1h-0.3c-0.5,0-0.9,0.1-1.1,0.4s-0.4,0.7-0.4,1.3v3.2h-1v-5.8H559.6z"
			/>
		<path class="st1" d="M562.9,261.6c-0.5-0.6-0.8-1.3-0.8-2.2s0.3-1.6,0.8-2.2s1.2-0.8,2-0.8c0.7,0,1.3,0.2,1.7,0.5s0.8,0.8,0.9,1.4
			h-1c-0.1-0.3-0.3-0.6-0.6-0.8s-0.6-0.3-1-0.3c-0.6,0-1,0.2-1.3,0.6s-0.5,0.9-0.5,1.6s0.2,1.3,0.5,1.6c0.3,0.4,0.8,0.6,1.3,0.6
			c0.8,0,1.4-0.4,1.6-1.1h1c-0.2,0.6-0.5,1-0.9,1.4c-0.5,0.3-1,0.5-1.7,0.5C564.1,262.5,563.5,262.2,562.9,261.6z"/>
		<path class="st1" d="M569.9,254.5v3c0.4-0.7,1-1,1.9-1c0.6,0,1.2,0.2,1.6,0.6s0.6,1,0.6,1.8v3.5h-1v-3.3c0-0.6-0.1-1-0.4-1.3
			s-0.7-0.5-1.2-0.5s-0.9,0.2-1.2,0.5s-0.4,0.8-0.4,1.3v3.3h-1v-7.9H569.9z"/>
	</g>
	<g>
		<path class="st1" d="M622.2,213.4h-1v-2.8l-2.4-4.6h1.1l1.8,3.7l1.8-3.7h1.1l-2.4,4.6L622.2,213.4L622.2,213.4z"/>
		<path class="st1" d="M626,212.7c-0.5-0.6-0.8-1.3-0.8-2.2s0.3-1.6,0.8-2.2c0.6-0.6,1.3-0.8,2.1-0.8s1.5,0.3,2.1,0.8
			c0.6,0.6,0.8,1.3,0.8,2.2s-0.3,1.6-0.9,2.2s-1.3,0.8-2.1,0.8S626.5,213.3,626,212.7z M628,212.7c0.5,0,1-0.2,1.4-0.6
			c0.4-0.4,0.6-0.9,0.6-1.6c0-0.7-0.2-1.2-0.6-1.6s-0.8-0.6-1.4-0.6s-1,0.2-1.4,0.6c-0.4,0.4-0.6,0.9-0.6,1.6s0.2,1.2,0.5,1.6
			C627,212.5,627.5,212.7,628,212.7z"/>
		<path class="st1" d="M636.4,207.6h1v5.8h-1v-0.9c-0.4,0.7-1,1-1.9,1c-0.6,0-1.2-0.2-1.6-0.6s-0.6-1-0.6-1.8v-3.5h1v3.3
			c0,0.6,0.1,1,0.4,1.3c0.3,0.3,0.7,0.5,1.2,0.5s0.9-0.2,1.2-0.5s0.4-0.8,0.4-1.3v-3.3H636.4z"/>
		<path class="st1" d="M638.6,206.8V206h4.9v0.8h-1.9v6.6h-1v-6.6H638.6z"/>
		<path class="st1" d="M648.9,207.6h1v5.8h-1v-0.9c-0.4,0.7-1,1-1.9,1c-0.6,0-1.2-0.2-1.6-0.6s-0.6-1-0.6-1.8v-3.5h1v3.3
			c0,0.6,0.1,1,0.4,1.3c0.3,0.3,0.7,0.5,1.2,0.5s0.9-0.2,1.2-0.5s0.4-0.8,0.4-1.3v-3.3H648.9z"/>
		<path class="st1" d="M654.6,207.5c0.8,0,1.5,0.3,2,0.8s0.8,1.3,0.8,2.2s-0.3,1.6-0.8,2.2c-0.5,0.6-1.2,0.9-2,0.9
			c-0.5,0-0.9-0.1-1.3-0.4c-0.4-0.2-0.7-0.5-0.9-0.9v1.2h-1v-7.9h1v3.2c0.2-0.4,0.5-0.7,0.9-0.9
			C653.6,207.6,654.1,207.5,654.6,207.5z M654.4,212.7c0.5,0,1-0.2,1.4-0.6c0.4-0.4,0.6-0.9,0.6-1.6s-0.2-1.2-0.6-1.6
			c-0.4-0.4-0.9-0.6-1.4-0.6s-1,0.2-1.4,0.6c-0.4,0.4-0.6,0.9-0.6,1.6s0.2,1.2,0.6,1.6S653.8,212.7,654.4,212.7z"/>
		<path class="st1" d="M661,213.5c-0.8,0-1.5-0.3-2-0.8c-0.5-0.6-0.8-1.3-0.8-2.2s0.3-1.6,0.8-2.2c0.5-0.5,1.2-0.8,2.1-0.8
			c0.8,0,1.5,0.3,2,0.8s0.8,1.2,0.8,2c0,0.2,0,0.4,0,0.6h-4.6c0,0.6,0.2,1,0.5,1.4s0.8,0.5,1.3,0.5c0.4,0,0.7-0.1,1-0.3
			s0.5-0.4,0.6-0.7h1c-0.2,0.5-0.5,0.9-1,1.3C662.3,213.4,661.7,213.5,661,213.5z M662.3,208.8c-0.3-0.3-0.8-0.5-1.3-0.5
			s-0.9,0.2-1.3,0.5c-0.3,0.3-0.5,0.8-0.6,1.4h3.7C662.9,209.6,662.7,209.1,662.3,208.8z"/>
	</g>
	<path class="st1" d="M548.6,133.9h4V130c0-1.7,0-4.3,1.3-5.9c1.3-1.7,3.1-2.9,6.1-2.9c5,0,7.1,0.7,7.1,0.7l-1,5.8
		c0,0-1.6-0.5-3.2-0.5c-1.5,0-2.9,0.5-2.9,2.1v4.4h6.3l-0.4,5.7H560v19.8h-7.4v-19.8h-4V133.9z"/>
	<path class="st1" d="M468.3,284.2c0-3.5,2.8-6.3,6.3-6.3s6.3,2.8,6.3,6.3s-2.8,6.3-6.3,6.3C471.1,290.5,468.3,287.7,468.3,284.2
		 M464.9,284.2c0,5.4,4.3,9.7,9.7,9.7c5.4,0,9.7-4.3,9.7-9.7c0-5.4-4.3-9.7-9.7-9.7C469.3,274.5,464.9,278.9,464.9,284.2
		 M482.4,274.2c0,1.2,1,2.3,2.3,2.3c1.2,0,2.3-1,2.3-2.3s-1-2.3-2.3-2.3C483.4,271.9,482.4,272.9,482.4,274.2 M467,299.6
		c-1.8-0.1-2.8-0.4-3.5-0.6c-0.9-0.3-1.5-0.8-2.2-1.4c-0.7-0.7-1.1-1.3-1.4-2.2c-0.3-0.7-0.6-1.7-0.6-3.5c-0.1-2-0.1-2.6-0.1-7.6
		s0-5.6,0.1-7.6c0.1-1.8,0.4-2.8,0.6-3.5c0.3-0.9,0.8-1.5,1.4-2.2c0.7-0.7,1.3-1.1,2.2-1.4c0.7-0.3,1.7-0.6,3.5-0.7
		c2-0.1,2.6-0.1,7.6-0.1s5.6,0,7.6,0.1c1.8,0.1,2.8,0.4,3.5,0.7c0.9,0.3,1.5,0.8,2.2,1.4c0.7,0.7,1.1,1.3,1.4,2.2
		c0.3,0.7,0.6,1.7,0.7,3.5c0.1,2,0.1,2.6,0.1,7.6s0,5.6-0.1,7.6c-0.1,1.8-0.4,2.8-0.7,3.5c-0.3,0.9-0.8,1.5-1.4,2.2
		c-0.7,0.7-1.3,1.1-2.2,1.4c-0.7,0.3-1.7,0.6-3.5,0.6c-2,0.1-2.6,0.1-7.6,0.1S469,299.7,467,299.6 M466.8,265.5
		c-2,0.1-3.4,0.4-4.6,0.9s-2.3,1.1-3.3,2.2c-1.1,1.1-1.7,2.1-2.2,3.3c-0.5,1.2-0.8,2.6-0.9,4.6s-0.1,2.7-0.1,7.8
		c0,5.1,0,5.8,0.1,7.8s0.4,3.4,0.9,4.6s1.1,2.3,2.2,3.3c1,1,2.1,1.7,3.3,2.2c1.2,0.5,2.6,0.8,4.6,0.9s2.7,0.1,7.8,0.1
		c5.1,0,5.8,0,7.8-0.1s3.4-0.4,4.6-0.9s2.3-1.1,3.3-2.2c1.1-1.1,1.7-2.1,2.2-3.3c0.5-1.2,0.8-2.6,0.9-4.6s0.1-2.7,0.1-7.8
		c0-5.1,0-5.8-0.1-7.8s-0.4-3.4-0.9-4.6s-1.1-2.3-2.2-3.3c-1-1-2.1-1.7-3.3-2.2c-1.2-0.5-2.6-0.8-4.6-0.9s-2.7-0.1-7.8-0.1
		S468.8,265.4,466.8,265.5"/>
	<g>
		<path class="st1" d="M401.1,303.8h-5.9c-1.4,0-2.6,1.2-2.6,2.6v30.1h8.5c1.4,0,2.6-1.2,2.6-2.6v-27.5
			C403.7,304.9,402.6,303.8,401.1,303.8z"/>
		<path class="st2" d="M381.4,316.7v8.6h-7.7c-1.4,0-2.6,1.2-2.6,2.6v6c0,1.4,1.2,2.6,2.6,2.6h18.9v-22.4H384
			C382.5,314.1,381.4,315.2,381.4,316.7z"/>
	</g>
	<path class="st1" d="M407.6,226c-0.4-1.7-1.8-3-3.4-3.4c-3-0.8-15.2-0.8-15.2-0.8s-12.2,0-15.2,0.8c-1.7,0.4-3,1.8-3.4,3.4
		c-0.8,3-0.8,9.4-0.8,9.4s0,6.3,0.8,9.4c0.4,1.7,1.8,3,3.4,3.4c3,0.8,15.2,0.8,15.2,0.8s12.2,0,15.2-0.8c1.7-0.4,3-1.8,3.4-3.4
		c0.8-3,0.8-9.4,0.8-9.4S408.4,229,407.6,226z M385,241.2v-11.7l10.1,5.8L385,241.2z"/>
	<g>
		<path class="st1" d="M329.3,193c-0.3-0.7-1-1.2-1.8-1.4c-0.3-1.3-0.7-1.9-0.7-2c0.1-0.2,0.3-0.3,0.3-0.4c1.2-1.4,0.4-3.6-1.6-4.1
			c-1.1-1.1-2.1-1.6-3-2c-0.8-0.4-0.5-0.2-1.2-0.6c-0.2-1-0.3-3.2-0.6-4.8c-0.3-1.4-0.9-2.5-1.7-3.2c-0.4-0.8-0.8-1.5-1.4-2.1
			c2.8-4.3,3.5-8.5,1.5-10.7c-0.9-1-2.3-1.4-3.9-1.4c-2.3,0-5.1,0.9-7.9,2.6c0,0-1.8-1.5-1.9-1.5c-7.8-6.2-30,21.1-22.2,27.1l2,1.5
			c-1.3,3.5,0.5,7.7,4.2,9.1c0.8,0.3,1.7,0.4,2.6,0.4c0,0,5.9,10.9,18.5,10.9c14.5,0,18.2-14.2,18.2-14.3
			C328.7,196.1,329.9,194.4,329.3,193z M283.8,186.7c-1.6-2.7,1.2-8.2,3.1-11.3c4.9-7.7,13-13.9,16.6-13l1-0.4l2.8,2.3
			c1.9-1.1,4.3-2.3,6.6-2.5c-1.4,0.3-3.1,1-5,2.2c0,0-4.7,3.2-7.5,6c-1.6,1.5-7.8,9-7.8,9c1.1-2.2,1.9-3.2,3.7-5.5
			c1-1.3,2.1-2.5,3.2-3.7c0.5-0.5,1-1,1.6-1.5c0.4-0.3,0.7-0.7,1.1-1c0.2-0.1,0.3-0.3,0.5-0.4l0,0l-3.6-3l0.2,1.4l2.7,2.3
			c0,0-2.3,1.6-3.5,2.6c-4.7,4-9.3,10.1-11,16.1h0.1c-0.9,0.5-1.7,1.2-2.4,2.2C285.9,188.6,284,187.2,283.8,186.7z M291.5,197.9
			c-2.8,0-5.1-2.4-5.1-5.3c0-3,2.3-5.3,5.1-5.3c0.7,0,1.4,0.2,2,0.5c0,0,1.1,0.5,1.4,3.1l0,0l0,0c0.3-0.8,0.5-1.5,0.5-1.5
			c0.4,1.1,0.5,2.3,0.5,3.4l0,0l0,0c0.3-0.4,0.6-1.2,0.6-1.2C297.1,194.9,294.7,197.9,291.5,197.9z M297.7,179L297.7,179
			c0,0,2.2-4.1,7-6.9c-0.4-0.1-1.2,0.1-1.4,0.1c0.9-0.7,2.5-1.2,3.6-1.5c-0.3-0.2-1.1-0.3-1.5-0.3c-0.1,0-0.1,0-0.2,0
			c1.1-0.6,3-0.9,4.8-0.6c-0.2-0.3-0.7-0.5-1.1-0.6h-0.2h0.1c1.1-0.2,2.3,0,3.3,0.4c-0.1-0.3-0.4-0.6-0.6-0.8l-0.1-0.1
			c1,0.2,2,0.7,2.8,1.2c-0.1-0.2-0.4-0.5-0.5-0.7c1,0.3,2.1,1,2.6,2l0,0v0.1l0,0c-1.9-1.4-7.3-1-12.8,2.5
			C301,175.4,299.2,177.2,297.7,179z M327.2,195.4c-0.1,0.1-0.8,3.9-4.7,6.9c-5,3.9-11.5,3.5-14,1.3c-1.3-1.2-1.9-3-1.9-3
			s-0.1,1-0.2,1.4c-1-1.7-0.9-3.8-0.9-3.8s-0.5,1-0.8,1.5c-0.7-1.9-0.4-3.8-0.4-3.8l-0.6,0.9c0,0-0.3-2.1,0.4-3.9
			c0.7-1.9,2.1-3.2,2.4-3.4c-1-0.3-2.3-1.3-2.3-1.3s0.5,0,0.8,0c0,0-2.1-1.5-2.5-3.8c0.3,0.4,1,0.8,1,0.8c-0.2-0.6-0.3-2-0.1-3.3
			l0,0c0.4-2.5,2.5-4.2,4.9-4.2c2.5,0,4.2,0.6,6.3-1.4c0.4-0.4,0.8-0.8,1.4-0.9c0.1,0,0.2-0.1,0.6-0.1c0.3,0,0.7,0.1,1,0.3
			c1.1,0.7,1.4,2.5,1.5,3.8c0.5,4.8,0.3,4,2.2,5c0.9,0.5,2,0.9,3.2,2.2l0,0l0,0c1,0,1.5,0.8,1.1,1.4c-3.4,4-8.1,6-13.4,6.1
			c-0.2,0-0.7,0-0.7,0c-2.1,0.1-2.8,2.8-1.5,4.5c0.8,1,2.5,1.4,3.8,1.4l0,0c5.8,0.1,11.5-4,12.5-6.2l0.1-0.2
			c-0.2,0.3-5.8,5.6-12.7,5.4c0,0-0.7,0-1.4-0.2c-0.9-0.2-1.6-0.6-1.9-1.5c0.6,0.1,1.3,0.2,2.1,0.2c4.9,0,8.5-2.2,8.1-2.3
			c0,0,0,0-0.1,0c-0.6,0.1-6.5,2.4-10.2,1.3c0-0.1,0-0.2,0.1-0.3c0.3-1.1,0.9-1,1.9-1l0,0c3.4-0.1,6.2-1,8.2-2
			c2.2-1,3.9-2.4,4.5-3.1c0.8,1.3,0.8,3,0.8,3s0.3-0.1,0.7-0.1C327.9,193.1,328.2,194.3,327.2,195.4z M310.5,197L310.5,197
			L310.5,197z M310.5,196.9L310.5,196.9c0-0.1,0-0.2,0-0.3C310.5,196.8,310.5,196.8,310.5,196.9L310.5,196.9z M310.5,197.1
			L310.5,197.1L310.5,197.1z M310.5,197.1c0,0.2,0.1,0.3,0.1,0.3C310.6,197.3,310.5,197.2,310.5,197.1z"/>
		<polygon class="st1" points="303.4,164.2 304.1,164.4 303.5,162.4 303.2,163.4 		"/>
		<path class="st1" d="M306.4,164.9l-1.1-0.9l0.4,1.4C306,165.2,306.2,165.1,306.4,164.9z"/>
		<path class="st1" d="M310.5,196.9L310.5,196.9L310.5,196.9z"/>
		<path class="st1" d="M310.5,196.7c0,0.1,0,0.2,0,0.2C310.5,196.8,310.5,196.8,310.5,196.7z"/>
		<path class="st1" d="M310.5,197L310.5,197"/>
		<line class="st3" x1="310.5" y1="197.1" x2="310.5" y2="197.1"/>
		<path class="st1" d="M310.6,197.4c0,0,0-0.1-0.1-0.3C310.5,197.2,310.6,197.3,310.6,197.4z"/>
		<path class="st1" d="M316.6,182.9c0.6-0.1,1.1,0.1,1.6,0.3c0-1.4-0.8-2.9-1.4-2.7l0,0l0,0l0,0c-0.4,0.1-0.4,0.7-0.4,1.1
			C316.4,182.1,316.4,182.5,316.6,182.9z"/>
		<path class="st1" d="M305.3,165.7L303,165l1.5,1.3C304.7,166.1,305,165.9,305.3,165.7z"/>
		<path class="st1" d="M311.1,184.9c0.5,0.2,0.8,0.3,0.8,0.2c0,0,0-0.2-0.1-0.3c-0.3-0.4-0.8-0.8-1.3-0.9c-1.1-0.4-2.4-0.2-3.3,0.6
			c-0.5,0.4-0.7,0.8-0.5,0.8c0.1,0,0.4-0.1,0.8-0.2C309.1,184.4,310,184.4,311.1,184.9z"/>
		<path class="st1" d="M311.3,186.2c0.3,0,0.5,0,0.5,0c0.1-0.2-0.7-0.7-1.7-0.6c-0.1,0-0.2,0.1-0.4,0.1h-0.1
			c-0.3,0.1-0.5,0.2-0.7,0.4s-0.3,0.5-0.2,0.5c0.1,0.1,0.2,0,0.5-0.1C310.1,186.2,310.7,186.2,311.3,186.2z"/>
		<path class="st1" d="M288.3,192.9L288.3,192.9L288.3,192.9z"/>
		<path class="st1" d="M293.3,190.8c0.3,0.4,0.2,0.6,0.3,0.7c0,0,0.1,0.1,0.2,0c0.2-0.1,0.2-0.3,0.2-0.5l0,0l0,0l0,0
			c0-0.4-0.2-0.9-0.5-1.2l0,0l0,0l0,0c-0.4-0.4-0.9-0.8-1.6-0.9c-0.6-0.1-1.2,0-1.4,0.1l0,0c-0.1,0-0.2,0-0.3,0.1
			c-1.6,0.6-2.3,2.2-2,3.8c0.1,0.4,0.3,0.8,0.5,1.1l0,0l0,0l0,0c0.3,0.4,0.7,0.3,0.5,0c0-0.1-0.2-0.5-0.3-1.1c0-0.7,0.1-1.4,0.6-2
			c0.3-0.4,0.7-0.6,0.8-0.6l0,0c0.1,0,0.1-0.1,0.2-0.1h0.1c0.2-0.1,0.1,0,0.3-0.1l0,0C292.1,189.8,292.9,190.2,293.3,190.8z"/>
		<path class="st1" d="M292.8,191.9c-0.1-0.1-0.2-0.2-0.2-0.3c0-0.2,0-0.3,0.2-0.4c0.1-0.1,0.2-0.1,0.2-0.2c0-0.1-0.4-0.2-0.8,0.1
			c-0.3,0.3-0.3,0.9,0.1,1.3c0.5,0.5,1.2,0.6,1.3,1.2c0,0.1,0,0.2,0,0.3s0,0.3,0,0.3c-0.1,0.6-0.7,1.2-1.7,1c-0.2,0-0.3,0-0.3,0
			c-0.1,0.1,0.3,0.6,1.1,0.6c1.1,0,1.9-1.1,1.7-2.3C294.2,192.4,293.2,192.2,292.8,191.9z"/>
		<path class="st1" d="M317.6,185c-0.1,0.4,0.1,0.8,0.4,0.8s0.6-0.2,0.6-0.6c0.1-0.4-0.1-0.8-0.4-0.8
			C318,184.3,317.7,184.6,317.6,185z"/>
		<path class="st1" d="M315.5,186.4c0.4,0.2,0.8,0.2,1-0.1s0-0.7-0.4-0.9s-0.8-0.2-1,0.1S315.1,186.2,315.5,186.4z"/>
		<polygon class="st1" points="322.9,206.9 323.1,206.9 323.1,207.5 323.3,207.5 323.3,206.9 323.6,206.9 323.6,206.7 322.9,206.7 
					"/>
		<polygon class="st1" points="324.1,207.1 323.9,206.7 323.6,206.7 323.6,207.5 323.8,207.5 323.8,206.9 324,207.5 324.2,207.5 
			324.3,206.9 324.3,207.5 324.6,207.5 324.6,206.7 324.2,206.7 		"/>
	</g>
	<path class="st1" d="M321.2,281h-3v-3.3c0-9.9-14.5-14.1-18.7-1.5c-4.1-2.4-8.3,0-8,4.9c-10.5,0-8.7,12-1.3,12h30.7
		c7.9,0,7.9-12,0-12 M301.6,286l-0.5-1h-2.6l-0.5,1h-1.7l2.6-7h1.9l2.6,7H301.6z M310.4,282.5c-0.2,0.3-0.4,0.6-0.6,0.8
		c-0.3,0.2-0.6,0.3-0.9,0.4s-0.7,0.1-1.1,0.1c-0.1,0-0.2,0-0.4,0c-0.2,0-0.3,0-0.5,0.2h-0.4c-0.1-0.2-0.2-0.2-0.2-0.2v3.2h-2v-7.8
		c0.3-0.1,0.6-0.2,0.9-0.2s0.6-0.1,1-0.1s0.8-0.1,1.3-0.1s0.9,0.1,1.3,0.2s0.7,0.3,1,0.5s0.5,0.5,0.6,0.8s0.2,0.7,0.2,1
		C310.6,281.8,310.5,282.2,310.4,282.5 M313.2,287h-2v-8h2V287z"/>
	<g class="st4">
		<path class="st5" d="M994,137.6c3.3,0,7.3-2.3,9-5.2l19.6-33.9c1.7-2.9,1.7-7.5,0-10.4L1003,54.2c-1.6-2.9-5.7-5.2-9-5.2h-39.1
			c-3.3,0-7.4,2.3-9,5.2l-19.6,33.9c-1.7,2.9-1.6,7.5,0,10.4l19.6,33.9c1.7,2.9,5.7,5.2,9,5.2H994z"/>
	</g>
	<g class="st6">
		<path class="st5" d="M912,88.6c2.2,0,4.9-1.6,6-3.5l21.6-37.4c1.1-1.9,1.1-5,0-6.9L918,3.5c-1.1-1.9-3.8-3.5-6-3.5h-43.1
			c-2.2,0-4.9,1.6-6,3.5l-21.6,37.4c-1.1,1.9-1.1,5,0,6.9l21.6,37.4c1.1,1.9,3.8,3.5,6,3.5H912V88.6z"/>
	</g>
	<g class="st7">
		<path class="st5" d="M1164,137.6c3.3,0,7.3-2.3,9-5.2l19.6-33.9c1.7-2.9,1.7-7.5,0-10.4L1173,54.2c-1.6-2.9-5.7-5.2-9-5.2h-39.1
			c-3.3,0-7.3,2.3-9,5.2l-19.6,33.9c-1.7,2.9-1.7,7.5,0,10.4l19.6,33.9c1.6,2.9,5.7,5.2,9,5.2H1164z"/>
	</g>
	<g class="st8">
		<path class="st5" d="M1078,184.6c3.3,0,7.3-2.3,9-5.2l19.6-33.9c1.7-2.9,1.7-7.5,0-10.4l-19.6-33.9c-1.6-2.9-5.7-5.2-9-5.2h-39.1
			c-3.3,0-7.3,2.3-9,5.2l-19.6,33.9c-1.7,2.9-1.6,7.5,0,10.4l19.6,33.9c1.6,2.9,5.7,5.2,9,5.2L1078,184.6L1078,184.6z"/>
	</g>
	<g class="st9">
		<path class="st5" d="M994,233.6c3.3,0,7.3-2.3,9-5.2l19.6-33.9c1.7-2.9,1.7-7.5,0-10.4l-19.6-33.9c-1.6-2.9-5.7-5.2-9-5.2h-39.1
			c-3.3,0-7.4,2.3-9,5.2l-19.6,33.9c-1.7,2.9-1.6,7.5,0,10.4l19.6,33.9c1.7,2.9,5.7,5.2,9,5.2L994,233.6L994,233.6z"/>
	</g>
	<g class="st4">
		<path class="st10" d="M240,377.6c3.3,0,7.3-2.3,9-5.2l19.6-33.9c1.6-2.9,1.6-7.5,0-10.4L249,294.2c-1.6-2.9-5.7-5.2-9-5.2h-39.1
			c-3.3,0-7.3,2.3-9,5.2l-19.6,33.9c-1.6,2.9-1.6,7.5,0,10.4l19.6,33.9c1.7,2.9,5.7,5.2,9,5.2H240z"/>
	</g>
	<g class="st8">
		<path class="st10" d="M154,426.6c3.3,0,7.3-2.3,9-5.2l19.6-33.9c1.6-2.9,1.7-7.5,0-10.4L163,343.2c-1.6-2.9-5.7-5.2-9-5.2h-39.1
			c-3.3,0-7.4,2.3-9,5.2l-19.6,33.9c-1.6,2.9-1.6,7.5,0,10.4l19.6,33.9c1.7,2.9,5.7,5.2,9,5.2H154z"/>
	</g>
	<g class="st9">
		<path class="st10" d="M154,328.6c3.3,0,7.3-2.3,9-5.2l19.6-33.9c1.6-2.9,1.7-7.5,0-10.4L163,245.2c-1.6-2.9-5.7-5.2-9-5.2h-39.1
			c-3.3,0-7.4,2.3-9,5.2l-19.6,33.9c-1.6,2.9-1.6,7.5,0,10.4l19.6,33.9c1.7,2.9,5.7,5.2,9,5.2H154z"/>
	</g>
	<g class="st6">
		<path class="st10" d="M69,279.6c3.3,0,7.3-2.3,9-5.2l19.6-33.9c1.6-2.9,1.7-7.5,0-10.4L78,196.2c-1.6-2.9-5.7-5.2-9-5.2H29.8
			c-3.3,0-7.4,2.3-9,5.2L1.2,230.1c-1.6,2.9-1.6,7.5,0,10.4l19.6,33.9c1.7,2.9,5.7,5.2,9,5.2H69z"/>
	</g>
	<g class="st7">
		<path class="st10" d="M69,377.6c3.3,0,7.3-2.3,9-5.2l19.6-33.9c1.6-2.9,1.7-7.5,0-10.4L78,294.2c-1.6-2.9-5.7-5.2-9-5.2H29.8
			c-3.3,0-7.4,2.3-9,5.2L1.2,328.1c-1.6,2.9-1.6,7.5,0,10.4l19.6,33.9c1.7,2.9,5.7,5.2,9,5.2H69z"/>
	</g>
	<g>
		<path class="st11" d="M624.9,279.4l10.9-18.9l9.4,5.4l-10.9,18.9L624.9,279.4z"/>
		<path class="st1" d="M656.2,279.3l-10.9-18.9c-1.4-2.7-4.7-3.7-7.4-2.3c-2.7,1.4-3.7,4.7-2.3,7.4c0.1,0.1,0.1,0.2,0.2,0.3
			l10.9,18.9c1.5,2.6,4.8,3.6,7.4,2.1c2.6-1.5,3.6-4.8,2.1-7.4C656.3,279.4,656.2,279.3,656.2,279.3L656.2,279.3L656.2,279.3z"/>
		<path class="st1" d="M629.7,276.6c3,0,5.4,2.4,5.4,5.4s-2.4,5.4-5.4,5.4s-5.4-2.4-5.4-5.4C624.2,279,626.7,276.6,629.7,276.6z"/>
	</g>
	<g>
		<path class="st11" d="M624.9,182.4l10.9-18.9l9.4,5.4l-10.9,18.9L624.9,182.4z"/>
		<path class="st1" d="M656.2,182.3l-10.9-18.9c-1.4-2.7-4.7-3.7-7.4-2.3s-3.7,4.7-2.3,7.4c0.1,0.1,0.1,0.2,0.2,0.3l10.9,18.9
			c1.5,2.6,4.8,3.6,7.4,2.1c2.6-1.5,3.6-4.8,2.1-7.4C656.3,182.4,656.2,182.3,656.2,182.3L656.2,182.3L656.2,182.3z"/>
		<path class="st1" d="M629.7,179.6c3,0,5.4,2.4,5.4,5.4s-2.4,5.4-5.4,5.4s-5.4-2.4-5.4-5.4C624.2,182,626.7,179.6,629.7,179.6z"/>
	</g>
	<g>
		<path class="st11" d="M540.9,231.4l10.9-18.9l9.4,5.4l-10.9,18.9L540.9,231.4z"/>
		<path class="st1" d="M572.2,231.3l-10.9-18.9c-1.4-2.7-4.7-3.7-7.4-2.3s-3.7,4.7-2.3,7.4c0.1,0.1,0.1,0.2,0.2,0.3l10.9,18.9
			c1.5,2.6,4.8,3.6,7.4,2.1c2.6-1.5,3.6-4.8,2.1-7.4C572.3,231.4,572.2,231.3,572.2,231.3L572.2,231.3L572.2,231.3z"/>
		<path class="st1" d="M545.7,228.6c3,0,5.4,2.4,5.4,5.4s-2.4,5.4-5.4,5.4s-5.4-2.4-5.4-5.4C540.2,231,542.7,228.6,545.7,228.6z"/>
	</g>
	<g>
		<path class="st1" d="M228.5,225.2h7.7c0.3,0,0.7-0.2,0.7-0.6c0-0.2-0.1-0.4-0.2-0.6l-7.7-7.6c-0.2-0.3-0.6-0.3-0.9-0.1
			c-0.2,0.1-0.2,0.3-0.2,0.5v7.6C227.8,225,228.1,225.2,228.5,225.2"/>
		<path class="st1" d="M236.9,227.3h-10.3c-0.5,0-0.8-0.4-0.8-0.8v-10.2c0-0.5-0.4-0.8-0.8-0.8h-17.5c-0.5,0-0.8,0.4-0.8,0.8v15.2
			h0.1H227c2.1,0,3.9,1.7,3.9,3.9v10.4c0,2.1-1.7,3.9-3.9,3.9h-20.2h-0.1v3.3c0,0.5,0.4,0.8,0.8,0.8H237c0.5,0,0.8-0.4,0.8-0.8
			v-24.8C237.8,227.7,237.4,227.3,236.9,227.3"/>
		<path class="st1" d="M205,240.6c0,0.4,0,0.7,0.1,1.1c0.1,0.4,0.3,0.7,0.5,0.9c0.2,0.3,0.5,0.5,0.8,0.7s0.7,0.2,1.1,0.2
			c0.3,0,0.5,0,0.8-0.1s0.5-0.1,0.8-0.2c0.3-0.1,0.5-0.2,0.8-0.3c0.2-0.1,0.5-0.2,0.7-0.3v2c-0.2,0.1-0.4,0.1-0.6,0.2
			c-0.2,0.1-0.4,0.1-0.7,0.2c-0.3,0.1-0.6,0.1-0.9,0.2c-0.3,0-0.7,0.1-1.2,0.1c-0.7,0-1.3-0.1-1.9-0.3c-0.6-0.2-1-0.5-1.4-0.9
			s-0.7-0.9-0.9-1.5s-0.3-1.2-0.3-1.9s0.1-1.3,0.3-1.9c0.2-0.6,0.5-1,0.9-1.4s0.9-0.7,1.4-0.9c0.6-0.2,1.2-0.3,1.9-0.3
			c0.5,0,0.9,0,1.2,0.1c0.3,0,0.6,0.1,0.9,0.2c0.3,0.1,0.5,0.1,0.7,0.2c0.2,0.1,0.4,0.1,0.6,0.2v2c-0.2-0.1-0.4-0.2-0.7-0.3
			c-0.2-0.1-0.5-0.2-0.8-0.3s-0.5-0.2-0.8-0.2c-0.3-0.1-0.5-0.1-0.8-0.1c-0.4,0-0.8,0.1-1.1,0.3s-0.6,0.4-0.8,0.7s-0.4,0.6-0.5,1
			C205,239.8,205,240.2,205,240.6"/>
		<path class="st1" d="M211.6,238.5c0-0.5,0.1-0.9,0.4-1.2c0.2-0.3,0.5-0.6,0.9-0.8s0.8-0.4,1.2-0.5s0.8-0.1,1.2-0.1
			c0.7,0,1.3,0,1.9,0.1c0.6,0.1,1,0.2,1.3,0.3v0.5c0,0.2,0,0.3,0,0.5s0,0.3,0,0.5c0,0.1,0,0.3,0,0.5c-0.1-0.1-0.3-0.2-0.6-0.3
			c-0.2-0.1-0.5-0.2-0.8-0.3s-0.5-0.1-0.8-0.2c-0.3,0-0.5-0.1-0.8-0.1c-0.1,0-0.3,0-0.5,0s-0.4,0-0.5,0.1c-0.2,0-0.3,0.1-0.4,0.2
			c-0.1,0.1-0.2,0.3-0.2,0.4c0,0.2,0.1,0.4,0.4,0.6c0.2,0.1,0.6,0.3,0.9,0.4c0.4,0.1,0.8,0.3,1.2,0.4c0.4,0.1,0.8,0.3,1.2,0.5
			s0.7,0.5,0.9,0.8s0.4,0.8,0.4,1.3s-0.1,0.9-0.3,1.3c-0.2,0.4-0.5,0.6-0.8,0.9c-0.4,0.2-0.8,0.4-1.3,0.5s-1,0.2-1.6,0.2
			c-0.5,0-1,0-1.5-0.1c-0.4-0.1-0.8-0.1-1.2-0.2c-0.3-0.1-0.6-0.2-0.8-0.2c-0.2-0.1-0.3-0.1-0.3-0.1c0-0.1,0-0.2,0-0.3s0-0.2,0-0.3
			v-0.4c0-0.3,0-0.7,0-1.1c0.2,0.1,0.4,0.2,0.6,0.3c0.3,0.1,0.5,0.2,0.8,0.4c0.3,0.1,0.6,0.2,1,0.3c0.3,0.1,0.7,0.1,1,0.1
			c0.1,0,0.3,0,0.5,0s0.4,0,0.6-0.1c0.2-0.1,0.4-0.1,0.5-0.3c0.1-0.1,0.2-0.3,0.2-0.5s-0.1-0.4-0.4-0.5c-0.2-0.1-0.6-0.3-0.9-0.4
			c-0.4-0.1-0.8-0.3-1.2-0.4c-0.4-0.1-0.8-0.3-1.2-0.6c-0.4-0.2-0.7-0.5-0.9-0.9C211.7,239.5,211.6,239,211.6,238.5"/>
		<polygon class="st1" points="224.5,245 221.9,245 219.1,236.1 221.5,236.1 223.2,242.7 223.3,242.7 225,236.1 227.4,236.1 		"/>
	</g>
	<g>
		<path class="st2" d="M877.9,149.1c-2.4-2.1-3.9-5.2-3.9-8.6c0-6.3,5.1-11.4,11.4-11.4s11.4,5.1,11.4,11.4c0,4.2-2.3,7.9-5.7,9.9
			c1.7,1,3.6,1.5,5.7,1.5c2.3,0,4.4-0.7,6.1-1.8c1.4-2.8,2.2-5.9,2.2-9.2c0-11.2-9-20.2-20.2-20.2s-20.2,9-20.2,20.2
			s9,20.2,20.2,20.2c2,0,3.9-0.3,5.7-0.8C885,158.6,880.3,154.4,877.9,149.1z"/>
		<path class="st1" d="M904.4,132.7c2.4,2.1,3.9,5.2,3.9,8.6c0,6.3-5.1,11.4-11.4,11.4s-11.4-5.1-11.4-11.4c0-4.2,2.3-7.9,5.7-9.9
			c-1.7-1-3.6-1.5-5.7-1.5c-2.3,0-4.4,0.7-6.1,1.8c-1.4,2.8-2.2,5.9-2.2,9.2c0,11.2,9,20.2,20.2,20.2s20.2-9,20.2-20.2
			s-9-20.2-20.2-20.2c-2,0-3.9,0.3-5.7,0.8C897.3,123.2,902,127.3,904.4,132.7z"/>
	</g>
</g>
</svg>
