<?xml version="1.0" encoding="utf-8"?>
<!-- Generator: Adobe Illustrator 22.1.0, SVG Export Plug-In . SVG Version: 6.00 Build 0)  -->
<svg version="1.1" id="Capa_1" xmlns="http://www.w3.org/2000/svg" xmlns:xlink="http://www.w3.org/1999/xlink" x="0px" y="0px"
	 viewBox="0 0 750 641" style="enable-background:new 0 0 750 641;" xml:space="preserve">
<style type="text/css">
	.st0{clip-path:url(#SVGID_2_);}
	.st1{fill:url(#SVGID_3_);}
	.st2{fill:url(#SVGID_4_);}
	.st3{fill:url(#SVGID_5_);}
	.st4{fill:url(#SVGID_6_);}
	.st5{fill:url(#SVGID_7_);}
	.st6{fill:url(#SVGID_8_);}
	.st7{fill:url(#SVGID_9_);}
	.st8{fill:url(#SVGID_10_);}
	.st9{fill:url(#SVGID_11_);}
	.st10{fill:url(#SVGID_12_);}
	.st11{fill:url(#SVGID_13_);}
	.st12{fill:url(#SVGID_14_);}
	.st13{fill:url(#SVGID_15_);}
	.st14{fill:url(#SVGID_16_);}
	.st15{fill:url(#SVGID_17_);}
	.st16{fill:url(#SVGID_18_);}
	.st17{fill:#FFFFFF;}
	.st18{opacity:0.8;fill:#FFFFFF;enable-background:new    ;}
	.st19{fill:none;}
	.st20{opacity:0.15;}
	.st21{fill:#23E584;}
	.st22{opacity:5.000000e-02;}
	.st23{opacity:2.000000e-02;}
	.st24{opacity:0.1;}
	.st25{opacity:0.25;}
	.st26{fill:#F4B244;}
</style>
<g>
	<g>
		<defs>
			<rect id="SVGID_1_" y="0" width="750" height="641"/>
		</defs>
		<clipPath id="SVGID_2_">
			<use xlink:href="#SVGID_1_"  style="overflow:visible;"/>
		</clipPath>
		<g class="st0">
			<g>
				<g>
					<g>
						
							<linearGradient id="SVGID_3_" gradientUnits="userSpaceOnUse" x1="122.902" y1="80.8192" x2="643.0708" y2="408.0042" gradientTransform="matrix(1 0 0 -1 0 641.8898)">
							<stop  offset="0" style="stop-color:#F4B244"/>
							<stop  offset="0.4869" style="stop-color:#7F6FEF"/>
							<stop  offset="1" style="stop-color:#23E584"/>
						</linearGradient>
						<path class="st1" d="M168.4,468.9c-3.3,0-7.3,2.3-9,5.2l-22.5,39c-1.7,2.9-1.6,7.5,0,10.4l22.5,39c1.7,2.9,5.7,5.2,9,5.2h45
							c3.3,0,7.3-2.3,9-5.2l22.5-39c1.6-2.9,1.6-7.5,0-10.4l-22.5-39c-1.6-2.9-5.7-5.2-9-5.2L168.4,468.9L168.4,468.9z"/>
					</g>
					<g>
						
							<linearGradient id="SVGID_4_" gradientUnits="userSpaceOnUse" x1="119.7888" y1="84.8836" x2="639.9576" y2="412.0686" gradientTransform="matrix(1 0 0 -1 0 641.8898)">
							<stop  offset="0" style="stop-color:#F4B244"/>
							<stop  offset="0.4869" style="stop-color:#7F6FEF"/>
							<stop  offset="1" style="stop-color:#23E584"/>
						</linearGradient>
						<path class="st2" d="M75.2,521.5c-3.3,0-7.3,2.3-9,5.2l-22.5,39c-1.6,2.9-1.6,7.5,0,10.4l22.5,39c1.7,2.9,5.7,5.2,9,5.2h45
							c3.3,0,7.3-2.3,9-5.2l22.5-39c1.6-2.9,1.7-7.5,0-10.4l-22.5-39c-1.6-2.9-5.7-5.2-9-5.2H75.2z"/>
					</g>
					<g>
						
							<linearGradient id="SVGID_5_" gradientUnits="userSpaceOnUse" x1="125.109" y1="78.1992" x2="645.2777" y2="405.3843" gradientTransform="matrix(1 0 0 -1 0 641.8898)">
							<stop  offset="0" style="stop-color:#F4B244"/>
							<stop  offset="0.4869" style="stop-color:#7F6FEF"/>
							<stop  offset="1" style="stop-color:#23E584"/>
						</linearGradient>
						<path class="st3" d="M261.1,414.6c-3.3,0-7.3,2.3-9,5.2l-22.5,39c-1.6,2.9-1.6,7.5,0,10.4l22.5,39c1.7,2.9,5.7,5.2,9,5.2h45
							c3.3,0,7.3-2.3,9-5.2l22.5-39c1.6-2.9,1.6-7.5,0-10.4l-22.5-39c-1.6-2.9-5.7-5.2-9-5.2H261.1z"/>
					</g>
					<g>
						
							<linearGradient id="SVGID_6_" gradientUnits="userSpaceOnUse" x1="31.1675" y1="229.3877" x2="551.3363" y2="556.5727" gradientTransform="matrix(1 0 0 -1 0 641.8898)">
							<stop  offset="0" style="stop-color:#F4B244"/>
							<stop  offset="0.4869" style="stop-color:#7F6FEF"/>
							<stop  offset="1" style="stop-color:#23E584"/>
						</linearGradient>
						<path class="st4" d="M345.3,239.3c1.7,2.9,5.7,5.2,9,5.2h45c3.3,0,7.4-2.3,9-5.2l22.5-39c1.6-2.9,1.7-7.5,0-10.4l-22.5-39
							c-1.6-2.9-5.7-5.2-9-5.2h-45c-3.3,0-7.4,2.3-9,5.2l-22.5,39c-1.6,2.9-1.6,7.5,0,10.4L345.3,239.3z"/>
					</g>
					<g>
						
							<linearGradient id="SVGID_7_" gradientUnits="userSpaceOnUse" x1="84.1979" y1="146.3692" x2="604.3666" y2="473.5542" gradientTransform="matrix(1 0 0 -1 0 641.8898)">
							<stop  offset="0" style="stop-color:#F4B244"/>
							<stop  offset="0.4869" style="stop-color:#7F6FEF"/>
							<stop  offset="1" style="stop-color:#23E584"/>
						</linearGradient>
						<path class="st5" d="M583.7,244.9c3.3,0,7.3-2.3,9-5.2l22.5-39c1.6-2.9,1.6-7.5,0-10.4l-22.5-39c-1.6-2.9-5.7-5.2-9-5.2h-45
							c-3.3,0-7.4,2.3-9,5.2l-22.5,39c-1.6,2.9-1.6,7.5,0,10.4l22.5,39c1.7,2.9,5.7,5.2,9,5.2H583.7z"/>
					</g>
					<g>
						
							<linearGradient id="SVGID_8_" gradientUnits="userSpaceOnUse" x1="28.6381" y1="232.5192" x2="548.8068" y2="559.7043" gradientTransform="matrix(1 0 0 -1 0 641.8898)">
							<stop  offset="0" style="stop-color:#F4B244"/>
							<stop  offset="0.4869" style="stop-color:#7F6FEF"/>
							<stop  offset="1" style="stop-color:#23E584"/>
						</linearGradient>
						<path class="st6" d="M261.1,199.6c-3.3,0-7.3,2.3-9,5.2l-22.5,39c-1.6,2.9-1.6,7.5,0,10.4l22.5,39c1.7,2.9,5.7,5.2,9,5.2h45
							c3.3,0,7.3-2.3,9-5.2l22.5-39c1.6-2.9,1.6-7.5,0-10.4l-22.5-39c-1.6-2.9-5.7-5.2-9-5.2L261.1,199.6L261.1,199.6z"/>
					</g>
					<g>
						
							<linearGradient id="SVGID_9_" gradientUnits="userSpaceOnUse" x1="79.7174" y1="151.7254" x2="599.886" y2="478.9104" gradientTransform="matrix(1 0 0 -1 0 641.8898)">
							<stop  offset="0" style="stop-color:#F4B244"/>
							<stop  offset="0.4869" style="stop-color:#7F6FEF"/>
							<stop  offset="1" style="stop-color:#23E584"/>
						</linearGradient>
						<path class="st7" d="M354.3,253.9c-3.3,0-7.4,2.3-9,5.2l-22.5,39c-1.6,2.9-1.6,7.5,0,10.4l22.5,39c1.7,2.9,5.7,5.2,9,5.2h45
							c3.3,0,7.4-2.3,9-5.2l22.5-39c1.6-2.9,1.7-7.5,0-10.4l-22.5-39c-1.6-2.9-5.7-5.2-9-5.2L354.3,253.9L354.3,253.9z"/>
					</g>
					<g>
						
							<linearGradient id="SVGID_10_" gradientUnits="userSpaceOnUse" x1="87.1798" y1="142.5109" x2="607.3485" y2="469.696" gradientTransform="matrix(1 0 0 -1 0 641.8898)">
							<stop  offset="0" style="stop-color:#F4B244"/>
							<stop  offset="0.4869" style="stop-color:#7F6FEF"/>
							<stop  offset="1" style="stop-color:#23E584"/>
						</linearGradient>
						<path class="st8" d="M676.6,192.2c3.3,0,7.3-2.3,9-5.2l22.5-39c1.6-2.9,1.6-7.5,0-10.4l-22.5-39c-1.6-2.9-5.7-5.2-9-5.2h-45
							c-3.3,0-7.4,2.3-9,5.2l-22.5,39c-1.6,2.9-1.6,7.5,0,10.4l22.5,39c1.7,2.9,5.7,5.2,9,5.2H676.6z"/>
					</g>
					<g>
						
							<linearGradient id="SVGID_11_" gradientUnits="userSpaceOnUse" x1="81.804" y1="149.2941" x2="601.9728" y2="476.4792" gradientTransform="matrix(1 0 0 -1 0 641.8898)">
							<stop  offset="0" style="stop-color:#F4B244"/>
							<stop  offset="0.4869" style="stop-color:#7F6FEF"/>
							<stop  offset="1" style="stop-color:#23E584"/>
						</linearGradient>
						<path class="st9" d="M500.6,204.8c-1.6-2.9-5.7-5.2-9-5.2h-45c-3.3,0-7.4,2.3-9,5.2l-22.5,39c-1.6,2.9-1.6,7.5,0,10.4l22.5,39
							c1.7,2.9,5.7,5.2,9,5.2h45c3.3,0,7.3-2.3,9-5.2l22.5-39c1.7-2.9,1.7-7.5,0-10.4L500.6,204.8z"/>
					</g>
					<g>
						
							<linearGradient id="SVGID_12_" gradientUnits="userSpaceOnUse" x1="74.3072" y1="158.5532" x2="594.4761" y2="485.7383" gradientTransform="matrix(1 0 0 -1 0 641.8898)">
							<stop  offset="0" style="stop-color:#F4B244"/>
							<stop  offset="0.4869" style="stop-color:#7F6FEF"/>
							<stop  offset="1" style="stop-color:#23E584"/>
						</linearGradient>
						<path class="st10" d="M213.4,459.4c3.3,0,7.3-2.3,9-5.2l22.5-39c1.6-2.9,1.6-7.5,0-10.4l-22.5-39c-1.6-2.9-5.7-5.2-9-5.2h-45
							c-3.3,0-7.3,2.3-9,5.2l-22.5,39c-1.6,2.9-1.6,7.5,0,10.4l22.5,39c1.7,2.9,5.7,5.2,9,5.2H213.4z"/>
					</g>
					<g>
						
							<linearGradient id="SVGID_13_" gradientUnits="userSpaceOnUse" x1="26.386" y1="235.2108" x2="546.5547" y2="562.3958" gradientTransform="matrix(1 0 0 -1 0 641.8898)">
							<stop  offset="0" style="stop-color:#F4B244"/>
							<stop  offset="0.4869" style="stop-color:#7F6FEF"/>
							<stop  offset="1" style="stop-color:#23E584"/>
						</linearGradient>
						<path class="st11" d="M213.4,352.6c3.3,0,7.3-2.3,9-5.2l22.5-39c1.6-2.9,1.6-7.5,0-10.4l-22.5-39c-1.6-2.9-5.7-5.2-9-5.2h-45
							c-3.3,0-7.3,2.3-9,5.2l-22.5,39c-1.7,2.9-1.6,7.5,0,10.4l22.5,39c1.7,2.9,5.7,5.2,9,5.2H213.4z"/>
					</g>
					<g>
						
							<linearGradient id="SVGID_14_" gradientUnits="userSpaceOnUse" x1="132.3274" y1="69.3796" x2="652.4962" y2="396.5647" gradientTransform="matrix(1 0 0 -1 0 641.8898)">
							<stop  offset="0" style="stop-color:#F4B244"/>
							<stop  offset="0.4869" style="stop-color:#7F6FEF"/>
							<stop  offset="1" style="stop-color:#23E584"/>
						</linearGradient>
						<path class="st12" d="M538.8,253.3c-3.3,0-7.4,2.3-9,5.2l-22.5,39c-1.6,2.9-1.6,7.5,0,10.4l22.5,39c1.7,2.9,5.7,5.2,9,5.2h45
							c3.3,0,7.3-2.3,9-5.2l22.5-39c1.6-2.9,1.6-7.5,0-10.4l-22.5-39c-1.6-2.9-5.7-5.2-9-5.2H538.8z"/>
					</g>
					<g>
						
							<linearGradient id="SVGID_15_" gradientUnits="userSpaceOnUse" x1="134.7807" y1="66.3648" x2="654.9495" y2="393.5498" gradientTransform="matrix(1 0 0 -1 0 641.8898)">
							<stop  offset="0" style="stop-color:#F4B244"/>
							<stop  offset="0.4869" style="stop-color:#7F6FEF"/>
							<stop  offset="1" style="stop-color:#23E584"/>
						</linearGradient>
						<path class="st13" d="M631.4,199.6c-3.3,0-7.3,2.3-9,5.2l-22.5,39c-1.7,2.9-1.6,7.5,0,10.4l22.5,39c1.7,2.9,5.7,5.2,9,5.2h45
							c3.3,0,7.3-2.3,9-5.2l22.5-39c1.7-2.9,1.7-7.5,0-10.4l-22.5-39c-1.6-2.9-5.7-5.2-9-5.2L631.4,199.6L631.4,199.6z"/>
					</g>
					<g>
						
							<linearGradient id="SVGID_16_" gradientUnits="userSpaceOnUse" x1="-19.0143" y1="308.746" x2="501.1544" y2="635.931" gradientTransform="matrix(1 0 0 -1 0 641.8898)">
							<stop  offset="0" style="stop-color:#F4B244"/>
							<stop  offset="0.4869" style="stop-color:#7F6FEF"/>
							<stop  offset="1" style="stop-color:#23E584"/>
						</linearGradient>
						<path class="st14" d="M306.1,192.2c3.3,0,7.3-2.3,9-5.2l22.5-39c1.6-2.9,1.6-7.5,0-10.4l-22.5-39c-1.6-2.9-5.7-5.2-9-5.2h-45
							c-3.3,0-7.3,2.3-9,5.2l-22.5,39c-1.7,2.9-1.6,7.5,0,10.4l22.5,39c1.7,2.9,5.7,5.2,9,5.2H306.1z"/>
					</g>
					<g>
						
							<linearGradient id="SVGID_17_" gradientUnits="userSpaceOnUse" x1="-22.1187" y1="312.8015" x2="498.05" y2="639.9865" gradientTransform="matrix(1 0 0 -1 0 641.8898)">
							<stop  offset="0" style="stop-color:#F4B244"/>
							<stop  offset="0.4869" style="stop-color:#7F6FEF"/>
							<stop  offset="1" style="stop-color:#23E584"/>
						</linearGradient>
						<path class="st15" d="M213.4,244.5c3.3,0,7.3-2.3,9-5.2l22.5-39c1.6-2.9,1.6-7.5,0-10.4l-22.5-39c-1.6-2.9-5.7-5.2-9-5.2h-45
							c-3.3,0-7.3,2.3-9,5.2l-22.5,39c-1.6,2.9-1.6,7.5,0,10.4l22.5,39c1.7,2.9,5.7,5.2,9,5.2H213.4z"/>
					</g>
					<g>
						
							<linearGradient id="SVGID_18_" gradientUnits="userSpaceOnUse" x1="71.6877" y1="161.8281" x2="591.8564" y2="489.0132" gradientTransform="matrix(1 0 0 -1 0 641.8898)">
							<stop  offset="0" style="stop-color:#F4B244"/>
							<stop  offset="0.4869" style="stop-color:#7F6FEF"/>
							<stop  offset="1" style="stop-color:#23E584"/>
						</linearGradient>
						<path class="st16" d="M120.2,513.1c3.3,0,7.3-2.3,9-5.2l22.5-39c1.6-2.9,1.7-7.5,0-10.4l-22.5-39c-1.6-2.9-5.7-5.2-9-5.2h-45
							c-3.3,0-7.3,2.3-9,5.2l-22.5,39c-1.6,2.9-1.6,7.5,0,10.4l22.5,39c1.7,2.9,5.7,5.2,9,5.2H120.2z"/>
					</g>
				</g>
			</g>
			<path class="st17" d="M677.2,248.3c-0.3-1.7-1.2-3-2.8-3.7c-1.3-0.6-2.7-0.7-4.1-0.4c-2.6,0.5-4.2,2.6-4.3,5.2c0,0.9,0,1.8,0,2.7
				c0,0.8,0.1,1.6,0.3,2.4c0.2,1.1,0.7,2.1,1.5,2.8c1,0.9,2.2,1.2,3.4,1.2c0.9,0,1.7,0,2.6-0.1c0.9,0,1.7-0.1,2.6-0.2
				c0.2,0,0.4,0,0.5-0.1V255c-0.1,0-0.1,0-0.2,0c-1.1,0.1-2.1,0.2-3.2,0.2c-0.8,0-1.6,0.1-2.4,0.1c-0.8,0-1.3-0.4-1.5-1.1
				c-0.1-0.3-0.2-0.6-0.2-0.9c0-0.2,0-0.3-0.1-0.6h7.9c0-0.1,0-0.2,0-0.3c0-0.8,0-1.7,0-2.5C677.3,249.4,677.3,248.9,677.2,248.3z
				 M669.4,249.7c-0.1-0.3,0-0.6,0.1-0.9c0.3-0.9,1-1.4,1.9-1.4c0.4,0,0.8,0,1.1,0.1c0.9,0.2,1.3,0.7,1.4,1.6c0,0.2,0,0.5,0.1,0.7
				h-4.6V249.7z M663.5,245.5c-1.1-1.2-2.5-1.7-4.1-1.4c-0.8,0.1-1.5,0.4-2.2,0.6c-0.4,0.1-0.8,0.3-1.2,0.5
				c-0.2-0.2-0.4-0.3-0.7-0.4c-0.9-0.6-1.9-0.8-3-0.6c-0.7,0.1-1.3,0.3-1.9,0.5c-0.1,0-0.2,0.1-0.3,0.1c0-0.2,0-0.3-0.1-0.4h-3.3
				v14.2h3.3v-10.3c0.9-0.4,1.8-0.7,2.7-0.9c0.5-0.1,0.9,0.1,1.2,0.6c0.2,0.4,0.3,0.8,0.3,1.2c0,3,0,6,0,9c0,0.1,0,0.2,0,0.3h3.3
				V248c0.7-0.2,1.4-0.5,2.1-0.7c0.5-0.2,0.9,0,1.3,0.3c0.4,0.4,0.6,0.9,0.6,1.4c0,3,0,6,0,9c0,0.1,0,0.2,0,0.3h3.3
				c0-0.1,0-0.2,0-0.3c0-3.1,0-6.1,0-9.2C664.8,247.7,664.4,246.5,663.5,245.5z M633.4,242.8c0-0.1,0-0.1,0-0.2
				c-0.2-0.7-0.6-1.3-1.1-1.8c-1.2-1.1-2.6-1.6-4.2-1.6c-1.6,0-3.3,0-4.9,0c-0.5,0-1,0-1.4,0.1c-1.1,0.1-2.1,0.6-2.9,1.4
				c-1.4,1.4-1.8,3.2-1.6,5.1c0.2,1.8,1.2,3.1,2.8,4c1,0.6,2,0.9,3.1,1.2c0.6,0.1,1.2,0.2,1.8,0.5c0.5,0.3,0.8,0.6,0.9,1.2
				c0,0.3,0,0.7,0,1c-0.1,0.7-0.5,1.2-1.2,1.5c-0.3,0.1-0.7,0.2-1.1,0.2c-0.9,0-1.7,0-2.6,0c-1,0-2.1-0.1-3.1-0.2
				c-0.3,0-0.6,0-0.9-0.1v3.3c0.1,0,0.1,0,0.2,0c0.5,0,1,0.1,1.5,0.1c1.1,0,2.2,0.1,3.3,0.1c1,0,2,0,3-0.1c1.8-0.2,3-1.2,3.7-2.9
				c0.5-1.2,0.6-2.4,0.4-3.7c-0.2-1.5-0.9-2.7-2.2-3.5c-0.7-0.4-1.5-0.7-2.3-0.9c-0.9-0.2-1.8-0.4-2.6-0.9c-1-0.5-1.5-1.3-1.3-2.5
				c0.1-0.7,0.4-1.2,1-1.5c0.4-0.2,0.9-0.3,1.4-0.3c1.6,0,3.1,0,4.7,0c0.3,0,0.6,0,0.8,0.1c0.5,0.1,0.9,0.2,1.3,0.5
				c0.1,0.1,0.2,0.2,0.3,0.4c1.1-0.2,2.2-0.3,3.3-0.5C633.4,242.8,633.4,242.8,633.4,242.8z M690.5,244.2c-1.2,0-2.5,0-3.7,0
				c-0.2,0-0.3,0.1-0.4,0.2c-1.1,1.2-2.2,2.5-3.3,3.7c-0.3,0.3-0.6,0.6-0.9,1c-0.1,0-0.3,0-0.4,0v-10h-3.3v19.4h3.3v-6h0.3
				c1.4,2,2.8,4,4.2,6h4c-1.8-2.5-3.5-5.1-5.3-7.6C686.9,248.7,688.7,246.5,690.5,244.2C690.6,244.3,690.6,244.2,690.5,244.2z
				 M645.6,244.3h-10.8v3.2h6.2c-0.1,0.1-0.1,0.2-0.2,0.2c-2,2.8-4,5.5-5.9,8.3c-0.1,0.1-0.1,0.2-0.1,0.3c0,0.7,0,1.4,0,2.1v0.1
				h10.8v-3.2h-6.1c0.1-0.1,0.1-0.2,0.1-0.2c1.9-2.7,3.9-5.4,5.8-8.1c0.1-0.1,0.2-0.3,0.2-0.5c0-0.6,0-1.2,0-1.9
				C645.6,244.5,645.6,244.4,645.6,244.3z M630.2,258.5h3.3v-14.2h-3.3V258.5z M690.4,239.1l-0.2,0.7l-0.2-0.7h-0.5v1.2h0.3v-0.9
				l0.2,0.9h0.3l0.2-0.9v0.9h0.3v-1.2H690.4z M688.6,240.4h0.4v-0.9h0.4v-0.3h-1.1v0.3h0.4v0.9H688.6z"/>
			<g>
				<path class="st17" d="M556.6,226.7l-0.6-1.8h-3.6l-0.6,1.8h-1.1l3-8.2h1.2l3,8.2H556.6z M552.6,224.1h3l-1.5-4.2L552.6,224.1z"
					/>
				<path class="st17" d="M559.6,225.9c-0.6-0.6-0.9-1.4-0.9-2.4s0.3-1.8,0.9-2.4c0.6-0.6,1.3-0.9,2.2-0.9c0.6,0,1,0.1,1.5,0.4
					s0.7,0.6,0.9,1V218h1.1v8.8h-1.1v-1.3c-0.2,0.4-0.5,0.8-0.9,1s-0.9,0.4-1.5,0.4C560.9,226.8,560.2,226.5,559.6,225.9z
					 M563.6,225.2c0.4-0.4,0.6-1,0.6-1.8s-0.2-1.3-0.6-1.8s-0.9-0.7-1.6-0.7s-1.1,0.2-1.6,0.6s-0.6,1-0.6,1.7s0.2,1.3,0.7,1.8
					s1,0.7,1.6,0.7S563.1,225.7,563.6,225.2z"/>
				<path class="st17" d="M566.9,222.1c0-0.5,0.2-1,0.7-1.4s1-0.6,1.8-0.6s1.3,0.2,1.7,0.6c0.4,0.4,0.6,0.9,0.7,1.5h-1.1
					c0-0.4-0.1-0.7-0.4-0.9c-0.2-0.2-0.5-0.3-1-0.3c-0.4,0-0.7,0.1-1,0.3c-0.2,0.2-0.3,0.4-0.3,0.7s0.1,0.5,0.4,0.7s0.6,0.3,1,0.4
					c0.4,0.1,0.8,0.2,1.1,0.3c0.4,0.1,0.7,0.3,1,0.6s0.4,0.7,0.4,1.2s-0.2,0.9-0.7,1.3c-0.5,0.3-1,0.5-1.8,0.5
					c-0.7,0-1.3-0.2-1.7-0.5s-0.7-0.9-0.7-1.5h1.1c0,0.4,0.1,0.7,0.4,0.9c0.2,0.2,0.6,0.3,1,0.3s0.8-0.1,1-0.3s0.4-0.4,0.4-0.7
					s-0.1-0.5-0.3-0.7s-0.4-0.3-0.7-0.3s-0.6-0.1-0.9-0.2c-0.3-0.1-0.6-0.2-0.9-0.3c-0.3-0.1-0.5-0.3-0.7-0.5
					C566.9,222.7,566.9,222.4,566.9,222.1z"/>
			</g>
			<g>
				<path class="st17" d="M531.6,325.1v-8.2h1.1v8.2H531.6z"/>
				<path class="st17" d="M535.6,318.6v1.1c0.4-0.8,1.1-1.2,2.1-1.2c0.7,0,1.3,0.2,1.8,0.7s0.7,1.2,0.7,2v3.9h-1.1v-3.7
					c0-0.7-0.2-1.2-0.5-1.5s-0.8-0.5-1.3-0.5c-0.6,0-1,0.2-1.3,0.5s-0.5,0.8-0.5,1.5v3.7h-1.1v-6.5H535.6z"/>
				<path class="st17" d="M541.7,320.4c0-0.5,0.2-1,0.7-1.4s1-0.6,1.8-0.6s1.3,0.2,1.7,0.6s0.6,0.9,0.7,1.5h-1.1
					c0-0.4-0.1-0.7-0.4-0.9c-0.2-0.2-0.5-0.3-1-0.3c-0.4,0-0.7,0.1-1,0.3c-0.2,0.2-0.3,0.4-0.3,0.7c0,0.3,0.1,0.5,0.4,0.7
					s0.6,0.3,1,0.4s0.8,0.2,1.1,0.3c0.4,0.1,0.7,0.3,1,0.6s0.4,0.7,0.4,1.2s-0.2,0.9-0.7,1.3c-0.5,0.3-1,0.5-1.8,0.5
					c-0.7,0-1.3-0.2-1.7-0.5s-0.7-0.9-0.7-1.5h1.1c0,0.4,0.1,0.7,0.4,0.9c0.2,0.2,0.6,0.3,1,0.3s0.8-0.1,1-0.3
					c0.2-0.2,0.4-0.4,0.4-0.7c0-0.3-0.1-0.5-0.3-0.7s-0.4-0.3-0.7-0.3s-0.6-0.1-0.9-0.2c-0.3-0.1-0.6-0.2-0.9-0.3
					c-0.3-0.1-0.5-0.3-0.7-0.5C541.8,321.1,541.7,320.8,541.7,320.4z"/>
				<path class="st17" d="M550.3,324.2h0.9v0.9h-1.1c-1.1,0-1.7-0.6-1.7-1.7v-4h-0.8v-0.9h0.8V317h1.1v1.6h1.7v0.9h-1.7v4
					c0,0.3,0.1,0.5,0.2,0.6C549.8,324.1,550,324.2,550.3,324.2z"/>
				<path class="st17" d="M552.8,324.2c-0.6-0.6-0.9-1.4-0.9-2.4s0.3-1.8,0.9-2.4c0.6-0.6,1.3-0.9,2.2-0.9c0.6,0,1,0.1,1.5,0.4
					s0.7,0.6,0.9,1v-1.3h1.1v6.5h-1.1v-1.3c-0.2,0.4-0.5,0.8-0.9,1s-0.9,0.4-1.5,0.4C554.2,325.2,553.4,324.9,552.8,324.2z
					 M556.8,323.6c0.4-0.4,0.6-1,0.6-1.8s-0.2-1.3-0.6-1.8s-0.9-0.7-1.6-0.7s-1.1,0.2-1.6,0.6s-0.6,1-0.6,1.7s0.2,1.3,0.7,1.8
					s1,0.7,1.6,0.7S556.4,324,556.8,323.6z"/>
				<path class="st17" d="M560.8,324.2c-0.6-0.6-0.9-1.4-0.9-2.4s0.3-1.8,0.9-2.4c0.6-0.6,1.3-0.9,2.2-0.9c0.6,0,1,0.1,1.5,0.4
					s0.7,0.6,0.9,1v-1.3h1.1v6.7c0,0.9-0.3,1.6-0.9,2.2c-0.6,0.6-1.3,0.8-2.2,0.8s-1.6-0.2-2.2-0.6c-0.6-0.4-0.9-0.9-1-1.6h1.1
					c0.1,0.4,0.3,0.7,0.7,0.9c0.4,0.2,0.8,0.4,1.4,0.4c0.6,0,1-0.2,1.4-0.6s0.6-0.9,0.6-1.5v-1.5c-0.2,0.4-0.5,0.8-0.9,1
					s-0.9,0.4-1.5,0.4C562.1,325.2,561.4,324.9,560.8,324.2z M564.7,323.6c0.4-0.4,0.6-1,0.6-1.8s-0.2-1.3-0.6-1.8s-0.9-0.7-1.6-0.7
					s-1.1,0.2-1.6,0.6s-0.6,1-0.6,1.7s0.2,1.3,0.7,1.8s1,0.7,1.6,0.7S564.3,324,564.7,323.6z"/>
				<path class="st17" d="M569.3,318.6v1.1c0.4-0.8,1-1.2,2-1.2v1.1H571c-0.6,0-1,0.1-1.3,0.4s-0.4,0.8-0.4,1.5v3.6h-1.1v-6.5H569.3
					z"/>
				<path class="st17" d="M573.1,324.2c-0.6-0.6-0.9-1.4-0.9-2.4s0.3-1.8,0.9-2.4c0.6-0.6,1.3-0.9,2.2-0.9c0.6,0,1,0.1,1.5,0.4
					s0.7,0.6,0.9,1v-1.3h1.1v6.5h-1.1v-1.3c-0.2,0.4-0.5,0.8-0.9,1s-0.9,0.4-1.5,0.4C574.4,325.2,573.7,324.9,573.1,324.2z
					 M577,323.6c0.4-0.4,0.6-1,0.6-1.8s-0.2-1.3-0.6-1.8s-0.9-0.7-1.6-0.7s-1.1,0.2-1.6,0.6s-0.6,1-0.6,1.7s0.2,1.3,0.7,1.8
					s1,0.7,1.6,0.7S576.6,324,577,323.6z"/>
				<path class="st17" d="M581.6,318.6v1.1c0.4-0.8,1.1-1.2,2.1-1.2c0.5,0,0.9,0.1,1.4,0.4c0.4,0.2,0.7,0.6,0.9,1
					c0.2-0.4,0.6-0.8,1-1s0.9-0.4,1.4-0.4c0.7,0,1.3,0.2,1.8,0.7s0.7,1.2,0.7,2v3.9h-1.1v-3.7c0-0.7-0.2-1.2-0.5-1.5
					s-0.8-0.5-1.3-0.5c-0.6,0-1,0.2-1.3,0.5s-0.5,0.8-0.5,1.5v3.7h-1.1v-3.7c0-0.7-0.2-1.2-0.5-1.5s-0.8-0.5-1.3-0.5
					c-0.6,0-1,0.2-1.3,0.5s-0.5,0.8-0.5,1.5v3.7h-1.1v-6.5H581.6z"/>
				<path class="st17" d="M556.6,339.3l-0.6-1.8h-3.6l-0.6,1.8h-1.1l3-8.2h1.2l3,8.2H556.6z M552.6,336.6h3l-1.5-4.2L552.6,336.6z"
					/>
				<path class="st17" d="M559.6,338.5c-0.6-0.6-0.9-1.4-0.9-2.4s0.3-1.8,0.9-2.4c0.6-0.6,1.3-0.9,2.2-0.9c0.6,0,1,0.1,1.5,0.4
					s0.7,0.6,0.9,1v-3.6h1.1v8.8h-1.1V338c-0.2,0.4-0.5,0.8-0.9,1s-0.9,0.4-1.5,0.4C560.9,339.4,560.2,339.1,559.6,338.5z
					 M563.6,337.8c0.4-0.4,0.6-1,0.6-1.8s-0.2-1.3-0.6-1.8s-0.9-0.7-1.6-0.7s-1.1,0.2-1.6,0.6s-0.6,1-0.6,1.7s0.2,1.3,0.7,1.8
					s1,0.7,1.6,0.7S563.1,338.3,563.6,337.8z"/>
				<path class="st17" d="M566.9,334.6c0-0.5,0.2-1,0.7-1.4s1-0.6,1.8-0.6s1.3,0.2,1.7,0.6s0.6,0.9,0.7,1.5h-1.1
					c0-0.4-0.1-0.7-0.4-0.9c-0.2-0.2-0.5-0.3-1-0.3c-0.4,0-0.7,0.1-1,0.3c-0.2,0.2-0.3,0.4-0.3,0.7c0,0.3,0.1,0.5,0.4,0.7
					s0.6,0.3,1,0.4s0.8,0.2,1.1,0.3c0.4,0.1,0.7,0.3,1,0.6s0.4,0.7,0.4,1.2s-0.2,0.9-0.7,1.3c-0.5,0.3-1,0.5-1.8,0.5
					c-0.7,0-1.3-0.2-1.7-0.5s-0.7-0.9-0.7-1.5h1.1c0,0.4,0.1,0.7,0.4,0.9c0.2,0.2,0.6,0.3,1,0.3s0.8-0.1,1-0.3
					c0.2-0.2,0.4-0.4,0.4-0.7c0-0.3-0.1-0.5-0.3-0.7s-0.4-0.3-0.7-0.3s-0.6-0.1-0.9-0.2c-0.3-0.1-0.6-0.2-0.9-0.3
					c-0.3-0.1-0.5-0.3-0.7-0.5C567,335.3,566.9,335,566.9,334.6z"/>
			</g>
			<path class="st17" d="M585.5,177.1c-1.8,0.8-3.7,1.3-5.7,1.6c2.1-1.2,3.6-3.2,4.4-5.5c-1.9,1.1-4.1,2-6.3,2.4
				c-1.8-1.9-4.4-3.1-7.3-3.1c-5.5,0-9.9,4.5-9.9,9.9c0,0.8,0.1,1.5,0.3,2.3c-8.3-0.4-15.6-4.4-20.5-10.4c-0.9,1.5-1.3,3.2-1.3,5
				c0,3.5,1.8,6.5,4.4,8.3c-1.6-0.1-3.2-0.5-4.5-1.2v0.1c0,4.8,3.4,8.8,8,9.7c-0.8,0.2-1.7,0.4-2.6,0.4c-0.6,0-1.3-0.1-1.9-0.2
				c1.3,4,4.9,6.8,9.3,6.9c-3.4,2.7-7.7,4.3-12.4,4.3c-0.8,0-1.6,0-2.4-0.1c4.4,2.8,9.6,4.5,15.2,4.5c18.3,0,28.3-15.2,28.3-28.3
				c0-0.4,0-0.9,0-1.3C582.5,180.8,584.2,179.1,585.5,177.1L585.5,177.1z"/>
			<path class="st17" d="M215.1,180.1c-1.8,0.8-3.7,1.3-5.7,1.6c2.1-1.2,3.6-3.2,4.4-5.5c-1.9,1.1-4.1,2-6.3,2.4
				c-1.8-1.9-4.4-3.1-7.3-3.1c-5.5,0-9.9,4.5-9.9,9.9c0,0.8,0.1,1.5,0.3,2.3c-8.3-0.4-15.6-4.4-20.5-10.4c-0.9,1.5-1.3,3.2-1.3,5
				c0,3.5,1.8,6.5,4.4,8.3c-1.6-0.1-3.2-0.5-4.5-1.2v0.1c0,4.8,3.4,8.8,8,9.7c-0.8,0.2-1.7,0.4-2.6,0.4c-0.6,0-1.3-0.1-1.9-0.2
				c1.3,4,4.9,6.8,9.3,6.9c-3.4,2.7-7.7,4.3-12.4,4.3c-0.8,0-1.6,0-2.4-0.1c4.4,2.8,9.6,4.5,15.2,4.5c18.3,0,28.3-15.2,28.3-28.3
				c0-0.4,0-0.9,0-1.3C212.1,183.9,213.8,182.1,215.1,180.1L215.1,180.1z"/>
			<g>
				<polygon class="st17" points="561.9,304.9 554.2,304.9 549.5,289.7 557.2,289.7 				"/>
				<path class="st17" d="M554.8,290.8h-5c-3.1,0-5.6-2.5-5.6-5.6V282c0-3.1,2.5-5.6,5.6-5.6h5V290.8L554.8,290.8z"/>
				<path class="st17" d="M574.4,268.4l-6.3,4.4c-3.4,2.3-7.2,3.6-11.2,3.6h-2.2v14.4h2.2c3.9,0,7.8,1.2,11.2,3.6l6.3,4.4V268.4
					L574.4,268.4z"/>
				<path class="st17" d="M577.2,300.2h-0.6c-0.6,0-1.1-0.5-1.1-1.1v-30.9c0-0.6,0.5-1.1,1.1-1.1h0.6c0.6,0,1.1,0.5,1.1,1.1v30.9
					C578.3,299.7,577.8,300.2,577.2,300.2L577.2,300.2z"/>
				<path class="st17" d="M545.1,281.2c0.3,0,0.5,1.1,0.5,2.4s-0.2,2.4-0.5,2.4s-0.5-1.1-0.5-2.4
					C544.6,282.3,544.8,281.2,545.1,281.2L545.1,281.2z"/>
			</g>
			<g>
				<path class="st17" d="M441.2,274.1v-8.2h4.6v0.9h-3.5v2.8h2.8v0.9h-2.8v3.7L441.2,274.1L441.2,274.1z"/>
				<path class="st17" d="M447.4,273.3c-0.6-0.6-0.9-1.4-0.9-2.4s0.3-1.8,0.9-2.4s1.3-0.9,2.2-0.9c0.6,0,1,0.1,1.5,0.4
					s0.7,0.6,0.9,1v-1.3h1.1v6.5H452v-1.3c-0.2,0.4-0.5,0.8-0.9,1s-0.9,0.4-1.5,0.4C448.8,274.2,448,273.9,447.4,273.3z
					 M451.4,272.6c0.4-0.4,0.6-1,0.6-1.8s-0.2-1.3-0.6-1.8s-0.9-0.7-1.6-0.7s-1.1,0.2-1.6,0.6s-0.6,1-0.6,1.7s0.2,1.3,0.7,1.8
					s1,0.7,1.6,0.7S451,273.1,451.4,272.6z"/>
				<path class="st17" d="M455.4,273.3c-0.6-0.6-0.9-1.4-0.9-2.4s0.3-1.8,0.9-2.4s1.3-0.9,2.3-0.9c0.8,0,1.4,0.2,1.9,0.5
					c0.5,0.4,0.8,0.9,1,1.6h-1.2c-0.1-0.4-0.3-0.7-0.7-0.9c-0.3-0.2-0.7-0.3-1.1-0.3c-0.6,0-1.1,0.2-1.5,0.6s-0.6,1-0.6,1.8
					s0.2,1.4,0.6,1.8s0.9,0.6,1.5,0.6c0.9,0,1.5-0.4,1.8-1.2h1.2c-0.2,0.6-0.5,1.1-1,1.5s-1.1,0.6-1.9,0.6
					C456.7,274.2,455.9,273.9,455.4,273.3z"/>
				<path class="st17" d="M464.7,274.2c-0.9,0-1.7-0.3-2.3-0.9s-0.9-1.4-0.9-2.4s0.3-1.8,0.9-2.4s1.4-0.9,2.3-0.9s1.7,0.3,2.3,0.9
					c0.6,0.6,0.9,1.3,0.9,2.2c0,0.2,0,0.4,0,0.6h-5.2c0,0.6,0.2,1.2,0.6,1.5c0.4,0.4,0.9,0.6,1.4,0.6c0.4,0,0.8-0.1,1.1-0.3
					c0.3-0.2,0.5-0.5,0.7-0.8h1.2c-0.2,0.6-0.6,1-1.1,1.4C466.1,274,465.5,274.2,464.7,274.2z M466.2,269c-0.4-0.4-0.9-0.6-1.4-0.6
					c-0.6,0-1,0.2-1.4,0.6s-0.6,0.9-0.6,1.5h4.1C466.8,269.8,466.6,269.3,466.2,269z"/>
				<path class="st17" d="M472.7,267.5c0.9,0,1.6,0.3,2.2,0.9s0.9,1.4,0.9,2.4s-0.3,1.8-0.9,2.4s-1.3,1-2.2,1c-0.6,0-1-0.1-1.5-0.4
					s-0.7-0.6-1-1v1.3h-1.1v-8.8h1.1v3.6c0.2-0.4,0.5-0.8,1-1S472.2,267.5,472.7,267.5z M472.5,273.3c0.6,0,1.1-0.2,1.6-0.7
					s0.6-1.1,0.6-1.8c0-0.7-0.2-1.3-0.6-1.7s-0.9-0.6-1.6-0.6s-1.1,0.2-1.6,0.7s-0.6,1-0.6,1.8s0.2,1.3,0.6,1.8
					S471.9,273.3,472.5,273.3z"/>
				<path class="st17" d="M477.7,273.3c-0.6-0.6-0.9-1.4-0.9-2.4s0.3-1.8,0.9-2.4s1.4-0.9,2.3-0.9s1.7,0.3,2.3,0.9
					c0.6,0.6,0.9,1.4,0.9,2.4s-0.3,1.8-1,2.4s-1.4,0.9-2.4,0.9C479,274.2,478.3,273.9,477.7,273.3z M480,273.3
					c0.6,0,1.1-0.2,1.6-0.7c0.4-0.4,0.7-1,0.7-1.8s-0.2-1.4-0.6-1.8s-0.9-0.7-1.6-0.7s-1.1,0.2-1.5,0.7c-0.4,0.4-0.6,1-0.6,1.8
					s0.2,1.4,0.6,1.8C478.9,273.1,479.4,273.3,480,273.3z"/>
				<path class="st17" d="M485.2,273.3c-0.6-0.6-0.9-1.4-0.9-2.4s0.3-1.8,0.9-2.4s1.4-0.9,2.3-0.9s1.7,0.3,2.3,0.9
					c0.6,0.6,0.9,1.4,0.9,2.4s-0.3,1.8-1,2.4s-1.4,0.9-2.4,0.9C486.5,274.2,485.8,273.9,485.2,273.3z M487.5,273.3
					c0.6,0,1.1-0.2,1.6-0.7c0.4-0.4,0.7-1,0.7-1.8s-0.2-1.4-0.6-1.8s-0.9-0.7-1.6-0.7s-1.1,0.2-1.5,0.7c-0.4,0.4-0.6,1-0.6,1.8
					s0.2,1.4,0.6,1.8C486.4,273.1,486.9,273.3,487.5,273.3z"/>
				<path class="st17" d="M493.3,274.1h-1.1v-8.8h1.1v5.1l2.5-2.9h1.5l-3.1,3.2l3.1,3.3h-1.5l-2.5-2.9V274.1z"/>
				<path class="st17" d="M464.2,288.3l-0.6-1.8H460l-0.6,1.8h-1.1l3-8.2h1.2l3,8.2H464.2z M460.2,285.7h3l-1.5-4.2L460.2,285.7z"/>
				<path class="st17" d="M467.2,287.5c-0.6-0.6-0.9-1.4-0.9-2.4s0.3-1.8,0.9-2.4s1.3-0.9,2.2-0.9c0.6,0,1,0.1,1.5,0.4
					s0.7,0.6,0.9,1v-3.6h1.1v8.8h-1.1V287c-0.2,0.4-0.5,0.8-0.9,1s-0.9,0.4-1.5,0.4C468.5,288.5,467.8,288.1,467.2,287.5z
					 M471.1,286.9c0.4-0.4,0.6-1,0.6-1.8s-0.2-1.3-0.6-1.8s-0.9-0.7-1.6-0.7s-1.1,0.2-1.6,0.6s-0.6,1-0.6,1.7s0.2,1.3,0.7,1.8
					s1,0.7,1.6,0.7S470.7,287.3,471.1,286.9z"/>
				<path class="st17" d="M474.4,283.7c0-0.5,0.2-1,0.7-1.4s1-0.6,1.8-0.6s1.3,0.2,1.7,0.6c0.4,0.4,0.6,0.9,0.7,1.5h-1.1
					c0-0.4-0.1-0.7-0.4-0.9c-0.2-0.2-0.5-0.3-1-0.3c-0.4,0-0.7,0.1-1,0.3c-0.2,0.2-0.3,0.4-0.3,0.7c0,0.3,0.1,0.5,0.4,0.7
					s0.6,0.3,1,0.4s0.8,0.2,1.1,0.3c0.4,0.1,0.7,0.3,1,0.6s0.4,0.7,0.4,1.2s-0.2,0.9-0.7,1.3c-0.5,0.3-1,0.5-1.8,0.5
					c-0.7,0-1.3-0.2-1.7-0.5s-0.7-0.9-0.7-1.5h1.1c0,0.4,0.1,0.7,0.4,0.9c0.2,0.2,0.6,0.3,1,0.3s0.8-0.1,1-0.3
					c0.2-0.2,0.4-0.4,0.4-0.7c0-0.3-0.1-0.5-0.3-0.7s-0.4-0.3-0.7-0.3s-0.6-0.1-0.9-0.2s-0.6-0.2-0.9-0.3c-0.3-0.1-0.5-0.3-0.7-0.5
					C474.5,284.4,474.4,284,474.4,283.7z"/>
			</g>
			<g>
				<path class="st17" d="M358.9,324c1.3,0,2.4,0.4,3.1,1.1c0.8,0.7,1.1,1.8,1.1,3c0,1.3-0.4,2.3-1.1,3c-0.8,0.7-1.8,1.1-3.1,1.1
					h-2.6V324H358.9z M357.4,331.4h1.5c1,0,1.8-0.3,2.4-0.9c0.5-0.6,0.8-1.4,0.8-2.4s-0.3-1.8-0.8-2.4s-1.3-0.9-2.4-0.9h-1.5V331.4z
					"/>
				<path class="st17" d="M365.6,324.4c-0.1,0.1-0.3,0.2-0.5,0.2s-0.4-0.1-0.5-0.2s-0.2-0.3-0.2-0.5s0.1-0.4,0.2-0.5
					s0.3-0.2,0.5-0.2s0.4,0.1,0.5,0.2s0.2,0.3,0.2,0.5S365.8,324.3,365.6,324.4z M364.6,332.2v-6.5h1.1v6.5H364.6z"/>
				<path class="st17" d="M367.2,327.5c0-0.5,0.2-1,0.7-1.4s1-0.6,1.8-0.6c0.7,0,1.3,0.2,1.7,0.6s0.6,0.9,0.7,1.5H371
					c0-0.4-0.1-0.7-0.4-0.9c-0.2-0.2-0.5-0.3-1-0.3s-0.7,0.1-1,0.3s-0.3,0.4-0.3,0.7c0,0.3,0.1,0.5,0.4,0.7s0.6,0.3,1,0.4
					s0.8,0.2,1.1,0.3c0.4,0.1,0.7,0.3,1,0.6c0.3,0.3,0.4,0.7,0.4,1.2s-0.2,0.9-0.7,1.3s-1,0.5-1.8,0.5c-0.7,0-1.3-0.2-1.7-0.5
					s-0.7-0.9-0.7-1.5h1.1c0,0.4,0.1,0.7,0.4,0.9c0.2,0.2,0.6,0.3,1,0.3s0.8-0.1,1-0.3c0.2-0.2,0.4-0.4,0.4-0.7
					c0-0.3-0.1-0.5-0.3-0.7s-0.4-0.3-0.7-0.3c-0.3-0.1-0.6-0.1-0.9-0.2s-0.6-0.2-0.9-0.3c-0.3-0.1-0.5-0.3-0.7-0.5
					C367.3,328.2,367.2,327.9,367.2,327.5z"/>
				<path class="st17" d="M377.1,325.6c0.9,0,1.6,0.3,2.2,0.9s0.9,1.4,0.9,2.4s-0.3,1.8-0.9,2.4s-1.3,1-2.2,1c-0.6,0-1-0.1-1.5-0.4
					c-0.4-0.3-0.7-0.6-1-1v4.4h-1.1v-9.6h1.1v1.3c0.2-0.4,0.5-0.8,1-1C376.1,325.7,376.6,325.6,377.1,325.6z M376.9,331.4
					c0.6,0,1.1-0.2,1.6-0.7c0.4-0.5,0.6-1.1,0.6-1.8c0-0.7-0.2-1.3-0.6-1.7c-0.4-0.4-0.9-0.6-1.6-0.6c-0.6,0-1.1,0.2-1.6,0.7
					s-0.6,1-0.6,1.8s0.2,1.3,0.6,1.8S376.3,331.4,376.9,331.4z"/>
				<path class="st17" d="M381.6,332.2v-8.8h1.1v8.8H381.6z"/>
				<path class="st17" d="M384.9,331.3c-0.6-0.6-0.9-1.4-0.9-2.4s0.3-1.8,0.9-2.4s1.3-0.9,2.2-0.9c0.6,0,1,0.1,1.5,0.4
					s0.7,0.6,0.9,1v-1.3h1.1v6.5h-1.1v-1.3c-0.2,0.4-0.5,0.8-0.9,1s-0.9,0.4-1.5,0.4C386.2,332.3,385.5,332,384.9,331.3z
					 M388.9,330.7c0.4-0.4,0.6-1,0.6-1.8s-0.2-1.3-0.6-1.8s-0.9-0.7-1.6-0.7s-1.1,0.2-1.6,0.6s-0.6,1-0.6,1.7s0.2,1.3,0.7,1.8
					s1,0.7,1.6,0.7S388.4,331.2,388.9,330.7z"/>
				<path class="st17" d="M394.2,332.1l-2.6-6.4h1.2l2,5.3l2-5.3h1.1l-3.9,9.6h-1.1L394.2,332.1z"/>
			</g>
			<g>
				<path class="st17" d="M170.7,433.1l-0.6-1.8h-3.6l-0.6,1.8h-1.1l3-8.2h1.2l3,8.2H170.7z M166.7,430.4h3l-1.5-4.2L166.7,430.4z"
					/>
				<path class="st17" d="M174.3,426.6v1.1c0.4-0.8,1.1-1.2,2.1-1.2c0.7,0,1.3,0.2,1.8,0.7s0.7,1.2,0.7,2v3.9h-1.1v-3.7
					c0-0.7-0.2-1.2-0.5-1.5s-0.8-0.5-1.3-0.5c-0.6,0-1,0.2-1.3,0.5s-0.5,0.8-0.5,1.5v3.7h-1.1v-6.5H174.3z"/>
				<path class="st17" d="M181.1,432.2c-0.6-0.6-0.9-1.4-0.9-2.4s0.3-1.8,0.9-2.4c0.6-0.6,1.3-0.9,2.2-0.9c0.6,0,1,0.1,1.5,0.4
					c0.4,0.3,0.7,0.6,0.9,1v-1.3h1.1v6.5h-1.1v-1.3c-0.2,0.4-0.5,0.8-0.9,1c-0.4,0.3-0.9,0.4-1.5,0.4
					C182.5,433.2,181.7,432.9,181.1,432.2z M185.1,431.6c0.4-0.4,0.6-1,0.6-1.8s-0.2-1.3-0.6-1.8c-0.4-0.4-0.9-0.7-1.6-0.7
					c-0.6,0-1.1,0.2-1.6,0.6s-0.6,1-0.6,1.7s0.2,1.3,0.7,1.8s1,0.7,1.6,0.7C184.2,432.2,184.7,432,185.1,431.6z"/>
				<path class="st17" d="M188.6,433.1v-8.8h1.1v8.8H188.6z"/>
				<path class="st17" d="M193.3,433l-2.6-6.4h1.2l2,5.3l2-5.3h1.1l-3.9,9.6H192L193.3,433z"/>
				<path class="st17" d="M200.2,432.2h0.9v0.9H200c-1.1,0-1.7-0.6-1.7-1.7v-4h-0.8v-0.9h0.8v-1.6h1.1v1.6h1.7v0.9h-1.7v4
					c0,0.3,0.1,0.5,0.2,0.6S199.9,432.2,200.2,432.2z"/>
				<path class="st17" d="M203.4,425.3c-0.1,0.1-0.3,0.2-0.5,0.2s-0.4-0.1-0.5-0.2s-0.2-0.3-0.2-0.5s0.1-0.4,0.2-0.5
					s0.3-0.2,0.5-0.2s0.4,0.1,0.5,0.2s0.2,0.3,0.2,0.5S203.5,425.2,203.4,425.3z M202.3,433.1v-6.5h1.1v6.5H202.3z"/>
				<path class="st17" d="M205.6,432.2c-0.6-0.6-0.9-1.4-0.9-2.4s0.3-1.8,0.9-2.4c0.6-0.6,1.3-0.9,2.3-0.9c0.8,0,1.4,0.2,1.9,0.5
					c0.5,0.4,0.8,0.9,1,1.6h-1.2c-0.1-0.4-0.3-0.7-0.7-0.9c-0.3-0.2-0.7-0.3-1.1-0.3c-0.6,0-1.1,0.2-1.5,0.6s-0.6,1-0.6,1.8
					s0.2,1.4,0.6,1.8c0.4,0.4,0.9,0.6,1.5,0.6c0.9,0,1.5-0.4,1.8-1.2h1.2c-0.2,0.6-0.5,1.1-1,1.5s-1.1,0.6-1.9,0.6
					C206.9,433.2,206.2,432.9,205.6,432.2z"/>
				<path class="st17" d="M212,428.4c0-0.5,0.2-1,0.7-1.4s1-0.6,1.8-0.6c0.7,0,1.3,0.2,1.7,0.6s0.6,0.9,0.7,1.5h-1.1
					c0-0.4-0.1-0.7-0.4-0.9c-0.2-0.2-0.5-0.3-1-0.3s-0.7,0.1-1,0.3s-0.3,0.4-0.3,0.7c0,0.3,0.1,0.5,0.4,0.7s0.6,0.3,1,0.4
					s0.8,0.2,1.1,0.3c0.4,0.1,0.7,0.3,1,0.6c0.3,0.3,0.4,0.7,0.4,1.2s-0.2,0.9-0.7,1.3s-1,0.5-1.8,0.5c-0.7,0-1.3-0.2-1.7-0.5
					s-0.7-0.9-0.7-1.5h1.1c0,0.4,0.1,0.7,0.4,0.9c0.2,0.2,0.6,0.3,1,0.3s0.8-0.1,1-0.3c0.2-0.2,0.4-0.4,0.4-0.7
					c0-0.3-0.1-0.5-0.3-0.7s-0.4-0.3-0.7-0.3c-0.3-0.1-0.6-0.1-0.9-0.2c-0.3-0.1-0.6-0.2-0.9-0.3c-0.3-0.1-0.5-0.3-0.7-0.5
					C212.1,429.1,212,428.8,212,428.4z"/>
			</g>
			<g>
				<polygon class="st17" points="469.4,254 461.8,254 457.1,238.8 464.8,238.8 				"/>
				<path class="st17" d="M462.4,239.9h-5c-3.1,0-5.6-2.5-5.6-5.6V231c0-3.1,2.5-5.6,5.6-5.6h5V239.9L462.4,239.9z"/>
				<path class="st17" d="M482,217.5l-6.3,4.4c-3.4,2.3-7.2,3.6-11.2,3.6h-2.2v14.4h2.2c3.9,0,7.8,1.2,11.2,3.6l6.3,4.4V217.5
					L482,217.5z"/>
				<path class="st17" d="M484.7,249.2h-0.6c-0.6,0-1.1-0.5-1.1-1.1v-30.9c0-0.6,0.5-1.1,1.1-1.1h0.6c0.6,0,1.1,0.5,1.1,1.1v30.9
					C485.9,248.7,485.4,249.2,484.7,249.2L484.7,249.2z"/>
				<path class="st17" d="M452.7,230.2c0.3,0,0.5,1.1,0.5,2.4c0,1.3-0.2,2.4-0.5,2.4s-0.5-1.1-0.5-2.4S452.4,230.2,452.7,230.2
					L452.7,230.2z"/>
			</g>
			<g>
				<path class="st17" d="M386.1,309.7h8.6L383,274.1h-12.1l10.7,32.2C382.1,308.3,384,309.7,386.1,309.7L386.1,309.7z"/>
				<path class="st17" d="M367.5,309.7h-8.6l11.7-35.6h12.1L372,306.3C371.4,308.3,369.6,309.7,367.5,309.7L367.5,309.7z"/>
			</g>
			<g>
				<path class="st17" d="M264.8,272.8c0,0.3,0.1,0.5,0.2,0.7s0.4,0.3,0.6,0.4s0.6,0.2,0.9,0.2s0.6,0.2,1,0.2s0.6,0.2,0.9,0.3
					c0.3,0.1,0.5,0.4,0.6,0.6c0.2,0.3,0.2,0.6,0.2,1.1c0,0.6-0.2,1.2-0.7,1.7s-1.2,0.7-2,0.7s-1.5-0.2-2-0.6s-0.8-0.9-0.8-1.6h1.1
					c0,0.4,0.2,0.7,0.4,0.9s0.7,0.3,1.2,0.3s0.9-0.1,1.2-0.4s0.5-0.6,0.5-0.9s-0.1-0.6-0.2-0.8c-0.2-0.2-0.4-0.3-0.6-0.4
					s-0.6-0.2-0.9-0.2c-0.3-0.1-0.6-0.1-1-0.2s-0.6-0.2-0.9-0.4c-0.3-0.1-0.5-0.4-0.6-0.7c-0.2-0.3-0.2-0.6-0.2-1.1
					c0-0.7,0.2-1.3,0.7-1.7s1.1-0.6,1.9-0.6s1.4,0.2,1.9,0.6s0.7,0.9,0.8,1.5h-1.2c0-0.3-0.2-0.6-0.5-0.8s-0.6-0.3-1.1-0.3
					s-0.8,0.1-1.1,0.3C265,272.1,264.8,272.4,264.8,272.8z"/>
				<path class="st17" d="M273.6,279c-0.9,0-1.7-0.3-2.3-0.9c-0.6-0.6-0.9-1.4-0.9-2.4s0.3-1.8,0.9-2.4s1.4-0.9,2.3-0.9
					s1.7,0.3,2.3,0.9c0.6,0.6,0.9,1.3,0.9,2.2c0,0.2,0,0.4,0,0.6h-5.2c0,0.6,0.2,1.2,0.6,1.5c0.4,0.4,0.9,0.6,1.4,0.6
					c0.4,0,0.8-0.1,1.1-0.3c0.3-0.2,0.5-0.5,0.7-0.8h1.2c-0.2,0.6-0.6,1-1.1,1.4C275,278.8,274.4,279,273.6,279z M275.1,273.7
					c-0.4-0.4-0.9-0.6-1.4-0.6c-0.6,0-1,0.2-1.4,0.6s-0.6,0.9-0.6,1.5h4.1C275.7,274.6,275.5,274.1,275.1,273.7z"/>
				<path class="st17" d="M278.6,278c-0.6-0.6-0.9-1.4-0.9-2.4s0.3-1.8,0.9-2.4s1.3-0.9,2.2-0.9c0.6,0,1,0.1,1.5,0.4
					c0.4,0.3,0.7,0.6,0.9,1v-1.3h1.1v6.5h-1.1v-1.3c-0.2,0.4-0.5,0.8-0.9,1c-0.4,0.3-0.9,0.4-1.5,0.4
					C279.9,279,279.2,278.7,278.6,278z M282.6,277.4c0.4-0.4,0.6-1,0.6-1.8s-0.2-1.3-0.6-1.8c-0.4-0.4-0.9-0.7-1.6-0.7
					c-0.6,0-1.1,0.2-1.6,0.6s-0.6,1-0.6,1.7s0.2,1.3,0.7,1.8s1,0.7,1.6,0.7C281.6,278,282.1,277.8,282.6,277.4z"/>
				<path class="st17" d="M287.2,272.4v1.1c0.4-0.8,1-1.2,2-1.2v1.1h-0.3c-0.6,0-1,0.1-1.3,0.4s-0.4,0.8-0.4,1.5v3.6h-1.1v-6.5
					H287.2z"/>
				<path class="st17" d="M290.9,278c-0.6-0.6-0.9-1.4-0.9-2.4s0.3-1.8,0.9-2.4s1.3-0.9,2.3-0.9c0.8,0,1.4,0.2,1.9,0.5
					c0.5,0.4,0.8,0.9,1,1.6H295c-0.1-0.4-0.3-0.7-0.7-0.9c-0.3-0.2-0.7-0.3-1.1-0.3c-0.6,0-1.1,0.2-1.5,0.6s-0.6,1-0.6,1.8
					s0.2,1.4,0.6,1.8s0.9,0.6,1.5,0.6c0.9,0,1.5-0.4,1.8-1.2h1.2c-0.2,0.6-0.5,1.1-1,1.5s-1.1,0.6-1.9,0.6
					C292.2,279,291.5,278.7,290.9,278z"/>
				<path class="st17" d="M298.6,270.1v3.3c0.4-0.8,1.1-1.2,2.1-1.2c0.7,0,1.3,0.2,1.8,0.7s0.7,1.2,0.7,2v3.9h-1.1v-3.7
					c0-0.7-0.2-1.2-0.5-1.5s-0.8-0.5-1.3-0.5c-0.6,0-1,0.2-1.3,0.5s-0.5,0.8-0.5,1.5v3.7h-1.1V270h1.2V270.1z"/>
			</g>
			<g>
				<path class="st17" d="M294,258.5h9.6l-13.2-39.8h-13.5l11.9,36.1C289.6,257,291.6,258.5,294,258.5L294,258.5z"/>
				<path class="st17" d="M273.2,258.5h-9.6l13.2-39.8h13.5l-11.9,36.1C277.6,257,275.5,258.5,273.2,258.5L273.2,258.5z"/>
			</g>
			<g>
				<path class="st17" d="M355.3,224.4h-1.1v-3.1l-2.7-5.1h1.2l2,4.1l2-4.1h1.2l-2.7,5.1v3.1H355.3z"/>
				<path class="st17" d="M359.5,223.5c-0.6-0.6-0.9-1.4-0.9-2.4s0.3-1.8,0.9-2.4c0.6-0.6,1.4-0.9,2.3-0.9s1.7,0.3,2.3,0.9
					c0.6,0.6,0.9,1.4,0.9,2.4s-0.3,1.8-1,2.4c-0.7,0.6-1.4,0.9-2.4,0.9S360.1,224.2,359.5,223.5z M361.8,223.6
					c0.6,0,1.1-0.2,1.6-0.7s0.7-1,0.7-1.8s-0.2-1.4-0.6-1.8c-0.4-0.4-0.9-0.7-1.6-0.7s-1.1,0.2-1.5,0.7c-0.4,0.4-0.6,1-0.6,1.8
					s0.2,1.4,0.6,1.8S361.2,223.6,361.8,223.6z"/>
				<path class="st17" d="M371.1,217.8h1.1v6.5h-1.1v-1c-0.4,0.8-1.1,1.1-2.1,1.1c-0.7,0-1.3-0.2-1.8-0.7s-0.7-1.2-0.7-2v-3.9h1.1
					v3.7c0,0.6,0.2,1.1,0.5,1.5s0.8,0.5,1.3,0.5c0.6,0,1-0.2,1.3-0.5s0.5-0.8,0.5-1.5L371.1,217.8L371.1,217.8z"/>
				<path class="st17" d="M373.6,217v-0.9h5.4v0.9h-2.2v7.3h-1.1V217H373.6z"/>
				<path class="st17" d="M385,217.8h1.1v6.5H385v-1c-0.4,0.8-1.1,1.1-2.1,1.1c-0.7,0-1.3-0.2-1.8-0.7s-0.7-1.2-0.7-2v-3.9h1.1v3.7
					c0,0.6,0.2,1.1,0.5,1.5s0.8,0.5,1.3,0.5s1-0.2,1.3-0.5s0.5-0.8,0.5-1.5L385,217.8L385,217.8z"/>
				<path class="st17" d="M391.4,217.7c0.9,0,1.6,0.3,2.2,0.9s0.9,1.4,0.9,2.4s-0.3,1.8-0.9,2.4c-0.6,0.6-1.3,1-2.2,1
					c-0.6,0-1-0.1-1.5-0.4s-0.7-0.6-1-1v1.3h-1.1v-8.8h1.1v3.6c0.2-0.4,0.5-0.8,1-1S390.8,217.7,391.4,217.7z M391.2,223.5
					c0.6,0,1.1-0.2,1.6-0.7s0.6-1.1,0.6-1.8s-0.2-1.3-0.6-1.7s-0.9-0.6-1.6-0.6s-1.1,0.2-1.6,0.7s-0.6,1-0.6,1.8s0.2,1.3,0.6,1.8
					S390.5,223.5,391.2,223.5z"/>
				<path class="st17" d="M398.5,224.5c-0.9,0-1.7-0.3-2.3-0.9s-0.9-1.4-0.9-2.4s0.3-1.8,0.9-2.4c0.6-0.6,1.4-0.9,2.3-0.9
					s1.7,0.3,2.3,0.9c0.6,0.6,0.9,1.3,0.9,2.2c0,0.2,0,0.4,0,0.6h-5.2c0,0.6,0.2,1.2,0.6,1.5c0.4,0.4,0.9,0.6,1.4,0.6
					c0.4,0,0.8-0.1,1.1-0.3c0.3-0.2,0.5-0.5,0.7-0.8h1.2c-0.2,0.6-0.6,1-1.1,1.4C399.9,224.3,399.3,224.5,398.5,224.5z M400,219.2
					c-0.4-0.4-0.9-0.6-1.4-0.6c-0.6,0-1,0.2-1.4,0.6s-0.6,0.9-0.6,1.5h4.1C400.6,220.1,400.4,219.6,400,219.2z"/>
			</g>
			<g>
				<path class="st17" d="M386.1,201.8h8.6L383,166.2h-12.1l10.7,32.2C382.1,200.5,384,201.8,386.1,201.8L386.1,201.8z"/>
				<path class="st17" d="M367.5,201.8h-8.6l11.7-35.6h12.1L372,198.4C371.4,200.5,369.6,201.8,367.5,201.8L367.5,201.8z"/>
			</g>
			<path class="st17" d="M273.3,135.7h4.4v-4.3c0-1.9,0-4.8,1.4-6.6c1.4-1.9,3.4-3.2,6.8-3.2c5.6,0,7.9,0.8,7.9,0.8l-1.1,6.5
				c0,0-1.8-0.5-3.5-0.5s-3.2,0.6-3.2,2.3v5h7l-0.5,6.3H286v22h-8.3v-22h-4.4L273.3,135.7L273.3,135.7z"/>
			<path class="st17" d="M183.9,303.2c0-3.9,3.1-7,7-7s7,3.1,7,7s-3.1,7-7,7S183.9,307.1,183.9,303.2 M180.1,303.2
				c0,6,4.8,10.8,10.8,10.8s10.8-4.8,10.8-10.8s-4.8-10.8-10.8-10.8C184.9,292.4,180.1,297.3,180.1,303.2 M199.6,292
				c0,1.4,1.1,2.5,2.5,2.5s2.5-1.1,2.5-2.5s-1.1-2.5-2.5-2.5C200.7,289.5,199.6,290.6,199.6,292 M182.4,320.4
				c-2-0.1-3.2-0.4-3.9-0.7c-1-0.4-1.7-0.8-2.4-1.6c-0.7-0.7-1.2-1.4-1.6-2.4c-0.3-0.7-0.6-1.9-0.7-3.9c-0.1-2.2-0.1-2.9-0.1-8.5
				s0-6.3,0.1-8.5c0.1-2.1,0.4-3.2,0.7-3.9c0.4-1,0.8-1.7,1.6-2.4c0.7-0.7,1.4-1.2,2.4-1.6c0.7-0.3,1.9-0.6,3.9-0.7
				c2.2-0.1,2.9-0.1,8.5-0.1s6.3,0,8.5,0.1c2,0.1,3.2,0.4,3.9,0.7c1,0.4,1.7,0.8,2.4,1.6c0.7,0.7,1.2,1.4,1.6,2.4
				c0.3,0.7,0.6,1.9,0.7,3.9c0.1,2.2,0.1,2.9,0.1,8.5s0,6.3-0.1,8.5c-0.1,2-0.4,3.2-0.7,3.9c-0.4,1-0.8,1.7-1.6,2.4
				c-0.7,0.7-1.4,1.2-2.4,1.6c-0.7,0.3-1.9,0.6-3.9,0.7c-2.2,0.1-2.9,0.1-8.5,0.1C185.3,320.5,184.6,320.5,182.4,320.4 M182.2,282.3
				c-2.2,0.1-3.8,0.5-5.1,1c-1.4,0.5-2.6,1.3-3.7,2.4c-1.2,1.2-1.9,2.3-2.4,3.7c-0.5,1.3-0.9,2.9-1,5.1s-0.1,3-0.1,8.7
				s0,6.4,0.1,8.7c0.1,2.2,0.5,3.8,1,5.1c0.5,1.4,1.3,2.6,2.4,3.7c1.2,1.2,2.3,1.9,3.7,2.4c1.3,0.5,2.9,0.9,5.1,1
				c2.2,0.1,3,0.1,8.7,0.1s6.4,0,8.7-0.1c2.2-0.1,3.8-0.5,5.1-1c1.4-0.5,2.6-1.3,3.7-2.4c1.2-1.2,1.9-2.3,2.4-3.7
				c0.5-1.3,0.9-2.9,1-5.1s0.1-3,0.1-8.7s0-6.4-0.1-8.7c-0.1-2.2-0.5-3.8-1-5.1c-0.5-1.4-1.3-2.6-2.4-3.7c-1.2-1.2-2.3-1.9-3.7-2.4
				c-1.3-0.5-2.9-0.9-5.1-1c-2.2-0.1-3-0.1-8.7-0.1C185.2,282.2,184.5,282.2,182.2,282.3"/>
			<g>
				<path class="st17" d="M206.2,378.4h-6.6c-1.6,0-2.9,1.3-2.9,2.9v33.5h9.5c1.6,0,2.9-1.3,2.9-2.9v-30.6
					C209.1,379.8,207.8,378.4,206.2,378.4z"/>
				<path class="st18" d="M184.2,392.8v9.6h-8.6c-1.6,0-2.9,1.3-2.9,2.9v6.7c0,1.6,1.3,2.9,2.9,2.9h21.1V390H187
					C185.5,389.9,184.2,391.2,184.2,392.8z"/>
			</g>
			<path class="st17" d="M304.3,453.4c-0.5-1.9-2-3.3-3.8-3.8c-3.4-0.9-16.9-0.9-16.9-0.9s-13.6,0-16.9,0.9c-1.9,0.5-3.3,2-3.8,3.8
				c-0.9,3.4-0.9,10.4-0.9,10.4s0,7.1,0.9,10.4c0.5,1.9,2,3.3,3.8,3.8c3.4,0.9,16.9,0.9,16.9,0.9s13.6,0,16.9-0.9
				c1.9-0.5,3.3-2,3.8-3.8c0.9-3.4,0.9-10.4,0.9-10.4S305.3,456.7,304.3,453.4z M279.2,470.3v-13l11.3,6.5L279.2,470.3z"/>
			<g>
				<path class="st17" d="M217.4,524.6c-0.4-0.8-1.1-1.4-2-1.6c-0.3-1.4-0.7-2.1-0.8-2.2c0.2-0.2,0.3-0.4,0.4-0.4
					c1.3-1.6,0.5-4-1.8-4.5c-1.3-1.2-2.4-1.8-3.3-2.2c-0.9-0.4-0.5-0.3-1.4-0.6c-0.2-1.1-0.3-3.6-0.6-5.4c-0.3-1.6-1-2.8-1.9-3.5
					c-0.4-0.9-0.9-1.7-1.6-2.3c3.1-4.7,3.9-9.4,1.6-11.9c-1-1.1-2.5-1.6-4.3-1.6c-2.5,0-5.6,1-8.8,2.9c0,0-2-1.6-2.1-1.7
					c-8.7-6.9-33.5,23.5-24.7,30.2l2.3,1.7c-1.4,3.9,0.6,8.6,4.7,10.1c0.9,0.3,1.9,0.5,2.9,0.4c0,0,6.6,12.1,20.6,12.1
					c16.2,0,20.3-15.8,20.3-15.9C216.7,528.1,218.1,526.2,217.4,524.6z M166.7,517.6c-1.8-3,1.3-9.1,3.5-12.6
					c5.4-8.6,14.4-15.4,18.5-14.5l1.1-0.4l3.1,2.6c2.1-1.3,4.8-2.6,7.3-2.8c-1.5,0.3-3.4,1.1-5.6,2.5c-0.1,0-5.2,3.5-8.4,6.7
					c-1.7,1.7-8.7,10-8.7,10c1.3-2.4,2.1-3.6,4.1-6.1c1.1-1.4,2.3-2.8,3.6-4.1c0.6-0.6,1.2-1.2,1.7-1.7c0.4-0.4,0.8-0.7,1.2-1.1
					c0.2-0.2,0.4-0.3,0.6-0.5l0,0l-4.1-3.4l0.2,1.5l3,2.6c0,0-2.6,1.8-3.9,2.9c-5.2,4.4-10.3,11.3-12.2,17.9h0.1
					c-0.9,0.5-1.9,1.4-2.7,2.5C169.1,519.7,167,518.1,166.7,517.6z M175.3,530.1c-3.1,0-5.7-2.7-5.7-6s2.5-6,5.7-6
					c0.8,0,1.6,0.2,2.3,0.5c0,0,1.2,0.6,1.5,3.5l0,0l0,0c0.4-0.9,0.5-1.6,0.5-1.6c0.4,1.2,0.6,2.5,0.5,3.8l0,0l0,0
					c0.3-0.4,0.7-1.3,0.7-1.3C181.5,526.8,178.8,530.1,175.3,530.1z M182.3,509.1L182.3,509.1c0,0,2.4-4.6,7.8-7.7
					c-0.4-0.1-1.4,0.1-1.5,0.1c1-0.8,2.8-1.4,4-1.6c-0.4-0.2-1.2-0.3-1.7-0.3c-0.1,0-0.1,0-0.3,0c1.2-0.7,3.3-1,5.3-0.7
					c-0.2-0.3-0.8-0.6-1.2-0.7h-0.2h0.1c1.2-0.2,2.6,0,3.7,0.5c-0.1-0.3-0.4-0.6-0.7-0.8l-0.2-0.1c1.2,0.2,2.3,0.7,3.1,1.3
					c-0.1-0.2-0.4-0.6-0.6-0.8c1.1,0.3,2.3,1.1,2.9,2.2l0,0c0,0,0,0.1,0.1,0.1l0,0c-2.1-1.6-8.2-1.1-14.2,2.8
					C185.9,505.1,183.9,507,182.3,509.1z M215.1,527.4c-0.1,0.1-0.8,4.3-5.2,7.7c-5.5,4.3-12.8,3.9-15.6,1.5
					c-1.5-1.4-2.1-3.3-2.1-3.3s-0.2,1.1-0.2,1.5c-1.1-1.9-1-4.2-1-4.2s-0.6,1.1-0.9,1.7c-0.8-2.1-0.4-4.2-0.4-4.2l-0.6,1
					c0,0-0.3-2.3,0.4-4.3c0.8-2.1,2.3-3.6,2.6-3.8c-1.2-0.4-2.5-1.4-2.5-1.4s0.5,0,0.9,0c0,0-2.4-1.7-2.8-4.3
					c0.3,0.4,1.1,0.9,1.1,0.9c-0.2-0.7-0.4-2.2-0.2-3.7l0,0c0.4-2.8,2.8-4.7,5.4-4.6c2.8,0,4.7,0.6,7.1-1.6c0.5-0.5,0.9-0.9,1.6-1
					c0.1,0,0.3-0.1,0.6-0.1c0.4,0,0.7,0.1,1.1,0.3c1.3,0.8,1.6,2.7,1.7,4.2c0.5,5.4,0.3,4.4,2.5,5.5c1,0.5,2.2,1,3.5,2.5l0,0l0,0
					c1.1,0,1.7,0.9,1.2,1.6c-3.8,4.5-9,6.7-14.9,6.8c-0.2,0-0.8,0-0.8,0c-2.4,0.1-3.1,3.1-1.7,5c0.9,1.2,2.7,1.5,4.2,1.6l0,0
					c6.4,0.1,12.9-4.4,14-6.9l0.1-0.2c-0.3,0.3-6.5,6.2-14.1,6c0,0-0.8,0-1.6-0.2c-1-0.2-1.8-0.7-2.1-1.7c0.6,0.1,1.4,0.2,2.4,0.2
					c5.5,0,9.4-2.5,9-2.5c0,0,0,0-0.1,0c-0.6,0.1-7.2,2.7-11.4,1.4c0-0.1,0-0.3,0.1-0.4c0.4-1.2,1-1.1,2.1-1.1l0,0
					c3.8-0.1,6.9-1.1,9.2-2.2c2.5-1.2,4.3-2.7,5-3.4c0.9,1.5,0.9,3.4,0.9,3.4s0.3-0.1,0.8-0.1C215.9,524.8,216.2,526.1,215.1,527.4z
					 M196.5,529.1L196.5,529.1L196.5,529.1z M196.5,529L196.5,529c0-0.1,0-0.2,0-0.3C196.5,528.8,196.5,528.9,196.5,529L196.5,529z
					 M196.5,529.2L196.5,529.2L196.5,529.2z M196.5,529.2c0,0.2,0.1,0.3,0.1,0.3S196.5,529.4,196.5,529.2z"/>
				<polygon class="st17" points="188.6,492.5 189.3,492.8 188.7,490.6 188.4,491.7 				"/>
				<path class="st17" d="M192,493.3l-1.2-1l0.5,1.6C191.4,493.7,191.7,493.5,192,493.3z"/>
				<path class="st17" d="M196.5,529L196.5,529L196.5,529z"/>
				<path class="st17" d="M196.5,528.7c0,0.1,0,0.2,0,0.3C196.5,528.9,196.5,528.8,196.5,528.7z"/>
				<path class="st17" d="M196.5,529C196.5,529.1,196.5,529.1,196.5,529"/>
				<line class="st19" x1="196.5" y1="529.2" x2="196.5" y2="529.2"/>
				<path class="st17" d="M196.6,529.5c0,0,0-0.1-0.1-0.3C196.5,529.4,196.6,529.5,196.6,529.5z"/>
				<path class="st17" d="M203.3,513.4c0.6-0.1,1.3,0.1,1.8,0.3c0-1.5-0.9-3.3-1.6-3l0,0l0,0l0,0c-0.4,0.1-0.5,0.8-0.5,1.2
					C203,512.4,203.1,512.9,203.3,513.4z"/>
				<path class="st17" d="M190.7,494.2l-2.6-0.8l1.7,1.4C190.1,494.7,190.3,494.4,190.7,494.2z"/>
				<path class="st17" d="M197.2,515.6c0.5,0.2,0.8,0.3,0.9,0.2c0-0.1,0-0.2-0.1-0.4c-0.3-0.5-0.9-0.9-1.4-1
					c-1.2-0.5-2.6-0.2-3.7,0.6c-0.5,0.4-0.7,0.9-0.5,0.9c0.1,0,0.4-0.1,0.9-0.3C194.9,515,195.9,515.1,197.2,515.6z"/>
				<path class="st17" d="M197.4,517.1c0.3,0,0.5,0,0.6,0c0.1-0.2-0.7-0.8-1.9-0.6c-0.1,0-0.3,0.1-0.4,0.1h-0.1
					c-0.3,0.1-0.5,0.2-0.8,0.5s-0.3,0.5-0.3,0.6c0.1,0.1,0.3,0,0.6-0.1C196,517.1,196.7,517.1,197.4,517.1z"/>
				<path class="st17" d="M171.8,524.5L171.8,524.5L171.8,524.5z"/>
				<path class="st17" d="M177.3,522.1c0.3,0.4,0.2,0.7,0.3,0.8c0,0,0.1,0.1,0.2,0c0.2-0.1,0.3-0.3,0.3-0.5l0,0l0,0l0,0
					c0-0.4-0.2-1-0.5-1.3l0,0l0,0l0,0c-0.4-0.5-1.1-0.8-1.8-1c-0.7-0.1-1.3,0-1.5,0.1l0,0c-0.1,0-0.2,0.1-0.3,0.1
					c-1.8,0.7-2.6,2.4-2.2,4.2c0.1,0.4,0.3,0.9,0.6,1.2l0,0l0,0l0,0c0.4,0.4,0.8,0.3,0.6,0c0-0.1-0.3-0.5-0.3-1.3s0.2-1.6,0.6-2.2
					c0.4-0.5,0.8-0.7,0.9-0.7l0,0c0.1,0,0.1-0.1,0.2-0.1h0.1c0.2-0.1,0.1,0,0.3-0.1l0,0C176,521,176.9,521.6,177.3,522.1z"/>
				<path class="st17" d="M176.8,523.4c-0.1-0.1-0.2-0.2-0.2-0.3c0-0.2,0-0.4,0.2-0.5c0.1-0.1,0.3-0.2,0.3-0.2
					c0-0.1-0.5-0.2-0.8,0.1s-0.4,1,0.1,1.5c0.5,0.6,1.3,0.7,1.4,1.4c0,0.1,0,0.2,0,0.3s0,0.3,0,0.3c-0.2,0.7-0.8,1.3-1.9,1.2
					c-0.2,0-0.3-0.1-0.4,0c-0.1,0.1,0.4,0.6,1.2,0.6c1.2,0,2.2-1.2,1.9-2.6C178.4,524,177.2,523.8,176.8,523.4z"/>
				<path class="st17" d="M204.4,515.7c-0.1,0.4,0.1,0.8,0.5,0.9s0.6-0.3,0.7-0.7c0.1-0.4-0.1-0.8-0.5-0.9S204.5,515.3,204.4,515.7z
					"/>
				<path class="st17" d="M202.1,517.3c0.4,0.2,0.9,0.2,1.1-0.1s0-0.8-0.5-1c-0.4-0.2-0.9-0.2-1.1,0.1S201.6,517.1,202.1,517.3z"/>
				<polygon class="st17" points="210.3,540.1 210.5,540.1 210.5,540.7 210.8,540.7 210.8,540.1 211,540.1 211,539.9 210.3,539.9 
									"/>
				<polygon class="st17" points="211.6,540.4 211.5,539.9 211.1,539.9 211.1,540.7 211.3,540.7 211.3,540.1 211.5,540.7 
					211.7,540.7 211.9,540.1 211.9,540.7 212.1,540.7 212.1,539.9 211.8,539.9 				"/>
			</g>
			<path class="st17" d="M115.2,460h-3.3v-3.7c0-11-16.1-15.7-20.8-1.7c-4.5-2.7-9.3,0-8.9,5.4c-11.7,0-9.6,13.4-1.5,13.4h34.2
				c8.9,0,8.9-13.4,0-13.4 M93.2,465.6l-0.5-1.1h-2.9l-0.5,1.1h-1.9l2.9-7.8h2.1l2.9,7.8H93.2z M103.1,461.7
				c-0.2,0.4-0.4,0.6-0.7,0.9c-0.3,0.2-0.6,0.4-1,0.4c-0.4,0.1-0.8,0.1-1.2,0.1c-0.1,0-0.2,0-0.4,0c-0.2,0-0.4,0-0.6,0.2h-0.5
				c-0.1-0.2-0.2-0.2-0.2-0.2v3.6h-2.2V458c0.4-0.1,0.7-0.2,1-0.2c0.3-0.1,0.7-0.1,1.1-0.2c0.4,0,0.9-0.1,1.4-0.1
				c0.6,0,1.1,0.1,1.5,0.2s0.8,0.3,1.1,0.6c0.3,0.2,0.6,0.5,0.7,0.9c0.2,0.3,0.2,0.7,0.2,1.2S103.3,461.4,103.1,461.7 M106.2,466.7
				H104v-8.9h2.2V466.7z"/>
			<g class="st20">
				<path class="st21" d="M770.1,139.9c3.3,0,7.3-2.3,9-5.2l22.5-39c1.6-2.9,1.6-7.5,0-10.4l-22.5-39c-1.6-2.9-5.7-5.2-9-5.2h-45
					c-3.3,0-7.3,2.3-9,5.2l-22.5,39c-1.6,2.9-1.6,7.5,0,10.4l22.5,39c1.7,2.9,5.7,5.2,9,5.2H770.1z"/>
			</g>
			<g class="st22">
				<path class="st21" d="M676.6,85.3c3.3,0,7.4-2.3,9-5.2l22.5-39c1.6-2.9,1.7-7.5,0-10.4l-22.5-39c-1.7-2.9-5.7-5.2-9-5.2h-45
					c-3.3,0-7.3,2.3-9,5.2l-22.5,39c-1.7,2.9-1.7,7.5,0,10.4l22.5,39c1.7,2.9,5.7,5.2,9,5.2H676.6z"/>
			</g>
			<g class="st23">
				<path class="st21" d="M959.5,139.9c3.3,0,7.3-2.3,9-5.2l22.5-39c1.7-2.9,1.7-7.5,0-10.4l-22.5-39c-1.6-2.9-5.7-5.2-9-5.2h-45
					c-3.3,0-7.4,2.3-9,5.2l-22.5,39c-1.7,2.9-1.6,7.5,0,10.4l22.5,39c1.7,2.9,5.7,5.2,9,5.2H959.5z"/>
			</g>
			<g class="st24">
				<path class="st21" d="M863.7,192.2c3.3,0,7.3-2.3,9-5.2l22.5-39c1.6-2.9,1.6-7.5,0-10.4l-22.5-39c-1.6-2.9-5.7-5.2-9-5.2h-45
					c-3.3,0-7.3,2.3-9,5.2l-22.5,39c-1.6,2.9-1.6,7.5,0,10.4l22.5,39c1.7,2.9,5.7,5.2,9,5.2H863.7z"/>
			</g>
			<g class="st25">
				<path class="st21" d="M770.1,246.8c3.3,0,7.3-2.3,9-5.2l22.5-39c1.6-2.9,1.6-7.5,0-10.4l-22.5-39c-1.6-2.9-5.7-5.2-9-5.2h-45
					c-3.3,0-7.3,2.3-9,5.2l-22.5,39c-1.6,2.9-1.6,7.5,0,10.4l22.5,39c1.7,2.9,5.7,5.2,9,5.2H770.1z"/>
			</g>
			<g class="st20">
				<path class="st26" d="M26,564.3c3.3,0,7.3-2.3,9-5.2l22.5-39c1.6-2.9,1.7-7.5,0-10.4l-22.5-39c-1.6-2.9-5.7-5.2-9-5.2h-45
					c-3.3,0-7.4,2.3-9,5.2l-22.5,39c-1.7,2.9-1.6,7.5,0,10.4l22.5,39c1.7,2.9,5.7,5.2,9,5.2H26z"/>
			</g>
			<g class="st24">
				<path class="st26" d="M-69.8,618.9c3.3,0,7.3-2.3,9-5.2l22.5-39c1.6-2.9,1.7-7.5,0-10.4l-22.5-39c-1.6-2.9-5.7-5.2-9-5.2h-45
					c-3.3,0-7.3,2.3-9,5.2l-22.5,39c-1.6,2.9-1.6,7.5,0,10.4l22.5,39c1.7,2.9,5.7,5.2,9,5.2H-69.8z"/>
			</g>
			<g class="st25">
				<path class="st26" d="M-69.8,509.7c3.3,0,7.3-2.3,9-5.2l22.5-39c1.6-2.9,1.7-7.5,0-10.4l-22.5-39c-1.6-2.9-5.7-5.2-9-5.2h-45
					c-3.3,0-7.3,2.3-9,5.2l-22.5,39c-1.6,2.9-1.6,7.5,0,10.4l22.5,39c1.7,2.9,5.7,5.2,9,5.2H-69.8z"/>
			</g>
			<g class="st22">
				<path class="st26" d="M-164.5,455.1c3.3,0,7.3-2.3,9-5.2l22.5-39c1.6-2.9,1.6-7.5,0-10.4l-22.5-39c-1.6-2.9-5.7-5.2-9-5.2h-45
					c-3.3,0-7.3,2.3-9,5.2l-22.5,39c-1.6,2.9-1.6,7.5,0,10.4l22.5,39c1.7,2.9,5.7,5.2,9,5.2H-164.5z"/>
			</g>
			<g class="st23">
				<path class="st26" d="M-164.5,564.3c3.3,0,7.3-2.3,9-5.2l22.5-39c1.6-2.9,1.6-7.5,0-10.4l-22.5-39c-1.6-2.9-5.7-5.2-9-5.2h-45
					c-3.3,0-7.3,2.3-9,5.2l-22.5,39c-1.6,2.9-1.6,7.5,0,10.4l22.5,39c1.7,2.9,5.7,5.2,9,5.2H-164.5z"/>
			</g>
			<g>
				<path class="st18" d="M638.9,152.3c-2.7-2.3-4.4-5.8-4.4-9.6c0-7,5.7-12.7,12.7-12.7s12.7,5.7,12.7,12.7c0,4.7-2.6,8.8-6.4,11
					c1.9,1.1,4,1.7,6.4,1.7c2.5,0,4.9-0.7,6.8-2c1.6-3.1,2.5-6.5,2.5-10.2c0-12.4-10.1-22.5-22.5-22.5c-12.4,0-22.5,10.1-22.5,22.5
					s10.1,22.5,22.5,22.5c2.2,0,4.3-0.3,6.4-0.9C646.8,162.9,641.6,158.3,638.9,152.3z"/>
				<path class="st17" d="M668.4,134.1c2.7,2.3,4.4,5.8,4.4,9.6c0,7-5.7,12.7-12.7,12.7s-12.7-5.7-12.7-12.7c0-4.7,2.6-8.8,6.4-11
					c-1.9-1.1-4-1.7-6.4-1.7c-2.5,0-4.9,0.7-6.8,2c-1.6,3.1-2.5,6.5-2.5,10.2c0,12.4,10.1,22.5,22.5,22.5
					c12.4,0,22.5-10.1,22.5-22.5s-10.1-22.5-22.5-22.5c-2.2,0-4.3,0.3-6.4,0.9C660.5,123.5,665.7,128.1,668.4,134.1z"/>
			</g>
			<g>
				<path class="st17" d="M107.1,558.8h8.6c0.4,0,0.7-0.2,0.8-0.6c0-0.2-0.1-0.5-0.3-0.6l-8.5-8.4c-0.2-0.3-0.7-0.3-1-0.1
					c-0.2,0.1-0.3,0.4-0.3,0.6v8.5C106.4,558.5,106.7,558.8,107.1,558.8"/>
				<path class="st17" d="M116.5,561.1H105c-0.5,0-0.9-0.4-0.9-0.9v-11.3c0-0.5-0.4-0.9-0.9-0.9H83.7c-0.5,0-0.9,0.4-0.9,0.9v17h0.1
					h22.5c2.4,0,4.3,1.9,4.3,4.3v11.5c0,2.4-1.9,4.3-4.3,4.3H82.9h-0.1v3.6c0,0.5,0.4,0.9,0.9,0.9h32.9c0.5,0,0.9-0.4,0.9-0.9V562
					C117.4,561.5,117,561.1,116.5,561.1"/>
				<path class="st17" d="M80.9,575.9c0,0.4,0.1,0.8,0.2,1.2c0.1,0.4,0.3,0.7,0.5,1s0.5,0.5,0.8,0.7s0.7,0.3,1.2,0.3
					c0.3,0,0.6,0,0.9-0.1c0.3-0.1,0.6-0.1,0.9-0.2c0.3-0.1,0.6-0.2,0.9-0.3c0.3-0.1,0.5-0.2,0.8-0.3v2.2c-0.2,0.1-0.4,0.1-0.6,0.2
					c-0.2,0.1-0.5,0.2-0.8,0.2c-0.3,0.1-0.6,0.1-1,0.2c-0.4,0.1-0.8,0.1-1.3,0.1c-0.8,0-1.5-0.1-2.1-0.4c-0.6-0.2-1.2-0.6-1.6-1
					c-0.4-0.5-0.8-1-1-1.6c-0.2-0.6-0.4-1.4-0.4-2.2s0.1-1.5,0.4-2.1c0.2-0.6,0.6-1.2,1-1.6c0.4-0.4,1-0.8,1.6-1s1.3-0.4,2.1-0.4
					c0.5,0,0.9,0,1.3,0.1c0.4,0.1,0.7,0.1,1,0.2s0.5,0.1,0.8,0.2c0.2,0.1,0.4,0.2,0.6,0.2v2.2c-0.2-0.1-0.5-0.2-0.8-0.3
					c-0.3-0.1-0.6-0.2-0.9-0.3c-0.3-0.1-0.6-0.2-0.9-0.2c-0.3-0.1-0.6-0.1-0.9-0.1c-0.5,0-0.9,0.1-1.2,0.3c-0.3,0.2-0.6,0.4-0.8,0.8
					c-0.2,0.3-0.4,0.7-0.5,1.1C80.9,575,80.9,575.4,80.9,575.9"/>
				<path class="st17" d="M88.3,573.6c0-0.5,0.1-1,0.4-1.3c0.3-0.4,0.6-0.7,1-0.9c0.4-0.2,0.8-0.4,1.3-0.5c0.5-0.1,0.9-0.2,1.4-0.2
					c0.8,0,1.4,0.1,2.1,0.2c0.6,0.1,1.1,0.2,1.5,0.3v0.6c0,0.2,0,0.4,0,0.6s0,0.4,0,0.5c0,0.2,0,0.4,0,0.6c-0.2-0.1-0.4-0.2-0.6-0.3
					c-0.3-0.1-0.5-0.2-0.8-0.3c-0.3-0.1-0.6-0.2-0.9-0.2c-0.3,0-0.6-0.1-0.9-0.1c-0.1,0-0.3,0-0.5,0s-0.4,0-0.6,0.1
					c-0.2,0.1-0.4,0.1-0.5,0.2s-0.2,0.3-0.2,0.5c0,0.3,0.1,0.5,0.4,0.6c0.3,0.2,0.6,0.3,1,0.5c0.4,0.1,0.9,0.3,1.3,0.5
					c0.5,0.2,0.9,0.4,1.3,0.6c0.4,0.2,0.8,0.6,1,0.9c0.3,0.4,0.4,0.8,0.4,1.4c0,0.5-0.1,1-0.3,1.4c-0.2,0.4-0.5,0.7-0.9,1
					c-0.4,0.3-0.9,0.4-1.4,0.6c-0.5,0.1-1.1,0.2-1.8,0.2c-0.6,0-1.2,0-1.6-0.1c-0.5-0.1-0.9-0.1-1.3-0.2c-0.4-0.1-0.6-0.2-0.9-0.2
					c-0.2-0.1-0.3-0.1-0.3-0.1c0-0.1,0-0.3,0-0.4c0-0.1,0-0.2,0-0.4v-0.5c0-0.4,0-0.8,0-1.2c0.2,0.1,0.4,0.2,0.7,0.3
					c0.3,0.1,0.6,0.3,0.9,0.4c0.3,0.1,0.7,0.2,1.1,0.3c0.4,0.1,0.8,0.2,1.1,0.2c0.1,0,0.3,0,0.6,0c0.2,0,0.5-0.1,0.7-0.1
					c0.2-0.1,0.4-0.2,0.6-0.3c0.2-0.1,0.2-0.3,0.2-0.6c0-0.2-0.1-0.4-0.4-0.6c-0.3-0.2-0.6-0.3-1-0.4c-0.4-0.1-0.9-0.3-1.3-0.5
					c-0.5-0.2-0.9-0.4-1.3-0.6c-0.4-0.3-0.8-0.6-1-1C88.4,574.6,88.3,574.2,88.3,573.6"/>
				<polygon class="st17" points="102.7,580.8 99.7,580.8 96.6,570.9 99.3,570.9 101.2,578.3 101.3,578.3 103.2,570.9 105.9,570.9 
									"/>
			</g>
		</g>
	</g>
</g>
</svg>
