<?xml version="1.0" encoding="utf-8"?>
<!-- Generator: Adobe Illustrator 22.1.0, SVG Export Plug-In . SVG Version: 6.00 Build 0)  -->
<svg version="1.1" id="Capa_1" xmlns="http://www.w3.org/2000/svg" xmlns:xlink="http://www.w3.org/1999/xlink" x="0px" y="0px"
	 viewBox="0 0 148.2 126.7" style="enable-background:new 0 0 148.2 126.7;" xml:space="preserve">
<style type="text/css">
	.st0{fill:#222222;}
	.st1{opacity:0.5;}
	.st2{fill:#37986B;}
	.st3{fill:#FFFFFF;}
</style>
<g>
	<path class="st0" d="M29.2,22.7h48.4c19.6,0.1,32.8,7.9,32.7,27.1c0,10.1-5.1,17.1-14.1,21.4c12.5,3.7,18.8,13.3,18.7,26.1
		c-0.1,20.9-17.8,29.5-36.4,29.4H29.2V22.7z M52.1,65.7L75,65.8c7.9,0,13.9-3.5,13.9-12.2c0-9.8-7.5-11.9-15.5-11.9l-21.2-0.1
		L52.1,65.7z M52.1,109.7l24.1,0.1c8.9,0,16.6-2.8,16.7-13.4c0-10.5-6.5-14.7-16.1-14.7l-24.5-0.1L52.1,109.7z"/>
	<g class="st1">
		<path class="st2" d="M53.9,3.7C52.8,1.5,49.8,0,47.4,0H21.7c-2.4,0-5.2,1.7-6.5,3.7l-13,22.4c-1.3,2.2-1.1,5.4,0,7.6l13,22.4
			c1.3,2.2,4.1,3.7,6.5,3.7h25.7c2.4,0,5.4-1.7,6.5-3.7l13-22.4c1.3-2.2,1.3-5.4,0-7.6L53.9,3.7z"/>
	</g>
</g>
<g>
	<g>
		<path class="st2" d="M141.2,59.2c-0.5-1-1.9-1.7-3-1.7h-11.9c-1.1,0-2.4,0.8-3,1.7l-6,10.3c-0.6,1-0.5,2.5,0,3.5l6,10.3
			c0.6,1,1.9,1.7,3,1.7h11.9c1.1,0,2.5-0.8,3-1.7l6-10.3c0.6-1,0.6-2.5,0-3.5L141.2,59.2z"/>
	</g>
	<path class="st3" d="M131.5,77h-2.3v-1.5c-0.5,1-1.5,1.2-2.6,1.2c-1.6,0-3.3-1.3-3.3-4.3c0-2.9,1.7-4.2,3.3-4.2c1,0,2,0.3,2.5,1.2
		v-5.2h2.5V77H131.5z"/>
	<path class="st2" d="M127.3,69.9c-1.3,0-1.9,1.2-1.9,2.6c0,1.3,0.6,2.6,1.9,2.6s1.9-1.2,1.9-2.6S128.6,69.9,127.3,69.9z"/>
	<path class="st3" d="M133,64.3h2.5v5.2c0.6-0.9,1.5-1.2,2.5-1.2c1.6,0,3.3,1.2,3.3,4.2s-1.7,4.3-3.3,4.3c-1.2,0-2.2-0.2-2.6-1.2V77
		H133V64.3z"/>
	<path class="st2" d="M137.2,69.9c1.3,0,1.9,1.2,1.9,2.6c0,1.3-0.6,2.6-1.9,2.6c-1.3,0-1.9-1.2-1.9-2.6S135.9,69.9,137.2,69.9z"/>
</g>
</svg>
