<?xml version="1.0" encoding="utf-8"?>
<!-- Generator: Adobe Illustrator 22.1.0, SVG Export Plug-In . SVG Version: 6.00 Build 0)  -->
<svg version="1.1" id="Capa_1" xmlns="http://www.w3.org/2000/svg" xmlns:xlink="http://www.w3.org/1999/xlink" x="0px" y="0px"
	 viewBox="0 0 146.1 28.9" style="enable-background:new 0 0 146.1 28.9;" xml:space="preserve">
<style type="text/css">
	.st0{fill:#FFFFFF;}
</style>
<path class="st0" d="M52.5,6.3c-2.1,0-4.2,1-5.5,3h-0.1V6.8h-4.7v17.9h4.9v-9.4c0-3.6,1.1-5.1,3.8-5.1c2.3,0,3.1,1.5,3.1,4.4v10.1
	H59v-11C59,9.3,57.7,6.3,52.5,6.3z M34.6,16.2c0,3.6-1.1,5.1-3.8,5.1c-2.3,0-3.1-1.5-3.1-4.4V6.8h-4.9v11c0,4.4,1.3,7.4,6.5,7.4
	c2.1,0,4.2-1,5.5-3h0.1v2.5h4.7V6.8h-4.9V16.2z M79.1,6.8h-5.8l-6.2,6.4V0h-4.9v24.7h4.9v-6.2l1.9-1.8l4.9,8h5.9l-7.5-11.3L79.1,6.8
	z M16.1,11.3c2.1-1,3.4-2.7,3.4-5.2c0-4.6-3.2-6.1-7.9-6.1H0v24.7h12c4.5,0,8.7-2.1,8.7-7.2C20.7,14.4,19.1,12.1,16.1,11.3z
	 M5.4,4.2h5.1c1.9,0,3.7,0.5,3.7,2.8c0,2.1-1.4,2.9-3.3,2.9H5.4V4.2z M11.2,20.5H5.4v-6.8h5.9c2.3,0,3.9,1,3.9,3.5
	C15.2,19.8,13.4,20.5,11.2,20.5z M88.8,6.3c-5.4,0-9.1,4.1-9.1,9.4c0,5.5,3.5,9.4,9.1,9.4c4,0,7-1.8,8.4-6h-4.3
	c-0.3,1.1-1.9,2.3-3.9,2.3c-2.7,0-4.3-1.4-4.4-4.5h12.9C97.8,11.4,94.9,6.3,88.8,6.3z M84.6,13.8c0.1-1.4,1-3.8,4.1-3.8
	c2.4,0,3.5,1.3,3.9,3.8H84.6z M104.1,10.1L104.1,10.1L104,6.8h-4.7v17.9h4.9v-8.1c0-3.1,1.2-5.7,4.8-5.7c0.6,0,1.3,0.1,1.8,0.2V6.5
	c-0.3-0.1-0.7-0.2-1.1-0.2C107.4,6.3,104.9,7.9,104.1,10.1z M135.6,13.5c-1.3,0-1.9,1.2-1.9,2.6c0,1.4,0.6,2.6,1.9,2.6
	c1.3,0,1.9-1.3,1.9-2.6C137.5,14.8,136.9,13.5,135.6,13.5z M145.7,13.1l-6.1-10.5c-0.6-1-1.9-1.7-3-1.7h-12.2c-1.1,0-2.4,0.8-3,1.7
	l-6.1,10.5c-0.5,1-0.5,2.5,0,3.5l6.1,10.5c0.6,1,1.9,1.7,3,1.7h12.2c1.1,0,2.4-0.8,3-1.7l6.1-10.5C146.3,15.7,146.3,14.1,145.7,13.1
	z M129.7,20.8h-2.4v-1.5c-0.5,1-1.5,1.2-2.7,1.2c-1.6,0-3.4-1.3-3.4-4.3c0-3,1.8-4.2,3.4-4.2c1,0,2,0.3,2.5,1.2V7.9h2.5V20.8z
	 M136.3,20.5c-1.2,0-2.2-0.2-2.7-1.2v1.5h-2.4V7.9h2.5v5.3c0.6-1,1.6-1.2,2.5-1.2c1.6,0,3.4,1.2,3.4,4.2
	C139.7,19.1,138,20.5,136.3,20.5z M125.4,13.5c-1.3,0-1.9,1.2-1.9,2.6c0,1.4,0.6,2.6,1.9,2.6c1.3,0,1.9-1.3,1.9-2.6
	C127.4,14.8,126.8,13.5,125.4,13.5z"/>
</svg>
