<?xml version="1.0" encoding="utf-8"?>
<!-- Generator: Adobe Illustrator 22.1.0, SVG Export Plug-In . SVG Version: 6.00 Build 0)  -->
<svg version="1.1" id="Capa_1" xmlns="http://www.w3.org/2000/svg" xmlns:xlink="http://www.w3.org/1999/xlink" x="0px" y="0px"
	 viewBox="0 0 146.1 28.9" style="enable-background:new 0 0 146.1 28.9;" xml:space="preserve">
<style type="text/css">
	.st0{fill:#1A1A1A;}
	.st1{fill:#37986B;}
	.st2{fill:#FFFFFF;}
</style>
<g>
	<path class="st0" d="M16.1,11.3c2.1-1,3.4-2.7,3.4-5.2c0-4.6-3.2-6.1-7.9-6.1H0v24.7h12c4.5,0,8.7-2.1,8.7-7.2
		C20.7,14.4,19.1,12.1,16.1,11.3z M5.4,4.2h5.1c1.9,0,3.7,0.5,3.7,2.8c0,2.1-1.4,2.9-3.3,2.9H5.4V4.2z M11.2,20.5H5.4v-6.8h5.9
		c2.3,0,3.9,1,3.9,3.5C15.2,19.8,13.4,20.5,11.2,20.5z M34.6,6.8h4.9v17.9h-4.7v-2.5h-0.1c-1.2,2-3.4,3-5.5,3
		c-5.2,0-6.5-2.9-6.5-7.4v-11h4.9v10.1c0,2.9,0.9,4.4,3.1,4.4c2.7,0,3.8-1.5,3.8-5.1V6.8z M59,13.7v11h-4.9V14.6
		c0-2.9-0.9-4.4-3.1-4.4c-2.7,0-3.8,1.5-3.8,5.1v9.4h-4.9V6.8h4.7v2.5H47c1.2-2,3.4-3,5.5-3C57.7,6.3,59,9.3,59,13.7z M72.3,13.4
		l7.5,11.3h-5.9l-4.9-8l-1.9,1.8v6.2h-4.9V0h4.9v13.2l6.2-6.4h5.8L72.3,13.4z M88.8,6.3c-5.4,0-9.1,4.1-9.1,9.4
		c0,5.5,3.5,9.4,9.1,9.4c4,0,7-1.8,8.4-6h-4.3c-0.3,1.1-1.9,2.3-3.9,2.3c-2.7,0-4.3-1.4-4.4-4.5h12.9C97.8,11.4,94.9,6.3,88.8,6.3z
		 M84.6,13.8c0.1-1.4,1-3.8,4.1-3.8c2.4,0,3.5,1.3,3.9,3.8H84.6z M110.8,6.5v4.6c-0.4-0.1-1.2-0.2-1.8-0.2c-3.6,0-4.8,2.6-4.8,5.7
		v8.1h-4.9V6.8h4.7v3.3h0.1c0.9-2.2,3.3-3.8,5.7-3.8C110.1,6.3,110.5,6.4,110.8,6.5z"/>
	<g>
		<path class="st1" d="M139.6,2.6c-0.6-1-1.9-1.7-3-1.7h-12.2c-1.1,0-2.5,0.8-3,1.7l-6.1,10.5c-0.5,1-0.5,2.5,0,3.5l6.1,10.5
			c0.6,1,1.9,1.7,3,1.7h12.2c1.1,0,2.4-0.8,3-1.7l6.1-10.5c0.6-1,0.6-2.5,0-3.5L139.6,2.6z"/>
	</g>
	<path class="st2" d="M129.7,20.8h-2.4v-1.5c-0.5,1-1.5,1.2-2.7,1.2c-1.6,0-3.4-1.3-3.4-4.3c0-3,1.8-4.2,3.4-4.2c1,0,2,0.3,2.5,1.2
		V7.9h2.5V20.8z"/>
	<path class="st1" d="M125.4,13.5c-1.3,0-1.9,1.2-1.9,2.6c0,1.4,0.6,2.6,1.9,2.6c1.3,0,1.9-1.3,1.9-2.6
		C127.4,14.8,126.8,13.5,125.4,13.5z"/>
	<path class="st2" d="M131.3,7.9h2.5v5.3c0.6-1,1.6-1.2,2.5-1.2c1.6,0,3.4,1.2,3.4,4.2c0,3-1.8,4.3-3.4,4.3c-1.2,0-2.2-0.2-2.7-1.2
		v1.5h-2.4V7.9z"/>
	<path class="st1" d="M135.6,13.5c1.3,0,1.9,1.2,1.9,2.6c0,1.4-0.6,2.6-1.9,2.6c-1.3,0-1.9-1.3-1.9-2.6
		C133.7,14.8,134.2,13.5,135.6,13.5z"/>
</g>
</svg>
