<?xml version="1.0" encoding="utf-8"?>
<!-- Generator: Adobe Illustrator 22.1.0, SVG Export Plug-In . SVG Version: 6.00 Build 0)  -->
<svg version="1.1" xmlns="http://www.w3.org/2000/svg" xmlns:xlink="http://www.w3.org/1999/xlink" x="0px" y="0px"
	 viewBox="0 0 1366 737" style="enable-background:new 0 0 1366 737;" xml:space="preserve">
<style type="text/css">
	.st0{fill:url(#SVGID_1_);}
	.st1{fill:url(#SVGID_2_);}
	.st2{display:none;}
	.st3{display:inline;opacity:0.2;}
	.st4{fill:#FF00FF;}
</style>
<g id="Capa_1">
	<g>
		<linearGradient id="SVGID_1_" gradientUnits="userSpaceOnUse" x1="1110.8611" y1="-1.8712" x2="1307.8611" y2="537.1288">
			<stop  offset="0" style="stop-color:#37AA86"/>
			<stop  offset="1" style="stop-color:#B466FF"/>
		</linearGradient>
		<path class="st0" d="M990.4,358.3c-1.3,5.3,1.3,12.2,5.9,15.3L1366,622V0l-295.3,73.6c-5.3,1.3-10.8,6.8-12.1,12.1L990.4,358.3z"
			/>
		<linearGradient id="SVGID_2_" gradientUnits="userSpaceOnUse" x1="-295.3872" y1="17.8165" x2="493.6128" y2="605.8165">
			<stop  offset="0" style="stop-color:#7D15EE"/>
			<stop  offset="1" style="stop-color:#F4B244"/>
		</linearGradient>
		<path class="st1" d="M581.4,175c-2.4-4.9-8.7-10.2-14-11.8L0,0v10v727l758.3-175.8c5.4-1.2,7.8-6.3,5.4-11.2L581.4,175z"/>
	</g>
</g>
<g id="grid" class="st2">
	<g class="st3">
		<rect x="4691" y="3638.1" class="st4" width="92" height="6009"/>
		<rect x="4803" y="3638.1" class="st4" width="92" height="6009"/>
		<rect x="4915" y="3638.1" class="st4" width="92" height="6009"/>
		<rect x="5027" y="3638.1" class="st4" width="92" height="6009"/>
		<rect x="5139" y="3638.1" class="st4" width="92" height="6009"/>
		<rect x="5251" y="3638.1" class="st4" width="92" height="6009"/>
		<rect x="5363" y="3638.1" class="st4" width="92" height="6009"/>
		<rect x="5475" y="3638.1" class="st4" width="92" height="6009"/>
		<rect x="5587" y="3638.1" class="st4" width="92" height="6009"/>
		<rect x="5699" y="3638.1" class="st4" width="92" height="6009"/>
		<rect x="5811" y="3638.1" class="st4" width="92" height="6009"/>
		<rect x="5923" y="3638.1" class="st4" width="92" height="6009"/>
	</g>
</g>
</svg>
