<svg xmlns="http://www.w3.org/2000/svg" width="53" height="50.558" viewBox="0 0 53 50.558">
  <path id="mountain_1_" data-name="mountain (1)" d="M51.239,48.034H50.076l-15.335-29.9a2.4,2.4,0,0,0-3.2-1.047l-1.233.617-2.063-2.889a2.367,2.367,0,0,0-1.487-.958V8.037h7.38a.762.762,0,0,0,.634-1.184l-1.347-2.02,1.347-2.02a.762.762,0,0,0-.634-1.184h-7.38V.762a.762.762,0,0,0-1.523,0v13.3a2.368,2.368,0,0,0-1.1,1.14L16,32.831l-.918-1.225a2.39,2.39,0,0,0-3.993.258L1.946,48.034H.762a.762.762,0,1,0,0,1.523H51.239a.762.762,0,1,0,0-1.523ZM32.718,3.152,31.879,4.41a.761.761,0,0,0,0,.845l.839,1.258H26.762V3.152ZM12.411,32.614a.867.867,0,0,1,1.448-.094L16.1,35.5a.762.762,0,0,0,1.219-.914l-.281-.375,4.829-10.461L24.31,26.2a2.39,2.39,0,0,0,3.38,0l1.462-1.462a.051.051,0,0,1,.04-.015.049.049,0,0,1,.038.019l.245.306a.762.762,0,0,0,1.189-.952l-.245-.306a1.576,1.576,0,0,0-2.345-.13l-1.462,1.462a.866.866,0,0,1-1.225,0L22.544,22.28l2.973-6.443a.867.867,0,0,1,1.492-.14l2.441,3.418a.762.762,0,0,0,.96.239l1.815-.908a.87.87,0,0,1,1.159.38l4.035,7.869-1.194,2.388a.866.866,0,0,1-1.452.154l-2.1-2.621a.762.762,0,0,0-1.19.952l2.1,2.621a2.379,2.379,0,0,0,1.863.9,2.511,2.511,0,0,0,.255-.013,2.38,2.38,0,0,0,1.886-1.308l.693-1.387L48.363,48.034H33.675L24.641,37.61a2.39,2.39,0,0,0-3.718.131l-.622.829-1.083-1.443A.762.762,0,0,0,18,38.042L19.692,40.3a.762.762,0,0,0,1.219,0l1.231-1.642a.867.867,0,0,1,1.348-.048l8.169,9.426H3.7Zm0,0" transform="translate(0.5 0.5)" fill="#f003c3" stroke="#f003c3" stroke-width="1"/>
</svg>
