<svg xmlns="http://www.w3.org/2000/svg" xmlns:xlink="http://www.w3.org/1999/xlink" width="141.239" height="21.207" viewBox="0 0 141.239 21.207">
  <defs>
    <linearGradient id="linear-gradient" x1="0.5" x2="0.5" y2="1" gradientUnits="objectBoundingBox">
      <stop offset="0" stop-color="#5200a3"/>
      <stop offset="1" stop-color="#5b70dc"/>
    </linearGradient>
    <linearGradient id="linear-gradient-6" x1="0.5" x2="0.5" y2="1" gradientUnits="objectBoundingBox">
      <stop offset="0" stop-color="#5200a3"/>
      <stop offset="1" stop-color="#7b99ff"/>
    </linearGradient>
  </defs>
  <g id="Grupo_354" data-name="Grupo 354" transform="translate(-9972.956 331.012)">
    <g id="news-networks" transform="translate(9353 -736.506)">
      <path id="facebook_2_" data-name="facebook (2)" d="M18.341,0H2.858A2.856,2.856,0,0,0,0,2.856V18.339a2.856,2.856,0,0,0,2.856,2.856h7.636l.013-7.574H8.539a.464.464,0,0,1-.464-.462l-.009-2.441a.464.464,0,0,1,.464-.466h1.964V7.892a3.854,3.854,0,0,1,4.114-4.228h2a.464.464,0,0,1,.464.464V6.187a.464.464,0,0,1-.464.464h-1.23c-1.328,0-1.585.631-1.585,1.557V10.25h2.918a.464.464,0,0,1,.461.519l-.289,2.441a.464.464,0,0,1-.461.41H13.81l-.01,7.575h4.544A2.856,2.856,0,0,0,21.2,18.339V2.856A2.856,2.856,0,0,0,18.341,0Z" transform="translate(659.824 405.506)" fill="url(#linear-gradient)"/>
      <path id="linkedin" d="M19.278,0H1.917A1.917,1.917,0,0,0,0,1.917v17.36a1.917,1.917,0,0,0,1.917,1.917h17.36a1.917,1.917,0,0,0,1.917-1.917V1.917A1.917,1.917,0,0,0,19.278,0ZM6.559,18.3A.558.558,0,0,1,6,18.859H3.626a.558.558,0,0,1-.558-.558V8.345a.558.558,0,0,1,.558-.558H6a.558.558,0,0,1,.558.558ZM4.813,6.849A2.256,2.256,0,1,1,7.069,4.592,2.256,2.256,0,0,1,4.813,6.849Zm14.157,11.5a.513.513,0,0,1-.513.513H15.909a.513.513,0,0,1-.513-.513v-4.67c0-.7.2-3.053-1.821-3.053-1.571,0-1.889,1.613-1.953,2.336v5.386a.513.513,0,0,1-.513.513H8.644a.513.513,0,0,1-.513-.513V8.3a.513.513,0,0,1,.513-.513h2.465a.513.513,0,0,1,.513.513v.869A3.5,3.5,0,0,1,14.913,7.62c4.081,0,4.058,3.813,4.058,5.908v4.819Z" transform="translate(699.652 405.506)" fill="url(#linear-gradient)"/>
      <g id="instagram_5_" data-name="instagram (5)" transform="translate(740 405.506)">
        <path id="Trazado_1077" data-name="Trazado 1077" d="M14.881,0H6.314A6.321,6.321,0,0,0,0,6.314v8.567a6.321,6.321,0,0,0,6.314,6.314h8.567a6.321,6.321,0,0,0,6.314-6.314V6.314A6.321,6.321,0,0,0,14.881,0Zm4.182,14.881a4.182,4.182,0,0,1-4.182,4.182H6.314a4.182,4.182,0,0,1-4.182-4.182V6.314A4.182,4.182,0,0,1,6.314,2.132h8.567a4.182,4.182,0,0,1,4.182,4.182v8.567Z" fill="url(#linear-gradient)"/>
        <path id="Trazado_1078" data-name="Trazado 1078" d="M138.482,133a5.482,5.482,0,1,0,5.482,5.482A5.482,5.482,0,0,0,138.482,133Zm0,8.831a3.35,3.35,0,1,1,3.35-3.35,3.35,3.35,0,0,1-3.35,3.35Z" transform="translate(-127.884 -127.884)" fill="url(#linear-gradient)"/>
        <circle id="Elipse_133" data-name="Elipse 133" cx="1.314" cy="1.314" r="1.314" transform="translate(14.776 3.843)" fill="url(#linear-gradient)"/>
      </g>
    </g>
    <path id="Trazado_1081" data-name="Trazado 1081" d="M83.2,119.613a15.125,15.125,0,0,0,15.229-15.229c0-.232,0-.462-.015-.692a10.891,10.891,0,0,0,2.67-2.771,10.684,10.684,0,0,1-3.074.843,5.37,5.37,0,0,0,2.354-2.961,10.726,10.726,0,0,1-3.4,1.3,5.357,5.357,0,0,0-9.121,4.881,15.2,15.2,0,0,1-11.032-5.592,5.357,5.357,0,0,0,1.657,7.145,5.313,5.313,0,0,1-2.424-.67c0,.022,0,.045,0,.068a5.355,5.355,0,0,0,4.294,5.247,5.344,5.344,0,0,1-2.417.092,5.359,5.359,0,0,0,5,3.718,10.741,10.741,0,0,1-6.648,2.291A10.886,10.886,0,0,1,75,117.209a15.153,15.153,0,0,0,8.2,2.4" transform="translate(9897.956 -429.423)" fill="url(#linear-gradient-6)"/>
  </g>
</svg>
