<svg xmlns="http://www.w3.org/2000/svg" width="436.136" height="338.913" viewBox="0 0 436.136 338.913">
  <g id="Grupo_319" data-name="Grupo 319" transform="translate(-157.682 -3151.667)">
    <circle id="Elipse_25" data-name="Elipse 25" cx="3.395" cy="3.395" r="3.395" transform="translate(515.935 3472.127)" fill="none"/>
    <path id="Trazado_159" data-name="Trazado 159" d="M422.257,3151.667H272.223a39.522,39.522,0,0,0-34.228,19.761l-75.017,129.934a39.519,39.519,0,0,0,0,39.523l75.017,129.934a39.522,39.522,0,0,0,34.228,19.761H422.257a39.524,39.524,0,0,0,34.228-19.761L531.5,3340.885a39.523,39.523,0,0,0,0-39.523l-75.017-129.934A39.524,39.524,0,0,0,422.257,3151.667Z" fill="#3e3e56"/>
    <path id="Trazado_163" data-name="Trazado 163" d="M550.548,3244.667h24.875a5.961,5.961,0,0,1,5.16,2.979l12.437,21.542a5.96,5.96,0,0,1,0,5.958l-12.437,21.542a5.961,5.961,0,0,1-5.16,2.979H550.548a5.961,5.961,0,0,1-5.16-2.979l-12.437-21.542a5.96,5.96,0,0,1,0-5.958l12.437-21.542A5.961,5.961,0,0,1,550.548,3244.667Z" fill="#5e61db"/>
    <path id="Trazado_164" data-name="Trazado 164" d="M480.759,3404h11.018a5.958,5.958,0,0,1,5.16,2.979l5.509,9.542a5.959,5.959,0,0,1,0,5.958l-5.509,9.542a5.958,5.958,0,0,1-5.16,2.979H480.759a5.961,5.961,0,0,1-5.16-2.979l-5.509-9.542a5.959,5.959,0,0,1,0-5.958l5.509-9.542A5.961,5.961,0,0,1,480.759,3404Z" fill="#82c590"/>
  </g>
</svg>
