<svg id="Grupo_402" data-name="Grupo 402" xmlns="http://www.w3.org/2000/svg" width="17.235" height="19.233" viewBox="0 0 17.235 19.233">
  <g id="Grupo_183" data-name="Grupo 183">
    <path id="Trazado_1076" data-name="Trazado 1076" d="M304.963,1630.164l-12.872-7.432a2.181,2.181,0,0,0-3.272,1.89v14.863a2.178,2.178,0,0,0,3.272,1.89l12.872-7.432a2.18,2.18,0,0,0,0-3.778Zm-1.042,1.973-12.872,7.431a.1.1,0,0,1-.145-.084v-14.863a.086.086,0,0,1,.048-.084.1.1,0,0,1,.049-.015.09.09,0,0,1,.047.015l12.872,7.431a.086.086,0,0,1,.048.084A.087.087,0,0,1,303.92,1632.137Z" transform="translate(-288.819 -1622.436)" fill="#fff"/>
  </g>
</svg>
