<?xml version="1.0" encoding="utf-8"?>
<!-- Generator: Adobe Illustrator 22.1.0, SVG Export Plug-In . SVG Version: 6.00 Build 0)  -->
<svg version="1.1" id="Capa_1" xmlns="http://www.w3.org/2000/svg" xmlns:xlink="http://www.w3.org/1999/xlink" x="0px" y="0px"
	 viewBox="0 0 734.4 972" style="enable-background:new 0 0 734.4 972;" xml:space="preserve">
<style type="text/css">
	.st0{fill:url(#SVGID_1_);}
	.st1{fill:url(#SVGID_2_);}
	.st2{fill:url(#SVGID_3_);}
</style>
<g>
	
		<linearGradient id="SVGID_1_" gradientUnits="userSpaceOnUse" x1="1536.9659" y1="2298.8972" x2="1739.7783" y2="1367.3358" gradientTransform="matrix(1 0 0 -1 0 3782)">
		<stop  offset="0" style="stop-color:#009869"/>
		<stop  offset="1" style="stop-color:#8570F2"/>
	</linearGradient>
	<path class="st0" d="M1364.3,1889c-2.4,5-0.2,10.8,4.9,13l429.8,268v-692l-295.3,43.6c-5.3,1.3-11.6,6.5-14,11.4L1364.3,1889z"/>
	
		<linearGradient id="SVGID_2_" gradientUnits="userSpaceOnUse" x1="842.7214" y1="1657.1136" x2="471.4463" y2="2190.8215" gradientTransform="matrix(1 0 0 -1 0 3782)">
		<stop  offset="0" style="stop-color:#5076D7"/>
		<stop  offset="1" style="stop-color:#009869"/>
	</linearGradient>
	<path class="st1" d="M1034.6,1559.9c-2.5-4.9-8.8-10.5-13.9-12.4L433,1405v972l728.5-378.7c5.2-1.8,7.4-7.3,4.9-12.2L1034.6,1559.9
		z"/>
</g>
<linearGradient id="SVGID_3_" gradientUnits="userSpaceOnUse" x1="409.7214" y1="3062.1138" x2="38.4463" y2="3595.8215" gradientTransform="matrix(1 0 0 -1 0 3782)">
	<stop  offset="0" style="stop-color:#5076D7"/>
	<stop  offset="1" style="stop-color:#009869"/>
</linearGradient>
<path class="st2" d="M601.6,154.9c-2.5-4.9-8.8-10.5-13.9-12.4L0,0v972l728.5-378.7c5.2-1.8,7.4-7.3,4.9-12.2L601.6,154.9z"/>
</svg>
