<?xml version="1.0" encoding="utf-8"?>
<!-- Generator: Adobe Illustrator 22.1.0, SVG Export Plug-In . SVG Version: 6.00 Build 0)  -->
<svg version="1.1" id="Capa_1" xmlns="http://www.w3.org/2000/svg" xmlns:xlink="http://www.w3.org/1999/xlink" x="0px" y="0px"
	 viewBox="0 0 22 13" style="enable-background:new 0 0 22 13;" xml:space="preserve">
<style type="text/css">
	.st0{fill:#FFFFFF;}
</style>
<path class="st0" d="M20.2,1.9l-2.4,1.2C16.8,3.6,16,4.9,16,6V2c0-1.1-0.9-2-2-2H2C0.9,0,0,0.9,0,2v9c0,1.1,0.9,2,2,2h12
	c1.1,0,2-0.9,2-2V7c0,1.1,0.8,2.4,1.8,2.9l2.4,1.2c1,0.5,1.8,0,1.8-1.1V3C22,1.9,21.2,1.4,20.2,1.9z"/>
</svg>
