<?xml version="1.0" encoding="utf-8"?>
<!-- Generator: Adobe Illustrator 22.1.0, SVG Export Plug-In . SVG Version: 6.00 Build 0)  -->
<svg version="1.1" id="Capa_1" xmlns="http://www.w3.org/2000/svg" xmlns:xlink="http://www.w3.org/1999/xlink" x="0px" y="0px"
	 viewBox="0 0 38 22" style="enable-background:new 0 0 38 22;" xml:space="preserve">
<style type="text/css">
	.st0{fill:#2A2A3F;}
</style>
<path class="st0" d="M34.9,2.9l-3.9,2c-1.6,0.9-3,3.1-3,5V3.5C28,1.6,26.4,0,24.5,0H3.5C1.6,0,0,1.6,0,3.5v15.1
	C0,20.4,1.6,22,3.5,22h21.1c1.9,0,3.5-1.6,3.5-3.5v-6.9c0,1.9,1.3,4.2,3,5l3.9,2c1.7,0.9,3.1,0,3.1-1.9v-12C38,2.8,36.6,2,34.9,2.9z
	"/>
</svg>
