<?xml version="1.0" encoding="utf-8"?>
<!-- Generator: Adobe Illustrator 22.1.0, SVG Export Plug-In . SVG Version: 6.00 Build 0)  -->
<svg version="1.1" id="Capa_1" xmlns="http://www.w3.org/2000/svg" xmlns:xlink="http://www.w3.org/1999/xlink" x="0px" y="0px"
	 viewBox="0 0 24 24" style="enable-background:new 0 0 24 24;" xml:space="preserve">
<style type="text/css">
	.st0{fill:#B3B3B3;}
</style>
<path class="st0" d="M12,0C5.3,0,0,5.3,0,12c0,6.7,5.3,12,12,12s12-5.3,12-12C24,5.3,18.7,0,12,0z M7.4,2.9C6.9,3.5,6.5,4.2,6.1,5.1
	C5.7,4.9,5.3,4.7,4.9,4.6C5.6,3.9,6.4,3.3,7.4,2.9z M3.9,5.9C4.4,6.2,5,6.5,5.6,6.7C5.3,8.1,5,9.5,4.9,11.1H1.8
	C2,9.2,2.7,7.4,3.9,5.9z M1.8,12.9h3.1c0.1,1.5,0.3,2.9,0.6,4.2c-0.7,0.3-1.3,0.5-1.8,0.9C2.6,16.5,1.9,14.8,1.8,12.9z M4.9,19.3
	c0.4-0.2,0.8-0.4,1.2-0.5c0.4,0.9,0.8,1.7,1.3,2.4C6.5,20.7,5.6,20.1,4.9,19.3z M11.1,22c-1.3-0.4-2.5-1.8-3.3-3.8
	c1.1-0.3,2.2-0.4,3.3-0.4V22z M11.1,16c-1.3,0.1-2.6,0.3-3.9,0.5c-0.4-1.1-0.5-2.4-0.6-3.7h4.5V16z M11.1,11H6.7
	c0.1-1.3,0.3-2.6,0.6-3.8c1.2,0.4,2.5,0.6,3.9,0.6V11z M11.1,6.1C10,6,8.8,5.9,7.8,5.6c0.8-1.9,2-3.2,3.3-3.7V6.1z M22.2,11h-3.1
	v0.1C19,9.6,18.8,8.2,18.5,7c0.7-0.3,1.3-0.5,1.9-0.9C21.4,7.5,22.1,9.3,22.2,11z M19.3,4.7c-0.4,0.2-0.9,0.4-1.3,0.5
	c-0.4-1-0.8-1.8-1.3-2.5C17.6,3.3,18.6,3.9,19.3,4.7z M12.9,2c1.3,0.4,2.5,1.8,3.3,3.9C15.2,6,14,6.1,12.9,6.2V2z M12.9,8
	c1.3,0,2.7-0.2,3.9-0.5c0.3,1.1,0.5,2.4,0.5,3.6h-4.5V8z M12.9,12.9h4.5c-0.1,1.3-0.3,2.5-0.6,3.7c-1.1-0.4-2.5-0.5-3.9-0.5V12.9z
	 M12.9,22v-4.2c1.1,0.1,2.3,0.2,3.3,0.4C15.4,20.1,14.2,21.5,12.9,22z M16.6,21.1c0.4-0.7,0.9-1.5,1.3-2.4c0.4,0.2,0.9,0.4,1.2,0.5
	C18.4,20,17.6,20.6,16.6,21.1z M20.3,18c-0.5-0.4-1.2-0.6-1.8-0.9c0.4-1.3,0.6-2.7,0.6-4.2h3.1C22,14.8,21.3,16.5,20.3,18z"/>
</svg>
