<svg xmlns="http://www.w3.org/2000/svg" xmlns:xlink="http://www.w3.org/1999/xlink" width="49.701" height="54.279" viewBox="0 0 49.701 54.279">
  <defs>
    <clipPath id="clip-path">
      <rect width="49.701" height="54.279" fill="none"/>
    </clipPath>
  </defs>
  <g id="Componente" clip-path="url(#clip-path)">
    <circle id="Elipse_58" data-name="Elipse 58" cx="1.962" cy="1.962" r="1.962" transform="translate(22.889 22.888)" fill="#fff"/>
    <path id="Trazado_48" data-name="Trazado 48" d="M127.92,130.579a1.4,1.4,0,1,0,1.563,2.326,12.519,12.519,0,1,0-13.975-.017,1.4,1.4,0,0,0,1.569-2.322,9.716,9.716,0,1,1,10.842.013Z" transform="translate(-97.658 -97.658)" fill="#fff"/>
    <path id="Trazado_49" data-name="Trazado 49" d="M83,90.386a1.391,1.391,0,0,0,.717-.2,18.621,18.621,0,1,0-19.06,0,1.4,1.4,0,0,0,1.436-2.406,15.819,15.819,0,1,1,16.187,0,1.4,1.4,0,0,0,.719,2.6Z" transform="translate(-49.337 -49.337)" fill="#fff"/>
    <path id="Trazado_50" data-name="Trazado 50" d="M24.851,0A24.853,24.853,0,0,0,12.689,46.526a1.4,1.4,0,1,0,1.374-2.442h0a22.048,22.048,0,1,1,21.576,0,1.4,1.4,0,0,0,1.374,2.442A24.853,24.853,0,0,0,24.851,0Z" fill="#fff"/>
    <path id="Trazado_51" data-name="Trazado 51" d="M133.606,190.611v-2.14a4.765,4.765,0,1,0-2.8,0v2.14l-9.761,20.736a1.4,1.4,0,0,0,1.268,2H142.1a1.4,1.4,0,0,0,1.268-2Zm-9.087,19.932,7.686-16.328,7.686,16.328Zm7.686-28.587a1.962,1.962,0,1,1-1.962,1.962h0a1.964,1.964,0,0,1,1.962-1.962Z" transform="translate(-107.354 -159.067)" fill="#fff"/>
  </g>
</svg>
