<svg xmlns="http://www.w3.org/2000/svg" xmlns:xlink="http://www.w3.org/1999/xlink" width="51.111" height="52.401" viewBox="0 0 51.111 52.401">
  <defs>
    <clipPath id="clip-path">
      <rect width="51.111" height="52.401" fill="none"/>
    </clipPath>
  </defs>
  <g id="Componente" clip-path="url(#clip-path)">
    <g id="Grupo_98" data-name="Grupo 98">
      <g id="Grupo_52" data-name="Grupo 52" transform="translate(0 0)">
        <g id="Grupo_51" data-name="Grupo 51" transform="translate(0)">
          <path id="Trazado_13" data-name="Trazado 13" d="M16.329,246.025a24.736,24.736,0,0,1,1.3-4.074l-.18.433a24.739,24.739,0,0,1,2.752-4.867c.072-.1.144-.2.216-.294.018-.024.114-.126.108-.144s-.252.318-.144.186c.15-.192.3-.384.457-.571.3-.361.613-.721.931-1.063a24.491,24.491,0,0,1,1.971-1.9q.315-.27.631-.523c.1-.078.192-.15.288-.228-.469.379-.072.06.036-.024.427-.318.865-.619,1.316-.913a1.8,1.8,0,0,0-1.815-3.112A26.563,26.563,0,0,0,14.154,240.99a24.18,24.18,0,0,0-1.3,4.074,1.8,1.8,0,0,0,3.479.961Z" transform="translate(-12.802 -228.68)" fill="#fff"/>
        </g>
      </g>
      <g id="Grupo_54" data-name="Grupo 54" transform="translate(37.025 0.009)">
        <g id="Grupo_53" data-name="Grupo 53" transform="translate(0 0)">
          <path id="Trazado_14" data-name="Trazado 14" d="M629.882,232.194c.421.276.835.559,1.238.859.1.072.2.15.3.228.156.12-.162-.126-.15-.12.042.03.084.066.126.1.21.168.421.336.625.511a24.606,24.606,0,0,1,2.061,1.971c.306.33.607.667.9,1.015.144.174.288.349.427.529a.815.815,0,0,1,.09.114c.012.024-.252-.33-.132-.174.078.1.156.2.234.312a25.834,25.834,0,0,1,1.49,2.265,24.432,24.432,0,0,1,1.37,2.752l-.18-.433a24.6,24.6,0,0,1,1.292,4.05,1.823,1.823,0,0,0,2.217,1.262,1.843,1.843,0,0,0,1.262-2.217,26.209,26.209,0,0,0-7.5-13.134,26.762,26.762,0,0,0-3.827-3,1.81,1.81,0,0,0-2.464.649,1.829,1.829,0,0,0,.631,2.463Z" transform="translate(-629.011 -228.834)" fill="#fff"/>
        </g>
      </g>
      <g id="Grupo_56" data-name="Grupo 56" transform="translate(7.264 4.073)">
        <g id="Grupo_55" data-name="Grupo 55" transform="translate(0 0)">
          <path id="Trazado_15" data-name="Trazado 15" d="M166.668,314.633V332.3l1.8-1.8H139.552c-1.328,0-2.668-.036-4,0h-.06l1.8,1.8V316.045a27.368,27.368,0,0,1,.144-3.581c-.024.162-.042.318-.066.481a16.508,16.508,0,0,1,1.112-4.074l-.18.433a16.608,16.608,0,0,1,1.136-2.205c.216-.348.445-.7.685-1.027.054-.078.108-.15.162-.222.252-.337-.216.27-.042.048.132-.168.264-.331.4-.493a17.037,17.037,0,0,1,1.73-1.754c.15-.132.3-.258.457-.385.072-.06.144-.114.216-.174.1-.078.264-.186-.174.138.054-.042.108-.078.156-.12.33-.246.667-.481,1.015-.7a16.238,16.238,0,0,1,2.481-1.3l-.433.18a16.371,16.371,0,0,1,4.164-1.13c-.162.024-.318.042-.481.066a16.686,16.686,0,0,1,4.344,0c-.162-.024-.318-.042-.481-.066a16.654,16.654,0,0,1,4.26,1.166l-.433-.18a16.723,16.723,0,0,1,2.187,1.13c.348.21.685.439,1.015.679.078.054.15.108.228.168.048.036.1.072.15.114.024.018-.33-.258-.18-.138s.318.252.469.384a15.422,15.422,0,0,1,1.724,1.706c.132.15.264.306.391.463.06.072.114.144.174.216.12.15-.156-.2-.138-.18.048.06.1.126.138.186.24.325.475.661.691,1a16.289,16.289,0,0,1,1.292,2.464l-.18-.433a16.173,16.173,0,0,1,1.118,4.062c-.024-.162-.042-.318-.066-.481a12.66,12.66,0,0,1,.18,2.145,1.8,1.8,0,0,0,3.605,0,18.073,18.073,0,0,0-3.01-9.914,18.349,18.349,0,0,0-7.685-6.6,19.264,19.264,0,0,0-5.432-1.526,18.244,18.244,0,0,0-4.987.09,17.712,17.712,0,0,0-7.865,3.245,18.588,18.588,0,0,0-5.69,6.669,18.3,18.3,0,0,0-1.9,8.057V332.3a1.828,1.828,0,0,0,1.8,1.8h28.919c1.334,0,2.668.024,4,0h.06a1.828,1.828,0,0,0,1.8-1.8V314.633a1.806,1.806,0,0,0-3.611,0Z" transform="translate(-133.7 -296.465)" fill="#fff"/>
        </g>
      </g>
      <g id="Grupo_58" data-name="Grupo 58" transform="translate(1.945 38.095)">
        <g id="Grupo_57" data-name="Grupo 57" transform="translate(0 0)">
          <path id="Trazado_16" data-name="Trazado 16" d="M46.98,866.31H88.8c.571,0,1.136.006,1.706,0h.072a1.8,1.8,0,0,0,0-3.605H48.759c-.571,0-1.136-.006-1.706,0H46.98a1.8,1.8,0,0,0,0,3.605Z" transform="translate(-45.176 -862.703)" fill="#fff"/>
        </g>
      </g>
      <g id="Grupo_60" data-name="Grupo 60" transform="translate(18.392 43.33)">
        <g id="Grupo_59" data-name="Grupo 59">
          <path id="Trazado_17" data-name="Trazado 17" d="M329.8,951.633a6.126,6.126,0,0,1-.048.745c.024-.162.042-.318.066-.481a5.848,5.848,0,0,1-.384,1.394l.18-.433a5.687,5.687,0,0,1-.493.9c-.042.066-.09.126-.138.192-.18.258.3-.354.09-.12-.114.126-.222.258-.342.378s-.246.229-.379.343c-.222.192.373-.27.12-.09l-.192.138a5.73,5.73,0,0,1-.9.493l.433-.18a5.649,5.649,0,0,1-1.394.385c.162-.024.318-.042.481-.066a5.663,5.663,0,0,1-1.5,0c.162.024.319.042.481.066a5.84,5.84,0,0,1-1.394-.385l.433.18a5.721,5.721,0,0,1-.9-.493c-.066-.042-.126-.09-.192-.138-.258-.18.354.3.12.09-.126-.114-.258-.222-.378-.343s-.228-.246-.343-.378c-.192-.222.27.373.09.12l-.138-.192a5.7,5.7,0,0,1-.493-.9l.18.433a5.651,5.651,0,0,1-.384-1.394c.024.162.042.319.066.481a6.207,6.207,0,0,1-.048-.745,1.8,1.8,0,0,0-3.605,0,7.193,7.193,0,0,0,1.262,4.08,7.592,7.592,0,0,0,3.6,2.764,7.247,7.247,0,0,0,7.877-2.091,7.468,7.468,0,0,0,1.784-4.759,1.824,1.824,0,0,0-1.8-1.8,1.847,1.847,0,0,0-1.815,1.809Z" transform="translate(-318.899 -949.823)" fill="#fff"/>
        </g>
      </g>
    </g>
  </g>
</svg>
