<svg xmlns="http://www.w3.org/2000/svg" width="37.196" height="38.134" viewBox="0 0 37.196 38.134">
  <g id="Grupo_51" data-name="Grupo 51" transform="translate(0 0)">
    <g id="Grupo_52" data-name="Grupo 52" transform="translate(0 0)">
      <g id="Grupo_51-2" data-name="Grupo 51" transform="translate(0 0)">
        <path id="Trazado_13" data-name="Trazado 13" d="M15.369,241.3a18,18,0,0,1,.949-2.965l-.131.315a18,18,0,0,1,2-3.542c.052-.07.1-.144.157-.214.013-.017.083-.092.079-.1s-.184.232-.1.136c.109-.14.219-.28.332-.415.219-.262.446-.525.678-.774a17.835,17.835,0,0,1,1.434-1.382q.23-.2.459-.38c.07-.057.14-.109.21-.166-.341.275-.052.044.026-.017.31-.232.63-.45.958-.665a1.311,1.311,0,1,0-1.321-2.265,19.331,19.331,0,0,0-7.311,8.776,17.6,17.6,0,0,0-.949,2.965,1.313,1.313,0,0,0,2.532.7Z" transform="translate(-12.802 -228.68)" fill="#873bff"/>
      </g>
    </g>
    <g id="Grupo_54" data-name="Grupo 54" transform="translate(26.945 0.007)">
      <g id="Grupo_53" data-name="Grupo 53" transform="translate(0 0)">
        <path id="Trazado_14" data-name="Trazado 14" d="M629.645,231.279c.306.2.608.407.9.625.074.052.144.109.219.166.114.087-.118-.092-.109-.087.031.022.061.048.092.074.153.122.306.245.455.372a17.877,17.877,0,0,1,1.5,1.434c.223.24.442.485.652.739.1.127.21.254.31.385a.614.614,0,0,1,.066.083c.009.017-.184-.24-.1-.127.057.074.114.149.17.227a18.781,18.781,0,0,1,1.084,1.648,17.8,17.8,0,0,1,1,2l-.131-.315a17.906,17.906,0,0,1,.94,2.947,1.327,1.327,0,0,0,1.614.918,1.342,1.342,0,0,0,.918-1.614,19.074,19.074,0,0,0-5.461-9.559,19.474,19.474,0,0,0-2.785-2.186,1.317,1.317,0,0,0-1.793.472,1.331,1.331,0,0,0,.459,1.793Z" transform="translate(-629.011 -228.834)" fill="#873bff"/>
      </g>
    </g>
    <g id="Grupo_56" data-name="Grupo 56" transform="translate(5.286 2.964)">
      <g id="Grupo_55" data-name="Grupo 55" transform="translate(0 0)">
        <path id="Trazado_15" data-name="Trazado 15" d="M157.693,309.687v12.856L159,321.23H137.959c-.966,0-1.941-.026-2.908,0h-.044l1.312,1.312V310.714a19.918,19.918,0,0,1,.1-2.606c-.018.118-.031.232-.048.35a12.015,12.015,0,0,1,.809-2.965l-.131.315a12.085,12.085,0,0,1,.826-1.6c.157-.254.324-.507.5-.748.039-.057.079-.109.118-.162.184-.245-.157.2-.031.035.1-.122.192-.241.293-.359a12.4,12.4,0,0,1,1.259-1.277c.109-.1.219-.188.332-.28.052-.044.1-.083.157-.127.07-.057.192-.136-.127.1.039-.031.079-.057.114-.088.24-.179.485-.35.739-.512a11.82,11.82,0,0,1,1.806-.944l-.315.131a11.92,11.92,0,0,1,3.03-.822c-.118.018-.232.031-.35.048a12.144,12.144,0,0,1,3.161,0c-.118-.018-.232-.031-.35-.048a12.123,12.123,0,0,1,3.1.848L151,299.87a12.174,12.174,0,0,1,1.592.822c.254.153.5.319.739.494.057.039.109.079.166.122.035.026.074.052.109.083.017.013-.24-.188-.131-.1s.232.184.341.28a11.223,11.223,0,0,1,1.255,1.242c.1.109.192.223.284.337.044.052.083.1.127.157.087.109-.114-.149-.1-.131.035.044.07.092.1.136.175.236.345.481.5.73a11.849,11.849,0,0,1,.94,1.793l-.131-.315a11.77,11.77,0,0,1,.813,2.956c-.017-.118-.031-.232-.048-.35a9.214,9.214,0,0,1,.131,1.561,1.312,1.312,0,1,0,2.624,0,13.153,13.153,0,0,0-2.191-7.215,13.354,13.354,0,0,0-5.593-4.8,14.019,14.019,0,0,0-3.953-1.111,13.281,13.281,0,0,0-3.629.066,12.89,12.89,0,0,0-5.724,2.361,13.527,13.527,0,0,0-4.141,4.854A13.317,13.317,0,0,0,133.7,309.7v12.838a1.33,1.33,0,0,0,1.312,1.312h21.045c.971,0,1.941.018,2.908,0h.044a1.33,1.33,0,0,0,1.312-1.312V309.687a1.314,1.314,0,0,0-2.628,0Z" transform="translate(-133.7 -296.465)" fill="#873bff"/>
      </g>
    </g>
    <g id="Grupo_58" data-name="Grupo 58" transform="translate(1.416 27.723)">
      <g id="Grupo_57" data-name="Grupo 57" transform="translate(0 0)">
        <path id="Trazado_16" data-name="Trazado 16" d="M46.489,865.328H76.923c.415,0,.826,0,1.242,0h.052a1.312,1.312,0,0,0,0-2.624H47.784c-.415,0-.826,0-1.242,0h-.052a1.312,1.312,0,0,0,0,2.624Z" transform="translate(-45.176 -862.703)" fill="#873bff"/>
      </g>
    </g>
    <g id="Grupo_60" data-name="Grupo 60" transform="translate(13.384 31.533)">
      <g id="Grupo_59" data-name="Grupo 59">
        <path id="Trazado_17" data-name="Trazado 17" d="M326.836,951.141a4.453,4.453,0,0,1-.035.542c.017-.118.031-.232.048-.35a4.257,4.257,0,0,1-.28,1.014l.131-.315a4.139,4.139,0,0,1-.359.656c-.031.048-.066.092-.1.14-.131.188.219-.258.066-.087-.083.092-.162.188-.249.275s-.179.166-.275.249c-.162.14.271-.2.087-.066l-.14.1a4.16,4.16,0,0,1-.656.358l.315-.131a4.111,4.111,0,0,1-1.014.28c.118-.018.232-.031.35-.048a4.126,4.126,0,0,1-1.089,0c.118.018.232.031.35.048a4.251,4.251,0,0,1-1.014-.28l.315.131a4.159,4.159,0,0,1-.656-.358c-.048-.031-.092-.066-.14-.1-.188-.131.258.219.087.066-.092-.083-.188-.162-.276-.249s-.166-.179-.249-.275c-.14-.162.2.271.066.087l-.1-.14a4.147,4.147,0,0,1-.359-.656l.131.315a4.113,4.113,0,0,1-.28-1.014c.017.118.031.232.048.35a4.511,4.511,0,0,1-.035-.542,1.312,1.312,0,0,0-2.624,0,5.235,5.235,0,0,0,.918,2.969,5.524,5.524,0,0,0,2.619,2.011,5.274,5.274,0,0,0,5.733-1.522,5.434,5.434,0,0,0,1.3-3.463,1.327,1.327,0,0,0-1.312-1.312,1.345,1.345,0,0,0-1.321,1.316Z" transform="translate(-318.899 -949.823)" fill="#873bff"/>
      </g>
    </g>
  </g>
</svg>
