<svg id="Capa_1" data-name="Capa 1" xmlns="http://www.w3.org/2000/svg" viewBox="0 0 60 60"><defs><style>.cls-1{fill:#757575;}</style></defs><title>icons</title><path class="cls-1" d="M14.27,45.24a6,6,0,1,1,6-6A6,6,0,0,1,14.27,45.24Zm0-10.05a4,4,0,1,0,4,4A4,4,0,0,0,14.27,35.19Z"/><path class="cls-1" d="M42.09,45.24a6,6,0,1,1,6-6A6,6,0,0,1,42.09,45.24Zm0-10.05a4,4,0,1,0,4,4A4,4,0,0,0,42.09,35.19Z"/><rect class="cls-1" x="19.95" y="38.22" width="17.11" height="2"/><path class="cls-1" d="M50.41,40.22H47.12v-2h3.29a2.71,2.71,0,0,0,2.7-2.71V32.09a2.7,2.7,0,0,0-2.7-2.7H6.89v7.07a1.75,1.75,0,0,0,1.75,1.76v2a3.76,3.76,0,0,1-3.75-3.76V27.39H50.41a4.71,4.71,0,0,1,4.7,4.7v3.42A4.71,4.71,0,0,1,50.41,40.22Z"/><path class="cls-1" d="M45.11,29.21a1,1,0,0,1-.7-.29l-8.69-8.66H15.63L6.54,28.15a1,1,0,0,1-1.31-1.52l9.65-8.37H36.55l9.27,9.24a1,1,0,0,1-.71,1.71Z"/><path class="cls-1" d="M28.18,40.22a1,1,0,0,1-1-1v-20a1,1,0,1,1,2,0v20A1,1,0,0,1,28.18,40.22Z"/><path class="cls-1" d="M16.22,29.39a1,1,0,0,1-1-1V19.26a1,1,0,0,1,2,0v9.13A1,1,0,0,1,16.22,29.39Z"/><path class="cls-1" d="M34.66,16.76H16.28a1,1,0,0,1,0-2H34.66a1,1,0,1,1,0,2Z"/><path class="cls-1" d="M18.76,19.72a1,1,0,0,1-1-1V17a1,1,0,0,1,2,0v1.71A1,1,0,0,1,18.76,19.72Z"/><path class="cls-1" d="M32.21,19.34a1,1,0,0,1-1-1V16a1,1,0,1,1,2,0v2.33A1,1,0,0,1,32.21,19.34Z"/></svg>