<svg id="Capa_1" data-name="Capa 1" xmlns="http://www.w3.org/2000/svg" viewBox="0 0 60 60"><defs><style>.cls-1{fill:#757575;}</style></defs><title>icons</title><polygon class="cls-1" points="50.17 13.69 48.17 13.69 48.17 11.13 12.46 11.13 12.46 13.69 10.46 13.69 10.46 9.13 50.17 9.13 50.17 13.69"/><polygon class="cls-1" points="50.17 50.87 10.46 50.87 10.46 22.87 12.46 22.87 12.46 48.87 48.17 48.87 48.17 22.98 50.17 22.98 50.17 50.87"/><path class="cls-1" d="M45.65,50.87H33.82v-20H45.65Zm-9.83-2h7.83v-16H35.82Z"/><path class="cls-1" d="M32.05,44.65H14.54V30.87H32.05Zm-15.51-2H30.05V32.87H16.54Z"/><path class="cls-1" d="M30,26.93a5.21,5.21,0,0,1-5.21-5.21v-9.3H35.24v9.3A5.21,5.21,0,0,1,30,26.93ZM26.82,14.42v7.3a3.21,3.21,0,0,0,6.42,0v-7.3Z"/><path class="cls-1" d="M38.52,26.19A5.22,5.22,0,0,1,33.3,21V12.42H43.73V21A5.22,5.22,0,0,1,38.52,26.19ZM35.3,14.42V21a3.22,3.22,0,0,0,6.43,0V14.42Z"/><path class="cls-1" d="M21.25,26.19A5.21,5.21,0,0,1,16,21V12.42H26.46V21A5.22,5.22,0,0,1,21.25,26.19ZM18,14.42V21a3.21,3.21,0,1,0,6.42,0V14.42Z"/><path class="cls-1" d="M12.83,24a5.22,5.22,0,0,1-5.22-5.21V12.42H18v6.39A5.22,5.22,0,0,1,12.83,24Zm-3.22-9.6v4.39a3.22,3.22,0,0,0,6.43,0V14.42Z"/><path class="cls-1" d="M47.17,24.07A5.22,5.22,0,0,1,42,18.86V12.48H52.39v6.38A5.22,5.22,0,0,1,47.17,24.07ZM44,14.48v4.38a3.22,3.22,0,0,0,6.43,0V14.48Z"/></svg>