<svg xmlns="http://www.w3.org/2000/svg" width="70.094" height="56.542" viewBox="0 0 70.094 56.542">
  <g id="Grupo_141" data-name="Grupo 141" transform="translate(1.535 1.5)">
    <path id="Trazado_47" data-name="Trazado 47" d="M-78.948,320.964a2.45,2.45,0,0,0-2.308,1.769c-2.126,6.963-2.777,9.4-3.931,10.6-.74.767-2.724,1.72-5.541,3l-10.713,5.344a4.353,4.353,0,0,1-3.37.075,24.066,24.066,0,0,1-5.09-2.485c-1.854-1.416-3.085-3.761-6.505-10.632a2.452,2.452,0,0,0-2.154-1.389,2.451,2.451,0,0,0-2.235,3.574c3.418,6.866,4.906,10.04,7.92,12.342,2.61,1.993,5.79,2.993,11.505,5.3l.609,1.221,5.386,10.8.005.011c2.274,4.542,8.967,6.606,12.953,4.619l10.042-4.941,7.158,12.526c2.319,4.051,8.4.572,6.077-3.479l-8.359-14.6a3.5,3.5,0,0,0-3.211-1.757,3.5,3.5,0,0,0-1.178.266l-6.425,2.686,6.463-5.76,13.3,3.764c4.541,1.36,6.486-5.517,1.9-6.738l-15.151-4.287a3.507,3.507,0,0,0-1.037-.131,3.5,3.5,0,0,0-2.245.886l-8.349,7.439-3.973-7.964-1.116-2.237c3.146-1.369,5.212-2.347,6.85-4.044,2.475-2.562,3-5.715,5.093-12.569a2.451,2.451,0,0,0-2.379-3.2Zm-21.423,5.679a6.25,6.25,0,0,0-6.243,6.243,6.236,6.236,0,0,0,6.243,6.243,6.246,6.246,0,0,0,6.272-6.243A6.261,6.261,0,0,0-100.371,326.643Z" transform="translate(121.072 -320.963)" fill="none" stroke="#fff" stroke-miterlimit="10" stroke-width="3"/>
  </g>
</svg>
