<svg id="Capa_1" data-name="Capa 1" xmlns="http://www.w3.org/2000/svg" viewBox="0 0 32 32"><defs><style>.cls-1{fill:#873bff;}.cls-2{fill:#fff;}</style></defs><title>favicon</title><rect class="cls-1" x="-0.35" y="-0.12" width="32.35" height="32.35"/><path class="cls-2" d="M16.78,12.3h2.1v1h0a3.07,3.07,0,0,1,.35-.41,3,3,0,0,1,.52-.37,3.32,3.32,0,0,1,.64-.27,2.61,2.61,0,0,1,.75-.11,4,4,0,0,1,1.49.28,3.38,3.38,0,0,1,1.14.79,3.55,3.55,0,0,1,.74,1.21,4.47,4.47,0,0,1,.26,1.53,4.55,4.55,0,0,1-.24,1.48,4.11,4.11,0,0,1-.67,1.26,3.29,3.29,0,0,1-1.05.87,3,3,0,0,1-1.41.33,4.08,4.08,0,0,1-1.33-.22,2.16,2.16,0,0,1-1-.75h0v4.25H16.78ZM18.88,16a1.92,1.92,0,0,0,.47,1.35,2,2,0,0,0,2.69,0A1.92,1.92,0,0,0,22.52,16,1.93,1.93,0,0,0,22,14.63a2,2,0,0,0-2.69,0A1.93,1.93,0,0,0,18.88,16Z"/><path class="cls-2" d="M14,8.92H12L7.36,19.67H10l.9-2.27H15L16,19.67h.35V14.34Zm-2.36,6.47,1.31-3.34,1.32,3.34Z"/><polygon class="cls-2" points="8.55 4.27 5.72 4.27 4.38 4.27 4.38 5.61 4.38 8.43 5.72 8.43 5.72 5.61 8.55 5.61 8.55 4.27"/><polygon class="cls-2" points="23.8 27.83 26.63 27.83 27.96 27.83 27.96 26.5 27.96 23.67 26.63 23.67 26.63 26.5 23.8 26.5 23.8 27.83"/></svg>