<svg id="Grupo_252" data-name="Grupo 252" xmlns="http://www.w3.org/2000/svg" width="26.889" height="33" viewBox="0 0 26.889 33">
  <g id="Grupo_250" data-name="Grupo 250">
    <path id="Trazado_122" data-name="Trazado 122" d="M18.444,35.5a1.737,1.737,0,0,1-.733-.244C17.222,34.889,5,26.211,5,15.944a13.444,13.444,0,0,1,26.889,0c0,10.267-12.222,18.944-12.711,19.311A1.737,1.737,0,0,1,18.444,35.5Zm0-30.556a10.954,10.954,0,0,0-11,11c0,7.7,8.433,14.911,11,16.867,2.567-1.956,11-9.044,11-16.867A10.954,10.954,0,0,0,18.444,4.944Z" transform="translate(-5 -2.5)" fill="#873bff"/>
  </g>
  <g id="Grupo_251" data-name="Grupo 251" transform="translate(8.189 8.189)">
    <path id="Trazado_123" data-name="Trazado 123" d="M16.956,19.711A5.3,5.3,0,0,1,11.7,14.456a5.256,5.256,0,1,1,10.511,0A5.3,5.3,0,0,1,16.956,19.711Zm0-7.944a2.843,2.843,0,0,0-2.811,2.811,2.811,2.811,0,0,0,5.622,0A2.843,2.843,0,0,0,16.956,11.767Z" transform="translate(-11.7 -9.2)" fill="#873bff"/>
  </g>
</svg>
