<svg xmlns="http://www.w3.org/2000/svg" width="37.405" height="32" viewBox="0 0 37.405 32">
  <g id="Grupo_249" data-name="Grupo 249" transform="translate(-2 -4.768)">
    <path id="Trazado_121" data-name="Trazado 121" d="M21.989,36.768a1.426,1.426,0,0,1-1.014-.414L12.152,27.53a1.428,1.428,0,0,1-.009-2.019l.009-.009a1.427,1.427,0,0,1,2.013,0l7.824,7.824L34.154,21.162A7.9,7.9,0,0,0,23.426,9.574c-.146.136-.287.277-.423.423a1.428,1.428,0,0,1-2.019.009L20.976,10A7.9,7.9,0,0,0,7.811,17.75a1.428,1.428,0,0,1-2.741.771A10.737,10.737,0,0,1,21.989,7.1,10.737,10.737,0,0,1,36.182,23.175L23,36.354A1.426,1.426,0,0,1,21.989,36.768Zm2.756-9.723,2.5-6.24h3.313a1.428,1.428,0,0,0,0-2.856H26.273a1.428,1.428,0,0,0-1.328.9l-1.428,3.512-2.956-9.152a1.428,1.428,0,0,0-2.713,0l-2.6,7.6H3.428a1.428,1.428,0,1,0,0,2.856h12.85a1.429,1.429,0,0,0,1.356-.971l1.5-4.512,2.927,8.8a1.429,1.429,0,0,0,1.356.971h0A1.428,1.428,0,0,0,24.745,27.045Z" transform="translate(0)" fill="#873bff"/>
  </g>
</svg>
