<svg xmlns="http://www.w3.org/2000/svg" width="560.105" height="374.231" viewBox="0 0 560.105 374.231">
  <g id="Grupo_254" data-name="Grupo 254" transform="translate(-1040.21 -278.216)">
    <ellipse id="Elipse_74" data-name="Elipse 74" cx="4.657" cy="4.657" rx="4.657" ry="4.657" transform="matrix(0.985, 0.174, -0.174, 0.985, 1482.601, 285.888)" fill="#fff"/>
    <ellipse id="Elipse_70" data-name="Elipse 70" cx="6.849" cy="6.849" rx="6.849" ry="6.849" transform="matrix(0.985, 0.174, -0.174, 0.985, 1448.84, 547.828)" fill="#fff"/>
    <ellipse id="Elipse_115" data-name="Elipse 115" cx="6.849" cy="6.849" rx="6.849" ry="6.849" transform="matrix(0.985, 0.174, -0.174, 0.985, 1586.825, 396.534)" fill="#fff"/>
    <ellipse id="Elipse_116" data-name="Elipse 116" cx="6.849" cy="6.849" rx="6.849" ry="6.849" transform="matrix(0.985, 0.174, -0.174, 0.985, 1042.588, 322.288)" fill="#fff"/>
    <ellipse id="Elipse_73" data-name="Elipse 73" cx="6.849" cy="6.849" rx="6.849" ry="6.849" transform="matrix(0.985, 0.174, -0.174, 0.985, 1492.466, 338.5)" fill="#fff"/>
    <ellipse id="Elipse_67" data-name="Elipse 67" cx="6.849" cy="6.849" rx="6.849" ry="6.849" transform="matrix(0.985, 0.174, -0.174, 0.985, 1164.735, 404.663)" fill="#fff"/>
    <ellipse id="Elipse_103" data-name="Elipse 103" cx="3.697" cy="3.697" rx="3.697" ry="3.697" transform="matrix(0.985, 0.174, -0.174, 0.985, 1161.686, 309.405)" fill="#fff"/>
    <ellipse id="Elipse_104" data-name="Elipse 104" cx="3.697" cy="3.697" rx="3.697" ry="3.697" transform="matrix(0.985, 0.174, -0.174, 0.985, 1121.061, 604.287)" fill="#fff"/>
    <ellipse id="Elipse_117" data-name="Elipse 117" cx="3.697" cy="3.697" rx="3.697" ry="3.697" transform="matrix(0.985, 0.174, -0.174, 0.985, 1188.438, 530.041)" fill="#fff"/>
    <ellipse id="Elipse_60" data-name="Elipse 60" cx="3.287" cy="3.287" rx="3.287" ry="3.287" transform="matrix(0.985, 0.174, -0.174, 0.985, 1120.917, 503.311)" fill="#fff"/>
    <ellipse id="Elipse_75" data-name="Elipse 75" cx="3.287" cy="3.287" rx="3.287" ry="3.287" transform="matrix(0.985, 0.174, -0.174, 0.985, 1425.479, 418.789)" fill="#fff"/>
    <ellipse id="Elipse_72" data-name="Elipse 72" cx="3.287" cy="3.287" rx="3.287" ry="3.287" transform="matrix(0.985, 0.174, -0.174, 0.985, 1499.259, 556.049)" fill="#fff"/>
    <ellipse id="Elipse_71" data-name="Elipse 71" cx="3.287" cy="3.287" rx="3.287" ry="3.287" transform="matrix(0.985, 0.174, -0.174, 0.985, 1513.508, 644.831)" fill="#fff"/>
    <ellipse id="Elipse_69" data-name="Elipse 69" cx="3.287" cy="3.287" rx="3.287" ry="3.287" transform="matrix(0.985, 0.174, -0.174, 0.985, 1407.52, 278.216)" fill="#fff"/>
  </g>
</svg>
