<svg id="Capa_1" data-name="Capa 1" xmlns="http://www.w3.org/2000/svg" viewBox="0 0 60 60"><defs><style>.cls-1{fill:#757575;}</style></defs><title>icons</title><polygon class="cls-1" points="50.91 50.96 18.52 50.96 18.52 25.41 20.52 25.41 20.52 48.96 48.91 48.96 48.91 25.51 50.91 25.51 50.91 50.96"/><polygon class="cls-1" points="20.52 49.88 7.35 49.88 7.35 27.13 9.35 27.13 9.35 47.88 18.52 47.88 18.52 27.22 20.52 27.22 20.52 49.88"/><path class="cls-1" d="M46.45,51H34.75V31.19h11.7Zm-9.7-2h7.7V33.19h-7.7Z"/><path class="cls-1" d="M33,44.81H22.65V31.19H33Zm-8.39-2H31V33.19H24.65Z"/><path class="cls-1" d="M16.8,44.81H11.06V31.19H16.8Zm-3.74-2H14.8V33.19H13.06Z"/><polygon class="cls-1" points="15.99 30.63 14.55 29.23 34.5 8.62 54.87 28.98 53.46 30.4 34.53 11.47 15.99 30.63"/><polygon class="cls-1" points="17.98 28.13 4.6 28.13 8.4 10.55 33.05 10.55 33.05 12.55 10.02 12.55 7.08 26.13 17.98 26.13 17.98 28.13"/><polygon class="cls-1" points="53.09 28.13 51.22 28.13 51.22 27.26 50.87 27.34 47.67 12.55 36.47 12.55 36.47 10.55 49.28 10.55 53.09 28.13"/><path class="cls-1" d="M34.5,28.26a5.4,5.4,0,1,1,5.4-5.39A5.4,5.4,0,0,1,34.5,28.26Zm0-8.79a3.4,3.4,0,1,0,3.4,3.4A3.4,3.4,0,0,0,34.5,19.47Z"/><rect class="cls-1" x="12.06" y="37" width="3.74" height="2"/><rect class="cls-1" x="23.65" y="37" width="8.13" height="2"/></svg>