<svg xmlns="http://www.w3.org/2000/svg" width="531.582" height="616.582" viewBox="0 0 531.582 616.582">
  <g id="Grupo_195" data-name="Grupo 195" transform="translate(-989.11 -206.227)">
    <ellipse id="Elipse_94" data-name="Elipse 94" cx="4.999" cy="4.999" rx="4.999" ry="4.999" transform="matrix(0.985, 0.174, -0.174, 0.985, 990.846, 456.227)" fill="#873bff"/>
    <ellipse id="Elipse_95" data-name="Elipse 95" cx="4.999" cy="4.999" rx="4.999" ry="4.999" transform="matrix(0.985, 0.174, -0.174, 0.985, 1510.846, 399.227)" fill="#873bff"/>
    <ellipse id="Elipse_98" data-name="Elipse 98" cx="4.999" cy="4.999" rx="4.999" ry="4.999" transform="matrix(0.985, 0.174, -0.174, 0.985, 1457.846, 218.227)" fill="#873bff"/>
    <ellipse id="Elipse_102" data-name="Elipse 102" cx="4.999" cy="4.999" rx="4.999" ry="4.999" transform="matrix(0.985, 0.174, -0.174, 0.985, 1486.846, 811.227)" fill="#873bff"/>
    <ellipse id="Elipse_100" data-name="Elipse 100" cx="4.999" cy="4.999" rx="4.999" ry="4.999" transform="matrix(0.985, 0.174, -0.174, 0.985, 1168.846, 713.227)" fill="#873bff"/>
    <ellipse id="Elipse_96" data-name="Elipse 96" cx="14.999" cy="14.999" rx="14.999" ry="14.999" transform="matrix(0.985, 0.174, -0.174, 0.985, 1309.846, 450.227)" fill="#873bff"/>
    <ellipse id="Elipse_99" data-name="Elipse 99" cx="13.999" cy="13.999" rx="13.999" ry="13.999" transform="matrix(0.985, 0.174, -0.174, 0.985, 1226.846, 220.227)" fill="#873bff"/>
    <ellipse id="Elipse_101" data-name="Elipse 101" cx="14.999" cy="14.999" rx="14.999" ry="14.999" transform="matrix(0.985, 0.174, -0.174, 0.985, 1218.846, 665.227)" fill="#873bff"/>
    <ellipse id="Elipse_97" data-name="Elipse 97" cx="4.999" cy="4.999" rx="4.999" ry="4.999" transform="matrix(0.985, 0.174, -0.174, 0.985, 1112.846, 206.227)" fill="#873bff"/>
  </g>
</svg>
