<?xml version="1.0" encoding="utf-8"?>
<!-- Generator: Adobe Illustrator 22.1.0, SVG Export Plug-In . SVG Version: 6.00 Build 0)  -->
<svg version="1.1" id="Capa_1" xmlns="http://www.w3.org/2000/svg" xmlns:xlink="http://www.w3.org/1999/xlink" x="0px" y="0px"
	 viewBox="0 0 149.9 149.8" style="enable-background:new 0 0 149.9 149.8;" xml:space="preserve">
<style type="text/css">
	.st0{fill:#333233;}
	.st1{fill:none;}
</style>
<g>
	<g>
		<g>
			<g>
				<path class="st0" d="M78.8,51h13.3v6.2h0.2c0.6-0.8,1.3-1.7,2.3-2.6c0.9-0.9,2-1.7,3.3-2.4c1.3-0.7,2.6-1.3,4.1-1.7
					c1.5-0.4,3.1-0.7,4.7-0.7c3.5,0,6.6,0.6,9.5,1.8c2.8,1.2,5.3,2.9,7.3,5c2,2.2,3.6,4.7,4.7,7.7c1.1,3,1.6,6.2,1.6,9.7
					c0,3.3-0.5,6.4-1.5,9.4c-1,3-2.4,5.6-4.2,8c-1.8,2.3-4.1,4.2-6.7,5.5c-2.6,1.4-5.6,2.1-9,2.1c-3,0-5.8-0.5-8.4-1.4
					c-2.6-0.9-4.7-2.5-6.4-4.8h-0.2v27H78.8V51z M92.1,74.5c0,3.5,1,6.4,3,8.6c2,2.2,4.9,3.3,8.5,3.3c3.7,0,6.5-1.1,8.5-3.3
					c2-2.2,3-5,3-8.6c0-3.5-1-6.4-3-8.6c-2-2.2-4.9-3.3-8.5-3.3c-3.7,0-6.5,1.1-8.5,3.3C93.1,68.1,92.1,70.9,92.1,74.5z"/>
			</g>
			<g>
				<polygon class="st1" points="45.9,70.7 62.6,70.7 54.2,49.5 				"/>
				<path class="st0" d="M60.9,29.6H48.5L18.9,97.9h16.6l5.7-14.5h26.5l5.9,14.5h2.2V64L60.9,29.6z M45.9,70.7l8.3-21.2l8.4,21.2
					H45.9z"/>
			</g>
		</g>
	</g>
	<polygon class="st0" points="26.5,0 8.5,0 0,0 0,8.5 0,26.5 8.5,26.5 8.5,8.5 26.5,8.5 	"/>
	<polygon class="st0" points="123.4,149.8 141.4,149.8 149.9,149.8 149.9,141.3 149.9,123.3 141.4,123.3 141.4,141.3 123.4,141.3 	
		"/>
</g>
</svg>
