<?xml version="1.0" encoding="utf-8"?>
<!-- Generator: Adobe Illustrator 22.1.0, SVG Export Plug-In . SVG Version: 6.00 Build 0)  -->
<svg version="1.1" id="Capa_1" xmlns="http://www.w3.org/2000/svg" xmlns:xlink="http://www.w3.org/1999/xlink" x="0px" y="0px"
	 viewBox="0 0 110.2 110.1" style="enable-background:new 0 0 110.2 110.1;" xml:space="preserve">
<style type="text/css">
	.st0{fill:#FFFFFF;}
</style>
<g>
	<g>
		<g>
			<g>
				<path class="st0" d="M57.9,37.5h9.8v4.5h0.1c0.4-0.6,1-1.2,1.7-1.9c0.7-0.6,1.5-1.2,2.4-1.7c0.9-0.5,1.9-0.9,3-1.3
					c1.1-0.3,2.2-0.5,3.5-0.5c2.6,0,4.9,0.4,7,1.3c2.1,0.9,3.9,2.1,5.4,3.7c1.5,1.6,2.6,3.5,3.4,5.6c0.8,2.2,1.2,4.6,1.2,7.2
					c0,2.4-0.4,4.7-1.1,6.9c-0.7,2.2-1.8,4.2-3.1,5.9c-1.3,1.7-3,3.1-4.9,4.1c-1.9,1-4.1,1.5-6.6,1.5c-2.2,0-4.3-0.3-6.2-1
					c-1.9-0.7-3.5-1.9-4.7-3.5h-0.1v19.9H57.9V37.5z M67.7,54.8c0,2.6,0.7,4.7,2.2,6.3c1.5,1.6,3.6,2.4,6.3,2.4
					c2.7,0,4.8-0.8,6.3-2.4c1.5-1.6,2.2-3.7,2.2-6.3c0-2.6-0.7-4.7-2.2-6.3C81,46.8,78.9,46,76.3,46c-2.7,0-4.8,0.8-6.3,2.4
					C68.5,50.1,67.7,52.2,67.7,54.8z"/>
			</g>
			<g>
				<path class="st0" d="M44.8,21.8h-9.2L13.9,72h12.2l4.2-10.6h19.5L54.2,72h1.6V47.1L44.8,21.8z M33.8,52l6.1-15.6L46.1,52H33.8z"
					/>
			</g>
		</g>
	</g>
	<polygon class="st0" points="19.5,0 6.3,0 0,0 0,6.3 0,19.5 6.3,19.5 6.3,6.3 19.5,6.3 	"/>
	<polygon class="st0" points="90.8,110.1 104,110.1 110.2,110.1 110.2,103.9 110.2,90.7 104,90.7 104,103.9 90.8,103.9 	"/>
</g>
</svg>
