<?xml version="1.0" encoding="utf-8"?>
<!-- Generator: Adobe Illustrator 22.1.0, SVG Export Plug-In . SVG Version: 6.00 Build 0)  -->
<svg version="1.1" id="Capa_1" xmlns="http://www.w3.org/2000/svg" xmlns:xlink="http://www.w3.org/1999/xlink" x="0px" y="0px"
	 viewBox="0 0 369 44.3" style="enable-background:new 0 0 369 44.3;" xml:space="preserve">
<style type="text/css">
	.st0{fill:#FFFFFF;}
</style>
<g>
	<path class="st0" d="M14.8,9.5H21l14.9,34.2h-8.5l-3-7.3H11.2l-2.9,7.3H0L14.8,9.5z M18,0h9.9l-8.4,7h-6.4L18,0z M17.7,19.4
		l-4.2,10.6h8.4L17.7,19.4z"/>
	<path class="st0" d="M38.4,20.2h7.3V24h0.1c0.8-1.5,1.7-2.5,2.8-3.3c1.1-0.7,2.4-1.1,4-1.1c0.4,0,0.8,0,1.3,0
		c0.4,0,0.8,0.1,1.2,0.2v6.6c-0.5-0.2-1-0.3-1.5-0.4c-0.5-0.1-1-0.1-1.6-0.1c-1.4,0-2.5,0.2-3.3,0.6c-0.8,0.4-1.4,0.9-1.9,1.6
		c-0.4,0.7-0.7,1.5-0.8,2.5c-0.1,1-0.2,2-0.2,3.2v9.8h-7.3V20.2z"/>
	<path class="st0" d="M79.5,39.7c-1.2,1.5-2.6,2.6-4.4,3.4c-1.8,0.8-3.6,1.2-5.5,1.2c-1.8,0-3.5-0.3-5.1-0.9c-1.6-0.6-3-1.4-4.2-2.5
		c-1.2-1.1-2.1-2.4-2.8-3.9c-0.7-1.5-1-3.2-1-5.1c0-1.9,0.3-3.6,1-5.1c0.7-1.5,1.6-2.8,2.8-3.9c1.2-1.1,2.6-1.9,4.2-2.5
		c1.6-0.6,3.3-0.9,5.1-0.9c1.7,0,3.2,0.3,4.6,0.9c1.4,0.6,2.5,1.4,3.5,2.5c1,1.1,1.7,2.4,2.2,3.9c0.5,1.5,0.8,3.2,0.8,5.1v2.3H63.8
		c0.3,1.4,0.9,2.5,1.9,3.3c1,0.8,2.2,1.2,3.6,1.2c1.2,0,2.2-0.3,3-0.8c0.8-0.5,1.5-1.2,2.2-2.1L79.5,39.7z M73.4,29.3
		c0-1.2-0.4-2.3-1.2-3.1c-0.8-0.9-1.9-1.3-3.2-1.3c-0.8,0-1.5,0.1-2.1,0.4c-0.6,0.3-1.1,0.6-1.6,1c-0.4,0.4-0.8,0.9-1,1.4
		c-0.2,0.5-0.4,1.1-0.4,1.7H73.4z"/>
	<path class="st0" d="M99.8,40.8L99.8,40.8c-0.9,1.3-2,2.2-3.3,2.7c-1.3,0.5-2.7,0.8-4.2,0.8c-1.1,0-2.2-0.2-3.2-0.5
		c-1-0.3-1.9-0.8-2.7-1.4c-0.8-0.6-1.4-1.4-1.8-2.3c-0.5-0.9-0.7-2-0.7-3.1c0-1.4,0.2-2.5,0.7-3.4c0.5-0.9,1.2-1.7,2-2.3
		c0.9-0.6,1.8-1.1,2.9-1.4c1.1-0.3,2.2-0.6,3.4-0.7c1.2-0.2,2.4-0.3,3.5-0.3c1.2,0,2.3,0,3.3,0c0-1.3-0.5-2.3-1.4-3.1
		c-0.9-0.8-2-1.1-3.3-1.1c-1.2,0-2.3,0.2-3.3,0.7c-1,0.5-1.9,1.2-2.6,2.1l-3.9-4c1.4-1.3,2.9-2.2,4.7-2.8c1.8-0.6,3.7-0.9,5.6-0.9
		c2.1,0,3.9,0.3,5.2,0.8c1.4,0.5,2.5,1.3,3.3,2.3c0.8,1,1.4,2.3,1.7,3.8c0.3,1.5,0.5,3.2,0.5,5.2v11.9h-6.7V40.8z M98,33.4
		c-0.5,0-1.2,0-2.1,0.1c-0.8,0-1.6,0.2-2.4,0.4c-0.8,0.2-1.4,0.6-1.9,1c-0.5,0.5-0.8,1.1-0.8,1.9c0,0.9,0.4,1.5,1.1,1.9
		c0.7,0.4,1.5,0.6,2.3,0.6c0.7,0,1.4-0.1,2.1-0.3c0.7-0.2,1.2-0.5,1.8-0.8c0.5-0.4,0.9-0.8,1.2-1.4c0.3-0.5,0.5-1.2,0.5-1.9v-1.5H98
		z"/>
	<path class="st0" d="M124.3,27.1c-1.1-1.3-2.5-2-4.2-2c-0.6,0-1.2,0.1-1.8,0.4s-0.9,0.8-0.9,1.5c0,0.6,0.3,1,0.9,1.3
		c0.6,0.3,1.4,0.5,2.3,0.7c0.9,0.2,1.9,0.4,2.9,0.7c1,0.2,2,0.6,3,1.1c0.9,0.5,1.7,1.2,2.3,2.1c0.6,0.9,0.9,2.1,0.9,3.6
		c0,1.5-0.3,2.8-1,3.7c-0.7,1-1.5,1.8-2.5,2.4c-1,0.6-2.2,1-3.5,1.3c-1.3,0.2-2.6,0.4-3.8,0.4c-1.6,0-3.3-0.2-5-0.7
		s-3.1-1.3-4.3-2.5l4.4-4.9c0.7,0.8,1.4,1.5,2.2,1.9c0.8,0.4,1.8,0.7,2.9,0.7c0.8,0,1.6-0.1,2.3-0.4c0.7-0.2,1-0.7,1-1.3
		c0-0.6-0.3-1.1-0.9-1.4c-0.6-0.3-1.4-0.6-2.3-0.8c-0.9-0.2-1.9-0.4-2.9-0.7c-1-0.2-2-0.6-3-1.1c-0.9-0.5-1.7-1.2-2.3-2.1
		c-0.6-0.9-0.9-2.1-0.9-3.6c0-1.4,0.3-2.6,0.8-3.6c0.6-1,1.3-1.8,2.2-2.5c0.9-0.6,2-1.1,3.2-1.4c1.2-0.3,2.4-0.5,3.6-0.5
		c1.5,0,3.1,0.2,4.7,0.7c1.6,0.5,2.9,1.3,4,2.4L124.3,27.1z"/>
	<path class="st0" d="M148.9,9.5h10c3.5,0,6.2,0.8,8.2,2.3c2,1.5,3,3.8,3,6.9s-1,5.4-3,6.9c-2,1.5-4.8,2.3-8.2,2.3h-6.5v15.9h-3.5
		V9.5z M152.4,24.6h5.6c1.5,0,2.9-0.2,3.9-0.5c1.1-0.3,1.9-0.7,2.6-1.3c0.6-0.5,1.1-1.2,1.4-1.9c0.3-0.7,0.4-1.5,0.4-2.3
		c0-0.8-0.1-1.6-0.4-2.3c-0.3-0.7-0.8-1.4-1.4-1.9c-0.6-0.5-1.5-1-2.6-1.3c-1.1-0.3-2.4-0.5-3.9-0.5h-5.6V24.6z"/>
	<path class="st0" d="M175.8,28.1c0-1,0-2-0.1-3c0-1-0.1-2.4-0.1-4h3.1v4.2h0.1c0.2-0.6,0.5-1.2,1-1.8c0.4-0.6,0.9-1.1,1.5-1.5
		c0.6-0.5,1.3-0.8,2.1-1.1c0.8-0.3,1.7-0.4,2.7-0.4c0.9,0,1.7,0.1,2.4,0.3l-0.6,3.1c-0.4-0.2-1-0.2-1.8-0.2c-1.2,0-2.3,0.2-3.1,0.7
		c-0.9,0.5-1.6,1.1-2.2,1.8c-0.6,0.7-1,1.5-1.3,2.3c-0.3,0.8-0.4,1.6-0.4,2.4v12.8h-3.2V28.1z"/>
	<path class="st0" d="M196.2,12.4c0,0.7-0.2,1.2-0.7,1.7c-0.5,0.4-1,0.7-1.6,0.7s-1.1-0.2-1.6-0.7c-0.5-0.4-0.7-1-0.7-1.7
		c0-0.7,0.2-1.2,0.7-1.7c0.5-0.4,1-0.7,1.6-0.7s1.1,0.2,1.6,0.7C196,11.1,196.2,11.7,196.2,12.4z M195.5,43.7h-3.2V21.1h3.2V43.7z"
		/>
	<path class="st0" d="M226,32.4c0,1.7-0.3,3.3-0.9,4.7c-0.6,1.5-1.4,2.7-2.5,3.8c-1.1,1.1-2.3,1.9-3.8,2.5c-1.5,0.6-3.1,0.9-4.9,0.9
		c-1.7,0-3.3-0.3-4.8-0.9c-1.5-0.6-2.7-1.4-3.8-2.5c-1.1-1.1-1.9-2.3-2.5-3.8c-0.6-1.5-0.9-3-0.9-4.7c0-1.7,0.3-3.3,0.9-4.7
		c0.6-1.5,1.4-2.7,2.5-3.8c1.1-1.1,2.3-1.9,3.8-2.5c1.5-0.6,3.1-0.9,4.8-0.9c1.8,0,3.4,0.3,4.9,0.9c1.5,0.6,2.7,1.4,3.8,2.5
		s1.9,2.3,2.5,3.8C225.7,29.1,226,30.7,226,32.4z M222.5,32.4c0-1.3-0.2-2.4-0.6-3.5c-0.4-1.1-1-2-1.7-2.9c-0.7-0.8-1.6-1.4-2.7-1.9
		c-1-0.5-2.2-0.7-3.6-0.7s-2.5,0.2-3.6,0.7c-1,0.5-1.9,1.1-2.7,1.9c-0.7,0.8-1.3,1.8-1.7,2.9c-0.4,1.1-0.6,2.3-0.6,3.5
		c0,1.3,0.2,2.4,0.6,3.5c0.4,1.1,1,2,1.7,2.9c0.7,0.8,1.6,1.4,2.7,1.9c1,0.5,2.2,0.7,3.6,0.7s2.5-0.2,3.6-0.7c1-0.5,1.9-1.1,2.7-1.9
		c0.7-0.8,1.3-1.8,1.7-2.9C222.3,34.8,222.5,33.7,222.5,32.4z"/>
	<path class="st0" d="M232.2,28.1c0-1,0-2-0.1-3c0-1-0.1-2.4-0.1-4h3.1v4.2h0.1c0.2-0.6,0.5-1.2,1-1.8c0.4-0.6,0.9-1.1,1.5-1.5
		c0.6-0.5,1.3-0.8,2.1-1.1c0.8-0.3,1.7-0.4,2.7-0.4c0.9,0,1.7,0.1,2.4,0.3l-0.6,3.1c-0.4-0.2-1-0.2-1.8-0.2c-1.2,0-2.3,0.2-3.1,0.7
		c-0.9,0.5-1.6,1.1-2.2,1.8c-0.6,0.7-1,1.5-1.3,2.3c-0.3,0.8-0.4,1.6-0.4,2.4v12.8h-3.2V28.1z"/>
	<path class="st0" d="M252.5,12.4c0,0.7-0.2,1.2-0.7,1.7c-0.5,0.4-1,0.7-1.6,0.7s-1.1-0.2-1.6-0.7c-0.5-0.4-0.7-1-0.7-1.7
		c0-0.7,0.2-1.2,0.7-1.7c0.5-0.4,1-0.7,1.6-0.7s1.1,0.2,1.6,0.7C252.3,11.1,252.5,11.7,252.5,12.4z M251.8,43.7h-3.2V21.1h3.2V43.7z
		"/>
	<path class="st0" d="M271.2,24h-6.5v13.3c0,0.8,0.1,1.5,0.2,2.1c0.2,0.5,0.4,0.9,0.7,1.2c0.3,0.3,0.6,0.5,1,0.6
		c0.4,0.1,0.8,0.2,1.3,0.2c0.5,0,1.1-0.1,1.7-0.2c0.6-0.2,1.1-0.4,1.6-0.6l0.1,3c-1.2,0.5-2.6,0.8-4.3,0.8c-0.6,0-1.2-0.1-1.9-0.2
		c-0.7-0.2-1.3-0.5-1.8-0.9c-0.5-0.5-1-1.1-1.4-1.8c-0.4-0.8-0.5-1.8-0.5-3V24h-4.8v-2.9h4.8v-6.4h3.2v6.4h6.5V24z"/>
	<path class="st0" d="M290.1,29.8v-0.6c0-3.9-1.9-5.9-5.8-5.9c-2.6,0-4.9,0.9-6.9,2.7l-1.9-2.3c2.1-2.2,5.3-3.3,9.6-3.3
		c1.1,0,2.2,0.2,3.2,0.5c1,0.3,1.9,0.8,2.6,1.5c0.7,0.7,1.3,1.5,1.8,2.5c0.5,1,0.7,2.2,0.7,3.6v10.1c0,0.9,0,1.8,0.1,2.7
		c0.1,1,0.2,1.7,0.3,2.3h-3.1c-0.1-0.5-0.2-1.1-0.2-1.8c0-0.6-0.1-1.3-0.1-1.9h-0.1c-0.9,1.5-2,2.6-3.3,3.3c-1.3,0.7-2.8,1-4.7,1
		c-1,0-2-0.1-2.9-0.4c-0.9-0.3-1.8-0.7-2.5-1.3s-1.3-1.3-1.7-2.1c-0.4-0.8-0.7-1.8-0.7-2.9c0-1.8,0.5-3.3,1.4-4.3
		c1-1,2.1-1.8,3.6-2.3c1.4-0.5,3-0.8,4.6-1c1.6-0.1,3.1-0.2,4.5-0.2H290.1z M288.4,32.4c-0.8,0-1.8,0-3,0.1
		c-1.2,0.1-2.4,0.3-3.5,0.6c-1.1,0.3-2.1,0.8-2.9,1.4c-0.8,0.6-1.2,1.5-1.2,2.7c0,0.7,0.2,1.4,0.5,1.9c0.3,0.5,0.7,1,1.2,1.3
		c0.5,0.3,1.1,0.6,1.7,0.7c0.6,0.1,1.3,0.2,1.9,0.2c1.2,0,2.2-0.2,3-0.6c0.9-0.4,1.6-0.9,2.2-1.6c0.6-0.7,1-1.4,1.3-2.3
		c0.3-0.9,0.4-1.8,0.4-2.8v-1.6H288.4z"/>
	<path class="st0" d="M301,28.1c0-1,0-2-0.1-3c0-1-0.1-2.4-0.1-4h3.1v4.2h0.1c0.2-0.6,0.5-1.2,1-1.8c0.4-0.6,0.9-1.1,1.5-1.5
		c0.6-0.5,1.3-0.8,2.1-1.1c0.8-0.3,1.7-0.4,2.7-0.4c0.9,0,1.7,0.1,2.4,0.3l-0.6,3.1c-0.4-0.2-1-0.2-1.8-0.2c-1.2,0-2.3,0.2-3.1,0.7
		c-0.9,0.5-1.6,1.1-2.2,1.8c-0.6,0.7-1,1.5-1.3,2.3c-0.3,0.8-0.4,1.6-0.4,2.4v12.8H301V28.1z"/>
	<path class="st0" d="M321.3,12.4c0,0.7-0.2,1.2-0.7,1.7c-0.5,0.4-1,0.7-1.6,0.7c-0.6,0-1.1-0.2-1.6-0.7c-0.5-0.4-0.7-1-0.7-1.7
		c0-0.7,0.2-1.2,0.7-1.7c0.5-0.4,1-0.7,1.6-0.7c0.6,0,1.1,0.2,1.6,0.7C321.1,11.1,321.3,11.7,321.3,12.4z M320.6,43.7h-3.2V21.1h3.2
		V43.7z"/>
	<path class="st0" d="M342.8,29.8v-0.6c0-3.9-1.9-5.9-5.8-5.9c-2.6,0-4.9,0.9-6.9,2.7l-1.9-2.3c2.1-2.2,5.3-3.3,9.6-3.3
		c1.1,0,2.2,0.2,3.2,0.5c1,0.3,1.9,0.8,2.6,1.5c0.7,0.7,1.3,1.5,1.8,2.5c0.5,1,0.7,2.2,0.7,3.6v10.1c0,0.9,0,1.8,0.1,2.7
		c0.1,1,0.2,1.7,0.3,2.3h-3.1c-0.1-0.5-0.2-1.1-0.2-1.8c0-0.6-0.1-1.3-0.1-1.9h-0.1c-0.9,1.5-2,2.6-3.3,3.3c-1.3,0.7-2.8,1-4.7,1
		c-1,0-2-0.1-2.9-0.4c-0.9-0.3-1.8-0.7-2.5-1.3s-1.3-1.3-1.7-2.1c-0.4-0.8-0.7-1.8-0.7-2.9c0-1.8,0.5-3.3,1.4-4.3
		c1-1,2.1-1.8,3.6-2.3c1.4-0.5,3-0.8,4.6-1c1.6-0.1,3.1-0.2,4.5-0.2H342.8z M341.2,32.4c-0.8,0-1.8,0-3,0.1
		c-1.2,0.1-2.4,0.3-3.5,0.6c-1.1,0.3-2.1,0.8-2.9,1.4c-0.8,0.6-1.2,1.5-1.2,2.7c0,0.7,0.2,1.4,0.5,1.9c0.3,0.5,0.7,1,1.2,1.3
		c0.5,0.3,1.1,0.6,1.7,0.7c0.6,0.1,1.3,0.2,1.9,0.2c1.2,0,2.2-0.2,3-0.6c0.9-0.4,1.6-0.9,2.2-1.6c0.6-0.7,1-1.4,1.3-2.3
		c0.3-0.9,0.4-1.8,0.4-2.8v-1.6H341.2z"/>
	<path class="st0" d="M365.4,26.5c-0.5-0.9-1.1-1.7-1.9-2.2c-0.8-0.5-1.8-0.8-3-0.8c-0.5,0-1.1,0.1-1.7,0.2
		c-0.6,0.1-1.1,0.3-1.5,0.6c-0.5,0.3-0.8,0.6-1.1,1c-0.3,0.4-0.4,0.9-0.4,1.5c0,1.1,0.4,1.8,1.1,2.3c0.7,0.5,1.9,0.9,3.3,1.3
		l3.2,0.8c1.6,0.4,2.9,1.1,3.9,2.2c1,1.1,1.6,2.4,1.6,4c0,1.2-0.3,2.3-0.7,3.2c-0.5,0.9-1.2,1.6-2,2.2c-0.8,0.6-1.8,1-2.8,1.2
		c-1.1,0.3-2.1,0.4-3.2,0.4c-1.7,0-3.4-0.3-4.9-1c-1.5-0.7-2.8-1.8-3.8-3.4l2.8-1.9c0.6,1,1.5,1.9,2.4,2.5c1,0.6,2.2,0.9,3.5,0.9
		c0.6,0,1.3-0.1,1.9-0.2c0.6-0.1,1.2-0.4,1.7-0.7c0.5-0.3,0.9-0.7,1.2-1.2c0.3-0.5,0.5-1,0.5-1.7c0-1.1-0.4-1.9-1.3-2.4
		c-0.8-0.5-1.9-0.9-3-1.2l-3.1-0.7c-0.4-0.1-0.9-0.3-1.6-0.5c-0.7-0.2-1.3-0.6-1.9-1c-0.6-0.5-1.2-1-1.6-1.8
		c-0.5-0.7-0.7-1.6-0.7-2.7c0-1.2,0.2-2.2,0.7-3c0.5-0.9,1.1-1.6,1.9-2.1c0.8-0.5,1.7-1,2.7-1.2c1-0.3,2-0.4,3.1-0.4
		c1.6,0,3,0.3,4.4,0.9c1.4,0.6,2.4,1.7,3.1,3.1L365.4,26.5z"/>
</g>
</svg>
