<svg xmlns="http://www.w3.org/2000/svg" width="44" height="31.432" viewBox="0 0 44 31.432">
  <g id="Grupo_206" data-name="Grupo 206" transform="translate(-1.996 -18.734)">
    <path id="Trazado_75" data-name="Trazado 75" d="M45.984,20.317a1.029,1.029,0,0,0,0-.22.679.679,0,0,0-.157-.613.231.231,0,0,0-.11-.189h0a1.791,1.791,0,0,0-.267-.22,1.541,1.541,0,0,0-.22-.141.948.948,0,0,0-.283,0,1.105,1.105,0,0,0-.534-.189H3.567a1.053,1.053,0,0,0-.314,0,.948.948,0,0,0-.283,0,1.739,1.739,0,0,0-.22.141l-.267.22h0a.231.231,0,0,1-.11.189,1.131,1.131,0,0,0-.157.3,1.169,1.169,0,0,0,0,.314,1.121,1.121,0,0,0-.22.408V48.6a1.823,1.823,0,0,0,.094.5h0a.5.5,0,0,1,.079.126,1.8,1.8,0,0,0,.22.33l.141.126a1.449,1.449,0,0,0,.314.22A.492.492,0,0,0,3,49.978a1.583,1.583,0,0,0,.566.189H44.413a1.566,1.566,0,0,0,.55-.11.476.476,0,0,0,.157-.079,1.412,1.412,0,0,0,.314-.22l.141-.126a1.654,1.654,0,0,0,.22-.33.545.545,0,0,1,.079-.126h0a1.757,1.757,0,0,0,.11-.581ZM26.692,33.262l-2.7,2.278-2.7-2.278h0L7.856,21.888H40.124ZM5.138,23.711,17.847,34.456,5.138,45.2Zm37.7,0V45.2L30.133,34.456ZM7.856,47.024l12.427-10.51,2.686,2.278a1.571,1.571,0,0,0,2.042,0L27.7,36.514l12.427,10.51Z" transform="translate(0)" fill="#873bff"/>
  </g>
</svg>
