<svg xmlns="http://www.w3.org/2000/svg" width="37.927" height="27.093" viewBox="0 0 37.927 27.093">
  <g id="Grupo_206" data-name="Grupo 206" transform="translate(0 0)">
    <path id="Trazado_75" data-name="Trazado 75" d="M39.913,20.1a.887.887,0,0,0,0-.19.585.585,0,0,0-.135-.528.2.2,0,0,0-.095-.163h0a1.544,1.544,0,0,0-.23-.19,1.328,1.328,0,0,0-.19-.122.817.817,0,0,0-.244,0,.953.953,0,0,0-.46-.162H3.35a.908.908,0,0,0-.271,0,.817.817,0,0,0-.244,0,1.5,1.5,0,0,0-.19.122l-.23.19h0a.2.2,0,0,1-.095.163.975.975,0,0,0-.135.257,1.008,1.008,0,0,0,0,.271A.966.966,0,0,0,2,20.1V44.474a1.572,1.572,0,0,0,.081.433h0a.428.428,0,0,1,.068.108,1.552,1.552,0,0,0,.19.284l.122.108a1.249,1.249,0,0,0,.271.19.424.424,0,0,0,.135.068,1.365,1.365,0,0,0,.487.162H38.558a1.35,1.35,0,0,0,.474-.095.411.411,0,0,0,.135-.068,1.217,1.217,0,0,0,.271-.19l.122-.108a1.425,1.425,0,0,0,.19-.284.47.47,0,0,1,.068-.108h0a1.514,1.514,0,0,0,.095-.5ZM23.283,31.257l-2.329,1.964-2.329-1.964h0l-11.578-9.8H34.862ZM4.7,23.024l10.955,9.262L4.7,41.549Zm32.5,0V41.549L26.249,32.286ZM7.047,43.12,17.758,34.06l2.316,1.964a1.354,1.354,0,0,0,1.76,0L24.15,34.06,34.862,43.12Z" transform="translate(-1.996 -18.734)" fill="#fff"/>
  </g>
</svg>
