<svg xmlns="http://www.w3.org/2000/svg" width="690.218" height="507.036" viewBox="0 0 690.218 507.036">
  <g id="Grupo_254" data-name="Grupo 254" transform="translate(-929.517 -235.354)">
    <g id="Grupo_228" data-name="Grupo 228" transform="matrix(0.998, -0.07, 0.07, 0.998, 920.651, 404.376)" opacity="0.37">
      <path id="Trazado_89" data-name="Trazado 89" d="M0,36.6,34.9,56.182,68.1,29.368,42.562,0Z" transform="translate(293.25 206.68)" fill="none" stroke="#fff" stroke-width="2"/>
      <path id="Trazado_90" data-name="Trazado 90" d="M16.174,69.375,62.141,32.347,32.773,0,0,24.26,2.554,60.438Z" transform="translate(269.841 168.8)" fill="none" stroke="#fff" stroke-width="2"/>
      <path id="Trazado_91" data-name="Trazado 91" d="M0,0,99.595,59.161l-18.3,28.091L4.256,39.157Z" transform="translate(272.82 238.175)" fill="none" stroke="#fff" stroke-width="2"/>
      <path id="Trazado_92" data-name="Trazado 92" d="M0,0,6.384,54.9H65.971l7.661-11.066Z" transform="translate(277.502 284.567)" fill="none" stroke="#fff" stroke-width="2"/>
      <path id="Trazado_93" data-name="Trazado 93" d="M0,25.537,40.859,51.074l28.09-25.537L31.5,0Z" transform="translate(333.684 239.878)" fill="none" stroke="#fff" stroke-width="2"/>
      <path id="Trazado_94" data-name="Trazado 94" d="M0,29.367,25.537,0l95.338,58.31-5.959,11.917H66.822Z" transform="translate(383.906 267.968)" fill="none" stroke="#fff" stroke-width="2"/>
      <path id="Trazado_95" data-name="Trazado 95" d="M19.152,0,0,28.516l21.706,8.512H82.569Z" transform="translate(358.795 301.166)" fill="none" stroke="#fff" stroke-width="2"/>
      <path id="Trazado_96" data-name="Trazado 96" d="M256.647,95.764l9.363,99.594H0V147.263s13.194-16.6,17.45-28.942S14.045,69.8,9.363,56.607-2.554,18.3,3.4,9.363,22.983,0,22.983,0L82.144,11.492S123,17.45,134.069,23.834,256.647,95.764,256.647,95.764Z" transform="translate(0 142.411)" fill="none" stroke="#fff" stroke-width="2"/>
      <path id="Trazado_97" data-name="Trazado 97" d="M0,3.831,133.218,81.293V75.334L0,0Z" transform="translate(122.578 149.647)" fill="none" stroke="#fff" stroke-width="2"/>
      <path id="Trazado_98" data-name="Trazado 98" d="M0,3.83l30.644,16.6L28.09,0Z" transform="translate(131.09 141.56)" fill="none" stroke="#fff" stroke-width="2"/>
      <path id="Trazado_99" data-name="Trazado 99" d="M2.98,26.388,45.115,54.9,40.008,0,0,3.831Z" transform="translate(163.863 137.304)" fill="none" stroke="#fff" stroke-width="2"/>
      <path id="Trazado_100" data-name="Trazado 100" d="M5.958,58.735,46.818,82.57,37.88,0,0,3.4Z" transform="translate(208.552 135.176)" fill="none" stroke="#fff" stroke-width="2"/>
      <path id="Trazado_101" data-name="Trazado 101" d="M4.767,39.157l35.411-2.724L37.454,0,0,2.554l2.213,36.6Z" transform="translate(117.811 98.913)" fill="none" stroke="#fff" stroke-width="2"/>
      <path id="Trazado_102" data-name="Trazado 102" d="M3.15,39.667,0,3.064,39.837,0l3.406,36.433Z" transform="translate(160.713 95.508)" fill="none" stroke="#fff" stroke-width="2"/>
      <path id="Trazado_103" data-name="Trazado 103" d="M3.4,38.476,0,3.235,37.965,0l3.916,35.752Z" transform="translate(205.147 92.103)" fill="none" stroke="#fff" stroke-width="2"/>
      <path id="Trazado_104" data-name="Trazado 104" d="M0,43.924,35.411,41.37,32.177,0,0,2.213Z" transform="translate(118.832 50.563)" fill="none" stroke="#fff" stroke-width="2"/>
      <path id="Trazado_105" data-name="Trazado 105" d="M1.533,41.37,34.05,38.646,31.667,0,0,2.043Z" transform="translate(117.3 7.15)" fill="none" stroke="#fff" stroke-width="2"/>
      <path id="Trazado_106" data-name="Trazado 106" d="M3.916,44.945,0,3.745,39.157,0l4.085,41.711Z" transform="translate(155.946 46.137)" fill="none" stroke="#fff" stroke-width="2"/>
      <path id="Trazado_107" data-name="Trazado 107" d="M2.383,40.689,0,2.894,36.433,0l3.745,37.454Z" transform="translate(153.563 3.575)" fill="none" stroke="#fff" stroke-width="2"/>
      <path id="Trazado_108" data-name="Trazado 108" d="M0,3.575l3.576,36.6,38.987-3.745L38.476,0Z" transform="translate(195.784 0)" fill="none" stroke="#fff" stroke-width="2"/>
      <path id="Trazado_109" data-name="Trazado 109" d="M0,3.575,38.135,0l4.086,41.71-38.135,3.4" transform="translate(200.551 41.881)" fill="none" stroke="#fff" stroke-width="2"/>
    </g>
    <g id="Grupo_229" data-name="Grupo 229" transform="matrix(-0.998, 0.07, -0.07, -0.998, 1628.602, 573.368)" opacity="0.37">
      <path id="Trazado_89-2" data-name="Trazado 89" d="M0,36.6,34.9,56.182,68.1,29.368,42.562,0Z" transform="translate(293.25 206.68)" fill="none" stroke="#fff" stroke-width="2"/>
      <path id="Trazado_90-2" data-name="Trazado 90" d="M16.174,69.375,62.141,32.347,32.773,0,0,24.26,2.554,60.438Z" transform="translate(269.841 168.8)" fill="none" stroke="#fff" stroke-width="2"/>
      <path id="Trazado_91-2" data-name="Trazado 91" d="M0,0,99.595,59.161l-18.3,28.091L4.256,39.157Z" transform="translate(272.82 238.175)" fill="none" stroke="#fff" stroke-width="2"/>
      <path id="Trazado_92-2" data-name="Trazado 92" d="M0,0,6.384,54.9H65.971l7.661-11.066Z" transform="translate(277.502 284.567)" fill="none" stroke="#fff" stroke-width="2"/>
      <path id="Trazado_93-2" data-name="Trazado 93" d="M0,25.537,40.859,51.074l28.09-25.537L31.5,0Z" transform="translate(333.684 239.878)" fill="none" stroke="#fff" stroke-width="2"/>
      <path id="Trazado_94-2" data-name="Trazado 94" d="M0,29.367,25.537,0l95.338,58.31-5.959,11.917H66.822Z" transform="translate(383.906 267.968)" fill="none" stroke="#fff" stroke-width="2"/>
      <path id="Trazado_95-2" data-name="Trazado 95" d="M19.152,0,0,28.516l21.706,8.512H82.569Z" transform="translate(358.795 301.166)" fill="none" stroke="#fff" stroke-width="2"/>
      <path id="Trazado_96-2" data-name="Trazado 96" d="M256.647,95.764l9.363,99.594H0V147.263s13.194-16.6,17.45-28.942S14.045,69.8,9.363,56.607-2.554,18.3,3.4,9.363,22.983,0,22.983,0L82.144,11.492S123,17.45,134.069,23.834,256.647,95.764,256.647,95.764Z" transform="translate(0 142.411)" fill="none" stroke="#fff" stroke-width="2"/>
      <path id="Trazado_97-2" data-name="Trazado 97" d="M0,3.831,133.218,81.293V75.334L0,0Z" transform="translate(122.578 149.647)" fill="none" stroke="#fff" stroke-width="2"/>
      <path id="Trazado_98-2" data-name="Trazado 98" d="M0,3.83l30.644,16.6L28.09,0Z" transform="translate(131.09 141.56)" fill="none" stroke="#fff" stroke-width="2"/>
      <path id="Trazado_99-2" data-name="Trazado 99" d="M2.98,26.388,45.115,54.9,40.008,0,0,3.831Z" transform="translate(163.863 137.304)" fill="none" stroke="#fff" stroke-width="2"/>
      <path id="Trazado_100-2" data-name="Trazado 100" d="M5.958,58.735,46.818,82.57,37.88,0,0,3.4Z" transform="translate(208.552 135.176)" fill="none" stroke="#fff" stroke-width="2"/>
      <path id="Trazado_101-2" data-name="Trazado 101" d="M4.767,39.157l35.411-2.724L37.454,0,0,2.554l2.213,36.6Z" transform="translate(117.811 98.913)" fill="none" stroke="#fff" stroke-width="2"/>
      <path id="Trazado_102-2" data-name="Trazado 102" d="M3.15,39.667,0,3.064,39.837,0l3.406,36.433Z" transform="translate(160.713 95.508)" fill="none" stroke="#fff" stroke-width="2"/>
      <path id="Trazado_103-2" data-name="Trazado 103" d="M3.4,38.476,0,3.235,37.965,0l3.916,35.752Z" transform="translate(205.147 92.103)" fill="none" stroke="#fff" stroke-width="2"/>
      <path id="Trazado_104-2" data-name="Trazado 104" d="M0,43.924,35.411,41.37,32.177,0,0,2.213Z" transform="translate(118.832 50.563)" fill="none" stroke="#fff" stroke-width="2"/>
      <path id="Trazado_105-2" data-name="Trazado 105" d="M1.533,41.37,34.05,38.646,31.667,0,0,2.043Z" transform="translate(117.3 7.15)" fill="none" stroke="#fff" stroke-width="2"/>
      <path id="Trazado_106-2" data-name="Trazado 106" d="M3.916,44.945,0,3.745,39.157,0l4.085,41.711Z" transform="translate(155.946 46.137)" fill="none" stroke="#fff" stroke-width="2"/>
      <path id="Trazado_107-2" data-name="Trazado 107" d="M2.383,40.689,0,2.894,36.433,0l3.745,37.454Z" transform="translate(153.563 3.575)" fill="none" stroke="#fff" stroke-width="2"/>
      <path id="Trazado_108-2" data-name="Trazado 108" d="M0,3.575l3.576,36.6,38.987-3.745L38.476,0Z" transform="translate(195.784 0)" fill="none" stroke="#fff" stroke-width="2"/>
      <path id="Trazado_109-2" data-name="Trazado 109" d="M0,3.575,38.135,0l4.086,41.71-38.135,3.4" transform="translate(200.551 41.881)" fill="none" stroke="#fff" stroke-width="2"/>
    </g>
  </g>
</svg>
