<svg xmlns="http://www.w3.org/2000/svg" width="34.43" height="33.081" viewBox="0 0 34.43 33.081">
  <path id="Trazado_118" data-name="Trazado 118" d="M13.746,6.763A4.664,4.664,0,0,0,9.1,11.407a1.238,1.238,0,1,0,2.477.035v-.035A2.139,2.139,0,0,1,13.746,9.24H30.684a2.139,2.139,0,0,1,2.167,2.167,1.238,1.238,0,0,0,2.477.035c0-.011,0-.023,0-.035a4.664,4.664,0,0,0-4.643-4.644ZM9.633,13.906A4.655,4.655,0,0,0,5,18.549V35.211a4.646,4.646,0,0,0,4.633,4.633H34.786a4.655,4.655,0,0,0,4.644-4.633V18.549a4.664,4.664,0,0,0-4.644-4.643Zm0,2.477H34.786a2.139,2.139,0,0,1,2.167,2.167V35.211a2.13,2.13,0,0,1-2.167,2.156H9.633a2.121,2.121,0,0,1-2.156-2.156V18.549A2.13,2.13,0,0,1,9.633,16.382Zm9.862,2.642a1.238,1.238,0,0,0-1.238,1.238v2.653H15.6a1.239,1.239,0,0,0-1.238,1.238v5.429A1.238,1.238,0,0,0,15.6,30.822h2.653v2.664a1.238,1.238,0,0,0,1.238,1.238h5.429a1.238,1.238,0,0,0,1.238-1.238V30.822h2.664a1.238,1.238,0,0,0,1.238-1.238V24.155a1.239,1.239,0,0,0-1.238-1.238H26.162V20.263a1.238,1.238,0,0,0-1.238-1.238ZM20.733,21.5h2.952v2.653a1.238,1.238,0,0,0,1.238,1.238h2.664v2.952H24.924a1.238,1.238,0,0,0-1.238,1.238v2.665H20.733V29.583a1.238,1.238,0,0,0-1.238-1.238H16.842V25.393h2.653a1.238,1.238,0,0,0,1.238-1.238Z" transform="translate(-5 -6.763)" fill="#873bff"/>
</svg>
