<svg xmlns="http://www.w3.org/2000/svg" width="33.533" height="35.565" viewBox="0 0 33.533 35.565">
  <g id="Grupo_21" data-name="Grupo 21" transform="translate(-18.895 -17.79)">
    <g id="Grupo_13" data-name="Grupo 13" transform="translate(18.895 17.79)">
      <g id="Grupo_12" data-name="Grupo 12" transform="translate(0 0)">
        <path id="Trazado_1" data-name="Trazado 1" d="M11.481,20.322a1.524,1.524,0,0,0-1.524,1.524v9.146a1.524,1.524,0,0,0,3.048,0V21.846A1.525,1.525,0,0,0,11.481,20.322Zm5.081-6.6a1.524,1.524,0,0,0-1.524,1.524V37.6a1.524,1.524,0,0,0,3.048,0V15.241A1.525,1.525,0,0,0,16.562,13.717Zm5.081-5.081a1.524,1.524,0,0,0-1.524,1.524V42.678a1.524,1.524,0,0,0,3.049,0V10.16A1.525,1.525,0,0,0,21.643,8.636Zm5.081,8.892A1.524,1.524,0,0,0,25.2,19.052V33.786a1.524,1.524,0,0,0,3.048,0V19.052A1.524,1.524,0,0,0,26.724,17.528ZM31.8,8.636A1.524,1.524,0,0,0,30.28,10.16V42.678a1.524,1.524,0,1,0,3.048,0V10.16A1.524,1.524,0,0,0,31.8,8.636Zm5.081,7.621a1.524,1.524,0,0,0-1.524,1.524V35.056a1.524,1.524,0,1,0,3.048,0V17.782A1.525,1.525,0,0,0,36.885,16.257Zm5.081,4.319A1.525,1.525,0,0,0,40.442,22.1v8.638a1.524,1.524,0,0,0,3.048,0V22.1A1.525,1.525,0,0,0,41.966,20.576Z" transform="translate(-9.957 -8.636)" fill="#873bff"/>
      </g>
    </g>
  </g>
</svg>
