<svg id="Capa_1" data-name="Capa 1" xmlns="http://www.w3.org/2000/svg" viewBox="0 0 60 60"><defs><style>.cls-1{fill:#757575;}</style></defs><title>icons</title><path class="cls-1" d="M42.82,40.66H17.14L17,39.83a13.4,13.4,0,0,1-.2-2.19V27a13.18,13.18,0,0,1,26.36,0V37.64a13.3,13.3,0,0,1-.2,2.19Zm-24-2H41.1a9,9,0,0,0,.06-1V27A11.18,11.18,0,0,0,18.8,27V37.64A9,9,0,0,0,18.86,38.66Z"/><path class="cls-1" d="M12.19,25.58l-.16,0a1,1,0,0,1-.83-1.14,19.26,19.26,0,0,1,9.72-13.69,1,1,0,1,1,1,1.75,17.24,17.24,0,0,0-8.7,12.26A1,1,0,0,1,12.19,25.58Z"/><path class="cls-1" d="M47.81,25.58a1,1,0,0,1-1-.84,17.24,17.24,0,0,0-8.7-12.26,1,1,0,1,1,1-1.75A19.26,19.26,0,0,1,48.8,24.42,1,1,0,0,1,48,25.56Z"/><path class="cls-1" d="M45.9,40.66H14.06a1,1,0,0,1,0-2H45.9a1,1,0,1,1,0,2Z"/><path class="cls-1" d="M30,49.4A5.38,5.38,0,0,1,24.61,44a1,1,0,0,1,2,0,3.37,3.37,0,1,0,6.74,0,1,1,0,0,1,2,0A5.38,5.38,0,0,1,30,49.4Z"/></svg>