<svg xmlns="http://www.w3.org/2000/svg" width="35.341" height="35.339" viewBox="0 0 35.341 35.339">
  <g id="Grupo_212" data-name="Grupo 212" transform="translate(0 0)">
    <path id="Trazado_76" data-name="Trazado 76" d="M-59.453,238.073l-.039-.118c-.667-1.531-4.593-4.867-4.75-5.025a19.149,19.149,0,0,0-1.923-1.492,4.5,4.5,0,0,0-1.452-.628,2.943,2.943,0,0,0-2.669,1.178c-.039.039-.078.118-.157.157-.236.236-.51.589-.824.9a14.957,14.957,0,0,1-1.3,1.413,10.571,10.571,0,0,1-2.512-1.492,37.134,37.134,0,0,1-6.006-5.927l-.039-.039a11.349,11.349,0,0,1-1.531-2.591,14.954,14.954,0,0,1,1.413-1.3,6.274,6.274,0,0,0,.9-.824l.157-.157A2.9,2.9,0,0,0-79,219.466a3.275,3.275,0,0,0-.628-1.452,19.155,19.155,0,0,0-1.492-1.923c-.157-.157-3.494-4.082-5.025-4.75l-.118-.039-.118-.039a2.882,2.882,0,0,0-2.63.667,23.329,23.329,0,0,0-3.18,3.3,11.03,11.03,0,0,0-2.237,3.847,7.508,7.508,0,0,0,.393,5.142,21,21,0,0,0,3.925,7.223,64.449,64.449,0,0,0,11.07,10.873,26.444,26.444,0,0,0,6.555,3.494,8.483,8.483,0,0,0,3.337.707,6.029,6.029,0,0,0,1.884-.275A11.4,11.4,0,0,0-63.417,244a23.329,23.329,0,0,0,3.3-3.18,2.882,2.882,0,0,0,.667-2.63Zm-5.927,3.494a8.4,8.4,0,0,1-2.748,1.649l-.079.039a4.842,4.842,0,0,1-3.062-.353l-.157-.039a22.359,22.359,0,0,1-5.731-3.062A62.316,62.316,0,0,1-87.6,229.476a17.777,17.777,0,0,1-3.376-6.124l-.079-.236a4.942,4.942,0,0,1-.393-3.023l.039-.118a8.687,8.687,0,0,1,1.649-2.748,18.277,18.277,0,0,1,2.669-2.787,36.181,36.181,0,0,1,3.572,3.69,14.975,14.975,0,0,1,1.256,1.609v.039c-.039.039-.079.039-.079.078-.079.079-.157.118-.2.2-.157.157-.471.432-.746.667-1.3,1.1-2.2,1.923-2.473,2.866-.393,1.3.471,2.9,2.08,5.221l.039.039a39.9,39.9,0,0,0,6.555,6.595c.157.118,3.376,2.787,5.378,2.159.942-.275,1.727-1.178,2.866-2.473.275-.314.51-.589.667-.746l.2-.2.079-.078h.039a11.9,11.9,0,0,1,1.609,1.256,41.04,41.04,0,0,1,3.69,3.572A23.41,23.41,0,0,1-65.38,241.566Z" transform="translate(94.705 -211.173)" fill="#fff"/>
  </g>
</svg>
