<svg xmlns="http://www.w3.org/2000/svg" width="25" height="31.944" viewBox="0 0 25 31.944">
  <g id="Grupo_245" data-name="Grupo 245" transform="translate(-14 -4)">
    <path id="Trazado_119" data-name="Trazado 119" d="M16.778,16.5A6.979,6.979,0,0,0,14,22.056v9.722a4.167,4.167,0,0,0,4.167,4.167H34.833A4.167,4.167,0,0,0,39,31.778V22.056A6.979,6.979,0,0,0,36.222,16.5l-2.778-2.083V12.333a2.778,2.778,0,0,0,2.778-2.778V8.167A4.167,4.167,0,0,0,32.056,4H20.944a4.167,4.167,0,0,0-4.167,4.167V9.556a2.778,2.778,0,0,0,2.778,2.778v2.083Zm2.778-8.333a1.389,1.389,0,0,1,1.389-1.389H32.056a1.389,1.389,0,0,1,1.389,1.389V9.556H19.556Zm2.222,8.056a1.389,1.389,0,0,0,.556-1.111V12.333h8.333v2.778a1.389,1.389,0,0,0,.556,1.111l3.333,2.5a4.166,4.166,0,0,1,1.667,3.333v9.722a1.389,1.389,0,0,1-1.389,1.389H18.167a1.389,1.389,0,0,1-1.389-1.389V22.056a4.166,4.166,0,0,1,1.667-3.333Z" fill="#873bff"/>
    <path id="Trazado_120" data-name="Trazado 120" d="M35.389,54.944h2.778v2.778a1.389,1.389,0,0,0,2.778,0V54.944h2.778a1.389,1.389,0,1,0,0-2.778H40.944V49.389a1.389,1.389,0,1,0-2.778,0v2.778H35.389a1.389,1.389,0,0,0,0,2.778Z" transform="translate(-13.056 -28.722)" fill="#873bff"/>
  </g>
</svg>
