<?xml version="1.0" encoding="utf-8"?>
<!-- Generator: Adobe Illustrator 22.1.0, SVG Export Plug-In . SVG Version: 6.00 Build 0)  -->
<svg version="1.1" id="Capa_1" xmlns="http://www.w3.org/2000/svg" xmlns:xlink="http://www.w3.org/1999/xlink" x="0px" y="0px"
	 viewBox="0 0 932.6 1156.4" style="enable-background:new 0 0 932.6 1156.4;" xml:space="preserve">
<style type="text/css">
	.st0{fill:#873BFF;}
</style>
<g id="Grupo_199" transform="translate(3172.89 -1271.363)">
	<g id="Grupo_197" transform="translate(-3387 -212)">
		<ellipse id="Elipse_83" class="st0" cx="426.9" cy="2542" rx="5" ry="5"/>
		<ellipse id="Elipse_84" class="st0" cx="1023.9" cy="2634" rx="5" ry="5"/>
		<ellipse id="Elipse_82" class="st0" cx="633.9" cy="2469.8" rx="10" ry="10"/>
		<ellipse id="Elipse_80" class="st0" cx="219.9" cy="2294" rx="5" ry="5"/>
	</g>
	<g id="Grupo_198" transform="translate(-3387 -212)">
		<ellipse id="Elipse_47" class="st0" cx="695.9" cy="2139" rx="5" ry="5"/>
		<ellipse id="Elipse_85" class="st0" cx="1140.9" cy="2210" rx="5" ry="5"/>
		<ellipse id="Elipse_38" class="st0" cx="754" cy="1507" rx="8.5" ry="8.5"/>
		<ellipse id="Elipse_44" class="st0" cx="433.6" cy="1595.6" rx="8.2" ry="8.2"/>
		<ellipse id="Elipse_79" class="st0" cx="362.6" cy="2042.6" rx="8.5" ry="8.5"/>
		<ellipse id="Elipse_16" class="st0" cx="870.4" cy="1729.8" rx="3.7" ry="3.7"/>
		<ellipse id="Elipse_45" class="st0" cx="770.7" cy="1764.5" rx="5" ry="5"/>
		<ellipse id="Elipse_43" class="st0" cx="292" cy="1845.9" rx="3.9" ry="3.9"/>
		<ellipse id="Elipse_37" class="st0" cx="301.2" cy="1635.9" rx="3.5" ry="3.5"/>
		<ellipse id="Elipse_81" class="st0" cx="231.7" cy="2081.4" rx="5" ry="5"/>
		<ellipse id="Elipse_40" class="st0" cx="878.8" cy="1489.2" rx="5" ry="5"/>
	</g>
</g>
</svg>
