<svg id="Capa_1" data-name="Capa 1" xmlns="http://www.w3.org/2000/svg" viewBox="0 0 60 60"><defs><style>.cls-1{fill:#757575;}</style></defs><title>icons</title><path class="cls-1" d="M39.2,52.29H21a1.48,1.48,0,0,1-.82-.2A12.8,12.8,0,0,1,16,48.76a6.67,6.67,0,0,1-1.76-3.39c-.33-2,.46-4.95,2.71-6a15.61,15.61,0,0,1,.08-3.86c.07-.35.24-1.18.53-2.27l.14-.5a4,4,0,0,0,.12-.43l.06-.18a19.32,19.32,0,0,0,.52-6.75A5.88,5.88,0,0,1,19.94,21a4.4,4.4,0,0,1,2.94-1.4h3.37v.28h1v1.72H22.92a2.48,2.48,0,0,0-1.54.78,4,4,0,0,0-1,2.93,21.15,21.15,0,0,1-.61,7.5l0,.12-.12.43c0,.14-.09.29-.13.45-.27,1-.43,1.81-.48,2.07A17.22,17.22,0,0,0,19,40l.11,1.1H18.07c-1.47.43-2.06,2.56-1.83,4a4.74,4.74,0,0,0,1.29,2.36A11.18,11.18,0,0,0,21,50.29H39a11.8,11.8,0,0,0,3.45-2.81,5,5,0,0,0,1.32-2.41c.21-1.36-.36-3.51-1.76-3.88L41.34,41l-.07-.68c-.22-2.08-.34-3.27-.38-4v-.07c0-.35-.06-.71-.12-1L40.57,34l-.08-.42,0-.2a31.9,31.9,0,0,1-.19-8,4.14,4.14,0,0,0-1-3,2.4,2.4,0,0,0-1.69-.79H33V19.86h1v-.28h3.6A4.37,4.37,0,0,1,40.73,21a6.08,6.08,0,0,1,1.52,4.53A29.75,29.75,0,0,0,42.43,33l0,.18q0,.2.09.45l.2,1.25a12.1,12.1,0,0,1,.14,1.21v.11c0,.69.15,1.89.3,3.3,2.18,1.06,2.83,4,2.55,5.88A7,7,0,0,1,44,48.77a13.86,13.86,0,0,1-4.06,3.29A1.28,1.28,0,0,1,39.2,52.29Z"/><path class="cls-1" d="M37.48,43.49h-15V19.58h15Zm-13-2h11V21.58h-11Z"/><path class="cls-1" d="M40,52.29H20.05V41.49H40Zm-17.9-2H38v-6.8H22.05Z"/><rect class="cls-1" x="23.52" y="30.53" width="12.96" height="2"/><path class="cls-1" d="M34.78,17.89H25.22a2.88,2.88,0,0,1-2.3-1.07,2.36,2.36,0,0,1-.48-2.08l1.07-4.93a2.81,2.81,0,0,1,2.79-2.1h7.3a2.81,2.81,0,0,1,2.79,2.1l1.18,4.94a2.41,2.41,0,0,1-.51,2.1A3,3,0,0,1,34.78,17.89ZM26.3,9.71a.83.83,0,0,0-.84.53l-1.07,4.94a.39.39,0,0,0,.1.4.89.89,0,0,0,.73.31h9.56a1,1,0,0,0,.74-.32.39.39,0,0,0,.1-.37l-1.18-4.94a.82.82,0,0,0-.84-.55Z"/><path class="cls-1" d="M22.05,42.49h-2c0-.8-1.1-1.44-2.45-1.44v-2C20.14,39.05,22.05,40.53,22.05,42.49Z"/><path class="cls-1" d="M40,42.49H38c0-2,1.91-3.44,4.45-3.44v2C41.05,41.05,40,41.69,40,42.49Z"/><rect class="cls-1" x="25.15" y="17.32" width="2" height="2.35"/><rect class="cls-1" x="32.85" y="17.32" width="2" height="2.35"/></svg>