<svg id="Capa_1" data-name="Capa 1" xmlns="http://www.w3.org/2000/svg" viewBox="0 0 60 60"><defs><style>.cls-1{fill:#757575;}</style></defs><title>icons</title><path class="cls-1" d="M38.43,50.41a3.5,3.5,0,0,1-1.34-.28,3.37,3.37,0,0,1-1.81-1.88L33,42.61l-6.85-8.39V27.13l-.95.48L24.1,31.3a3.38,3.38,0,1,1-6.45-2l2.13-6.39,9-4.5,5.3,2.67V32.78l5.36,6.29,2.44,6.72A3.39,3.39,0,0,1,40,50.05l-.25.11A3.6,3.6,0,0,1,38.43,50.41ZM28.14,33.51l6.64,8.2,2.36,5.8a1.37,1.37,0,0,0,.75.78,1.35,1.35,0,0,0,1.06,0l.26-.1A1.38,1.38,0,0,0,40,46.46l-2.31-6.37-5.6-6.58V22.28l-3.3-1.67L21.41,24.3l-1.87,5.6a1.39,1.39,0,0,0,1.92,1.69,1.37,1.37,0,0,0,.72-.86l1.34-4.52,4.62-2.32Z"/><path class="cls-1" d="M23.23,48.51a3.37,3.37,0,0,1-2.12-.75,3.42,3.42,0,0,1-.64-4.71l7.6-9.54,4.69,5.76-6.82,7.92a3.35,3.35,0,0,1-2.27,1.29A3.15,3.15,0,0,1,23.23,48.51ZM28.09,36.7l-6,7.56a1.44,1.44,0,0,0,1.36,2.24,1.45,1.45,0,0,0,1-.56l5.76-6.7Z"/><path class="cls-1" d="M39.09,34a3.39,3.39,0,0,1-2-.66l-4.78-3.81V20.42L41.2,27.8A3.44,3.44,0,0,1,39.09,34Zm-4.8-5.44,4,3.19a1.42,1.42,0,0,0,1.93-.29,1.45,1.45,0,0,0-.25-2l-5.67-4.7Z"/><path class="cls-1" d="M33.29,19.37a4.89,4.89,0,1,1,4.88-4.88A4.89,4.89,0,0,1,33.29,19.37Zm0-7.77a2.89,2.89,0,1,0,2.88,2.89A2.89,2.89,0,0,0,33.29,11.6Z"/></svg>