<svg xmlns="http://www.w3.org/2000/svg" width="590.582" height="616.582" viewBox="0 0 590.582 616.582">
  <g id="Grupo_195" data-name="Grupo 195" transform="translate(-871.11 -5367.227)">
    <ellipse id="Elipse_86" data-name="Elipse 86" cx="13.755" cy="13.755" rx="13.755" ry="13.755" transform="matrix(0.985, 0.174, -0.174, 0.985, 1173.491, 5802.637)" fill="#873bff"/>
    <ellipse id="Elipse_90" data-name="Elipse 90" cx="13.755" cy="13.755" rx="13.755" ry="13.755" transform="matrix(0.985, 0.174, -0.174, 0.985, 1117.491, 5388.637)" fill="#873bff"/>
    <ellipse id="Elipse_87" data-name="Elipse 87" cx="4.999" cy="4.999" rx="4.999" ry="4.999" transform="matrix(0.985, 0.174, -0.174, 0.985, 1108.846, 5617.227)" fill="#873bff"/>
    <ellipse id="Elipse_91" data-name="Elipse 91" cx="4.999" cy="4.999" rx="4.999" ry="4.999" transform="matrix(0.985, 0.174, -0.174, 0.985, 872.846, 5711.227)" fill="#873bff"/>
    <ellipse id="Elipse_92" data-name="Elipse 92" cx="4.999" cy="4.999" rx="4.999" ry="4.999" transform="matrix(0.985, 0.174, -0.174, 0.985, 1451.846, 5571.227)" fill="#873bff"/>
    <ellipse id="Elipse_93" data-name="Elipse 93" cx="4.999" cy="4.999" rx="4.999" ry="4.999" transform="matrix(0.985, 0.174, -0.174, 0.985, 1284.846, 5972.227)" fill="#873bff"/>
    <ellipse id="Elipse_89" data-name="Elipse 89" cx="4.999" cy="4.999" rx="4.999" ry="4.999" transform="matrix(0.985, 0.174, -0.174, 0.985, 1230.846, 5367.227)" fill="#873bff"/>
    <ellipse id="Elipse_88" data-name="Elipse 88" cx="4.999" cy="4.999" rx="4.999" ry="4.999" transform="matrix(0.985, 0.174, -0.174, 0.985, 1049.657, 5851.627)" fill="#873bff"/>
  </g>
</svg>
