<?xml version="1.0" encoding="utf-8"?>
<!-- Generator: Adobe Illustrator 22.1.0, SVG Export Plug-In . SVG Version: 6.00 Build 0)  -->
<svg version="1.1" id="Capa_1" xmlns="http://www.w3.org/2000/svg" xmlns:xlink="http://www.w3.org/1999/xlink" x="0px" y="0px"
	 viewBox="0 0 329.5 662.3" style="enable-background:new 0 0 329.5 662.3;" xml:space="preserve">
<style type="text/css">
	.st0{fill:#FFFFFF;stroke:#C092FD;stroke-width:2;stroke-miterlimit:10;}
	.st1{fill:#873BFF;}
</style>
<circle class="st0" cx="209" cy="142.3" r="31.5"/>
<circle class="st0" cx="293" cy="36.3" r="31.5"/>
<circle class="st0" cx="73" cy="175.3" r="31.5"/>
<circle class="st0" cx="56" cy="322.3" r="31.5"/>
<circle class="st0" cx="62" cy="513.3" r="31.5"/>
<circle class="st0" cx="212" cy="624.3" r="31.5"/>
<g id="Grupo_214" transform="translate(-31.11 -5021.5)">
	<g id="Grupo_191" transform="translate(0 814)">
		<g id="Grupo_36" transform="translate(70.473 4403.21)">
			<g id="Grupo_21" transform="translate(-9.368 -72)">
				<g id="Grupo_13" transform="translate(18.895 17.79)">
					<g id="Grupo_12" transform="translate(0 0)">
						<path id="Trazado_1" class="st1" d="M9.1,27.9c-0.8,0-1.5,0.7-1.5,1.5l0,0v9.1c0,0.8,0.7,1.5,1.5,1.5s1.5-0.7,1.5-1.5v-9.1
							C10.6,28.5,10,27.9,9.1,27.9z M14.2,21.3c-0.8,0-1.5,0.7-1.5,1.5l0,0v22.4c0,0.8,0.7,1.5,1.5,1.5s1.5-0.7,1.5-1.5V22.8
							C15.7,21.9,15,21.3,14.2,21.3L14.2,21.3z M19.3,16.2c-0.8,0-1.5,0.7-1.5,1.5l0,0v32.5c0,0.8,0.7,1.5,1.5,1.5s1.5-0.7,1.5-1.5
							V17.7C20.8,16.9,20.1,16.2,19.3,16.2L19.3,16.2z M24.4,25.1c-0.8,0-1.5,0.7-1.5,1.5v14.7c0,0.8,0.7,1.5,1.5,1.5
							s1.5-0.7,1.5-1.5V26.6C25.9,25.8,25.2,25.1,24.4,25.1L24.4,25.1L24.4,25.1z M29.4,16.2c-0.8,0-1.5,0.7-1.5,1.5v32.5
							c0,0.8,0.7,1.5,1.5,1.5c0.8,0,1.5-0.7,1.5-1.5c0,0,0,0,0,0V17.7C31,16.9,30.3,16.2,29.4,16.2C29.4,16.2,29.4,16.2,29.4,16.2z
							 M34.5,23.8c-0.8,0-1.5,0.7-1.5,1.5v17.3c0,0.8,0.7,1.5,1.5,1.5c0.8,0,1.5-0.7,1.5-1.5V25.3C36,24.5,35.4,23.8,34.5,23.8
							L34.5,23.8z M39.6,28.1c-0.8,0-1.5,0.7-1.5,1.5v8.6c0,0.8,0.7,1.5,1.5,1.5c0.8,0,1.5-0.7,1.5-1.5v-8.6
							C41.1,28.8,40.5,28.1,39.6,28.1L39.6,28.1z"/>
					</g>
				</g>
			</g>
		</g>
		<g id="Grupo_145" transform="translate(31.948 4678.034)">
			<g id="Grupo_51" transform="translate(35.052 7.966)">
				<g id="Grupo_52" transform="translate(0 0)">
					<g id="Grupo_51-2" transform="translate(0 0)">
						<path id="Trazado_13" class="st1" d="M10.2,28.8c0.2-1,0.5-2,0.9-3L11,26.1c0.5-1.3,1.2-2.4,2-3.5c0.1-0.1,0.1-0.1,0.2-0.2
							c0,0,0.1-0.1,0.1-0.1s-0.2,0.2-0.1,0.1c0.1-0.1,0.2-0.3,0.3-0.4c0.2-0.3,0.4-0.5,0.7-0.8c0.5-0.5,0.9-0.9,1.4-1.4
							c0.2-0.1,0.3-0.3,0.5-0.4c0.1-0.1,0.1-0.1,0.2-0.2c-0.3,0.3-0.1,0,0,0c0.3-0.2,0.6-0.4,1-0.7c0.6-0.4,0.8-1.2,0.5-1.8
							s-1.2-0.8-1.8-0.5l0,0c-3.3,2.1-5.8,5.2-7.3,8.8c-0.4,1-0.7,2-0.9,3c-0.2,0.7,0.2,1.4,0.9,1.6S10,29.5,10.2,28.8L10.2,28.8z"
							/>
					</g>
				</g>
				<g id="Grupo_54" transform="translate(26.945 0.007)">
					<g id="Grupo_53" transform="translate(0 0)">
						<path id="Trazado_14" class="st1" d="M8.2,18.6c0.3,0.2,0.6,0.4,0.9,0.6c0.1,0.1,0.1,0.1,0.2,0.2c0.1,0.1-0.1-0.1-0.1-0.1
							c0,0,0.1,0,0.1,0.1c0.2,0.1,0.3,0.2,0.5,0.4c0.5,0.4,1,0.9,1.5,1.4c0.2,0.2,0.4,0.5,0.7,0.7c0.1,0.1,0.2,0.3,0.3,0.4
							c0,0,0,0.1,0.1,0.1c0,0-0.2-0.2-0.1-0.1c0.1,0.1,0.1,0.1,0.2,0.2c0.4,0.5,0.8,1.1,1.1,1.6c0.4,0.6,0.7,1.3,1,2l-0.1-0.3
							c0.4,1,0.7,1.9,0.9,2.9c0.2,0.7,0.9,1.1,1.6,0.9c0.7-0.2,1.1-0.9,0.9-1.6c-0.8-3.7-2.7-7-5.5-9.6c-0.9-0.8-1.8-1.5-2.8-2.2
							c-0.6-0.4-1.4-0.2-1.8,0.5C7.4,17.4,7.6,18.2,8.2,18.6L8.2,18.6z"/>
					</g>
				</g>
				<g id="Grupo_56" transform="translate(5.286 2.964)">
					<g id="Grupo_55" transform="translate(0 0)">
						<path id="Trazado_15" class="st1" d="M31.6,29.4v12.9l1.3-1.3h-21c-1,0-1.9,0-2.9,0h0l1.3,1.3V30.4c0-0.9,0-1.7,0.1-2.6
							c0,0.1,0,0.2,0,0.4c0.1-1,0.4-2,0.8-3L11,25.5c0.2-0.6,0.5-1.1,0.8-1.6c0.2-0.3,0.3-0.5,0.5-0.7c0-0.1,0.1-0.1,0.1-0.2
							c0.2-0.2-0.2,0.2,0,0c0.1-0.1,0.2-0.2,0.3-0.4c0.4-0.5,0.8-0.9,1.3-1.3c0.1-0.1,0.2-0.2,0.3-0.3c0.1,0,0.1-0.1,0.2-0.1
							c0.1-0.1,0.2-0.1-0.1,0.1c0,0,0.1-0.1,0.1-0.1c0.2-0.2,0.5-0.4,0.7-0.5c0.6-0.4,1.2-0.7,1.8-0.9l-0.3,0.1c1-0.4,2-0.7,3-0.8
							c-0.1,0-0.2,0-0.4,0c1-0.1,2.1-0.1,3.2,0c-0.1,0-0.2,0-0.4,0c1.1,0.1,2.1,0.4,3.1,0.8l-0.3-0.1c0.6,0.2,1.1,0.5,1.6,0.8
							c0.3,0.2,0.5,0.3,0.7,0.5c0.1,0,0.1,0.1,0.2,0.1c0,0,0.1,0.1,0.1,0.1c0,0-0.2-0.2-0.1-0.1s0.2,0.2,0.3,0.3
							c0.5,0.4,0.9,0.8,1.3,1.2c0.1,0.1,0.2,0.2,0.3,0.3c0,0.1,0.1,0.1,0.1,0.2c0.1,0.1-0.1-0.1-0.1-0.1c0,0,0.1,0.1,0.1,0.1
							c0.2,0.2,0.3,0.5,0.5,0.7c0.4,0.6,0.7,1.2,0.9,1.8l-0.1-0.3c0.4,0.9,0.7,1.9,0.8,3c0-0.1,0-0.2,0-0.4
							C31.5,28.4,31.6,28.9,31.6,29.4c0,0.7,0.6,1.3,1.3,1.3c0.7,0,1.3-0.6,1.3-1.3c0,0,0,0,0,0c0-2.6-0.8-5.1-2.2-7.2
							c-1.4-2.1-3.3-3.8-5.6-4.8c-1.3-0.6-2.6-0.9-4-1.1c-1.2-0.1-2.4-0.1-3.6,0.1c-2.1,0.3-4,1.1-5.7,2.4C11.4,20,10,21.6,9,23.6
							c-0.9,1.8-1.4,3.8-1.4,5.9v12.8c0,0.7,0.6,1.3,1.3,1.3h21c1,0,1.9,0,2.9,0h0c0.7,0,1.3-0.6,1.3-1.3V29.4
							c0-0.7-0.6-1.3-1.3-1.3C32.2,28.1,31.6,28.7,31.6,29.4z"/>
					</g>
				</g>
				<g id="Grupo_58" transform="translate(1.416 27.723)">
					<g id="Grupo_57" transform="translate(0 0)">
						<path id="Trazado_16" class="st1" d="M8.9,18.8h30.4c0.4,0,0.8,0,1.2,0h0.1c0.7,0,1.3-0.6,1.3-1.3s-0.6-1.3-1.3-1.3H10.2
							c-0.4,0-0.8,0-1.2,0H8.9c-0.7,0-1.3,0.6-1.3,1.3S8.2,18.8,8.9,18.8L8.9,18.8L8.9,18.8z"/>
					</g>
				</g>
				<g id="Grupo_60" transform="translate(13.384 31.533)">
					<g id="Grupo_59">
						<path id="Trazado_17" class="st1" d="M15.5,17.5c0,0.2,0,0.4,0,0.5c0-0.1,0-0.2,0-0.3c-0.1,0.3-0.1,0.7-0.3,1l0.1-0.3
							c-0.1,0.2-0.2,0.4-0.4,0.7c0,0-0.1,0.1-0.1,0.1c-0.1,0.2,0.2-0.3,0.1-0.1c-0.1,0.1-0.2,0.2-0.2,0.3s-0.2,0.2-0.3,0.2
							c-0.2,0.1,0.3-0.2,0.1-0.1l-0.1,0.1c-0.2,0.1-0.4,0.3-0.7,0.4l0.3-0.1c-0.3,0.1-0.7,0.2-1,0.3c0.1,0,0.2,0,0.4,0
							c-0.4,0-0.7,0-1.1,0c0.1,0,0.2,0,0.4,0c-0.3-0.1-0.7-0.1-1-0.3L12,20c-0.2-0.1-0.4-0.2-0.7-0.4c0,0-0.1-0.1-0.1-0.1
							c-0.2-0.1,0.3,0.2,0.1,0.1c-0.1-0.1-0.2-0.2-0.3-0.2s-0.2-0.2-0.2-0.3c-0.1-0.2,0.2,0.3,0.1,0.1L10.7,19
							c-0.1-0.2-0.3-0.4-0.4-0.7l0.1,0.3c-0.1-0.3-0.2-0.7-0.3-1c0,0.1,0,0.2,0,0.3c0-0.2,0-0.4,0-0.5c0-0.7-0.6-1.3-1.3-1.3
							c-0.7,0-1.3,0.6-1.3,1.3c0,1.1,0.3,2.1,0.9,3c0.6,0.9,1.6,1.6,2.6,2c2,0.7,4.3,0.1,5.7-1.5c0.8-1,1.3-2.2,1.3-3.5
							c0-0.7-0.6-1.3-1.3-1.3C16.1,16.2,15.6,16.8,15.5,17.5L15.5,17.5z"/>
					</g>
				</g>
			</g>
		</g>
	</g>
	<ellipse id="Elipse_80" class="st1" cx="206.2" cy="5509.8" rx="13.8" ry="13.8"/>
	<ellipse id="Elipse_81" class="st1" cx="150.2" cy="5095.8" rx="13.8" ry="13.8"/>
	<ellipse id="Elipse_82" class="st1" cx="310.5" cy="5669.2" rx="5" ry="5"/>
	<ellipse id="Elipse_83" class="st1" cx="280.5" cy="5052.2" rx="5" ry="5"/>
	<ellipse id="Elipse_84" class="st1" cx="44.5" cy="5431.2" rx="5" ry="5"/>
	<ellipse id="Elipse_85" class="st1" cx="189.5" cy="5263.2" rx="5" ry="5"/>
</g>
<g id="Grupo_249" transform="translate(-2 -4.768)">
	<path id="Trazado_121" class="st1" d="M59.4,344.7c-0.4,0-0.8-0.2-1.1-0.5l-9.7-9.7c-0.6-0.6-0.6-1.6,0-2.2l0,0
		c0.6-0.6,1.6-0.6,2.2,0l8.6,8.6l13.4-13.4c3.4-3.4,3.4-8.9,0.1-12.3c-3.2-3.3-8.4-3.5-11.9-0.5c-0.2,0.1-0.3,0.3-0.5,0.5
		c-0.6,0.6-1.6,0.6-2.2,0l0,0c-3.4-3.4-8.9-3.4-12.3,0.1c-2.2,2.2-3,5.5-2.2,8.5c0.2,0.9-0.4,1.7-1.2,1.8c-0.8,0.2-1.5-0.3-1.8-1
		c-1.8-6.3,1.8-12.8,8.1-14.6c3.6-1,7.5-0.3,10.5,2c5.1-4.1,12.6-3.2,16.6,1.9c3.8,4.7,3.3,11.6-1,15.8l-14.5,14.5
		C60.3,344.5,59.9,344.7,59.4,344.7z M62.5,334l2.8-6.9h3.6c0.9,0,1.6-0.7,1.6-1.6c0-0.9-0.7-1.6-1.6-1.6h-4.7c-0.6,0-1.2,0.4-1.5,1
		l-1.6,3.9l-3.3-10.1c-0.3-0.8-1.2-1.3-2-1c-0.5,0.2-0.8,0.5-1,1l-2.9,8.4H39c-0.9,0-1.6,0.7-1.6,1.6c0,0.9,0.7,1.6,1.6,1.6h14.2
		c0.7,0,1.3-0.4,1.5-1.1l1.7-5l3.2,9.7c0.2,0.6,0.8,1.1,1.5,1.1l0,0C61.7,335,62.2,334.6,62.5,334z"/>
</g>
<g id="Grupo_245" transform="translate(-14 -4)">
	<path id="Trazado_119" class="st1" d="M211.1,142c-2.1,1.6-3.4,4.1-3.4,6.8v11.9c0,2.8,2.3,5.1,5.1,5.1h20.4c2.8,0,5.1-2.3,5.1-5.1
		v-11.9c0-2.7-1.3-5.2-3.4-6.8l-3.4-2.6v-2.6c1.9,0,3.4-1.5,3.4-3.4v-1.7c0-2.8-2.3-5.1-5.1-5.1h-13.6c-2.8,0-5.1,2.3-5.1,5.1v1.7
		c0,1.9,1.5,3.4,3.4,3.4v2.6L211.1,142z M214.5,131.8c0-0.9,0.8-1.7,1.7-1.7h13.6c0.9,0,1.7,0.8,1.7,1.7v1.7h-17V131.8z
		 M217.2,141.7c0.4-0.3,0.7-0.8,0.7-1.4v-3.4h10.2v3.4c0,0.5,0.3,1,0.7,1.4l4.1,3.1c1.3,1,2,2.5,2,4.1v11.9c0,0.9-0.8,1.7-1.7,1.7
		h-20.4c-0.9,0-1.7-0.8-1.7-1.7v-11.9c0-1.6,0.8-3.1,2-4.1L217.2,141.7z"/>
	<path id="Trazado_120" class="st1" d="M217.9,154h3.4v3.4c0,0.9,0.8,1.7,1.7,1.7c0.9,0,1.7-0.8,1.7-1.7V154h3.4
		c0.9,0,1.7-0.8,1.7-1.7c0-0.9-0.8-1.7-1.7-1.7c0,0,0,0,0,0h-3.4v-3.4c0-0.9-0.8-1.7-1.7-1.7c-0.9,0-1.7,0.8-1.7,1.7c0,0,0,0,0,0
		v3.4h-3.4c-0.9,0-1.7,0.8-1.7,1.7C216.2,153.2,217,154,217.9,154L217.9,154z"/>
</g>
<g id="Grupo_250" transform="translate(-5 -2.5)">
	<g id="Grupo_252" transform="translate(5 2.5)">
		<g id="Grupo_250-2">
			<path id="Trazado_122" class="st1" d="M293,55.4c-0.3,0-0.6-0.1-0.8-0.3c-0.6-0.4-14.7-10.5-14.7-22.3c0-8.6,7-15.6,15.6-15.6
				s15.6,7,15.6,15.6c0,11.9-14.1,21.9-14.7,22.3C293.6,55.3,293.3,55.4,293,55.4z M293,20c-7,0-12.7,5.6-12.7,12.6c0,0,0,0.1,0,0.1
				c0,8.9,9.8,17.2,12.7,19.5c3-2.3,12.7-10.5,12.7-19.5c0-7-5.6-12.7-12.6-12.7C293.1,20,293.1,20,293,20z"/>
		</g>
		<g id="Grupo_251" transform="translate(8.189 8.189)">
			<path id="Trazado_123" class="st1" d="M284.8,30.7c-3.3,0-6.1-2.7-6.1-6.1c0-3.4,2.6-6.1,6-6.2c3.4,0,6.1,2.6,6.2,6
				c0,0.1,0,0.1,0,0.2C290.9,27.9,288.2,30.6,284.8,30.7z M284.8,21.5c-1.8,0-3.2,1.5-3.3,3.3c0,1.8,1.5,3.3,3.3,3.3
				c1.8,0,3.3-1.5,3.3-3.3C288.1,22.9,286.6,21.5,284.8,21.5z"/>
		</g>
	</g>
</g>
<path id="Trazado_118" class="st1" d="M202.9,606.5c-2.8,0-5,2.2-5,5c0,0.7,0.6,1.3,1.3,1.4c0.7,0,1.3-0.6,1.4-1.3v0
	c0-1.3,1-2.3,2.3-2.3c0,0,0,0,0.1,0h18.2c1.3,0,2.3,1,2.3,2.3c0,0,0,0,0,0.1c0,0.7,0.6,1.3,1.3,1.4c0.7,0,1.3-0.6,1.4-1.3
	c0,0,0,0,0,0c0-2.8-2.2-5-5-5H202.9z M198.5,614.2c-2.8,0-5,2.2-5,5v17.9c0,2.8,2.2,5,5,5h27.1c2.8,0,5-2.2,5-5v-17.9
	c0-2.8-2.2-5-5-5H198.5z M198.5,616.8h27.1c1.3,0,2.3,1,2.3,2.3c0,0,0,0,0,0.1v17.9c0,1.3-1,2.3-2.3,2.3c0,0,0,0-0.1,0h-27.1
	c-1.3,0-2.3-1-2.3-2.2c0,0,0-0.1,0-0.1v-17.9C196.1,617.9,197.1,616.9,198.5,616.8C198.4,616.8,198.4,616.8,198.5,616.8L198.5,616.8
	z M209.1,619.7c-0.7,0-1.3,0.6-1.3,1.3l0,0v2.9h-2.9c-0.7,0-1.3,0.6-1.3,1.3v5.8c0,0.7,0.6,1.3,1.3,1.3c0,0,0,0,0,0h2.9v2.9
	c0,0.7,0.6,1.3,1.3,1.3h5.8c0.7,0,1.3-0.6,1.3-1.3v-2.9h2.9c0.7,0,1.3-0.6,1.3-1.3l0,0v-5.8c0-0.7-0.6-1.3-1.3-1.3h-2.9V621
	c0-0.7-0.6-1.3-1.3-1.3l0,0H209.1z M210.4,622.4h3.2v2.9c0,0.7,0.6,1.3,1.3,1.3l0,0h2.9v3.2h-2.9c-0.7,0-1.3,0.6-1.3,1.3l0,0v2.9
	h-3.2v-2.9c0-0.7-0.6-1.3-1.3-1.3l0,0h-2.9v-3.2h2.9c0.7,0,1.3-0.6,1.3-1.3l0,0V622.4z"/>
</svg>
