<svg xmlns="http://www.w3.org/2000/svg" width="64" height="27" viewBox="0 0 64 27">
    <g fill="#FFF" fill-rule="evenodd">
        <path d="M63.59 2.642c-2.908.285-3.65 1.927-3.632 3.096v20.666h3.84V2.62M38.545 2.645l-.183-.006h-.054c-.798.037-1.57.29-2.234.734-.84.503-1.365 1.4-1.395 2.377v1.603h-2.626v2.88h2.626v11.718c.017.389.073.775.169 1.152.159.585.48 1.114.928 1.524.632.574 1.38 1.005 2.194 1.265 1.275.383 2.604.557 3.935.513h.187v-3.019h-.31c-.586.024-1.173-.05-1.737-.218-.358-.114-.69-.298-.976-.541-.204-.16-.352-.383-.422-.633-.061-.208-.096-.422-.103-.639V10.23h3.544V7.35h-3.544M30.315 9.124c-.623-.572-1.362-1.004-2.166-1.266-1.276-.382-2.604-.555-3.935-.512-1.33-.045-2.658.128-3.933.511-.813.26-1.561.691-2.193 1.266-.454.402-.777.931-.928 1.518-.099.38-.155.768-.17 1.159v14.605h.192c1.883.087 3.501-1.322 3.675-3.198V12.302c.006-.207.045-.412.113-.608.09-.24.247-.447.452-.6.324-.22.68-.391 1.054-.506.592-.167 1.206-.242 1.82-.22.583-.021 1.165.053 1.723.22.362.113.699.294.994.532.194.162.34.374.422.612.05.21.08.425.084.642v14.028H31.4V11.8c-.02-.39-.08-.775-.18-1.152-.145-.586-.459-1.116-.903-1.525M45.348 25.448c1.191.833 2.985 1.238 5.414 1.24 1.04.025 2.078-.086 3.089-.33.794-.189 1.55-.51 2.238-.948.546-.36.994-.848 1.306-1.423.278-.54.42-1.142.413-1.75v-1.041H54.2v.19c.013.646-.225 1.272-.663 1.746-.816.545-1.799.784-2.774.675-.558.01-1.114-.05-1.656-.183-.364-.098-.706-.261-1.013-.48-.222-.162-.402-.374-.526-.618-.093-.206-.143-.43-.147-.655v-.844c.005-.327.06-.652.161-.963.075-.248.192-.48.345-.689.133-.135.283-.251.447-.346.17-.095.35-.173.534-.234.264-.103.54-.168.822-.195.444-.068 4.513-.573 5.003-.723.95-.26 1.787-.827 2.383-1.61.554-.827.845-1.802.835-2.797v-1.668c-.008-.497-.1-.988-.268-1.455-.233-.583-.617-1.093-1.113-1.477-.659-.5-1.407-.87-2.203-1.092-1.173-.32-2.387-.464-3.602-.428-1.21-.036-2.419.108-3.587.428-.796.222-1.543.592-2.201 1.09-.496.384-.88.893-1.113 1.475-.181.465-.277.96-.283 1.459v10.434c.006 1.302.673 2.512 1.772 3.212m2.018-12.515c-.048-.751.226-1.488.754-2.025.85-.572 1.874-.825 2.892-.713 1-.106 2.007.136 2.85.684.53.496.797 1.211.72 1.933.02.438-.074.874-.274 1.265-.14.296-.345.556-.6.76-.322.236-.688.405-1.076.5-.74.168-3.787.309-4.205.434-.228.05-.448.13-.653.24-.21.094-.362.282-.409.507l.001-3.585zM12.6 8.59c-1.19-.834-2.985-1.24-5.414-1.24-1.04-.026-2.078.085-3.088.33-.794.187-1.551.507-2.238.947-.547.36-.996.848-1.308 1.423-.278.541-.42 1.142-.413 1.75v1.041h3.61v-.187c-.014-.646.223-1.272.662-1.746.816-.545 1.8-.784 2.775-.675.558-.01 1.115.05 1.657.182.363.1.706.262 1.012.48.222.163.402.375.527.62.093.206.143.428.147.654v.844c-.006.328-.06.652-.16.964-.077.246-.194.479-.347.687-.132.134-.282.25-.445.346-.17.094-.35.173-.535.234-.264.103-.54.168-.822.195-.444.067-4.512.572-5.002.722-.95.262-1.787.828-2.383 1.611-.554.826-.845 1.801-.835 2.796v1.665c.008.496.099.988.267 1.455.234.582.618 1.092 1.113 1.478.66.497 1.407.867 2.203 1.09 1.173.32 2.387.463 3.603.428 1.21.035 2.42-.109 3.587-.427.795-.224 1.542-.594 2.2-1.091.496-.385.88-.893 1.114-1.474.18-.466.275-.96.281-1.46v-10.43c-.005-1.303-.673-2.513-1.771-3.213m-2.018 12.516c.049.751-.226 1.488-.754 2.025-.85.57-1.875.823-2.892.711-1 .106-2.007-.135-2.85-.683-.53-.494-.798-1.21-.722-1.93-.02-.44.074-.876.274-1.267.14-.295.344-.555.6-.759.322-.236.688-.406 1.077-.5.739-.165 3.786-.309 4.205-.436.228-.049.448-.13.653-.24.21-.093.362-.281.408-.506l.001 3.585zM14.371 7.298c.506-2.385 5.716-1.35 7.325-3.283.565-.886.584-2.015.048-2.919-.394-.59-1.047-.955-1.756-.981-1.085-.148-2.184-.153-3.27-.016-1.485.19-2.362 1.079-2.362 2.847 0 .32.012 4.362.014 4.353"/>
    </g>
</svg>
