<svg xmlns="http://www.w3.org/2000/svg" width="55" height="55" viewBox="0 0 55 55">
    <g fill="none" fill-rule="evenodd">
        <circle cx="27.5" cy="27.5" r="27" stroke="#00B6F5" opacity=".4"/>
        <g fill="#00B6F5" fill-rule="nonzero">
            <path d="M15.997 12.89c.022-1.765.947-3.394 2.45-4.318-.952-1.36-2.49-2.192-4.15-2.244-1.746-.183-3.44 1.045-4.33 1.045-.906 0-2.276-1.027-3.752-.997-1.94.063-3.707 1.14-4.65 2.837-2.012 3.482-.512 8.6 1.415 11.414.963 1.378 2.09 2.918 3.564 2.863 1.442-.06 1.981-.92 3.722-.92 1.725 0 2.23.92 3.734.886 1.548-.026 2.523-1.385 3.453-2.776.693-.982 1.226-2.067 1.58-3.216-1.839-.777-3.034-2.579-3.036-4.575zM13.156 4.477c.844-1.013 1.26-2.315 1.16-3.63-1.29.135-2.481.752-3.336 1.726-.845.96-1.273 2.218-1.19 3.495 1.307.014 2.547-.573 3.366-1.591z" transform="translate(18 15)"/>
        </g>
    </g>
</svg>
