<svg xmlns="http://www.w3.org/2000/svg" width="42" height="42" viewBox="0 0 42 42">
    <path fill="#00B6F5" d="M20.978 0c-.817.013-1.476.679-1.476 1.5v.022-.002 26.366l-9.43-9.435c-.272-.272-.647-.439-1.06-.439-.828 0-1.499.672-1.499 1.5 0 .415.168.789.44 1.06l11.989 11.995.017.015.002.002.046.044h.001c.02.02.041.036.062.055l.003.002.04.03.003.002c.02.014.045.033.071.05l.007.004.053.033.007.003c.016.01.038.023.062.035l.007.004c.012.006.033.017.054.024l.01.004.06.028.009.004.067.024.01.002.053.019.01.002c.015.004.041.012.067.017l.01.002c.013.004.038.009.061.013l.01.001.064.01h.008c.018.003.044.006.07.007h.004c.024.001.05.003.078.003h.001l.036.001.038-.001h-.002c.046-.002.09-.004.134-.01l-.006.002.018-.003-.01.002c.04-.006.072-.011.103-.018l-.009.002.081-.017-.01.002c.029-.006.048-.011.067-.017l-.01.003.099-.03-.01.002.064-.023-.01.004c.037-.015.064-.025.089-.038l-.01.003c.049-.022.086-.04.122-.06l-.007.004.009-.007-.005.004c.035-.02.063-.038.09-.056l-.005.004.063-.043-.004.002c.037-.027.068-.052.098-.079l-.001.002.01-.01c.024-.02.048-.04.069-.061l11.987-11.993c.28-.274.454-.654.454-1.076 0-.828-.67-1.5-1.499-1.5-.015 0-.03 0-.046.002h.003c-.404.012-.768.183-1.03.452l-9.43 9.435V1.524v-.02c0-.828-.67-1.499-1.498-1.499h-.024.001V0zM1.52 39.001h-.021c-.828 0-1.499.671-1.499 1.5C0 41.329.672 42 1.499 42H40.5C41.33 42 42 41.329 42 40.5c0-.828-.67-1.499-1.499-1.499H1.52z"/>
</svg>
