<svg xmlns="http://www.w3.org/2000/svg" width="32" height="32" viewBox="0 0 32 32">
    <g fill="none" fill-rule="evenodd">
        <path d="M0 0H32V32H0z"/>
        <path fill="#0045B6" d="M16.423 2l.098.007c.286.043.513.27.555.558l.008.098-.008.098c-.042.288-.269.515-.555.558l-.098.007-.247.004c-4.27.129-7.72 3.592-7.852 7.88l-.004.252.001.084.002.09.003.102v.033l-.002.033v8.225l.004.06.01.299c.111 2.244.873 3.371 1.568 4.097l.094.096.338.34.146.146c1.206 1.213 3.216 3.22 3.89 3.573l.075.034h3.939l.077-.036c.677-.357 2.676-2.353 3.881-3.565l.153-.153.337-.339.203-.214c1.161-1.294 1.407-2.777 1.46-3.984l.007-.21.005-.066.011-.064.003-.015.001-.013v-8.216l-.004-.044v-.045l.003-.124.001-.124.007-.098c.043-.287.27-.515.556-.557l.098-.008.096.007c.28.042.504.26.553.54l.01.106v.151l-.003.108.003.044V20.029l-.006.118-.016.12-.007.181c-.06 1.36-.356 3.228-1.838 4.851l-.21.22-.336.338-.25.251c-2.867 2.876-3.949 3.837-4.68 3.89l-.064.002h-4.042l-.062-.002c-.731-.051-1.812-1.011-4.681-3.89l-.25-.25-.337-.34-.211-.22c-1.488-1.626-1.785-3.46-1.84-4.945l-.007-.209-.005-.065-.001-.064v-8.202l.002-.065-.003-.102-.001-.094-.001-.09.004-.269C7.146 6.1 11.317 2 16.424 2zm.044 3.35l.224.004c3.194.116 5.77 2.695 5.889 5.894l.004.23v.093l-.003.094-.005.177.004.047.003.035.001.034v7.757l-.003.063-.009.062-.007.263-.011.262c-.066 1.192-.35 1.986-.946 2.647l-.133.14-.338.338-.226.226c-.794.796-1.926 1.924-2.694 2.604l-.2.173-.075.055c-.078.05-.166.082-.258.096l-.093.006h-2.258l-.097-.007c-.287-.042-.513-.27-.555-.556l-.008-.098.008-.097c.042-.287.268-.514.555-.556l.097-.007h2.011l.256-.23c.623-.571 1.426-1.365 2.083-2.022l.52-.52.339-.34.075-.078c.341-.371.565-.844.62-1.849l.009-.224.01-.326.002-.048.007-.048v-7.651l-.006-.057-.003-.045v-.044l.006-.222.003-.148-.005-.213c-.109-2.479-2.1-4.475-4.574-4.588l-.22-.005-.212.005c-2.475.11-4.468 2.104-4.58 4.581l-.005.22v.048l.001.054.002.063.006.164v.033l-.001.033-.005.073V19.853l.004.148-.005.098c-.036.287-.257.52-.542.568l-.098.01-.098-.006c-.287-.036-.518-.257-.567-.543l-.009-.097-.003-.124-.001-.024V11.88l.005-.062-.004-.131-.003-.08-.001-.129c0-3.378 2.744-6.127 6.117-6.127zm-.011 3.193l.1.007c.329.048.58.322.58.654l-.007.098c-.049.318-.332.563-.673.563l-.141.006c-.788.07-1.407.713-1.407 1.495v.023l.001.029.012.332v.033l-.002.032-.008.128v7.722l.003.15.003.084.006.139.074.071.174.169c.363.353.822.797 1.28 1.231l.228-.217c.455-.435.896-.863 1.225-1.183l.073-.071.005-.081.003-.095.018-.627V13.45l.007-.098c.05-.318.332-.563.674-.563l.1.007c.329.048.58.322.58.654v5.813l-.018.636-.006.153c-.008.148-.02.277-.037.385l-.024.102c-.033.1-.09.192-.167.266l-.244.237-.177.172c-.494.48-1.161 1.125-1.769 1.692l-.083.066c-.117.079-.253.118-.389.118l-.101-.007c-.135-.02-.265-.079-.37-.177l-.23-.216c-.62-.582-1.269-1.213-1.715-1.647l-.246-.239-.07-.08c-.063-.085-.105-.183-.122-.288l-.015-.121c-.015-.13-.024-.288-.028-.47l-.004-.158v-7.788l.002-.021.008-.117-.01-.295-.002-.057v-.043c0-1.556 1.304-2.823 2.909-2.823z"/>
    </g>
</svg>
