<svg xmlns="http://www.w3.org/2000/svg" width="55" height="55" viewBox="0 0 55 55">
    <g fill="none" fill-rule="evenodd">
        <circle cx="27.5" cy="27.5" r="27" stroke="#00B6F5" opacity=".4"/>
        <g fill="#00B6F5">
            <path d="M9.943 11.273v-.11l-9.53-9.4-.057.056C.133 2.052 0 2.415 0 2.885v16.777c0 .47.133.833.356 1.066l.057.055 9.53-9.399v-.11zM18.494 10.178L14.73 8.07l-.071-.04-3.178 3.132v.221l3.177 3.136.072-.04 3.764-2.11c1.075-.603 1.075-1.588 0-2.19M1.125 21.487c.355.37.94.415 1.599.047l11.237-6.298-3.249-3.204-9.587 9.455zM13.96 7.31L2.725 1.014c-.66-.37-1.245-.324-1.6.046l9.588 9.455L13.96 7.31z" transform="translate(19 16)"/>
        </g>
    </g>
</svg>
