<?xml version="1.0" encoding="utf-8"?>
<!-- Generator: Adobe Illustrator 22.1.0, SVG Export Plug-In . SVG Version: 6.00 Build 0)  -->
<svg version="1.1" id="Capa_1" xmlns="http://www.w3.org/2000/svg" xmlns:xlink="http://www.w3.org/1999/xlink" x="0px" y="0px"
	 viewBox="0 0 38 48" style="enable-background:new 0 0 38 48;" xml:space="preserve">
<style type="text/css">
	.st0{fill:#00B6F5;}
	.st1{enable-background:new    ;}
	.st2{fill:#FFFFFF;}
</style>
<g>
	<g>
		<path class="st0" d="M0,16.7c3.9-1.5,10.3-3.3,18.2-3.3c8.1,0,14.5,1.8,18.5,3.3c0.4,2.5,1.2,10.2-3.3,18.3
			c-4.8,8.8-12.7,12.2-14.9,13c-0.8-0.7-10.5-3.9-15.1-13.8C0.1,27.1,0,18.8,0,16.7 M6.3,12.6l5.3-1.2c0,0,0.3-6.3,6.9-6.3
			c6.6,0,6.8,6.5,6.8,6.5l5.4,1c0,0-0.2-12.6-12.2-12.6C6.3,0,6.3,12.6,6.3,12.6"/>
	</g>
	<g class="st1">
		<path class="st2" d="M18,35.2c-0.9,0-1.6-0.2-2.2-0.5c-0.6-0.3-1.1-0.8-1.4-1.4c-0.3-0.6-0.5-1.2-0.5-1.8h1.5
			c0,0.7,0.2,1.3,0.7,1.7c0.5,0.4,1.1,0.6,1.9,0.6c0.8,0,1.4-0.2,1.9-0.6s0.7-1,0.7-1.7c0-0.7-0.2-1.3-0.7-1.8S18.8,29,18,29
			c-0.3,0-0.6,0-0.9,0.1c-0.2,0.1-0.5,0.2-0.6,0.3l-0.8-1.4l4.5-3.3L20,24.5h-5.7v-1.3h7.1v2.1L18,27.9h0c0.9,0,1.6,0.2,2.2,0.5
			c0.6,0.3,1.1,0.7,1.4,1.3s0.5,1.1,0.5,1.7v0.2c0,0.6-0.2,1.2-0.5,1.8c-0.3,0.5-0.8,1-1.4,1.3C19.6,35,18.9,35.2,18,35.2z"/>
	</g>
</g>
</svg>
