<?xml version="1.0" encoding="utf-8"?>
<!-- Generator: Adobe Illustrator 22.1.0, SVG Export Plug-In . SVG Version: 6.00 Build 0)  -->
<svg version="1.1" id="Capa_1" xmlns="http://www.w3.org/2000/svg" xmlns:xlink="http://www.w3.org/1999/xlink" x="0px" y="0px"
	 viewBox="0 0 38 48" style="enable-background:new 0 0 38 48;" xml:space="preserve">
<style type="text/css">
	.st0{fill:#00B6F5;}
	.st1{enable-background:new    ;}
	.st2{fill:#FFFFFF;}
</style>
<g>
	<g>
		<path class="st0" d="M0,16.7c3.9-1.5,10.3-3.3,18.2-3.3c8.1,0,14.5,1.8,18.5,3.3c0.4,2.5,1.2,10.2-3.3,18.3
			c-4.8,8.8-12.7,12.2-14.9,13c-0.8-0.7-10.5-3.9-15.1-13.8C0.1,27.1,0,18.8,0,16.7 M6.3,12.6l5.3-1.2c0,0,0.3-6.3,6.9-6.3
			c6.6,0,6.8,6.5,6.8,6.5l5.4,1c0,0-0.2-12.6-12.2-12.6C6.3,0,6.3,12.6,6.3,12.6"/>
	</g>
	<g class="st1">
		<path class="st2" d="M18.2,34.9V24.5h-2.6v-1.3h4.1v11.7H18.2z"/>
	</g>
</g>
</svg>
