<svg xmlns="http://www.w3.org/2000/svg" width="144" height="60" viewBox="0 0 144 60">
    <path fill="#FFF" fill-rule="evenodd" d="M20.258 0c.784 0 1.42.636 1.42 1.42 0 .785-.636 1.421-1.42 1.421-9.605 0-17.42 7.822-17.42 17.436 0 .173.004.36.012.59.002.047 0 .095-.003.142l-.002.037v17.557l.002.03c.005.042.008.085.009.127.122 5.467 1.985 8.017 3.594 9.628l.726.727c2.64 2.647 7.525 7.543 8.837 8.044h8.468c1.251-.478 5.75-4.951 8.455-7.661l.382-.383.725-.727c3.034-3.036 3.512-6.643 3.591-9.447.003-.093.014-.186.035-.277.005-.024.008-.044.008-.06V21.026c0-.01 0-.019-.002-.028-.006-.064-.009-.128-.007-.192.006-.176.01-.353.01-.53 0-.785.635-1.421 1.419-1.421.783 0 1.419.636 1.419 1.42 0 .179-.003.356-.008.533.005.073.008.146.008.218v17.576c0 .178-.016.359-.048.539-.097 3.067-.683 7.518-4.417 11.255l-.724.725C28.573 57.892 26.21 60 24.592 60h-8.69c-1.54 0-3.75-1.906-9.77-7.913l-.965-.965-.724-.725C.686 46.637.1 42.274.02 38.88c-.009-.095-.013-.186-.013-.277V21.027c0-.046.002-.092.004-.138-.007-.23-.01-.425-.01-.612C0 9.096 9.088 0 20.258 0zm0 7.103c7.257 0 13.161 5.91 13.161 13.174 0 .134-.003.269-.007.402l-.011.382.01.101c.006.05.008.099.008.148v16.677c0 .09-.009.18-.026.27l-.015.564c-.087 3.074-.766 4.972-2.345 6.553l-.727.729c-1.845 1.848-4.932 4.943-6.712 6.456-.256.218-.582.338-.919.338h-4.857c-.783 0-1.419-.636-1.419-1.421 0-.784.636-1.42 1.42-1.42h4.327c1.737-1.536 4.47-4.275 6.151-5.961l.728-.73c.88-.88 1.44-1.96 1.515-4.623l.02-.701c.002-.07.008-.138.02-.206v-16.45l-.012-.123c-.007-.063-.01-.127-.007-.19l.014-.477c.003-.105.006-.211.006-.318 0-5.698-4.631-10.332-10.323-10.332S9.935 14.579 9.935 20.277c0 .096.003.209.007.354l.012.353c.002.047.001.094-.002.14l-.01.158v16.955l.001.049.007.316c.018.784-.603 1.434-1.387 1.452-.786.015-1.433-.604-1.45-1.389l-.007-.265c-.002-.034-.003-.069-.003-.103V21.235c0-.031 0-.062.003-.094l.009-.134-.01-.282c-.006-.183-.008-.326-.008-.448 0-7.264 5.904-13.174 13.16-13.174zm119.95 3.201l3.792.005V35.13c0-.368-.009-.722-.025-1.063l-.002.345c.095 4.25-1.373 7.92-4.403 11.008-3.03 3.09-6.592 4.562-10.683 4.419-3.96-.108-7.309-1.667-10.05-4.677-2.74-3.009-4.109-6.587-4.104-10.733.005-4.319 1.486-8.023 4.444-11.112 2.959-3.088 6.479-4.56 10.563-4.418 4.183.178 7.667 1.927 10.452 5.247l.005-5.039.01-8.804zm-65.4 9.067l6.37.008-.019 16.91c-.002 1.795.604 3.302 1.85 4.607.622.629 1.284 1.099 1.997 1.415-.195-.113-.384-.229-.568-.348l-.039-.027.12.072c.713.408 1.59.736 2.603.788l.28.007c1.731 0 3.471-.854 4.675-2.255.028-.031.054-.062.08-.094l-.08.094c.052-.06.102-.12.152-.183l-.072.09c.053-.064.104-.129.154-.193l-.082.103c.875-1.093 1.43-2.492 1.43-4.06 0-2.955.011-11.817.016-15.388l.002-1.523 6.37.007v5.827c0 3.85.292 8.5-.08 12.107-.273 3.199-1.465 5.936-3.554 8.15-2.364 2.561-5.402 3.863-9.019 3.858-3.595-.004-6.641-1.31-9.054-3.879-2.364-2.571-3.554-5.796-3.55-9.596l.018-16.497zm-15.953-9.22l6.37.007-.01 9.155 5.788.007-.007 6.356-5.789-.007-.014 13.27c-.004 3.053 1.242 4.3 4.3 4.303l1.484.002-.007 5.988-1.484-.002c-8.823-.01-10.669-5.281-10.664-9.7l.033-29.38zm47.594 9.29l3.793.005-.033 29.542-3.792-.004.032-29.542zm23.092 3.294c-3.001-.038-5.579 1.061-7.731 3.297-2.153 2.236-3.248 4.932-3.285 8.091-.037 3.123.96 5.857 2.992 8.203 2.031 2.345 4.513 3.571 7.448 3.679 3.134.177 5.81-.948 8.03-3.375 2.22-2.427 3.282-5.27 3.186-8.534-.063-3.122-1.118-5.796-3.166-8.02-2.048-2.224-4.54-3.338-7.474-3.341zM20.258 14.206c.784 0 1.42.636 1.42 1.421 0 .784-.636 1.42-1.42 1.42-1.779 0-3.226 1.449-3.226 3.23l.003.11.024.714c.001.047 0 .094-.003.141l-.018.275V38.12l.007.323c.005.192.011.35.019.478l.154.155c.8.802 1.917 1.92 3.029 3.01 1.113-1.09 2.23-2.21 3.03-3.012l.152-.152c.007-.107.013-.232.017-.379l.038-1.347v-12.44c0-.784.635-1.42 1.42-1.42.783 0 1.418.636 1.418 1.42v12.5l-.038 1.367c-.013.458-.043.847-.09 1.157-.046.3-.185.578-.4.792l-.509.51c-1.046 1.05-2.629 2.636-4.055 4.007-.274.264-.628.396-.983.396s-.709-.132-.983-.396c-1.425-1.37-3.007-2.956-4.054-4.005l-.513-.514c-.214-.214-.354-.492-.399-.791-.048-.322-.08-.75-.091-1.273l-.007-.339V21.47c0-.031 0-.063.002-.094l.017-.251-.02-.634c-.004-.095-.006-.159-.006-.214 0-3.348 2.72-6.07 6.065-6.07zm86.202-3.942l3.792.004-.006 5.654-3.793-.004.007-5.654z"/>
</svg>
