<svg xmlns="http://www.w3.org/2000/svg" width="129" height="26" viewBox="0 0 129 26">
    <path fill="#FFF" fill-rule="evenodd" d="M128.894.002V25.84H.001V.002h128.893zM1.578 6.395h-.005v17.881h47.91l2.945-10.936c.077-.266.145-.534.208-.802.06-.269.129-.543.208-.825.06-.268.12-.536.173-.802.055-.268.104-.534.15-.802h2.84l-.416 1.738c.616-.64 1.279-1.12 1.988-1.437.709-.32 1.462-.48 2.264-.48 1.232 0 2.109.354 2.632 1.06.523.707.786 1.558.786 2.552 0 .313-.022.633-.069.959-.046.328-.115.663-.208 1.002-.383 1.47-1.1 2.81-2.15 4.014-1.045 1.202-2.44 1.805-4.18 1.805-.68 0-1.293-.142-1.85-.425-.552-.282-.938-.714-1.155-1.292-.016.134-.04.271-.08.41-.037.143-.073.288-.103.436-.03.148-.066.293-.104.433-.039.142-.082.274-.129.391l-.8 3h23.565l.612-1.663c.493.254 1.005.465 1.536.635.531.17 1.103.257 1.72.257.14 0 .279-.008.427-.022.148-.016.295-.038.451-.065.477-.074.948-.236 1.408-.48.463-.243.854-.583 1.177-1.013.187-.238.343-.498.474-.78.132-.282.252-.564.359-.846.077-.238.145-.468.208-.693.06-.222.123-.438.183-.646-.539.64-1.177 1.155-1.916 1.55-.74.394-1.493.613-2.265.657h-.208c-1.216 0-2.087-.345-2.61-1.038-.523-.693-.785-1.533-.785-2.53.016-.238.035-.488.057-.748s.066-.523.126-.791c.016-.074.033-.156.057-.246.022-.09.042-.178.058-.269.386-1.413 1.093-2.703 2.125-3.869 1.032-1.167 2.38-1.75 4.042-1.75.8 0 1.476.156 2.02.468.548.313.904.82 1.074 1.517l.531-1.76h2.826v.002l-2.588 9.675c-.521 1.925-1.386 3.412-2.59 4.45h42.813V6.686H50.987l-3.02 11.272c-.047.178-.094.356-.14.537-.047.178-.085.356-.115.534-.093.356-.181.715-.266 1.07-.085.357-.164.715-.24 1.071h-2.794v-.005l.463-1.873c-.54.684-1.167 1.194-1.884 1.528-.715.334-1.468.5-2.25.5-1.293 0-2.213-.344-2.761-1.034-.548-.69-.822-1.55-.822-2.577 0-.252.02-.52.058-.802.038-.282.088-.572.15-.871.017-.074.03-.145.047-.21.017-.067.03-.138.047-.212 0-.016.002-.027.01-.033.009-.008.012-.019.012-.032.386-1.397 1.106-2.684 2.16-3.859 1.054-1.174 2.412-1.76 4.075-1.76.816 0 1.473.172 1.974.512.445.304.772.736.98 1.3l.071.216.039-.327c.03-.218.072-.435.123-.653.077-.325.162-.654.255-.98l.877-3.311H1.578v-.293zm96.33 3.445c1.479 0 2.618.386 3.417 1.159.8.772 1.194 1.782 1.178 3.03 0 .267-.02.546-.058.836-.038.293-.096.586-.172.885-.463 1.708-1.378 3.083-2.75 4.123-1.369 1.04-2.949 1.561-4.734 1.561-1.479 0-2.615-.367-3.406-1.103-.794-.737-1.189-1.728-1.189-2.977 0-.268.022-.55.069-.846.046-.298.107-.602.183-.915.447-1.708 1.358-3.094 2.738-4.159 1.38-1.062 2.952-1.594 4.724-1.594zm-65.672-.005c1.37 0 2.355.348 2.957 1.049.6.698.901 1.582.901 2.653 0 .329-.027.663-.08 1.005-.054.342-.128.693-.218 1.049-.017.09-.039.175-.069.257-.03.082-.063.159-.093.236-.013.03-.027.057-.033.076-.008.022-.019.05-.035.08-.014.06-.033.115-.058.167-.024.052-.04.11-.057.167h-7.692c-.016.104-.027.2-.036.287-.008.09-.01.178-.01.269 0 .712.249 1.26.75 1.637.5.378 1.15.57 1.952.57.646 0 1.293-.107 1.942-.323.646-.217 1.284-.48 1.916-.792l-.624 2.476c-.277.104-.55.197-.819.279-.27.082-.542.145-.821.189-.416.09-.833.156-1.246.2-.416.044-.824.065-1.227.065-1.525 0-2.689-.334-3.5-1.005-.807-.668-1.212-1.62-1.212-2.853 0-.298.024-.605.068-.925.047-.32.115-.65.208-.992.446-1.664 1.3-3.05 2.563-4.159 1.262-1.106 2.788-1.662 4.573-1.662zm78.208.096c.479 0 .944.04 1.396.123.455.082.898.18 1.328.301l-.786 2.141c-.353-.117-.728-.219-1.12-.3-.394-.083-.788-.124-1.19-.124-.14 0-.294.008-.463.022-.17.014-.34.038-.507.068-.307.074-.6.19-.879.345-.277.156-.455.384-.531.682-.017.03-.025.063-.025.099v.101c0 .222.115.405.348.545.23.14.507.271.832.389.137.06.282.112.428.156.145.044.287.096.427.156.523.194.996.457 1.42.791.425.334.636.844.636 1.528-.016.135-.03.274-.046.425-.014.148-.047.304-.094.468-.276 1.027-.837 1.813-1.686 2.363-.846.55-1.747.893-2.703 1.027-.216.044-.433.074-.646.09-.217.014-.433.022-.646.022-.57 0-1.12-.044-1.652-.134-.53-.088-1.051-.2-1.558-.334l.792-2.412c.4.224.824.408 1.27.558.447.15.923.225 1.432.225.14 0 .285-.008.438-.022.154-.014.315-.044.485-.088.323-.074.627-.205.912-.389.285-.186.466-.435.542-.747.017-.03.025-.063.025-.101v-.099c0-.238-.112-.433-.334-.58-.225-.151-.499-.29-.822-.425-.14-.06-.279-.115-.427-.167-.145-.052-.29-.115-.427-.189-.507-.208-.97-.482-1.386-.824-.416-.342-.624-.84-.624-1.495 0-.118.008-.25.022-.392.016-.14.046-.285.093-.435.246-.937.761-1.662 1.547-2.174.786-.512 1.618-.857 2.495-1.038.293-.044.58-.082.865-.112.285-.03.559-.044.819-.044zm-38.823 0c.093 0 .183.008.276.022.663.03 1.293.164 1.892.402.6.238 1.04.633 1.317 1.183.077.162.13.337.162.523.03.186.046.375.046.57 0 .161-.008.331-.021.5-.017.17-.039.346-.069.524-.046.178-.087.353-.126.523-.038.17-.082.34-.126.5-.293 1.085-.578 2.167-.854 3.246-.277 1.076-.531 2.157-.761 3.242H70.72l.391-1.649c-.43.49-.928.885-1.49 1.18-.56.299-1.133.485-1.719.56-.137.03-.277.048-.416.057-.137.005-.277.01-.416.01-.94 0-1.71-.197-2.309-.59-.6-.395-.892-1-.879-1.819 0-.164.011-.326.036-.49.022-.164.057-.334.104-.512.31-1.145.917-1.97 1.824-2.476.909-.503 1.87-.832 2.888-.98.337-.044.677-.08 1.016-.101.34-.022.668-.033.994-.033.137 0 .274.003.406.01.131.01.265.012.402.012.047 0 .093.003.14.01.046.009.093.012.14.012.093 0 .18.005.265.01.085.009.173.012.266.012.046-.178.08-.343.104-.49.022-.151.033-.299.033-.447 0-.506-.17-.882-.507-1.125-.34-.244-.846-.367-1.525-.367-.233 0-.471.013-.718.044-.246.03-.493.074-.739.134-.416.104-.827.24-1.238.413-.408.17-.797.375-1.166.614l.578-2.476c.232-.09.462-.167.692-.235.23-.066.463-.129.693-.19.463-.117.928-.205 1.4-.257.468-.052.928-.076 1.374-.076h.277zm-47.047.112c.154 0 .302.01.438.033.137.022.277.05.417.08l-.715 2.675c-.153-.044-.315-.083-.485-.113-.17-.03-.34-.044-.506-.044-1.033 0-1.824.337-2.38 1.014-.556.676-.97 1.415-1.246 2.218-.016.074-.038.156-.068.246-.03.09-.055.17-.069.246l-.046.222-1.224 4.549h-2.966v-.003l2.079-7.714c.046-.224.095-.446.15-.668.055-.222.112-.446.173-.668.016-.044.027-.096.035-.156.009-.06.02-.12.036-.178.077-.269.148-.54.208-.816.063-.274.123-.553.186-.835h2.681l-.67 2.787c.429-.772.974-1.446 1.628-2.018.655-.572 1.435-.857 2.344-.857zm47.173 6.084h-.543c-.23 0-.49.003-.772.011-.285.009-.564.033-.843.077-.586.074-1.131.238-1.64.49-.51.252-.847.677-1.016 1.27-.017.061-.028.118-.036.179-.008.06-.01.12-.01.178 0 .342.141.605.426.791.285.186.62.28 1.005.28.94 0 1.714-.326 2.322-.98.608-.655 1.027-1.367 1.26-2.142 0-.03.003-.055.01-.077.009-.02.012-.038.012-.055-.063-.013-.12-.022-.175-.022zm25.605-4.167c-.846 0-1.58.301-2.193.903-.616.603-1.076 1.265-1.386 1.997-.06.134-.112.26-.15.38-.039.118-.072.238-.104.356-.03.12-.058.238-.083.356-.024.118-.043.238-.057.356-.03.134-.05.26-.058.378-.008.12-.01.238-.01.356.016.608.177 1.145.484 1.605.307.46.846.692 1.616.692.832 0 1.547-.293 2.15-.881.599-.586 1.053-1.235 1.36-1.95.063-.134.12-.271.173-.413.057-.14.098-.277.131-.411.06-.225.107-.45.137-.682.03-.23.047-.466.047-.704 0-.624-.154-1.169-.463-1.637-.31-.468-.84-.701-1.594-.701zm-53.426.356c-.846 0-1.531.29-2.057.87-.523.581-.909 1.227-1.155 1.94-.047.09-.08.183-.104.279-.022.095-.05.188-.082.279-.03.104-.058.21-.08.323-.025.112-.044.219-.057.323-.014.104-.028.21-.036.323-.005.112-.01.22-.01.323 0 .55.133 1.04.404 1.47.269.43.734.647 1.397.647.8 0 1.481-.282 2.045-.846.562-.564.98-1.189 1.26-1.873.03-.104.066-.214.104-.323.038-.113.074-.22.104-.323.033-.104.058-.208.082-.313.022-.104.033-.208.033-.312.016-.104.027-.208.036-.312.008-.104.01-.208.01-.312 0-.58-.14-1.084-.416-1.517-.276-.43-.77-.646-1.478-.646zm14.367-.003c-.83 0-1.528.29-2.089.87-.561.581-.98 1.22-1.26 1.918-.046.104-.084.202-.114.3-.03.097-.063.198-.094.302-.063.225-.106.446-.137.668-.03.222-.046.446-.046.668 0 .55.134 1.024.402 1.427.269.402.75.602 1.444.602.739 0 1.38-.263 1.916-.791.54-.529.956-1.104 1.249-1.728.063-.148.12-.298.172-.446.055-.145.1-.285.13-.42.03-.09.051-.183.068-.278.013-.096.03-.198.046-.302.03-.15.052-.293.069-.435.013-.142.022-.28.022-.414 0-.536-.13-.99-.381-1.371-.255-.381-.72-.57-1.397-.57zm25.247-.02c-.83 0-1.52.291-2.067.869-.548.58-.934 1.21-1.167 1.895-.03.074-.057.15-.082.224-.022.074-.04.148-.057.222-.06.208-.107.419-.14.635-.03.217-.046.428-.046.636 0 .55.134 1.032.405 1.448.268.416.734.625 1.396.625.786 0 1.463-.277 2.032-.836.57-.556.994-1.169 1.27-1.837.047-.118.086-.23.116-.334.033-.107.065-.211.095-.315.047-.178.083-.356.105-.534.021-.178.035-.356.035-.534 0-.564-.148-1.068-.44-1.506-.294-.438-.778-.657-1.455-.657zm-51.923-.443c-.832 0-1.536.274-2.114.824-.578.55-.996 1.189-1.26 1.917h4.99c.03-.164.057-.328.08-.49.024-.164.035-.32.035-.468 0-.49-.132-.91-.392-1.26-.263-.35-.709-.523-1.339-.523z"/>
</svg>
