<svg xmlns="http://www.w3.org/2000/svg" xmlns:xlink="http://www.w3.org/1999/xlink" width="341" height="288" viewBox="0 0 341 288">
    <defs>
        <path id="6noyx2uyva" d="M0 0.026L19.315 0.026 19.315 29.144 0 29.144z"/>
        <path id="d5reswiy2c" d="M0 0.015L11.79 0.015 11.79 17.486 0 17.486z"/>
    </defs>
    <g fill="none" fill-rule="evenodd">
        <path stroke="#00B6F5" d="M245.58.5c10.529 0 20.664 4.002 28.353 11.196h0l40.893 38.26c7.417 6.94 11.86 16.018 13.103 25.516 1.244 9.498-.712 19.415-6.092 28.03h0l-48.307 77.354c-7.24 11.592-19.956 18.618-33.622 18.577h0l-220.408-.66V38c0-10.355 4.197-19.73 10.983-26.517C37.27 4.697 46.645.5 57 .5h0z"/>
        <path stroke="#00B6F5" d="M226.58 12.5c10.529 0 20.664 4.002 28.353 11.196h0l40.893 38.26c7.417 6.94 11.86 16.018 13.103 25.516 1.244 9.498-.712 19.415-6.092 28.03h0l-48.307 77.354c-7.24 11.592-19.956 18.618-33.622 18.577h0L.5 210.773V50c0-10.355 4.197-19.73 10.983-26.517C18.27 16.697 27.645 12.5 38 12.5h188.58z"/>
        <g transform="translate(59 40)">
            <path fill="#000" fill-rule="nonzero" d="M0 18.323C0 11.859 5.242 6.617 11.708 6.617h156.615c6.467 0 11.708 5.242 11.708 11.706V219.22c0 6.464-5.241 11.705-11.708 11.705H11.708C5.242 230.925 0 225.685 0 219.22V18.323z"/>
            <path fill="#002268" fill-rule="nonzero" d="M0 12.05C0 5.397 5.242 0 11.708 0h156.615c6.467 0 11.708 5.396 11.708 12.05v206.825c0 6.655-5.241 12.05-11.708 12.05H11.708C5.242 230.926 0 225.53 0 218.876V12.051z"/>
            <path fill="#E4F5FF" fill-rule="nonzero" d="M7.655 13.831c0-1.772.67-3.473 1.866-4.727 1.196-1.254 2.82-1.959 4.513-1.959h151.242c3.525.005 6.379 2.997 6.379 6.686V191.46c.003 1.773-.668 3.474-1.865 4.728-1.197 1.254-2.82 1.958-4.514 1.958H14.034c-3.525-.004-6.38-2.997-6.38-6.686V13.831z"/>
            <rect width="77.33" height="6.811" x="70.781" y="35.145" fill="#C1DBEA" fill-rule="nonzero" rx=".818"/>
            <rect width="75.343" height="6.811" x="70.781" y="60.44" fill="#C1DBEA" fill-rule="nonzero" rx=".818"/>
            <rect width="116.76" height="6.811" x="22.655" y="156.508" fill="#C1DBEA" fill-rule="nonzero" rx=".818"/>
            <rect width="135.262" height="14.593" x="22.655" y="91.571" fill="#C1DBEA" fill-rule="nonzero" rx=".818"/>
            <rect width="135.262" height="30.159" x="22.655" y="114.92" fill="#C1DBEA" fill-rule="nonzero" rx=".818"/>
            <rect width="87.405" height="3.873" x="70.924" y="49.347" fill="#C1DBEA" fill-rule="nonzero" rx=".818"/>
            <rect width="131.76" height="3.873" x="22.655" y="73.878" fill="#C1DBEA" fill-rule="nonzero" rx=".818"/>
            <rect width="131.76" height="3.873" x="22.655" y="170.71" fill="#C1DBEA" fill-rule="nonzero" rx=".818"/>
            <circle cx="89.655" cy="213.145" r="8" fill="#FFF" fill-rule="nonzero"/>
            <g transform="translate(29.655 34.53)">
                <mask id="0p5q4vpp6b" fill="#fff">
                    <use xlink:href="#6noyx2uyva"/>
                </mask>
                <path fill="#D1E8F5" d="M11.723 29.144H7.581c-.772 0-1.898-1.023-5.118-4.309l-.345-.352C.328 22.658.048 20.541.01 18.894c-.004-.046-.006-.09-.006-.134v-8.53c0-.022 0-.045.002-.067C.002 10.052 0 9.957 0 9.866 0 4.44 4.332.026 9.657.026c.374 0 .677.308.677.69 0 .38-.303.689-.677.689-4.579 0-8.304 3.795-8.304 8.461 0 .084.002.175.006.286 0 .023 0 .046-.002.07v8.552c.002.02.004.041.004.062.059 2.653.947 3.89 1.714 4.672l.346.353c1.259 1.285 3.587 3.66 4.213 3.904h4.037c.625-.243 2.953-2.62 4.213-3.904l.345-.353c1.446-1.473 1.675-3.224 1.712-4.584.001-.046.007-.09.017-.135.002-.011.004-.021.004-.03V10.23l-.001-.013c-.004-.031-.005-.062-.004-.093.003-.086.005-.172.005-.258 0-.38.302-.69.676-.69.374 0 .677.31.677.69 0 .086-.002.172-.004.258.003.036.004.071.004.106v8.53c0 .086-.008.174-.023.261-.047 1.489-.326 3.649-2.106 5.462l-.345.352c-3.22 3.286-4.346 4.309-5.118 4.309" mask="url(#0p5q4vpp6b)"/>
                <path fill="#D1E8F5" d="M8.548 25.674c-.372 0-.673-.308-.673-.689 0-.38.301-.689.673-.689h2.051c.824-.744 2.119-2.072 2.916-2.89l.345-.353c.417-.427.683-.952.718-2.242l.01-.34c0-.034.004-.067.01-.1v-7.977l-.007-.059c-.003-.03-.004-.062-.003-.092l.007-.231.002-.155c0-2.762-2.195-5.01-4.893-5.01s-4.893 2.248-4.893 5.01c0 .047.001.102.004.172l.005.171v.068l-.006.077v8.22l.001.024.003.154c.009.38-.286.695-.657.704-.373.007-.68-.293-.688-.674l-.003-.128-.001-.05v-8.273l.001-.046.004-.065-.004-.136c-.003-.09-.004-.158-.004-.218 0-3.522 2.798-6.388 6.238-6.388 3.44 0 6.239 2.866 6.239 6.388 0 .066-.002.13-.004.196l-.005.185.005.049c.003.023.004.047.004.071v8.087c0 .044-.004.087-.012.13l-.008.274c-.04 1.49-.363 2.411-1.111 3.178l-.345.353c-.874.896-2.338 2.397-3.181 3.13-.122.106-.276.164-.436.164H8.548z"/>
                <path fill="#D1E8F5" d="M9.7 22.205c-.163 0-.325-.065-.45-.194-.652-.668-1.375-1.442-1.854-1.955l-.234-.25c-.098-.105-.162-.24-.182-.386-.023-.157-.037-.366-.042-.621l-.003-.166V10.484v-.046l.008-.122-.01-.31-.001-.104c0-1.634 1.243-2.963 2.772-2.963.359 0 .65.31.65.693 0 .383-.291.694-.65.694-.813 0-1.475.707-1.475 1.576l.002.053.01.349v.069l-.009.134v8.103l.004.158c.001.093.005.17.008.233l.07.076c.367.391.877.937 1.385 1.468.51-.531 1.02-1.077 1.386-1.47l.07-.074.007-.184.017-.658v-6.071c0-.383.29-.693.65-.693.357 0 .648.31.648.693v6.1l-.018.667c-.006.224-.02.414-.04.565-.022.147-.086.282-.183.387l-.233.249c-.479.512-1.202 1.286-1.854 1.955-.126.13-.288.194-.45.194"/>
            </g>
        </g>
        <g transform="translate(193 136)">
            <path fill="#002268" fill-rule="nonzero" d="M64.716 0H11.093C4.996 0 0 4.948 0 10.986V140.95c0 6.038 4.996 10.986 11.093 10.986h53.623c6.097 0 11.093-4.948 11.093-10.986V10.986C75.79 4.948 70.813 0 64.716 0z"/>
            <rect width="70" height="139" x="2.852" y="2.979" fill="#E4F5FF" fill-rule="nonzero" rx="8"/>
            <path fill="#D1E8F5" fill-rule="nonzero" d="M59.636 109.989H17.85c-.61 0-1.107-.65-1.107-1.447v-5.304c0-.797.497-1.447 1.107-1.447h41.786c.61 0 1.107.65 1.107 1.447v5.304c0 .797-.497 1.447-1.107 1.447zM59.636 122.989H17.85c-.61 0-1.107-.65-1.107-1.447v-5.304c0-.797.497-1.447 1.107-1.447h41.786c.61 0 1.107.65 1.107 1.447v5.304c0 .797-.497 1.447-1.107 1.447z"/>
            <g transform="translate(14.852 41.979)">
                <mask id="vz24hbiv3d" fill="#fff">
                    <use xlink:href="#d5reswiy2c"/>
                </mask>
                <path fill="#C1DBEA" d="M7.156 17.486H4.627c-.47 0-1.158-.614-3.123-2.585l-.211-.211C.2 13.595.029 12.325.006 11.336c-.003-.027-.004-.054-.004-.08V6.138l.001-.04L0 5.92C0 2.664 2.644.015 5.895.015c.228 0 .413.186.413.414 0 .229-.185.414-.413.414C3.1.843.826 3.12.826 5.92l.003.171v.042l-.001.01V11.266c.002.012.003.024.003.037.035 1.591.578 2.334 1.046 2.803l.211.212c.769.77 2.19 2.196 2.572 2.342h2.464c.381-.146 1.803-1.572 2.571-2.342l.211-.212c.883-.884 1.022-1.934 1.045-2.75 0-.028.004-.055.01-.081l.003-.018V6.138l-.001-.008c-.002-.019-.003-.037-.002-.056l.003-.154c0-.229.184-.414.413-.414.228 0 .413.185.413.414l-.003.155c.002.02.003.042.003.063v5.118c0 .052-.005.104-.014.157-.029.893-.2 2.189-1.286 3.277l-.21.211c-1.966 1.971-2.653 2.585-3.124 2.585" mask="url(#vz24hbiv3d)"/>
                <g fill="#C1DBEA">
                    <path d="M16.973 12.538l-1.4-.001.012-9.565 1.4.001-.012 9.565zm.014-10.706l-1.4-.001L15.589 0l1.4.002-.002 1.83zM26.612 7.823c-.02-1.027-.361-1.906-1.022-2.637-.66-.731-1.463-1.098-2.41-1.099-.968-.012-1.799.35-2.493 1.084-.694.735-1.047 1.622-1.059 2.66-.012 1.028.31 1.927.965 2.698.655.77 1.455 1.174 2.402 1.21 1.01.058 1.873-.312 2.59-1.11.715-.798 1.058-1.733 1.027-2.806zm1.223.104c.03 1.398-.443 2.604-1.42 3.62-.978 1.015-2.126 1.5-3.446 1.452-1.276-.035-2.356-.548-3.24-1.537-.884-.99-1.326-2.166-1.324-3.53.001-1.42.48-2.637 1.433-3.653.954-1.015 2.09-1.5 3.406-1.453 1.35.059 2.473.634 3.371 1.725L26.62 0l1.223.001-.008 7.926zM1.984.002L.01 0 0 9.425c-.001 1.418.57 3.11 3.305 3.113h.46l.002-1.92-.46-.001c-.947-.002-1.334-.402-1.333-1.381l.005-4.257 1.794.002.002-2.04-1.794-.001.003-2.938zM11.537 8.76c0 .574-.21 1.064-.64 1.498-.434.421-.899.617-1.464.617-.568-.001-1.051-.204-1.477-.62-.42-.425-.623-.916-.623-1.5l.007-5.502-2.143-.002-.006 5.367c-.001 1.236.4 2.286 1.194 3.122.812.836 1.836 1.261 3.045 1.263 1.217 0 2.238-.423 3.033-1.256.806-.826 1.215-1.875 1.216-3.119l.007-5.368-2.143-.002-.006 5.502z" transform="translate(18.583 1.38)"/>
                    <path d="M7.55 9.907c.96 1.207 3.818 2.015 5.355.063 0 0 .127-.214.147-.303.262-1.2.127-3.06.127-4.547V3.25h-2.03s-.006 4.224-.006 5.422c0 1.197-1.001 2.084-1.994 2.084-.993 0-1.598-.849-1.598-.849M1.888 5.108L3.775 5.108 3.775 3.251 1.888 3.251zM26.427 4.401c.722.982 1.416 1.763 1.416 3.493V0h-1.41l-.006 4.401z" transform="translate(18.583 1.38)"/>
                </g>
                <path fill="#C1DBEA" d="M5.218 15.404c-.227 0-.411-.185-.411-.413 0-.228.184-.413.41-.413H6.47c.502-.447 1.293-1.244 1.78-1.734l.21-.212c.255-.257.417-.571.438-1.346l.006-.204c0-.02.003-.04.006-.06V6.238L8.906 6.2c-.002-.018-.002-.037-.002-.055l.004-.139.002-.093c0-1.657-1.34-3.006-2.987-3.006-1.646 0-2.986 1.349-2.986 3.006 0 .028 0 .061.002.103l.003.103v.041l-.003.046v4.947l.002.092c.005.228-.174.417-.401.422-.228.005-.415-.176-.42-.404l-.002-.077V6.193v-.027l.003-.04-.003-.081-.003-.13c0-2.114 1.709-3.833 3.808-3.833 2.1 0 3.808 1.719 3.808 3.832 0 .04 0 .079-.002.118l-.003.11.003.03c.002.014.002.029.002.043v4.852c0 .026-.002.052-.007.078l-.005.165c-.025.894-.221 1.446-.678 1.906l-.21.212c-.534.538-1.427 1.438-1.942 1.878-.075.064-.169.098-.266.098H5.218z"/>
                <path fill="#C1DBEA" d="M5.92 13.323c-.098 0-.197-.039-.274-.116-.398-.401-.84-.866-1.131-1.173l-.143-.15c-.06-.063-.1-.145-.112-.232-.013-.094-.022-.22-.025-.373l-.002-.1V6.292v-.028l.005-.074-.006-.185-.001-.063c0-.98.76-1.778 1.692-1.778.22 0 .396.187.396.416 0 .23-.177.416-.396.416-.496 0-.9.425-.9.946l.001.032.007.21-.001.04-.005.081v4.862l.002.095.005.14.043.045c.224.235.535.562.845.881.311-.319.623-.646.846-.882l.042-.044.005-.111.01-.395V7.253c0-.23.178-.416.397-.416.218 0 .396.186.396.416v3.66l-.011.4c-.004.134-.012.248-.025.34-.013.087-.052.168-.112.231l-.142.15c-.292.307-.733.771-1.131 1.173-.077.077-.176.116-.275.116"/>
            </g>
        </g>
    </g>
</svg>
