<svg xmlns="http://www.w3.org/2000/svg" width="375" height="286" viewBox="0 0 375 286">
    <defs>
        <linearGradient id="3bpsxvxhta" x1="11.15%" x2="96.944%" y1="-3.319%" y2="97.035%">
            <stop offset="0%" stop-color="#4FB4EF"/>
            <stop offset="100%" stop-color="#1747AF"/>
        </linearGradient>
    </defs>
    <g fill="none" fill-rule="evenodd">
        <path stroke="#00B6F5" d="M279.58.5c10.529 0 20.664 4.002 28.353 11.196h0l40.893 38.26c7.417 6.94 11.86 16.018 13.103 25.516 1.244 9.498-.712 19.415-6.092 28.03h0l-48.307 77.354c-7.24 11.592-19.956 18.618-33.622 18.577h0l-220.408-.66V38c0-10.355 4.197-19.73 10.983-26.517C71.27 4.697 80.645.5 91 .5h0z"/>
        <path stroke="#00B6F5" d="M260.58 12.5c10.529 0 20.664 4.002 28.353 11.196h0l40.893 38.26c7.417 6.94 11.86 16.018 13.103 25.516 1.244 9.498-.712 19.415-6.092 28.03h0l-48.307 77.354c-7.24 11.592-19.956 18.618-33.622 18.577h0l-220.408-.66V50c0-10.355 4.197-19.73 10.983-26.517C52.27 16.697 61.645 12.5 72 12.5h0z"/>
        <g>
            <g>
                <path fill="#B7D3F3" d="M50.28 103.451c-.476-11.628-1.503-21.744-2.733-28.798-1.96-11.245-3.723-17.715-3.744-17.783-.258-.99-3.987-4.99-12.278-4.867-8.291.123-7.505 5.37-7.505 5.37-.001.178.023.344.06.467.08.27 7.69 27.656 7.36 63.015-.004.496-.06 1.354-.025 1.926 0 .002 19.214.492 19.218 0 .67-3.09.344-11.653-.353-19.33" transform="translate(0 47) translate(0 53)"/>
                <path fill="#D2E3FC" d="M52.605 121.107c-.006.496-.268.893-.589.893h-.007c-.32-.007-.575-.404-.58-.893H34.932c-.006.496-.268.893-.589.893h-.007c-.326-.007-.585-.417-.581-.919.096-10.184-.487-19.694-1.37-28.088-2.192-20.932-6.247-34.922-6.304-35.116-.037-.125-.06-.29-.06-.47 0 0-.788-5.28 7.52-5.404 8.308-.125 12.044 3.902 12.303 4.897.015.053 1.016 3.739 2.347 10.366.44 2.195.916 4.713 1.405 7.527 1.23 7.098 2.26 17.278 2.738 28.977.697 7.725.943 14.229.272 17.337" transform="translate(0 47) translate(0 53)"/>
                <path fill="#C5DCF8" d="M32.003 122H97s-1.514-5.772-39.156-4.913C31.205 117.696 32.003 122 32.003 122" transform="translate(0 47) translate(0 53)"/>
                <path fill="#B7D3F3" d="M27 186c6.84-38.133 5.08-61.533 5.072-61.827-.017-.588.965-1.12 1.494-1.14.535-.01 2.896-.173 3.169.33.358.658 1.735 29.488-8.458 62.637H27zM88 186c-6.84-38.133-5.08-61.533-5.072-61.827.017-.588-.965-1.12-1.494-1.14-.535-.01-2.896-.173-3.169.33-.358.658-1.735 29.488 8.458 62.637H88zM99 186c-6.84-38.133-5.08-61.533-5.072-61.827.017-.588-.965-1.12-1.494-1.14-.535-.01-2.896-.173-3.169.33-.358.658-1.735 29.488 8.458 62.637H99zM40 186c6.84-38.133 5.08-61.533 5.072-61.827-.017-.588.965-1.12 1.494-1.14.535-.01 2.896-.173 3.169.33.358.658 1.735 29.488-8.458 62.637H40z" transform="translate(0 47) translate(0 53)"/>
                <path fill="#B7D3F3" d="M96.681 124H32.32c-.726 0-1.319-.508-1.319-1.129v-.742c0-.62.593-1.129 1.319-1.129H96.68c.726 0 1.319.508 1.319 1.129v.742c0 .62-.593 1.129-1.319 1.129" transform="translate(0 47) translate(0 53)"/>
                <path fill="#FFB27D" d="M94.648 65.788L115.757 61 117 64.173S93.709 78.685 91.527 77.975c-2.182-.71 3.121-12.187 3.121-12.187M75.472 162.483c-.517.594-.582 1.257-.327 1.965 0 .003.002.007.005.01.473 1.31 2.035 2.772 3.85 4.233.23.187.437.358.617.516.047.041.094.083.138.125l.107.096c1.692 1.564 1.055 1.922 4.095 5.095 3.466 3.615 5.852 3.68 6.53 3.35.575-.28-.592-2.198-1.885-4.353-.063-.103-.124-.209-.188-.314-.172-.286-.344-.577-.514-.865-1.516-2.594-1.126-3.81-.767-7.67.292-3.137 4.867-17.524 4.867-17.524L85.358 146s-2 11.456-4.203 13.22c-1.179.94-2.498.953-3.63 1.65-.08.048-.159.098-.236.149-.644.428-1.3.87-1.817 1.464" transform="translate(0 47) translate(0 53)"/>
                <path fill="#1C468A" d="M74.543 162.79c-.594.658-.67 1.393-.376 2.179 0 .003.002.008.006.01.666 1.452 2.419 3.066 4.438 4.68.263.213.496.407.703.588.055.046.109.092.16.139.042.035.082.073.123.107 1.947 1.734 1.214 2.131 4.713 5.65 3.99 4.01 6.736 4.082 7.517 3.717.661-.312-.682-2.438-2.17-4.829-.777-.274-4.384-1.69-7.111-5.061-2.402-2.961-4.004-6.766-5.64-8.97-.092.054-.183.109-.271.166-.741.474-1.496.964-2.092 1.623" transform="translate(0 47) translate(0 53)"/>
                <path fill="#FFB27D" d="M137.322 158.37c3.103-.805 2.366.152 6.783-.367 4.417-.52 5.756-2.268 5.89-2.966.12-.619-2.062-.837-4.403-1.123-.294-.035-.59-.074-.886-.113-2.643-.352-4.579-2.163-6.98-3.651-2.274-1.409-5.668-7.15-5.668-7.15l-6.058.51s3.179 5.127 4.409 7.356c.723 1.312.684 3.046.594 4.385-.047.727-.091 1.472.047 2.2.39 2.07 3.168 1.725 6.272.92z" transform="translate(0 47) translate(0 53)"/>
                <path fill="#1C468A" d="M147.26 158.824c5.8-.613 7.557-2.676 7.734-3.499.158-.73-2.707-.987-5.781-1.325l-.029.056s-3.478 2.353-8.305 2.464c-3.934.09-8.101-.985-10.819-.943-.06.859-.12 1.736.062 2.596.512 2.442 4.159 2.034 8.233 1.084 4.075-.95 3.107.18 8.906-.433z" transform="translate(0 47) translate(0 53)"/>
                <path fill="#FFB27D" d="M116 60.19s1.704-3.531 3.578-3.675c1.874-.144 7.836-.937 8.262-.217.426.72 0 3.315-1.277 4.252-1.278.937-9.2 2.45-9.2 2.45L116 60.19z" transform="translate(0 47) translate(0 53)"/>
                <path fill="#0D3284" d="M106 115.602l-14.45 38.362s-2.22.212-4.348-.393c-1.958-.557-4.202-2.019-4.202-2.019s3.584-36.833 10.156-44.495c6.571-7.661 12.844 8.545 12.844 8.545" transform="translate(0 47) translate(0 53)"/>
                <path fill="#123C98" d="M48.927 100.326s41.156-13.864 50.335-10.914c9.179 2.95 36.738 57.577 36.738 57.577s-.621.824-2.32 1.458c-1.579.59-5.401.553-5.401.553s-24.872-21.24-27.833-27.434c-2.96-6.195-4.145-12.095-7.106-11.505-2.96.59-38.195 14.454-46.19 6.195-7.994-8.26-5.903-18.991-5.903-18.991l7.68 3.061z" transform="translate(0 47) translate(0 53)"/>
                <path fill="#B5453C" d="M73.379 1.62C71.589.605 69.443.495 67.943.583c.386-.397 1.146-.542 1.146-.542-.93-.138-3.007.782-3.007.782-12.945-4.972-14.98 14.028-14.707 18.443.27 4.413.303 9.494-6.159 13.453-12.714 7.79-1.987 21.39-1.987 21.39.1.058 5.916 9.891 5.916 9.891-.327-3.567 16.183-22.392 24.797-28.03 2.097-3.077 2.842-8.514 2.898-8.942-.362 4.31-1.102 6.729-1.763 8.09 7.294-6.692 3.047-30.81-1.698-33.498" transform="translate(0 47) translate(0 53)"/>
                <path fill="#FFB27D" d="M74 36.384c.046.02-4.434 2.31-7.803 1.403-3.17-.85-5.24-4.896-5.196-4.905 1.342-.263 1.729-2.079 1.7-9.882l.607.118 10.202 1.989s-.232 3.16-.239 6.139c-.007 2.5.147 4.871.729 5.138" transform="translate(0 47) translate(0 53)"/>
                <path fill="#ED975D" d="M72 25.713s-.205 2.722-.21 5.287c-5.037-.136-7.7-4.552-8.79-7l9 1.713z" transform="translate(0 47) translate(0 53)"/>
                <path fill="#B5453C" d="M62.536 23s-2.786-4.51-3.454-8.367c-.478-2.753.89-12.959 10.9-11.489 0 0 2.907.294 5.64 2.185 2.173 1.504 5.31 4.75 1.803 13.656l-.911 3.009L62.536 23z" transform="translate(0 47) translate(0 53)"/>
                <path fill="#FFB27D" d="M74.79 28s-12.64.205-12.648-7.547c-.009-7.752-1.646-12.947 6.424-13.406 8.07-.458 9.64 2.498 10.283 5.085.642 2.587-.77 15.614-4.059 15.867" transform="translate(0 47) translate(0 53)"/>
                <path fill="#B5453C" d="M75 6.626s-3.59 9.385-9.1 10.772c-5.51 1.388-7.9-.058-7.9-.058s4.226-3.288 5.103-9.028c0 0 9.189-6.153 11.897-1.686" transform="translate(0 47) translate(0 53)"/>
                <path fill="#B5453C" d="M73 7.562s2.423 2.14 3.014 4.22c.59 2.079.856 6.36 1.984 6.214 0 0 2.444-6.512-.303-10.196C74.783 3.894 73 7.562 73 7.562" transform="translate(0 47) translate(0 53)"/>
                <path fill="#1747AF" d="M44.474 71.042c-1.257-5.186 3.021-15.25 7.488-23.58 4.052-7.551 8.259-13.677 8.637-13.456 10.688 6.237 11.654 1.051 11.654 1.051v.001c.005.001 9.71 1.267 12.458 5.92 3.41 5.773 7.095 21.905 10.754 24.958-.562 1.691-.321 2.592.274 4.687.128.45.269.876.424 1.28.551 1.474 1.241 2.67 1.837 3.71-1.86 1.11-5.452 3.224-8.099 1.705-4.034-2.322-7.182-9.39-8.954-12.204l-.02-.032c-3.85 21.432 1.386 26.313-1.265 28.573-2.799 2.386-6.797-1.137-15.594 2.612-5.77 2.461-13.778 6.02-19.168 6.639-2.827.326-4.936-.157-5.624-2.035-2-5.455 7.598-19.943 5.198-29.83" transform="translate(0 47) translate(0 53)"/>
                <path fill="#FFF" d="M71 23.426s.248.666 2.867.563c0 0 2.199-.086 2.131-.818 0 0-2.132-.52-4.998.255" transform="translate(0 47) translate(0 53)"/>
                <path fill="#0D3284" d="M40.27 100.865c.672 1.883 2.735 2.368 5.499 2.04 3.648-1.603 19.405-7.76 19.23-11.93-.262-6.177-3.03-6.374-1.076-13.998 1.57-6.121-12.99-17.503-15.312-19.977-4.368 8.355-4.488 8.75-3.258 13.95 2.345 9.915-7.038 24.444-5.083 29.915" transform="translate(0 47) translate(0 53)"/>
                <path fill="#1747AF" d="M38.262 78c2.808-3.977 5.733-6.08 7.657-7.137-.443-1.151 11.811-16.303 11.811-18.651C57.73 49.835 61 33 61 33s-10.21.636-13.746 5.608C42.834 44.828 33.651 68.76 38.262 78" transform="translate(0 47) translate(0 53)"/>
                <path fill="#FFB27D" d="M45.736 72L66 76.861 64.098 80s-24.66-.158-25.967-1.538C36.824 77.082 45.736 72 45.736 72" transform="translate(0 47) translate(0 53)"/>
                <path fill="#163560" d="M81 64c1.766 2.873 4.904 10.088 8.927 12.458 2.638 1.551 6.219-.606 8.073-1.74-.594-1.061-1.282-2.282-1.831-3.787-1.48.34-3.287.777-4.451 1.13C89.452 72.751 81 64 81 64" transform="translate(0 47) translate(0 53)"/>
                <path fill="#FFB27D" d="M65.922 76.517s6.432-1.892 7.964-1.45c1.532.442 6.781 4.056 6.043 5.038-.738.981-5.362-.588-7.49-.29-2.127.296-3.773 1.388-5.305 1.152-1.532-.236-3.134-.862-3.134-.862l1.922-3.588z" transform="translate(0 47) translate(0 53)"/>
                <path fill="#FFB27D" d="M66 76.92s2.719-1.808 3.492-2.837c.098-.13.263-.103.338.05.207.423.401 1.24-.553 2.053-1.372 1.17-3.277.735-3.277.735" transform="translate(0 47) translate(0 53)"/>
                <path fill="#4FB4EF" d="M96 85H66c0-1.104 1.07-2 2.391-2H96v2z" transform="translate(0 47) translate(0 53)"/>
                <path fill="#ED7D2B" d="M96.464 52L143 52 131.838 85 85 85z" transform="translate(0 47) translate(0 53)"/>
                <path fill="#4FB4EF" d="M143 52L131.836 85 85 85 96.463 52z" transform="translate(0 47) translate(0 53)"/>
                <path fill="#FFF" d="M116.948 68c-.248 1.105-1.322 2-2.398 2s-1.747-.895-1.498-2c.248-1.105 1.322-2 2.398-2s1.747.895 1.498 2" transform="translate(0 47) translate(0 53)"/>
                <path fill="#4FB4EF" d="M143 52l-11.116 33H101c20.458-7.06 25.904-28.587 26.818-33H143z" transform="translate(0 47) translate(0 53)"/>
                <path fill="#95C0F4" d="M7.874 186c.6 0 1.112-.417 1.215-.986l5.953-33.39 8.564-48.023L26 90.172 19.9 90l-1.057 7.795-7.43 54.782-4.406 32.472c-.067.504.34.951.867.951" transform="translate(0 47) translate(0 53)"/>
                <path fill="#78ACEA" d="M19 98.024C22.865 99.8 23.658 104 23.658 104L26 90.177 20.035 90 19 98.024z" transform="translate(0 47) translate(0 53)"/>
                <path fill="#95C0F4" d="M156.125 186c-.599 0-1.112-.417-1.214-.986l-5.953-33.39-8.563-48.023L138 90.172l6.1-.172 1.057 7.795 7.43 54.782 4.406 32.472c.067.504-.34.951-.868.951" transform="translate(0 47) translate(0 53)"/>
                <path fill="#78ACEA" d="M145 98.024c-3.865 1.776-4.658 5.976-4.658 5.976L138 90.177l5.965-.177L145 98.024z" transform="translate(0 47) translate(0 53)"/>
                <path fill="#78ACEA" d="M3.638 96h152.724c2.001 0 3.638-1.728 3.638-3.84v-3.32c0-2.112-1.637-3.84-3.638-3.84H3.638C1.637 85 0 86.728 0 88.84v3.32C0 94.272 1.637 96 3.638 96" transform="translate(0 47) translate(0 53)"/>
                <path fill="#C4DBE9" d="M168.24 8h-32.48c-4.268 0-7.76 3.494-7.76 7.766v12.298c0 1.951.73 3.74 1.93 5.108L128 42l11.128-6.17h29.113c4.268 0 7.759-3.495 7.759-7.766V15.766C176 11.494 172.509 8 168.24 8l-12.757 8.628" transform="translate(0 47) translate(0 53)"/>
                <path fill="#006BCB" d="M169.712 18h-34.424c-.708 0-1.288-.45-1.288-1s.58-1 1.288-1h34.424c.708 0 1.288.45 1.288 1s-.58 1-1.288 1" transform="translate(0 47) translate(0 53)"/>
                <path fill="#006BCB" d="M169.712 23h-34.424c-.708 0-1.288-.49-1.288-1.088 0-.598.58-1.088 1.288-1.088h34.424c.708 0 1.288.49 1.288 1.088 0 .598-.58 1.088-1.288 1.088l-6.802-7M135.288 28c-.708 0-1.288-.45-1.288-1s.58-1 1.288-1h34.424c.708 0 1.288.45 1.288 1s-.58 1-1.288 1h-34.424z" transform="translate(0 47) translate(0 53)"/>
            </g>
            <g>
                <path fill="#FFB27D" d="M10 49.938s-2.149-7.313-3.369-8.1c-1.22-.786-6.308-3.432-6.61-2.717-.303.715 2.747 4.189 3.425 5.348.678 1.159 1.016 2.303.542 1.802-.474-.5-3.05-2.175-3.32-1.802-.272.372 1.287 1.802 2.032 2.946.746 1.144 1.56 3.075 4.202 3.504 2.644.429 3.098-.981 3.098-.981M97 113.416s-.653 6.906-1.37 8.212c-.716 1.306-3.768 5.48-5.068 6.299-1.3.82.794-5.5.53-6.73-.265-1.229-1.07 2.245-1.643 2.326-.573.082-.426-3.044-.446-4.182-.02-1.138 2.787-3.946 3.777-6.369.99-2.422 4.22.444 4.22.444" transform="translate(0 47) translate(176)"/>
                <path fill="#0D3284" d="M75 44.017S69.308 71.76 37.988 80.823C28.211 83.653 6 51.687 6 51.687s.78-2.947 5.673-2.27c0 0 21.627 14.218 24.35 15.763 2.416 1.37 18.304-17.618 25.546-20.682 7.243-3.063 13.431-.48 13.431-.48" transform="translate(0 47) translate(176)"/>
                <path fill="#1747AF" d="M114.83 220.698s3.819 3.585 3.074 6.132c-.745 2.547-4.19 4.246-4.656 7.359-.466 3.113-2.328 4.811-4.004 4.811h-7.99s-1.235-2.19 1.745-2.851c2.98-.66 4.103-4.319 3.917-7.715-.186-3.396.28-7.924.28-7.924l6.331-1.51 1.304 1.698zM67.853 230.596s.728 6.706-1.054 7.404L44 237.963s0-2.094 3.662-2.56c3.662-.465 10.095-2.17 11.184-5.97 1.088-3.8 9.007 1.163 9.007 1.163" transform="translate(0 47) translate(176)"/>
                <path fill="#4FB4EF" d="M48 113.966s1.145 14.19 2.491 31.246c1.83 23.17 4.03 51.631 4.248 57.022.376 9.363 1.886 24.339 1.886 24.339s3.58 3.558 10.746 2.058c0 0 6.385-21.378 8.209-43.998l.085-1.118C77.362 160.488 80 112 80 112l-32 1.966z" transform="translate(0 47) translate(176)"/>
                <path fill="url(#3bpsxvxhta)" d="M48 114.948s1.145 14.066 2.491 30.975L75.58 185l.085-1.108C77.362 161.066 80 113 80 113l-32 1.948z" transform="translate(0 47) translate(176)"/>
                <path fill="#4FB4EF" d="M50 113.772s22.173 54.19 36.752 79.655C101.332 218.893 105.888 226 105.888 226s8.353-3.257 9.112-5.478c0 0-5.575-49.164-15.339-61.148-5.517-6.772-11.997-27.095-12.301-34.202-.304-7.107-1.975-21.172-1.975-21.172L50 113.772z" transform="translate(0 47) translate(176)"/>
                <path fill="#FFB27D" d="M81 35.922s-14.59 7.137-23 4.489c0 0 2.07-2.648 5.693-4.618-.29-1.712-.517-3.197-.647-4.456-.355-2.907-.355-4.554-.355-4.554l5.628-4.488L73.657 18C73.237 30.077 81 35.922 81 35.922" transform="translate(0 47) translate(176)"/>
                <path fill="#123C98" d="M89 108.414c.031.87-1.843 1.862-2.672 2.233-6.134 2.67-11.857 4.53-18.344 5.15-7.661.776-16.723-.93-19.84-.868-.317 0-.603-.123-.857-.342-.223-.155-.381-9.306-.223-20.816 0-.463 0-.929.032-1.394v-.155c.064-4.498.222-9.214.445-13.93.445-10.361 1.273-20.351 2.671-25.873 1.684-6.515 5.501-10.826 8.967-13.961l2.86-2.48c2.861.557 5.882.402 8.902-1.055 3.307-1.581 6.868-3.288 7.44-2.854 4.323 3.132 7.248 10.174 8.807 19.172.007.045.017.088.023.133.874 5.145 1.312 10.9 1.28 16.928 0 2.235-.064 4.529-.19 6.794-.638 10.26-.212 19.393.206 25.721.082 1.25.166 2.39.238 3.41.127 1.799.223 3.195.255 4.187" transform="translate(0 47) translate(176)"/>
                <path fill="#113686" d="M86 102c-22.813-26.95-8.66-46.537-8.66-46.537L84.755 53c.839 5.1 1.26 10.803 1.229 16.776 0 2.216-.061 4.489-.183 6.733C85.19 86.677 85.599 95.73 86 102" transform="translate(0 47) translate(176)"/>
                <path fill="#ED985F" d="M73 24.286S69.667 30.314 63.322 32C63 29.428 63 27.971 63 27.971L68.088 24l4.912.286z" transform="translate(0 47) translate(176)"/>
                <path fill="#FFB27D" d="M60.665 28.725s13.657 2.282 14.938-6.294c1.282-8.576 3.908-14.058-4.757-15.877-8.665-1.82-10.852 1.196-11.972 3.954-1.12 2.758-1.729 17.402 1.79 18.217" transform="translate(0 47) translate(176)"/>
                <path fill="#4B4D54" d="M79.955 4.747c.124-.145.409-.263 1.045-.298 0 0-.508-.326-1.188-.343-.132-.906-.603-2.51-2.124-2.899 0 0 .817.447.924 1.41C76.85.762 73.074-.588 62.618.257c-13.78 1.116-9.24 10.156-7.455 11.234 1.784 1.078 6.275-1.877 9.598-1.607 3.324.27 3.957 5.192 5.084 5.867 1.128.676.684-.518 2.21-1.225 1.526-.707 1.67 1.884 1.23 3.568C72.845 19.778 74.94 22 74.94 22l2.118-2.338c2.118-2.338 4.115-12.24 3.152-14.35l-.256-.565" transform="translate(0 47) translate(176)"/>
                <path fill="#0D3284" d="M78.278 32s8.293 4.114 12.27 10.438c6.168 9.811 13.317 45.565 13.45 48.876.132 3.311-5.219 26.686-5.219 26.686s-5.427-.375-6.826-3.244c0 0 1.084-24.017.397-25.56-.687-1.545-22.623-32.217-20.157-38.762C74.66 43.889 78.278 32 78.278 32" transform="translate(0 47) translate(176)"/>
            </g>
        </g>
    </g>
</svg>
