<svg xmlns="http://www.w3.org/2000/svg" width="341" height="288" viewBox="0 0 341 288">
    <g fill="none" fill-rule="evenodd">
        <path stroke="#00B6F5" d="M245.58.5c10.529 0 20.664 4.002 28.353 11.196h0l40.893 38.26c7.417 6.94 11.86 16.018 13.103 25.516 1.244 9.498-.712 19.415-6.092 28.03h0l-48.307 77.354c-7.24 11.592-19.956 18.618-33.622 18.577h0l-220.408-.66V38c0-10.355 4.197-19.73 10.983-26.517C37.27 4.697 46.645.5 57 .5h0z"/>
        <path stroke="#00B6F5" d="M226.58 12.5c10.529 0 20.664 4.002 28.353 11.196h0l40.893 38.26c7.417 6.94 11.86 16.018 13.103 25.516 1.244 9.498-.712 19.415-6.092 28.03h0l-48.307 77.354c-7.24 11.592-19.956 18.618-33.622 18.577h0L.5 210.773V50c0-10.355 4.197-19.73 10.983-26.517C18.27 16.697 27.645 12.5 38 12.5h188.58z"/>
        <g>
            <g fill-rule="nonzero" transform="translate(88 46)">
                <path fill="#002268" d="M103.294.855H17.706C7.974.855 0 8.703 0 18.28v206.15c0 9.577 7.974 17.425 17.706 17.425h85.588c9.732 0 17.706-7.848 17.706-17.426V18.28C120.966 8.703 113.026.855 103.294.855z"/>
                <rect width="111" height="220" x="5" y="5.855" fill="#E4F5FF" rx="13"/>
                <path fill="#D1E8F5" d="M95.24 175.855H28.76c-.969 0-1.76-1.03-1.76-2.294v-8.412c0-1.264.791-2.294 1.76-2.294h66.48c.969 0 1.76 1.03 1.76 2.294v8.412c0 1.263-.791 2.294-1.76 2.294zM95.24 195.855H28.76c-.969 0-1.76-1.03-1.76-2.294v-8.412c0-1.264.791-2.294 1.76-2.294h66.48c.969 0 1.76 1.03 1.76 2.294v8.412c0 1.263-.791 2.294-1.76 2.294z"/>
            </g>
            <g transform="translate(88 46) translate(24 54.855)">
                <path fill="#50B5EF" fill-rule="nonzero" d="M63.182 35.023C62.559 52.817 51.075 67 37 67S11.441 52.817 10.818 35.023h52.364z"/>
                <path fill="#1747AF" fill-rule="nonzero" d="M63.182 35.023c.017-.505.026-1.013.026-1.523C63.208 14.998 51.474 0 37 0 22.526 0 10.792 14.998 10.792 33.5c0 .51.009 1.018.026 1.523h52.364z"/>
                <path fill="#FFF" d="M19.252 35.023c-.768 3.723-.545 8.081 1.01 13 .253.803 1.118 1.25 1.93 1 .813-.25 1.266-1.105 1.013-1.907-1.508-4.772-1.605-8.8-.793-12.093h-3.16zm30.578 0H46.54c.57 1.277.891 2.707.891 4.234 0 .841.69 1.523 1.542 1.523.851 0 1.542-.682 1.542-1.523 0-1.485-.243-2.908-.686-4.234zm-21.43 0h-3.273c-.737 2.385-.797 4.96-.419 7.425.81 5.261 3.657 10.45 6.798 13.101.648.546 1.62.471 2.174-.168.553-.64.477-1.6-.17-2.147-2.493-2.104-5.037-6.586-5.753-11.244-.383-2.487-.233-4.894.644-6.967zm3.051 0h4.994c-1.806.447-3.16 2.085-3.265 4.168-.16 3.154 1.852 11.378 11.33 14.25.813.248 1.27 1.1 1.02 1.903-.25.804-1.111 1.256-1.925 1.01C32.388 52.952 29.893 43.137 30.1 39.038c.074-1.47.556-2.859 1.35-4.016zm7.018 0c1.863.452 3.246 2.113 3.246 4.092 0 .048.002.096.006.142.166 3.87 3.407 6.948 7.356 6.948 4.059 0 7.35-3.25 7.35-7.259 0-1.298-.156-2.618-.46-3.923h-3.175c.364 1.298.551 2.623.551 3.923 0 2.327-1.91 4.214-4.266 4.214-2.36 0-4.28-1.89-4.28-4.214 0-.048-.001-.095-.006-.142-.06-1.4-.52-2.696-1.272-3.781h-5.05zm-.925 2.368c.85.025 1.52.727 1.494 1.568-.066 2.119.98 5.57 3.377 7.573 1.771 1.48 4.618 2.284 8.774 1.794.845-.1 1.612.497 1.713 1.332.101.835-.502 1.593-1.348 1.692-4.672.551-8.487-.284-11.13-2.493-3.255-2.72-4.556-7.142-4.468-9.99.026-.841.737-1.502 1.588-1.476z"/>
                <path fill="#4FB4EF" d="M23.684 13c7.944-5.04 19.589-5.263 27.784.005.714.459.916 1.402.451 2.107-.464.705-1.42.904-2.133.446-7.144-4.593-17.477-4.41-24.435.004-.717.455-1.67.25-2.13-.458-.46-.707-.253-1.65.463-2.104zM17.23 25.543c10.848-15.611 32.196-12.794 40.518-.08.462.706.258 1.649-.457 2.106-.715.456-1.67.254-2.132-.452-7.249-11.074-25.909-13.49-35.387.15-.482.693-1.442.869-2.143.393-.703-.476-.88-1.424-.4-2.117zm38.737 9.48c-1.747-7.498-8.388-14.547-18.49-14.547-5.546 0-11.265 2.44-14.896 7.177-1.584 2.067-2.744 4.535-3.328 7.37h3.16c.532-2.16 1.455-4.002 2.627-5.532 2.993-3.906 7.763-5.97 12.437-5.97 8.149 0 13.629 5.477 15.316 11.502h3.174zm-6.136 0H46.54c-2.273-5.088-8.506-7.745-14.197-4.415-1.922 1.124-3.197 2.648-3.944 4.415h-3.273c.854-2.759 2.613-5.26 5.646-7.036 7.963-4.659 16.6-.303 19.057 7.036zm-18.379 0c1.3-1.893 3.436-3.167 5.997-3.167 2.522 0 4.748 1.255 6.071 3.167h-5.05c-.327-.08-.67-.122-1.021-.122-.346 0-.681.042-1.003.122h-4.994z"/>
                <rect width="74" height="4.568" y="35.023" fill="#1747AF" fill-rule="nonzero" rx="1.5"/>
            </g>
        </g>
    </g>
</svg>
