<svg xmlns="http://www.w3.org/2000/svg" width="395" height="411" viewBox="0 0 395 411">
    <g fill="none" fill-rule="evenodd">
        <path fill-rule="nonzero" stroke="#00B6F5" stroke-dasharray="4 4" d="M97 152.387c0-10.445 6.68-19.75 16.657-23.2l74.625-25.807c5.32-1.84 11.115-1.84 16.436 0l74.625 25.808c9.977 3.45 16.657 12.754 16.657 23.199V282.42C296 295.996 284.863 307 271.125 307h-149.25C108.137 307 97 295.996 97 282.421V152.387z" opacity=".3" transform="translate(1 1)"/>
        <path fill-rule="nonzero" stroke="#00B6F5" stroke-dasharray="4 4" d="M51 126.965c0-15.54 9.769-29.382 24.358-34.515l109.125-38.397c7.78-2.737 16.254-2.737 24.034 0L317.642 92.45C332.232 97.583 342 111.426 342 126.965v193.467C342 340.628 325.714 357 305.625 357H87.375C67.285 357 51 340.628 51 320.432V126.965z" opacity=".3" transform="translate(1 1)"/>
        <path fill-rule="nonzero" stroke="#00B6F5" stroke-dasharray="4 4" d="M0 100.527c0-20.838 13.193-39.4 32.896-46.284l147.375-51.49c10.507-3.67 21.951-3.67 32.458 0l147.375 51.49C379.807 61.126 393 79.689 393 100.527v259.435C393 387.045 371.006 409 343.875 409H49.125C21.995 409 0 387.045 0 359.962V100.527z" opacity=".3" transform="translate(1 1)"/>
        <path fill="#002268" fill-rule="nonzero" d="M144 176.282c0-5.655 3.525-10.693 8.789-12.56l39.375-13.975c2.807-.996 5.865-.996 8.672 0l39.375 13.974c5.264 1.868 8.789 6.906 8.789 12.561v70.41c0 7.35-5.876 13.308-13.125 13.308h-78.75c-7.249 0-13.125-5.958-13.125-13.309v-70.409z" transform="translate(1 1)"/>
        <g>
            <path fill="#8FD6EF" fill-rule="nonzero" d="M0 35c0-4.418 3.668-8 8.192-8h54.616C67.332 27 71 30.582 71 35v21.333C71 75.48 55.106 91 35.5 91S0 75.48 0 56.333V35z" transform="translate(1 1) translate(161 191)"/>
            <path stroke="#00B6F5" stroke-linecap="round" stroke-width="7" d="M52 16c0-4.243-1.686-8.313-4.686-11.314C44.314 1.686 40.244 0 36 0c-4.243 0-8.313 1.686-11.314 4.686-3 3-4.686 7.07-4.686 11.314" transform="translate(1 1) translate(161 191)"/>
            <path fill="#FFF" d="M7 77.559L19.258 27H30L15.695 86C12.335 83.714 9.39 80.854 7 77.559zM25.836 91c-1.668-.506-3.284-1.14-4.836-1.89L35.716 27H41L25.836 91z" transform="translate(1 1) translate(161 191)"/>
            <path fill="#0F277F" d="M40.808 58.942c-.276-1.13.215-2.287 1-3.133C43.165 54.343 44 52.362 44 50.182 44 45.663 40.418 42 36 42s-8 3.663-8 8.182c0 2.18.834 4.16 2.193 5.627.784.846 1.275 2.003.999 3.133l-2.364 9.67c-.42 1.72.853 3.388 2.587 3.388h9.17c1.734 0 3.008-1.667 2.587-3.389l-2.364-9.669z" transform="translate(1 1) translate(161 191)"/>
        </g>
    </g>
</svg>
