<svg xmlns="http://www.w3.org/2000/svg" width="44.379" height="44.377" viewBox="0 0 44.379 44.377">
  <g id="customer_1_" data-name="customer (1)" transform="translate(0 -0.013)">
    <g id="Grupo_234" data-name="Grupo 234" transform="translate(0 20.464)">
      <g id="Grupo_233" data-name="Grupo 233">
        <path id="Trazado_1057" data-name="Trazado 1057" d="M42.991,237.4a3.9,3.9,0,0,0-5.369.324l-3.821,4.1a3.907,3.907,0,0,0-3.725-2.744H23.257c-.517,0-.691-.2-1.59-.89a9.12,9.12,0,0,0-11.991.029l-2.507,2.207a3.884,3.884,0,0,0-3.575-.045L.719,241.82a1.3,1.3,0,0,0-.582,1.745l7.8,15.6a1.3,1.3,0,0,0,1.745.582l2.875-1.438a3.9,3.9,0,0,0,2.155-3.626H30.076a9.144,9.144,0,0,0,7.281-3.64l6.241-8.322A3.89,3.89,0,0,0,42.991,237.4Zm-31.6,18.584-1.712.856L3.044,243.565l1.713-.856a1.3,1.3,0,0,1,1.744.582l5.475,10.95A1.3,1.3,0,0,1,11.394,255.984Zm30.123-14.823-6.241,8.322a6.531,6.531,0,0,1-5.2,2.6H13.8l-4.872-9.745,2.461-2.166a6.516,6.516,0,0,1,8.589,0,4.6,4.6,0,0,0,3.274,1.51h6.819a1.3,1.3,0,0,1,0,2.6h-6.64a1.3,1.3,0,0,0,0,2.6h7.511a3.911,3.911,0,0,0,2.854-1.242l5.724-6.144a1.3,1.3,0,0,1,1.993,1.664Z" transform="translate(0 -235.959)" fill="#edb634"/>
      </g>
    </g>
    <g id="Grupo_236" data-name="Grupo 236" transform="translate(15.688 0.013)">
      <g id="Grupo_235" data-name="Grupo 235" transform="translate(0 0)">
        <path id="Trazado_1058" data-name="Trazado 1058" d="M192.643,8.885A5.179,5.179,0,0,0,194.082,5.3a5.271,5.271,0,0,0-5.2-5.287A5.357,5.357,0,0,0,183.594,5.3a5.1,5.1,0,0,0,1.486,3.6,7.931,7.931,0,0,0-4.087,6.892v1.3a1.3,1.3,0,0,0,1.3,1.3h13.088a1.3,1.3,0,0,0,1.3-1.3v-1.3A7.925,7.925,0,0,0,192.643,8.885Zm-3.762-6.272a2.68,2.68,0,0,1,2.6,2.687,2.6,2.6,0,0,1-2.6,2.6,2.68,2.68,0,0,1-2.687-2.6A2.758,2.758,0,0,1,188.881,2.613Zm-5.287,13.174a5.357,5.357,0,0,1,5.287-5.287,5.25,5.25,0,0,1,5.2,5.287Z" transform="translate(-180.994 -0.013)" fill="#edb634"/>
      </g>
    </g>
  </g>
</svg>
