<svg xmlns="http://www.w3.org/2000/svg" width="36.719" height="30.489" viewBox="0 0 36.719 30.489">
  <g id="Grupo_269" data-name="Grupo 269" transform="translate(-5.329 41.14)">
    <path id="Trazado_1056" data-name="Trazado 1056" d="M40.817-19.353l-.316,0V-38.344a2.8,2.8,0,0,0-2.8-2.8H9.691a2.8,2.8,0,0,0-2.8,2.8v18.99H6.578a1.243,1.243,0,0,0-1.249,1.239v4.669a2.8,2.8,0,0,0,2.8,2.8H39.253a2.8,2.8,0,0,0,2.795-2.8v-4.669A1.241,1.241,0,0,0,40.817-19.353ZM9.369-38.661H38.018v19.307H28.356a1.248,1.248,0,0,0-.877.363l-1.2,1.2H21.1l-1.2-1.2a1.248,1.248,0,0,0-.876-.363H9.352ZM39.578-13.126H7.817v-3.746h10.7l1.189,1.2a1.242,1.242,0,0,0,.875.363h6.234a1.255,1.255,0,0,0,.885-.363l1.2-1.2H39.578Z" fill="#8e89f4"/>
    <path id="Trazado_1057" data-name="Trazado 1057" d="M33.281-22.528a1.235,1.235,0,0,0,.875-.36,1.232,1.232,0,0,0,.365-.874,1.239,1.239,0,0,0-.359-.879,1.233,1.233,0,0,0-.875-.366h-.316l-.013-.316V-36.219a1.241,1.241,0,0,0-1.239-1.239H25.494a1.242,1.242,0,0,0-1.24,1.239v4.987H20.508v-.317a1.241,1.241,0,0,0-1.239-1.24H13.042a1.241,1.241,0,0,0-1.239,1.24v6.543h-.325a1.228,1.228,0,0,0-.871.36,1.229,1.229,0,0,0-.368.875,1.243,1.243,0,0,0,1.235,1.244H33.281ZM18.029-25.007H14.282v-5.3h3.747Zm6.225,0H20.508v-3.747h3.746Zm6.226,0H26.733v-9.972H30.48Z" transform="translate(1.316 0.987)" fill="#8e89f4"/>
  </g>
</svg>
