<svg xmlns="http://www.w3.org/2000/svg" width="44.904" height="48.823" viewBox="0 0 44.904 48.823">
  <g id="distance" transform="translate(-3.42 0.5)">
    <path id="Trazado_1016" data-name="Trazado 1016" d="M197.648,26.656a13.328,13.328,0,1,1,13.328-13.328A13.343,13.343,0,0,1,197.648,26.656Zm0-25.088a11.76,11.76,0,1,0,11.76,11.76A11.773,11.773,0,0,0,197.648,1.568Zm0,0" transform="translate(-163.152)" fill="#cf24b5" stroke="#cf24b5" stroke-width="1"/>
    <path id="Trazado_1017" data-name="Trazado 1017" d="M263.3,133.266a6.256,6.256,0,0,1-4.607-1.771.783.783,0,1,1,1.16-1.053,5.363,5.363,0,0,0,6.874.02.784.784,0,1,1,1.148,1.067A6.288,6.288,0,0,1,263.3,133.266Zm0,0" transform="translate(-228.803 -115.234)" fill="#cf24b5" stroke="#cf24b5" stroke-width="1"/>
    <path id="Trazado_1018" data-name="Trazado 1018" d="M228.417,56.181a1.568,1.568,0,1,1-1.568-1.568A1.568,1.568,0,0,1,228.417,56.181Zm0,0" transform="translate(-199.409 -48.341)" fill="#cf24b5" stroke="#cf24b5" stroke-width="1"/>
    <path id="Trazado_1019" data-name="Trazado 1019" d="M351.3,56.181a1.568,1.568,0,1,1-1.568-1.568A1.568,1.568,0,0,1,351.3,56.181Zm0,0" transform="translate(-308.176 -48.341)" fill="#cf24b5" stroke="#cf24b5" stroke-width="1"/>
    <path id="Trazado_1020" data-name="Trazado 1020" d="M303.511,240.5a1.568,1.568,0,1,1-1.568-1.568A1.568,1.568,0,0,1,303.511,240.5Zm0,0" transform="translate(-265.879 -211.494)" fill="#cf24b5" stroke="#cf24b5" stroke-width="1"/>
    <path id="Trazado_1021" data-name="Trazado 1021" d="M37.269,390.689a1.568,1.568,0,1,1-1.568-1.568A1.568,1.568,0,0,1,37.269,390.689Zm0,0" transform="translate(-30.213 -344.433)" fill="#cf24b5" stroke="#cf24b5" stroke-width="1"/>
    <path id="Trazado_1022" data-name="Trazado 1022" d="M89.5,264.578H55.4a.784.784,0,0,1,0-1.568H89.5a3.528,3.528,0,1,0,0-7.056H74.6a5.1,5.1,0,0,1,0-10.192h9.8a.784.784,0,0,1,0,1.568H74.6a3.528,3.528,0,0,0,0,7.056H89.5a5.1,5.1,0,0,1,0,10.192Zm0,0" transform="translate(-48.341 -217.538)" fill="#cf24b5" stroke="#cf24b5" stroke-width="1"/>
  </g>
</svg>
