<svg id="earnings_1_" data-name="earnings (1)" xmlns="http://www.w3.org/2000/svg" width="35.501" height="35.502" viewBox="0 0 35.501 35.502">
  <path id="Trazado_1003" data-name="Trazado 1003" d="M9.361,362H1.04A1.04,1.04,0,0,0,0,363.04v8.321a1.04,1.04,0,0,0,1.04,1.04H9.361a1.04,1.04,0,0,0,1.04-1.04V363.04A1.04,1.04,0,0,0,9.361,362Zm-1.04,2.08v2.08H2.08v-2.08Zm0,6.24H2.08v-2.08H8.321Zm0,0" transform="translate(0 -336.899)" fill="#ec11b1"/>
  <path id="Trazado_1004" data-name="Trazado 1004" d="M190.361,302H182.04a1.04,1.04,0,0,0-1.04,1.04v12.481a1.04,1.04,0,0,0,1.04,1.04h8.321a1.04,1.04,0,0,0,1.04-1.04V303.04A1.04,1.04,0,0,0,190.361,302Zm-7.281,6.241h6.241v2.08H183.08Zm6.241-4.16v2.08H183.08v-2.08Zm0,10.4H183.08V312.4h6.241Zm0,0" transform="translate(-168.45 -281.06)" fill="#ec11b1"/>
  <path id="Trazado_1005" data-name="Trazado 1005" d="M371.361,182H363.04a1.04,1.04,0,0,0-1.04,1.04v20.8a1.04,1.04,0,0,0,1.04,1.04h8.321a1.04,1.04,0,0,0,1.04-1.04v-20.8A1.04,1.04,0,0,0,371.361,182Zm-7.281,12.481V192.4h6.24v2.08Zm6.24-4.16h-6.24v-2.08h6.24Zm-6.24,6.24h6.24v2.08h-6.24Zm6.24-12.481v2.08h-6.24v-2.08Zm0,18.721h-6.24v-2.08h6.24Zm0,0" transform="translate(-336.899 -169.38)" fill="#ec11b1"/>
  <path id="Trazado_1006" data-name="Trazado 1006" d="M62.04,18.791a1.036,1.036,0,0,0,.735-.3L70.361,10.9l3.425,3.425a1.04,1.04,0,0,0,1.473,0l10.7-10.763V5.2a1.04,1.04,0,1,0,2.08,0V1.04h0A1.039,1.039,0,0,0,87.032,0h-4.19a1.04,1.04,0,0,0,0,2.08H84.5L74.519,12.118,71.1,8.695a1.04,1.04,0,0,0-1.471,0L61.3,17.015a1.04,1.04,0,0,0,.735,1.775Zm0,0" transform="translate(-56.77 0)" fill="#ec11b1"/>
</svg>
