<svg xmlns="http://www.w3.org/2000/svg" width="11.949" height="33.179" viewBox="0 0 11.949 33.179">
  <g id="Grupo_271" data-name="Grupo 271" transform="translate(18229.715 -479.803)">
    <g id="Símbolo_7_1" data-name="Símbolo 7 1" transform="translate(-18229.715 479.803)">
      <path id="Trazado_10" data-name="Trazado 10" d="M216.5-19.924h-.15a3.285,3.285,0,0,1-3.2-2.72l-2.68-13.625a5.975,5.975,0,0,1,5.975-5.975h0a5.975,5.975,0,0,1,5.974,5.975l-.027.425L219.75-22.616A3.286,3.286,0,0,1,216.5-19.924Zm-.076-2.815a.507.507,0,0,0,.562-.407l2.623-13.122a3.158,3.158,0,0,0-3.159-3.156h0a3.158,3.158,0,0,0-3.155,3.033l2.631,13.223a.492.492,0,0,0,.5.429Z" transform="translate(-210.474 42.244)" fill="#29a9ff"/>
      <path id="Trazado_11" data-name="Trazado 11" d="M216.175-14.391a4.768,4.768,0,0,1-4.773-4.766,4.769,4.769,0,0,1,4.766-4.773h.006a4.77,4.77,0,0,1,4.773,4.766,4.769,4.769,0,0,1-4.766,4.773Zm0-6.724a1.956,1.956,0,0,0-1.912,2,1.954,1.954,0,0,0,1.912,1.91h0a1.953,1.953,0,0,0,1.91-2A1.955,1.955,0,0,0,216.175-21.115Z" transform="translate(-210.204 47.57)" fill="#29a9ff"/>
    </g>
  </g>
</svg>
