<svg xmlns="http://www.w3.org/2000/svg" width="45.429" height="24.724" viewBox="0 0 45.429 24.724">
  <g id="eye" transform="translate(0 -100.736)">
    <g id="Grupo_216" data-name="Grupo 216" transform="translate(0 100.736)">
      <path id="Trazado_1000" data-name="Trazado 1000" d="M22.715,125.46c-5.109,0-10.607-2-15.9-5.778a40.25,40.25,0,0,1-6.5-5.743,1.285,1.285,0,0,1,0-1.682,40.256,40.256,0,0,1,6.5-5.743c5.293-3.78,10.791-5.778,15.9-5.778s10.607,2,15.9,5.778a40.256,40.256,0,0,1,6.5,5.743,1.285,1.285,0,0,1,0,1.682,40.255,40.255,0,0,1-6.5,5.743C33.321,123.462,27.823,125.46,22.715,125.46ZM3.046,113.1a40.546,40.546,0,0,0,5.313,4.529c3.374,2.4,8.6,5.263,14.356,5.263s10.982-2.862,14.356-5.263a40.548,40.548,0,0,0,5.313-4.529,40.54,40.54,0,0,0-5.313-4.529c-3.374-2.4-8.6-5.263-14.356-5.263s-10.982,2.862-14.356,5.263A40.532,40.532,0,0,0,3.046,113.1Z" transform="translate(0 -100.736)" fill="#b800d9"/>
    </g>
    <g id="Grupo_217" data-name="Grupo 217" transform="translate(14.75 105.133)">
      <path id="Trazado_1001" data-name="Trazado 1001" d="M151.485,159.451a7.965,7.965,0,1,1,5.246-13.958,1.285,1.285,0,0,1-1.693,1.933,5.4,5.4,0,1,0,1.842,4.06,1.285,1.285,0,1,1,2.569,0A7.974,7.974,0,0,1,151.485,159.451Z" transform="translate(-143.52 -143.521)" fill="#b800d9"/>
    </g>
    <g id="Grupo_218" data-name="Grupo 218" transform="translate(20.145 110.529)">
      <path id="Trazado_1002" data-name="Trazado 1002" d="M198.589,201.16a2.569,2.569,0,1,1,2.569-2.569A2.572,2.572,0,0,1,198.589,201.16Z" transform="translate(-196.02 -196.021)" fill="#b800d9"/>
    </g>
  </g>
</svg>
