<svg xmlns="http://www.w3.org/2000/svg" width="46.507" height="46.521" viewBox="0 0 46.507 46.521">
  <g id="flow-chart" transform="translate(0.458 0.5)">
    <g id="Grupo_232" data-name="Grupo 232" transform="translate(0.042)">
      <path id="Trazado_1056" data-name="Trazado 1056" d="M43.274,19.72H40.24V14.411a.758.758,0,0,0-.758-.758H32.019l-8.465-2.821V9.1h5.309a2.275,2.275,0,0,0,2.275-2.275V2.275A2.275,2.275,0,0,0,28.863,0H16.728a2.275,2.275,0,0,0-2.275,2.275V6.826A2.275,2.275,0,0,0,16.728,9.1h5.309v1.729l-8.583,2.861a.758.758,0,0,0,0,1.441l8.583,2.858V19.72H19A2.275,2.275,0,0,0,16.728,22v.758H12.177V22A2.275,2.275,0,0,0,9.9,19.72H2.317A2.275,2.275,0,0,0,.042,22v3.034A2.275,2.275,0,0,0,2.317,27.3H5.351V34.95a5.309,5.309,0,1,0,6.007,6.007h6.189a5.309,5.309,0,1,0,0-1.517H11.358a5.309,5.309,0,0,0-4.49-4.49V27.3H9.9a2.275,2.275,0,0,0,2.275-2.275v-.758h4.551v.758A2.275,2.275,0,0,0,19,27.3h7.585a2.275,2.275,0,0,0,2.275-2.275v-.758h4.551v.758A2.275,2.275,0,0,0,35.689,27.3h3.034V34.95a5.309,5.309,0,1,0,1.517,0V27.3h3.034a2.275,2.275,0,0,0,2.275-2.275V22A2.275,2.275,0,0,0,43.274,19.72ZM22.8,36.406A3.792,3.792,0,1,1,19,40.2,3.792,3.792,0,0,1,22.8,36.406ZM9.9,40.2A3.792,3.792,0,1,1,6.11,36.406,3.792,3.792,0,0,1,9.9,40.2Zm.758-15.169a.758.758,0,0,1-.758.758H2.317a.758.758,0,0,1-.758-.758V22a.758.758,0,0,1,.758-.758H9.9A.758.758,0,0,1,10.66,22ZM16.728,7.585a.758.758,0,0,1-.758-.758V2.275a.758.758,0,0,1,.758-.758H28.863a.758.758,0,0,1,.758.758V6.826a.758.758,0,0,1-.758.758Zm-.636,6.826,6.7-2.234,6.7,2.234-6.7,2.234ZM27.346,25.029a.758.758,0,0,1-.758.758H19a.758.758,0,0,1-.758-.758V22A.758.758,0,0,1,19,21.237h7.585a.758.758,0,0,1,.758.758ZM33.414,22v.758H28.863V22a2.275,2.275,0,0,0-2.275-2.275H23.554V17.991l8.465-2.821h6.7V19.72H35.689A2.275,2.275,0,0,0,33.414,22Zm9.86,18.2a3.792,3.792,0,1,1-3.792-3.792A3.792,3.792,0,0,1,43.274,40.2Zm.758-15.169a.758.758,0,0,1-.758.758H35.689a.758.758,0,0,1-.758-.758V22a.758.758,0,0,1,.758-.758h7.585a.758.758,0,0,1,.758.758Z" transform="translate(-0.042)" fill="#d84381" stroke="#d84381" stroke-width="1"/>
    </g>
  </g>
</svg>
