<svg xmlns="http://www.w3.org/2000/svg" width="37.272" height="37.872" viewBox="0 0 37.272 37.872">
  <g id="Grupo_265" data-name="Grupo 265" transform="translate(-7.617 -2.809)">
    <path id="Trazado_1065" data-name="Trazado 1065" d="M8.829,12.694a1.211,1.211,0,1,0-1.212-1.211A1.213,1.213,0,0,0,8.829,12.694Z" transform="translate(0 4.354)" fill="#932aad"/>
    <path id="Trazado_1066" data-name="Trazado 1066" d="M8.829,16.425a1.211,1.211,0,1,0-1.212-1.211A1.213,1.213,0,0,0,8.829,16.425Z" transform="translate(0 6.531)" fill="#932aad"/>
    <circle id="Elipse_130" data-name="Elipse 130" cx="1.211" cy="1.211" r="1.211" transform="translate(7.617 32.352)" fill="#932aad"/>
    <path id="Trazado_1067" data-name="Trazado 1067" d="M8.829,20.157a1.211,1.211,0,1,0-1.212-1.211A1.213,1.213,0,0,0,8.829,20.157Z" transform="translate(0 8.707)" fill="#932aad"/>
    <path id="Trazado_1068" data-name="Trazado 1068" d="M8.829,8.962A1.211,1.211,0,1,0,7.617,7.752,1.213,1.213,0,0,0,8.829,8.962Z" transform="translate(0 2.177)" fill="#932aad"/>
    <path id="Trazado_1069" data-name="Trazado 1069" d="M44.635,5.21a1.556,1.556,0,0,0,.223-1.159,1.538,1.538,0,0,0-.654-.986,1.513,1.513,0,0,0-2.111.438L38.007,9.788a2.831,2.831,0,0,0-.347-.023,3.84,3.84,0,0,0-3.806,3.866,3.735,3.735,0,0,0,.138.969l-3.751,4.86a3.709,3.709,0,0,0-1.706-.423,3.812,3.812,0,0,0-3.777,3.495l-6,3.549a3.738,3.738,0,0,0-2.777-1.247,3.869,3.869,0,0,0-3.236,5.887L7.866,38.286A1.567,1.567,0,0,0,8.3,40.428a1.51,1.51,0,0,0,2.109-.444l4.842-7.5a3.447,3.447,0,0,0,.729.082,3.81,3.81,0,0,0,3.776-3.5l6-3.545a3.733,3.733,0,0,0,2.777,1.244,3.839,3.839,0,0,0,3.8-3.866,3.717,3.717,0,0,0-.135-.968l3.75-4.859a3.736,3.736,0,0,0,1.706.421,3.84,3.84,0,0,0,3.8-3.866,3.892,3.892,0,0,0-.787-2.333Zm-6.217,8.42a.758.758,0,1,1-.758-.772A.766.766,0,0,1,38.419,13.63ZM29.291,22.9a.758.758,0,1,1-.758-.77A.767.767,0,0,1,29.291,22.9ZM16.743,28.7a.759.759,0,1,1-.758-.77A.765.765,0,0,1,16.743,28.7Z" transform="translate(0 0)" fill="#932aad"/>
    <path id="Trazado_1070" data-name="Trazado 1070" d="M8.829,5.23A1.211,1.211,0,1,0,7.617,4.02,1.212,1.212,0,0,0,8.829,5.23Z" transform="translate(0 0)" fill="#932aad"/>
    <circle id="Elipse_131" data-name="Elipse 131" cx="1.211" cy="1.211" r="1.211" transform="translate(36.657 38.26)" fill="#932aad"/>
    <path id="Trazado_1071" data-name="Trazado 1071" d="M31.218,25.2a1.211,1.211,0,1,0,1.212,1.211A1.212,1.212,0,0,0,31.218,25.2Z" transform="translate(12.459 13.061)" fill="#932aad"/>
    <path id="Trazado_1072" data-name="Trazado 1072" d="M12.56,25.2a1.211,1.211,0,1,0,1.212,1.211A1.212,1.212,0,0,0,12.56,25.2Z" transform="translate(2.077 13.061)" fill="#932aad"/>
    <circle id="Elipse_132" data-name="Elipse 132" cx="1.211" cy="1.211" r="1.211" transform="translate(30.85 38.26)" fill="#932aad"/>
    <path id="Trazado_1073" data-name="Trazado 1073" d="M20.024,25.2a1.211,1.211,0,1,0,1.211,1.211A1.213,1.213,0,0,0,20.024,25.2Z" transform="translate(6.229 13.061)" fill="#932aad"/>
    <path id="Trazado_1074" data-name="Trazado 1074" d="M16.292,25.2A1.211,1.211,0,1,0,17.5,26.41,1.213,1.213,0,0,0,16.292,25.2Z" transform="translate(4.153 13.061)" fill="#932aad"/>
  </g>
</svg>
