<svg xmlns="http://www.w3.org/2000/svg" width="34.386" height="30.523" viewBox="0 0 34.386 30.523">
  <g id="Grupo_267" data-name="Grupo 267" transform="translate(-151.874 41.695)">
    <path id="Trazado_1059" data-name="Trazado 1059" d="M183.374-38.744a9.9,9.9,0,0,0-7.034-2.951h-.074a9.778,9.778,0,0,0-7.027,2.992l-.226.234-.234-.226a10.155,10.155,0,0,0-7.077-2.877,10.311,10.311,0,0,0-2.551.32,9.522,9.522,0,0,0-6.936,7.151,9.747,9.747,0,0,0,2.928,9.835l11.782,11.8a2.574,2.574,0,0,0,2.1,1.3,2.521,2.521,0,0,0,1.985-1c.067-.078.125-.143.2-.22l11.633-11.833a9.978,9.978,0,0,0,3.413-7.464A9.894,9.894,0,0,0,183.374-38.744ZM180.952-26.3,169.121-14.271,157.093-26.3a6.991,6.991,0,0,1-2.16-7.052l.035-.144a6.675,6.675,0,0,1,4.894-5.031,7.46,7.46,0,0,1,1.826-.226c.025,0,.064,0,.1,0a7.149,7.149,0,0,1,6.028,3.342l1.2,1.991,1.213-1.973a7.013,7.013,0,0,1,6.056-3.487h.072a7.224,7.224,0,0,1,7.1,7.306A7.372,7.372,0,0,1,180.952-26.3Z" transform="translate(0)" fill="#6628c9"/>
  </g>
</svg>
