<svg xmlns="http://www.w3.org/2000/svg" width="44.178" height="44.178" viewBox="0 0 44.178 44.178">
  <path id="network" d="M38.468,0a4.71,4.71,0,0,0-4.14,6.956l-7.716,7.716a6.239,6.239,0,0,0-7.69,0L12.9,8.651a3.1,3.1,0,0,0,.445-1.585,3.14,3.14,0,1,0-3.14,3.14,3.1,3.1,0,0,0,1.585-.445l6.021,6.021a6.24,6.24,0,0,0,0,7.69L7.869,33.414a4.663,4.663,0,1,0,.981,1.239L18.922,24.581a6.244,6.244,0,0,0,3.06,1.271v7.976a4.71,4.71,0,1,0,1.57,0V25.852a6.243,6.243,0,0,0,3.06-1.271L32.633,30.6a3.1,3.1,0,0,0-.446,1.586,3.14,3.14,0,1,0,3.14-3.14,3.1,3.1,0,0,0-1.585.445l-6.021-6.021a6.24,6.24,0,0,0,0-7.69l7.588-7.588A4.707,4.707,0,1,0,38.468,0ZM8.636,7.066a1.57,1.57,0,1,1,1.57,1.57A1.572,1.572,0,0,1,8.636,7.066ZM4.71,40.038a3.14,3.14,0,1,1,3.14-3.14A3.143,3.143,0,0,1,4.71,40.038Zm21.2-1.57a3.14,3.14,0,1,1-3.14-3.14A3.143,3.143,0,0,1,25.907,38.468Zm-3.14-14.131a4.71,4.71,0,1,1,4.71-4.71A4.715,4.715,0,0,1,22.767,24.337ZM36.9,32.187a1.57,1.57,0,1,1-1.57-1.57A1.572,1.572,0,0,1,36.9,32.187Zm1.57-24.337a3.14,3.14,0,1,1,3.14-3.14A3.143,3.143,0,0,1,38.468,7.851Z" transform="translate(0.5 0.5)" fill="#ff6a70" stroke="#ff6a70" stroke-width="1"/>
</svg>
