<svg id="performance" xmlns="http://www.w3.org/2000/svg" width="42.131" height="42.131" viewBox="0 0 42.131 42.131">
  <path id="Trazado_1010" data-name="Trazado 1010" d="M35.963,35.96a21.065,21.065,0,0,0,0-29.789h0A21.066,21.066,0,0,0,6.169,35.96h0a21.066,21.066,0,0,0,29.789,0h0Zm-.91-2.653-2.93-2.93a14.46,14.46,0,0,0,0-18.624l2.93-2.93a18.559,18.559,0,0,1,0,24.483ZM33.307,7.078l-2.93,2.93a14.46,14.46,0,0,0-18.624,0l-2.93-2.93a18.56,18.56,0,0,1,24.483,0ZM7.078,8.824l2.93,2.93a14.461,14.461,0,0,0,0,18.624l-2.93,2.93a18.559,18.559,0,0,1,0-24.483ZM8.824,35.053l3.766-3.766a1.234,1.234,0,0,0,0-1.745A11.987,11.987,0,1,1,29.542,12.59h0a11.9,11.9,0,0,1,3.394,6.8c-3.465-.984-10.307-2.868-11.871-2.868a4.54,4.54,0,0,0,0,9.079c1.564,0,8.406-1.885,11.871-2.868a11.9,11.9,0,0,1-3.4,6.8,1.234,1.234,0,0,0,0,1.745l3.766,3.766a18.56,18.56,0,0,1-24.484,0ZM29.738,21.066a75.222,75.222,0,0,1-8.672,2.071,2.071,2.071,0,0,1,0-4.142A75.294,75.294,0,0,1,29.738,21.066Zm0,0" fill="#1577dd"/>
  <path id="Trazado_1011" data-name="Trazado 1011" d="M214.437,354.609h-5.476a1.234,1.234,0,0,0,0,2.469h5.476a1.234,1.234,0,1,0,0-2.469Zm0,0" transform="translate(-190.633 -325.429)" fill="#1577dd"/>
</svg>
