<svg xmlns="http://www.w3.org/2000/svg" width="36.128" height="36.128" viewBox="0 0 36.128 36.128">
  <g id="union" transform="translate(0.5 0.5)">
    <path id="Trazado_1026" data-name="Trazado 1026" d="M222.68,312.609h-.8a.516.516,0,0,0,0,1.031h.8a.516.516,0,0,0,0-1.031Zm0,0" transform="translate(-206.179 -291.161)" fill="#7735d9" stroke="#7735d9" stroke-width="1"/>
    <path id="Trazado_1027" data-name="Trazado 1027" d="M265.293,312.609h-.8a.516.516,0,0,0,0,1.031h.8a.516.516,0,0,0,0-1.031Zm0,0" transform="translate(-245.869 -291.161)" fill="#7735d9" stroke="#7735d9" stroke-width="1"/>
    <path id="Trazado_1028" data-name="Trazado 1028" d="M307.526,306.6a.751.751,0,0,0-.412,1.444h.412a.516.516,0,0,0,.516-.516v-.412A.516.516,0,0,0,307.526,306.6Zm0,0" transform="translate(-285.562 -285.562)" fill="#7735d9" stroke="#7735d9" stroke-width="1"/>
    <path id="Trazado_1029" data-name="Trazado 1029" d="M313.641,264.5a.516.516,0,0,0-1.031,0v.8a.516.516,0,0,0,1.031,0Zm0,0" transform="translate(-291.161 -245.872)" fill="#7735d9" stroke="#7735d9" stroke-width="1"/>
    <path id="Trazado_1030" data-name="Trazado 1030" d="M313.641,221.883a.516.516,0,0,0-1.031,0v.8a.516.516,0,1,0,1.031,0Zm0,0" transform="translate(-291.161 -206.179)" fill="#7735d9" stroke="#7735d9" stroke-width="1"/>
    <path id="Trazado_1031" data-name="Trazado 1031" d="M222.68,184.359h-.8a.516.516,0,1,0,0,1.031h.8a.516.516,0,1,0,0-1.031Zm0,0" transform="translate(-206.179 -171.711)" fill="#7735d9" stroke="#7735d9" stroke-width="1"/>
    <path id="Trazado_1032" data-name="Trazado 1032" d="M265.3,184.359h-.8a.516.516,0,0,0,0,1.031h.8a.516.516,0,0,0,0-1.031Zm0,0" transform="translate(-245.872 -171.711)" fill="#7735d9" stroke="#7735d9" stroke-width="1"/>
    <path id="Trazado_1033" data-name="Trazado 1033" d="M185.8,184.875a.516.516,0,0,0-.516-.516h-.412a.516.516,0,0,0-.516.516v.412a.91.91,0,0,0,1.444-.412Zm0,0" transform="translate(-171.711 -171.711)" fill="#7735d9" stroke="#7735d9" stroke-width="1"/>
    <path id="Trazado_1034" data-name="Trazado 1034" d="M185.391,221.883a.516.516,0,1,0-1.031,0v.8a.516.516,0,1,0,1.031,0Zm0,0" transform="translate(-171.711 -206.179)" fill="#7735d9" stroke="#7735d9" stroke-width="1"/>
    <path id="Trazado_1035" data-name="Trazado 1035" d="M184.875,263.984a.516.516,0,0,0-.516.515v.8a.516.516,0,0,0,1.031,0v-.8A.516.516,0,0,0,184.875,263.984Zm0,0" transform="translate(-171.711 -245.872)" fill="#7735d9" stroke="#7735d9" stroke-width="1"/>
    <path id="Trazado_1036" data-name="Trazado 1036" d="M399,1.031h.865a.516.516,0,0,0,0-1.031H399a.516.516,0,0,0,0,1.031Zm0,0" transform="translate(-371.144 0)" fill="#7735d9" stroke="#7735d9" stroke-width="1"/>
    <path id="Trazado_1037" data-name="Trazado 1037" d="M352.765,1.031h.865a.516.516,0,0,0,0-1.031h-.865a.516.516,0,0,0,0,1.031Zm0,0" transform="translate(-328.082 0)" fill="#7735d9" stroke="#7735d9" stroke-width="1"/>
    <path id="Trazado_1038" data-name="Trazado 1038" d="M445.238,1.031h.865A.516.516,0,1,0,446.1,0h-.865a.516.516,0,1,0,0,1.031Zm0,0" transform="translate(-414.21 0)" fill="#7735d9" stroke="#7735d9" stroke-width="1"/>
    <path id="Trazado_1039" data-name="Trazado 1039" d="M491.885,0h-.412a.516.516,0,0,0-.094,1.022A.516.516,0,0,0,492.4.928V.516A.515.515,0,0,0,491.885,0Zm0,0" transform="translate(-457.273)" fill="#7735d9" stroke="#7735d9" stroke-width="1"/>
    <path id="Trazado_1040" data-name="Trazado 1040" d="M497.484,84.969a.516.516,0,0,0-.516.516v.855a.516.516,0,0,0,1.031,0v-.855A.516.516,0,0,0,497.484,84.969Zm0,0" transform="translate(-462.872 -79.139)" fill="#7735d9" stroke="#7735d9" stroke-width="1"/>
    <path id="Trazado_1041" data-name="Trazado 1041" d="M497.484,39.258a.516.516,0,0,0-.516.516v.855a.516.516,0,0,0,1.031,0v-.855A.516.516,0,0,0,497.484,39.258Zm0,0" transform="translate(-462.872 -36.564)" fill="#7735d9" stroke="#7735d9" stroke-width="1"/>
    <path id="Trazado_1042" data-name="Trazado 1042" d="M497.484,130.684a.516.516,0,0,0-.516.516v.855a.516.516,0,1,0,1.031,0V131.2A.516.516,0,0,0,497.484,130.684Zm0,0" transform="translate(-462.872 -121.717)" fill="#7735d9" stroke="#7735d9" stroke-width="1"/>
    <path id="Trazado_1043" data-name="Trazado 1043" d="M34.613,12.1a.516.516,0,0,0-.516.516v.031H22.479V1.021A.516.516,0,0,0,22.376,0H.516A.516.516,0,0,0,0,.516L.067,22.376a.516.516,0,0,0,1.021.1H12.649V34.1a.515.515,0,0,0,.036,1.029H34.613a.516.516,0,0,0,.516-.516V26.661a.516.516,0,0,0-1.031,0V34.1H13.68V22.469a.516.516,0,0,0-.009-1.012.516.516,0,0,0-1.012-.009H1.031V1.031H21.448V12.659a.516.516,0,0,0,.009,1.012.516.516,0,0,0,1.012.009H34.1V24.187a.516.516,0,0,0,1.031,0V12.618A.516.516,0,0,0,34.613,12.1Zm0,0" transform="translate(0 0)" fill="#7735d9" stroke="#7735d9" stroke-width="1"/>
    <path id="Trazado_1044" data-name="Trazado 1044" d="M.977,399.865a.516.516,0,0,0,1.031,0V399a.516.516,0,0,0-1.031,0Zm0,0" transform="translate(-0.91 -371.144)" fill="#7735d9" stroke="#7735d9" stroke-width="1"/>
    <path id="Trazado_1045" data-name="Trazado 1045" d="M1.492,354.146a.516.516,0,0,0,.516-.515v-.865a.516.516,0,0,0-1.031,0v.865A.515.515,0,0,0,1.492,354.146Zm0,0" transform="translate(-0.91 -328.082)" fill="#7735d9" stroke="#7735d9" stroke-width="1"/>
    <path id="Trazado_1046" data-name="Trazado 1046" d="M.977,446.1a.516.516,0,0,0,1.031,0v-.865a.516.516,0,0,0-1.031,0Zm0,0" transform="translate(-0.91 -414.21)" fill="#7735d9" stroke="#7735d9" stroke-width="1"/>
    <path id="Trazado_1047" data-name="Trazado 1047" d="M2,491.378a.516.516,0,0,0-1.022.094v.412a.515.515,0,0,0,.516.516H1.9A.516.516,0,0,0,2,491.378Zm0,0" transform="translate(-0.91 -457.273)" fill="#7735d9" stroke="#7735d9" stroke-width="1"/>
    <path id="Trazado_1048" data-name="Trazado 1048" d="M133.031,496.969h-.855a.516.516,0,0,0,0,1.031h.855a.516.516,0,1,0,0-1.031Zm0,0" transform="translate(-122.627 -462.872)" fill="#7735d9" stroke="#7735d9" stroke-width="1"/>
    <path id="Trazado_1049" data-name="Trazado 1049" d="M87.316,496.969h-.855a.516.516,0,0,0,0,1.031h.855a.516.516,0,0,0,0-1.031Zm0,0" transform="translate(-80.049 -462.872)" fill="#7735d9" stroke="#7735d9" stroke-width="1"/>
    <path id="Trazado_1050" data-name="Trazado 1050" d="M41.605,496.969H40.75a.516.516,0,0,0,0,1.031h.855a.516.516,0,0,0,0-1.031Zm0,0" transform="translate(-37.474 -462.872)" fill="#7735d9" stroke="#7735d9" stroke-width="1"/>
  </g>
</svg>
