<svg xmlns="http://www.w3.org/2000/svg" xmlns:xlink="http://www.w3.org/1999/xlink" width="48.08" height="42.884" viewBox="0 0 48.08 42.884">
  <defs>
    <linearGradient id="linear-gradient" x1="0.789" x2="0" y2="1.618" gradientUnits="objectBoundingBox">
      <stop offset="0" stop-color="#8916db"/>
      <stop offset="0.433" stop-color="#6e45ce"/>
      <stop offset="1" stop-color="#0082e1"/>
    </linearGradient>
  </defs>
  <g id="Grupo_376" data-name="Grupo 376" transform="translate(-231 -1312)">
    <g id="Grupo_201" data-name="Grupo 201" transform="translate(0 -763)">
      <path id="Trazado_976" data-name="Trazado 976" d="M546.5,3244.667h19.4a4.648,4.648,0,0,1,4.023,2.323l9.7,16.8a4.646,4.646,0,0,1,0,4.646l-9.7,16.8a4.648,4.648,0,0,1-4.023,2.323H546.5a4.648,4.648,0,0,1-4.023-2.323l-9.7-16.8a4.647,4.647,0,0,1,0-4.646l9.7-16.8A4.648,4.648,0,0,1,546.5,3244.667Z" transform="translate(-301.153 -1169.667)" fill="url(#linear-gradient)"/>
    </g>
    <g id="settings" transform="translate(243 1300.872)">
      <g id="Grupo_286" data-name="Grupo 286" transform="translate(0 22.702)">
        <path id="Trazado_1137" data-name="Trazado 1137" d="M14.555,103.686a.433.433,0,0,0-.087-.249q-.7-.836-1.123-1.434a6.128,6.128,0,0,0,.4-.948l1.933-.3a.29.29,0,0,0,.2-.131.407.407,0,0,0,.087-.243V98.074a.371.371,0,0,0-.087-.243.36.36,0,0,0-.212-.131l-1.9-.287a8.533,8.533,0,0,0-.424-1.023q.187-.275.561-.748t.524-.673a.417.417,0,0,0,.087-.237q0-.337-1.8-2a.414.414,0,0,0-.262-.1.365.365,0,0,0-.25.087l-1.472,1.11a5.49,5.49,0,0,0-.935-.387l-.287-1.908a.321.321,0,0,0-.125-.218.381.381,0,0,0-.25-.094H6.822a.365.365,0,0,0-.374.3,14.336,14.336,0,0,0-.287,1.921,6.064,6.064,0,0,0-.96.4L3.767,92.724a.449.449,0,0,0-.262-.087q-.237,0-.985.736A10.576,10.576,0,0,0,1.5,94.482a.365.365,0,0,0-.087.25.475.475,0,0,0,.087.249q.7.836,1.122,1.434a6.151,6.151,0,0,0-.4.948l-1.933.3a.29.29,0,0,0-.2.131A.407.407,0,0,0,0,98.036v2.307a.371.371,0,0,0,.087.243.307.307,0,0,0,.212.119l1.9.3a6.386,6.386,0,0,0,.437,1.023q-.2.275-.586.761t-.511.661a.419.419,0,0,0-.087.237q0,.337,1.8,2a.414.414,0,0,0,.262.1.337.337,0,0,0,.249-.087l1.472-1.11a5.464,5.464,0,0,0,.935.386l.287,1.908a.321.321,0,0,0,.125.218.38.38,0,0,0,.249.093h2.32a.365.365,0,0,0,.374-.3,14.871,14.871,0,0,0,.287-1.933,5.646,5.646,0,0,0,.96-.386l1.434,1.122a.449.449,0,0,0,.262.087q.237,0,.979-.742a13.042,13.042,0,0,0,1.029-1.116A.319.319,0,0,0,14.555,103.686Zm-4.315-2.22a3.076,3.076,0,0,1-2.257.935,3.193,3.193,0,0,1,0-6.385,3.192,3.192,0,0,1,2.257,5.45Z" transform="translate(0 -88.234)" fill="#fff"/>
        <path id="Trazado_1139" data-name="Trazado 1139" d="M336.625,26.032a3.49,3.49,0,0,0-.374-.649,6.91,6.91,0,0,0,.636-1.721.107.107,0,0,0-.05-.087q-1.5-.873-1.547-.873l-.075.025a11.481,11.481,0,0,0-1.147,1.4q-.249-.025-.374-.025c-.083,0-.208.008-.374.025q-.174-.262-.648-.842t-.574-.58a3.061,3.061,0,0,0-.374.2q-.349.2-.736.424t-.436.249a.107.107,0,0,0-.05.087,6.917,6.917,0,0,0,.636,1.721,3.5,3.5,0,0,0-.374.649q-1.858.187-1.858.387v1.746q0,.2,1.858.387a3.632,3.632,0,0,0,.374.649,6.919,6.919,0,0,0-.636,1.721.108.108,0,0,0,.05.087q1.521.885,1.547.885.1,0,.574-.586t.648-.848q.249.025.374.025t.374-.025q.174.262.648.848t.574.586q.025,0,1.547-.885a.107.107,0,0,0,.05-.087,6.923,6.923,0,0,0-.636-1.721,3.629,3.629,0,0,0,.374-.649q1.858-.187,1.858-.387V26.419Q338.483,26.219,336.625,26.032Zm-1.8,2.388a1.581,1.581,0,1,1,.468-1.129A1.537,1.537,0,0,1,334.823,28.42Z" transform="translate(-314.537 -22.702)" fill="#fff"/>
      </g>
    </g>
  </g>
</svg>
