<svg xmlns="http://www.w3.org/2000/svg" xmlns:xlink="http://www.w3.org/1999/xlink" width="48.08" height="42.884" viewBox="0 0 48.08 42.884">
  <defs>
    <linearGradient id="linear-gradient" x1="-0.563" y1="1.911" x2="1.179" y2="-0.141" gradientUnits="objectBoundingBox">
      <stop offset="0" stop-color="#3cffa5"/>
      <stop offset="1" stop-color="#6953ff"/>
    </linearGradient>
  </defs>
  <g id="Grupo_377" data-name="Grupo 377" transform="translate(-231 -1507)">
    <g id="Símbolo_14_5" data-name="Símbolo 14 – 5" transform="translate(-18.907 -545)">
      <path id="Trazado_976" data-name="Trazado 976" d="M546.5,3244.667h19.4a4.648,4.648,0,0,1,4.023,2.323l9.7,16.8a4.646,4.646,0,0,1,0,4.646l-9.7,16.8a4.648,4.648,0,0,1-4.023,2.323H546.5a4.648,4.648,0,0,1-4.023-2.323l-9.7-16.8a4.647,4.647,0,0,1,0-4.646l9.7-16.8A4.648,4.648,0,0,1,546.5,3244.667Z" transform="translate(-282.246 -1192.667)" fill="url(#linear-gradient)"/>
    </g>
    <g id="campaigning" transform="translate(242 1494.541)">
      <path id="Trazado_1141" data-name="Trazado 1141" d="M37.546,25.459H34.172a.811.811,0,0,0-.811.811V27L22.5,30.223a.811.811,0,0,0-.58.777v6.327a.809.809,0,0,0,.01.122c0,.008,0,.015,0,.023a.814.814,0,0,0,.024.1l2.3,7.342a.81.81,0,0,0,1.016.532L28.621,44.4a.811.811,0,0,0,.532-1.016l-1.139-3.641,5.348,1.586v.732a.811.811,0,0,0,.811.811h3.374a.811.811,0,0,0,.811-.811V26.27A.811.811,0,0,0,37.546,25.459ZM27.362,43.094l-1.8.563-1.6-5.116,2.179.646Zm-.342-5.337-.007,0-3.47-1.029V31.606l9.819-2.911V39.637Zm9.715,3.494H34.983V27.081h1.752Z" transform="translate(-19.551)" fill="#fff"/>
      <path id="Trazado_1142" data-name="Trazado 1142" d="M186.336,132.788l-3.509-1.755a.811.811,0,1,0-.725,1.451l3.509,1.755a.811.811,0,1,0,.725-1.451Z" transform="translate(-162.011 -94.082)" fill="#fff"/>
      <path id="Trazado_1143" data-name="Trazado 1143" d="M182.465,53.158a.806.806,0,0,0,.362-.086l3.509-1.755a.811.811,0,1,0-.725-1.451L182.1,51.622a.811.811,0,0,0,.363,1.537Z" transform="translate(-162.011 -21.692)" fill="#fff"/>
      <path id="Trazado_1144" data-name="Trazado 1144" d="M197.751,98.48h-2.93a.811.811,0,1,0,0,1.622h2.93a.811.811,0,1,0,0-1.622Z" transform="translate(-173.032 -65.125)" fill="#fff"/>
    </g>
  </g>
</svg>
