<svg xmlns="http://www.w3.org/2000/svg" width="51.782" height="47.799" viewBox="0 0 51.782 47.799">
  <g id="Grupo_361" data-name="Grupo 361" transform="translate(-231 -1515.708)">
    <path id="Trazado_813" data-name="Trazado 813" d="M726.851,1536.816a3.983,3.983,0,0,0,3.983,3.983H774.65a3.983,3.983,0,0,0,3.983-3.983v-39.833A3.983,3.983,0,0,0,774.65,1493H730.834a3.983,3.983,0,0,0-3.983,3.983Zm1.992-39.833a1.991,1.991,0,0,1,1.992-1.992H774.65a1.992,1.992,0,0,1,1.992,1.992v39.833a1.992,1.992,0,0,1-1.992,1.992H730.834a1.991,1.991,0,0,1-1.992-1.992Z" transform="translate(-495.851 22.708)" fill="#fd3a84"/>
    <path id="Trazado_817" data-name="Trazado 817" d="M730.6,1500.5h43.816v1.992H730.6Z" transform="translate(-495.618 23.175)" fill="#fd3a84"/>
    <path id="Trazado_818" data-name="Trazado 818" d="M751.634,1512.688a6.971,6.971,0,1,0,6.97,6.97A6.97,6.97,0,0,0,751.634,1512.688Zm0,11.95a4.979,4.979,0,1,1,4.979-4.979A4.98,4.98,0,0,1,751.634,1524.638Z" transform="translate(-494.743 23.933)" fill="#fd3a84"/>
    <path id="Trazado_819" data-name="Trazado 819" d="M768.092,1517.2a1,1,0,0,0-1-1h-2.632a12.711,12.711,0,0,0-.787-1.9l1.861-1.86a1,1,0,0,0,0-1.408l-4.225-4.224a1,1,0,0,0-1.409,0l-1.86,1.86a12.976,12.976,0,0,0-1.9-.787v-2.631a1,1,0,0,0-1-1h-5.975a1,1,0,0,0-1,1v2.631a12.928,12.928,0,0,0-1.9.787l-1.86-1.86a1,1,0,0,0-1.409,0l-4.225,4.224a1,1,0,0,0,0,1.408l1.861,1.86q-.126.245-.239.492a13.021,13.021,0,0,0-.548,1.411h-2.632a1,1,0,0,0-1,1v5.975a1,1,0,0,0,1,.995h2.632a12.578,12.578,0,0,0,.788,1.9l-1.862,1.86a1,1,0,0,0,0,1.408l4.225,4.224a1,1,0,0,0,1.409,0l1.86-1.86a12.9,12.9,0,0,0,1.9.787v2.632a1,1,0,0,0,1,1h5.975a1,1,0,0,0,1-1v-2.632a12.949,12.949,0,0,0,1.9-.787l1.86,1.86a1,1,0,0,0,1.409,0l4.225-4.224a1,1,0,0,0,0-1.408l-1.861-1.86a12.706,12.706,0,0,0,.787-1.9H767.1a1,1,0,0,0,1-.995Zm-1.992,4.979h-2.385a1,1,0,0,0-.963.747,10.886,10.886,0,0,1-1.165,2.816,1,1,0,0,0,.153,1.21l1.684,1.685-2.816,2.818-1.685-1.685a1,1,0,0,0-1.21-.154,10.876,10.876,0,0,1-2.816,1.165,1,1,0,0,0-.747.965v2.384h-3.983v-2.384a1,1,0,0,0-.747-.965,10.856,10.856,0,0,1-2.816-1.165,1,1,0,0,0-1.211.154l-1.685,1.685-2.816-2.818,1.684-1.685a.994.994,0,0,0,.153-1.21,10.851,10.851,0,0,1-1.164-2.816,1,1,0,0,0-.964-.747h-2.384v-3.983H740.6a1,1,0,0,0,.964-.747,10.751,10.751,0,0,1,.647-1.825q.234-.511.517-1a1,1,0,0,0-.153-1.209l-1.684-1.685,2.816-2.818,1.685,1.686a1,1,0,0,0,1.211.153,10.864,10.864,0,0,1,2.816-1.165,1,1,0,0,0,.747-.964v-2.38h3.983v2.384a1,1,0,0,0,.747.964,10.885,10.885,0,0,1,2.816,1.166,1,1,0,0,0,1.21-.154l1.685-1.685,2.816,2.818-1.684,1.685a1,1,0,0,0-.153,1.21,10.891,10.891,0,0,1,1.165,2.816,1,1,0,0,0,.963.747H766.1Z" transform="translate(-495.268 23.408)" fill="#fd3a84"/>
  </g>
</svg>
