<svg xmlns="http://www.w3.org/2000/svg" xmlns:xlink="http://www.w3.org/1999/xlink" width="48.08" height="42.884" viewBox="0 0 48.08 42.884">
  <defs>
    <linearGradient id="linear-gradient" x1="-0.059" y1="1.171" x2="1.084" y2="-0.135" gradientUnits="objectBoundingBox">
      <stop offset="0" stop-color="#007769"/>
      <stop offset="1" stop-color="#0089ff"/>
    </linearGradient>
  </defs>
  <g id="Grupo_374" data-name="Grupo 374" transform="translate(-231 -882)">
    <g id="Grupo_198" data-name="Grupo 198" transform="translate(0 -714)">
      <path id="Trazado_984" data-name="Trazado 984" d="M546.5,3244.667h19.4a4.648,4.648,0,0,1,4.023,2.323l9.7,16.8a4.646,4.646,0,0,1,0,4.646l-9.7,16.8a4.648,4.648,0,0,1-4.023,2.323H546.5a4.648,4.648,0,0,1-4.023-2.323l-9.7-16.8a4.647,4.647,0,0,1,0-4.646l9.7-16.8A4.648,4.648,0,0,1,546.5,3244.667Z" transform="translate(-301.153 -1648.667)" fill="url(#linear-gradient)"/>
    </g>
    <path id="learning" d="M16.5,4.583V3.666h2.75V1.833H14.665v2.75h-2.75A4.585,4.585,0,0,0,3.021,3.021,4.584,4.584,0,0,0,1.836,11a4.584,4.584,0,0,0,1.185,7.978,4.585,4.585,0,0,0,8.895-1.562h2.75v2.75h4.583V18.331H16.5V11.915h2.75V10.082H16.5ZM7.333,20.165a2.738,2.738,0,0,1-2.681-2.13,2.836,2.836,0,0,1-.069-.62,2.756,2.756,0,0,1,.893-2.029L4.238,14.035A4.589,4.589,0,0,0,2.8,16.759a2.749,2.749,0,0,1,1.78-4.844H8.249V10.082H4.583A2.749,2.749,0,0,1,2.8,5.238,4.579,4.579,0,0,0,4.3,8.021L5.515,6.646a2.751,2.751,0,0,1-.932-2.063,2.836,2.836,0,0,1,.069-.62,2.751,2.751,0,0,1,5.431.62V17.415A2.752,2.752,0,0,1,7.333,20.165Zm7.333-4.583h-2.75V11.915h2.75Zm0-5.5h-2.75V6.416h2.75Zm0,0" transform="translate(245 892)" fill="#fff"/>
  </g>
</svg>
