<svg xmlns="http://www.w3.org/2000/svg" xmlns:xlink="http://www.w3.org/1999/xlink" width="48.08" height="42.884" viewBox="0 0 48.08 42.884">
  <defs>
    <linearGradient id="linear-gradient" x1="0.789" x2="0" y2="1.618" gradientUnits="objectBoundingBox">
      <stop offset="0" stop-color="#8916db"/>
      <stop offset="0.433" stop-color="#6e45ce"/>
      <stop offset="1" stop-color="#0082e1"/>
    </linearGradient>
  </defs>
  <g id="Grupo_374" data-name="Grupo 374" transform="translate(-231 -1741)">
    <g id="Grupo_201" data-name="Grupo 201" transform="translate(0 -334)">
      <path id="Trazado_976" data-name="Trazado 976" d="M546.5,3244.667h19.4a4.648,4.648,0,0,1,4.023,2.323l9.7,16.8a4.646,4.646,0,0,1,0,4.646l-9.7,16.8a4.648,4.648,0,0,1-4.023,2.323H546.5a4.648,4.648,0,0,1-4.023-2.323l-9.7-16.8a4.647,4.647,0,0,1,0-4.646l9.7-16.8A4.648,4.648,0,0,1,546.5,3244.667Z" transform="translate(-301.153 -1169.667)" fill="url(#linear-gradient)"/>
    </g>
    <g id="Grupo_245" data-name="Grupo 245" transform="translate(240.087 1747.79)">
      <path id="Trazado_1074" data-name="Trazado 1074" d="M1059.259,1607.22v-1.646a.544.544,0,0,0-1.088,0v1.646a12.39,12.39,0,0,0-11.68,11.951h-1.917a.544.544,0,0,0,0,1.088h1.917a12.39,12.39,0,0,0,11.68,11.952v1.646a.544.544,0,1,0,1.088,0v-1.646a12.391,12.391,0,0,0,11.681-11.952h1.917a.544.544,0,1,0,0-1.088h-1.917A12.39,12.39,0,0,0,1059.259,1607.22Zm1.632,9.232a.544.544,0,0,0-.544.544v10.878h-1.088v-6.527h-1.088v6.527h-1.088V1617a.544.544,0,0,0-1.088,0v3.264h-1.087v-4.174c.836-1.03,3.011-1.265,3.807-1.265s2.969.232,3.807,1.265v4.174h-1.087V1617A.544.544,0,0,0,1060.891,1616.452Zm-2.176-2.719a1.632,1.632,0,1,1,1.632-1.632A1.632,1.632,0,0,1,1058.715,1613.732Zm.544,17.377v-1.6a.544.544,0,0,0-1.088,0v1.6a11.286,11.286,0,0,1-10.579-10.85h1.333a.544.544,0,1,0,0-1.088h-1.333a11.286,11.286,0,0,1,10.579-10.85v1.114a2.711,2.711,0,0,0-1.422,4.533,4.564,4.564,0,0,0-2.837,1.637.546.546,0,0,0-.092.3v4.895a.544.544,0,0,0,.544.544H1056v7.071a.544.544,0,0,0,.544.544h4.352a.544.544,0,0,0,.544-.544v-7.071h1.631a.544.544,0,0,0,.544-.544v-4.895a.544.544,0,0,0-.091-.3,4.558,4.558,0,0,0-2.838-1.636,2.711,2.711,0,0,0-1.422-4.534v-1.114a11.287,11.287,0,0,1,10.58,10.85h-1.333a.544.544,0,0,0,0,1.088h1.333A11.287,11.287,0,0,1,1059.259,1631.109Z" transform="translate(-1044.03 -1605.03)" fill="#fff"/>
    </g>
  </g>
</svg>
