<svg xmlns="http://www.w3.org/2000/svg" xmlns:xlink="http://www.w3.org/1999/xlink" width="48.08" height="42.884" viewBox="0 0 48.08 42.884">
  <defs>
    <linearGradient id="linear-gradient" x1="-0.563" y1="1.911" x2="1.179" y2="-0.141" gradientUnits="objectBoundingBox">
      <stop offset="0" stop-color="#3cffa5"/>
      <stop offset="1" stop-color="#6953ff"/>
    </linearGradient>
  </defs>
  <g id="Grupo_371" data-name="Grupo 371" transform="translate(-231 -1912)">
    <g id="Símbolo_14_2" data-name="Símbolo 14 – 2" transform="translate(-18.907 -140)">
      <path id="Trazado_976" data-name="Trazado 976" d="M546.5,3244.667h19.4a4.648,4.648,0,0,1,4.023,2.323l9.7,16.8a4.646,4.646,0,0,1,0,4.646l-9.7,16.8a4.648,4.648,0,0,1-4.023,2.323H546.5a4.648,4.648,0,0,1-4.023-2.323l-9.7-16.8a4.647,4.647,0,0,1,0-4.646l9.7-16.8A4.648,4.648,0,0,1,546.5,3244.667Z" transform="translate(-282.246 -1192.667)" fill="url(#linear-gradient)"/>
    </g>
    <path id="Trazado_1105" data-name="Trazado 1105" d="M242.98,1724.28a1.847,1.847,0,0,1-1.508-.927l-7.432-7.432a6.347,6.347,0,0,1-1.923-6.441,6.274,6.274,0,0,1,4.552-4.692,6.694,6.694,0,0,1,6.3,1.674,6.386,6.386,0,0,1,4.656-1.962,6.529,6.529,0,0,1,4.275,11.439l-7.385,7.51c-.044.044-.078.082-.11.118A1.818,1.818,0,0,1,242.98,1724.28Zm-4.65-17.5a4.562,4.562,0,0,0-1.112.137,4.053,4.053,0,0,0-2.956,3.042l-.024.1a4.214,4.214,0,0,0,1.318,4.276l7.486,7.485,7.371-7.492a4.45,4.45,0,0,0,1.515-3.2,4.37,4.37,0,0,0-4.3-4.427,4.238,4.238,0,0,0-3.71,2.114l-.948,1.541-.93-1.551A4.3,4.3,0,0,0,238.33,1706.779Z" transform="translate(12.119 220.079)" fill="#fff"/>
  </g>
</svg>
