<svg xmlns="http://www.w3.org/2000/svg" width="45.342" height="45" viewBox="0 0 45.342 45">
  <g id="Símbolo_11_5" data-name="Símbolo 11 – 5" transform="translate(-211.33 -1619)">
    <path id="Trazado_789" data-name="Trazado 789" d="M223.375,1350h-4.692a1.355,1.355,0,0,0-1.353,1.354v4.887a1.354,1.354,0,1,0,2.707,0v-3.534h3.338a1.354,1.354,0,1,0,0-2.707Z" transform="translate(-6 269)" fill="#ff7e67"/>
    <path id="Trazado_790" data-name="Trazado 790" d="M261.319,1350h-4.692a1.354,1.354,0,1,0,0,2.707h3.338v3.534a1.354,1.354,0,1,0,2.707,0v-4.887A1.355,1.355,0,0,0,261.319,1350Z" transform="translate(-6 269)" fill="#ff7e67"/>
    <path id="Trazado_791" data-name="Trazado 791" d="M237.921,1356.721l2.359-2.36,2.5,2.5a1.354,1.354,0,1,0,1.915-1.914l-3.455-3.455a1.394,1.394,0,0,0-1.914,0l-3.318,3.317a1.356,1.356,0,0,0,0,1.914A1.387,1.387,0,0,0,237.921,1356.721Z" transform="translate(-6 269)" fill="#ff7e67"/>
    <path id="Trazado_792" data-name="Trazado 792" d="M242.471,1388.735l-2.36,2.36-2.5-2.5a1.387,1.387,0,0,0-1.915,0,1.354,1.354,0,0,0,0,1.914l3.455,3.456a1.353,1.353,0,0,0,1.915,0l3.317-3.317a1.357,1.357,0,0,0,0-1.915A1.385,1.385,0,0,0,242.471,1388.735Z" transform="translate(-6 269)" fill="#ff7e67"/>
    <path id="Trazado_793" data-name="Trazado 793" d="M255.958,1375.75a1.356,1.356,0,0,0,1.915,0l3.454-3.455a1.36,1.36,0,0,0,.4-.959,1.342,1.342,0,0,0-.4-.957l-3.317-3.317a1.354,1.354,0,0,0-1.915,1.914l2.361,2.36-2.5,2.5A1.356,1.356,0,0,0,255.958,1375.75Z" transform="translate(-6 269)" fill="#ff7e67"/>
    <path id="Trazado_794" data-name="Trazado 794" d="M224.423,1368.019a1.342,1.342,0,0,0-.4-.957,1.356,1.356,0,0,0-1.915,0l-3.455,3.456a1.343,1.343,0,0,0-.4.957,1.364,1.364,0,0,0,.4.957l3.318,3.318a1.354,1.354,0,1,0,1.914-1.915l-2.36-2.361,2.5-2.5A1.346,1.346,0,0,0,224.423,1368.019Z" transform="translate(-6 269)" fill="#ff7e67"/>
    <path id="Trazado_795" data-name="Trazado 795" d="M223.375,1392.293h-3.338v-3.534a1.354,1.354,0,0,0-2.707,0v4.888a1.355,1.355,0,0,0,1.353,1.353h4.692a1.354,1.354,0,1,0,0-2.707Z" transform="translate(-6 269)" fill="#ff7e67"/>
    <path id="Trazado_796" data-name="Trazado 796" d="M261.319,1387.406a1.355,1.355,0,0,0-1.354,1.353v3.534h-3.338a1.354,1.354,0,1,0,0,2.707h4.692a1.355,1.355,0,0,0,1.353-1.353v-4.888A1.355,1.355,0,0,0,261.319,1387.406Z" transform="translate(-6 269)" fill="#ff7e67"/>
    <path id="Trazado_797" data-name="Trazado 797" d="M250.421,1367.836a10.689,10.689,0,0,0-10.081-8.411,1.219,1.219,0,0,0-.16-.005l-.179,0a10.645,10.645,0,0,0-10.42,8.419,3.335,3.335,0,0,0-2.22,3.146v.27a4.053,4.053,0,0,0,1.984,3.469v.315a7.437,7.437,0,0,0,.383,2.618,1.354,1.354,0,1,0,2.588-.8,4.83,4.83,0,0,1-.264-1.821v-1.2a1.355,1.355,0,0,0-1.006-1.309,1.318,1.318,0,0,1-.978-1.273v-.27a.634.634,0,0,1,.648-.63h0a1.377,1.377,0,0,0,1.388-1.2,7.972,7.972,0,0,1,3.224-5.511v.433a1.354,1.354,0,1,0,2.707,0v-1.7a8.038,8.038,0,0,1,.814-.162v2.215a1.354,1.354,0,1,0,2.708,0v-2.146q.344.069.678.166l.008,2.854a1.354,1.354,0,1,0,2.707-.007l0-1.443a7.888,7.888,0,0,1,2.95,5.305,1.362,1.362,0,0,0,1.362,1.2.651.651,0,0,1,.674.63v.27a1.318,1.318,0,0,1-.977,1.273,1.355,1.355,0,0,0-1.006,1.309v1.2a7.951,7.951,0,0,1-12.361,6.613,1.354,1.354,0,0,0-1.506,2.25,10.658,10.658,0,0,0,16.574-8.863v-.315a4.053,4.053,0,0,0,1.984-3.469v-.27A3.335,3.335,0,0,0,250.421,1367.836Z" transform="translate(-6 269)" fill="#ff7e67"/>
    <path id="Trazado_798" data-name="Trazado 798" d="M235.295,1373.1h2.353a1.354,1.354,0,0,0,0-2.708h-2.353a1.354,1.354,0,0,0,0,2.708Z" transform="translate(-6 269)" fill="#ff7e67"/>
    <path id="Trazado_799" data-name="Trazado 799" d="M244.925,1373.1a1.354,1.354,0,0,0,0-2.708h-2.353a1.354,1.354,0,0,0,0,2.708Z" transform="translate(-6 269)" fill="#ff7e67"/>
  </g>
</svg>
