<svg xmlns="http://www.w3.org/2000/svg" width="51.924" height="45" viewBox="0 0 51.924 45">
  <g id="Símbolo_13_3" data-name="Símbolo 13 – 3" transform="translate(-719.541 -1619)">
    <g id="Grupo_43" data-name="Grupo 43" transform="translate(-6 269)">
      <g id="Grupo_42" data-name="Grupo 42">
        <path id="Trazado_801" data-name="Trazado 801" d="M751.5,1371.635H746.31a.864.864,0,0,0-.865.865.853.853,0,0,0,.091.387l1.64,3.279v3.257a4.327,4.327,0,1,0,8.654,0v-3.461A4.332,4.332,0,0,0,751.5,1371.635Zm-3.792,1.73H751.5a2.6,2.6,0,0,1,2.448,1.731h-5.375Zm6.388,6.058a2.6,2.6,0,0,1-5.193,0v-2.6H754.1Z" fill="#63ce7a"/>
      </g>
    </g>
    <g id="Grupo_45" data-name="Grupo 45" transform="translate(-6 269)">
      <g id="Grupo_44" data-name="Grupo 44">
        <path id="Trazado_802" data-name="Trazado 802" d="M754.964,1383.75h-6.923a4.332,4.332,0,0,0-4.327,4.327v6.058a.865.865,0,0,0,.866.865h13.846a.865.865,0,0,0,.865-.865v-6.058A4.332,4.332,0,0,0,754.964,1383.75Zm2.6,9.519h-1.73v-2.6a.866.866,0,0,0-1.731,0v2.6h-5.193v-2.6a.865.865,0,0,0-1.73,0v2.6h-1.731v-5.192a2.6,2.6,0,0,1,2.6-2.6h6.923a2.6,2.6,0,0,1,2.6,2.6Z" fill="#63ce7a"/>
      </g>
    </g>
    <g id="Grupo_47" data-name="Grupo 47" transform="translate(-6 269)">
      <g id="Grupo_46" data-name="Grupo 46">
        <path id="Trazado_803" data-name="Trazado 803" d="M735.06,1371.635H731.6a2.6,2.6,0,0,0-2.6,2.6v5.192a4.327,4.327,0,1,0,8.653,0v-5.192A2.6,2.6,0,0,0,735.06,1371.635Zm.866,7.788a2.6,2.6,0,0,1-5.193,0v-2.6h5.193Zm0-4.327h-5.193v-.865a.866.866,0,0,1,.866-.866h3.461a.866.866,0,0,1,.866.866Z" fill="#63ce7a"/>
      </g>
    </g>
    <g id="Grupo_49" data-name="Grupo 49" transform="translate(-6 269)">
      <g id="Grupo_48" data-name="Grupo 48">
        <path id="Trazado_804" data-name="Trazado 804" d="M736.791,1383.75h-6.923a4.332,4.332,0,0,0-4.327,4.327v6.058a.865.865,0,0,0,.865.865h13.847a.865.865,0,0,0,.865-.865v-6.058A4.332,4.332,0,0,0,736.791,1383.75Zm2.6,9.519h-1.731v-2.6a.865.865,0,0,0-1.73,0v2.6h-5.193v-2.6a.865.865,0,0,0-1.73,0v2.6h-1.731v-5.192a2.6,2.6,0,0,1,2.6-2.6h6.923a2.6,2.6,0,0,1,2.6,2.6Z" fill="#63ce7a"/>
      </g>
    </g>
    <g id="Grupo_51" data-name="Grupo 51" transform="translate(-6 269)">
      <g id="Grupo_50" data-name="Grupo 50">
        <path id="Trazado_805" data-name="Trazado 805" d="M777.374,1377.31h0l-1.913-3.827a6.468,6.468,0,0,0-11.569,0l-1.913,3.827a.866.866,0,0,0,.387,1.161h0l3.04,1.52a4.3,4.3,0,0,0,8.54,0v-.005l3.04-1.515A.866.866,0,0,0,777.374,1377.31Zm-5.1,2.113a2.6,2.6,0,1,1-5.192,0v-2.6h5.192Zm1.731-1.4v-2.061a.866.866,0,0,0-.866-.866h-6.923a.866.866,0,0,0-.865.866v2.061l-1.435-.718,1.526-3.053a4.737,4.737,0,0,1,8.472,0l1.525,3.053Z" fill="#63ce7a"/>
      </g>
    </g>
    <g id="Grupo_53" data-name="Grupo 53" transform="translate(-6 269)">
      <g id="Grupo_52" data-name="Grupo 52">
        <path id="Trazado_806" data-name="Trazado 806" d="M773.137,1383.75h-6.923a4.332,4.332,0,0,0-4.327,4.327v6.058a.865.865,0,0,0,.866.865H776.6a.865.865,0,0,0,.865-.865v-6.058A4.332,4.332,0,0,0,773.137,1383.75Zm2.6,9.519H774v-2.6a.866.866,0,0,0-1.731,0v2.6H767.08v-2.6a.866.866,0,0,0-1.731,0v2.6h-1.731v-5.192a2.6,2.6,0,0,1,2.6-2.6h6.923a2.6,2.6,0,0,1,2.6,2.6Z" fill="#63ce7a"/>
      </g>
    </g>
    <g id="Grupo_55" data-name="Grupo 55" transform="translate(-6 269)">
      <g id="Grupo_54" data-name="Grupo 54">
        <path id="Trazado_807" data-name="Trazado 807" d="M740.694,1355.3a7.774,7.774,0,1,0-9.834,9.867l1.7,3.391a.866.866,0,0,0,1.549,0l1.7-3.391A7.788,7.788,0,0,0,740.694,1355.3Zm-1.53,4.11a6.059,6.059,0,0,1-4.206,4.206.868.868,0,0,0-.542.446l-1.086,2.174-1.087-2.174a.865.865,0,0,0-.542-.446,6.058,6.058,0,1,1,7.463-4.206Z" fill="#63ce7a"/>
      </g>
    </g>
    <g id="Grupo_57" data-name="Grupo 57" transform="translate(-6 269)">
      <g id="Grupo_56" data-name="Grupo 56">
        <path id="Trazado_808" data-name="Trazado 808" d="M758.867,1355.3a7.774,7.774,0,1,0-9.834,9.867l1.7,3.391a.866.866,0,0,0,1.549,0l1.7-3.391A7.788,7.788,0,0,0,758.867,1355.3Zm-1.53,4.11a6.056,6.056,0,0,1-4.206,4.206.863.863,0,0,0-.541.446l-1.087,2.174-1.087-2.174a.865.865,0,0,0-.542-.446,6.058,6.058,0,1,1,7.463-4.206Z" fill="#63ce7a"/>
      </g>
    </g>
    <g id="Grupo_59" data-name="Grupo 59" transform="translate(-6 269)">
      <g id="Grupo_58" data-name="Grupo 58">
        <path id="Trazado_809" data-name="Trazado 809" d="M777.04,1355.3a7.774,7.774,0,1,0-9.834,9.867l1.7,3.391a.866.866,0,0,0,1.549,0l1.7-3.391A7.788,7.788,0,0,0,777.04,1355.3Zm-1.53,4.11a6.056,6.056,0,0,1-4.206,4.206.863.863,0,0,0-.541.446l-1.087,2.174-1.087-2.174a.865.865,0,0,0-.542-.446,6.058,6.058,0,1,1,7.463-4.206Z" fill="#63ce7a"/>
      </g>
    </g>
    <g id="Grupo_61" data-name="Grupo 61" transform="translate(-6 269)">
      <g id="Grupo_60" data-name="Grupo 60">
        <path id="Trazado_810" data-name="Trazado 810" d="M773.316,1355.013a40.116,40.116,0,0,0-7.281,0,2.7,2.7,0,0,0,0,3.82l3.641,3.644,3.64-3.641A2.7,2.7,0,0,0,773.316,1355.013Zm-1.223,2.6v0l-2.417,2.42-2.417-2.417a.97.97,0,0,1,1.372-1.372l1.045,1.044,1.044-1.044a.971.971,0,0,1,1.373,1.372Z" fill="#63ce7a"/>
      </g>
    </g>
    <g id="Grupo_63" data-name="Grupo 63" transform="translate(-6 269)">
      <g id="Grupo_62" data-name="Grupo 62">
        <path id="Trazado_811" data-name="Trazado 811" d="M751.5,1353.462a4.326,4.326,0,1,0,4.327,4.326A4.326,4.326,0,0,0,751.5,1353.462Zm-2.6,4.326a2.6,2.6,0,0,1,2.6-2.6,2.569,2.569,0,0,1,1.112.26l-3.449,3.448A2.564,2.564,0,0,1,748.906,1357.788Zm2.6,2.6a2.564,2.564,0,0,1-1.112-.26l3.448-3.449a2.556,2.556,0,0,1,.26,1.112A2.6,2.6,0,0,1,751.5,1360.385Z" fill="#63ce7a"/>
      </g>
    </g>
    <g id="Grupo_65" data-name="Grupo 65" transform="translate(-6 269)">
      <g id="Grupo_64" data-name="Grupo 64">
        <rect id="Rectángulo_24" data-name="Rectángulo 24" width="6.923" height="1.731" transform="translate(729.868 1356.923)" fill="#63ce7a"/>
      </g>
    </g>
  </g>
</svg>
