<svg xmlns="http://www.w3.org/2000/svg" xmlns:xlink="http://www.w3.org/1999/xlink" width="48.08" height="42.884" viewBox="0 0 48.08 42.884">
  <defs>
    <linearGradient id="linear-gradient" x1="0.789" x2="0" y2="1.618" gradientUnits="objectBoundingBox">
      <stop offset="0" stop-color="#8916db"/>
      <stop offset="0.433" stop-color="#6e45ce"/>
      <stop offset="1" stop-color="#0082e1"/>
    </linearGradient>
  </defs>
  <g id="Grupo_372" data-name="Grupo 372" transform="translate(-231 -1221)">
    <g id="Grupo_201" data-name="Grupo 201" transform="translate(0 -854)">
      <path id="Trazado_976" data-name="Trazado 976" d="M546.5,3244.667h19.4a4.648,4.648,0,0,1,4.023,2.323l9.7,16.8a4.646,4.646,0,0,1,0,4.646l-9.7,16.8a4.648,4.648,0,0,1-4.023,2.323H546.5a4.648,4.648,0,0,1-4.023-2.323l-9.7-16.8a4.647,4.647,0,0,1,0-4.646l9.7-16.8A4.648,4.648,0,0,1,546.5,3244.667Z" transform="translate(-301.153 -1169.667)" fill="url(#linear-gradient)"/>
    </g>
    <g id="planning" transform="translate(244 1232)">
      <g id="Grupo_304" data-name="Grupo 304">
        <g id="Grupo_303" data-name="Grupo 303">
          <path id="Trazado_1154" data-name="Trazado 1154" d="M20.436,14.1V1.908A1.91,1.91,0,0,0,18.528,0H4.494A1.91,1.91,0,0,0,2.586,1.908v.678H1.908a1.908,1.908,0,0,0,0,3.816h.678V8.946H1.908a1.908,1.908,0,0,0,0,3.816h.678v2.544H1.908a1.908,1.908,0,1,0,0,3.816h.678v.636a1.961,1.961,0,0,0,.549,1.36,1.869,1.869,0,0,0,1.359.59H17.256a4.479,4.479,0,0,0,3.18-7.606ZM1.908,5.13a.636.636,0,1,1,0-1.272H3.222a.636.636,0,1,1,0,1.272Zm0,6.36a.636.636,0,1,1,0-1.272H3.222a.636.636,0,1,1,0,1.272Zm1.314,6.36H1.908a.636.636,0,1,1,0-1.272H3.222a.636.636,0,1,1,0,1.272Zm1.272,2.586a.675.675,0,0,1-.636-.678v-.745a1.908,1.908,0,0,0,0-3.6V12.652a1.908,1.908,0,0,0,0-3.6V6.293a1.908,1.908,0,0,0,0-3.6V1.908a.637.637,0,0,1,.636-.636H18.528a.637.637,0,0,1,.636.636V13.192a4.451,4.451,0,0,0-6.36,4.022,4.5,4.5,0,0,0,1.352,3.222Zm12.762,0a3.2,3.2,0,1,1,3.18-3.222A3.2,3.2,0,0,1,17.256,20.436Z" fill="#fff"/>
        </g>
      </g>
      <g id="Grupo_310" data-name="Grupo 310" transform="translate(16.62 15.305)">
        <g id="Grupo_309" data-name="Grupo 309">
          <path id="Trazado_1157" data-name="Trazado 1157" d="M393.908,362.272h-.636v-.636a.636.636,0,1,0-1.272,0v1.272a.636.636,0,0,0,.636.636h1.272a.636.636,0,0,0,0-1.272Z" transform="translate(-392 -361)" fill="#fff"/>
        </g>
      </g>
      <g id="Grupo_312" data-name="Grupo 312" transform="translate(6.223 3.858)">
        <g id="Grupo_311" data-name="Grupo 311">
          <path id="Trazado_1158" data-name="Trazado 1158" d="M151.863,91.186a.636.636,0,0,0-.9,0l-2.094,2.094-1-1a.636.636,0,1,0-.9.9l1.451,1.451a.636.636,0,0,0,.9,0l2.544-2.544A.636.636,0,0,0,151.863,91.186Z" transform="translate(-146.783 -91)" fill="#fff"/>
        </g>
      </g>
      <g id="Grupo_314" data-name="Grupo 314" transform="translate(6.223 8.946)">
        <g id="Grupo_313" data-name="Grupo 313">
          <path id="Trazado_1159" data-name="Trazado 1159" d="M151.863,211.186a.636.636,0,0,0-.9,0l-2.094,2.094-1-1a.636.636,0,0,0-.9.9l1.451,1.451a.636.636,0,0,0,.9,0l2.544-2.544A.636.636,0,0,0,151.863,211.186Z" transform="translate(-146.783 -211)" fill="#fff"/>
        </g>
      </g>
      <g id="Grupo_316" data-name="Grupo 316" transform="translate(6.223 14.034)">
        <g id="Grupo_315" data-name="Grupo 315">
          <path id="Trazado_1160" data-name="Trazado 1160" d="M151.863,331.186a.636.636,0,0,0-.9,0l-2.094,2.094-1-1a.636.636,0,0,0-.9.9l1.451,1.451a.636.636,0,0,0,.9,0l2.544-2.544A.636.636,0,0,0,151.863,331.186Z" transform="translate(-146.783 -331)" fill="#fff"/>
        </g>
      </g>
    </g>
  </g>
</svg>
