<svg xmlns="http://www.w3.org/2000/svg" xmlns:xlink="http://www.w3.org/1999/xlink" width="48.08" height="42.884" viewBox="0 0 48.08 42.884">
  <defs>
    <linearGradient id="linear-gradient" x1="-0.357" y1="1.738" x2="0.923" y2="-0.184" gradientUnits="objectBoundingBox">
      <stop offset="0" stop-color="#007769"/>
      <stop offset="1" stop-color="#0089ff"/>
    </linearGradient>
  </defs>
  <g id="Grupo_370" data-name="Grupo 370" transform="translate(-231 -863)">
    <path id="Trazado_984" data-name="Trazado 984" d="M546.5,3244.667h19.4a4.648,4.648,0,0,1,4.023,2.323l9.7,16.8a4.646,4.646,0,0,1,0,4.646l-9.7,16.8a4.648,4.648,0,0,1-4.023,2.323H546.5a4.648,4.648,0,0,1-4.023-2.323l-9.7-16.8a4.647,4.647,0,0,1,0-4.646l9.7-16.8A4.648,4.648,0,0,1,546.5,3244.667Z" transform="translate(-301.153 -2381.667)" fill="url(#linear-gradient)"/>
    <g id="statistics" transform="translate(243 872.003)">
      <path id="Trazado_1161" data-name="Trazado 1161" d="M22.4,2.949H15.845V2.391A1.4,1.4,0,0,0,14.451,1H9.34A1.4,1.4,0,0,0,7.946,2.391v.558H1.394A1.4,1.4,0,0,0,0,4.343V16.424a1.4,1.4,0,0,0,1.394,1.394H6.319v.465a1.4,1.4,0,0,0,1.394,1.394h.029L6.116,24.069a.465.465,0,0,0,.872.322l1.746-4.715h6.323L16.8,24.391a.465.465,0,0,0,.872-.322l-1.627-4.392h.029a1.4,1.4,0,0,0,1.394-1.394v-.465H22.4a1.4,1.4,0,0,0,1.394-1.394V4.343A1.4,1.4,0,0,0,22.4,2.949ZM8.875,2.391a.465.465,0,0,1,.465-.465h5.111a.465.465,0,0,1,.465.465v.465H8.875Zm7.667,15.891a.465.465,0,0,1-.465.465H7.713a.465.465,0,0,1-.465-.465v-.465h9.293Zm6.319-1.859a.465.465,0,0,1-.465.465h-21a.465.465,0,0,1-.465-.465V4.343a.465.465,0,0,1,.465-.465h21a.465.465,0,0,1,.465.465Z" transform="translate(0 0)" fill="#fff"/>
      <path id="Trazado_1162" data-name="Trazado 1162" d="M188.323,227.613h-1.859a.465.465,0,0,1-.465-.465v-3.485a.684.684,0,0,1,.669-.7h1.45a.684.684,0,0,1,.669.7v3.485A.465.465,0,0,1,188.323,227.613Zm-1.394-.929h.929V223.9h-.929Z" transform="translate(-177.357 -211.655)" fill="#fff"/>
      <path id="Trazado_1163" data-name="Trazado 1163" d="M268.323,189.47h-1.859a.465.465,0,0,1-.465-.465v-5.362a.675.675,0,0,1,.669-.679h1.45a.675.675,0,0,1,.669.679v5.362A.465.465,0,0,1,268.323,189.47Zm-1.394-.929h.929v-4.647h-.929Z" transform="translate(-253.64 -173.513)" fill="#fff"/>
      <path id="Trazado_1164" data-name="Trazado 1164" d="M348.323,133.713h-1.859a.505.505,0,0,1-.465-.537V123.5a.505.505,0,0,1,.465-.537h1.859a.505.505,0,0,1,.465.537v9.672A.5.5,0,0,1,348.323,133.713Zm-1.394-1.075h.929v-8.6h-.929Z" transform="translate(-329.923 -117.755)" fill="#fff"/>
      <path id="Trazado_1165" data-name="Trazado 1165" d="M108.323,189.47h-1.859a.465.465,0,0,1-.465-.465v-5.362a.675.675,0,0,1,.669-.679h1.45a.675.675,0,0,1,.669.679v5.362A.465.465,0,0,1,108.323,189.47Zm-1.394-.929h.929v-4.647h-.929Z" transform="translate(-101.075 -173.513)" fill="#fff"/>
    </g>
  </g>
</svg>
