<svg xmlns="http://www.w3.org/2000/svg" width="41.94" height="47.638" viewBox="0 0 41.94 47.638">
  <g id="Grupo_372" data-name="Grupo 372" transform="translate(-309.5 -1919.5)">
    <path id="Trazado_1048" data-name="Trazado 1048" d="M259.876,2530.5H229.065a5.572,5.572,0,0,0-5.565,5.565v36.508a5.571,5.571,0,0,0,5.565,5.565h30.811a5.57,5.57,0,0,0,5.564-5.565v-36.508A5.571,5.571,0,0,0,259.876,2530.5Zm2.876,5.559v36.519a2.881,2.881,0,0,1-2.876,2.872H232.519v-42.262h27.358A2.88,2.88,0,0,1,262.752,2536.059Zm-32.921-2.871v42.262h-.766a2.881,2.881,0,0,1-2.877-2.872V2536.06a2.881,2.881,0,0,1,2.876-2.872h.767Z" transform="translate(86 -611)" fill="#cf1ae2"/>
    <path id="Trazado_1049" data-name="Trazado 1049" d="M257.871,2536.62H236.345a1.345,1.345,0,0,0-1.343,1.344v26.273a1.345,1.345,0,0,0,1.343,1.345h21.526a1.345,1.345,0,0,0,1.343-1.345v-26.273A1.345,1.345,0,0,0,257.871,2536.62Zm-1.345,2.688v23.48H237.689v-23.48Z" transform="translate(86 -611)" fill="#cf1ae2"/>
    <path id="Trazado_1050" data-name="Trazado 1050" d="M257.87,2569.224H236.346a1.344,1.344,0,0,0,0,2.689H257.87a1.344,1.344,0,0,0,0-2.689Z" transform="translate(86 -611)" fill="#cf1ae2"/>
    <path id="Trazado_1051" data-name="Trazado 1051" d="M242.1,2557.061a1.349,1.349,0,0,0,1.336.014l8.863-4.96a1.343,1.343,0,0,0,0-2.345l-8.863-4.96a1.344,1.344,0,0,0-2,1.173v9.919A1.348,1.348,0,0,0,242.1,2557.061Zm2.024-3.452v-5.334l4.766,2.667Z" transform="translate(86 -611)" fill="#cf1ae2"/>
  </g>
</svg>
