<svg xmlns="http://www.w3.org/2000/svg" width="51.182" height="47" viewBox="0 0 51.182 47">
  <g id="Grupo_371" data-name="Grupo 371" transform="translate(-911.5 -1776.5)">
    <path id="Trazado_1045" data-name="Trazado 1045" d="M934.956,2387.5h-39.73a5.743,5.743,0,0,0-5.726,5.727v28.228a5.743,5.743,0,0,0,5.727,5.727H908.86l-1.207,4.227h-3.517v3.091h21.909v-3.091h-3.516l-1.207-4.227h13.634a5.743,5.743,0,0,0,5.726-5.727v-28.228A5.743,5.743,0,0,0,934.956,2387.5Zm-24.088,43.909,1.207-4.227h6.033l1.206,4.227Zm26.723-11.545v1.591a2.639,2.639,0,0,1-2.636,2.636H895.227a2.64,2.64,0,0,1-2.636-2.636v-1.591Zm0-26.637v23.546h-45v-23.546a2.639,2.639,0,0,1,2.636-2.636h39.728A2.638,2.638,0,0,1,937.591,2393.227Z" transform="translate(22 -611)" fill="#fd3a84"/>
    <rect id="Rectángulo_104" data-name="Rectángulo 104" width="16.215" height="3.089" transform="translate(933.368 1801.115) rotate(-74.031)" fill="#fd3a84"/>
    <path id="Trazado_1046" data-name="Trazado 1046" d="M908.213,2397.993l-6.657,5.548a1.55,1.55,0,0,0-.194,2.18,1.619,1.619,0,0,0,.194.194l6.657,5.546,1.978-2.373-5.231-4.361,5.231-4.36Z" transform="translate(22 -611)" fill="#fd3a84"/>
    <path id="Trazado_1047" data-name="Trazado 1047" d="M928.82,2403.734a1.712,1.712,0,0,0-.194-.194l-6.658-5.547-1.977,2.374,5.231,4.36-5.231,4.361,1.977,2.373,6.658-5.547a1.548,1.548,0,0,0,.2-2.176Z" transform="translate(22 -611)" fill="#fd3a84"/>
  </g>
</svg>
