<svg xmlns="http://www.w3.org/2000/svg" width="45" height="45" viewBox="0 0 45 45">
  <g id="Grupo_265" data-name="Grupo 265" transform="translate(-613.94 -2434)">
    <path id="Trazado_1052" data-name="Trazado 1052" d="M577.44,2533a22.5,22.5,0,1,0,22.5,22.5A22.526,22.526,0,0,0,577.44,2533Zm0,41.346a18.846,18.846,0,1,1,18.846-18.846A18.867,18.867,0,0,1,577.44,2574.346Z" transform="translate(59 -99)" fill="#ff7e67"/>
    <path id="Trazado_1053" data-name="Trazado 1053" d="M577.44,2563.6a1.829,1.829,0,0,0-1.827,1.827v1.654a1.827,1.827,0,1,0,3.654,0v-1.654A1.829,1.829,0,0,0,577.44,2563.6Z" transform="translate(59 -99)" fill="#ff7e67"/>
    <path id="Trazado_1054" data-name="Trazado 1054" d="M577.547,2540.443h-.109a7.617,7.617,0,0,0-7.613,7.616,1.827,1.827,0,1,0,3.653,0,3.963,3.963,0,0,1,4.02-3.961,4.035,4.035,0,0,1,3.9,3.9,3.947,3.947,0,0,1-1.817,3.39,8.882,8.882,0,0,0-3.971,7.548v2.351a1.827,1.827,0,0,0,3.654,0v-2.351a5.318,5.318,0,0,1,2.3-4.478,7.578,7.578,0,0,0,3.49-6.51A7.666,7.666,0,0,0,577.547,2540.443Z" transform="translate(59 -99)" fill="#ff7e67"/>
  </g>
</svg>
