<svg xmlns="http://www.w3.org/2000/svg" width="46.99" height="46.989" viewBox="0 0 46.99 46.989">
  <g id="Grupo_264" data-name="Grupo 264" transform="translate(-612.011 -2289)">
    <path id="Trazado_1042" data-name="Trazado 1042" d="M598.137,2409.656a1.865,1.865,0,0,0-1.863,1.863,19.809,19.809,0,0,1-19.809,19.8h-.01a19.808,19.808,0,0,1,.01-39.617h.011a19.961,19.961,0,0,1,12.17,4.192,1.863,1.863,0,0,0,.619,3.6h0l4,.165a2.3,2.3,0,0,0,.7-.132l.254-.141a2.092,2.092,0,0,0,.694-.712l.116-.2.019-.226c0-.031,0-.062,0-.093.014-.06.026-.127.038-.207l.345-3.965a1.867,1.867,0,0,0-3.711-.4,23.49,23.49,0,1,0,1.265,34.657A23.654,23.654,0,0,0,600,2411.52,1.866,1.866,0,0,0,598.137,2409.656Z" transform="translate(59 -99)" fill="#ff8bb7"/>
    <g id="Grupo_171" data-name="Grupo 171" transform="translate(59 -99)">
      <path id="Trazado_1043" data-name="Trazado 1043" d="M575.62,2416.655a2.181,2.181,0,0,0-1.364-.371h-6.041a6.438,6.438,0,0,1,.561-.751,18.58,18.58,0,0,1,2.373-2.193q1.727-1.415,2.469-2.071a8.059,8.059,0,0,0,1.441-1.83,4.908,4.908,0,0,0,.708-2.589,4.748,4.748,0,0,0-1.286-3.245,4.521,4.521,0,0,0-1.416-1.01,7.356,7.356,0,0,0-2.969-.569,6.914,6.914,0,0,0-2.546.431,5.265,5.265,0,0,0-1.795,1.131,4.746,4.746,0,0,0-1.062,1.562,4.318,4.318,0,0,0-.353,1.657,1.4,1.4,0,0,0,.379,1.036,1.3,1.3,0,0,0,.958.38,1.211,1.211,0,0,0,.993-.415,3.941,3.941,0,0,0,.613-1.182,5.709,5.709,0,0,1,.388-.941,2.683,2.683,0,0,1,2.365-1.32,2.751,2.751,0,0,1,1.269.336,2.446,2.446,0,0,1,.958.863,2.505,2.505,0,0,1,.353,1.312,3.275,3.275,0,0,1-.328,1.381,5.3,5.3,0,0,1-.923,1.424,10.19,10.19,0,0,1-1.571,1.338,18.189,18.189,0,0,0-1.726,1.484q-1.26,1.14-2.8,2.728a3.945,3.945,0,0,0-.682,1.078,2.861,2.861,0,0,0-.31,1.1,1.53,1.53,0,0,0,.483,1.122,1.827,1.827,0,0,0,1.346.474h8.458a1.493,1.493,0,0,0,1.131-.388,1.329,1.329,0,0,0,.371-.958A1.2,1.2,0,0,0,575.62,2416.655Z" fill="#ff8bb7"/>
    </g>
    <g id="Grupo_173" data-name="Grupo 173" transform="translate(59 -99)">
      <path id="Trazado_1044" data-name="Trazado 1044" d="M590.007,2413.047a3.439,3.439,0,0,0-1.441-.224h-.492v-8.9q0-2-1.726-2a1.307,1.307,0,0,0-.924.363,9.292,9.292,0,0,0-.984,1.165l-6.093,8.156-.423.561q-.172.233-.336.474a2.308,2.308,0,0,0-.242.475,1.319,1.319,0,0,0-.078.44,1.731,1.731,0,0,0,.544,1.347,2.379,2.379,0,0,0,1.64.492h5.774v2.166a1.893,1.893,0,0,0,.388,1.277,1.467,1.467,0,0,0,2.075.014l.014-.014a1.905,1.905,0,0,0,.388-1.277V2415.4h.7a2.3,2.3,0,0,0,1.312-.3,1.1,1.1,0,0,0,.44-.992A1.035,1.035,0,0,0,590.007,2413.047Zm-4.79-.25h-4.945l4.945-6.68Z" fill="#ff8bb7"/>
    </g>
  </g>
</svg>
