<svg xmlns="http://www.w3.org/2000/svg" width="51.44" height="49.882" viewBox="0 0 51.44 49.882">
  <g id="Grupo_373" data-name="Grupo 373" transform="translate(-912.5 -1920.618)">
    <path id="Trazado_1055" data-name="Trazado 1055" d="M941.012,2560.357l-2.569-2.569a3.174,3.174,0,0,0-4.482,0L920,2571.752l-1.912,7.014-.378.378a1.384,1.384,0,0,0-.186,1.717l-.134.571.558-.147a1.376,1.376,0,0,0,1.713-.189l.379-.379,7.012-1.913,13.964-13.964a3.172,3.172,0,0,0,0-4.483Zm-17.338,16.506-2.389.652.653-2.389Zm11.215-9.8-8.557,8.558-3.149-3.149,8.558-8.557Zm4.292-4.463a.4.4,0,0,1-.12.29l-2.222,2.222-3.148-3.148,2.222-2.221a.411.411,0,0,1,.58,0l2.569,2.57A.4.4,0,0,1,939.181,2562.6Z" transform="translate(22 -611)" fill="#45b7ef"/>
    <path id="Trazado_1056" data-name="Trazado 1056" d="M915.319,2542.437a1.38,1.38,0,1,0,0,2.759h16.227a1.38,1.38,0,0,0,0-2.759Z" transform="translate(22 -611)" fill="#45b7ef"/>
    <path id="Trazado_1057" data-name="Trazado 1057" d="M932.925,2556.438a1.381,1.381,0,0,0-1.379-1.38H915.319a1.38,1.38,0,0,0,0,2.76h16.227A1.381,1.381,0,0,0,932.925,2556.438Z" transform="translate(22 -611)" fill="#45b7ef"/>
    <path id="Trazado_1058" data-name="Trazado 1058" d="M909.842,2538.262a1.378,1.378,0,0,0-1.945.149l-5.342,6.23-3.087-2.316a1.384,1.384,0,0,0-1.93.276,1.378,1.378,0,0,0,.276,1.932l4.12,3.091a1.379,1.379,0,0,0,1.876-.207l6.181-7.211a1.377,1.377,0,0,0-.149-1.944Z" transform="translate(22 -611)" fill="#45b7ef"/>
    <path id="Trazado_1059" data-name="Trazado 1059" d="M909.843,2550.883a1.359,1.359,0,0,0-1-.329,1.374,1.374,0,0,0-.943.477l-5.342,6.231-3.086-2.315a1.384,1.384,0,0,0-1.931.275,1.379,1.379,0,0,0,.276,1.932l4.12,3.091a1.38,1.38,0,0,0,1.876-.206l6.181-7.212a1.378,1.378,0,0,0-.148-1.944Z" transform="translate(22 -611)" fill="#45b7ef"/>
    <path id="Trazado_1060" data-name="Trazado 1060" d="M908.838,2564.076a1.375,1.375,0,0,0-.942.478l-5.341,6.23-3.086-2.316a1.384,1.384,0,0,0-1.931.275,1.379,1.379,0,0,0,.276,1.933l4.121,3.091a1.378,1.378,0,0,0,1.875-.207l6.182-7.21a1.381,1.381,0,0,0-1.154-2.274Z" transform="translate(22 -611)" fill="#45b7ef"/>
    <path id="Trazado_1061" data-name="Trazado 1061" d="M913.516,2578.5H901.955a8.706,8.706,0,0,1-8.7-8.7v-26.729a8.7,8.7,0,0,1,8.7-8.694h26.728a8.7,8.7,0,0,1,8.7,8.694v10.659a1.379,1.379,0,1,0,2.759,0v-10.659a11.468,11.468,0,0,0-11.455-11.455H901.955a11.468,11.468,0,0,0-11.455,11.455V2569.8a11.468,11.468,0,0,0,11.455,11.455h11.561a1.38,1.38,0,0,0,0-2.759Z" transform="translate(22 -611)" fill="#45b7ef"/>
  </g>
</svg>
