<svg xmlns="http://www.w3.org/2000/svg" width="42.863" height="42.844" viewBox="0 0 42.863 42.844">
  <g id="Grupo_370" data-name="Grupo 370" transform="translate(-311.577 -1778.506)">
    <path id="Trazado_1038" data-name="Trazado 1038" d="M262.169,2395.786a21.416,21.416,0,0,0-31.907,28.47,7.112,7.112,0,0,1-2.924,3.3,2.452,2.452,0,0,0,.707,4.622,10.321,10.321,0,0,0,1.556.12,13.9,13.9,0,0,0,7.549-2.354,21.485,21.485,0,0,0,9.877,2.407,21.421,21.421,0,0,0,15.142-36.564Zm-28.377,28.878a1.7,1.7,0,0,0-.286-1.793,18.038,18.038,0,1,1,26.283.818h0a18.057,18.057,0,0,1-21.907,2.8,1.707,1.707,0,0,0-.842-.232,1.737,1.737,0,0,0-1.035.35,10.915,10.915,0,0,1-4.782,2.153A14.189,14.189,0,0,0,233.792,2424.664Z" transform="translate(86 -611)" fill="#5e61dc"/>
    <path id="Trazado_1039" data-name="Trazado 1039" d="M238.266,2406.89h17.523a1.683,1.683,0,0,0,0-3.366H238.266a1.683,1.683,0,0,0,0,3.366Z" transform="translate(86 -611)" fill="#5e61dc"/>
    <path id="Trazado_1040" data-name="Trazado 1040" d="M238.266,2412.611h17.523a1.683,1.683,0,0,0,0-3.366H238.266a1.683,1.683,0,0,0,0,3.366Z" transform="translate(86 -611)" fill="#5e61dc"/>
    <path id="Trazado_1041" data-name="Trazado 1041" d="M238.266,2418.332h17.523a1.683,1.683,0,0,0,0-3.366H238.266a1.683,1.683,0,0,0,0,3.366Z" transform="translate(86 -611)" fill="#5e61dc"/>
  </g>
</svg>
