<?xml version="1.0" encoding="utf-8"?>
<!-- Generator: Adobe Illustrator 22.1.0, SVG Export Plug-In . SVG Version: 6.00 Build 0)  -->
<svg version="1.1" id="Capa_1" xmlns="http://www.w3.org/2000/svg" xmlns:xlink="http://www.w3.org/1999/xlink" x="0px" y="0px"
	 viewBox="0 0 1480.1 900.1" style="enable-background:new 0 0 1480.1 900.1;" xml:space="preserve">
<style type="text/css">
	.st0{fill:#F49E97;}
	.st1{fill:#F9CBC6;}
	.st2{fill:#333351;}
	.st3{fill:#7BC29B;}
	.st4{fill:#F8F9FB;}
	.st5{fill:#FFFFFF;}
	.st6{fill:#535DA7;}
	.st7{fill:none;stroke:#7BC29B;stroke-width:14;stroke-linecap:round;stroke-linejoin:round;stroke-miterlimit:10;}
	.st8{fill:#EF81A7;}
	.st9{font-family:'Lato-Bold';}
	.st10{font-size:34.4291px;}
	.st11{fill:#F29386;}
	.st12{fill:none;stroke:#FFFFFF;stroke-width:3;stroke-miterlimit:10;}
	.st13{fill:none;stroke:#FFFFFF;stroke-width:8;stroke-linecap:round;stroke-linejoin:round;stroke-miterlimit:10;}
	.st14{opacity:0.5;fill:#E8A399;}
	.st15{fill:none;stroke:#E8BAB6;stroke-width:4;stroke-miterlimit:10;}
	.st16{fill:#3C3A73;}
</style>
<g>
	<path class="st0" d="M37,325.8L179.3,41.1C191.9,15.9,217.7,0,245.9,0H628c28.2,0,53.9,15.9,66.6,41.1l142.4,284.7
		c10.5,20.9,10.5,45.6,0,66.6L694.5,677.1c-12.6,25.2-38.4,41.1-66.6,41.1H245.9c-28.2,0-53.9-15.9-66.6-41.1L37,392.4
		C26.5,371.4,26.5,346.8,37,325.8z"/>
	<path class="st1" d="M177.7,415.1l54.2-118.7c7.9-17.2,21.9-30.8,39.4-38.1l108.1-45c11.9-5,25.7,0.2,31.4,11.7l0,0
		c5.6,11.3,1.8,25-8.9,31.8L317.5,310c-11.8,7.5-19.9,19.6-22.2,33.4l-31.4,191.1L177.7,415.1z"/>
	<path class="st2" d="M819.5,546.5l-37.8-19.9L453.1,70.8c-12.5-17.4-34.4-25.5-55.2-20.4L42.5,136.6L15,122.1l-11.5,29
		c-1.8,2.5-2.9,5.5-3.4,8.5h0l0,0c-0.7,4.8,0.4,9.8,3.5,14.2l359.9,499c12.8,17.7,35.2,25.7,56.3,20.1l376.8-100.2
		c9.2-2.4,14.7-10.7,14.6-19.3L819.5,546.5z"/>
	<path class="st3" d="M28,111.7l382.9-92.9c20.9-5.1,42.7,3,55.2,20.4l354.5,491.6c8,11.1,2.4,26.8-10.9,30.4L433,661.3
		c-21.1,5.6-43.5-2.4-56.3-20.1l-359.9-499C8.6,130.9,14.5,115,28,111.7z"/>
	<g>
		<path class="st4" d="M423.3,19.3c16.3,0,31.7,7.9,41.2,21.1L819,532c3.4,4.8,4.3,10.7,2.3,16.2c-2,5.5-6.4,9.6-12,11.1
			L432.5,659.4c-4.3,1.1-8.6,1.7-13,1.7c-16.3,0-31.7-7.9-41.2-21.1L18.3,141c-3.5-4.8-4.3-10.8-2.2-16.4c2.1-5.6,6.6-9.6,12.3-11
			l382.9-92.9C415.3,19.8,419.3,19.3,423.3,19.3L423.3,19.3 M423.3,17.3c-4.1,0-8.3,0.5-12.4,1.5L28,111.7
			c-13.5,3.3-19.4,19.2-11.3,30.5l359.9,499c10.1,14,26.1,21.9,42.8,21.9c4.5,0,9.1-0.6,13.6-1.8l376.8-100.2
			c13.3-3.5,18.9-19.2,10.9-30.4L466.1,39.2C456,25.2,440,17.3,423.3,17.3L423.3,17.3z"/>
	</g>
	<polygon class="st4" points="59.6,150.3 441.5,57.5 775.2,519 398.6,619.1 	"/>
	<polygon class="st5" points="236,291.4 501.7,225.5 566.9,319.7 303.5,385.6 	"/>
	<polygon class="st5" points="305.9,393.4 571.6,327.5 636.8,421.7 373.4,487.5 	"/>
	<g>
		<path class="st6" d="M485.2,258.9l31.8,43l-62.6,15.4l-32-43.3L485.2,258.9 M486.2,252.6c-0.3,0-0.5,0-0.8,0.1l-68.4,16.5
			c-2.3,0.6-3.3,3.3-1.9,5.2l35.4,48c0.6,0.9,1.6,1.4,2.7,1.4c0.3,0,0.5,0,0.8-0.1l68.2-16.8c2.3-0.6,3.3-3.3,1.9-5.2L488.9,254
			C488.3,253.1,487.3,252.6,486.2,252.6L486.2,252.6z"/>
	</g>
	<g>
		<path class="st6" d="M557,361.4l31.8,43l-62.6,15.4l-32-43.3L557,361.4 M558.1,355.1c-0.3,0-0.5,0-0.8,0.1l-68.4,16.5
			c-2.3,0.6-3.3,3.3-1.9,5.2l35.4,48c0.6,0.9,1.6,1.4,2.7,1.4c0.3,0,0.5,0,0.8-0.1l68.2-16.8c2.3-0.6,3.3-3.3,1.9-5.2l-35.2-47.7
			C560.1,355.5,559.1,355.1,558.1,355.1L558.1,355.1z"/>
	</g>
	<g>
		<path class="st4" d="M605.5,576.4L605.5,576.4c2.9,0,5.7,1.1,8,3.2c2.3,2,3.7,4.7,4,7.6c0.3,2.8-0.5,5.4-2.2,7.3
			c-1.7,1.9-4.2,3-7,3c-2.9,0-5.7-1.1-8-3.2c-2.3-2-3.7-4.7-4-7.6c-0.3-2.8,0.5-5.4,2.2-7.3C600.3,577.4,602.7,576.4,605.5,576.4
			 M605.5,574.4c-3.2,0-6.3,1.2-8.5,3.7c-4.4,4.9-3.5,12.8,2,17.7c2.7,2.5,6.1,3.7,9.4,3.7c3.2,0,6.3-1.2,8.5-3.7
			c4.4-4.9,3.5-12.8-2-17.7C612.1,575.6,608.8,574.4,605.5,574.4L605.5,574.4z"/>
	</g>
	<g>
		<ellipse transform="matrix(0.6677 -0.7444 0.7444 0.6677 19.0197 209.4781)" class="st4" cx="244.1" cy="83.4" rx="5" ry="5.6"/>
	</g>
	<polyline class="st7" points="451,284 477,294.2 496.8,245 	"/>
	<path id="XMLID_1135_" class="st8" d="M359.5,304.8c-5.1-8-17.2-12.2-26.9-9.5c-5,1.4-8.4,4.3-9.9,7.9c-4.9-1.8-10.5-2.2-15.4-0.8
		c-9.8,2.7-13.6,11.4-8.5,19.4c2.5,3.9,6.6,6.9,11.3,8.6l38.4,13.5l12.5-28.2c0.1-0.3,0.4-1.3,0.4-1.3
		C362.2,311.3,361.6,307.9,359.5,304.8z"/>
	<path class="st6" d="M430.3,432.7c1.2-3.4,1.1-7.2-0.5-11.1c-5.1-12.6-24.2-21.4-42.6-19.8c-18.4,1.6-29.1,13.2-24,25.7
		c5.1,12.6,24.2,21.4,42.6,19.8c6.1-0.5,11.3-2.2,15.4-4.6l0,0l17.9,1.6L430.3,432.7L430.3,432.7z"/>
	<path class="st6" d="M452.1,574.4l235.4-61.8c7.1-1.9,10.1-10.3,5.8-16.2l-13.8-19.1c-5.5-7.7-15.2-11.2-24.4-8.8L418.7,529
		c-7.2,1.8-10.2,10.3-5.9,16.3l14.7,20.4C433,573.4,442.8,576.9,452.1,574.4z"/>
	<g>
		<text transform="matrix(0.9515 -0.2422 0.5035 0.864 543.5107 534.5633)" class="st4 st9 st10">OK</text>
	</g>
	<path class="st11" d="M285.8,123.1l-1.6,109.6c-0.1,7.2,6.6,12.6,13.7,10.9l120.6-29.1c9.4-2.3,11.6-14.6,3.6-19.9L303,114.1
		C295.8,109.1,285.9,114.3,285.8,123.1z"/>
	<path class="st12" d="M294.1,124l-1.5,107.7c0,2.9,2.7,5.1,5.5,4.4l118.5-28.6c3.8-0.9,4.7-5.9,1.4-8l-117-79.1
		C298.1,118.3,294.1,120.4,294.1,124z"/>
	<line class="st13" x1="316.6" y1="151.9" x2="339" y2="188.2"/>
	<line class="st13" x1="347.1" y1="201.3" x2="349.1" y2="204.5"/>
	<path class="st1" d="M361.8,899.8c23.3-134.7,57.7-175.2,8.7-355.9c-21.8-80.3-24.6-152.4-58-145.4
		c-35.1,7.4-24.5,166.7-24.5,166.7L177.7,415.1l-38,178.9c-3.9,18.3-2.3,37.3,4.5,54.7c8.6,21.8,58,215.5,66.1,251.4L361.8,899.8z"
		/>
	<path class="st2" d="M140.8,588.8V478.2c0-16.5,13.4-29.8,29.8-29.8h0L140.8,588.8z"/>
	<path class="st14" d="M287.9,565.2c0,0-71.1-82.3-125-80.7l14.7-69.5L287.9,565.2z"/>
	<path class="st15" d="M342.8,437.3c0.7,22.2-56.2,5.3-32.8-30.5c3.7-5.7,17.6-12.7,25.6,7.6C343.5,434.6,342.8,437.3,342.8,437.3z"
		/>
	<path class="st2" d="M1052,281.1l-71.3-54.2c-10-7.6-23.8-7.5-33.7,0.1l-6.4,5.1L1052,281.1z"/>
	<path class="st1" d="M970,266.6l-2.4-12.1c-0.8-2-1.7-3.9-2.9-5.6c-1.8-3.4-4.2-6.7-7.2-9.4c-4-3.7-8.7-6.3-13.7-7.8
		c-6.2-3-12.8-5.3-19.1-7c-8.4-1.2-17.8-2.8-28-4.8c-15.9-3.2-33.5-7.5-51.7-13.4c-61.6-19.9-85.2-26.9-91.5-10.4
		c-6.2,16.5,3.8,20.8,16.4,26.8c6.3,3,60.5,31,112.5,57.9l28.8,10c7,6.1,15.9,8.9,24.5,8.5l4.8,1.7
		C940.8,300.8,969.8,289.7,970,266.6z"/>
	<path class="st1" d="M1224.2,410.8l-172.8-130.2l-32.1-13.6L975,247.1l-21.1-10.6c-2.7-1.9-5.6-3.4-8.9-4.5
		c-18.1-6-37.6,3.8-43.6,21.8c-5.6,16.8,2.5,34.8,18.1,42.1l-0.4,0.9l59.2,28.3c0,0,35.6,23.9,3.7,68.2c-31.9,44.3-73.3,17-73.3,17
		s-67.6-55.4-77.8-61c-10.2-5.6-23.6-7.1-28.1-0.2c-4.5,6.9-13.7,17,4.5,33.7c14.2,13,46.3,69.2,59.8,93.4c4.5,8.1,12,14,21,16.3
		c28.1,7.4,86.1,16.1,141.2,23.4c83.1,11.1,156.8,59.1,200.4,130.7L1380.6,894l99.5-299.2L1224.2,410.8z"/>
	<circle class="st1" cx="934.1" cy="264.7" r="34.5"/>
	<path class="st15" d="M802.8,349.1c0,0,40.3,15,19.5,52.6"/>
	<polygon class="st16" points="1315.5,476.5 1182,633.2 1380.2,900.1 1480.1,594.9 	"/>
</g>
</svg>
