<?xml version="1.0" encoding="utf-8"?>
<!-- Generator: Adobe Illustrator 22.1.0, SVG Export Plug-In . SVG Version: 6.00 Build 0)  -->
<svg version="1.1" id="Capa_1" xmlns="http://www.w3.org/2000/svg" xmlns:xlink="http://www.w3.org/1999/xlink" x="0px" y="0px"
	 viewBox="0 0 1869.6 839" style="enable-background:new 0 0 1869.6 839;" xml:space="preserve">
<style type="text/css">
	.st0{fill:#F8F9FB;}
	.st1{fill:#FFFFFF;}
	.st2{fill:#322E5A;}
	.st3{fill:#7AC29A;}
	.st4{fill:none;stroke:#7AC299;stroke-width:2;stroke-miterlimit:10;}
	.st5{fill:#333351;}
	.st6{fill:none;stroke:#D8D8DA;stroke-width:2;stroke-miterlimit:10;}
	.st7{fill:#413F7A;}
	.st8{fill:#535DA7;}
	.st9{fill:#F9CAC6;}
	.st10{fill:#F29285;}
	.st11{fill:none;stroke:#16162D;stroke-miterlimit:10;}
	.st12{fill:#16162D;}
	.st13{fill:#E8769A;}
	.st14{fill:#EF81A6;}
	.st15{fill:none;stroke:#FFFFFF;stroke-miterlimit:10;}
	.st16{fill:#F1F4F5;}
	.st17{fill:none;stroke:#F29386;stroke-width:1.5;stroke-miterlimit:10;}
	.st18{fill:none;stroke:#7BC29B;stroke-width:1.5;stroke-miterlimit:10;}
	.st19{clip-path:url(#SVGID_2_);fill:#EDEDED;}
	.st20{clip-path:url(#SVGID_2_);fill:#F9CAC6;}
	.st21{clip-path:url(#SVGID_2_);fill:#F29285;}
	.st22{clip-path:url(#SVGID_2_);fill:none;stroke:#3C3C57;stroke-miterlimit:10;}
	.st23{clip-path:url(#SVGID_2_);fill:#3C3C57;}
	.st24{clip-path:url(#SVGID_2_);fill:#413F7A;}
	.st25{fill:none;stroke:#3C3C57;stroke-width:1.5;stroke-miterlimit:10;}
	.st26{fill:none;stroke:#535DA7;stroke-width:1.5;stroke-miterlimit:10;}
	.st27{fill:#F29386;}
	.st28{fill:none;stroke:#7AC299;stroke-width:5;stroke-miterlimit:10;}
	.st29{fill:none;stroke:#535DA7;stroke-width:5;stroke-miterlimit:10;}
	.st30{fill:none;stroke:#F29386;stroke-width:5;stroke-miterlimit:10;}
	.st31{fill:none;stroke:#EF81A7;stroke-width:5;stroke-miterlimit:10;}
	.st32{fill:none;stroke:#D8D8DA;stroke-width:5;stroke-miterlimit:10;}
	.st33{fill:none;stroke:#7BC29B;stroke-width:5;stroke-miterlimit:10;}
	.st34{fill:none;stroke:#3C3C57;stroke-width:5;stroke-miterlimit:10;}
	.st35{fill:none;stroke:#FFFFFF;stroke-width:5;stroke-miterlimit:10;}
	.st36{fill:none;stroke:#FFFFFF;stroke-width:3;stroke-linecap:round;stroke-linejoin:round;stroke-miterlimit:10;}
	.st37{fill:none;stroke:#3C3C57;stroke-width:2;stroke-miterlimit:10;}
	.st38{fill:none;stroke:#E8E7E7;stroke-width:3;stroke-miterlimit:10;}
	.st39{font-family:'BebasNeueBold';}
	.st40{font-size:27.5616px;}
	.st41{letter-spacing:1;}
	.st42{fill:#E8E7E7;}
	.st43{fill:#69B784;}
</style>
<g>
	<path class="st0" d="M1550.9,242"/>
	<path class="st1" d="M292.9,99.4v712.8c0,14.2,10.4,25.8,23.3,25.8h1211.4c12.9,0,23.3-11.5,23.3-25.8V26.8
		c0-14.2-10.4-25.8-23.3-25.8H316.2c-12.9,0-23.3,11.5-23.3,25.8V99.4z"/>
	<path class="st2" d="M1536.1,122.5L1418,59.7l7.9-11.6l120.4,52.3C1546.3,100.4,1560.9,110.7,1536.1,122.5z"/>
	<path class="st3" d="M1550.9,50h-1258V25.6c0-13.6,11-24.6,24.6-24.6h1208.8c13.6,0,24.6,11,24.6,24.6V50z"/>
	<path class="st4" d="M292.9,90v724.7c0,12.9,10.4,23.3,23.3,23.3h1211.4c12.9,0,23.3-10.4,23.3-23.3V24.3
		c0-12.9-10.4-23.3-23.3-23.3H316.2c-12.9,0-23.3,10.4-23.3,23.3V90z"/>
	<rect x="292.9" y="50" class="st5" width="1256.9" height="73.4"/>
	<path class="st3" d="M499.9,68.4c1.9,3.2,8.3,14.2,11.4,19.6c0.3,0.5,0.3,1.4,0,2c-3.7,6.4-7.5,12.8-11.4,19.2
		c-0.3,0.4-1.1,0.8-1.6,0.8c-7.6,0-15.1,0-22.7,0c-0.5,0-1.2-0.4-1.5-0.8c-3.8-6.5-7.6-13-11.4-19.4c-0.5-0.8-0.2-1.4,0.2-2.1
		c3.2-5.4,9.4-16,11.2-19.2c0.3-0.6,0.9-0.9,1.6-0.9h22.7C499,67.5,499.6,67.9,499.9,68.4z M482.6,85.5c-3.6-2.7-7.8-1.5-9,2.4
		c-0.4,1.2-0.5,2.6-0.4,3.8c0.3,3.9,2.9,6.2,6.3,5.9c0.9-0.1,1.8-0.4,2.6-0.6c0.3,0.4,0.6,1,1,1.1c2.6,0.8,3.8,0,3.8-2.7
		c0-1.2,0-2.3,0-3.5c0-3.3,0-6.6,0-9.8c0-3.3,0.3-2.9-3-2.9c-1,0-1.4,0.3-1.3,1.3C482.6,82,482.6,83.6,482.6,85.5z M491.6,96.6
		c2.3,1.3,4.5,1.6,6.7,0.2c3.7-2.2,3.7-9.6,0-11.8c-2.3-1.4-4.7-1.2-6.8,0.7c0-1.9,0-3.6,0-5.4c0-0.3-0.1-1-0.2-1
		c-0.9-0.1-1.9-0.2-2.8-0.1c-0.2,0-0.5,0.9-0.5,1.3c0,5.3,0,10.7,0,16c0,0.9,0,1.6,1.2,1.6C491.2,98.2,491.4,98.1,491.6,96.6z"/>
	<path class="st1" d="M523.7,70.6c0.9,2.5-0.2,5.3-2.7,6.4c-2.5,1-5.3-0.1-6.4-2.6c-1.1-2.5-0.1-5.3,2.4-6.5
		c0.3-0.1,0.6-0.2,0.8-0.3C518.5,67.3,522.4,67.1,523.7,70.6z M515.1,72.4c0,2.3,1.8,4.2,4,4.1c2.2,0,3.9-1.8,3.9-4.1
		c0-2.3-1.7-4.1-3.9-4.1C516.8,68.3,515.1,70.1,515.1,72.4z"/>
	<path class="st1" d="M357.8,89.3c-0.1,0-0.1-0.2-0.2-0.3c2.9-2.1,3.8-4.4,3-7.4c-0.7-2.6-2.7-4.1-6-4.5c-0.3,0-0.6-0.1-0.9-0.1
		c-4.5,0-9-0.1-13.5-0.1c-0.2,0-0.4,0.1-0.7,0.1c0,8.8,0,17.6,0,26.4c0.3,0,0.4,0.1,0.6,0.1c4.2,0,8.4,0,12.7,0
		c1.1,0,2.2-0.2,3.2-0.4c3.5-0.8,5.7-3.1,6-6.4C362.4,93.8,361.4,90.6,357.8,89.3z M345.6,81.6c2.3,0,4.5-0.1,6.7,0
		c1.9,0.1,2.8,1.3,2.8,3c0,1.7-1.1,2.9-2.8,3c-2.2,0.1-4.5,0-6.7,0C345.6,85.5,345.6,83.6,345.6,81.6z M356.2,95.6
		c-0.1,1.7-1.1,3-2.8,3.1c-2.6,0.2-5.2,0-7.8,0c0-2.4,0-4.6,0-7.3c2.8,0.1,5.5,0.1,8.3,0.5C355.4,92.3,356.3,93.9,356.2,95.6z"/>
	<path class="st1" d="M424.2,102.6c-1.9,0-3.6,0-5.3,0c-0.8,0-1.2-0.2-1.6-0.9c-1.5-2.5-3-5-4.5-7.4c-1.6,0.9-2.3,2.2-2.1,4
		c0.2,1.3,0,2.7,0,4.1c-1.7,0-3.3,0-5.1,0c0-8.6,0-17.1,0-25.8c1.6,0,3.3,0,5,0c0,4.4,0,8.9,0,13.7c0.8-0.8,1.3-1.2,1.7-1.7
		c0.5-0.5,0.9-1,1.4-1.5c1.2-1.2,2.2-2.9,3.6-3.4c1.7-0.6,3.7-0.1,5.4-0.1c-2.1,2.2-4.3,4.5-6.6,6.8
		C418.9,94.6,421.5,98.5,424.2,102.6z"/>
	<path class="st1" d="M442.6,94.5c-4.5,0-8.9,0-13.3,0c-0.1,2.2,0.8,3.7,2.4,4.3c1.9,0.7,4.3,0.3,5.4-1.2c0.6-0.9,1.3-1,2.3-1
		c0.9,0.1,1.9,0,2.8,0c-0.8,4.4-5.2,7-10.4,6.2c-5.3-0.8-8.5-5.4-7.8-11.1c0.7-5.6,5.1-9.2,10.6-8.6
		C439.8,83.8,443.2,88.4,442.6,94.5z M429.3,91c2.8,0,5.4,0,8.1,0c-0.3-2.6-1.6-3.8-3.9-3.8C431.1,87.2,429.5,88.5,429.3,91z"/>
	<path class="st1" d="M389.5,83.8c0,0.7,0.1,1.4,0.1,2.2c0.3-0.3,0.6-0.5,0.8-0.8c2.3-2.3,6.4-2.8,9.1-1.1c1.9,1.2,2.6,3.1,2.6,5.2
		c0.1,4.3,0,8.7,0,13.2c-1.7,0-3.3,0-5.1,0c0-0.5,0-1,0-1.6c0-3.5,0-6.9-0.1-10.4c-0.1-2.1-1.1-3.1-2.9-3.2
		c-2.1-0.1-3.4,0.7-3.9,2.7c-0.2,0.8-0.2,1.7-0.3,2.5c0,3.3,0,6.5,0,9.9c-1.8,0-3.5,0-5.2,0c0-6.2,0-12.4,0-18.7
		C386.3,83.8,387.9,83.8,389.5,83.8z"/>
	<path class="st1" d="M364.3,83.8c1.6,0,3.2,0,5,0c0,3.1,0,6.1,0,9.1c0,1.2,0,2.3,0.2,3.5c0.3,1.7,1.2,2.5,2.8,2.6
		c1.8,0.1,3.3-0.6,3.7-2.2c0.4-1.2,0.5-2.6,0.5-3.8c0.1-3,0-6,0-9.1c1.7,0,3.4,0,5.1,0c0,6.2,0,12.4,0,18.7c-1.6,0-3.2,0-4.8,0
		c-0.1-0.7-0.1-1.4-0.2-2.3c-2.4,2.8-5.2,3.4-8.4,2.6c-2.5-0.6-3.8-2.4-3.9-4.7C364.2,93.3,364.3,88.6,364.3,83.8z"/>
	<path class="st1" d="M444.8,83.8c1.6,0,3.1,0,4.8,0c0,1,0,1.9,0,3.2c1.4-2,2.9-3.2,4.9-3.6c2-0.4,2.3-0.2,2.3,1.8
		c0,0.9,0,1.8,0,2.7c0,0.1-0.1,0.2-0.1,0.3c-0.4,0-0.9,0-1.3,0c-3.4-0.1-5.3,1.7-5.4,5.3c-0.1,2.6,0,5.1-0.1,7.7c0,0.5,0,1,0,1.5
		c-1.7,0-3.3,0-5,0C444.8,96.3,444.8,90.1,444.8,83.8z"/>
	<path class="st1" d="M491.5,90.7c0,2.3,1.1,3.9,2.8,3.9c1.6,0,2.9-1.7,2.9-3.9c0-2.1-1.2-3.8-2.8-3.9
		C492.7,86.8,491.5,88.4,491.5,90.7z"/>
	<path class="st3" d="M482.6,90.7c0,0.1,0,0.3,0,0.4c-0.1,2.1-1.2,3.4-2.8,3.4c-1.6,0-2.6-1.3-2.6-3.4c0-0.7,0-1.4,0.2-2.1
		c0.4-1.4,1.3-2.2,2.5-2.2c1.2,0,2.2,0.8,2.6,2.2C482.6,89.5,482.6,90.1,482.6,90.7C482.7,90.7,482.6,90.7,482.6,90.7z"/>
	<path class="st3" d="M491.5,90.7c0-2.3,1.2-3.9,2.9-3.9c1.6,0.1,2.8,1.7,2.8,3.9c0,2.2-1.3,3.9-2.9,3.9
		C492.6,94.6,491.5,93,491.5,90.7z"/>
	<path class="st1" d="M520,72.8c1.2-0.3,1.5-1.2,1.3-2.2c-0.2-1.1-1.2-1.1-2-1.1c-0.7,0-1.3,0-2.1,0c0,1.8,0,5.7,0,5.7h1
		c0-0.7,0-1.8,0-2.5l0.9,0c0.4,0.5,1.5,2.4,1.5,2.4l0.9,0C520.9,74.3,520.5,73.6,520,72.8z M519.5,71.7h-1.5v-1.1h1.3
		c0,0,0.7-0.1,0.7,0.6C520.1,71.8,519.5,71.7,519.5,71.7z"/>
	<line class="st6" x1="1437.4" y1="125" x2="1437.4" y2="838"/>
	<circle class="st1" cx="1467.3" cy="26.4" r="6.7"/>
	<circle class="st1" cx="1494" cy="26.4" r="6.7"/>
	<circle class="st1" cx="1520.7" cy="26.4" r="6.7"/>
	<path class="st7" d="M1620.9,60c0,0-80,39-85,45s-12,14,0,18s85-20,91-26S1629.9,70,1620.9,60z"/>
	<path class="st8" d="M1550.9,119.5v122.9L1676.2,135c6.5-5.6,7.4-15.3,2-21.9l-39.1-48.4c-5.6-6.9-15.9-7.9-22.6-2L1550.9,119.5z"
		/>
	<path class="st9" d="M1669.2,101.8V36c0,0-14.3-3-19.3,11c-1.7,4.7-2.8,7.7-3.5,9.7c-0.6,1.6,0.6,3.3,2.3,3.3h8.2l-7.1,17.9
		L1638.9,99L1669.2,101.8z"/>
	<polygon class="st10" points="1653.9,43 1648.9,53 1652.9,53 	"/>
	<circle class="st11" cx="1658.4" cy="43.5" r="2"/>
	<circle class="st11" cx="1650.4" cy="43.5" r="2"/>
	<line class="st11" x1="1652.4" y1="43.5" x2="1656.4" y2="43.5"/>
	<path class="st12" d="M1659.2,36.9c0,0-3.3-0.9-3.3-2.9s0-3,0-3s15,0,15,5s-1.7,10.6-1.7,10.6s-0.3-2.6-1.3-3.6s-2,2-2,4s0,3,0,3
		l-2-1c0,0-3-6-1-9s4-3,4-3L1659.2,36.9z"/>
	<path class="st7" d="M1677.9,112c0,0-82,41-87,47s-12,14,0,18s85-20,91-26S1686.9,122,1677.9,112z"/>
	<path class="st7" d="M1591.1,176.5L1473,113.7l7.9-11.6l120.4,52.3C1601.3,154.4,1615.9,164.7,1591.1,176.5z"/>
	<path class="st9" d="M1479.9,103c0,0-9-7-16-7l7,6c0,0-24-5-25-5s6,8,12,10s16,5,16,5L1479.9,103z"/>
	<polygon class="st1" points="1649.9,78 1638.9,99 1641.9,77 	"/>
	<polygon class="st1" points="1668.9,102 1638.9,99 1659.9,107 	"/>
	<path class="st13" d="M1593.5,528.6l-47.8,39.9l1.1,9.3c0,0,55.1-21.8,58.5-29.1C1608.7,541.4,1610.1,523.2,1593.5,528.6z"/>
	<path class="st9" d="M1585.3,520.6c0,0,6-26.5,0-29c-6-2.6-19.6,1.7-22.2,14.5c-2.6,12.8,1.7,14.5,6,14.5c4.3,0,6-3.4,6-3.4
		l-2.6,14.5L1585.3,520.6z"/>
	<path class="st14" d="M1585.3,520.6c0,0,0.9,6,5.1,6c4.3,0,14.5-5.1,17.9,0c3.4,5.1-4.3,57.2-4.3,57.2l-29,8.5
		c0,0-18.8-29.9-12.8-40.1c6-10.2,10.2-20.5,10.2-20.5l2-11.1H1585.3z"/>
	<path class="st12" d="M1604,582.1c0,0,35.6,15.9,29,64.9c-7.7,57.2-16.2,177.4-16.2,177.4l-7.7,1l-6-167.3l-15.4,45.7l4.3,121.6
		h-6.8l-31.6-133.8l21.3-99.3L1604,582.1z"/>
	<path class="st12" d="M1569,505.3c0,0,6-3.4,6,0s-1.7,6.8-4.3,6c0,0-5.1,8.5-1.7,14.5c3.4,6,10.2,8.5,7.7,17.1s-6.8,29.9,4.3,35.9
		s29-4.3,32.4-17.1c3.4-12.8-12.8-35-13.7-43.5c-0.9-8.5,2.6-23-5.1-26.5c-7.7-3.4-17.8-3-23.8,2.7
		C1564.8,500.1,1569,505.3,1569,505.3z"/>
	<polygon class="st12" points="1585.3,825.4 1569.9,833 1592.1,833 1592.1,825.4 	"/>
	<polygon class="st12" points="1609.2,825.4 1600.6,833 1616,833 1616,824.5 	"/>
	<path class="st14" d="M1540,503.6l30.7,28.2c0,0,11.1,12,3.4,23c-7.7,11.1-12.8,1.7-23-12c-4.4-5.9-25.6-41.8-25.6-41.8
		S1529.8,494.2,1540,503.6z"/>
	<path class="st14" d="M1537.9,502.6l-23-52.9l-3.8-0.1l15.1,53C1526.2,502.7,1533.7,511.6,1537.9,502.6z"/>
	<polygon class="st9" points="1514.4,449.8 1514.4,442.9 1512.7,446.4 1505.9,437.8 1511,449.8 	"/>
	<polygon class="st9" points="1521.3,531.7 1518.7,523.2 1518.7,527.5 1512.7,520.6 1518.5,531.7 	"/>
	<path class="st13" d="M1521.2,531.7l28.9,33.1c0,0,3.6,2.8,1.9,7c-1.7,4.3-3.4,7.7-6,6c-2.6-1.7-27.3-46.1-27.3-46.1H1521.2z"/>
	<path class="st15" d="M1588.2,654.2c0,0,17.7,1.9,33.3-13.7"/>
	<path class="st10" d="M1565.4,500c0,0-2.4,4.4-3.2,5.3c-0.9,0.9-2.6,0.9-2.6,0.9l2.9,3.1L1565.4,500z"/>
	<rect x="1471.9" y="139" class="st10" width="44" height="44"/>
	<rect x="1471.9" y="205" class="st3" width="44" height="44"/>
	<rect x="1471.9" y="271" class="st8" width="44" height="44"/>
	<rect x="1471.9" y="337" class="st14" width="44" height="44"/>
	<circle class="st16" cx="1493.9" cy="161" r="4"/>
	<circle class="st16" cx="1493.9" cy="227" r="4"/>
	<rect x="1471.9" y="403" class="st10" width="44" height="44"/>
	<rect x="1471.9" y="469" class="st3" width="44" height="44"/>
	<circle class="st16" cx="1493.9" cy="425" r="4"/>
	<circle class="st16" cx="1493.9" cy="491" r="4"/>
	<circle class="st1" cx="1493.9" cy="359" r="4"/>
	<circle class="st16" cx="1493.9" cy="293" r="4"/>
	<g>
		<path class="st8" d="M1647.7,425.5c1.4,0,2.7,0.8,3.4,2l10.6,18.4c0.7,1.2,0.7,2.7,0,4l-10.6,18.4c-0.7,1.2-2,2-3.4,2h-21.2
			c-1.4,0-2.7-0.8-3.4-2l-10.6-18.4c-0.7-1.2-0.7-2.7,0-4l10.6-18.4c0.7-1.2,2-2,3.4-2H1647.7 M1647.7,423.5h-21.2
			c-2.1,0-4.1,1.1-5.2,3l-10.6,18.4c-1.1,1.8-1.1,4.1,0,6l10.6,18.4c1.1,1.8,3,3,5.2,3h21.2c2.1,0,4.1-1.1,5.2-3l10.6-18.4
			c1.1-1.8,1.1-4.1,0-6l-10.6-18.4C1651.8,424.6,1649.8,423.5,1647.7,423.5L1647.7,423.5z"/>
	</g>
	<path class="st8" d="M1704.6,429.4h-14.4c-2.1,0-4.1,1.1-5.2,3l-7.2,12.5c-1.1,1.8-1.1,4.1,0,6l7.2,12.5c1.1,1.8,3,3,5.2,3h14.4
		c2.1,0,4.1-1.1,5.2-3l7.2-12.5c1.1-1.8,1.1-4.1,0-6l-7.2-12.5C1708.7,430.6,1706.7,429.4,1704.6,429.4z"/>
	<path class="st8" d="M1818.7,429.4h-14.4c-2.1,0-4.1,1.1-5.2,3l-7.2,12.5c-1.1,1.8-1.1,4.1,0,6l7.2,12.5c1.1,1.8,3,3,5.2,3h14.4
		c2.1,0,4.1-1.1,5.2-3l7.2-12.5c1.1-1.8,1.1-4.1,0-6l-7.2-12.5C1822.8,430.6,1820.9,429.4,1818.7,429.4z"/>
	<g>
		<path class="st8" d="M1769.7,418.6c1.4,0,2.7,0.8,3.4,2l14.6,25.3c0.7,1.2,0.7,2.7,0,4l-14.6,25.3c-0.7,1.2-2,2-3.4,2h-29.2
			c-1.4,0-2.7-0.8-3.4-2l-14.6-25.3c-0.7-1.2-0.7-2.7,0-4l14.6-25.3c0.7-1.2,2-2,3.4-2H1769.7 M1769.7,416.6h-29.2
			c-2.1,0-4.1,1.1-5.2,3l-14.6,25.3c-1.1,1.8-1.1,4.1,0,6l14.6,25.3c1.1,1.8,3,3,5.2,3h29.2c2.1,0,4.1-1.1,5.2-3l14.6-25.3
			c1.1-1.8,1.1-4.1,0-6l-14.6-25.3C1773.8,417.7,1771.8,416.6,1769.7,416.6L1769.7,416.6z"/>
	</g>
	<path class="st10" d="M1651.7,269h-29.2c-2.1,0-4.1,1.1-5.2,3l-14.6,25.3c-1.1,1.8-1.1,4.1,0,6l14.6,25.3c1.1,1.8,3,3,5.2,3h29.2
		c2.1,0,4.1-1.1,5.2-3l14.6-25.3c1.1-1.8,1.1-4.1,0-6l-14.6-25.3C1655.8,270.1,1653.8,269,1651.7,269z"/>
	<g>
		<path class="st10" d="M1704.6,283.8c1.4,0,2.7,0.8,3.4,2l7.2,12.5c0.7,1.2,0.7,2.7,0,4l-7.2,12.5c-0.7,1.2-2,2-3.4,2h-14.4
			c-1.4,0-2.7-0.8-3.4-2l-7.2-12.5c-0.7-1.2-0.7-2.7,0-4l7.2-12.5c0.7-1.2,2-2,3.4-2H1704.6 M1704.6,281.8h-14.4
			c-2.1,0-4.1,1.1-5.2,3l-7.2,12.5c-1.1,1.8-1.1,4.1,0,6l7.2,12.5c1.1,1.8,3,3,5.2,3h14.4c2.1,0,4.1-1.1,5.2-3l7.2-12.5
			c1.1-1.8,1.1-4.1,0-6l-7.2-12.5C1708.7,283,1706.7,281.8,1704.6,281.8L1704.6,281.8z"/>
	</g>
	<g>
		<path class="st10" d="M1818.7,283.8c1.4,0,2.7,0.8,3.4,2l7.2,12.5c0.7,1.2,0.7,2.7,0,4l-7.2,12.5c-0.7,1.2-2,2-3.4,2h-14.4
			c-1.4,0-2.7-0.8-3.4-2l-7.2-12.5c-0.7-1.2-0.7-2.7,0-4l7.2-12.5c0.7-1.2,2-2,3.4-2H1818.7 M1818.7,281.8h-14.4
			c-2.1,0-4.1,1.1-5.2,3l-7.2,12.5c-1.1,1.8-1.1,4.1,0,6l7.2,12.5c1.1,1.8,3,3,5.2,3h14.4c2.1,0,4.1-1.1,5.2-3l7.2-12.5
			c1.1-1.8,1.1-4.1,0-6l-7.2-12.5C1822.8,283,1820.9,281.8,1818.7,281.8L1818.7,281.8z"/>
	</g>
	<path class="st10" d="M1765.7,275.9h-21.2c-2.1,0-4.1,1.1-5.2,3l-10.6,18.4c-1.1,1.8-1.1,4.1,0,6l10.6,18.4c1.1,1.8,3,3,5.2,3h21.2
		c2.1,0,4.1-1.1,5.2-3l10.6-18.4c1.1-1.8,1.1-4.1,0-6l-10.6-18.4C1769.8,277,1767.8,275.9,1765.7,275.9z"/>
	<g>
		<path class="st3" d="M1853,352.2c1.4,0,2.7,0.8,3.4,2l10.6,18.4c0.7,1.2,0.7,2.7,0,4l-10.6,18.4c-0.7,1.2-2,2-3.4,2h-21.2
			c-1.4,0-2.7-0.8-3.4-2l-10.6-18.4c-0.7-1.2-0.7-2.7,0-4l10.6-18.4c0.7-1.2,2-2,3.4-2H1853 M1853,350.2h-21.2c-2.1,0-4.1,1.1-5.2,3
			l-10.6,18.4c-1.1,1.8-1.1,4.1,0,6l10.6,18.4c1.1,1.8,3,3,5.2,3h21.2c2.1,0,4.1-1.1,5.2-3l10.6-18.4c1.1-1.8,1.1-4.1,0-6
			l-10.6-18.4C1857.1,351.3,1855.1,350.2,1853,350.2L1853,350.2z"/>
	</g>
	<path class="st3" d="M1676.4,356.1h-14.4c-2.1,0-4.1,1.1-5.2,3l-7.2,12.5c-1.1,1.8-1.1,4.1,0,6l7.2,12.5c1.1,1.8,3,3,5.2,3h14.4
		c2.1,0,4.1-1.1,5.2-3l7.2-12.5c1.1-1.8,1.1-4.1,0-6l-7.2-12.5C1680.5,357.2,1678.6,356.1,1676.4,356.1z"/>
	<path class="st3" d="M1788.2,363.6h-9.6c-0.9,0-1.8,0.5-2.2,1.3l-4.8,8.3c-0.5,0.8-0.5,1.8,0,2.6l4.8,8.3c0.5,0.8,1.3,1.3,2.2,1.3
		h9.6c0.9,0,1.8-0.5,2.2-1.3l4.8-8.3c0.5-0.8,0.5-1.8,0-2.6l-4.8-8.3C1790,364.1,1789.1,363.6,1788.2,363.6z"/>
	<g>
		<path class="st3" d="M1737.6,352.2c1.4,0,2.7,0.8,3.4,2l10.6,18.4c0.7,1.2,0.7,2.7,0,4l-10.6,18.4c-0.7,1.2-2,2-3.4,2h-21.2
			c-1.4,0-2.7-0.8-3.4-2l-10.6-18.4c-0.7-1.2-0.7-2.7,0-4l10.6-18.4c0.7-1.2,2-2,3.4-2H1737.6 M1737.6,350.2h-21.2
			c-2.1,0-4.1,1.1-5.2,3l-10.6,18.4c-1.1,1.8-1.1,4.1,0,6l10.6,18.4c1.1,1.8,3,3,5.2,3h21.2c2.1,0,4.1-1.1,5.2-3l10.6-18.4
			c1.1-1.8,1.1-4.1,0-6l-10.6-18.4C1741.7,351.3,1739.7,350.2,1737.6,350.2L1737.6,350.2z"/>
	</g>
	
		<ellipse transform="matrix(0.8348 -0.5505 0.5505 0.8348 -224.6353 144.9808)" class="st17" cx="129.3" cy="446.8" rx="22.5" ry="22.5"/>
	<path class="st17" d="M253.8,414.9H105c-2.6,0-4.8,2.1-4.8,4.8v56.9c0,2.6,2.1,4.8,4.8,4.8l123.7,0.2l16,16v-16.1h9.1
		c2.6,0,4.8-2.1,4.8-4.8v-56.9C258.6,417.1,256.4,414.9,253.8,414.9z"/>
	<line class="st18" x1="162.3" y1="425.4" x2="213.6" y2="425.4"/>
	<line class="st18" x1="162.3" y1="435.3" x2="247.9" y2="435.3"/>
	<line class="st18" x1="162.3" y1="444" x2="247.9" y2="444"/>
	<line class="st18" x1="162.3" y1="452.7" x2="247.9" y2="452.7"/>
	<line class="st18" x1="162.3" y1="461.5" x2="247.9" y2="461.5"/>
	<line class="st18" x1="162.3" y1="470.2" x2="247.9" y2="470.2"/>
	<g>
		<defs>
			
				<ellipse id="SVGID_1_" transform="matrix(0.8348 -0.5505 0.5505 0.8348 -224.6353 144.9808)" cx="129.3" cy="446.8" rx="22.5" ry="22.5"/>
		</defs>
		<clipPath id="SVGID_2_">
			<use xlink:href="#SVGID_1_"  style="overflow:visible;"/>
		</clipPath>
		<path class="st19" d="M142.8,462.2l-9.1-3.1v-3.8c1-0.6,1.9-1.6,2-2.8l0.3-3.9c0.8-0.3,1.3-1.1,1.3-2c0-0.8-0.4-1.4-1-1.8l0.1-0.7
			c0-4.1-3.3-7.4-7.4-7.4c-4.1,0-6.9,3.3-6.9,7.4l0.1,0.7c-0.5,0.4-0.9,1-0.9,1.7c0,0.9,0.6,1.7,1.4,2l0.5,4
			c0.1,1.2,0.8,2.3,1.8,2.8l0,0.7v3l-9.3,3.2c-0.9,0.3-1.5,1.1-1.5,2.1l0,5.9h29.9l0-5.9C144.2,463.4,143.6,462.6,142.8,462.2z"/>
		<path class="st20" d="M129.6,466.4c0.6-3.2,2.1-5.5,4.1-7.6v-3.4c1-0.6,1.9-1.6,2-2.8l0.3-3.9c0.8-0.3,1.3-1.1,1.3-2
			c0-0.8-0.4-1.4-1-1.8l0.1-0.7c0-4.1-3.3-7.4-7.4-7.4c-4.1,0-6.9,3.3-6.9,7.4l0.1,0.7c-0.5,0.4-0.9,1-0.9,1.7c0,0.9,0.6,1.7,1.4,2
			l0.5,4c0.1,1.2,0.8,2.3,1.8,2.8l0,0.7v2.7C127.5,460.9,126.8,464.5,129.6,466.4z"/>
		<path class="st21" d="M142.8,462.2l-9.1-3.1v-0.4c-2,2.1-3.4,4.4-4.1,7.6c-2.8-1.9-2.1-5.5-4.5-7.6v0.3l-9.3,3.2
			c-0.9,0.3-1.5,1.1-1.5,2.1l0,5.9h29.9l0-5.9C144.2,463.4,143.7,462.6,142.8,462.2z"/>
		<path id="XMLID_7_" class="st22" d="M133.7,459.2l9.1,3.1c0.9,0.3,1.5,1.2,1.5,2.1l0,5.9h-29.9l0-5.9c0-0.9,0.6-1.8,1.5-2.1
			l9.3-3.2l4.1,7.2L133.7,459.2z"/>
		<polygon id="XMLID_6_" class="st23" points="129.2,467 124.7,459.4 124.7,455.2 125.6,455.2 125.6,459.2 129.2,465.4 133.1,459.6 
			133.1,455.2 133.9,455.2 133.9,459.8 		"/>
		<path id="XMLID_5_" class="st23" d="M130.6,457.6H128l-3.6-2.3c-1.1-0.6-1.9-1.7-2-3l-0.3-3.4c-0.8-0.2-1.4-0.9-1.6-1.7l-0.1-0.3
			c-0.1-0.5,0-1,0.3-1.4c0.3-0.3,0.6-0.5,1-0.6l-0.1-1.1l0.8-0.1l0.2,2h-0.6c-0.3,0-0.5,0.1-0.7,0.3c-0.2,0.2-0.2,0.5-0.2,0.7
			l0.1,0.3c0.1,0.6,0.6,1,1.2,1.1l0.3,0.1l0.3,4.1c0.1,1,0.7,1.9,1.6,2.4l3.4,2.2h2l3.5-2.2c0.9-0.5,1.5-1.4,1.6-2.4l0.3-4.1
			l0.3-0.1c0.5-0.2,0.9-0.6,1-1.1l0.1-0.3c0.1-0.2,0-0.5-0.1-0.7c-0.1-0.2-0.4-0.3-0.6-0.4l-0.4,0l0-4.1l0.8,0l0,3.4
			c0.3,0.1,0.6,0.3,0.8,0.6c0.3,0.4,0.4,0.9,0.3,1.4l-0.1,0.3c-0.2,0.7-0.7,1.3-1.3,1.6l-0.3,3.5c-0.1,1.3-0.8,2.5-2,3.1
			L130.6,457.6z"/>
		<path class="st24" d="M139.7,434.5v3.2c0,1.7-1.4,3.1-3.1,3.1h-12.3c-0.9,0-1.5,0.7-1.5,1.5v2.9c0,0.2-0.1,0.3-0.3,0.3h-1.5
			c-0.2,0-0.3-0.1-0.3-0.3v-6.7c0.4-1.1,1.4-1.1,1.9-1c0.1,0,0.3-0.1,0.3-0.2c0.1-1.6,1.5-2.8,3.1-2.8H139.7z"/>
	</g>
	<path class="st25" d="M106.9,468.8h-82c-3.2,0-5.8,2.6-5.8,5.8v49.6c0,3.2,2.6,5.8,5.8,5.8h12.3V549L56.2,530h50.7
		c3.2,0,5.8-2.6,5.8-5.8v-49.6C112.7,471.4,110.1,468.8,106.9,468.8z"/>
	<circle class="st10" cx="17.5" cy="464.9" r="17.5"/>
	<polygon class="st1" points="17.7,468.8 11,473.7 13.6,465.9 6.9,461.1 15.1,461.1 17.7,453.3 20.2,461.1 28.4,461.1 21.7,465.9 
		24.3,473.7 	"/>
	<line class="st25" x1="37.6" y1="486.4" x2="94.9" y2="486.4"/>
	<line class="st25" x1="37.6" y1="494.9" x2="94.9" y2="494.9"/>
	<line class="st25" x1="37.6" y1="503.4" x2="94.9" y2="503.4"/>
	<line class="st25" x1="37.6" y1="511.8" x2="76" y2="511.8"/>
	<path class="st26" d="M150.7,342.9H39.3c-7.7,0-14,6.3-14,14v12c0,7.7,6.3,14,14,14h47.2c1.9,0,3.6,1,4.5,2.6l4.7,8.6l4.5-8.6
		c0.9-1.7,2.6-2.7,4.5-2.7h45.9c7.7,0,14-6.3,14-14v-12C164.7,349.2,158.4,342.9,150.7,342.9z"/>
	<g id="XMLID_1286_">
		<path class="st27" d="M97.2,360.7c0-2.6-2.1-4.7-4.7-4.7c-1.3,0-2.5,0.5-3.4,1.4c-0.9-0.9-2-1.4-3.4-1.4c-2.6,0-4.7,2.1-4.7,4.7
			c0,1.3,0.5,2.4,1.3,3.3l6.7,6.7l6.9-6.8c0.1-0.1,0.3-0.3,0.3-0.3C96.9,362.7,97.2,361.8,97.2,360.7z"/>
	</g>
	<polygon class="st8" points="146.3,356.3 146.3,356.3 143.4,358.1 143.5,360.3 146.3,358.7 146.3,369.3 148.4,369.3 148.4,356.3 	
		"/>
	<polygon class="st8" points="104.9,356.3 104.9,356.3 102,358.1 102.1,360.3 104.9,358.7 104.9,369.3 107,369.3 107,356.3 	"/>
	<polygon class="st8" points="63.9,356.3 63.9,356.3 61,358.1 61.1,360.3 63.9,358.7 63.9,369.3 66,369.3 66,356.3 	"/>
	<path class="st27" d="M137,366.9c0.7-1.2,1-2.6,1-4.1c0-4.8-3.9-8.7-8.7-8.7c-4.8,0-8.7,3.9-8.7,8.7c0,4.8,3.9,8.7,8.7,8.7
		c1.6,0,3.1-0.4,4.4-1.2l0,0l4.3,1.2L137,366.9L137,366.9z"/>
	<circle class="st27" cx="47.9" cy="358.1" r="4.2"/>
	<path class="st27" d="M51.4,363.9h-6.7c-2.8,0-5,2.2-5,5l0,0h16.7l0,0C56.4,366.1,54.2,363.9,51.4,363.9z"/>
	<path class="st26" d="M242.3,288.2h-42.6c-11.2,0-20.3,9.1-20.3,20.3v17.4c0,11.2,9.1,20.3,20.3,20.3h8c2.7,0,5.2,1.5,6.5,3.8
		l6.8,12.5l6.5-12.4c1.3-2.4,3.8-3.9,6.5-3.9h8.3c11.2,0,20.3-9.1,20.3-20.3v-17.4C262.6,297.3,253.5,288.2,242.3,288.2z"/>
	<path id="XMLID_27_" class="st8" d="M223.2,315.4c0-3.8-3.1-6.8-6.8-6.8c-1.9,0-3.6,0.8-4.9,2c-1.2-1.3-3-2-4.9-2
		c-3.8,0-6.8,3.1-6.8,6.8c0,1.8,0.7,3.5,1.9,4.7l9.7,9.7l10-9.9c0.1-0.1,0.4-0.5,0.4-0.5C222.7,318.3,223.2,316.9,223.2,315.4z"/>
	<polygon class="st27" points="236.7,309 236.7,309 232.5,311.7 232.6,314.8 236.7,312.5 236.7,327.8 239.7,327.8 239.7,309 	"/>
	<path class="st4" d="M475,208.6H369.1c-16.9,0-30.5-13.7-30.5-30.5v0c0-16.9,13.7-30.5,30.5-30.5H475c16.9,0,30.5,13.7,30.5,30.5v0
		C505.5,194.9,491.9,208.6,475,208.6z"/>
	<line class="st28" x1="366.3" y1="178.1" x2="473.1" y2="178.1"/>
	<line class="st29" x1="555.2" y1="178.1" x2="662" y2="178.1"/>
	<line class="st30" x1="744" y1="178.1" x2="850.9" y2="178.1"/>
	<line class="st31" x1="924.3" y1="178.1" x2="1031.2" y2="178.1"/>
	<line class="st32" x1="366.7" y1="331.6" x2="454.7" y2="331.6"/>
	<line class="st33" x1="493.1" y1="331.6" x2="581.2" y2="331.6"/>
	<line class="st32" x1="619.6" y1="331.6" x2="707.6" y2="331.6"/>
	<line class="st32" x1="746.1" y1="331.6" x2="834.1" y2="331.6"/>
	<line class="st32" x1="872.5" y1="331.6" x2="960.6" y2="331.6"/>
	<line class="st32" x1="999" y1="331.6" x2="1087" y2="331.6"/>
	<path class="st0" d="M339.1,267.9l0,0.4c0.3,17.8,14.8,32.1,32.6,32.1H1373c18,0,32.6-14.6,32.6-32.6v0c0-18-14.6-32.6-32.6-32.6
		l-1001.4-0.4C353.5,234.9,338.8,249.8,339.1,267.9z"/>
	<line class="st34" x1="366.7" y1="266.4" x2="477.1" y2="266.4"/>
	<path class="st10" d="M1228.1,284.6h-41.8c-9.5,0-17.2-7.7-17.2-17.2v0c0-9.5,7.7-17.2,17.2-17.2h41.8c9.5,0,17.2,7.7,17.2,17.2v0
		C1245.3,277,1237.6,284.6,1228.1,284.6z"/>
	<line class="st28" x1="1149.6" y1="267.4" x2="1075.2" y2="267.4"/>
	<line class="st35" x1="1229.6" y1="267.4" x2="1185.3" y2="267.4"/>
	<line class="st28" x1="1352.8" y1="267.4" x2="1265.4" y2="267.4"/>
	<polygon class="st5" points="1368.3,265.2 1376,272.8 1383.6,265.2 	"/>
	<polygon class="st3" points="1485.7,82.3 1493.4,89.9 1501,82.3 	"/>
	<line class="st36" x1="1377.4" y1="84.8" x2="1465.4" y2="84.8"/>
	<path class="st10" d="M339.1,397.5l0,0.4c0.3,17.8,14.8,32.1,32.6,32.1H1373c18,0,32.6-14.6,32.6-32.6v0c0-18-14.6-32.6-32.6-32.6
		l-1001.4-0.4C353.5,364.4,338.8,379.3,339.1,397.5z"/>
	<line class="st35" x1="397" y1="396.8" x2="508.2" y2="396.8"/>
	<circle class="st1" cx="375.2" cy="397.3" r="8.5"/>
	<line class="st37" x1="366.7" y1="454.6" x2="466.2" y2="454.6"/>
	<rect x="366.7" y="480" class="st38" width="1008.9" height="317"/>
	<line class="st38" x1="366.7" y1="645.6" x2="1375.5" y2="645.6"/>
	<text transform="matrix(1 0 0 1 403.3965 540.131)" class="st5 st39 st40 st41">20´07</text>
	<text transform="matrix(1 0 0 1 403.3965 602.7978)" class="st5 st39 st40 st41">1.098</text>
	<text transform="matrix(1 0 0 1 641.4786 540.131)" class="st5 st39 st40 st41">43%</text>
	<text transform="matrix(1 0 0 1 879.5621 540.131)" class="st5 st39 st40 st41">20´07</text>
	<text transform="matrix(1 0 0 1 1117.6451 540.131)" class="st5 st39 st40 st41">1,982</text>
	<text transform="matrix(1 0 0 1 641.4786 602.7975)" class="st5 st39 st40 st41">2,345</text>
	<text transform="matrix(1 0 0 1 879.5621 602.7975)" class="st5 st39 st40 st41">8,098</text>
	<text transform="matrix(1 0 0 1 1117.6451 602.7975)" class="st5 st39 st40 st41">20´07</text>
	<circle class="st42" cx="408.8" cy="554.8" r="5.4"/>
	<line class="st38" x1="422.7" y1="554.8" x2="499.3" y2="554.8"/>
	<circle class="st42" cx="408.8" cy="616.5" r="5.4"/>
	<line class="st38" x1="422.7" y1="616.5" x2="473.1" y2="616.5"/>
	<circle class="st42" cx="646.8" cy="554.8" r="5.4"/>
	<line class="st38" x1="660.7" y1="554.8" x2="699" y2="554.8"/>
	<line class="st38" x1="706.6" y1="554.8" x2="725.8" y2="554.8"/>
	<circle class="st42" cx="646.8" cy="616.5" r="5.4"/>
	<line class="st38" x1="660.7" y1="616.5" x2="725.8" y2="616.5"/>
	<circle class="st42" cx="884.8" cy="554.8" r="5.4"/>
	<line class="st38" x1="898.7" y1="554.8" x2="931.5" y2="554.8"/>
	<line class="st38" x1="939.8" y1="554.8" x2="972.6" y2="554.8"/>
	<circle class="st42" cx="884.8" cy="616.5" r="5.4"/>
	<line class="st38" x1="898.7" y1="616.5" x2="933.9" y2="616.5"/>
	<circle class="st42" cx="1123" cy="554.8" r="5.4"/>
	<line class="st38" x1="1136.8" y1="554.8" x2="1213.4" y2="554.8"/>
	<circle class="st42" cx="1123" cy="616.5" r="5.4"/>
	<line class="st38" x1="1136.8" y1="616.5" x2="1187.3" y2="616.5"/>
	<text transform="matrix(1 0 0 1 403.3965 684.8539)" class="st5 st39 st40 st41">20´07</text>
	<text transform="matrix(1 0 0 1 403.3965 747.5204)" class="st5 st39 st40 st41">1.098</text>
	<text transform="matrix(1 0 0 1 641.4786 684.8539)" class="st5 st39 st40 st41">43%</text>
	<text transform="matrix(1 0 0 1 879.5621 684.8539)" class="st5 st39 st40 st41">20´07</text>
	<text transform="matrix(1 0 0 1 1117.6451 684.8539)" class="st5 st39 st40 st41">1,982</text>
	<text transform="matrix(1 0 0 1 641.4786 747.5204)" class="st5 st39 st40 st41">2,345</text>
	<text transform="matrix(1 0 0 1 879.5621 747.5204)" class="st5 st39 st40 st41">8,098</text>
	<text transform="matrix(1 0 0 1 1117.6451 747.5204)" class="st5 st39 st40 st41">20´07</text>
	<polygon class="st10" points="472.3,528.5 480,536.1 487.7,528.5 	"/>
	<rect x="478.4" y="522.8" class="st10" width="3.3" height="5.7"/>
	<polygon class="st3" points="725.8,530.4 718.1,522.8 710.4,530.4 	"/>
	
		<rect x="716.5" y="530.4" transform="matrix(-1 -1.224647e-16 1.224647e-16 -1 1436.1927 1066.5668)" class="st3" width="3.3" height="5.7"/>
	<polygon class="st10" points="948.5,528.5 956.2,536.1 963.8,528.5 	"/>
	<rect x="954.6" y="522.8" class="st10" width="3.3" height="5.7"/>
	<polygon class="st3" points="1201.9,530.4 1194.3,522.8 1186.6,530.4 	"/>
	
		<rect x="1192.6" y="530.4" transform="matrix(-1 -1.224647e-16 1.224647e-16 -1 2388.5242 1066.5668)" class="st3" width="3.3" height="5.7"/>
	<polygon class="st3" points="487.7,594.1 480,586.4 472.3,594.1 	"/>
	
		<rect x="478.4" y="594.1" transform="matrix(-1 -1.224647e-16 1.224647e-16 -1 960.027 1193.8811)" class="st3" width="3.3" height="5.7"/>
	<polygon class="st3" points="725.8,594.1 718.1,586.4 710.4,594.1 	"/>
	
		<rect x="716.5" y="594.1" transform="matrix(-1 -1.224647e-16 1.224647e-16 -1 1436.1927 1193.8811)" class="st3" width="3.3" height="5.7"/>
	<polygon class="st3" points="963.8,594.1 956.2,586.4 948.5,594.1 	"/>
	
		<rect x="954.6" y="594.1" transform="matrix(-1 -1.224647e-16 1.224647e-16 -1 1912.3585 1193.8811)" class="st3" width="3.3" height="5.7"/>
	<polygon class="st10" points="1186.6,592.1 1194.3,599.8 1201.9,592.1 	"/>
	<rect x="1192.6" y="586.4" class="st10" width="3.3" height="5.7"/>
	<polygon class="st10" points="472.3,673.2 480,680.9 487.7,673.2 	"/>
	<rect x="478.4" y="667.5" class="st10" width="3.3" height="5.7"/>
	<polygon class="st3" points="725.8,675.1 718.1,667.5 710.4,675.1 	"/>
	
		<rect x="716.5" y="675.1" transform="matrix(-1 -1.224647e-16 1.224647e-16 -1 1436.1927 1356.0122)" class="st3" width="3.3" height="5.7"/>
	<polygon class="st10" points="948.5,673.2 956.2,680.9 963.8,673.2 	"/>
	<rect x="954.6" y="667.5" class="st10" width="3.3" height="5.7"/>
	<polygon class="st3" points="1201.9,675.1 1194.3,667.5 1186.6,675.1 	"/>
	
		<rect x="1192.6" y="675.1" transform="matrix(-1 -1.224647e-16 1.224647e-16 -1 2388.5242 1356.0122)" class="st3" width="3.3" height="5.7"/>
	<polygon class="st3" points="487.7,738.8 480,731.1 472.3,738.8 	"/>
	
		<rect x="478.4" y="738.8" transform="matrix(-1 -1.224647e-16 1.224647e-16 -1 960.027 1483.3267)" class="st3" width="3.3" height="5.7"/>
	<polygon class="st3" points="725.8,738.8 718.1,731.1 710.4,738.8 	"/>
	
		<rect x="716.5" y="738.8" transform="matrix(-1 -1.224647e-16 1.224647e-16 -1 1436.1927 1483.3267)" class="st3" width="3.3" height="5.7"/>
	<polygon class="st3" points="963.8,738.8 956.2,731.1 948.5,738.8 	"/>
	
		<rect x="954.6" y="738.8" transform="matrix(-1 -1.224647e-16 1.224647e-16 -1 1912.3585 1483.3267)" class="st3" width="3.3" height="5.7"/>
	<polygon class="st10" points="1186.6,736.9 1194.3,744.5 1201.9,736.9 	"/>
	<rect x="1192.6" y="731.1" class="st10" width="3.3" height="5.7"/>
	<circle class="st42" cx="408.8" cy="699.5" r="5.4"/>
	<line class="st38" x1="422.7" y1="699.5" x2="499.3" y2="699.5"/>
	<circle class="st42" cx="408.8" cy="761.2" r="5.4"/>
	<line class="st38" x1="422.7" y1="761.2" x2="473.1" y2="761.2"/>
	<circle class="st42" cx="646.8" cy="699.5" r="5.4"/>
	<line class="st38" x1="660.7" y1="699.5" x2="699" y2="699.5"/>
	<line class="st38" x1="706.6" y1="699.5" x2="725.8" y2="699.5"/>
	<circle class="st42" cx="646.8" cy="761.2" r="5.4"/>
	<line class="st38" x1="660.7" y1="761.2" x2="725.8" y2="761.2"/>
	<circle class="st42" cx="884.8" cy="699.5" r="5.4"/>
	<line class="st38" x1="898.7" y1="699.5" x2="931.5" y2="699.5"/>
	<line class="st38" x1="939.8" y1="699.5" x2="972.6" y2="699.5"/>
	<circle class="st42" cx="884.8" cy="761.2" r="5.4"/>
	<line class="st38" x1="898.7" y1="761.2" x2="933.9" y2="761.2"/>
	<circle class="st42" cx="1123" cy="699.5" r="5.4"/>
	<line class="st38" x1="1136.8" y1="699.5" x2="1213.4" y2="699.5"/>
	<circle class="st42" cx="1123" cy="761.2" r="5.4"/>
	<line class="st38" x1="1136.8" y1="761.2" x2="1187.3" y2="761.2"/>
	<path class="st1" d="M1352.1,86.9v-3.5h0V81c0-6-4.9-10.8-10.8-10.8h0l0,0c-6,0-10.8,4.9-10.8,10.8v2.4h0v3.5c0,2-1.1,3-2.3,3.5
		c-1.6,0.7-2.6,2.3-2.6,4.1v0c0,2.5,2,4.5,4.5,4.5h6c0,3,2.3,5.5,5.1,5.5c2.8,0,5.1-2.5,5.1-5.5l6.1,0c2.5,0,4.5-2,4.5-4.5v-0.1
		c0-1.7-0.9-3.3-2.5-4C1353.3,89.8,1352.1,88.7,1352.1,86.9z"/>
	<circle class="st10" cx="1330.6" cy="75.6" r="9.1"/>
	<path class="st8" d="M222.2,606.3l-17,117.7c0,0-4.9,12.1-14.6,12.1s-10.9-23.1-12.1-47.3c-1.2-24.3,0-81.3,0-81.3L222.2,606.3z"/>
	<path class="st8" d="M156.6,806.5l12.1,10.9l37.6-93.5c0,0,3.6-19.4-9.7-23.1c-13.4-3.6-15.8,4.9-18.2,20.6
		C176.1,737.4,156.6,806.5,156.6,806.5z"/>
	<path class="st8" d="M207.6,614.8L221,716c0,0,2.4,16.5,12.1,17.7c9.7,1.2,12.2-5.7,14-19.8s-0.6-112.5-0.6-112.5
		s-2.4-20.6-21.8-17C205.2,588.1,207.6,612.3,207.6,614.8z"/>
	<path class="st8" d="M235.5,830.8l14.6-1.2l-2.8-118.1c0,0,1.6-17.8-11.8-17.8s-17,7.3-13.4,34
		C225.8,754.4,235.5,830.8,235.5,830.8z"/>
	<path class="st43" d="M217.5,558.3c0,0-6.8-5.1,7.1-15.5c13.9-10.4,39.2-31.9,46.5-32.2s10.6,8.9,9.9,11.6
		c-0.7,2.6-45.6,38.8-45.6,38.8S223.8,567.2,217.5,558.3z"/>
	<path class="st43" d="M265.2,513.1l27.6-56.5l2.6-0.9c0,0-10.9,64.6-16.1,68C274.1,527.2,260.8,529.3,265.2,513.1z"/>
	<path class="st12" d="M234.3,545.6c0-5.9-6.9-6.1-12.8-7.2c-4.8,2.7-10.8,2.6-16.3,1.1l0,0.1l-13.4,2.4c0,0-10.9,46-12.1,64.3
		c23.3,0.9,46.3,4.2,67.2-4.9C244.1,591.9,234.3,550.8,234.3,545.6z"/>
	<path class="st3" d="M205.2,539.5c0,0-2.4,6.1,2.4,13.4c4.9,7.3,8.6,26.1,7.3,35.5c-1.3,9.4-8.5,31.2-8.5,31.2l-31.6-6.1l10.9-69.2
		c0,0,3.6-2.4,9.7-3.6C201.6,539.5,205.2,539.5,205.2,539.5z"/>
	<path class="st9" d="M221.5,538.4c-0.2,0-0.3-0.1-0.5-0.1c-6.1-1.2-4.9-10.9-4.9-10.9l8.5-7.3c-2.7-12.7-8.2-17.3-10.8-18.8
		c-0.9-0.5-1.4-0.6-1.4-0.6c-7.3-1.2-12.1,6.1-12.1,6.1l4.8,32.7C210.7,541,216.7,541.1,221.5,538.4z"/>
	<path class="st12" d="M168.8,817.6l0.2-0.5l-11.1-10.7l1.4,3.9l0.9,11.5l1.8,12.9l9.4,2.3c-3.3-7.1-3-8.2-3-8.2L168.8,817.6z"/>
	<polygon class="st12" points="246.5,829.2 237.1,830.7 238,836.9 252.5,836.9 246.5,829.6 	"/>
	<polygon class="st10" points="214.9,504.3 221,510.4 218.5,512.8 	"/>
	<path class="st12" d="M207.6,512.8c0,0-2.4-2.4-3.6-1.2c-1.2,1.2-1.2,7.3,1.2,7.3s2.4-1.2,2.4-1.2s0,6.1-2.4,6.1s-2,0-2,0l-4.1-17
		c0,0-1.2-1.2,4.9-6.1c6.1-4.9,12.1-2.4,12.1,0s0,2.4,0,2.4l-2.4-1.2c0,0,0,1.2-2.4,1.2c-2.4,0-7.3,0-6.1,2.4
		S208.8,509.2,207.6,512.8z"/>
	<path class="st3" d="M221,538.3c0,0,8.5,4.9,10.9,18.2s10.9,57,10.9,57l10.9-1.2c0,0-10.9-55.8-14.6-64.3S224.6,538.3,221,538.3z"
		/>
	<path class="st43" d="M185.5,545.1c0,0,6.4-5.6,13.6,10.2c7.3,15.8,23.1,45,21.8,52.2c-1.2,7.3-10.9,8.5-13.4,7.3
		c-2.4-1.2-28.5-52.7-28.5-52.7S175.5,549.5,185.5,545.1z"/>
	<path class="st43" d="M216.1,593.9l59.5-20.4l2.4,1.2c0,0-60.7,43.7-66.8,42.5C205.2,616,201.6,602.2,216.1,593.9z"/>
	<path class="st9" d="M292.6,457c0,0,0-7.3,1.2-8.5c1.2-1.2,0,3.6,0,3.6l6.1-6.1l-4.9,9.7L292.6,457z"/>
	<path class="st9" d="M275.6,573.5c0,0,2.4-4.9,4.9-6.1l-2.4,4.9l8.5-1.2c0,0-4.9,3.6-8.5,3.6L275.6,573.5z"/>
</g>
</svg>
