<?xml version="1.0" encoding="utf-8"?>
<!-- Generator: Adobe Illustrator 22.1.0, SVG Export Plug-In . SVG Version: 6.00 Build 0)  -->
<svg version="1.1" id="Capa_1" xmlns="http://www.w3.org/2000/svg" xmlns:xlink="http://www.w3.org/1999/xlink" x="0px" y="0px"
	 viewBox="0 0 658.2 537.2" style="enable-background:new 0 0 658.2 537.2;" xml:space="preserve">
<style type="text/css">
	.st0{fill:#EF81A7;}
	.st1{fill:url(#SVGID_1_);}
	.st2{fill:none;stroke:#FFFFFF;stroke-width:2;stroke-miterlimit:10;}
	
		.st3{fill:none;stroke:#FFFFFF;stroke-width:2;stroke-linecap:round;stroke-linejoin:round;stroke-miterlimit:10;stroke-dasharray:4,10;}
	.st4{fill:none;stroke:#FFFFFF;stroke-width:2;stroke-linecap:round;stroke-linejoin:round;stroke-miterlimit:10;}
	.st5{fill:#FFFFFF;}
	.st6{font-family:'BebasNeueBold';}
	.st7{font-size:35.6761px;}
	.st8{letter-spacing:-2;}
	.st9{font-size:13.3819px;}
	.st10{font-size:11.8272px;}
	.st11{font-size:7.8801px;}
	.st12{fill:#7BC29B;}
	.st13{font-size:9.8899px;}
	.st14{fill:#505AA5;}
	.st15{fill:#63BA8D;}
	.st16{fill:url(#SVGID_2_);}
	.st17{font-size:39.8805px;}
	.st18{letter-spacing:1;}
	.st19{font-size:14.959px;}
	.st20{font-size:13.221px;}
	.st21{font-size:8.8088px;}
	
		.st22{opacity:0.3;fill:none;stroke:#FFFFFF;stroke-width:3;stroke-linecap:round;stroke-linejoin:round;stroke-miterlimit:10;stroke-dasharray:4,10;}
	.st23{fill:#3C3C57;}
	.st24{fill:#62BA8C;}
	.st25{fill:#535DA7;}
	.st26{fill:none;}
	.st27{fill:#F9CBC6;}
	.st28{fill:#5059A4;}
	.st29{fill:none;stroke:#1C1C1C;stroke-width:2;stroke-miterlimit:10;}
	.st30{fill:none;stroke:#7BC29B;stroke-miterlimit:10;}
	.st31{fill:#16162D;}
	.st32{fill:none;stroke:#535DA7;stroke-miterlimit:10;}
	.st33{fill:none;stroke:#EF81A7;stroke-miterlimit:10;}
	.st34{fill:#333351;}
</style>
<g>
	<path class="st0" d="M505.5,0H279c-14.1,0-27.2,7.5-34.2,19.8L131.5,215.9c-7.1,12.2-7.1,27.3,0,39.5l113.2,196.1
		c7.1,12.2,20.1,19.8,34.2,19.8h226.5c14.1,0,27.2-7.5,34.2-19.8l113.2-196.1c7.1-12.2,7.1-27.3,0-39.5L539.7,19.8
		C532.6,7.5,519.6,0,505.5,0z"/>
	<linearGradient id="SVGID_1_" gradientUnits="userSpaceOnUse" x1="706.6352" y1="430.8615" x2="465.11" y2="250.96">
		<stop  offset="0" style="stop-color:#5955A1"/>
		<stop  offset="1" style="stop-color:#505AA5"/>
	</linearGradient>
	<path class="st1" d="M617.9,366.7H420.2c-5,0-9-4.1-9-9V224.7c0-5,4.1-9,9-9h197.7c5,0,9,4.1,9,9v132.9
		C627,362.6,622.9,366.7,617.9,366.7z"/>
	<path class="st2" d="M617.9,366.7H420.2c-5,0-9-4.1-9-9V224.7c0-5,4.1-9,9-9h197.7c5,0,9,4.1,9,9v132.9
		C627,362.6,622.9,366.7,617.9,366.7z"/>
	<circle class="st3" cx="518.2" cy="291.1" r="46.4"/>
	<path class="st4" d="M518.2,244.7c25.6,0,46.4,20.8,46.4,46.4s-20.8,46.4-46.4,46.4"/>
	<circle class="st5" cx="519.1" cy="338.2" r="5"/>
	<text transform="matrix(1 0 0 1 504.7025 302.805)" class="st5 st6 st7 st8">51</text>
	<text transform="matrix(1 0 0 1 533.786 288.0589)" class="st5 st6 st9">%</text>
	<polyline class="st4" points="427.3,345.2 427.3,352.5 434.5,352.5 	"/>
	<line class="st4" x1="427.3" y1="352.5" x2="434.6" y2="345.3"/>
	<text transform="matrix(1 0 0 1 596.1776 234.344)" class="st5 st6 st10">100</text>
	<text transform="matrix(1 0 0 1 612.933 231.9749)" class="st5 st6 st11">%</text>
	<path class="st12" d="M618.8,199.1H420.3c-5,0-9-4.1-9-9v-75.7c0-5,4.1-9,9-9h198.5c5,0,9,4.1,9,9V190
		C627.8,195,623.8,199.1,618.8,199.1z"/>
	<path class="st2" d="M618.8,199.1H420.3c-5,0-9-4.1-9-9v-75.7c0-5,4.1-9,9-9h198.5c5,0,9,4.1,9,9V190
		C627.8,195,623.8,199.1,618.8,199.1z"/>
	<g>
		<text transform="matrix(1 0 0 1 436.1644 132.885)" class="st5 st6 st13">RECIBIDOS</text>
	</g>
	<g>
		<text transform="matrix(1 0 0 1 586.8407 132.885)" class="st5 st6 st13">67%</text>
	</g>
	<g>
		<text transform="matrix(1 0 0 1 586.8407 163.6536)" class="st5 st6 st13">35%</text>
	</g>
	<path class="st14" d="M438.7,138.1c-1.4,0-2.6,1.2-2.6,2.6c0,1.4,1.2,2.6,2.6,2.6h103.6v-5.1H438.7z"/>
	<path class="st15" d="M599.7,138.1h-57.3v5.1h57.3c1.4,0,2.6-1.2,2.6-2.6C602.2,139.2,601.1,138.1,599.7,138.1z"/>
	<g>
		<text transform="matrix(1 0 0 1 436.1644 163.6536)" class="st5 st6 st13">ENVIADOS</text>
	</g>
	<path class="st5" d="M438.7,168.8c-1.4,0-2.6,1.2-2.6,2.6s1.2,2.6,2.6,2.6h55.8v-5.1H438.7z"/>
	<path class="st15" d="M599.7,168.8H494.6v5.1h105.1c1.4,0,2.6-1.2,2.6-2.6S601.1,168.8,599.7,168.8z"/>
	<linearGradient id="SVGID_2_" gradientUnits="userSpaceOnUse" x1="159.078" y1="235.6525" x2="400.3611" y2="235.6525">
		<stop  offset="0" style="stop-color:#EF81A7"/>
		<stop  offset="1" style="stop-color:#F29386"/>
	</linearGradient>
	<path class="st16" d="M391.3,366.9H168.1c-5,0-9-4.1-9-9V113.5c0-5,4.1-9,9-9h223.2c5,0,9,4.1,9,9v244.4
		C400.4,362.8,396.3,366.9,391.3,366.9z"/>
	<path class="st2" d="M391.3,366.9H168.1c-5,0-9-4.1-9-9V113.5c0-5,4.1-9,9-9h223.2c5,0,9,4.1,9,9v244.4
		C400.4,362.8,396.3,366.9,391.3,366.9z"/>
	<circle class="st3" cx="278.7" cy="188.8" r="51.9"/>
	<path class="st4" d="M278.7,136.9c28.7,0,51.9,23.2,51.9,51.9s-23.2,51.9-51.9,51.9s-51.9-23.2-51.9-51.9"/>
	<circle class="st5" cx="226.8" cy="189.6" r="5.6"/>
	<text transform="matrix(1 0 0 1 260.6317 201.8587)" class="st5 st6 st17 st18">43</text>
	<text transform="matrix(1 0 0 1 296.203 185.3753)" class="st5 st6 st19">%</text>
	<text transform="matrix(1 0 0 1 365.9476 125.3294)" class="st5 st6 st20">100</text>
	<text transform="matrix(1 0 0 1 384.6771 122.6809)" class="st5 st6 st21">%</text>
	<path class="st4" d="M182.4,327.4c0,0,3.2-9.5,12.4-10.3s14.9-0.6,21.6-8.3s16.1-18.7,24.4-18.7c8.3,0,15.4,9.8,20.8,16.4
		s10.8,14.6,20.8,14.6c10.1,0,15.9-6.1,22.8-16.5s18.6-28.4,31.8-28.4s17.4,9.4,24,18.4s8.7,15.3,14.5,15.3"/>
	<circle class="st5" cx="337.1" cy="276.8" r="5.6"/>
	<line class="st22" x1="182.4" y1="334.9" x2="378.7" y2="334.9"/>
	<line class="st22" x1="182.4" y1="311.4" x2="378.7" y2="311.4"/>
	<line class="st22" x1="182.4" y1="287.9" x2="378.7" y2="287.9"/>
	<line class="st22" x1="182.4" y1="264.3" x2="378.7" y2="264.3"/>
	<path class="st23" d="M38.5,252.2h49.7c4.9,0,9.4,2.6,11.8,6.8l24.9,43c2.4,4.2,2.4,9.4,0,13.7l-24.9,43c-2.4,4.2-6.9,6.8-11.8,6.8
		H38.5c-4.9,0-9.4-2.6-11.8-6.8l-24.9-43c-2.4-4.2-2.4-9.4,0-13.7l24.9-43C29.1,254.8,33.6,252.2,38.5,252.2z"/>
	<path class="st24" d="M585.9,451.6h17.6c2.1,0,4.1,1.1,5.2,3l8.8,15.3c1.1,1.8,1.1,4.1,0,6l-8.8,15.3c-1.1,1.8-3,3-5.2,3h-17.6
		c-2.1,0-4.1-1.1-5.2-3l-8.8-15.3c-1.1-1.8-1.1-4.1,0-6l8.8-15.3C581.9,452.7,583.8,451.6,585.9,451.6z"/>
	<path class="st25" d="M604.1,33.7h17.6c2.1,0,4.1,1.1,5.2,3l8.8,15.3c1.1,1.8,1.1,4.1,0,6l-8.8,15.3c-1.1,1.8-3,3-5.2,3h-17.6
		c-2.1,0-4.1-1.1-5.2-3l-8.8-15.3c-1.1-1.8-1.1-4.1,0-6l8.8-15.3C600,34.9,602,33.7,604.1,33.7z"/>
	<circle class="st26" cx="255.1" cy="181.5" r="17.5"/>
	<path class="st26" d="M340,165c1-0.4,1.9-0.7,2.9-0.9c-1.6,0.7-3.2,1.3-4.8,2C338.7,165.6,339.3,165.3,340,165z"/>
	<path class="st26" d="M333.1,183c-2.8-6.2-0.5-13.4,5-17c1.6-0.6,3.2-1.3,4.8-2c6.1-1.2,12.4,1.9,15.1,7.8
		c2.5,5.6,0.9,12.1-3.5,15.9c-2,1.1-4,2.1-6,3C342.3,192.1,335.8,189,333.1,183z"/>
	<path class="st26" d="M333.1,183c-2.8-6.2-0.5-13.4,5-17c1.6-0.6,3.2-1.3,4.8-2c6.1-1.2,12.4,1.9,15.1,7.8
		c2.5,5.6,0.9,12.1-3.5,15.9c-2,1.1-4,2.1-6,3C342.3,192.1,335.8,189,333.1,183z"/>
	<path class="st27" d="M337,166.4c0.5-0.5,1.1-0.9,1.7-1.3c0.9-0.6,1.8-1,2.8-1.3c2.9-1.7,5.8-3.7,8.8-5.8
		c46.4-33.8,56.3-46.9,56.3-46.9l7.3,8.1c0,0-21.9,40.9-57.8,66.6c-1.8,1.3-3.7,2.6-5.5,3.8c-6,2.2-12.8-0.1-16.3-5.7
		C330.7,178.1,332,170.7,337,166.4z"/>
	<path class="st24" d="M258.8,164.4c0,0,35.3,18.4,79.4,1.6c1.6-0.6,3.2-1.3,4.8-2c6.1-1.2,12.4,1.9,15.1,7.8
		c2.5,5.6,0.9,12.1-3.5,15.9c-2,1.1-4,2.1-6,3c-3.9,1.8-7.9,3.5-12,4.9c-48.3,16.9-83.3,3.2-83.3,3.2L258.8,164.4z"/>
	<path class="st27" d="M411.6,121.4c0,0-3,1.4,4.3-3.3c7.3-4.7,7.2-4.5,10-11.3s-2-4.6-5,2.7c-3,7.3-9-0.5-5.3-3.7
		c3.7-3.1,21.2-14,21.2-14s1.2-3.2-9.3,1.3c-10.5,4.4-21.5,8.7-20.8,14.5c0.7,5.9-1.8,8.1-1.8,8.1L411.6,121.4z"/>
	<g>
		<path class="st27" d="M285.9,103.3c-0.3,0-0.6,0.3-0.6,0.6l0.8,6.6c0.1,0.6,0.1,1.2,0.5,1.7c0.5,0.8,1.5,1.1,2.4,1l2.5-0.5
			c2.7-0.6,2.2-2.7,2-3.1c-0.3-0.7-1.2-0.8-1.9-1c-2.6-0.6-3.9-2.7-5.1-5.1C286.4,103.4,286.2,103.3,285.9,103.3L285.9,103.3z"/>
	</g>
	<path class="st27" d="M259.1,151.2c0,0-8.4,13.2,11.6,14.7l11.7-35.4l-6.3-29.2l-22.1-8C254,93.2,272.1,127.9,259.1,151.2z"/>
	<path class="st27" d="M292.1,128.6l-10.5-52.7l-16.7,2.7c0,0-13.1,41.3-2.9,47.2c3.2,1.8,11.1-11.4,11.1-11.4l5.3,13L292.1,128.6z"
		/>
	<path class="st23" d="M280.9,66.7c-12.3-1.5-31.5-0.6-41.1,14.1c-9.6,14.7,4.9,43.2,4.9,43.2s6.5,11.7-2.2,19.4
		c-8.7,7.7,0.9,11.3,12.4,2.4c11.5-8.9,13.8-7.9,12.9-19.6c-0.8-11.8-6.5-19.9,0.2-20.6c2.5-0.3,3.6,1.2,3.8,9.5
		c0,1.4-1.1,2.5-1,4.4c0.9,9.2,6.9,21.1,15.3,24c10,3.5,22.6,5.4,17.7-9s-18.3-5-22.4-13.8c-4.2-8.9-10.1-15.7-6.3-25.3
		c3.7-9.6,7.4-19.1,16.4-15.9C300.5,82.8,298.6,68.8,280.9,66.7z"/>
	
		<ellipse transform="matrix(0.9417 -0.3363 0.3363 0.9417 -16.5764 102.1397)" class="st28" cx="286.5" cy="98.9" rx="3.5" ry="8.4"/>
	<path class="st2" d="M283.3,99.2l-16,4.2c-4.1,1.1-7.3,4.2-8.5,8.2l-0.8,2.8"/>
	
		<ellipse transform="matrix(0.9417 -0.3363 0.3363 0.9417 -16.5764 102.1397)" class="st29" cx="286.5" cy="98.9" rx="3.5" ry="8.4"/>
	<circle class="st30" cx="275" cy="295" r="23.7"/>
	<circle class="st30" cx="301.1" cy="379.5" r="14.5"/>
	<path class="st31" d="M252,300.9c11.3,31.1,31.4,53.8,33.9,77.8c0.6,5.4,4.1,15.2,16,15.3c11.9,0.1,14.1-13.8,14.1-13.8
		c2.4-40.7-12.6-73.5-18.4-92.2c0,0-6-19-25.7-16.5C253,273.9,249.2,293.3,252,300.9z"/>
	<circle class="st30" cx="296.5" cy="514.7" r="4.7"/>
	<path class="st31" d="M286,379.5c2.2,15.3,4.3,32.2,5.3,47.7c1.6,23-2.4,65.1,0.5,87.7c0.9,7.1,8.9,5,9.4,0.5
		c3.8-33.9,17.4-102.1,15.1-132.9c-0.1-1.6-0.3-3.2-0.4-4.7c0,0-3.8-14.7-16.6-12.7C286.5,367.1,286,379.5,286,379.5z"/>
	<path class="st12" d="M301.2,515.3c0,0,9.7,3.8,21.3,6s8.6,6.8-0.2,6.9s-28.2,1-30.2-10.8c0,0,1.8,3.4,5.4,2.6
		C300.9,519.3,301.2,515.3,301.2,515.3z"/>
	<path class="st32" d="M291.6,286.4c0,0-3.2,17.3,12.3,20.3"/>
	<path class="st33" d="M303.4,309.8c0,0-8.7-1.9-12.2-8"/>
	<circle class="st26" cx="240.5" cy="299.9" r="23.7"/>
	<circle class="st30" cx="254.1" cy="387.2" r="14.5"/>
	<path class="st34" d="M216.9,302.4c6.7,32.4,20.4,73.5,23.5,97.5c0.7,5.6,0.7,0,12.4,1.9c11.8,1.8,15.8,2.4,15.8,2.4
		c8.2-39.9-1.7-88.6-4.7-108c0,0-3.1-19.6-23.1-20C221.8,275.8,215.2,294.4,216.9,302.4z"/>
	<path class="st32" d="M223.6,283c0,0,24.9,16.3-3.2,33.2"/>
	<circle class="st26" cx="244.2" cy="522.1" r="4.7"/>
	<path class="st34" d="M239.4,388.3c1.5,15.4,2.6,30.7,3,46.2c0.7,23-5,64.9-3,87.7c0.6,7.1,8.7,5.3,9.4,0.9
		c5.2-33.7,21.4-101.3,20.4-132.2c-0.1-1.6-0.1-3.2-0.2-4.7c0,0-3.2-14.8-16.1-13.3C240,374.3,239.4,388.3,239.4,388.3z"/>
	<path class="st12" d="M249,522.4c0,0,9.3,4.6,20.7,7.9c11.4,3.2,8,7.6-0.8,6.8c-8.8-0.7-28.2-1.5-29.1-13.4c0,0,1.5,3.6,5.1,3.1
		C248.3,526.3,249,522.4,249,522.4z"/>
	<path class="st33" d="M237.3,304.5c0,0-2.3,7.1-10.8,12.6"/>
	<path class="st24" d="M258,155.2c0,0-53,25.6-41.8,139.1c29.6,4.5,83.9-9.8,91.6-22.3c-26.7-48-36.8-80.8-37.2-106.1
		C254.5,164.2,258,155.2,258,155.2z"/>
	<path class="st34" d="M239.6,193.3c0,0,3.8,36.9,55.2,53.7l-9.5-20.8L239.6,193.3z"/>
	<circle class="st26" cx="255.1" cy="181.4" r="17.5"/>
	<path class="st27" d="M326.1,213.9c0,0,5.2,0.2,5.2,0.1c3.4,0,6.9-0.1,10.5-0.4c57.2-4.8,72.9-8.4,72.9-8.4l1.6,8.3
		c0,0-40,23.6-84,26.9c-2.2,0.2-4.5,0.3-6.7,0.3c-6.2-1.2-10.9-6.7-11-13.3C314.6,220.6,319.5,214.9,326.1,213.9z"/>
	<path class="st24" d="M263.4,167.8c0,0,19,35,64.9,45.7c1.7,0.4,3.3,0.7,5.1,1.1c5.7,2.4,9.3,8.5,8.2,14.9c-1,6.1-6,10.5-11.8,11.2
		c-2.2-0.2-4.4-0.5-6.7-0.8c-4.3-0.6-8.5-1.5-12.7-2.6c-49.5-13-70.9-43.8-70.9-43.8L263.4,167.8z"/>
	<path class="st27" d="M414.7,205.2c0,0,0.3,0.2,5-2.4c7.6-4.2,7.5-4,14.8-3s3,4.1-4.8,3c-7.8-1.1-4,8,0.5,6.4s22.7-11.4,22.7-11.4
		s3.3,0.6-5.8,7.4c-9.1,6.8-18.3,14.3-23,10.7c-4.7-3.5-7.9-2.5-7.9-2.5L414.7,205.2z"/>
</g>
</svg>
