<?xml version="1.0" encoding="utf-8"?>
<!-- Generator: Adobe Illustrator 22.1.0, SVG Export Plug-In . SVG Version: 6.00 Build 0)  -->
<svg version="1.1" id="Capa_1" xmlns="http://www.w3.org/2000/svg" xmlns:xlink="http://www.w3.org/1999/xlink" x="0px" y="0px"
	 viewBox="0 0 565.4 541.4" style="enable-background:new 0 0 565.4 541.4;" xml:space="preserve">
<style type="text/css">
	.st0{fill:#121021;}
	.st1{fill:#413F7A;}
	.st2{fill:#515BA5;}
	.st3{fill:none;stroke:#C2C2E2;stroke-miterlimit:10;}
	.st4{fill:#29264F;}
	.st5{fill:none;stroke:#29264F;stroke-width:2;stroke-miterlimit:10;}
	.st6{fill:#F29184;}
	.st7{fill:#F3A5C7;}
	.st8{fill:none;stroke:#29264F;stroke-width:3;stroke-miterlimit:10;}
	.st9{fill:#7AC299;}
	.st10{fill:#F9C9C5;}
	.st11{fill:#525DA7;}
	.st12{fill:none;stroke:#525DA7;stroke-miterlimit:10;}
	.st13{fill:none;stroke:#FFFFFF;stroke-width:2;stroke-miterlimit:10;}
	.st14{fill:#E0EFE3;}
	.st15{fill:#F3F2F2;}
	.st16{fill:#EF80A5;}
</style>
<g>
	<path class="st0" d="M110.3,189.7"/>
	<path class="st1" d="M63.7,437l15.1-196.5c1.6-20.6,13.1-39.2,30.9-49.8c50.9-30.2,158.1-89,221.4-89
		c71.3,0,226.3,255.6,233.9,324.4c3.4,24.3-13.9,60.5-39.9,63.9c-52.8-10.1-134.1-48.1-251.7-16C155.5,506.1,63.7,500.7,63.7,437z"
		/>
	<path class="st2" d="M123.7,491.8c10.1-23.4-8.9-39.1,0.1-60.6c9.2-22,0-32.5-16.8-54.3c-16.8-21.8-10-19.3-4.7-41.1s-33-59-33-59
		C55,293.1,50,298.2,53.3,325c3.3,26.8-29.3,18.4-36.3,52.8c-6.9,34.4,8.6,43.6-9.8,62.9c-16,16.7-1.1,44.2,3.2,51.2H123.7z"/>
	<path class="st3" d="M69.3,276.9c0,0,15.7,44.6,6.6,82.2s-16.8,49.1-14,77.8s3.9,52.6,3.9,52.6"/>
	<path class="st3" d="M62.4,442.4c0,0,6.1-24.8,23-35s30.9-18.3,30.9-18.3"/>
	<path class="st3" d="M63.8,459.6c0,0,7.8-18.4,22.2-28.6c14.4-10.2,41.4-24.2,41.4-24.2"/>
	<path class="st3" d="M66,481c0,0,4.6-17.7,15.5-23.2c10.9-5.5,40.2-19.7,40.2-19.7"/>
	<path class="st3" d="M70,491.8c0,0,6.9-13.9,16.8-19.2c9.8-5.3,36.6-14.9,36.6-14.9"/>
	<path class="st3" d="M4.7,447.1c0,0,42.8,16.8,49.4,22.7c6.7,6,11.4,16.8,11.4,16.8"/>
	<path class="st3" d="M14.3,430.8c0,0,34.9,14,40.5,21.2s9,14.8,9,14.8"/>
	<path class="st3" d="M16.3,413c0,0,29.5,10.9,34.4,15.1c4.9,4.2,11.7,20.7,11.7,20.7"/>
	<path class="st3" d="M15.3,391.3c0,0,34.7,14,38.5,19.3c3.9,5.3,7.5,14.7,7.5,14.7"/>
	<path class="st3" d="M62.4,408.3c0,0,5.9-9.7,16.3-14.9c10.5-5.3,29.6-14.6,29.6-14.6"/>
	<path class="st3" d="M19.2,370.2c0,0,21.6,16.1,27.5,21.1S61.3,413,61.3,413"/>
	<path class="st3" d="M67.4,390c0,0,2.9-9.8,11.3-14.9c8.4-5.2,19.2-11.5,19.2-11.5"/>
	<path class="st3" d="M34.5,351.6c0,0,21.7,17.7,25,24.1c3.4,6.4,5.8,21.9,5.8,21.9"/>
	<path class="st3" d="M73.5,368.5c0,0,0.3-8,9.2-13.4S99.9,344,99.9,344"/>
	<path class="st3" d="M50.8,338.7c0,0,9.2,6.4,13.1,12.9s8,23,8,23"/>
	<path class="st3" d="M52.9,321.2c0,0,18,9,20.6,14.4s4.6,10.8,4.6,10.8"/>
	<path class="st3" d="M78.7,336c0,0,1.3-11.5,6.6-14.7"/>
	<rect x="169.5" y="77.3" class="st4" width="7.6" height="379.1"/>
	<rect x="159.1" y="432.7" class="st2" width="28.4" height="27"/>
	<path class="st4" d="M196.1,504.4c-5.6-14.2-7.1-29.8-4.3-44.8c1.6-8.7-5-16.7-13.9-16.7h-2.5h-4.2h-2.5c-8.8,0-15.5,8-13.9,16.7
		c2.8,15,1.4,30.6-4.3,44.8L138.6,535h32.7h4.2h32.7L196.1,504.4z"/>
	<rect x="138.6" y="535" class="st2" width="69.6" height="6.4"/>
	<line class="st5" x1="173.6" y1="12.1" x2="173.6" y2="74.2"/>
	<path class="st6" d="M186.2,73.1l12.2-56.1c0.5-2.5-1.4-4.9-3.9-4.9H152c-2.6,0-4.5,2.4-3.9,4.9l12.1,56.1c0.4,1.9,2,3.2,3.9,3.2
		h18.1C184.1,76.2,185.8,74.9,186.2,73.1z"/>
	<polygon class="st7" points="191.6,12.1 185.5,12.1 170.9,76.2 176.7,76.2 	"/>
	<path class="st8" d="M186.3,72.6l12-55c0.6-2.9-1.6-5.6-4.5-5.6h-41c-2.9,0-5.1,2.7-4.5,5.5l11.9,55c0.5,2.1,2.3,3.6,4.5,3.6h17.2
		C183.9,76.2,185.8,74.7,186.3,72.6z"/>
	<path class="st4" d="M183.4,12.1c0.1-0.6,0.2-1.2,0.2-1.9C183.6,4.6,179,0,173.4,0c-5.7,0-10.3,4.6-10.3,10.3
		c0,0.6,0.1,1.3,0.2,1.9H183.4z"/>
	<path class="st9" d="M385.2,201.3l-48.5,45.9c0,0-9.9,13.3-12.8,33.3s-8.5,48.9-8.5,48.9l-5.2,1.5c0,0-9.6-68.4-0.6-88.1
		s24.3-38.2,24.3-38.2l35.4-38.3c0,0,15-17.1,28.5-5.1C404.9,167.5,406,181.4,385.2,201.3z"/>
	<circle class="st4" cx="387.1" cy="176.8" r="19.7"/>
	<path class="st10" d="M310.2,331c0,0-2.5,1.9-5.7,10.9c-0.8,2.2-3.5,3.4-5,4.3c-0.9,0.6-1.1,1.8-0.5,2.7l0,0.1
		c0.6,0.8,1.7,1,2.5,0.4c2.5-1.7,8.5-4.3,10.1-9.7c0,0,2.2,9.9-9.1,15.1c-1.1,0.5-1.5,1.8-0.8,2.8l0,0.1c0.5,0.8,1.5,1,2.4,0.6
		c4.1-2.2,15.2-9.8,11.1-28.7L310.2,331z"/>
	<path class="st10" d="M311.1,338c0.3,2.9,0,9.2-7.6,13.7c-1,0.6-1.2,1.9-0.5,2.7l0,0c0.6,0.7,1.6,0.8,2.3,0.4
		c3.4-2.2,11.5-9,9.4-23C312.9,333.4,311.6,335.5,311.1,338z"/>
	<path class="st10" d="M407.3,388.1l11-98.8L359.6,259c-22.6,49.6,10,116.1,9.2,128.6c-0.1,1.4-0.2,2.6-0.3,3.6
		c-0.1,1-0.3,2-0.5,2.9c-1.9,8.2-8.3,13.1-25.2,37.5c-18.8,27.2-22.9,58.1-22.9,58.1l0,0l-8.7,16.7l16.4,16.1c0,0-1.3-14.3,5.4-24.5
		c0,0,34.6-52.7,54-76c6.4-7.7,10.8-14.1,13.8-19.1c0.4-0.6,0.7-1.2,1.1-1.8C406.9,392.3,407.3,388.1,407.3,388.1z"/>
	<path class="st11" d="M400.7,403c0.4-0.6,0.7-1.2,1.1-1.8c5.1-8.9,5.5-13.1,5.5-13.1l11-98.8L359.6,259
		c-22.6,49.6,10,116.1,9.2,128.6c-0.1,1.4-0.2,2.6-0.3,3.6c-0.1,1-0.3,2-0.5,2.9c0.3,4.7,2.5,9.4,6.4,12.6
		c7.6,6.3,18.9,5.3,25.2-2.3C400.1,403.9,400.4,403.4,400.7,403z"/>
	<path class="st11" d="M401.8,401.2c-0.3,0.6-0.7,1.2-1.1,1.8C401.1,402.4,401.5,401.8,401.8,401.2z"/>
	<path class="st11" d="M392.6,390.1c-0.2,2.2,0,4.4,0.6,6.5c0-0.9,0-1.9-0.1-2.9C392.9,392.7,392.7,391.4,392.6,390.1z"/>
	<path class="st11" d="M386.9,422c6.4-7.7,10.8-14.1,13.8-19.1c0.4-0.6,0.7-1.2,1.1-1.8c3.8-7.3,2.1-16.5-4.5-22
		c-7.6-6.3-18.9-5.3-25.2,2.3c-1.5,1.8-2.6,3.9-3.3,6c-0.1,1.4-0.2,2.6-0.3,3.6c-0.1,1-0.3,2-0.5,2.9c-1.9,8.2-8.3,13.1-25.2,37.5
		c-18.8,27.2-22.9,58.1-22.9,58.1L333,498C333,498,367.6,445.3,386.9,422z"/>
	<path class="st4" d="M351.6,309.3c0,0,5.5,45.1,46.5,97.7c0,0,14.4-20.5,13.3-30.8L351.6,309.3z"/>
	<path class="st2" d="M312.4,504c0,0-5.3,11.3,4.6,16.3s34.3,19.1,34.3,19.1l1.6-2.1l-25-25C317.9,513.5,312.4,504,312.4,504z"/>
	<path class="st10" d="M450.3,380.5l-36.2-92.6l-66,0.5c3,54.4,62.9,98.2,67.9,109.5c0.6,1.3,1,2.4,1.4,3.3c0.4,1,0.7,1.9,0.9,2.8
		c2.1,8.2-1.3,15.5-4.9,44.9c-4,32.8,6.7,62,6.7,62h0l0,18.8l22,6.7c0,0-7.8-12.1-6.6-24.2c0,0,6.2-62.7,12.5-92.3
		c2.1-9.8,3-17.5,3.4-23.3c0-0.7,0.1-1.4,0.1-2.1C451.9,384.4,450.3,380.5,450.3,380.5z"/>
	<path class="st11" d="M451.4,396.7c0-0.7,0.1-1.4,0.1-2.1c0.4-10.2-1.2-14.1-1.2-14.1l-36.2-92.6l-66,0.5
		c3,54.4,62.9,98.2,67.9,109.5c0.6,1.3,1,2.4,1.4,3.3c0.4,1,0.7,1.9,0.9,2.8c2.5,4.1,6.5,7.1,11.6,8.2c9.7,2.1,19.2-4.1,21.2-13.8
		C451.2,397.9,451.3,397.3,451.4,396.7z"/>
	<circle class="st12" cx="385.1" cy="287.9" r="36.1"/>
	<path class="st11" d="M451.5,394.7c0,0.7-0.1,1.4-0.1,2.1C451.5,396,451.5,395.3,451.5,394.7z"/>
	<path class="st11" d="M438.2,389.2c0.8,2.1,2.1,3.9,3.6,5.5c-0.4-0.8-0.9-1.7-1.5-2.5C439.7,391.3,439,390.3,438.2,389.2z"/>
	<path class="st11" d="M448,420.1c2.1-9.8,3-17.5,3.4-23.3c0-0.7,0.1-1.4,0.1-2.1c-0.1-8.2-5.8-15.6-14.2-17.4
		c-9.7-2.1-19.2,4.1-21.2,13.8c-0.5,2.3-0.5,4.7-0.1,6.9c0.6,1.3,1,2.4,1.4,3.3c0.4,1,0.7,1.9,0.9,2.8c2.1,8.2-1.3,15.5-4.9,44.9
		c-4,32.8,6.7,62,6.7,62l15.4,1.3C435.6,512.4,441.8,449.6,448,420.1z"/>
	<path class="st2" d="M420.1,527.3c0,0,0.6,12.4,11.7,12.2s39.3,0.9,39.3,0.9l0.4-2.6l-33.7-10.5
		C429.5,533.1,420.1,527.3,420.1,527.3z"/>
	<path class="st13" d="M348.8,301.8c9.6,40,57.2,85.2,63.7,93.2c0,0,7.3,9.3,5.8,18.6c-1.5,9.3-2.7,19.1-2.7,19.1"/>
	<path class="st10" d="M417,89c0,0,8.6,12.3,11.4,16.4c1.8,2.6,2.5,6.7-6.2,10.7c-16.4,7.5-21.5,46.4-21.5,46.4l-11.7,0.1
		c0,0,2.1-32.8,10.7-44.5c0,0-0.2-0.5,1.4-5.6c1.6-5,6.5-3.9,6.5-3.9S414.7,98.3,417,89z"/>
	<path class="st9" d="M410.6,215.7c0,0,3.5,59.8,23,83.4c0,0-42.9,24.9-89.4-3c0,0,18.8-55.2,9.9-118c-1.2-8.4,13.9-16.7,25.4-22.2
		C414.1,139.3,410.6,215.7,410.6,215.7z"/>
	<path class="st4" d="M373.6,191.1c0,0,14.1,89.2,47.2,81.9l-39.2-87.6L373.6,191.1z"/>
	<circle class="st4" cx="387.7" cy="175.3" r="19.7"/>
	<circle class="st14" cx="421.2" cy="246.6" r="16.5"/>
	<path class="st14" d="M432.9,234.9c1,1.5,2.1,3,3.2,4.5C435.2,237.8,434.2,236.3,432.9,234.9z"/>
	<path class="st14" d="M410.9,259.5c-1.7-1.8-3.2-3.7-4.5-5.6C407.5,256.1,409,258,410.9,259.5z"/>
	<path class="st4" d="M469.9,167.7l21.9-19.7l-8-2.8c-0.7-0.3-1.5-0.1-2.1,0.5l-19.1,18.3c-0.5,0.4-0.3,1.2,0.3,1.4L469.9,167.7z"/>
	<polygon class="st15" points="482.9,147.5 492.1,150.4 475.6,167.7 465.4,163.8 	"/>
	<path class="st10" d="M496.5,146.2c-7.3,1.5-16.9,11-19.6,14.6c-2.7,3.5-3.7-0.8-4.2-5.2c-0.5-4.4-3.6-11.9-3.2-3.8
		c0.4,8.9,0.8,28.1,0.8,28.1l0,0c0,1.1,0.3,2.2,1.1,3.2c1.7,2.1,4.8,2.4,6.9,0.7c1.3-1.1,1.9-2.6,1.8-4.2l0.1,0
		c-2.2-6.5,4.3-8.2,7.2-11.3c2.9-3.1,1.5-6.2,1.2-9.4c-0.2-3.2,0.9-6.6,6.3-9.4C500.2,146.8,496.5,146.2,496.5,146.2z"/>
	<circle class="st10" cx="475.1" cy="180" r="4.9"/>
	<path class="st9" d="M415.6,231.1c-1.6,1-3.2,1.9-4.8,2.7c-3.3,2.7-5.5,6.6-6,11.1c-0.9,9.1,5.6,17.2,14.7,18.1
		c2.6,0.3,5.1-0.1,7.4-0.9c2-1.1,4-2.4,6-3.9c26.7-20.2,46.3-75.4,46.3-75.4s-6.2-2.4-7.8-5.9C471.4,176.9,435.9,219,415.6,231.1z"
		/>
	<path class="st9" d="M432.9,234.9c-2.8-4.2-5.2-8.5-6.9-12.8c-10.3-24.9-17.3-48.8-17.3-48.8c-4.8-14.1-12.8-18.5-20.9-18.5
		c-15.3,0-24.8,16.9-17.7,30.5l34.9,66.2c0.4,0.8,0.9,1.6,1.5,2.4c0,0,0,0,0,0c2.7,5.5,8.3,9.2,14.8,9.2c9.1,0,16.5-7.4,16.5-16.5
		C437.7,242.1,435.9,237.9,432.9,234.9z M429.1,232.1C429.1,232.1,429.1,232.1,429.1,232.1C429.1,232.1,429.1,232.1,429.1,232.1z
		 M405.7,252.1c0,0,0,0.1,0,0.1C405.7,252.2,405.7,252.2,405.7,252.1z M405.1,250.3c0,0.1,0.1,0.2,0.1,0.3
		C405.2,250.5,405.2,250.4,405.1,250.3z M404.9,248.9c0-0.1,0-0.3-0.1-0.4C404.8,248.6,404.9,248.7,404.9,248.9z"/>
	<path class="st16" d="M406.9,80.3c-13.4-0.7-34.8,10.2-34.8,27.5s4.4,31.2-13.8,34.6c-18.2,3.4-41.3,3.7-49.7,16.6
		c-8.4,12.8-9.3,22.7-27.6,27.3c-18.4,4.5-53,16.1-47.8,42.1c2.1,8.4,22.3,0.8,27.3,8.1c5,7.3,14.8,35.9,52,35.9
		s48.9-36.1,50.8-44.3c1.9-8.3,6.8-49.4,10.2-51.8c3.4-2.3,24.6-12.8,25.3-22c0.4-5.2-4-20.2,3.4-30.7
		C410.8,111.4,428.2,81.3,406.9,80.3z"/>
	<path class="st6" d="M421.2,95l4.8,6.9c1.3-0.8,2.1-1.4,2.9-2.1c0.8-0.7,0.6-2-0.4-2.3L421.2,95z"/>
</g>
</svg>
