<?xml version="1.0" encoding="utf-8"?>
<!-- Generator: Adobe Illustrator 22.1.0, SVG Export Plug-In . SVG Version: 6.00 Build 0)  -->
<svg version="1.1" id="Capa_1" xmlns="http://www.w3.org/2000/svg" xmlns:xlink="http://www.w3.org/1999/xlink" x="0px" y="0px"
	 viewBox="0 0 26.1 25.5" style="enable-background:new 0 0 26.1 25.5;" xml:space="preserve">
<style type="text/css">
	.st0{fill:#F4B245;}
</style>
<g>
	<path class="st0" d="M13,17.4c2.5,0,4.6-2.1,4.6-4.6S15.6,8.1,13,8.1s-4.6,2.1-4.6,4.6S10.5,17.4,13,17.4z M13,10.1
		c1.5,0,2.6,1.2,2.6,2.6s-1.2,2.6-2.6,2.6s-2.6-1.2-2.6-2.6S11.6,10.1,13,10.1z"/>
	<path class="st0" d="M0.1,15.3C0,15.8,0,16.2,0.2,16.6L3.3,22c0.5,0.8,1.5,1.1,2.3,0.6l2.2-1.2c0.2,0.1,0.5,0.3,0.8,0.4v2.1
		c0,0.9,0.8,1.7,1.7,1.7h5.9c0.9,0,1.7-0.8,1.7-1.7v-2.2c0.2-0.1,0.4-0.2,0.5-0.3l2.1,1.2c0.8,0.5,1.8,0.2,2.3-0.6l3.2-5.3
		c0.2-0.4,0.3-0.8,0.2-1.3c-0.1-0.4-0.4-0.8-0.8-1l-2.1-1.2c0-0.2,0-0.3,0-0.5c0-0.1,0-0.2,0-0.3l2.1-1.2c0.4-0.2,0.7-0.6,0.8-1l0,0
		c0.1-0.4,0.1-0.9-0.2-1.3l-3.1-5.4c-0.5-0.8-1.5-1.1-2.3-0.6l-2.1,1.2c-0.2-0.1-0.4-0.2-0.6-0.4V1.7C17.7,0.7,17,0,16.1,0h-5.9
		C9.3,0,8.5,0.8,8.5,1.7v2.1C8.3,3.9,8.1,4,7.9,4.1L5.7,2.9C5,2.4,4,2.7,3.5,3.5L0.3,8.8C0.1,9.2,0,9.6,0.1,10.1
		c0.1,0.4,0.4,0.8,0.8,1l2.1,1.2c0,0.2,0,0.3,0,0.5c0,0.1,0,0.2,0,0.3l-2.1,1.2C0.4,14.5,0.2,14.9,0.1,15.3z M5,14.2l-0.1-0.6
		c0-0.3,0-0.5,0-0.8c0-0.3,0-0.6,0.1-0.9L5,11.3L2.1,9.6L5,4.8L8,6.5l0.5-0.4c0.4-0.3,0.8-0.5,1.3-0.7l0.7-0.2V2h5.2v3.1l0.6,0.3
		c0.5,0.2,1,0.5,1.4,0.8l0.5,0.4l2.9-1.7L24,9.7l-2.9,1.7l0.1,0.6c0,0.3,0,0.5,0,0.8c0,0.3,0,0.6-0.1,0.9L21,14.3l2.9,1.7l-2.8,4.8
		l-2.9-1.7l-0.5,0.3c-0.4,0.3-0.9,0.5-1.3,0.7l-0.6,0.3v3.1h-5.3v-3.1l-0.7-0.2c-0.6-0.2-1-0.5-1.4-0.8L7.9,19l-3,1.7l-2.8-4.8
		L5,14.2z"/>
</g>
</svg>
