<svg xmlns="http://www.w3.org/2000/svg" xmlns:xlink="http://www.w3.org/1999/xlink" width="48.08" height="42.884" viewBox="0 0 48.08 42.884">
  <defs>
    <linearGradient id="linear-gradient" x1="-0.563" y1="1.911" x2="1.179" y2="-0.141" gradientUnits="objectBoundingBox">
      <stop offset="0" stop-color="#3cffa5"/>
      <stop offset="1" stop-color="#6953ff"/>
    </linearGradient>
  </defs>
  <g id="Grupo_373" data-name="Grupo 373" transform="translate(-231 -1345)">
    <g id="Símbolo_14_4" data-name="Símbolo 14 – 4" transform="translate(-18.907 -707)">
      <path id="Trazado_976" data-name="Trazado 976" d="M546.5,3244.667h19.4a4.648,4.648,0,0,1,4.023,2.323l9.7,16.8a4.646,4.646,0,0,1,0,4.646l-9.7,16.8a4.648,4.648,0,0,1-4.023,2.323H546.5a4.648,4.648,0,0,1-4.023-2.323l-9.7-16.8a4.647,4.647,0,0,1,0-4.646l9.7-16.8A4.648,4.648,0,0,1,546.5,3244.667Z" transform="translate(-282.246 -1192.667)" fill="url(#linear-gradient)"/>
    </g>
    <g id="book" transform="translate(242.002 1352.566)">
      <path id="Trazado_1113" data-name="Trazado 1113" d="M25.491,239.391a1.715,1.715,0,0,0-2.437,0L18,244.437l-.01.009a1.723,1.723,0,0,0-1.555-2.465H7.39a.43.43,0,0,0-.3.126l-1.5,1.5L4.532,241.77a.431.431,0,0,0-.588-.158l-3.73,2.154a.431.431,0,0,0-.158.588l4.308,7.461a.431.431,0,0,0,.589.158l3.73-2.154a.431.431,0,0,0,.158-.588l-.7-1.219H18.413a2.169,2.169,0,0,0,1.524-.63l5.552-5.557a1.71,1.71,0,0,0,0-2.435Zm-20.6,11.621L1.017,244.3,4,242.574l3.877,6.715Zm19.985-9.8-5.552,5.557a1.3,1.3,0,0,1-.913.378H7.639l-.177-.307-1.425-2.469,1.531-1.531h8.868a.862.862,0,1,1,0,1.723H11.7v.862h6a1.286,1.286,0,0,0,.916-.38L23.664,240a.873.873,0,0,1,1.217,0,.849.849,0,0,1,0,1.217Zm0,0" transform="translate(0 -225.61)" fill="#fff"/>
      <path id="Trazado_1114" data-name="Trazado 1114" d="M123.435,15.079h9.477a.431.431,0,0,0,.431-.431V.864a.431.431,0,0,0-.431-.431h-9.477a2.156,2.156,0,0,0-2.154,2.154V12.926a2.152,2.152,0,0,0,2.154,2.154Zm0-.862a1.292,1.292,0,1,1,0-2.585h9.046v.862h-9.046v.862h9.046v.862Zm9.046-3.446h-8.615V1.3h8.615ZM122.143,2.587A1.292,1.292,0,0,1,123,1.374v9.44c-.031.007-.059.02-.089.027a2.173,2.173,0,0,0-.258.08c-.043.017-.083.035-.125.054a2.174,2.174,0,0,0-.228.124c-.036.023-.073.043-.107.069-.018.012-.037.021-.054.034Zm0,0" transform="translate(-114.753)" fill="#fff"/>
    </g>
  </g>
</svg>
