<svg xmlns="http://www.w3.org/2000/svg" xmlns:xlink="http://www.w3.org/1999/xlink" width="48.08" height="42.884" viewBox="0 0 48.08 42.884">
  <defs>
    <linearGradient id="linear-gradient" x1="0.789" x2="0" y2="1.618" gradientUnits="objectBoundingBox">
      <stop offset="0" stop-color="#8916db"/>
      <stop offset="0.433" stop-color="#6e45ce"/>
      <stop offset="1" stop-color="#0082e1"/>
    </linearGradient>
  </defs>
  <g id="Grupo_372" data-name="Grupo 372" transform="translate(-231 -1179)">
    <g id="Grupo_201" data-name="Grupo 201" transform="translate(0 -896)">
      <path id="Trazado_976" data-name="Trazado 976" d="M546.5,3244.667h19.4a4.648,4.648,0,0,1,4.023,2.323l9.7,16.8a4.646,4.646,0,0,1,0,4.646l-9.7,16.8a4.648,4.648,0,0,1-4.023,2.323H546.5a4.648,4.648,0,0,1-4.023-2.323l-9.7-16.8a4.647,4.647,0,0,1,0-4.646l9.7-16.8A4.648,4.648,0,0,1,546.5,3244.667Z" transform="translate(-301.153 -1169.667)" fill="url(#linear-gradient)"/>
    </g>
    <g id="develop" transform="translate(242.982 1188.979)">
      <g id="Grupo_257" data-name="Grupo 257" transform="translate(0 0.001)">
        <g id="Grupo_256" data-name="Grupo 256" transform="translate(0 0)">
          <path id="Trazado_1128" data-name="Trazado 1128" d="M22.552,13.9a5.791,5.791,0,0,1-.5-1.241,4.259,4.259,0,0,0-.543-4.048,8.438,8.438,0,0,0-6.574-3.488,8.076,8.076,0,0,0-2.4.364h-.223q-.085-.237-.193-.465L13.4,3.733a.45.45,0,0,0,0-.637l-1.92-1.92a.45.45,0,0,0-.637,0L9.563,2.46q-.228-.107-.465-.193V.451A.45.45,0,0,0,8.648,0H5.932a.45.45,0,0,0-.45.45V2.267q-.237.085-.466.193L3.732,1.176a.45.45,0,0,0-.637,0L1.175,3.1a.45.45,0,0,0,0,.637L2.459,5.017q-.108.228-.193.465H.45a.45.45,0,0,0-.45.45V8.649a.45.45,0,0,0,.45.45H2.266q.085.237.193.466L1.175,10.849a.45.45,0,0,0,0,.637l1.92,1.92a.45.45,0,0,0,.637,0l1.284-1.284q.228.107.466.193V14.13a.45.45,0,0,0,.45.45H6.977A8.059,8.059,0,0,0,9.639,19.3a1.776,1.776,0,0,1-.123.875c-.139.485-.353,1.023-.542,1.5-.126.318-.235.593-.3.8a.45.45,0,0,0,.429.587H15.53a.731.731,0,0,0,.684-.545,4.4,4.4,0,0,0,.186-.682c.054-.243.179-.813.3-.882a.088.088,0,0,1,.025,0,.449.449,0,0,0,.07.005c.673,0,1.223.031,1.709.057,1.423.079,2.283.127,3.037-.959a3.627,3.627,0,0,0,.294-2.21,8.041,8.041,0,0,1,0-1.27,3.929,3.929,0,0,1,.4-.3c.424-.292.825-.567.825-.985A3.952,3.952,0,0,0,22.552,13.9ZM6.382,13.68V11.987a.45.45,0,0,0-.326-.433,4.407,4.407,0,0,1-.91-.377.45.45,0,0,0-.536.076l-1.2,1.2L2.13,11.167l1.2-1.2A.45.45,0,0,0,3.4,9.434a4.419,4.419,0,0,1-.377-.91A.45.45,0,0,0,2.593,8.2H.9V6.383H2.593a.45.45,0,0,0,.433-.325,4.416,4.416,0,0,1,.377-.91.45.45,0,0,0-.076-.536l-1.2-1.2L3.414,2.131l1.2,1.2a.45.45,0,0,0,.536.076,4.414,4.414,0,0,1,.91-.377.45.45,0,0,0,.326-.433V.9H8.2V2.594a.45.45,0,0,0,.326.433,4.411,4.411,0,0,1,.91.377.45.45,0,0,0,.536-.076l1.2-1.2,1.283,1.283-1.2,1.2a.45.45,0,0,0-.076.536,4.413,4.413,0,0,1,.377.91.45.45,0,0,0,.433.326h1.693V8.2H11.986a.45.45,0,0,0-.433.325,4.413,4.413,0,0,1-.377.91.45.45,0,0,0,.076.536l1.2,1.2L11.166,12.45l-1.2-1.2a.45.45,0,0,0-.536-.076,4.408,4.408,0,0,1-.91.377.45.45,0,0,0-.326.433V13.68H6.382Zm15.34,1.855c-.388.266-.722.5-.772.844a8.02,8.02,0,0,0-.012,1.514,3.389,3.389,0,0,1-.134,1.648c-.448.645-.836.652-2.247.573-.466-.026-1.043-.058-1.728-.059a.96.96,0,0,0-1.005.6,4.183,4.183,0,0,0-.3.987,4.778,4.778,0,0,1-.134.52H9.75L9.811,22c.649-1.633,1.059-2.831.434-3.372a7.161,7.161,0,0,1-2.353-4.051h.755a.45.45,0,0,0,.45-.45V12.314q.237-.085.466-.193l1.284,1.284a.45.45,0,0,0,.637,0l1.92-1.92a.45.45,0,0,0,0-.637L12.121,9.564q.107-.228.193-.466H14.13a.45.45,0,0,0,.45-.45V6.028c.119-.006.239-.009.359-.009a7.584,7.584,0,0,1,5.825,3.087,3.38,3.38,0,0,1,.447,3.234c-.177.425.085,1.016.527,1.943a8.133,8.133,0,0,1,.405.938A4.275,4.275,0,0,1,21.723,15.535Z" transform="translate(0 -0.001)" fill="#fff" stroke="#fff" stroke-width="0.3"/>
        </g>
      </g>
      <g id="Grupo_263" data-name="Grupo 263" transform="translate(5.551 5.552)">
        <g id="Grupo_262" data-name="Grupo 262">
          <path id="Trazado_1131" data-name="Trazado 1131" d="M125,123.262A1.739,1.739,0,1,0,126.741,125,1.741,1.741,0,0,0,125,123.262Zm0,2.577a.838.838,0,1,1,.838-.838A.839.839,0,0,1,125,125.839Z" transform="translate(-123.264 -123.262)" fill="#fff" stroke="#fff" stroke-width="0.3"/>
        </g>
      </g>
    </g>
  </g>
</svg>
