<svg xmlns="http://www.w3.org/2000/svg" width="43.661" height="49.683" viewBox="0 0 43.661 49.683">
  <g id="Símbolo_12_3" data-name="Símbolo 12 – 3" transform="translate(-175.496 -1769)">
    <g id="Grupo_67" data-name="Grupo 67" transform="translate(-48.063 276)">
      <path id="Trazado_812" data-name="Trazado 812" d="M263.456,1498.822l3.336-3.337a1.455,1.455,0,0,0-1.029-2.484H251.21a1.455,1.455,0,0,0-1.455,1.455v10.188h-8.061a5.821,5.821,0,1,0-10.077,0h-.783a7.285,7.285,0,0,0-7.277,7.277v8.829a4.365,4.365,0,0,0,5.222,4.281l-2.165,12.159a4.364,4.364,0,1,0,8.449,2.184l1.592-8.686,1.591,8.686c.009.047.02.093.033.138a4.366,4.366,0,0,0,8.417-2.322l-2.765-15.521v-8.294h5.822v27.847a1.455,1.455,0,1,0,2.91,0v-28.1a4.365,4.365,0,0,0,0-8.232v-.25h13.1a1.456,1.456,0,0,0,1.029-2.485Zm-26.8,0a2.911,2.911,0,1,1-2.911,2.91A2.914,2.914,0,0,1,236.657,1498.822Zm16.009,10.187a1.457,1.457,0,0,1-1.455,1.456h-8.732a1.455,1.455,0,0,0-1.455,1.455v9.877a1.4,1.4,0,0,0,.022.255c2.961,16.627,2.8,15.752,2.832,15.859a1.455,1.455,0,0,1-2.781.857l-3.007-16.417a1.456,1.456,0,0,0-2.864,0l-3.007,16.417a1.455,1.455,0,0,1-2.781-.857c.031-.107-.136.806,2.832-15.859a1.4,1.4,0,0,0,.022-.255v-9.877a1.455,1.455,0,1,0-2.91,0v8.829a1.455,1.455,0,0,1-2.91,0v-8.829a4.371,4.371,0,0,1,4.365-4.367H251.21A1.457,1.457,0,0,1,252.665,1509.009Zm0-7.277v-5.822h9.585l-1.882,1.883a1.457,1.457,0,0,0,0,2.058l1.882,1.881Z" transform="translate(0)" fill="#5e61dc"/>
    </g>
  </g>
</svg>
