<svg xmlns="http://www.w3.org/2000/svg" xmlns:xlink="http://www.w3.org/1999/xlink" width="48.08" height="42.884" viewBox="0 0 48.08 42.884">
  <defs>
    <linearGradient id="linear-gradient" y1="1.308" x2="0.923" y2="-0.184" gradientUnits="objectBoundingBox">
      <stop offset="0" stop-color="#007769"/>
      <stop offset="1" stop-color="#0089ff"/>
    </linearGradient>
  </defs>
  <g id="Grupo_370" data-name="Grupo 370" transform="translate(-231 -885)">
    <g id="Grupo_198" data-name="Grupo 198" transform="translate(0 -711)">
      <path id="Trazado_984" data-name="Trazado 984" d="M546.5,3244.667h19.4a4.648,4.648,0,0,1,4.023,2.323l9.7,16.8a4.646,4.646,0,0,1,0,4.646l-9.7,16.8a4.648,4.648,0,0,1-4.023,2.323H546.5a4.648,4.648,0,0,1-4.023-2.323l-9.7-16.8a4.647,4.647,0,0,1,0-4.646l9.7-16.8A4.648,4.648,0,0,1,546.5,3244.667Z" transform="translate(-301.153 -1648.667)" fill="url(#linear-gradient)"/>
    </g>
    <g id="check" transform="translate(243.461 884.389)">
      <g id="Grupo_267" data-name="Grupo 267" transform="translate(0 11.206)">
        <g id="Grupo_266" data-name="Grupo 266" transform="translate(0 0)">
          <path id="Trazado_1133" data-name="Trazado 1133" d="M21.5,20.531a.948.948,0,0,0-.948.948v.955a9.327,9.327,0,0,1-9.327,9.321h-.006A9.327,9.327,0,0,1,11.223,13.1h.006a9.269,9.269,0,0,1,3.791.807.948.948,0,1,0,.772-1.732,11.152,11.152,0,0,0-4.562-.972h-.007a11.223,11.223,0,0,0-.006,22.447h.007A11.223,11.223,0,0,0,22.447,22.435V21.48A.948.948,0,0,0,21.5,20.531Z" transform="translate(0 -11.206)" fill="#fff"/>
        </g>
      </g>
      <g id="Grupo_269" data-name="Grupo 269" transform="translate(7.193 12.239)">
        <g id="Grupo_268" data-name="Grupo 268" transform="translate(0 0)">
          <path id="Trazado_1134" data-name="Trazado 1134" d="M172.883,34.024a.948.948,0,0,0-1.341,0L160.91,44.656,158.5,42.244a.948.948,0,1,0-1.341,1.341l3.083,3.083a.948.948,0,0,0,1.341,0l11.3-11.3A.948.948,0,0,0,172.883,34.024Z" transform="translate(-156.879 -33.746)" fill="#fff"/>
        </g>
      </g>
    </g>
  </g>
</svg>
