<?xml version="1.0" standalone="no"?>
<!DOCTYPE svg PUBLIC "-//W3C//DTD SVG 1.1//EN" "http://www.w3.org/Graphics/SVG/1.1/DTD/svg11.dtd" >
<svg xmlns="http://www.w3.org/2000/svg">
<metadata></metadata>
<defs>
<font id="queen_of_camelotregular" horiz-adv-x="80" >
<font-face units-per-em="2048" ascent="1638" descent="-410" />
<missing-glyph horiz-adv-x="440" />
<glyph horiz-adv-x="0" />
<glyph unicode="&#xd;" horiz-adv-x="508" />
<glyph unicode=" "  horiz-adv-x="440" />
<glyph unicode="&#x09;" horiz-adv-x="440" />
<glyph unicode="&#xa0;" horiz-adv-x="440" />
<glyph unicode="!" horiz-adv-x="434" d="M0 158q0 73 52 125t125 52t125 -52t52 -125q0 -74 -52 -125.5t-125 -51.5t-125 51.5t-52 125.5zM16 401v999h318v-999h-318z" />
<glyph unicode="&#x22;" horiz-adv-x="708" d="M0 1700v178h254v-178l-38 -197h-172zM374 1700v178h254v-178l-38 -197h-172z" />
<glyph unicode="#" horiz-adv-x="1177" d="M0 365v220h180l60 295h-240v221h285l79 390h224l-79 -390h221l77 390h232l-80 -390h138v-221h-183l-60 -295h243v-220h-288l-79 -390h-223l77 390h-222l-79 -390h-226l79 390h-136zM406 585h222l58 295h-221z" />
<glyph unicode="$" horiz-adv-x="1207" d="M75 813l9 -17l4 -7l3 -6q9 -17 18 -27l5 -6l6 -9l43 -45q12 -9 18 -15l9 -6l3 -3l9 -6l6 -5l12 -7l12 -8l5 -2q10 -7 19 -10l31 -15l12 -5q14 -7 24 -9l12 -4l20 -8l7 -1l29 -9l6 -2l7 -1l6 -3q11 -2 17 -5h4l12 -4q10 -2 18 -5q4 0 6 -1q12 -2 19 -5l12 -3q18 -3 30 -7 q3 0 11 -2l36 -10h4l12 -3l3 -2q17 -3 27 -7q9 -2 15 -5h5l6 -3h4l6 -3l24 -7l10 -5q17 -6 27 -12q54 -30 42 -84q-25 -49 -72 -66l-13 -4q-9 -2 -15 -5h-4q-15 -4 -27 -6h-5q-10 -3 -19 -3l-17 -1l-114 1q-4 -9 -13 -6h-371v-311l16 -1l509 1l5 2h16q15 3 27 3l6 1l12 2 l6 1l12 2l6 1l6 2h6l9 3l6 1l16 5q5 0 6 1l11 3l78 30q7 5 12 6q20 11 26 15l42 29l3 3l8 4l55 54q138 182 81 380v5l-10 28q-5 8 -9 18l-5 12l-3 3q-4 12 -12 21l-1 5q-9 11 -14 20q-7 7 -10 12q-5 7 -12 15l-27 27l-6 4l-8 8q-13 9 -21 16l-6 3l-18 14l-13 7l-17 9l-3 3 q-20 9 -32 17l-33 13l-6 2l-54 18l-12 4l-11 3q-4 0 -6 2l-7 1q-12 5 -30 9l-6 2l-17 3l-4 1q-15 5 -25 6l-23 6l-6 2l-6 1q-16 3 -25 6q-3 0 -7 1t-5 2l-15 3l-6 2l-6 1l-85 24l-6 2l-23 9l-10 4l-15 6q-12 6 -18 14q-15 28 -3 55q28 36 67 47q5 0 6 1l16 3l11 2q19 3 45 4 l515 2l1 4v286q2 12 -1 22h-461q-15 -1 -27 2h-51q-268 -14 -395 -207q-99 -181 -24 -353zM407 -81h296v333h-296v-333zM407 1170h296v326h-296v-326z" />
<glyph unicode="%" horiz-adv-x="1372" d="M0 1077q0 113 79.5 192.5t191.5 79.5q113 0 192.5 -79.5t79.5 -192.5q0 -112 -79.5 -191.5t-192.5 -79.5q-112 0 -191.5 79.5t-79.5 191.5zM163 1077q0 -45 31.5 -76.5t76.5 -31.5q46 0 77.5 31.5t31.5 76.5t-31.5 77t-77.5 32q-45 0 -76.5 -32t-31.5 -77zM259 253 l550 1090h213l-546 -1090h-217zM749 524q0 113 79.5 192.5t191.5 79.5q113 0 192.5 -79.5t79.5 -192.5q0 -112 -79.5 -191.5t-192.5 -79.5q-112 0 -191.5 79.5t-79.5 191.5zM912 524q0 -45 31.5 -76.5t76.5 -31.5q46 0 77.5 31.5t31.5 76.5t-31.5 77t-77.5 32 q-45 0 -76.5 -32t-31.5 -77z" />
<glyph unicode="&#x26;" horiz-adv-x="1383" d="M0 369q0 257 252 397v6q-106 121 -106 268q0 144 104 248q118 117 313 117q163 0 267 -87q106 -90 106 -237q0 -219 -272 -354l-2 -8l235 -277q46 51 69 131l215 -124q-19 -69 -122 -177q130 -150 244 -272h-363l-90 98q-156 -121 -379 -121q-224 0 -356 123 q-115 108 -115 269zM284 426q0 -91 58 -152q61 -63 160 -63q106 0 181 56q-48 56 -298 350q-101 -80 -101 -191zM437 1066q0 -86 83 -172q129 87 129 175q0 47 -25 80q-29 38 -77 38h-4q-49 0 -79 -37q-27 -35 -27 -84z" />
<glyph unicode="'" horiz-adv-x="439" d="M0 1647q0 74 51.5 126.5t124.5 52.5t125 -52.5t52 -126.5q6 -123 -72 -193t-160 -93l-50 81q46 12 77 29q-55 8 -96 50q-52 52 -52 126z" />
<glyph unicode="(" horiz-adv-x="639" d="M0 648q0 289 99 547q86 224 218 413h242q-137 -303 -188.5 -515.5t-51.5 -450.5q0 -164 30.5 -336t83.5 -327q35 -102 123 -293h-243q-153 231 -233 480t-80 482z" />
<glyph unicode=")" horiz-adv-x="639" d="M0 1608h242q132 -189 218 -413q99 -258 99 -547q0 -233 -80 -482t-233 -480h-243q88 191 123 293q53 155 83.5 327t30.5 336q0 238 -51.5 450.5t-188.5 515.5z" />
<glyph unicode="*" horiz-adv-x="805" d="M0 1411l59 176q131 -53 234 -117q-24 163 -24 266h178q0 -73 -27 -268q20 8 86 39q90 41 166 70l53 -181q-111 -25 -257 -49l120 -135q36 -41 57 -67l-153 -101l-135 223q-61 -108 -140 -230l-151 117q72 81 150 155q31 30 39 38q-25 4 -143 33q-85 21 -112 31z" />
<glyph unicode="+" horiz-adv-x="1105" d="M0 655v263h384v381h256v-381h385v-263h-385v-381h-256v381h-384z" />
<glyph unicode="," horiz-adv-x="439" d="M0 156q0 74 51.5 126.5t124.5 52.5t125 -52.5t52 -126.5q6 -123 -72 -193t-160 -93l-50 81q46 12 77 29q-55 8 -96 50q-52 52 -52 126z" />
<glyph unicode="-" horiz-adv-x="859" d="M80 658v259h699v-259h-699z" />
<glyph unicode="." horiz-adv-x="433" d="M0 159q0 74 51.5 126.5t125.5 52.5q73 0 124.5 -52.5t51.5 -126.5t-51.5 -126t-124.5 -52q-74 0 -125.5 52t-51.5 126z" />
<glyph unicode="/" horiz-adv-x="783" d="M0 -262l444 1856h259l-450 -1856h-253z" />
<glyph unicode="0" horiz-adv-x="1445" d="M0 663q0 210 64 353q48 105 131 188.5t182 124.5q132 54 304 54q311 0 497.5 -189t186.5 -524q0 -334 -185 -522t-495 -188q-315 0 -500 187t-185 516zM312 658q0 -217 103 -329.5t261 -112.5q159 0 260.5 111.5t101.5 334.5q0 219 -99 328t-263 109t-264 -110t-100 -331 z" />
<glyph unicode="1" horiz-adv-x="545" d="M0 1099q134 25 170 -121v-978h295v1067q0 136 -98 224q-123 111 -367 107v-299zM224 5z" />
<glyph unicode="2" horiz-adv-x="1138" d="M0 -8q2 211 2 353q0 126 51 225q59 110 168 156l510 251q60 44 57 62q-6 29 -19.5 40.5t-37.5 11.5h-725v309h784q124 0 200 -104q68 -94 68 -233q0 -119 -53 -216q-59 -105 -165 -148l-446 -219q-127 -56 -114 -186h725v-300h-763z" />
<glyph unicode="3" horiz-adv-x="1148" d="M0 3v289h675q46 0 74 40q25 35 25 86q0 50 -24 83q-28 38 -75 38h-606v306h606q47 0 75 38q24 34 24 83q0 51 -24 87q-28 39 -75 39h-675v290h722q160 0 258 -136q88 -121 88 -292q0 -75 -20 -143t-60 -119q37 -52 56.5 -122.5t19.5 -144.5q0 -169 -86 -289 q-95 -133 -256 -133h-722z" />
<glyph unicode="4" horiz-adv-x="1178" d="M0 547q0 55 15.5 106.5t49.5 102.5l283 425q61 91 158 140q90 45 189 45h403v-243v-1113h-290v233h-516q-130 0 -213 91q-79 87 -79 213zM337 610q0 -30 22 -52t61 -22h388v537h-113q-32 0 -63.5 -21.5t-55.5 -57.5l-228 -346q-11 -17 -11 -38z" />
<glyph unicode="5" horiz-adv-x="1142" d="M0 1025q0 -123 52 -219q58 -107 169 -152l512 -244q60 -43 57 -61q-6 -28 -19.5 -39t-37.5 -11h-728v-301h787q125 0 201 101q69 92 69 227q0 116 -54 210q-58 102 -166 144l-448 213q-126 55 -114 201h729v272h-767l-242 -1v-340z" />
<glyph unicode="6" horiz-adv-x="1289" d="M11 501q6 162 66 269q16 27 35 53l313 531l333 1l-196 -320q31 1 63 0q272 -8 428 -158t146 -406t-177 -395t-437 -131q-274 9 -429.5 157t-144.5 399zM334 499q-6 -131 68.5 -201.5t192.5 -73.5q120 -3 199.5 62.5t85.5 199.5q6 133 -65.5 200.5t-195.5 71.5 q-123 3 -201 -61t-84 -198z" />
<glyph unicode="7" horiz-adv-x="1083" d="M0 0h334l630 1173q39 74 -4 145q-43 72 -126 72h-826v-295h580zM443 5z" />
<glyph unicode="8" horiz-adv-x="1121" d="M0 388q0 115 63.5 210.5t201.5 147.5q-118 44 -171 121.5t-53 170.5q0 158 123.5 261t351.5 103q225 0 350 -103t125 -261q0 -98 -57.5 -174.5t-161.5 -117.5q132 -47 200.5 -137.5t68.5 -208.5q0 -196 -140 -318t-371 -122q-216 0 -360 101q-170 119 -170 327zM300 414 q0 -112 64 -174.5t160 -62.5q94 0 155.5 60.5t61.5 173.5q0 99 -62.5 159.5t-158.5 60.5q-111 0 -165.5 -68.5t-54.5 -148.5zM328 1019q0 -81 51 -126.5t137 -45.5t138 46t52 127q0 76 -51.5 121.5t-135.5 45.5q-88 0 -139.5 -46t-51.5 -122z" />
<glyph unicode="9" horiz-adv-x="1289" d="M11 884q9 256 176 395t438 131q273 -9 428.5 -157t145.5 -399q-6 -162 -66 -269q-16 -28 -36 -53l-313 -531l-332 -1l196 320q-31 -1 -64 0q-271 8 -427.5 158t-145.5 406zM329 869q-6 -133 66 -200.5t195 -71.5q123 -3 201 61t85 198q6 131 -69 201.5t-193 73.5 q-120 3 -199 -62.5t-86 -199.5z" />
<glyph unicode=":" horiz-adv-x="368" d="M0 417q0 74 51.5 126.5t125.5 52.5q73 0 124.5 -52.5t51.5 -126.5t-51.5 -126t-124.5 -52q-74 0 -125.5 52t-51.5 126zM0 1077q0 74 51.5 126.5t125.5 52.5q73 0 124.5 -52.5t51.5 -126.5t-51.5 -126t-124.5 -52q-74 0 -125.5 52t-51.5 126z" />
<glyph unicode=";" horiz-adv-x="374" d="M0 418q0 74 51.5 126.5t124.5 52.5t125 -52.5t52 -126.5q6 -123 -72 -193t-160 -93l-50 81q47 12 77 29q-55 8 -96 50q-52 52 -52 126zM0 1077q0 74 51.5 126.5t125.5 52.5q73 0 124.5 -52.5t51.5 -126.5t-51.5 -126t-124.5 -52q-74 0 -125.5 52t-51.5 126z" />
<glyph unicode="&#x3c;" horiz-adv-x="1085" d="M0 604v242l1005 435v-285l-701 -268l701 -278v-283z" />
<glyph unicode="=" horiz-adv-x="1105" d="M0 411v259h1025v-259h-1025zM0 855v258h1025v-258h-1025z" />
<glyph unicode="&#x3e;" horiz-adv-x="1086" d="M0 166v283l702 276l-702 273v281l1006 -435v-240z" />
<glyph unicode="?" horiz-adv-x="947" d="M0 158q0 73 52 125t125 52t125 -52t52 -125q0 -74 -52 -125.5t-125 -51.5t-125 51.5t-52 125.5zM28 433v440l434 2q52 0 82 37q26 33 26 82t-26 84q-30 39 -82 39h-434v283h485q177 0 281 -127q94 -115 94 -280q0 -167 -93 -281q-104 -127 -282 -127h-34q-30 -2 -145 2 l-2 -154h-304z" />
<glyph unicode="@" horiz-adv-x="1593" d="M82 658q0 323 211 548q219 233 557 233q273 0 451 -169q177 -170 177 -432q0 -223 -115 -364q-113 -138 -291 -138q-134 0 -191 105q-112 -105 -237 -105q-111 0 -183 79q-71 81 -71 212q0 201 134 342q141 149 361 149q151 0 272 -62l-63 -389q-23 -130 16 -130 q51 -3 96 63q58 85 58 233q0 185 -111 299q-116 120 -323 120q-220 0 -369 -154q-158 -162 -158 -422q0 -227 129 -356q126 -122 336 -122q156 0 306 74l57 -179q-192 -86 -403 -86q-267 0 -451 174q-195 184 -195 477zM657 651q0 -88 63 -88q39 0 78 48q43 53 55 129 l23 155q-103 -1 -160 -70q-59 -72 -59 -174z" />
<glyph unicode="A" horiz-adv-x="1404" d="M0 0l461 1253q39 77 88.5 111.5t113.5 34.5q65 0 114.5 -36.5t88.5 -109.5l458 -1253h-310l-111 307h-479l-112 -307h-312zM513 546h301l-149 413z" />
<glyph unicode="B" horiz-adv-x="1097" d="M0 0h698l13 2l18 5l13 2q44 10 72 23q119 71 146 188q10 37 11 76q0 177 -212 385q7 31 117 197q84 127 84 250q0 40 -8 78q-34 162 -252 192h-700v-1398zM319 308v793l262 -1h10q67 0 66 -47q0 -21 -13 -51l-215 -264q-32 -35 -32 -67q0 -9 3 -19q14 -40 150 -170 q138 -131 139 -150q0 -17 -33 -24h-337z" />
<glyph unicode="C" horiz-adv-x="1065" d="M19 782q46 415 414 584l52 16l12 4h6l24 7q13 0 27 4q9 -4 26 3h394v-302h-303q-148 -10 -253 -129q-91 -123 -91 -264q0 -97 43 -201q110 -209 339 -209q30 0 62 4h214l-11 6v-305h-306q-16 -1 -31 -1q-252 0 -447 213q-173 207 -173 509q0 30 2 61z" />
<glyph unicode="D" horiz-adv-x="1259" d="M0 0h315h187q309 0 493 185q184 184 184 512q0 330 -186 515q-185 186 -495 186h-277v-1h-221v-1397zM315 304v797h178q163 0 262 -98q98 -98 98 -297q0 -200 -100 -301q-101 -101 -260 -101h-58h-120z" />
<glyph unicode="E" horiz-adv-x="931" d="M13 275v882q18 243 297 243h18h523v-301h-514v-257h415v-302h-415v-238h514v-300h-523q-22 -1 -42 -1q-273 0 -273 252v22z" />
<glyph unicode="F" horiz-adv-x="918" d="M0 0v1157q18 243 297 243h18h523v-301h-514v-257h415v-302h-415v-540h-324z" />
<glyph unicode="G" horiz-adv-x="1065" d="M19 782q46 415 414 584l52 16l12 4h6l24 7q13 0 27 4q9 -4 26 3h394v-302h-303q-148 -10 -253 -129q-91 -123 -91 -264q0 -96 43 -201q110 -209 339 -209q30 0 62 4h214l-11 6v-305h-306q-16 -1 -31 -1q-252 0 -447 213q-173 207 -173 509q0 30 2 61zM705 5v595h268v-595 h-268z" />
<glyph unicode="H" horiz-adv-x="1190" d="M0 0v1400h308v-558h494v558h308v-1400h-308v581h-494v-581h-308z" />
<glyph unicode="I" horiz-adv-x="397" d="M0 -5v1402h317v-1402h-317z" />
<glyph unicode="J" horiz-adv-x="814" d="M0 4l160 -2q176 0 285.5 44.5t174.5 118.5t89.5 182.5t24.5 369.5v683h-300v-691q0 -173 -13 -239t-78 -117t-192 -51l-151 -1v-297z" />
<glyph unicode="K" horiz-adv-x="1343" d="M0 0v1400h314v-1400h-314zM385 705q0 -50 30 -90l466 -612h370l-533 700l545 697h-374l-473 -604q-31 -40 -31 -91z" />
<glyph unicode="L" horiz-adv-x="814" d="M0 717q0 -261 24.5 -369.5t89.5 -182.5t174.5 -118.5t285.5 -44.5l160 2v297l-151 1q-128 0 -192.5 51t-77.5 117t-13 239v691h-300v-683z" />
<glyph unicode="M" horiz-adv-x="1562" d="M0 -2v1399h525l228 -848l198 848h531v-1399h-315v1102l-293 -1102h-286l-292 1102v-1102h-296z" />
<glyph unicode="N" horiz-adv-x="1300" d="M0 -2v1402h321l585 -936v936h314v-1402h-337l-575 915v-915h-308z" />
<glyph unicode="O" horiz-adv-x="1461" d="M0 699q0 216 65 361q48 108 132 193.5t184 126.5q134 56 308 56q315 0 503.5 -193.5t188.5 -536.5q0 -341 -187 -533t-501 -192q-319 0 -506 191t-187 527zM316 694q0 -221 104 -336.5t264 -115.5q161 0 263.5 114.5t102.5 341.5q0 225 -100 336t-266 111t-267 -112 t-101 -339z" />
<glyph unicode="P" horiz-adv-x="1065" d="M0 2v1398h366q254 0 331 -21q118 -31 198 -136.5t80 -272.5q0 -149 -46 -236.5t-117 -137.5t-144 -67q-100 -20 -289 -20h-72v-507h-307zM309 777h33q155 0 207 18.5t81.5 58t29.5 91.5q0 65 -41.5 106.5t-105.5 52.5q-46 7 -188 7h-16v-334z" />
<glyph unicode="Q" horiz-adv-x="1485" d="M0 689q0 213 66 357q49 106 134.5 190.5t187.5 125.5q136 55 313 55q320 0 512 -191t192 -530q0 -337 -190 -527q-116 -115 -278 -160q39 -11 60 -11q56 0 129.5 34.5t143.5 109.5v-270q-46 -48 -128.5 -90t-170.5 -42q-50 0 -97.5 12t-150.5 57q-154 67 -242 67 q-140 0 -273 -139v259q46 50 98 82q-63 38 -115 90q-191 189 -191 521zM299 690q0 -224 114.5 -340t290.5 -116t289 115t113 345q0 227 -110 339t-292 112t-293.5 -113t-111.5 -342z" />
<glyph unicode="R" horiz-adv-x="1172" d="M0 1400l1 -1398h313l2 1087h314h5q48 1 67 -37q7 -14 7 -28q0 -26 -24 -52l-253 -281q-16 -25 -22 -45l-5 -27l2 -63l3 -4l18 -54l280 -497l384 -2l-320 553q-7 9 -7 22q0 52 110 162q138 138 140 308v7q0 166 -96.5 257.5t-247.5 91.5h-7h-664z" />
<glyph unicode="S" horiz-adv-x="1216" d="M74 840q-32 73 -32 148q0 100 57 203q126 193 396 207h51q13 -3 31 -2h468q-1 4 -2 4t-3 -6l-3 -287l-517 1q-29 -1 -50 -4l-12 -3l-23 -4q0 1 1 1q-51 -14 -86 -60q-8 -17 -8 -35q0 -22 12 -45q10 -12 27 -22l17 -6l11 -4l25 -10l7 -2l89 -25l7 -3l8 -1l5 -1q2 -3 12 -4 t11 -1q8 -3 25 -6l6 -2l7 -1l24 -6q10 -2 25 -7l6 -2l17 -3l6 -2q18 -4 31 -9l3 -1q4 -3 13 -3l9 -2l12 -4l58 -20l5 -1l31 -13q12 -8 32 -17l2 -2l21 -11l12 -6l19 -15l5 -2q7 -8 21 -17l8 -8l7 -5l26 -26q6 -6 11 -14q4 -5 10 -12q5 -9 13 -19l1 -4q9 -10 13 -22l4 -4 l4 -10q5 -12 10 -20l8 -25v-3q17 -59 17 -117q0 -137 -97 -265l-55 -54l-8 -5l-4 -4l-42 -29q-5 -3 -23 -13q-6 -1 -15 -7l-78 -30l-20 -5q1 1 5 1l-18 -6l-7 -1l-8 -2h-6l-8 -3l-5 -1l-12 -2l-6 -1l-13 -2l-5 -1q-13 0 -28 -3h-19l-5 -2l-529 -1h3v286h580q103 20 122 110 q3 13 3 26q0 54 -57 85q-12 7 -31 14l-11 4l-24 8l-10 5h-4l-6 3h-5q-5 2 -15 4q-11 5 -27 7l-2 2l-18 5h-4l-36 9q-11 3 -12 3q-11 5 -32 8l-10 2q-9 4 -17 5q-3 3 -12 3q-7 2 -17 3l-14 6h-3q-6 3 -17 4l-5 2l-9 2l-6 2l-32 10l-6 1l-20 8l-14 5q-9 1 -22 8l-13 5l-33 16 q-7 2 -19 11l-6 1l-9 6l-13 9l-6 4l-8 5l-3 3l-9 6q-6 6 -18 16l-43 44l-6 9l-6 7q-8 10 -16 25l-3 6l-5 9z" />
<glyph unicode="T" horiz-adv-x="980" d="M0 1097v303h900v-303h-279v-1098h-326v1098h-295z" />
<glyph unicode="U" horiz-adv-x="1200" d="M0 655v745h325v-756q0 -110 10 -164q19 -85 87.5 -137t145.5 -52q61 0 122.5 49t74 120.5t12.5 166.5v773h343v-734q0 -251 -23 -355t-84.5 -175t-165 -113.5t-270.5 -42.5q-201 0 -305 46t-164.5 120t-79.5 155q-28 120 -28 354z" />
<glyph unicode="V" horiz-adv-x="1478" d="M0 1397h322l353 -1083q3 -18 23 -18q21 0 29 18l346 1083h325q-39 -138 -119 -399q-101 -329 -177 -563q-95 -292 -119 -328q-39 -57 -117.5 -89t-166.5 -32q-89 0 -165.5 31t-116.5 90q-25 34 -120 327q-69 213 -176 563q-61 200 -121 400z" />
<glyph unicode="W" horiz-adv-x="2068" d="M0 1403h317l238 -906q22 -166 25 -166q7 0 263 1072h301l237 -906q22 -166 26 -166q6 0 262 1072h319q-41 -179 -102 -428q-78 -315 -136 -538q-75 -284 -95 -322q-36 -65 -104.5 -99.5t-143.5 -34.5t-142 33.5t-103 99.5q-22 37 -96 322q-43 163 -71 279 q-25 -101 -72 -278q-74 -284 -95 -322q-35 -65 -103.5 -99.5t-143.5 -34.5q-76 0 -143 33.5t-102 99.5q-22 37 -96 322q-53 203 -136 538q-46 191 -104 429z" />
<glyph unicode="X" horiz-adv-x="1410" d="M0 0l473 729l-430 671h370l257 -415l251 415h367l-432 -680l474 -720h-380l-286 449l-286 -449h-378z" />
<glyph unicode="Y" horiz-adv-x="1056" d="M0 840l2 -7l2 -14l5 -28q10 -33 28 -70l4 -7q15 -33 32 -52q49 -51 107 -75l17 -5l19 -4h7l13 -3l32 -4h394v-277l-14 -2h-522v-294h631l5 2l43 12q79 32 125 90l2 5q20 28 27 51l5 12l10 36l2 16v1178h-314v-533l-14 -2h-325q-14 0 -21 4v531h-302v-560z" />
<glyph unicode="Z" horiz-adv-x="1200" d="M10 2q2 208 2 349q0 126 57 223q64 110 185 157l473 248q66 44 63 63q-7 28 -22 39.5t-41 11.5h-711v307h776q137 0 220 -103q76 -94 76 -232q0 -118 -59 -214q-64 -104 -182 -147l-403 -218q-126 -51 -126 -154q0 -10 1 -21h711v-308h-752z" />
<glyph unicode="[" horiz-adv-x="578" d="M0 -311v1921h498v-222h-231v-1477h231v-222h-498z" />
<glyph unicode="\" horiz-adv-x="782" d="M0 1594l449 -1856h253l-444 1856h-258z" />
<glyph unicode="]" horiz-adv-x="578" d="M0 -89h231v1477h-231v222h498v-1921h-498v222z" />
<glyph unicode="^" horiz-adv-x="824" d="M0 749l150 491q45 138 59 159q25 36 69.5 54.5t92.5 18.5q49 0 93 -18t69 -54q14 -20 60 -160l151 -491h-230l-142 532q-3 0 -142 -532h-230z" />
<glyph unicode="_" horiz-adv-x="911" d="M0 -19v281h831v-281h-831z" />
<glyph unicode="`" horiz-adv-x="682" d="M96 1829h285l178 -329h-270z" />
<glyph unicode="a" horiz-adv-x="1404" d="M0 0l461 1253q39 77 88.5 111.5t113.5 34.5q65 0 114.5 -36.5t88.5 -109.5l458 -1253h-310l-111 307h-479l-112 -307h-312zM513 546h301l-149 413z" />
<glyph unicode="b" horiz-adv-x="1097" d="M0 0h698l13 2l18 5l13 2q44 10 72 23q119 71 146 188q10 37 11 76q0 177 -212 385q7 31 117 197q84 127 84 250q0 40 -8 78q-34 162 -252 192h-700v-1398zM319 308v793l262 -1h10q67 0 66 -47q0 -21 -13 -51l-215 -264q-32 -35 -32 -67q0 -9 3 -19q14 -40 150 -170 q138 -131 139 -150q0 -17 -33 -24h-337z" />
<glyph unicode="c" horiz-adv-x="1065" d="M19 782q46 415 414 584l52 16l12 4h6l24 7q13 0 27 4q9 -4 26 3h394v-302h-303q-148 -10 -253 -129q-91 -123 -91 -264q0 -97 43 -201q110 -209 339 -209q30 0 62 4h214l-11 6v-305h-306q-16 -1 -31 -1q-252 0 -447 213q-173 207 -173 509q0 30 2 61z" />
<glyph unicode="d" horiz-adv-x="1259" d="M0 0h315h187q309 0 493 185q184 184 184 512q0 330 -186 515q-185 186 -495 186h-277v-1h-221v-1397zM315 304v797h178q163 0 262 -98q98 -98 98 -297q0 -200 -100 -301q-101 -101 -260 -101h-58h-120z" />
<glyph unicode="e" horiz-adv-x="931" d="M13 275v882q18 243 297 243h18h523v-301h-514v-257h415v-302h-415v-238h514v-300h-523q-22 -1 -42 -1q-273 0 -273 252v22z" />
<glyph unicode="f" horiz-adv-x="918" d="M0 0v1157q18 243 297 243h18h523v-301h-514v-257h415v-302h-415v-540h-324z" />
<glyph unicode="g" horiz-adv-x="1065" d="M19 782q46 415 414 584l52 16l12 4h6l24 7q13 0 27 4q9 -4 26 3h394v-302h-303q-148 -10 -253 -129q-91 -123 -91 -264q0 -96 43 -201q110 -209 339 -209q30 0 62 4h214l-11 6v-305h-306q-16 -1 -31 -1q-252 0 -447 213q-173 207 -173 509q0 30 2 61zM705 5v595h268v-595 h-268z" />
<glyph unicode="h" horiz-adv-x="1190" d="M0 0v1400h308v-558h494v558h308v-1400h-308v581h-494v-581h-308z" />
<glyph unicode="i" horiz-adv-x="397" d="M0 -5v1402h317v-1402h-317z" />
<glyph unicode="j" horiz-adv-x="814" d="M0 4l160 -2q176 0 285.5 44.5t174.5 118.5t89.5 182.5t24.5 369.5v683h-300v-691q0 -173 -13 -239t-78 -117t-192 -51l-151 -1v-297z" />
<glyph unicode="k" horiz-adv-x="1343" d="M0 0v1400h314v-1400h-314zM385 705q0 -50 30 -90l466 -612h370l-533 700l545 697h-374l-473 -604q-31 -40 -31 -91z" />
<glyph unicode="l" horiz-adv-x="814" d="M0 717q0 -261 24.5 -369.5t89.5 -182.5t174.5 -118.5t285.5 -44.5l160 2v297l-151 1q-128 0 -192.5 51t-77.5 117t-13 239v691h-300v-683z" />
<glyph unicode="m" horiz-adv-x="1562" d="M0 -2v1399h525l228 -848l198 848h531v-1399h-315v1102l-293 -1102h-286l-292 1102v-1102h-296z" />
<glyph unicode="n" horiz-adv-x="1300" d="M0 -2v1402h321l585 -936v936h314v-1402h-337l-575 915v-915h-308z" />
<glyph unicode="o" horiz-adv-x="1461" d="M0 699q0 216 65 361q48 108 132 193.5t184 126.5q134 56 308 56q315 0 503.5 -193.5t188.5 -536.5q0 -341 -187 -533t-501 -192q-319 0 -506 191t-187 527zM316 694q0 -221 104 -336.5t264 -115.5q161 0 263.5 114.5t102.5 341.5q0 225 -100 336t-266 111t-267 -112 t-101 -339z" />
<glyph unicode="p" horiz-adv-x="1065" d="M0 2v1398h366q254 0 331 -21q118 -31 198 -136.5t80 -272.5q0 -149 -46 -236.5t-117 -137.5t-144 -67q-100 -20 -289 -20h-72v-507h-307zM309 777h33q155 0 207 18.5t81.5 58t29.5 91.5q0 65 -41.5 106.5t-105.5 52.5q-46 7 -188 7h-16v-334z" />
<glyph unicode="q" horiz-adv-x="1485" d="M0 689q0 213 66 357q49 106 134.5 190.5t187.5 125.5q136 55 313 55q320 0 512 -191t192 -530q0 -337 -190 -527q-116 -115 -278 -160q39 -11 60 -11q56 0 129.5 34.5t143.5 109.5v-270q-46 -48 -128.5 -90t-170.5 -42q-50 0 -97.5 12t-150.5 57q-154 67 -242 67 q-140 0 -273 -139v259q46 50 98 82q-63 38 -115 90q-191 189 -191 521zM299 690q0 -224 114.5 -340t290.5 -116t289 115t113 345q0 227 -110 339t-292 112t-293.5 -113t-111.5 -342z" />
<glyph unicode="r" horiz-adv-x="1172" d="M0 1400l1 -1398h313l2 1087h314h5q48 1 67 -37q7 -14 7 -28q0 -26 -24 -52l-253 -281q-16 -25 -22 -45l-5 -27l2 -63l3 -4l18 -54l280 -497l384 -2l-320 553q-7 9 -7 22q0 52 110 162q138 138 140 308v7q0 166 -96.5 257.5t-247.5 91.5h-7h-664z" />
<glyph unicode="s" horiz-adv-x="1216" d="M74 838q-32 74 -32 149q0 100 57 203q126 194 396 208h51q13 -3 31 -2h468q-1 4 -2 4t-3 -6l-3 -288l-517 1q-29 -1 -50 -4l-12 -3l-23 -4q0 1 1 1q-51 -14 -86 -60q-8 -17 -8 -35q0 -22 12 -45q10 -12 27 -22l17 -6l11 -4l25 -10l7 -2l89 -25l7 -3l8 -1l5 -1q2 -3 12 -4 t11 -1q8 -3 25 -7l6 -2l7 -1l24 -6q10 -2 25 -7l6 -2l17 -3l6 -2q18 -4 31 -9l3 -1q4 -3 13 -3l9 -2l12 -4l58 -20l5 -1l31 -13q12 -8 32 -17l2 -2l21 -11l12 -6l19 -15l5 -2q7 -8 21 -17l8 -8l7 -5l26 -26q6 -6 11 -14q4 -5 10 -12q5 -9 13 -19l1 -4q9 -10 13 -22l4 -4 l4 -10q5 -12 10 -20l8 -25v-3q17 -60 17 -118q0 -138 -97 -266l-55 -54l-8 -5l-4 -4l-42 -29q-5 -3 -23 -13q-6 -1 -15 -7l-78 -30l-20 -5q1 1 5 1l-18 -6l-7 -1l-8 -2h-6l-8 -3l-5 -1l-12 -2l-6 -1l-13 -2l-5 -1q-13 0 -28 -3h-19l-5 -2l-529 -1h3v287h580q103 20 122 110 q3 13 3 26q0 54 -57 85q-12 7 -31 14l-11 5l-24 8l-10 5h-4l-6 3h-5q-5 2 -15 4q-11 5 -27 7l-2 2l-18 5h-4l-36 9q-11 3 -12 3q-11 5 -32 8l-10 2q-9 4 -17 5q-3 3 -12 3q-7 2 -17 3l-14 6h-3q-6 3 -17 4l-5 2l-9 2l-6 2l-32 10l-6 1l-20 8l-14 5q-9 1 -22 8l-13 5l-33 16 q-7 2 -19 11l-6 1l-9 6l-13 9l-6 4l-8 5l-3 3l-9 6q-6 6 -18 16l-43 44l-6 9l-6 7q-8 10 -16 25l-3 6l-5 9z" />
<glyph unicode="t" horiz-adv-x="980" d="M0 1097v303h900v-303h-279v-1098h-326v1098h-295z" />
<glyph unicode="u" horiz-adv-x="1200" d="M0 655v745h325v-756q0 -110 10 -164q19 -85 87.5 -137t145.5 -52q61 0 122.5 49t74 120.5t12.5 166.5v773h343v-734q0 -251 -23 -355t-84.5 -175t-165 -113.5t-270.5 -42.5q-201 0 -305 46t-164.5 120t-79.5 155q-28 120 -28 354z" />
<glyph unicode="v" horiz-adv-x="1478" d="M0 1397h322l353 -1083q3 -18 23 -18q21 0 29 18l346 1083h325q-39 -138 -119 -399q-101 -329 -177 -563q-95 -292 -119 -328q-39 -57 -117.5 -89t-166.5 -32q-89 0 -165.5 31t-116.5 90q-25 34 -120 327q-69 213 -176 563q-61 200 -121 400z" />
<glyph unicode="w" horiz-adv-x="2068" d="M0 1403h317l238 -906q22 -166 25 -166q7 0 263 1072h301l237 -906q22 -166 26 -166q6 0 262 1072h319q-41 -179 -102 -428q-78 -315 -136 -538q-75 -284 -95 -322q-36 -65 -104.5 -99.5t-143.5 -34.5t-142 33.5t-103 99.5q-22 37 -96 322q-43 163 -71 279 q-25 -101 -72 -278q-74 -284 -95 -322q-35 -65 -103.5 -99.5t-143.5 -34.5q-76 0 -143 33.5t-102 99.5q-22 37 -96 322q-53 203 -136 538q-46 191 -104 429z" />
<glyph unicode="x" horiz-adv-x="1410" d="M0 0l473 729l-430 671h370l257 -415l251 415h367l-432 -680l474 -720h-380l-286 449l-286 -449h-378z" />
<glyph unicode="y" horiz-adv-x="1056" d="M0 840l2 -7l2 -14l5 -28q10 -33 28 -70l4 -7q15 -33 32 -52q49 -51 107 -75l17 -5l19 -4h7l13 -3l32 -4h394v-277l-14 -2h-522v-294h631l5 2l43 12q79 32 125 90l2 5q20 28 27 51l5 12l10 36l2 16v1178h-314v-533l-14 -2h-325q-14 0 -21 4v531h-302v-560z" />
<glyph unicode="z" horiz-adv-x="1200" d="M10 2q2 208 2 349q0 126 57 223q64 110 185 157l473 248q66 44 63 63q-7 28 -22 39.5t-41 11.5h-711v307h776q137 0 220 -103q76 -94 76 -232q0 -118 -59 -214q-64 -104 -182 -147l-403 -218q-126 -51 -126 -154q0 -10 1 -21h711v-308h-752z" />
<glyph unicode="{" horiz-adv-x="671" d="M0 556v183q194 8 171 438t324 430h80v-204h-41q-139 -4 -98.5 -356t-158.5 -397v-5q199 -41 158.5 -396t98.5 -358h41v-202h-82q-345 0 -319.5 430t-173.5 437z" />
<glyph unicode="|" horiz-adv-x="376" d="M0 -308v1915h296v-1915h-296z" />
<glyph unicode="}" horiz-adv-x="671" d="M0 -109h41q139 3 98.5 358t158.5 396v5q-199 45 -158.5 397t-98.5 356h-41v204h80q347 0 324 -430t171 -438v-183q-199 -7 -173.5 -437t-319.5 -430h-82v202z" />
<glyph unicode="~" horiz-adv-x="1244" d="M9 835l186 -134l-2 -2q30 38 80 53q88 26 199 -40q185 -109 391 -65q155 34 260 129l-154 170l1 1q-52 -46 -124 -69q-133 -42 -257 31q-194 115 -372 66q-69 -19 -128 -61q-49 -36 -80 -79z" />
<glyph unicode="&#xa1;" horiz-adv-x="434" d="M0 1219q0 73 52 125t125 52t125 -52t52 -125t-52 -125t-125 -52t-125 52t-52 125zM20 33v943h318v-943h-318z" />
<glyph unicode="&#xa2;" horiz-adv-x="835" d="M14 803q35 316 317 446l39 12l12 4h5l17 5q10 0 24 4q5 -2 14 1h313v-265h-242q-98 -6 -168 -85q-105 -142 -32 -317q79 -137 271 -137h171l-3 -262h-241q-208 -11 -366 162q-145 174 -131 432zM351 91v248h265v-248h-265zM351 1141v248h265v-248h-265z" />
<glyph unicode="&#xa3;" horiz-adv-x="1145" d="M0 593h582v241h-582v-241zM139 100l248 -100q27 27 70 53q77 47 121 21q136 -81 288 -60q115 16 199 79l-174 230l2 2q-25 -17 -57 -24q-57 -11 -110 21q-136 80 -299 32v654q5 103 139 103q86 0 132 -23q40 -19 42 -49v6l289 -6q2 130 -98 233q-125 128 -365 128 q-213 0 -331 -137q-96 -111 -96 -255v-908z" />
<glyph unicode="&#xa4;" />
<glyph unicode="&#xa5;" horiz-adv-x="1445" />
<glyph unicode="&#xa6;" />
<glyph unicode="&#xa7;" horiz-adv-x="766" d="M62 641q-46 106 15 218q13 19 28 36l-15 16l-4 5l-3 5q-6 6 -11 15l-1 5l-3 4l-6 11q-46 107 15 218q78 121 247 129h32q8 -3 19 -1h288v-2l-2 -179l-321 1q-19 -1 -32 -2l-7 -2l-14 -3v1q-32 -9 -53 -37q-11 -25 2 -50q6 -7 17 -13l10 -4l7 -3l16 -6l4 -1l51 -14 q106 -19 225 -70l1 -1l13 -7l7 -3l12 -10l3 -1q5 -5 13 -10l5 -5l4 -4l17 -16q3 -4 7 -8q2 -4 6 -8q3 -5 8 -12v-3q6 -5 8 -14l2 -2l3 -6q3 -7 7 -13l4 -15v-1q36 -123 -45 -233q3 -4 7 -9q2 -3 6 -8q3 -4 8 -11v-3q6 -6 8 -14l2 -2l3 -6q3 -7 7 -13l4 -15v-1 q37 -126 -49 -238l-35 -34l-5 -4l-2 -2l-26 -18q-3 -2 -14 -8q-5 -1 -9 -5l-49 -18l-12 -3h2l-10 -3h-5l-5 -3h-4l-5 -1l-2 -1l-9 -1h-3l-8 -1l-4 -1q-7 0 -16 -2h-12l-4 -1l-327 -1v178h361q64 12 75 68q11 45 -32 69q-8 5 -18 9h-1l-243 69q-6 1 -13 6l-8 2l-21 10 q-5 2 -12 7h-3l-6 4l-8 6l-4 2l-4 4l-3 2l-6 4q-3 3 -10 9l-27 28l-4 5l-3 4q-3 3 -5 6l-5 1h4q-2 4 -5 9l-1 4l-3 5zM234 764q-11 -25 2 -51q6 -7 17 -13l10 -3l7 -4l204 -55l5 -1l6 -2q19 17 24 45q11 45 -32 70q-9 4 -20 9l-7 2l-94 26l-7 2q-7 4 -20 5l-6 1q-6 3 -10 4 q-3 2 -9 2q-2 1 -5 1l-12 -2v1q-32 -9 -53 -37zM663 1302h4q-3 5 -4 0z" />
<glyph unicode="&#xa8;" horiz-adv-x="643" d="M-1 1232q0 58 41 99.5t99 41.5q57 0 98 -41.5t41 -99.5q0 -59 -41 -100t-98 -41q-58 0 -99 41t-41 100zM359 1232q0 58 41 99.5t99 41.5q57 0 98 -41.5t41 -99.5q0 -59 -41 -100t-98 -41q-58 0 -99 41t-41 100z" />
<glyph unicode="&#xa9;" horiz-adv-x="1017" d="M36 1228q0 194 137.5 331.5t331.5 137.5t331.5 -137.5t137.5 -331.5t-137.5 -331.5t-331.5 -137.5t-331.5 137.5t-137.5 331.5zM153 1228q0 -146 103 -249t249 -103t249 103t103 249t-103 249t-249 103t-249 -103t-103 -249zM232 1261q18 169 169 238l21 6l5 2h2l10 3 q5 0 11 1q4 -1 10 2h161v-124h-123q-61 -4 -104 -52q-62 -85 -19 -190q51 -96 163 -83h88l-5 2v-124h-125q-110 -6 -195 86q-77 93 -69 233z" />
<glyph unicode="&#xaa;" />
<glyph unicode="&#xab;" horiz-adv-x="1014" d="M79 700l246 401h220l-252 -401l250 -399h-218zM482 700l246 401h218l-250 -401l250 -399h-220z" />
<glyph unicode="&#xac;" />
<glyph unicode="&#xad;" horiz-adv-x="859" d="M80 658v259h699v-259h-699z" />
<glyph unicode="&#xae;" horiz-adv-x="1055" d="M51 1228q0 194 137.5 331.5t331.5 137.5t331.5 -137.5t137.5 -331.5t-137.5 -331.5t-331.5 -137.5t-331.5 137.5t-137.5 331.5zM168 1228q0 -146 103 -249t249 -103t249 103t103 249t-103 249t-249 103t-249 -103t-103 -249zM350 1496l1 -504h112l1 392h113 q19 1 26 -13.5t-6 -28.5l-91 -101q-6 -9 -8 -17l-2 -9l1 -23l1 -2l6 -19l101 -179l138 -1l-115 199q-12 17 37.5 66.5t50 111t-35 95.5t-91.5 33h-239z" />
<glyph unicode="&#xaf;" horiz-adv-x="972" d="M130 1436v225h743v-225h-743z" />
<glyph unicode="&#xb0;" horiz-adv-x="389" d="M25 1505q0 77 55 132t132 55t132 -55t55 -132t-55 -132t-132 -55t-132 55t-55 132zM131 1505q0 -34 23 -58q24 -23 58 -23t58 23q23 24 23 58t-23 58q-24 23 -58 23t-58 -23q-23 -24 -23 -58z" />
<glyph unicode="&#xb1;" />
<glyph unicode="&#xb2;" />
<glyph unicode="&#xb3;" />
<glyph unicode="&#xb4;" horiz-adv-x="682" d="M96 1498l178 329h285l-193 -329h-270z" />
<glyph unicode="&#xb5;" />
<glyph unicode="&#xb6;" horiz-adv-x="1065" d="M87 969q-4 186 109 298q145 144 465 144q183 0 278 -22v-1389h-187v1088h-140v-1088h-187v605h-12q-105 0 -204 88q-120 107 -122 276z" />
<glyph unicode="&#xb7;" />
<glyph unicode="&#xb8;" horiz-adv-x="574" d="M90 -320l71 92q46 -36 99 -36q47 0 80 22q29 20 29 45t-28 45q-30 21 -105 24l60 90l75 99h105l-76 -118q37 -14 70 -51q35 -41 35 -89q0 -72 -74 -121q-71 -48 -171 -48q-86 0 -170 46z" />
<glyph unicode="&#xb9;" />
<glyph unicode="&#xba;" />
<glyph unicode="&#xbb;" horiz-adv-x="1014" d="M79 301l250 399l-250 401h218l246 -401l-243 -399h-221zM480 1101h221l245 -401l-245 -399h-219l250 399z" />
<glyph unicode="&#xbc;" />
<glyph unicode="&#xbd;" />
<glyph unicode="&#xbe;" />
<glyph unicode="&#xbf;" horiz-adv-x="947" d="M0 407q0 167 93 281q104 127 282 127h34q30 2 145 -2l2 154h304v-440l-434 -2q-52 0 -82 -37q-26 -33 -26 -82t26 -84q30 -39 82 -39h434v-283h-485q-177 0 -281 127q-94 115 -94 280zM534 1242q0 74 52 125.5t125 51.5t125 -51.5t52 -125.5q0 -73 -52 -125t-125 -52 t-125 52t-52 125z" />
<glyph unicode="&#xc0;" horiz-adv-x="1404" d="M0 0l461 1253q39 77 88.5 111.5t113.5 34.5q65 0 114.5 -36.5t88.5 -109.5l458 -1253h-310l-111 307h-479l-112 -307h-312zM360 1837h285l178 -329h-270zM513 546h301l-149 413z" />
<glyph unicode="&#xc1;" horiz-adv-x="1404" d="M0 0l461 1253q39 77 88.5 111.5t113.5 34.5q65 0 114.5 -36.5t88.5 -109.5l458 -1253h-310l-111 307h-479l-112 -307h-312zM511 1499l178 329h285l-193 -329h-270zM513 546h301l-149 413z" />
<glyph unicode="&#xc2;" horiz-adv-x="1404" d="M0 0l461 1253q39 77 88.5 111.5t113.5 34.5q65 0 114.5 -36.5t88.5 -109.5l458 -1253h-310l-111 307h-479l-112 -307h-312zM363 1503l205 312h209l202 -312h-202l-103 179h-4l-104 -179h-203zM513 546h301l-149 413z" />
<glyph unicode="&#xc3;" horiz-adv-x="1404" d="M0 0l461 1253q39 77 88.5 111.5t113.5 34.5q65 0 114.5 -36.5t88.5 -109.5l458 -1253h-310l-111 307h-479l-112 -307h-312zM251 1652l137 -100l-1 -1q22 28 59 39q65 19 147 -30q137 -80 289 -47q115 24 192 95l-114 125l1 1q-38 -34 -91 -51q-99 -31 -191 23 q-143 85 -274 48q-51 -14 -95 -45q-36 -26 -59 -57zM513 546h301l-149 413z" />
<glyph unicode="&#xc4;" horiz-adv-x="1404" d="M0 0l461 1253q39 77 88.5 111.5t113.5 34.5q65 0 114.5 -36.5t88.5 -109.5l458 -1253h-310l-111 307h-479l-112 -307h-312zM354 1642q0 58 41 99.5t99 41.5q57 0 98 -41.5t41 -99.5q0 -59 -41 -100t-98 -41q-58 0 -99 41t-41 100zM513 546h301l-149 413zM714 1642 q0 58 41 99.5t99 41.5q57 0 98 -41.5t41 -99.5q0 -59 -41 -100t-98 -41q-58 0 -99 41t-41 100z" />
<glyph unicode="&#xc5;" horiz-adv-x="1404" d="M0 0l461 1253q39 77 88.5 111.5t113.5 34.5q65 0 114.5 -36.5t88.5 -109.5l458 -1253h-310l-111 307h-479l-112 -307h-312zM479 1507q0 77 55 132t132 55t132 -55t55 -132t-55 -132t-132 -55t-132 55t-55 132zM513 546h301l-149 413zM595 1507q0 -29 21 -50t50 -21t50 21 t21 50t-21 50t-50 21t-50 -21t-21 -50z" />
<glyph unicode="&#xc6;" horiz-adv-x="1937" d="M0 0l912 1253q67 77 129 111.5t126 34.5h690v-300h-514v-257h415v-302h-415v-238h514v-300h-522q-6 0 -11 -1v-1h-310v307h-479l-223 -307h-312zM710 546h301l-1 413z" />
<glyph unicode="&#xc7;" horiz-adv-x="1065" d="M19 782q46 415 414 584l52 16l12 4h6l24 7q13 0 27 4q9 -4 26 3h394v-302h-303q-148 -10 -253 -129q-154 -208 -48 -465q125 -236 401 -205h214l-11 6v-305h-306q-271 -14 -478 212q-190 228 -171 570zM413 -320l71 92q47 -36 99 -36q47 0 80 22q30 20 30 45t-28 45 q-31 21 -106 24l61 90l74 99h105l-75 -118q36 -14 69 -51q36 -41 36 -89q0 -72 -75 -121q-71 -48 -171 -48q-85 0 -170 46z" />
<glyph unicode="&#xc8;" horiz-adv-x="931" d="M13 275v882q19 251 315 243h523v-301h-514v-257h415v-302h-415v-238h514v-300h-523q-328 -21 -315 273zM123 1837h285l178 -329h-270z" />
<glyph unicode="&#xc9;" horiz-adv-x="931" d="M13 275v882q19 251 315 243h523v-301h-514v-257h415v-302h-415v-238h514v-300h-523q-328 -21 -315 273zM278 1502l178 329h285l-193 -329h-270z" />
<glyph unicode="&#xca;" horiz-adv-x="931" d="M13 275v882q19 251 315 243h523v-301h-514v-257h415v-302h-415v-238h514v-300h-523q-328 -21 -315 273zM168 1497l205 312h209l202 -312h-202l-103 179h-4l-104 -179h-203z" />
<glyph unicode="&#xcb;" horiz-adv-x="931" d="M13 275v882q19 251 315 243h523v-301h-514v-257h415v-302h-415v-238h514v-300h-523q-328 -21 -315 273zM164 1642q0 58 41 99.5t99 41.5q57 0 98 -41.5t41 -99.5q0 -59 -41 -100t-98 -41q-58 0 -99 41t-41 100zM524 1642q0 58 41 99.5t99 41.5q57 0 98 -41.5t41 -99.5 q0 -59 -41 -100t-98 -41q-58 0 -99 41t-41 100z" />
<glyph unicode="&#xcc;" horiz-adv-x="547" d="M0 1829h285l178 -329h-270zM150 -5v1402h317v-1402h-317z" />
<glyph unicode="&#xcd;" horiz-adv-x="547" d="M0 -5v1402h317v-1402h-317zM4 1502l178 329h285l-193 -329h-270z" />
<glyph unicode="&#xce;" horiz-adv-x="696" d="M0 1501l205 312h209l202 -312h-202l-103 179h-4l-104 -179h-203zM149 -5v1402h317v-1402h-317z" />
<glyph unicode="&#xcf;" horiz-adv-x="719" d="M0 1642q0 58 41 99.5t99 41.5q57 0 98 -41.5t41 -99.5q0 -59 -41 -100t-98 -41q-58 0 -99 41t-41 100zM161 -5v1402h317v-1402h-317zM360 1642q0 58 41 99.5t99 41.5q57 0 98 -41.5t41 -99.5q0 -59 -41 -100t-98 -41q-58 0 -99 41t-41 100z" />
<glyph unicode="&#xd0;" horiz-adv-x="1441" d="M0 622h699v281h-699v-281zM182 0h315h187q309 0 493 185q184 184 184 512q0 330 -186 515q-185 186 -495 186h-277v-1h-221v-1397zM497 304v797h178q163 0 262 -98q98 -98 98 -297q0 -200 -100 -301q-101 -101 -260 -101h-58h-120z" />
<glyph unicode="&#xd1;" horiz-adv-x="1300" d="M0 -2v1402h321l585 -936v936h314v-1402h-337l-575 915v-915h-308zM198 1620l137 -100l-1 -1q22 28 59 39q65 19 147 -30q137 -80 289 -47q115 24 192 95l-114 125l1 1q-38 -34 -91 -51q-99 -31 -191 23q-143 85 -274 48q-51 -14 -95 -45q-36 -26 -59 -57z" />
<glyph unicode="&#xd2;" horiz-adv-x="1461" d="M0 699q0 216 65 361q48 108 132 193.5t184 126.5q134 56 308 56q315 0 503.5 -193.5t188.5 -536.5q0 -341 -187 -533t-501 -192q-319 0 -506 191t-187 527zM316 694q0 -221 104 -336.5t264 -115.5q161 0 263.5 114.5t102.5 341.5q0 225 -100 336t-266 111t-267 -112 t-101 -339zM382 1828h285l178 -329h-270z" />
<glyph unicode="&#xd3;" horiz-adv-x="1461" d="M0 699q0 216 65 361q48 108 132 193.5t184 126.5q134 56 308 56q315 0 503.5 -193.5t188.5 -536.5q0 -341 -187 -533t-501 -192q-319 0 -506 191t-187 527zM316 694q0 -221 104 -336.5t264 -115.5q161 0 263.5 114.5t102.5 341.5q0 225 -100 336t-266 111t-267 -112 t-101 -339zM536 1497l178 329h285l-193 -329h-270z" />
<glyph unicode="&#xd4;" horiz-adv-x="1461" d="M0 699q0 216 65 361q48 108 132 193.5t184 126.5q134 56 308 56q315 0 503.5 -193.5t188.5 -536.5q0 -341 -187 -533t-501 -192q-319 0 -506 191t-187 527zM316 694q0 -221 104 -336.5t264 -115.5q161 0 263.5 114.5t102.5 341.5q0 225 -100 336t-266 111t-267 -112 t-101 -339zM383 1496l205 312h209l202 -312h-202l-103 179h-4l-104 -179h-203z" />
<glyph unicode="&#xd5;" horiz-adv-x="1461" d="M0 699q0 216 65 361q48 108 132 193.5t184 126.5q134 56 308 56q315 0 503.5 -193.5t188.5 -536.5q0 -341 -187 -533t-501 -192q-319 0 -506 191t-187 527zM278 1641l137 -100l-1 -1q22 28 59 39q65 19 147 -30q137 -80 289 -47q115 24 192 95l-114 125l1 1 q-38 -34 -91 -51q-99 -31 -191 23q-143 85 -274 48q-51 -14 -95 -45q-36 -26 -59 -57zM316 694q0 -221 104 -336.5t264 -115.5q161 0 263.5 114.5t102.5 341.5q0 225 -100 336t-266 111t-267 -112t-101 -339z" />
<glyph unicode="&#xd6;" horiz-adv-x="1461" d="M0 699q0 216 65 361q48 108 132 193.5t184 126.5q134 56 308 56q315 0 503.5 -193.5t188.5 -536.5q0 -341 -187 -533t-501 -192q-319 0 -506 191t-187 527zM316 694q0 -221 104 -336.5t264 -115.5q161 0 263.5 114.5t102.5 341.5q0 225 -100 336t-266 111t-267 -112 t-101 -339zM371 1642q0 58 41 99.5t99 41.5q57 0 98 -41.5t41 -99.5q0 -59 -41 -100t-98 -41q-58 0 -99 41t-41 100zM731 1642q0 58 41 99.5t99 41.5q57 0 98 -41.5t41 -99.5q0 -59 -41 -100t-98 -41q-58 0 -99 41t-41 100z" />
<glyph unicode="&#xd7;" horiz-adv-x="1095" d="M0 383l344 400l-314 370h316l164 -200l161 200h314l-315 -375l345 -395h-324l-184 219l-185 -219h-322z" />
<glyph unicode="&#xd8;" horiz-adv-x="1461" d="M0 699q0 216 65 361q48 108 132 193.5t184 126.5q134 56 308 56q315 0 503.5 -193.5t188.5 -536.5q0 -341 -187 -533t-501 -192q-319 0 -506 191t-187 527zM316 694q0 -221 104 -336.5t264 -115.5q161 0 263.5 114.5t102.5 341.5q0 225 -100 336t-266 111t-267 -112 t-101 -339zM349 -84l439 1588h256l-445 -1588h-250z" />
<glyph unicode="&#xd9;" horiz-adv-x="1200" d="M0 655v745h325v-756q0 -110 10 -164q19 -85 87.5 -137t145.5 -52q61 0 122.5 49t74 120.5t12.5 166.5v773h343v-734q0 -251 -23 -355t-84.5 -175t-165 -113.5t-270.5 -42.5q-201 0 -305 46t-164.5 120t-79.5 155q-28 120 -28 354zM251 1828h285l178 -329h-270z" />
<glyph unicode="&#xda;" horiz-adv-x="1200" d="M0 655v745h325v-756q0 -110 10 -164q19 -85 87.5 -137t145.5 -52q61 0 122.5 49t74 120.5t12.5 166.5v773h343v-734q0 -251 -23 -355t-84.5 -175t-165 -113.5t-270.5 -42.5q-201 0 -305 46t-164.5 120t-79.5 155q-28 120 -28 354zM406 1498l178 329h285l-193 -329h-270z " />
<glyph unicode="&#xdb;" horiz-adv-x="1200" d="M0 655v745h325v-756q0 -110 10 -164q19 -85 87.5 -137t145.5 -52q61 0 122.5 49t74 120.5t12.5 166.5v773h343v-734q0 -251 -23 -355t-84.5 -175t-165 -113.5t-270.5 -42.5q-201 0 -305 46t-164.5 120t-79.5 155q-28 120 -28 354zM252 1496l205 312h209l202 -312h-202 l-103 179h-4l-104 -179h-203z" />
<glyph unicode="&#xdc;" horiz-adv-x="1200" d="M0 655v745h325v-756q0 -110 10 -164q19 -85 87.5 -137t145.5 -52q61 0 122.5 49t74 120.5t12.5 166.5v773h343v-734q0 -251 -23 -355t-84.5 -175t-165 -113.5t-270.5 -42.5q-201 0 -305 46t-164.5 120t-79.5 155q-28 120 -28 354zM240 1642q0 58 41 99.5t99 41.5 q57 0 98 -41.5t41 -99.5q0 -59 -41 -100t-98 -41q-58 0 -99 41t-41 100zM600 1642q0 58 41 99.5t99 41.5q57 0 98 -41.5t41 -99.5q0 -59 -41 -100t-98 -41q-58 0 -99 41t-41 100z" />
<glyph unicode="&#xdd;" horiz-adv-x="1056" d="M0 840l2 -7l2 -14l5 -28q10 -33 28 -70l4 -7q15 -33 32 -52q49 -51 107 -75l17 -5l19 -4h7l13 -3l32 -4h394v-277l-14 -2h-522v-294h631l5 2l43 12q79 32 125 90l2 5q20 28 27 51l5 12l10 36l2 16v1178h-314v-533l-14 -2h-325q-14 0 -21 4v531h-302v-560zM333 1498 l178 329h285l-193 -329h-270z" />
<glyph unicode="&#xde;" horiz-adv-x="1166" d="M0 9v1347h309v-236h168q254 0 331 -21q118 -31 198 -136.5t80 -272.5q0 -149 -46 -236.5t-117 -137.5t-144 -67q-100 -20 -289 -20h-181v-220h-1v-7h-307v7h-1zM310 497h143q155 0 207 18.5t81.5 58t29.5 91.5q0 65 -41.5 106.5t-105.5 52.5q-46 7 -188 7h-126v-334z" />
<glyph unicode="&#xdf;" horiz-adv-x="1310" d="M101 2h305v703q0 177 22 259t123 149.5t228 33t76 -126.5l-219 -269q-22 -24 -29 -47v-40q14 -41 153 -173.5t140.5 -151t-33.5 -25.5h-260v-314h303l13 2l19 5l13 2q45 10 73 24q121 72 149 191q58 211 -205 469q7 32 119.5 201t32 341.5t-377 183.5t-446 -112 t-174.5 -233.5t-25 -376.5v-695z" />
<glyph unicode="&#xe0;" />
<glyph unicode="&#xe1;" />
<glyph unicode="&#xe2;" />
<glyph unicode="&#xe3;" />
<glyph unicode="&#xe4;" />
<glyph unicode="&#xe5;" />
<glyph unicode="&#xe6;" />
<glyph unicode="&#xe7;" />
<glyph unicode="&#xe8;" />
<glyph unicode="&#xe9;" />
<glyph unicode="&#xea;" />
<glyph unicode="&#xeb;" />
<glyph unicode="&#xec;" />
<glyph unicode="&#xed;" />
<glyph unicode="&#xee;" />
<glyph unicode="&#xef;" />
<glyph unicode="&#xf0;" />
<glyph unicode="&#xf1;" />
<glyph unicode="&#xf2;" />
<glyph unicode="&#xf3;" />
<glyph unicode="&#xf4;" />
<glyph unicode="&#xf5;" />
<glyph unicode="&#xf6;" />
<glyph unicode="&#xf7;" horiz-adv-x="1143" d="M69 625v281h996v-281h-996zM378 398q0 74 51.5 126.5t125.5 52.5q73 0 124.5 -52.5t51.5 -126.5t-51.5 -126t-124.5 -52q-74 0 -125.5 52t-51.5 126zM378 1118q0 74 51.5 126.5t125.5 52.5q73 0 124.5 -52.5t51.5 -126.5t-51.5 -126t-124.5 -52q-74 0 -125.5 52 t-51.5 126z" />
<glyph unicode="&#xf8;" />
<glyph unicode="&#xf9;" />
<glyph unicode="&#xfa;" />
<glyph unicode="&#xfb;" />
<glyph unicode="&#xfc;" />
<glyph unicode="&#xfd;" />
<glyph unicode="&#xfe;" />
<glyph unicode="&#xff;" horiz-adv-x="1310" />
<glyph unicode="&#x152;" horiz-adv-x="1889" d="M0 681q0 211 63 352q47 106 129 189t180 123q130 55 300 55q23 0 45 -1h1092v-282h-467v-294h467v-282h-467v-277h467v-286l-1133 3q-311 0 -493.5 186.5t-182.5 513.5zM308 676q0 -215 101.5 -327.5t257.5 -112.5q77 0 141 26v2h3q63 28 113 83q100 112 100 333 q0 220 -97.5 328t-259.5 108t-260.5 -109t-98.5 -331z" />
<glyph unicode="&#x178;" horiz-adv-x="1056" d="M0 840l2 -7l2 -14l5 -28q10 -33 28 -70l4 -7q15 -33 32 -52q49 -51 107 -75l17 -5l19 -4h7l13 -3l32 -4h394v-277l-14 -2h-522v-294h631l5 2l43 12q79 32 125 90l2 5q20 28 27 51l5 12l10 36l2 16v1178h-314v-533l-14 -2h-325q-14 0 -21 4v531h-302v-560zM168 1642 q0 58 41 99.5t99 41.5t99 -41.5t41 -99.5q0 -59 -41 -100t-99 -41t-99 41t-41 100zM528 1642q0 58 41 99.5t99 41.5t99 -41.5t41 -99.5q0 -59 -41 -100t-99 -41t-99 41t-41 100z" />
<glyph unicode="&#x2c6;" horiz-adv-x="614" d="M0 1497l205 312h209l202 -312h-202l-103 179h-4l-104 -179h-203z" />
<glyph unicode="&#x2dc;" horiz-adv-x="1014" d="M40 1210l137 -100l-1 -1q22 28 59 39q65 19 147 -30q137 -80 289 -47q115 24 192 95l-114 125l1 1q-38 -34 -91 -51q-99 -31 -191 23q-143 85 -274 48q-51 -14 -95 -45q-36 -26 -59 -57z" />
<glyph unicode="&#x2000;" horiz-adv-x="939" />
<glyph unicode="&#x2001;" horiz-adv-x="1878" />
<glyph unicode="&#x2002;" horiz-adv-x="939" />
<glyph unicode="&#x2003;" horiz-adv-x="1878" />
<glyph unicode="&#x2004;" horiz-adv-x="626" />
<glyph unicode="&#x2005;" horiz-adv-x="469" />
<glyph unicode="&#x2006;" horiz-adv-x="313" />
<glyph unicode="&#x2007;" horiz-adv-x="313" />
<glyph unicode="&#x2008;" horiz-adv-x="234" />
<glyph unicode="&#x2009;" horiz-adv-x="375" />
<glyph unicode="&#x200a;" horiz-adv-x="104" />
<glyph unicode="&#x2010;" horiz-adv-x="859" d="M80 658v259h699v-259h-699z" />
<glyph unicode="&#x2011;" horiz-adv-x="859" d="M80 658v259h699v-259h-699z" />
<glyph unicode="&#x2012;" horiz-adv-x="859" d="M80 658v259h699v-259h-699z" />
<glyph unicode="&#x2013;" />
<glyph unicode="&#x2014;" />
<glyph unicode="&#x2018;" horiz-adv-x="542" d="M63 1540q-6 123 72 193t160 93l50 -81q-46 -12 -77 -29q55 -8 97 -50q51 -52 51 -126t-51.5 -126.5t-124.5 -52.5t-125 52.5t-52 126.5z" />
<glyph unicode="&#x2019;" horiz-adv-x="542" d="M63 1647q0 74 51.5 126.5t124.5 52.5t125 -52.5t52 -126.5q6 -123 -72 -193t-160 -93l-50 81q46 12 77 29q-55 8 -96 50q-52 52 -52 126z" />
<glyph unicode="&#x201a;" horiz-adv-x="542" d="M63 156q0 74 51.5 126.5t124.5 52.5t125 -52.5t52 -126.5q6 -123 -72 -193t-160 -93l-50 81q46 12 77 29q-55 8 -96 50q-52 52 -52 126z" />
<glyph unicode="&#x201c;" horiz-adv-x="867" d="M63 1540q-6 123 72 193t160 93l50 -81q-46 -12 -77 -29q55 -8 97 -50q51 -52 51 -126t-51.5 -126.5t-124.5 -52.5t-125 52.5t-52 126.5zM446 1540q-6 123 72 193t160 93l50 -81q-46 -12 -77 -29q55 -8 97 -50q51 -52 51 -126t-51.5 -126.5t-124.5 -52.5t-125 52.5 t-52 126.5z" />
<glyph unicode="&#x201d;" horiz-adv-x="867" d="M63 1647q0 74 51.5 126.5t124.5 52.5t125 -52.5t52 -126.5q6 -123 -72 -193t-160 -93l-50 81q46 12 77 29q-55 8 -96 50q-52 52 -52 126zM446 1647q0 74 51.5 126.5t124.5 52.5t125 -52.5t52 -126.5q6 -123 -72 -193t-160 -93l-50 81q46 12 77 29q-55 8 -96 50 q-52 52 -52 126z" />
<glyph unicode="&#x201e;" horiz-adv-x="867" d="M63 164q0 74 51.5 126.5t124.5 52.5t125 -52.5t52 -126.5q6 -123 -72 -193t-160 -93l-50 81q46 12 77 29q-55 8 -96 50q-52 52 -52 126zM446 164q0 74 51.5 126.5t124.5 52.5t125 -52.5t52 -126.5q6 -123 -72 -193t-160 -93l-50 81q46 12 77 29q-55 8 -96 50 q-52 52 -52 126z" />
<glyph unicode="&#x2022;" />
<glyph unicode="&#x2026;" />
<glyph unicode="&#x202f;" horiz-adv-x="375" />
<glyph unicode="&#x2039;" horiz-adv-x="608" d="M79 700l246 401h220l-252 -401l250 -399h-218z" />
<glyph unicode="&#x203a;" horiz-adv-x="608" d="M79 1101h221l245 -401l-245 -399h-219l250 399z" />
<glyph unicode="&#x205f;" horiz-adv-x="469" />
<glyph unicode="&#x20ac;" horiz-adv-x="1157" d="M0 389v241h834v-241h-834zM0 759v241h834v-241h-834zM111 782q46 415 414 584l52 16l12 4h6l24 7q13 0 27 4q9 -4 26 3h394v-302h-343q-148 -10 -253 -129q-154 -208 -48 -465q125 -236 401 -205h254l-11 6v-305h-306q-271 -14 -478 212q-190 228 -171 570z" />
<glyph unicode="&#x2122;" />
<glyph unicode="&#x25fc;" horiz-adv-x="1400" d="M0 0v1400h1400v-1400h-1400z" />
</font>
</defs>
</svg>
