<svg xmlns="http://www.w3.org/2000/svg" xmlns:xlink="http://www.w3.org/1999/xlink" preserveAspectRatio="xMidYMid" width="63" height="21" viewBox="0 0 63 21">
  <defs>
    <style>
      .cls-1 {
        fill: #a7a7a7;
        fill-rule: evenodd;
      }
    </style>
  </defs>
  <path d="M31.261,12.663 C31.184,12.953 31.110,13.236 31.024,13.516 L31.021,13.577 L36.443,13.613 C37.766,9.145 39.086,4.693 40.412,0.230 L34.994,0.199 C34.568,1.612 34.139,3.036 33.715,4.447 C34.883,4.827 36.115,6.253 35.785,7.891 C35.660,8.509 35.452,9.038 35.292,9.573 L21.200,9.487 C21.195,9.793 21.117,10.118 21.234,10.399 C21.803,11.682 24.478,11.720 26.085,11.280 C26.604,11.134 27.057,10.782 27.529,10.665 C29.811,10.782 32.076,10.907 34.351,11.028 C33.985,11.419 31.890,12.551 31.261,12.663 ZM27.948,7.690 C28.241,7.690 28.534,7.690 28.815,7.690 C28.912,7.406 28.937,7.155 28.911,6.932 C28.623,5.658 26.903,5.639 25.742,5.582 C25.487,5.625 25.226,5.666 24.978,5.701 C24.176,5.868 23.360,6.114 22.702,6.715 C22.385,6.986 22.111,7.301 21.897,7.652 C22.466,7.652 23.039,7.657 23.621,7.659 C25.072,7.668 26.520,7.677 27.948,7.690 ZM13.658,0.063 L3.988,-0.001 C2.663,4.455 1.338,8.916 0.010,13.384 L5.807,13.425 C6.129,13.425 6.461,13.427 6.779,13.427 C9.510,13.438 12.244,13.548 14.972,13.060 C15.188,13.023 15.396,12.970 15.581,12.900 C15.770,12.830 15.949,12.747 16.107,12.639 L16.153,12.639 C16.003,12.553 15.868,12.463 15.714,12.386 C15.173,12.035 14.625,11.441 14.356,10.846 C13.894,9.807 14.127,8.782 14.686,7.883 C14.795,7.696 14.919,7.526 15.056,7.354 C16.101,5.986 17.645,5.023 19.474,4.447 C19.654,4.381 19.747,4.210 19.861,4.052 C19.927,3.910 19.995,3.737 20.060,3.559 C20.166,3.197 20.241,2.787 20.187,2.525 C19.728,0.148 16.785,0.080 13.658,0.063 ZM12.619,9.992 C11.450,10.782 8.977,10.571 6.933,10.554 C7.200,9.638 7.454,8.742 7.716,7.830 C9.539,7.830 13.022,7.528 13.284,8.848 C13.391,9.386 12.921,9.793 12.619,9.992 ZM13.927,4.198 C13.345,5.629 10.661,5.331 8.500,5.294 C8.743,4.445 8.991,3.610 9.240,2.751 C10.730,2.751 13.796,2.513 14.046,3.546 C14.101,3.788 13.993,4.040 13.927,4.198 ZM62.622,5.328 C62.184,4.693 61.467,4.418 60.616,4.253 C60.333,4.198 60.032,4.152 59.722,4.112 C57.309,3.723 54.856,3.709 52.380,3.913 C52.091,3.943 51.803,3.968 51.512,4.009 C50.654,4.122 49.800,4.321 49.000,4.656 C48.709,4.770 48.421,4.896 48.140,5.039 C47.738,5.246 47.370,5.495 47.053,5.778 C46.743,6.047 46.489,6.357 46.332,6.708 C47.574,6.919 48.750,6.927 50.004,7.026 C50.624,7.070 51.251,7.116 51.880,7.155 C52.189,6.940 52.416,6.624 52.777,6.450 C53.482,6.122 56.542,5.681 57.067,6.457 C57.212,6.686 57.118,7.026 57.086,7.284 C56.691,7.351 56.307,7.422 55.928,7.489 C54.845,7.728 53.664,7.849 52.478,7.985 C52.085,8.034 51.693,8.084 51.302,8.137 C51.109,8.159 50.909,8.196 50.717,8.231 C50.405,8.278 50.070,8.328 49.751,8.374 C49.422,8.410 49.081,8.455 48.750,8.501 C47.423,8.697 46.108,9.002 45.191,9.913 C45.383,8.941 45.844,7.969 46.034,6.981 C46.181,6.509 46.315,6.024 46.459,5.542 C46.609,5.063 46.746,4.586 46.883,4.109 C46.959,3.864 47.038,3.622 47.106,3.398 C47.426,2.348 47.806,1.371 47.988,0.318 C47.442,0.318 46.807,0.301 46.227,0.269 L42.605,0.246 C41.287,4.702 39.962,9.169 38.641,13.630 L44.060,13.667 C44.118,13.438 44.182,13.236 44.250,13.019 C44.362,12.767 44.362,12.607 44.451,12.360 C45.439,13.837 47.440,13.853 49.165,13.949 C49.522,13.952 49.877,13.929 50.168,13.901 C50.706,13.862 51.237,13.821 51.769,13.790 C52.901,13.577 53.846,13.288 54.759,12.941 C55.056,12.824 55.349,12.706 55.647,12.581 C55.411,14.305 57.599,13.667 58.746,13.760 L61.564,13.775 C61.474,13.466 61.327,13.199 61.265,12.849 C61.171,12.306 61.505,11.733 61.640,11.329 C61.960,10.350 62.273,9.360 62.582,8.377 C62.922,7.398 63.303,6.282 62.622,5.328 ZM53.411,11.552 C53.105,11.650 52.783,11.733 52.432,11.793 C52.194,11.859 51.937,11.899 51.687,11.911 C50.991,11.915 49.984,12.074 49.818,11.330 C49.554,10.360 50.727,9.954 51.547,9.817 C51.865,9.751 52.187,9.717 52.455,9.691 C52.665,9.656 52.871,9.624 53.083,9.588 C53.506,9.532 53.922,9.459 54.326,9.386 C54.742,9.310 55.161,9.231 55.585,9.153 L55.679,9.153 C55.430,10.443 54.613,11.151 53.411,11.552 ZM3.331,16.793 C3.250,16.661 3.159,16.558 3.068,16.498 C2.904,16.376 2.684,16.317 2.416,16.317 C2.020,16.317 1.653,16.450 1.305,16.733 C0.953,17.024 0.709,17.421 0.595,17.930 C0.458,18.470 0.499,18.859 0.719,19.097 C0.937,19.334 1.231,19.453 1.605,19.453 C1.873,19.453 2.089,19.428 2.273,19.349 C2.451,19.271 2.611,19.157 2.768,19.007 C2.668,19.428 2.563,19.707 2.450,19.879 C2.233,20.157 1.921,20.289 1.481,20.289 C1.203,20.289 1.019,20.232 0.912,20.113 C0.851,20.038 0.818,19.931 0.822,19.793 L0.245,19.793 C0.194,20.104 0.280,20.342 0.491,20.488 C0.706,20.634 0.996,20.709 1.362,20.716 C2.020,20.720 2.518,20.516 2.863,20.102 C3.036,19.879 3.185,19.572 3.275,19.183 L3.957,16.397 L3.427,16.397 L3.331,16.793 ZM3.054,17.885 C2.993,18.134 2.904,18.356 2.758,18.540 C2.513,18.881 2.182,19.047 1.768,19.042 C1.508,19.042 1.319,18.939 1.216,18.765 C1.104,18.580 1.089,18.325 1.166,17.974 C1.243,17.690 1.340,17.444 1.457,17.274 C1.688,16.927 2.012,16.761 2.411,16.767 C2.675,16.767 2.877,16.863 3.007,17.037 C3.145,17.226 3.159,17.508 3.054,17.885 ZM17.400,16.397 C17.162,16.391 16.948,16.461 16.735,16.609 C16.524,16.753 16.386,16.880 16.318,16.982 L16.445,16.456 L15.905,16.456 L15.165,19.510 L15.735,19.510 L16.164,17.748 C16.214,17.536 16.341,17.351 16.535,17.183 C16.729,17.009 16.968,16.927 17.262,16.936 C17.292,16.936 17.320,16.936 17.344,16.936 C17.381,16.936 17.405,16.950 17.435,16.950 L17.575,16.406 C17.507,16.397 17.468,16.397 17.435,16.397 C17.414,16.397 17.401,16.397 17.400,16.397 ZM45.598,18.147 C45.522,18.446 45.424,18.678 45.310,18.849 C45.088,19.167 44.779,19.321 44.386,19.318 C44.108,19.318 43.937,19.229 43.890,19.047 C43.844,18.939 43.849,18.819 43.890,18.658 L44.386,16.633 L43.800,16.633 L43.295,18.705 C43.226,18.973 43.218,19.177 43.287,19.327 C43.391,19.624 43.681,19.764 44.170,19.777 C44.477,19.777 44.761,19.701 45.022,19.541 C45.150,19.453 45.271,19.360 45.374,19.249 L45.258,19.692 L45.798,19.701 L46.542,16.645 L45.972,16.642 L45.598,18.147 ZM60.078,16.661 C59.828,16.661 59.585,16.713 59.364,16.822 C59.204,16.906 59.054,17.005 58.916,17.145 L59.008,16.738 L58.448,16.733 L57.415,20.999 L57.984,20.999 L58.372,19.435 C58.457,19.578 58.544,19.679 58.638,19.732 C58.783,19.836 58.990,19.889 59.246,19.889 C59.568,19.892 59.881,19.802 60.165,19.628 C60.616,19.343 60.934,18.868 61.096,18.210 C61.214,17.705 61.180,17.333 60.970,17.065 C60.772,16.802 60.474,16.661 60.078,16.661 ZM60.501,18.248 C60.403,18.645 60.240,18.939 60.014,19.150 C59.786,19.343 59.544,19.439 59.278,19.439 C58.877,19.435 58.649,19.273 58.581,18.966 C58.544,18.799 58.551,18.593 58.606,18.357 C58.684,18.063 58.775,17.825 58.902,17.639 C59.137,17.283 59.451,17.110 59.847,17.110 C60.240,17.110 60.465,17.277 60.532,17.613 C60.573,17.796 60.558,18.005 60.501,18.248 ZM30.517,16.456 C30.032,16.456 29.607,16.602 29.241,16.906 C28.868,17.206 28.623,17.613 28.506,18.128 C28.395,18.606 28.428,18.990 28.640,19.273 C28.849,19.558 29.179,19.707 29.650,19.707 C30.213,19.720 30.659,19.555 31.007,19.236 C31.355,18.918 31.585,18.518 31.708,18.022 C31.834,17.508 31.770,17.115 31.536,16.855 C31.296,16.586 30.960,16.461 30.517,16.456 ZM31.111,18.034 C31.029,18.342 30.894,18.633 30.682,18.889 C30.484,19.142 30.187,19.271 29.811,19.270 C29.461,19.270 29.241,19.152 29.132,18.937 C29.030,18.718 29.011,18.446 29.090,18.119 C29.179,17.786 29.321,17.492 29.543,17.255 C29.758,17.024 30.044,16.906 30.392,16.906 C30.792,16.912 31.029,17.052 31.128,17.333 C31.184,17.508 31.172,17.739 31.111,18.034 ZM60.921,15.606 L61.341,14.553 L-0.000,14.721 L60.921,15.606 Z" class="cls-1"/>
</svg>
