<svg id="icon" xmlns="http://www.w3.org/2000/svg" width="24.674" height="21.861" viewBox="0 0 24.674 21.861">
  <path id="Trazado_3432" data-name="Trazado 3432" d="M3.674,23.242a.512.512,0,0,0,.517.552l6.22-.007.009-5.1s-.088-.84.728-.84h2.581a.8.8,0,0,1,.9.84l-.011,5.08H20.71a.638.638,0,0,0,.653-.687v-9.4l-8.58-7.632L3.674,13.687S3.674,23.242,3.674,23.242Z" transform="translate(-0.319 -1.932)" fill="#fff"/>
  <path id="Trazado_3433" data-name="Trazado 3433" d="M0,12.585s.773,1.425,2.46,0L12.54,4.058l9.45,8.474c1.952,1.408,2.684,0,2.684,0L12.54,1.54Z" transform="translate(0 -1.54)" fill="#fff"/>
  <path id="Trazado_3434" data-name="Trazado 3434" d="M23.6,4.275H21.168l.01,2.948L23.6,9.276Z" transform="translate(-1.838 -1.777)" fill="#fff"/>
</svg>
