<svg xmlns="http://www.w3.org/2000/svg" width="147.321" height="153.138" viewBox="0 0 147.321 153.138">
  <g id="leave" transform="translate(34.212 153.183) rotate(-108)">
    <path id="Trazado_1889" data-name="Trazado 1889" d="M111.982,8.4c-.255.21-.584.31-.766.593,0,0-.109.055-.119.091-.119.547-.7.784-.912,1.286h0c-.675.31-.857,1.113-1.523,1.459-.2.109-.593.265-.529.666l-.748.556c-.055,0-.182,0-.182.082a1.988,1.988,0,0,1-.638.857c-.1.1-.164.228-.319.265s-.128.046-.128.073c0,.392-.42.5-.584.766s-.62.638-.848,1.031-.812.684-.967,1.213a.182.182,0,0,1-.173.119.328.328,0,0,0-.255.173,2.49,2.49,0,0,1-1.122,1.131s-.064.046-.064.073c0,.593-.62.794-.912,1.2a7.406,7.406,0,0,1-.794.912,11.336,11.336,0,0,1-1.149,1.222c-.365.274-.547.666-.912.912-.155.128-.246.328-.474.374a.2.2,0,0,0-.182.173c0,.465-.62.556-.7.985-.4.064-.465.52-.821.675s-.584.584-.912.866-.648.711-.985,1.049a.912.912,0,0,0-.237.337c-.064.137-.109.292-.3.347a.465.465,0,0,0-.283.3.5.5,0,0,1-.1.182c-.164.109-.529-.064-.456.347-.21.119-.274.383-.447.5-.493.319-.675.912-1.259,1.195-.155.064-.31.337-.447.529-.292.41-.73.684-1.04,1.076a1.7,1.7,0,0,0-.328.474s-.055.119-.091.128c-.511.128-.629.629-.912.912a.638.638,0,0,1-.31.182.225.225,0,0,0-.21.146c-.036.091-.119.392-.42.392-.155,0-.046.274-.137.3-.438.1-.447.62-.83.757-.091,0-.119.128-.173.2a1.824,1.824,0,0,1-.794.73h0c-.064.42-.511.547-.7.866-.091.164-.137.31-.356.328,0,0-.091.064-.1.109,0,.474-.447.748-.739,1.022a8.938,8.938,0,0,1-1.049,1.067,1.961,1.961,0,0,0-.429.493c-.1.128-.155.265-.328.319a.265.265,0,0,0-.146.137c-.173.483-.6.73-.976,1.031,0,0-.073,0-.082.064-.119.429-.483.684-.721,1.031s-.21.447-.538.41c-.073,0-.091.082-.119.146a2.463,2.463,0,0,1-.675,1.1c-.1.073-.274.173-.246.383,0,.055-.091.192-.146.192-.392,0-.41.356-.5.565s-.5.493-.711.784c-.1.128-.292.246-.365.42-.146.31-.456.447-.675.675a8.082,8.082,0,0,1-1,1.076c-.319.246-.465.657-.839.839-.1.447-.638.593-.766,1.022a.283.283,0,0,1-.073.137c-.857.638-1.3,1.633-2.116,2.317a8.209,8.209,0,0,0-1.259,1.323c-.374.055-.4.538-.766.611-.255.529-.812.812-1.149,1.286a2.627,2.627,0,0,1-.648.62c-.173.119-.337.192-.356.42,0,.064-.055.173-.091.173-.383.073-.392.547-.73.648-.119,0-.137.146-.182.246a.593.593,0,0,1-.374.42.274.274,0,0,0-.21.228.246.246,0,0,1-.119.219,3.01,3.01,0,0,0-.976,1.049c-.146.21-.438.255-.529.52-.42.1-.4.684-.857.748-.456.629-1.1,1.076-1.605,1.651a4.3,4.3,0,0,1-.912.857c-.137.082-.155.237-.255.337a8.965,8.965,0,0,0-1.231,1.195c-.474,0-.5.493-.757.73s-.292.493-.62.556c-.137,0-.155.182-.219.292a2.854,2.854,0,0,1-.192.31c-.192.283-.611.237-.757.584a2.463,2.463,0,0,1-.6.739c-.556.565-1.1,1.149-1.642,1.742a2.171,2.171,0,0,1-.666.62.465.465,0,0,0-.228.283c-.055.173-.109.337-.337.365a.246.246,0,0,0-.155.128c-.1.429-.547.584-.748.912a.356.356,0,0,1-.292.2c-.073,0-.182,0-.182.091,0,.465-.565.62-.611,1.067,0,.237-.31.155-.447.328-.6.739-1.277,1.414-1.906,2.125a12.512,12.512,0,0,1-.912.912,2.609,2.609,0,0,0-.638.748c-.173.337-.52.456-.711.766-.109.173-.365.292-.429.538a.109.109,0,0,1-.155.1c-.082-.027-.21.091-.255.2-.228.447-.7.739-.839,1.24-.42.192-.593.629-.912.912a2.408,2.408,0,0,0-.556.62c-.073.1-.137.21-.283.228s-.137,0-.137.055c-.073.62-.721.757-1.012,1.177a18.082,18.082,0,0,1-1.414,1.441c-.41.493-.912.912-1.332,1.4a5.782,5.782,0,0,1-1.4,1.4,1.733,1.733,0,0,1-.584.721c-.337.3-.6.666-.912.967s-.739.8-1.158,1.149c-.255.219-.4.511-.62.721s-.41.42-.62.62a4.168,4.168,0,0,0-.848.976,5.053,5.053,0,0,1-.912,1.058,5.306,5.306,0,0,0-.429.511c-.337.5-.912.812-1.2,1.323a5.079,5.079,0,0,0-.465.666s0,.046,0,.046c-.538,0-.657.565-.912.912s-.684.575-.848.994a.262.262,0,0,1-.1.182c-.447.255-.556.8-.994,1.049-.091.055-.082.155-.128.219s-.091.319-.328.283c-.082,0-.1.073-.119.146-.164.511-.757.757-.912,1.286-.52.1-.42.794-.912.912-.173.493-.675.721-.912,1.14-.082.109-.137.182-.283.192s-.128.1-.164.182A5.2,5.2,0,0,1,22,105.821c-.3.31-.5.721-.839,1.031.119.31-.2.347-.356.474a.994.994,0,0,0-.319.4c-.082.21-.146.483-.465.529-.137,0-.1.164-.155.246s-.155.41-.42.438-.109.164-.164.246-.155.456-.456.511a.182.182,0,0,0-.109.109c-.164.538-.666.848-.912,1.313-.055.082-.128.237-.173.246-.392,0-.392.383-.547.584s-.228.41-.538.347h-.146c-.137.42-.538.684-.711,1.085,0,0,0,.119-.064.128-.365.091-.556.42-.857.584s-.474.237-.511.538-.383.192-.465.365-.073.41-.255.547a.684.684,0,0,1-.383.182,1.146,1.146,0,0,0-.73.383,1.824,1.824,0,0,0-.857,1.058c0,.064-.128.119-.2.173a.338.338,0,0,1,0,.1c.2,0,.2.173.237.292a4.086,4.086,0,0,0,.429.912c.109.182.192.31.438.219a.265.265,0,0,1,.365.2c.055.219.192.228.4.164.365-.119.8,0,.985-.5,0-.046.128-.055.192-.082s.109-.073.109-.119a2.1,2.1,0,0,0,0-.337.4.4,0,0,0,.365-.128c.1-.128.164-.119.2-.237a.456.456,0,0,1,.493-.392c.073,0,.164-.091.146-.128-.1-.228.182-.337.182-.474,0-.438.31-.5.629-.575.173,0,.319-.073.283-.292a.091.091,0,0,1,.073-.119c.383-.055.675-.429,1.1-.347a.383.383,0,0,0,.4-.164c.274-.31.474-.292.8,0a.21.21,0,0,0,.237.055.994.994,0,0,0,.438-.365c.146-.182.292-.538.657-.274a.182.182,0,0,0,.246,0c.164-.21.429-.1.62-.219a.3.3,0,0,1,.474.119c.109.21.192.192.292.064.347-.447.693,0,1.04-.064.128.246.283.128.438,0a.274.274,0,0,1,.41,0,.474.474,0,0,0,.666.064c.064,0,.146-.082.173,0,.128.3.337.192.52.091a.429.429,0,0,1,.438,0c.173.146.447.137.547.365a.132.132,0,0,0,.2.1c.246-.192.4-.091.565.082a.356.356,0,0,0,.347.082.575.575,0,0,1,.556.128c.192.109.42.31.711.237a.4.4,0,0,1,.356.064c.237.255.775-.082.912.41a.1.1,0,0,0,.091,0c.237-.155.31,0,.392.173s.137.265.41,0,.356-.146.438.091a.766.766,0,0,0,.21.41c.228.082.328-.337.556-.1s.429-.155.547.137a.119.119,0,0,0,.182,0,.274.274,0,0,1,.447,0c.109.2.383.091.438.255a.311.311,0,0,0,.429.219.315.315,0,0,1,.465.283c.036.283.164.337.41.173.046,0,.109-.064.128,0,.064.319.274.182.447.109a.758.758,0,0,1,.584.091c.192.091.456.319.775.246a.109.109,0,0,1,.137,0c.082.3.365.2.556.292s.611.109.73.438c0,.073.109.073.173.1a6.843,6.843,0,0,1,1.031.347.109.109,0,0,0,.137,0c.219-.173.31-.128.337.137s.109.328.347.237h.155a2.736,2.736,0,0,0,1.067.575c.374.155.857.119,1.131.493H43c.237.055.593-.192.675.246h0c.3-.137.493.137.766.164a6.631,6.631,0,0,1,.7.182c.21,0,.4.237.648,0a.861.861,0,0,0,.128.119c.2.1.347.383.593.255s.265,0,.392,0,.365.374.648.109c0,0,.119.055.137.128.073.328.192.292.42.082a.362.362,0,0,1,.648.182c.073.255.265.356.41.182a.493.493,0,0,1,.584-.128.666.666,0,0,0,.42-.073.575.575,0,0,1,.657.119.593.593,0,0,0,.593.091c.228-.064.5-.109.611.219.055.146.173.137.31.064a1.514,1.514,0,0,1,1.286-.082h.1c.328-.146.611.1.912.073s.629-.228.857.109h0c.52-.155,1.076,0,1.578-.219.073,0,.137-.073.2,0s.474.109.538,0c.237-.328.319.119.483,0h.055c.447-.182.967-.091,1.4-.356a.365.365,0,0,1,.2-.046c.356,0,.739.182,1.049-.173h.1a4.643,4.643,0,0,0,1.824-.3.2.2,0,0,1,.283,0c.283.337.611.155.912,0,.119-.055.246-.082.356-.128.283-.119.629,0,.812-.137a.839.839,0,0,1,.912-.255.228.228,0,0,0,.283-.091.164.164,0,0,1,.228-.064,1.077,1.077,0,0,0,.675-.082c.328-.128.684-.219,1-.374.62-.3,1.4-.274,1.824-.912h.1c.383-.091.593-.538,1.031-.538.429-.529,1.222-.6,1.6-1.213.4-.064.566-.6,1.04-.529.109,0,.1-.237.292-.146s.3,0,.365-.192a1.222,1.222,0,0,1,.7-.611.321.321,0,0,0,.274-.155,2.061,2.061,0,0,1,.62-.73c.429-.337.721-.839,1.167-1.167a.347.347,0,0,0,.137-.164c.137-.383.5-.556.8-.775s.246-.21.164-.374-.109-.255,0-.319c.575-.265.547-1.012,1.113-1.3.073,0,0-.155,0-.246a.757.757,0,0,1,.337-.794.228.228,0,0,0,.119-.219.806.806,0,0,1,.31-.611c.182-.192.374-.2.31-.447s0-.265.155-.328.137-.2.109-.319a2.241,2.241,0,0,1-.064-.3c-.009-.1,0-.164.137-.173.319,0,.365-.073.31-.356,0-.091-.155-.219,0-.274.493-.237.429-.575.265-.912a.3.3,0,0,1,0-.155,6.33,6.33,0,0,1,.611-1.532.511.511,0,0,0,.128-.237c0-.274-.064-.538.246-.721.064,0,0-.164,0-.246a1.058,1.058,0,0,1,.173-1,.264.264,0,0,0,.073-.237,1.888,1.888,0,0,1,.109-1c0-.128-.082-.292.082-.383a.337.337,0,0,0,.137-.529c-.119-.228,0-.356.173-.474a1.286,1.286,0,0,0,.483-.8,1.222,1.222,0,0,1,.447-.839c.109-.073.228-.246.182-.365-.21-.511.4-.821.356-1.313,0-.119.3-.237.2-.511,0-.119.255-.3.182-.538,0-.073.082-.146.155-.2a1.24,1.24,0,0,0,.429-.6,2.61,2.61,0,0,1,.328-.73,3.549,3.549,0,0,1,.748-.775.21.21,0,0,1,.237,0,.3.3,0,0,0,.447-.255c.046-.255.5-.392.675-.666.4.219.4-.173.593-.347s.42-.757.912-.556a.21.21,0,0,0,.265-.146c.082-.593.7-.629,1.049-.912a1.122,1.122,0,0,1,.547-.3c.237,0,.556,0,.675-.2s.52-.137.666-.383.319-.228.493-.292a2.315,2.315,0,0,0,.447-.237,2.262,2.262,0,0,1,1.386-.52c.392,0,.4,0,.511-.392a.308.308,0,0,1,.356-.319c.21.018.3-.1.474,0a.255.255,0,0,0,.31-.146c.082-.21.2-.3.438-.228s.2-.055.274-.146.091-.137.21-.1.365-.1.547-.219.474-.52.821-.483.584-.237.912-.237a.128.128,0,0,0,.137-.137c0-.173.091-.2.192-.3a2.362,2.362,0,0,1,1.04-.511c.182-.064.392-.091.493-.283a1.706,1.706,0,0,1,.912-.693c.173-.082.328-.146.383-.337s.164-.246.356-.164a.42.42,0,0,0,.575-.228c.082-.219.2-.237.383-.255a3.01,3.01,0,0,0,.41-.1.2.2,0,0,0,.155-.319,1.823,1.823,0,0,0-.192-.274,1.824,1.824,0,0,0,1.012-.721c.055-.055.1-.128.173-.073.365.265.447-.064.5-.274a1.943,1.943,0,0,1,1.341-1.459c.2-.073.292-.164.21-.383s.274-.584.4-.584c.328,0,.52-.1.429-.465a.091.091,0,0,1,0-.091c.347-.082.283-.319.246-.566s.119-.292.21-.41.192,0,.292,0a.215.215,0,0,0,.2-.255,1.231,1.231,0,0,1,.42-1.085c.246-.228.456-.374.3-.721a.421.421,0,0,1,.1-.228.5.5,0,0,0,.173-.42.21.21,0,0,1,.109-.228c.337-.091.31-.374.4-.611s.347-.538.292-.912a.345.345,0,0,1,.128-.228.721.721,0,0,0,.292-.812c0-.128,0-.292.1-.328.438-.146.365-.493.383-.794a3.3,3.3,0,0,1,.173-.912,7.481,7.481,0,0,0,.337-.739c.064-.31.374-.593.173-.912s-.21-.429.055-.648V67.7a6.591,6.591,0,0,1,.055-.912c0-.164.146-.328,0-.493-.237-.365,0-.83-.2-1.195v-.146a.912.912,0,0,0-.064-.848.192.192,0,0,1,0-.237c.182-.219.091-.41,0-.62a.848.848,0,0,1-.046-.483,2.107,2.107,0,0,0,0-.857,1.341,1.341,0,0,1,0-.912.427.427,0,0,0-.073-.292c-.474-1.414-.912-2.837-1.432-4.25,0-.119,0-.3-.192-.337a.27.27,0,0,1-.182-.42c.1-.21,0-.274,0-.4a6.385,6.385,0,0,1-.52-1.925c-.3-.447,0-1.076-.383-1.487v-.146a.994.994,0,0,0-.055-.912,1.158,1.158,0,0,1,.155-1.313c.146-.192.192-.319.1-.493s-.192-.483.182-.611c.119,0,.1-.182.192-.246s0-.383.055-.42c.383-.155.219-.52.383-.757a1.2,1.2,0,0,1,.328-.4,2.38,2.38,0,0,0,.584-.246c.164-.164.055-.383.128-.538s.383-.128.465-.374a2.18,2.18,0,0,1,.374-.5c.192-.228.493-.347.62-.575.237-.429.675-.666.912-1.058.082-.109.192-.31.337-.319.392,0,.42-.292.538-.547s.21-.493.5-.565c.429-.1.429-.091.182-.483a1.961,1.961,0,0,0,.42-.2c.237-.173.091-.429.192-.629s.483-.219.474-.529v-.064c0-.2.109-.255.265-.337s.52-.255.438-.62a.672.672,0,0,1,.082-.192c.027-.064.128-.383.356-.438s.046-.42.21-.5.292-.5.566-.693.292-.42.529-.565a.21.21,0,0,0,.091-.274,2.734,2.734,0,0,0-.137-.383c-.1-.21.046-.4.055-.6.438-.091.219-.8.784-.8.073,0,.055-.146.055-.237s-.082-.173-.164-.246,0-.255.1-.347a.4.4,0,0,1,.2,0c.264-.046.328-.155.237-.392s-.164-.2-.164-.31c0-.337.465-.6.246-1a1.4,1.4,0,0,1,.109-.173c.046-.055.164-.109.146-.21-.091-.465.638-.812.265-1.323.228-.137.164-.292.091-.493s.2-.192.3-.3-.228-.292,0-.438a.483.483,0,0,0,.182-.666c0-.109-.137-.265-.091-.31.2-.237,0-.429,0-.638s-.182-.328-.1-.493a.7.7,0,0,0,0-.73.228.228,0,0,1,0-.2c.328-.593-.319-1.113-.064-1.7-.255-.474-.109-1.058-.4-1.514a.21.21,0,0,1,.055-.283c.347-.155.21-.392.146-.6-.237-.7-.483-1.4-.721-2.1-.055-.146-.073-.274-.31-.274s-.3-.292-.173-.474c.219-.319.119-.611-.246-.657a.648.648,0,0,1-.593-.483c-.119-.6-.775-.912-.83-1.5a.182.182,0,0,0-.073-.073,3.174,3.174,0,0,1-.976-1.541c0-.109,0-.237-.21-.237-.31,0-.438-.3-.529-.493-.173-.42-.584-.711-.629-1.195-.246-.1-.237-.347-.319-.547s0-.173-.155-.192c-.41-.064-.538-.383-.638-.711a.388.388,0,0,0-.2-.356,2,2,0,0,1-.675-.438c-.31-.283-.629-.566-.912-.83-.091-.073-.164-.164-.146-.255.073-.41-.556-.429-.456-.848h-.137c-.237.064-.365-.073-.483-.228h-.319" transform="translate(-0.998 -0.726)" fill="#00934d"/>
    <path id="Trazado_1890" data-name="Trazado 1890" d="M111.148,8.112c-.182.265-.255.593-.52.8-.046,0-.046.119-.082.128-.547.173-.73.766-1.213.994h-.055c-.237.693-1.031.958-1.323,1.633-.091.21-.2.611-.611.593-.164.255-.337.52-.493.784,0,.055,0,.173-.064.192-.383.119-.566.438-.8.711-.1.1-.219.173-.237.328s0,.128-.064.137c-.4.055-.465.456-.711.648a10.772,10.772,0,0,1-.967.912c-.374.237-.611.857-1.131,1.067a.173.173,0,0,0-.1.173.319.319,0,0,1-.146.274,2.472,2.472,0,0,0-1.04,1.2s0,.073-.064.082c-.6.073-.739.675-1.131.994a7.534,7.534,0,0,0-.83.912A10.945,10.945,0,0,0,98.443,21.9a10.375,10.375,0,0,1-.857.912c-.119.164-.31.274-.328.493a.228.228,0,0,1-.164.2c-.474.082-.5.666-.912.784,0,.4-.483.511-.6.912s-.529.629-.784.912a12.5,12.5,0,0,0-.912,1.076,1.268,1.268,0,0,1-.319.265c-.137.073-.292.146-.328.328a.483.483,0,0,1-.274.31.347.347,0,0,0-.173.119c-.091.164.119.5-.31.474-.091.219-.365.31-.456.483-.274.52-.912.757-1.085,1.35-.055.155-.319.347-.493.5-.392.319-.62.775-.994,1.113a1.569,1.569,0,0,1-.438.374s-.119.064-.119.1c-.082.511-.575.675-.912,1.012a.675.675,0,0,0-.164.319c0,.091,0,.182-.119.219s-.392.164-.356.447-.283.073-.292.173c-.055.429-.584.493-.684.912,0,.091-.109.128-.182.182a1.906,1.906,0,0,0-.666.848v.055c-.42.1-.511.556-.812.766-.155.109-.292.173-.292.383a.146.146,0,0,1-.1.109c-.474.1-.721.52-.967.83A9.424,9.424,0,0,0,82.372,40a2.007,2.007,0,0,1-.456.465c-.119.109-.255.182-.292.356a.246.246,0,0,1-.119.155,2.472,2.472,0,0,0-.912,1.058s0,.073-.055.082c-.42.164-.638.547-.967.812s-.438.255-.365.566c0,.064-.082.091-.146.128a2.609,2.609,0,0,0-.912.748c-.064.1-.155.283-.365.274-.064,0-.192.119-.182.164,0,.383-.319.438-.52.556-.337.182-.456.529-.721.766-.128.109-.228.31-.392.4-.3.173-.41.483-.62.721a9.449,9.449,0,0,0-1.076,1.1c-.21.337-.611.52-.757.912-.447.137-.538.684-.967.848a.328.328,0,0,0-.128.091c-.556.912-1.523,1.432-2.125,2.3a9.048,9.048,0,0,1-1.222,1.359c0,.374-.5.447-.538.812-.52.3-.739.912-1.186,1.25a2.454,2.454,0,0,0-.565.693c-.1.182-.155.347-.383.392-.064,0-.173.073-.173.109,0,.374-.511.429-.575.775,0,.119-.146.146-.237.2a.648.648,0,0,0-.392.41.255.255,0,0,1-.2.228.274.274,0,0,0-.219.137,2.992,2.992,0,0,1-.967,1.058c-.2.164-.219.456-.474.565-.064.42-.657.474-.675.912-.584.511-.976,1.177-1.514,1.724a4.469,4.469,0,0,0-.775,1.022c-.073.137-.228.173-.319.283a8.875,8.875,0,0,1-1.095,1.323c0,.465-.438.538-.666.812s-.456.337-.493.657c0,.137-.173.173-.274.246s-.2.137-.3.219c-.255.219-.173.62-.511.8a2.462,2.462,0,0,0-.684.657c-.52.6-1.058,1.195-1.6,1.824a2.235,2.235,0,0,0-.575.721.42.42,0,0,1-.265.246c-.164.073-.328.137-.328.365a.219.219,0,0,1-.109.164c-.429.137-.538.593-.912.821a.365.365,0,0,0-.182.31c0,.073,0,.173-.073.182-.474,0-.575.62-1.012.711-.237.055-.128.319-.292.465-.684.666-1.3,1.4-1.961,2.08a12.378,12.378,0,0,0-.857.976,2.982,2.982,0,0,1-.693.7c-.328.2-.42.547-.711.766s-.255.383-.5.474c-.082,0-.119.082-.091.164s-.064.21-.164.274c-.438.255-.684.757-1.186.912-.146.429-.575.638-.812,1a2.435,2.435,0,0,1-.575.611.41.41,0,0,0-.2.3c0,.046,0,.137-.055.137-.611.137-.684.775-1.076,1.113a16.418,16.418,0,0,0-1.286,1.478c-.456.456-.839.967-1.277,1.441a5.746,5.746,0,0,0-1.277,1.569,1.769,1.769,0,0,0-.675.648c-.265.356-.611.648-.912,1s-.739.8-1.049,1.24c-.2.274-.474.447-.666.684l-.565.666a4.351,4.351,0,0,1-.912.912,4.889,4.889,0,0,0-.985,1,4.65,4.65,0,0,1-.474.474c-.474.374-.73.912-1.213,1.3a6.022,6.022,0,0,1-.629.529h0c0,.52-.511.7-.794.976s-.511.73-.912.912a.236.236,0,0,0-.173.119c-.21.456-.748.62-.967,1.076,0,.091-.137.1-.21.146s-.31.128-.246.347-.064.109-.128.137c-.511.21-.693.8-1.222.994-.046.52-.766.5-.839.994-.483.228-.666.739-1.058,1.04-.109.091-.173.155-.173.292s-.082.137-.164.182a5.473,5.473,0,0,0-1.341,1.24c-.274.328-.675.566-.912.912-.337-.082-.337.237-.447.392a.912.912,0,0,1-.374.356c-.2.109-.483.192-.493.5,0,.146-.155.119-.237.182s-.392.192-.4.456-.146.128-.228.182-.456.21-.474.5c0,0-.055.091-.1.109-.529.228-.794.739-1.231,1.067-.082.055-.237.146-.228.192,0,.383-.356.429-.547.593s-.392.274-.292.565v.146c-.41.173-.629.593-1.022.794,0,0-.119.055-.128.082-.055.365-.365.584-.5.912s-.192.483-.493.556-.155.392-.328.493-.41.109-.529.3a.693.693,0,0,0-.146.392c.055.319-.164.52-.31.748-.255.392-.483.8-.985.912-.064,0-.109.137-.155.21h-.109c0-.192-.192-.173-.319-.192a4.287,4.287,0,0,1-.985-.319c-.2-.091-.337-.155-.274-.4a.255.255,0,0,0-.246-.328c-.228,0-.246-.173-.21-.383.082-.356-.055-.775.41-1a.3.3,0,0,1,.064-.192c.064-.055.064-.119.1-.119a1.55,1.55,0,0,1,.356,0c0-.137-.064-.265.091-.365s.1-.182.219-.228a.456.456,0,0,0,.347-.52c0-.073.073-.164.109-.155.255.073.328-.219.465-.237.447-.055.483-.347.52-.666,0-.164,0-.319.265-.3a.1.1,0,0,0,.119-.082c0-.383.365-.7.237-1.1a.374.374,0,0,1,.119-.42c.292-.292.246-.483-.091-.775a.192.192,0,0,1-.073-.219.912.912,0,0,1,.319-.465c.173-.164.529-.337.21-.666a.182.182,0,0,1,0-.246c.2-.182.064-.42.155-.62s.064-.365-.173-.447-.21-.173-.091-.283c.42-.374-.1-.666,0-1.012-.255-.1-.164-.265-.064-.42a.264.264,0,0,0-.082-.4.456.456,0,0,1-.137-.638c0-.064.073-.146,0-.173-.319-.082-.228-.3-.146-.493a.383.383,0,0,0-.091-.42c-.173-.146-.182-.41-.429-.483-.082,0-.182-.1-.128-.192.173-.255.055-.392-.146-.538a.347.347,0,0,1-.119-.328.476.476,0,0,0-.182-.529.792.792,0,0,1-.328-.657.328.328,0,0,0-.1-.337c-.283-.21,0-.757-.511-.821a.1.1,0,0,1,0-.091c.137-.246,0-.3-.219-.365s-.283-.1-.082-.383.119-.365-.137-.42a.821.821,0,0,1-.447-.164c-.1-.21.319-.356.055-.538s.109-.447-.2-.529a.1.1,0,0,1,0-.173.255.255,0,0,0-.091-.429c-.21-.082-.128-.356-.3-.392a.317.317,0,0,1-.274-.4c.055-.237,0-.41-.337-.41s-.365-.128-.219-.383c0-.046.046-.119,0-.128-.337,0-.219-.246-.164-.42s-.082-.374-.155-.556-.374-.41-.328-.721c0-.064,0-.119-.064-.128-.31-.055-.237-.337-.347-.511s-.173-.584-.529-.666c-.073,0-.082-.1-.119-.155-.2-.3-.219-.684-.456-.912a.109.109,0,0,1,0-.146c.155-.228.091-.31-.182-.3s-.347-.073-.274-.319v-.146a2.736,2.736,0,0,1-.866-.985c-.2-.356-.21-.821-.62-1.049a.378.378,0,0,0-.055-.2c-.073-.228.137-.593-.319-.629h0c.109-.31-.2-.465-.246-.73a5.81,5.81,0,0,0-.274-.657c-.064-.2-.283-.374-.091-.629a.635.635,0,0,1-.137-.119c-.027-.046-.42-.292-.328-.538s0-.255,0-.383-.42-.319-.173-.62c0,0-.073-.109-.146-.119-.337,0-.319-.155-.137-.4s.164-.538-.255-.6c-.255-.046-.392-.219-.228-.383a.543.543,0,0,0,.073-.584.6.6,0,0,1,0-.4.556.556,0,0,0-.192-.638.547.547,0,0,1-.21-.556c.046-.228.055-.5-.283-.575-.155,0-.164-.155-.109-.292a1.4,1.4,0,0,0,0-1.259s-.046-.064,0-.091c.119-.337-.164-.584-.164-.912s.164-.638-.21-.821a.055.055,0,0,1,0-.055c.1-.511-.146-1.031.055-1.551,0-.073.064-.137,0-.2S0,73.053.091,72.98c.31-.255-.155-.292-.082-.465h0c.137-.465,0-.912.21-1.4a.3.3,0,0,0,0-.2c0-.347-.265-.7.064-1.04v-.1a4.259,4.259,0,0,1,.109-1.824.219.219,0,0,0-.055-.283c-.374-.237-.228-.565-.119-.912a1.2,1.2,0,0,1,.1-.365c.082-.283-.1-.6.055-.794a.821.821,0,0,0,.155-.912A.21.21,0,0,1,.6,64.406a.164.164,0,0,0,0-.228.912.912,0,0,1,0-.657,9.176,9.176,0,0,1,.31-1.031c.246-.638.137-1.4.739-1.906v-.091c.055-.392.483-.638.438-1.058.493-.483.483-1.25,1.067-1.678,0-.4.556-.611.429-1.067,0-.109.228-.128.119-.3s0-.292.155-.374a1.2,1.2,0,0,0,.547-.748c0-.1,0-.219.128-.274a2.226,2.226,0,0,0,.684-.684c.3-.447.766-.794,1.058-1.268a.447.447,0,0,1,.2-.128c.374-.182.511-.556.7-.912s.192-.255.365-.192.274.073.319-.055c.21-.593.976-.648,1.2-1.222,0-.073.155-.055.246-.064a.812.812,0,0,0,.775-.42.237.237,0,0,1,.21-.137c.292,0,.42-.173.584-.365s.173-.383.429-.356.265,0,.319-.182.182-.155.31-.137a1.863,1.863,0,0,0,.319,0c.109,0,.164,0,.155-.155,0-.31,0-.356.337-.328.091,0,.228.119.274,0,.192-.5.538-.483.912-.365a.182.182,0,0,0,.155,0,6.649,6.649,0,0,0,1.5-.757c.064-.064.146-.146.219-.146.283,0,.556,0,.711-.319,0-.064.164,0,.246,0a1.1,1.1,0,0,0,1-.274.283.283,0,0,1,.237-.1,1.824,1.824,0,0,0,1.012-.21c.128,0,.31,0,.383-.119a.5.5,0,0,1,.529-.192.33.33,0,0,0,.456-.219,1.341,1.341,0,0,1,.775-.556,1.24,1.24,0,0,0,.8-.52c.064-.119.219-.246.347-.21.547.137.8-.493,1.3-.493.128,0,.21-.31.5-.255.119,0,.274-.274.52-.228.082,0,.146-.091.2-.173a1.2,1.2,0,0,1,.556-.474,3.137,3.137,0,0,0,.721-.4,3.548,3.548,0,0,0,.7-.812.21.21,0,0,0,0-.237c-.119-.219-.082-.374.219-.456s.337-.529.611-.721c-.274-.374.128-.41.283-.62s.721-.483.465-.985a.192.192,0,0,1,.119-.265c.6-.155.565-.757.857-1.122a1.058,1.058,0,0,0,.246-.565c0-.237-.1-.529.137-.675s.082-.52.319-.684.192-.337.237-.52a1.824,1.824,0,0,1,.2-.447,2.235,2.235,0,0,0,.42-1.423c-.091-.374-.082-.383.347-.529.192-.073.319-.182.283-.383s.073-.3,0-.456a.237.237,0,0,1,.109-.319c.21-.109.283-.237.192-.456s0-.2.119-.274.128-.1.073-.219.064-.365.164-.547.483-.52.41-.857.182-.593.137-.912a.128.128,0,0,1,.128-.146c.173,0,.2-.119.292-.228a2.335,2.335,0,0,0,.41-1.058c0-.192,0-.392.228-.511a1.66,1.66,0,0,0,.611-.912c.064-.173.119-.337.31-.41s.228-.182.128-.365a.4.4,0,0,1,.173-.575c.21-.1.21-.228.219-.4a3.165,3.165,0,0,1,.055-.41.21.21,0,0,1,.31-.182,1.122,1.122,0,0,1,.292.155,1.824,1.824,0,0,1,.638-1.058c0-.055.109-.119,0-.182-.3-.319,0-.438.228-.511a1.97,1.97,0,0,0,1.35-1.45c.046-.219.137-.31.374-.255s.556-.328.538-.447c0-.319.046-.52.438-.465,0,0,.082,0,.082-.055.046-.356.292-.31.547-.3s.283-.137.4-.246,0-.182,0-.274a.239.239,0,0,1,.237-.237,1.277,1.277,0,0,0,1.058-.52c.2-.255.328-.483.693-.365a.426.426,0,0,0,.228-.119.529.529,0,0,1,.41-.219c.091,0,.2,0,.219-.128.055-.337.347-.337.575-.456a1.741,1.741,0,0,1,.912-.374.337.337,0,0,0,.219-.146.757.757,0,0,1,.8-.374c.128,0,.292,0,.319-.137.091-.438.465-.4.766-.447a3.493,3.493,0,0,0,.912-.274,8.01,8.01,0,0,1,.721-.4c.3-.1.556-.42.912-.274s.465.164.657-.119c0-.055.164-.064.246-.055a7.032,7.032,0,0,0,.976-.164c.164,0,.319-.173.493-.091.392.2.839-.119,1.24.073h.155a.912.912,0,0,1,.866,0,.192.192,0,0,0,.237,0c.2-.2.4-.137.629-.064a.912.912,0,0,0,.5,0,2.171,2.171,0,0,1,.912-.055,1.35,1.35,0,0,0,.912-.082.566.566,0,0,1,.3.046l4.488.912c.128,0,.31,0,.365.146a.306.306,0,0,0,.447.137c.2-.109.274,0,.42,0a6.722,6.722,0,0,0,2.007.292c.493.246,1.095-.137,1.56.219.055,0,.1,0,.137-.055a1.058,1.058,0,0,1,.912,0,1.24,1.24,0,0,0,1.323-.292c.182-.164.3-.228.5-.146s.511.128.593-.255c0-.109.182-.119.237-.2s.392,0,.42-.1c.119-.392.511-.274.73-.456a1.158,1.158,0,0,0,.365-.365,2.618,2.618,0,0,1,.347-.456c.146-.182.374-.091.529-.182s.091-.392.337-.5a1.824,1.824,0,0,0,.465-.41c.21-.21.292-.511.52-.666.41-.274.611-.721.976-1.031.1-.091.292-.219.283-.365,0-.374.265-.429.511-.575s.474-.255.52-.547,0-.429.474-.228a1.888,1.888,0,0,1,.164-.429c.146-.255.42-.137.62-.255s.164-.493.483-.511h.073c.2,0,.246-.137.31-.292s.219-.529.593-.493c.055,0,.128-.064.182-.1s.383-.173.41-.392.42-.091.483-.255c.128-.31.483-.337.648-.62s.4-.337.52-.584a.219.219,0,0,1,.274-.109,2.983,2.983,0,0,1,.41.091c.219.073.4-.091.6-.119,0-.438.794-.3.73-.848,0-.073.146-.064.237-.082s.192.073.264.137.265,0,.356-.137,0-.128,0-.2c0-.255.119-.337.365-.274s.228.146.337.128c.356,0,.566-.511.994-.337a1.709,1.709,0,0,0,.164-.128c.046-.046.1-.173.2-.164.493,0,.757-.7,1.323-.4h0c.109-.237.283-.192.493-.146S88.51.77,88.61.66s.328.192.447-.055a.511.511,0,0,1,.657-.246c.109,0,.283.109.328.064.219-.228.438-.055.648-.055s.356.146.52,0a.721.721,0,0,1,.739,0,.283.283,0,0,0,.21,0C92.724-.015,93.326.56,93.9.25c.5.2,1.085,0,1.578.228a.21.21,0,0,0,.283-.091c.128-.347.374-.237.6-.192.739.146,1.478.31,2.216.474.155,0,.283,0,.31.265s.328.265.5.119.611-.182.693.173a.648.648,0,0,0,.556.52c.629.055.976.657,1.614.648a.088.088,0,0,1,.082.064,3.284,3.284,0,0,0,1.669.775c.119,0,.246,0,.274.182.046.3.347.392.547.456.447.128.794.493,1.286.493.128.228.383.192.6.246.073,0,.173,0,.2.128.109.392.447.483.794.547.137,0,.31,0,.383.155a2.061,2.061,0,0,0,.52.611,10.048,10.048,0,0,1,.912.839c.082.073.182.146.274.119.41-.119.493.493.912.347,0,0,.055.082,0,.137a.462.462,0,0,0,.283.438.623.623,0,0,0,.055.31" transform="translate(0 0)" fill="#00571c"/>
    <path id="Trazado_1891" data-name="Trazado 1891" d="M93.639,6.653a.438.438,0,0,0,.438-.319.182.182,0,0,1,.173-.146,2.9,2.9,0,0,0,.584-.173,1.879,1.879,0,0,1,1.2.109s.109.073.109.109a1.414,1.414,0,0,0,.337.857.191.191,0,0,1,0,.055c-.155.237,0,.529-.173.766,0,.064-.1.137-.082.21a.793.793,0,0,1-.265.739.42.42,0,0,0-.109.365c0,.091.055.228,0,.274-.3.219-.4.6-.711.8l-.684.429a.487.487,0,0,0-.119.1c-.21.511-.711.429-1.1.556h-.155c-.4.237-.784,0-1.177,0a.3.3,0,0,1-.192-.128,2.736,2.736,0,0,1-.575-1.614v-.2a.6.6,0,0,0,.128-.547.4.4,0,0,1,.237-.347.374.374,0,0,0,.21-.283c0-.192.21-.228.338-.319s.328-.192.347-.41c0-.082.1-.119.164-.164.283-.228.675-.319.839-.684l.192-.082" transform="translate(-8.011 -0.512)"/>
    <path id="Trazado_1892" data-name="Trazado 1892" d="M67.893,34.758a.8.8,0,0,0,.392-.164,1.186,1.186,0,0,1,.775-.219.438.438,0,0,0,.265,0,.319.319,0,0,1,.41.055c.046.055.109.119.173.109.347,0,.593.237.912.255a.255.255,0,0,1,.21.137c.128.173.246.356.365.538a.538.538,0,0,1,.146.383.31.31,0,0,0,.064.265c.119.119.064.255.073.392,0,.6-.5.912-.711,1.4-.283.638-.912.638-1.45.775-.228.064-.42.1-.593-.1,0-.055-.146,0-.219,0a.337.337,0,0,1-.42-.055,1.386,1.386,0,0,0-.7-.374.319.319,0,0,1-.21-.146,2.417,2.417,0,0,1-.456-.794c-.073-.456-.31-.912.128-1.4a7.853,7.853,0,0,0,.584-.912c.091-.119.155-.21.283-.2" transform="translate(-5.871 -3.005)"/>
    <path id="Trazado_1893" data-name="Trazado 1893" d="M83.253,21.514a2.216,2.216,0,0,1-.082.593c-.064.283-.274.483-.319.784a2.735,2.735,0,0,1-.264.648c-.155.319-.465.41-.638.638a.912.912,0,0,1-.657.4h-.073a1.149,1.149,0,0,1-1.824-.42c-.109-.2-.41-.219-.447-.347a1.7,1.7,0,0,0-.137-.52,1.2,1.2,0,0,1-.109-1.122c.137-.374.529-.556.629-.912s.547-.529.839-.766a.748.748,0,0,1,.547-.192c.182,0,.31-.137.447-.219.438-.265.474-.255.848.055a1.66,1.66,0,0,0,.41.237c.109.055.255.046.337.164a2.864,2.864,0,0,1,.5.912" transform="translate(-6.91 -1.736)"/>
    <path id="Trazado_1894" data-name="Trazado 1894" d="M34.016,77.573a4.087,4.087,0,0,0,.1.547c.091.328-.128.575-.246.839-.055.1-.146.173-.109.3a.283.283,0,0,1-.128.319c-.146.109-.319.182-.31.4v.055c-.347-.091-.456.347-.766.347a.192.192,0,0,0-.119,0,1.4,1.4,0,0,1-1.4.228,1.678,1.678,0,0,1-1.24-1.414.5.5,0,0,0-.109-.292.246.246,0,0,1,0-.283c.082-.173-.119-.319-.046-.5a1.368,1.368,0,0,1,.493-.766.2.2,0,0,0,.155-.128c.109-.511.62-.566.912-.83a1.623,1.623,0,0,1,1.25-.2,1.359,1.359,0,0,1,1.058.565s.055.064.082.064c.42.055.474.356.474.7" transform="translate(-2.604 -6.681)"/>
    <path id="Trazado_1895" data-name="Trazado 1895" d="M110.714,8.81a1.058,1.058,0,0,0,.082.4.812.812,0,0,1-.064.721c-.1.173-.128.383-.228.566a.784.784,0,0,1-.319.365.179.179,0,0,0-.137.119,3.065,3.065,0,0,1-1.213.967.976.976,0,0,1-.6.073,1.669,1.669,0,0,1-1.687-.912c-.1-.2-.264-.365-.365-.566a.556.556,0,0,1,.073-.711,1.286,1.286,0,0,0,.228-.648.4.4,0,0,1,.182-.319,14.283,14.283,0,0,1,1.368-.857,2.417,2.417,0,0,1,1.76-.274c.173,0,.237.2.365.283a1.368,1.368,0,0,1,.556.821" transform="translate(-9.325 -0.662)"/>
    <path id="Trazado_1896" data-name="Trazado 1896" d="M18.467,107.457c0-.155-.109-.246-.192-.356a.478.478,0,0,1-.055-.611.173.173,0,0,0,.064-.137,1.2,1.2,0,0,1,.739-1.14c.046,0,.1-.073.109-.109.091-.41.42-.5.766-.584.073,0,.146,0,.173-.109.073-.228.228-.21.4-.173a1.286,1.286,0,0,0,.83,0,.648.648,0,0,1,.675.192.246.246,0,0,0,.31.073c.155-.082.246,0,.356.109a1.158,1.158,0,0,1,.237.994.319.319,0,0,0,.055.192c.046.064.064.137,0,.192a.392.392,0,0,0-.082.392.257.257,0,0,1-.192.255.41.41,0,0,0-.265.447c.055.246-.137.292-.265.374a7.123,7.123,0,0,1-1.085.7,1.97,1.97,0,0,1-1.56,0,.237.237,0,0,1-.1-.109c-.064-.146-.137-.146-.265-.055s-.292.082-.337-.082a.42.42,0,0,0-.246-.3c-.1,0-.082-.119-.082-.2" transform="translate(-1.593 -9.148)"/>
    <path id="Trazado_1897" data-name="Trazado 1897" d="M39.665,49.947a1.058,1.058,0,0,0-.119-.538c-.082-.119,0-.219.1-.292a.31.31,0,0,0,.119-.347.182.182,0,0,1,0-.182c.21-.246.319-.575.675-.711a3.029,3.029,0,0,0,.483-.3.221.221,0,0,0,.155-.128c0-.3.192-.255.42-.283a2.736,2.736,0,0,0,.912-.119.21.21,0,0,1,.228,0,.538.538,0,0,0,.511.1.62.62,0,0,1,.6.328c.128.192.246.383.374.565a.374.374,0,0,1,0,.5.274.274,0,0,0-.073.246.511.511,0,0,1-.128.511c-.055,0,0,.128,0,.192a.246.246,0,0,1-.109.3c-.164.109-.091.31-.2.456a1.688,1.688,0,0,1-.347.374,2.353,2.353,0,0,1-3.5-.5.73.73,0,0,1-.064-.182" transform="translate(-3.473 -4.12)"/>
    <path id="Trazado_1898" data-name="Trazado 1898" d="M51.135,24.677a1.168,1.168,0,0,0-.438.164.356.356,0,0,1-.465,0c-.237-.292-.6-.265-.912-.392a.848.848,0,0,1-.42-.356,4.989,4.989,0,0,0-.538-.784c-.091-.091-.128-.182,0-.292a1.5,1.5,0,0,0,.292-.529.392.392,0,0,1,.146-.219A.21.21,0,0,0,48.882,22c0-.155,0-.255.155-.356s.511-.246.575-.593c0-.1.255-.173.374-.274a1.943,1.943,0,0,1,1.24-.474c.31,0,.8-.091.967.4a2.207,2.207,0,0,0,.347.547c.1.146.219.246.119.483a1,1,0,0,0,0,.483c0,.164,0,.337,0,.5a.52.52,0,0,1-.128.41,4.433,4.433,0,0,0-.474.739.4.4,0,0,1-.146.155.6.6,0,0,0-.383.438c-.046.173-.265.219-.465.237" transform="translate(-4.244 -1.771)"/>
    <path id="Trazado_1899" data-name="Trazado 1899" d="M29.093,61.031c.265.055.465-.109.684-.155a1.341,1.341,0,0,1,1.095.21c.064,0,.109.128.192.128.31,0,.493.283.794.319.064,0,.137.064.128.119a1.628,1.628,0,0,0,0,.556,8.765,8.765,0,0,1-.228,1.058v.073c-.365.137-.4.584-.73.748a.246.246,0,0,0-.137.091c-.319.666-.994.474-1.523.62-.1,0-.21,0-.255.137s-.146.155-.255.055a.693.693,0,0,0-.374-.164.739.739,0,0,1-.6-.31h0c-.584-.137-.383-.62-.493-.994s.137-.52.082-.794c0-.137.164-.283.255-.438a1.487,1.487,0,0,1,.565-.675c.3-.155.575-.365.857-.547" transform="translate(-2.405 -5.335)"/>
    <path id="Trazado_1900" data-name="Trazado 1900" d="M71.125,52.8c-.246.1-.5.046-.73.155a.128.128,0,0,1-.164,0c-.119-.219-.337-.228-.547-.265a.483.483,0,0,1-.264-.2,1.067,1.067,0,0,0-.356-.4A.164.164,0,0,1,69,52.007c.1-.264-.119-.547.091-.8s.383-.638.629-.912a.182.182,0,0,0,0-.155c0-.3.082-.438.41-.474s.493-.073.62-.337a.146.146,0,0,1,.109-.073,1.542,1.542,0,0,0,.648-.319.657.657,0,0,1,.6-.109.283.283,0,0,0,.21,0c.182-.082.328-.109.465.073s.128,0,.192,0a.283.283,0,0,1,.42.146c.073.137.173.255.255.392a.575.575,0,0,1-.073.775c0,.274-.182.52-.2.757a1.35,1.35,0,0,1-.42.8c-.1.109-.228.173-.255.347s-.42.41-.648.4a.648.648,0,0,0-.447.146.757.757,0,0,1-.483.146" transform="translate(-6.065 -4.274)"/>
    <path id="Trazado_1901" data-name="Trazado 1901" d="M15.582,76.544a.511.511,0,0,1,0-.383.155.155,0,0,0,0-.1c-.2-.219,0-.374.119-.538a.794.794,0,0,0,.146-.365.236.236,0,0,1,.164-.219,2.631,2.631,0,0,0,.337-.319c.109-.1.447-.219.556-.456.347,0,.584-.237.912-.356.62-.228,1.669-.21,2.016.593a4.032,4.032,0,0,1,.292,1.067c.091.556-.356.839-.556,1.24,0,.073-.128.128-.146.219a.266.266,0,0,1-.274.192c-.146-.009-.2,0-.21.064,0,.283-.237.255-.429.283h-.082c-.529.429-1.095.21-1.633.109a.994.994,0,0,1-.629-.429.392.392,0,0,0-.219-.164c-.274,0-.356-.228-.383-.456" transform="translate(-1.362 -6.464)"/>
    <path id="Trazado_1902" data-name="Trazado 1902" d="M93.548,24.75V24.6a.447.447,0,0,1,.1-.693.128.128,0,0,0,0-.119.374.374,0,0,1,.155-.42.27.27,0,0,1,.055-.164,1.067,1.067,0,0,1,.447-.629c.274-.182.648-.265.748-.648H95.1c.337.046.566-.292.912-.283a.2.2,0,0,0,.228-.173.143.143,0,0,1,.182-.146c.109.018.483,0,.648.246a.109.109,0,0,0,.055.055c.447.137.584.547.812.912.091.137.173.265,0,.392s-.091.182-.073.292c.091.474-.064.684-.42,1a2.49,2.49,0,0,0-.62.784.438.438,0,0,1-.173.192,2.016,2.016,0,0,1-.912.41.757.757,0,0,0-.3.164.41.41,0,0,1-.547,0,.912.912,0,0,0-.6-.255c-.493-.073-.629-.219-.675-.7" transform="translate(-8.212 -1.862)"/>
    <path id="Trazado_1903" data-name="Trazado 1903" d="M11.043,87.444c.064.173.109.356-.109.483,0,0-.055.073-.046.091.146.237-.064.383-.137.575a.748.748,0,0,1-.3.347c-.2.119-.41.21-.474.474a.337.337,0,0,1-.21.192c-.328.073-.629.246-.967.292a2.254,2.254,0,0,0-.265.055.629.629,0,0,1-.857-.319.429.429,0,0,0-.392-.219.565.565,0,0,1-.565-.584v-.739a1.049,1.049,0,0,1,.228-.666,5.665,5.665,0,0,0,.319-.547,1.231,1.231,0,0,1,.839-.638,3.32,3.32,0,0,0,.784-.328,1.3,1.3,0,0,1,1.186.146s.055.082.091.091c.365.1.5.42.693.693a.912.912,0,0,1,.228.584" transform="translate(-0.591 -7.532)"/>
    <path id="Trazado_1904" data-name="Trazado 1904" d="M46.9,63.173a2.026,2.026,0,0,0,.091.456V63.7c-.219.374-.137.83-.365,1.2,0,.073-.128.091-.2.137s-.474.219-.5.529c0,.091-.119.155-.21.164a5.918,5.918,0,0,1-.8.146,5,5,0,0,1-.657.064c-.237-.027-.447-.3-.7-.42a1.04,1.04,0,0,0-.465-.155.365.365,0,0,1-.383-.255,1.693,1.693,0,0,0-.091-.182c-.255-.374-.255-.4,0-.794.055-.073.1-.137.046-.21a.228.228,0,0,1,.128-.383c.347-.1.429-.41.529-.648a.547.547,0,0,1,.5-.356.739.739,0,0,0,.392-.146,2.381,2.381,0,0,1,1.2-.52.857.857,0,0,1,.739.192s.055.082.091.091a.912.912,0,0,1,.6,1.012" transform="translate(-3.729 -5.425)"/>
    <path id="Trazado_1905" data-name="Trazado 1905" d="M29.975,50.308a.994.994,0,0,1-.155.766,7.2,7.2,0,0,0-.684,1.1,1.222,1.222,0,0,1-.62.7,3.193,3.193,0,0,0-.529.328.766.766,0,0,1-1.122-.073c-.109-.1-.3-.082-.365-.192-.228-.383-.648-.62-.848-.967a1.213,1.213,0,0,1-.046-1.213V50.7c-.046-.347.237-.438.456-.584l1.222-.784a.8.8,0,0,1,1.085.055.274.274,0,0,0,.319,0c.091,0,.2-.1.283,0,.374.255.83.456.912.912" transform="translate(-2.238 -4.308)"/>
    <path id="Trazado_1906" data-name="Trazado 1906" d="M65.9,23.65a4.5,4.5,0,0,1-1.468.064c-.073,0-.182,0-.219-.073a3.265,3.265,0,0,0-.529-.684c-.237-.246-.365-.474-.109-.784-.137-.31.2-.565.155-.866,0-.091.109-.146.192-.182a1.368,1.368,0,0,0,.447-.438,1.751,1.751,0,0,1,1.049-.638,6.24,6.24,0,0,1,1.167,0,.784.784,0,0,1,.648.292c.255.31.584.62.511,1.113a.62.62,0,0,1-.146.374.456.456,0,0,0-.128.483c.055.192-.182.429-.365.6a.638.638,0,0,0-.237.337.347.347,0,0,1-.228.21,3.648,3.648,0,0,0-.775.265" transform="translate(-5.576 -1.747)"/>
    <path id="Trazado_1907" data-name="Trazado 1907" d="M82.781,35.966a1.4,1.4,0,0,0,.584-.173,1.824,1.824,0,0,1,.821-.155,1.122,1.122,0,0,0,.575,0c.128-.055.21,0,.255.155a.52.52,0,0,0,.356.347.42.42,0,0,1,.31.438c0,.31.137.6,0,.912,0,.137.119.31,0,.493-.31.365-.538.794-.994,1a.538.538,0,0,1-.228.046c-.137,0-.237,0-.274.146s-.173.173-.3.128a1.824,1.824,0,0,0-.912-.082.337.337,0,0,1-.374-.192.474.474,0,0,0-.365-.255.812.812,0,0,1-.684-.912.5.5,0,0,0-.146-.347.173.173,0,0,1,0-.274c.082-.082.128-.192.2-.274.292-.31.456-.748.912-.912l.246-.109" transform="translate(-7.15 -3.118)"/>
    <path id="Trazado_1908" data-name="Trazado 1908" d="M22.9,90.313c.046.365.1.739-.255,1.022-.082.064-.064.155-.046.237a.265.265,0,0,1-.137.337c-.228.137-.42.365-.629.483s-.666.374-1.012.529h-.237a2.189,2.189,0,0,1-1.158-.265.529.529,0,0,1-.383-.274,1.879,1.879,0,0,0-.3-.456c-.073-.064-.064-.164-.082-.255-.073-.319.109-.629.091-.912s.164-.383.347-.5.392-.255.584-.383c0,0,.109,0,.109-.064.091-.447.52-.319.784-.447a4.859,4.859,0,0,0,.575-.21.2.2,0,0,1,.283,0,.547.547,0,0,0,.465.21.684.684,0,0,1,.721.556c0,.164.228.255.274.429" transform="translate(-1.638 -7.819)"/>
    <path id="Trazado_1909" data-name="Trazado 1909" d="M55.779,48.893c.429-.365.985-.2,1.45-.429.182-.091.31-.091.438.073s.246.109.392.128a.73.73,0,0,1,.739.985.456.456,0,0,0,0,.292.593.593,0,0,1,0,.684c-.173.255-.4.493-.575.748a2.125,2.125,0,0,1-1.049.648,2.426,2.426,0,0,1-1.824-.246.319.319,0,0,1-.155-.137c-.073-.155-.237-.292-.265-.429a4.633,4.633,0,0,1-.2-.912c0-.219.2-.438.128-.693.3-.182.4-.529.666-.739a.757.757,0,0,1,.255-.073v.064" transform="translate(-4.811 -4.242)"/>
    <path id="Trazado_1910" data-name="Trazado 1910" d="M5.83,70.541c.42-.055.839-.119,1.259-.2.119,0,.164.073.2.164a.474.474,0,0,0,.319.283.912.912,0,0,1,.447.766.274.274,0,0,0,0,.173.31.31,0,0,1-.109.438.219.219,0,0,0-.091.255.511.511,0,0,1-.109.465L7.016,73.9a.52.52,0,0,1-.265.173,6.759,6.759,0,0,1-1.3.356.128.128,0,0,1-.082,0c-.493-.255-1.022-.483-1.222-1.076h0c.219-.383-.073-.721-.073-1.076,0-.109,0-.237.1-.283.392-.155.547-.529.794-.8a.5.5,0,0,1,.283-.246c.064,0,.164,0,.164-.109,0-.255.2-.274.392-.292" transform="translate(-0.358 -6.171)"/>
    <path id="Trazado_1911" data-name="Trazado 1911" d="M53.6,33.965a1.04,1.04,0,0,0,.465-.146,1.414,1.414,0,0,1,1.031-.192l.857.146a.347.347,0,0,1,.319.228.912.912,0,0,0,.219.347c.046.055.1.119.055.182a.534.534,0,0,0,.109.447.228.228,0,0,1,.073.109,1.551,1.551,0,0,1-.337.812c-.146.073-.265.146-.265.328s-.091.146-.173.192-.429.265-.629.41a.985.985,0,0,1-.83.219.356.356,0,0,0-.255,0,.648.648,0,0,1-.721-.064.639.639,0,0,0-.4-.109.3.3,0,0,1-.328-.173,2.965,2.965,0,0,0-.337-.538,1.012,1.012,0,0,1-.055-1.031.912.912,0,0,1,.456-.556c.055,0,.082-.109.119-.173a.83.83,0,0,1,.629-.474" transform="translate(-4.596 -2.941)"/>
    <path id="Trazado_1912" data-name="Trazado 1912" d="M45.333,77.053a.347.347,0,0,0,.274-.1.465.465,0,0,1,.556-.137.629.629,0,0,0,.511,0,.4.4,0,0,1,.182,0,1.222,1.222,0,0,1,.994.985,1.177,1.177,0,0,0,.064.41c.164.41-.064.7-.265,1.031a2.654,2.654,0,0,1-1.04.994c-.228.128-.438.283-.657.429s-.228.1-.319,0a.2.2,0,0,0-.237-.109c-.721.2-.912-.119-1.2-.565a.428.428,0,0,1,0-.091c0-.192-.429-.255-.219-.5s.137-.374.337-.493.073-.182,0-.283a.164.164,0,0,1,.1-.274c.319-.109.365-.429.493-.666s.237-.283.265-.474.119-.055.192-.064" transform="translate(-3.86 -6.736)"/>
    <path id="Trazado_1913" data-name="Trazado 1913" d="M60.154,66.761a1.432,1.432,0,0,0-.657.347,1.76,1.76,0,0,1-1.2.228c-.109,0-.219-.046-.337-.055A.4.4,0,0,1,57.564,67a.456.456,0,0,0-.365-.328.657.657,0,0,1-.374-.657.428.428,0,0,0,0-.255c-.21-.538.246-.912.465-1.259a1.514,1.514,0,0,1,.73-.483,4.99,4.99,0,0,1,.739-.237.31.31,0,0,1,.182,0c.374.246.912.21,1.24.493a3.2,3.2,0,0,1,.429.5c-.21.4.255.62.228.976a.675.675,0,0,1-.155.483c-.192.164-.265.465-.556.52" transform="translate(-4.99 -5.593)"/>
    <path id="Trazado_1914" data-name="Trazado 1914" d="M13.858,63.978a2.736,2.736,0,0,1-.739-.119.693.693,0,0,0-.538,0c-.137.073-.237,0-.3-.128a.629.629,0,0,0-.383-.365c-.055,0-.137,0-.137-.109,0-.365-.265-.675-.192-1a4.852,4.852,0,0,1,.2-.711c.091-.219.255-.438.365-.666a.21.21,0,0,1,.219-.119.584.584,0,0,0,.42-.137,1.824,1.824,0,0,1,2.052-.155c.055,0,.128.064.1.1-.164.292.1.447.2.638a1.514,1.514,0,0,1,.137,1.012.848.848,0,0,1-.438.648c-.265.109-.3.392-.383.593s-.41.337-.584.5" transform="translate(-1.016 -5.281)"/>
    <path id="Trazado_1915" data-name="Trazado 1915" d="M42.627,36.162l.082.493c0,.237-.192.4-.21.629-.3,0-.41.255-.62.347a5.893,5.893,0,0,0-.848.383.41.41,0,0,1-.292.055l-1.022-.146a.347.347,0,0,1-.265-.219,1.614,1.614,0,0,0-.584-.721c-.055-.046-.137-.119-.1-.164.21-.292,0-.611.1-.912,0,0,0-.091.064-.109.292-.137.438-.447.784-.547s.538-.173.593-.511c0-.109.128-.119.219-.1a10.033,10.033,0,0,1,1.186.328,3.247,3.247,0,0,1,.73.5c.21.164.119.493.164.739" transform="translate(-3.407 -3.032)"/>
    <path id="Trazado_1916" data-name="Trazado 1916" d="M35.284,93.189a2.782,2.782,0,0,0-.274.1,1.149,1.149,0,0,1-.739.091c-.474,0-.657-.356-.848-.666a.41.41,0,0,1,0-.538c.109-.128,0-.228-.055-.319s-.228-.3,0-.493a.137.137,0,0,0,0-.073c-.046-.374.265-.483.511-.62s.456-.383.784-.356a.42.42,0,0,0,.182,0,2.016,2.016,0,0,1,1.76.119.274.274,0,0,1,.164.347.456.456,0,0,0,.082.365c.237.383.182.584-.2.912-.182.137-.228.374-.337.566a.611.611,0,0,1-.265.3c-.237.119-.42.347-.766.356" transform="translate(-2.923 -7.914)"/>
    <path id="Trazado_1917" data-name="Trazado 1917" d="M73.659,48.832a.083.083,0,0,0-.073.119.182.182,0,0,0,.109.091.082.082,0,0,0,.091-.091.109.109,0,0,0-.128-.119M102.016,20.42a.069.069,0,0,0,.064-.109.137.137,0,0,0-.082,0c-.055,0-.1,0-.1.082s.064.073.119.073M56.5,70.9a.137.137,0,0,0-.146-.119.119.119,0,0,0-.082.164.182.182,0,0,0,.109.091c.082,0,.119-.055.119-.137M74.745,47.883a.186.186,0,0,0,.164-.173c0-.091-.082-.091-.146-.073s-.164.073-.173.164.082.091.155.082M76.277,46.4a.137.137,0,0,0-.164-.082c-.1,0-.182.064-.155.173s.128.1.219.073a.146.146,0,0,0,.1-.164m6.558-4.9a.146.146,0,0,0-.182-.137s-.109.046-.109.082a.145.145,0,0,0,.146.164.119.119,0,0,0,.146-.109m-3.32,1.478a.912.912,0,0,1,.584-1,.128.128,0,0,0,.064-.073,1.824,1.824,0,0,1,.666-.766,13.846,13.846,0,0,0,1.888-1.979,7.232,7.232,0,0,1,.657-.638,1.323,1.323,0,0,0,.483-.666c.073-.265.429-.328.62-.52s.173-.064.21-.155a2.3,2.3,0,0,1,1.095-1.085.173.173,0,0,0,.109-.164c0-.274.137-.319.356-.347s.219-.091.182-.21c-.082-.274.1-.283.283-.31a.538.538,0,0,0,.356-.237A17.869,17.869,0,0,1,88.481,33a3.483,3.483,0,0,0,.356-.52c.109-.173.21-.337.438-.365a.392.392,0,0,0,.255-.182,1.2,1.2,0,0,1,.739-.575.218.218,0,0,0,.21-.265.322.322,0,0,1,.192-.4c0-.374.319-.474.538-.657a1.24,1.24,0,0,0,.392-.5c.164-.347.52-.538.693-.866,0-.091.173-.128.274-.155s.347,0,.246-.274c0-.119.091-.128.173-.146a.7.7,0,0,0,.511-.429,3.813,3.813,0,0,1,.967-1.2,3.129,3.129,0,0,0,.766-.848c.137-.237.374-.41.538-.638s.356-.292.265-.566c0-.064,0-.146.1-.173.31-.155.429-.565.839-.611a.292.292,0,0,0,.219-.328.392.392,0,0,1,.365-.447,1.076,1.076,0,0,0,.8-.648,2.326,2.326,0,0,1,.912-.985.556.556,0,0,0,.292-.3,2.39,2.39,0,0,1,.839-1.1.374.374,0,0,0,.109-.182.493.493,0,0,1,.465-.383c.192,0,.246-.109.146-.283a.182.182,0,0,1,0-.192c.055-.091.064-.228.192-.237s.164.1.21.192.073.119.2.073a1.24,1.24,0,0,1,.5-.985c.347-.337.6-.766.967-1.095a.237.237,0,0,0,.064-.146c-.082-.319.128-.383.383-.429a.347.347,0,0,0,.274-.228,6.322,6.322,0,0,1,.648-1.031,1.14,1.14,0,0,1,.538-.493,1.578,1.578,0,0,0,.638-.693,2.837,2.837,0,0,1,.666-.739c.319-.265.593-.593.912-.912.1-.091.164-.219.319-.237s.109-.073.109-.155a2.016,2.016,0,0,1,.958-1.386,2.4,2.4,0,0,0,.7-.721,1.669,1.669,0,0,1,.666-.666c.173-.119.392-.192.483-.41a.2.2,0,0,1,.21-.137c.392.073.839-.255,1.2.155-.119.192-.383.4-.128.693a.164.164,0,0,1-.082.265c-.483.237-.7.766-1.167,1-.2.1-.246.31-.337.474s-.319.547-.693.511c-.055.164.155.292,0,.374s-.265.474-.575.511-.274.173-.347.383c-.137.41-.219.912-.775,1.058,0,0-.128.046-.128.073,0,.493-.648.565-.766.994-.064.21-.274.274-.429.392s-.42.192-.465.474-.283.046-.438.173c.173.21.119.383-.146.511s-.493.538-.748.812a2.089,2.089,0,0,1-.4.4,1.459,1.459,0,0,0-.666.739.31.31,0,0,1-.228.283c-.128.027-.365.137-.356.383,0,0-.055.109-.091.109-.483.091-.493.584-.757.848a.137.137,0,0,0,0,.192.155.155,0,0,0,.192,0,.7.7,0,0,1,.62,0c.137.046.265-.064.4-.1s.4-.337.529.046h.1a6.767,6.767,0,0,1,1.122-.155,1.642,1.642,0,0,1,.757,0,.566.566,0,0,0,.547-.137c.246-.192.511-.274.739,0a.146.146,0,0,0,.082.064h.091c.2-.337.556.073.812-.219a.912.912,0,0,1,1.167,0c.064,0,.128.1.192.064.292-.155.693,0,.912-.328.046-.073.182-.155.228-.109.356.283.766-.155,1.14.055.173.091.42,0,.629-.064a1.286,1.286,0,0,1,.912,0c.173.091.337,0,.5-.073a2.554,2.554,0,0,1,1.468-.2.474.474,0,0,0,.483-.128c.128-.137.283-.192.429-.073a1.25,1.25,0,0,0,1.177,0c.429-.109.912-.055,1.3-.173a.483.483,0,0,1,.638.31,3.1,3.1,0,0,0,.246.392.219.219,0,0,1,0,.292.246.246,0,0,1-.292.055c-.347-.274-.775,0-1.131-.155h-.055c-.337.41-.848.1-1.231.337a.721.721,0,0,1-.565,0,.8.8,0,0,0-.766.1c-.082.064-.21.128-.283,0-.21-.228-.383-.173-.584,0a.3.3,0,0,1-.392,0c-.119-.055-.246-.119-.356-.055-.438.255-.912.146-1.386.3a.638.638,0,0,1-.41,0,.912.912,0,0,0-.265-.046,21.571,21.571,0,0,0-2.143.392.6.6,0,0,1-.5,0,.483.483,0,0,0-.593,0,.4.4,0,0,1-.356.1,2.736,2.736,0,0,0-1.2.109,9.5,9.5,0,0,0-1.113.2,2.189,2.189,0,0,1-1,0,.784.784,0,0,0-.52,0,8.866,8.866,0,0,1-1.605.292c-.438.119-.912.091-1.377.173s-1.122.119-1.4.73c-.046.1-.155.082-.237.082s-.155,0-.182.082c-.128.392-.5.529-.8.739l-.1.055c-.219.091,0,.41-.246.474a.912.912,0,0,0-.465.337,4.56,4.56,0,0,0-.83,1.076.146.146,0,0,1-.073.073c-.6.082-.556.6-.7.985,0,.064,0,.146-.119.155-.274,0-.3.283-.438.438s-.155.319-.383.31-.173.155-.246.246-.255.529-.575.611a.146.146,0,0,0-.109.164c0,.2-.128.274-.274.347a1.222,1.222,0,0,0-.556.493.347.347,0,0,1-.283.21c-.091,0-.192.055-.182.146a.511.511,0,0,1-.328.547.164.164,0,0,0-.064.228.192.192,0,0,0,.274.082,1.323,1.323,0,0,1,.775-.182,5.555,5.555,0,0,0,1.824-.2,1.286,1.286,0,0,1,.912.073.547.547,0,0,0,.465,0,2.28,2.28,0,0,1,1.158-.137c.21,0,.255-.073.319-.255s.164-.283.356-.091a.292.292,0,0,0,.41.073.447.447,0,0,1,.2-.073c.848.082,1.669-.392,2.517-.21a.055.055,0,0,0,.055,0c.456-.365,1.049-.082,1.532-.347a.429.429,0,0,1,.155,0c.912.073,1.906-.164,2.864-.182a8.108,8.108,0,0,0,1.323-.192c.593-.1,1.195-.046,1.824-.164a4.159,4.159,0,0,0,1.158-.237h0c.511.137.912-.155,1.414-.274s.766.1,1.167.046c.666-.091,1.341-.119,2.016-.173a1.706,1.706,0,0,1,.429,0,.775.775,0,0,0,.693-.182.31.31,0,0,1,.5,0c.055.073.109.146.2.146a6.877,6.877,0,0,0,1.3-.055c.337-.064.648-.21.976,0,.173.109.337,0,.483-.109a.354.354,0,0,1,.493.1c.146.173.228.392,0,.547s-.556.547-.994.392a.556.556,0,0,0-.365,0,9.6,9.6,0,0,1-1.5.347.912.912,0,0,0-.356.119.7.7,0,0,1-.7.1.237.237,0,0,0-.155,0c-.5.274-1.049.146-1.569.274a3.138,3.138,0,0,1-1.979.119.483.483,0,0,0-.41.064,2.143,2.143,0,0,1-1.3.2c-.356-.064-.648.164-.967.246a1.2,1.2,0,0,1-.566,0,2.645,2.645,0,0,0-.848,0,10.38,10.38,0,0,0-1.459.246,3.065,3.065,0,0,1-1.624,0,.912.912,0,0,0-.912.2.556.556,0,0,1-.584.137c-.328-.082-.675.055-1-.046a.155.155,0,0,0-.155,0c-.374.374-.794.091-1.186.109h-.155c-.447.283-.912.064-1.35.082a1.642,1.642,0,0,0-.675.119,2.043,2.043,0,0,1-1.551.073.4.4,0,0,0-.511.146.292.292,0,0,1-.465.064.7.7,0,0,0-.912,0,.137.137,0,0,1-.1,0c-.657-.146-1.195.246-1.824.429a3.429,3.429,0,0,1-1.323.164,4.989,4.989,0,0,0-2.125.41.214.214,0,0,0-.2.155.465.465,0,0,1-.52.356c-.1,0-.192,0-.2.137,0,.3-.283.438-.456.638a.219.219,0,0,1-.082.073c-.228.155,0,.657-.493.611-.173.21-.365.429-.538.648-.055.073-.091.164-.192.164s-.292.082-.182.283,0,.2-.1.292a2.2,2.2,0,0,0-.283.383c-.2.31-.192.31-.584.146a.538.538,0,0,1-.429.529c-.137,0-.292.119-.155.3s0,.265-.146.31a1,1,0,0,0-.684.693c0,.137-.182.21-.31.283s-.283.146-.192.356-.082.182-.182.192c-.356.055-.52.3-.739.556-.383.465-.657,1.049-1.259,1.341a.556.556,0,0,0-.192.739.274.274,0,0,0,.255.146,1.423,1.423,0,0,0,.52-.1.757.757,0,0,1,.575-.082c.347.1.593-.274.912-.219a1.308,1.308,0,0,0,.912,0,.483.483,0,0,1,.42,0,1.4,1.4,0,0,0,.912-.091A9.6,9.6,0,0,1,88.59,40.5a.474.474,0,0,1,.456,0,.365.365,0,0,0,.438,0,2.581,2.581,0,0,1,1.313-.146,1.085,1.085,0,0,0,1.067-.292.337.337,0,0,1,.337-.119,1.6,1.6,0,0,1,.52.073.629.629,0,0,0,.739-.091.638.638,0,0,1,.638-.091,2.645,2.645,0,0,0,1.824-.064.42.42,0,0,1,.31-.055,2.964,2.964,0,0,0,1.468,0,9.175,9.175,0,0,1,1.5-.109,1.14,1.14,0,0,0,.657-.2.547.547,0,0,1,.556-.073c.511.328,1.031.073,1.532,0a2.043,2.043,0,0,1,.839-.1.328.328,0,0,0,.21,0,14.54,14.54,0,0,1,2.171-.347,2.672,2.672,0,0,1,1.368,0,.739.739,0,0,0,.465,0,2.627,2.627,0,0,1,1.4-.137,2.992,2.992,0,0,0,1.031-.146,12.586,12.586,0,0,0,2.08-.438,1.642,1.642,0,0,1,.839.064.52.52,0,0,0,.575-.155c.173-.2.356-.246.52,0s.283.119.438.082a5.354,5.354,0,0,1,1.368-.219.119.119,0,0,0,.1,0c.383-.347.839-.237,1.268-.228.173,0,.347-.119.556,0-.356.283-.319.739-.611,1.058-.091.109-.164.292-.3.283-.493,0-.912.374-1.45.246a.365.365,0,0,0-.392.1c-.164.173-.283.255-.392-.064-.064-.173-.274-.073-.356,0a.912.912,0,0,1-.912.237c-.064,0-.173,0-.182-.064-.119-.374-.347-.21-.52-.082-.493.365-.994.146-1.487.091-.137,0-.274-.064-.41,0s-.319.237-.52,0-.228.055-.319.192c-.21.328-.219.328-.483,0-.109-.109-.182-.082-.265,0a1.979,1.979,0,0,1-1.715.356,1.514,1.514,0,0,0-.912.1,1.532,1.532,0,0,1-1.095.128,1.824,1.824,0,0,0-1.094.073,1.067,1.067,0,0,1-.675,0,1.177,1.177,0,0,0-.985.119,1.323,1.323,0,0,1-.912.192,1.824,1.824,0,0,0-.912.1,4.561,4.561,0,0,1-1.678.182c-.392,0-.794.082-1.213.082a7.3,7.3,0,0,0-1.058.128,8.211,8.211,0,0,0-1.076.292,2.545,2.545,0,0,1-1.4.128,1.24,1.24,0,0,0-.684,0,5.746,5.746,0,0,0-1.24.31c-.064.046-.2.073-.246,0-.447-.337-.912,0-1.377,0a21.152,21.152,0,0,0-2.134.219,2.189,2.189,0,0,0-.721.173.766.766,0,0,1-.812-.055.657.657,0,0,0-.7-.055,4.943,4.943,0,0,1-1.614.365c-.721.109-1.45.1-2.171.274-.31.073-.739-.155-.976,0s-.438.483-.73.657-.347.182-.4.4-.173.173-.274.246A3.649,3.649,0,0,0,78.576,45.3a.684.684,0,0,1-.31.292.41.41,0,0,0-.283.356.173.173,0,0,1-.091.182c-.52.255-.7.83-1.149,1.158-.128.091-.237.228-.374.31a1.14,1.14,0,0,0-.648.83c0,.1-.082.146-.182.173a.256.256,0,0,0-.173.31.912.912,0,0,1,0,.155c0,.219-.493,0-.383.365s-.219.283-.374.383-.365.219-.538.347-.255.173-.21.292c.146.374-.109.4-.365.456a.246.246,0,0,0-.21.265,2.116,2.116,0,0,1-.265.775,1.714,1.714,0,0,1,.538.155c.337.109.474.046.638-.31.073-.155.173-.2.292-.137a1.231,1.231,0,0,0,.912,0c.465-.119.912-.119,1.377-.192a.821.821,0,0,1,.365,0,.912.912,0,0,0,.821-.128.547.547,0,0,1,.648-.055s.1.064.137.055c.556-.146,1.122,0,1.669-.137a2.444,2.444,0,0,1,.994-.155,1.359,1.359,0,0,0,.83-.182c.21-.128.41-.21.611,0s.328.1.474,0a.638.638,0,0,1,.629-.164,1.988,1.988,0,0,0,1.076.192.483.483,0,0,1,.575.091.52.52,0,0,0,.721,0c.1-.073.219-.173.337-.137a1.158,1.158,0,0,0,.976-.109h.137c.219.356.483.146.73,0a.365.365,0,0,1,.31,0,.374.374,0,0,0,.356,0,.693.693,0,0,1,.666-.055.684.684,0,0,0,.648-.146c.228-.155.456-.219.666,0a.128.128,0,0,0,.073.064h.146c.192-.365.565.119.8-.21a1.067,1.067,0,0,1,1.058-.173c.119.082.2.237.356.173s.538,0,.757-.21.374-.31.575,0a.128.128,0,0,0,.192,0c.2-.237.447-.155.693-.109a1.058,1.058,0,0,0,.529,0,1.733,1.733,0,0,1,1.195,0,.356.356,0,0,0,.31-.055,2.517,2.517,0,0,1,1.605-.21.337.337,0,0,0,.31-.064c.246-.283.474-.21.739,0a.857.857,0,0,0,.73,0c.438-.164.912-.064,1.332-.2.237-.073.483-.055.684-.237a.255.255,0,0,1,.383,0,.912.912,0,0,0,.456.246c.091,0,.21.1.3,0s0-.164-.091-.246a.109.109,0,0,1,.1-.182c.383.073.794-.356,1.158,0,.42-.192.848.091,1.286-.128a2.91,2.91,0,0,1,1.532-.173c.192,0,.365.055.538-.082a.365.365,0,0,1,.447-.073c.146.1,0,.246,0,.383v.438c-.2.073-.347-.192-.547,0s-.1.328-.246.483a1.158,1.158,0,0,0-.857,0c-.128.055-.228,0-.328-.109a.337.337,0,0,0-.483,0c-.337.41-.766.265-1.131.21s-.657-.109-.848.3a.283.283,0,0,1-.383.082.693.693,0,0,0-.757.064.493.493,0,0,1-.511,0,.83.83,0,0,0-.556-.073c-.31,0-.629-.128-.912.2-.073.082-.365-.064-.511,0a2.025,2.025,0,0,1-1.25.064.292.292,0,0,0-.2,0c-.246.182-.465.3-.739,0-.091-.1-.228,0-.31.128a.255.255,0,0,1-.374.091.693.693,0,0,0-.757,0,2.034,2.034,0,0,1-.611.128c-.511.091-1.022,0-1.514.091a7.014,7.014,0,0,1-1.149.182,1.14,1.14,0,0,0-.611.164.4.4,0,0,1-.456,0,.566.566,0,0,0-.693.064.42.42,0,0,1-.4.055,1.031,1.031,0,0,0-.575,0c-.7.128-1.4.228-2.107.337a.857.857,0,0,1-.374,0,1.505,1.505,0,0,0-1.186.137.2.2,0,0,1-.155,0c-.41-.164-.794.109-1.186.137a5.473,5.473,0,0,0-2.536.593.328.328,0,0,1-.31.046c-.374-.228-.8-.046-1.195-.128a.274.274,0,0,0-.21,0,1.058,1.058,0,0,1-.912.082.337.337,0,0,0-.21,0,2.682,2.682,0,0,1-1.186.265,2.226,2.226,0,0,1-1.04,0c-.2-.082-.465.146-.721.055-.447.319-1,0-1.468.3h-.055c-.438-.173-.912.155-1.341,0a.392.392,0,0,0-.264,0,6.978,6.978,0,0,1-1.432.219.657.657,0,0,1-.511,0,.493.493,0,0,0-.593,0,.593.593,0,0,1-.611.055.757.757,0,0,0-.666.064.493.493,0,0,0-.337.538.283.283,0,0,1-.182.246,1.569,1.569,0,0,0-.62.648c-.137.228-.237.483-.547.547a.119.119,0,0,0-.091.155c0,.1,0,.21-.082.219-.42,0-.638.429-1.022.52,0,.128.292.182.1.365s0,.31-.082.438-.173,0-.237-.064a.148.148,0,0,0-.246.073,1.751,1.751,0,0,1-.748.912c-.155.1-.292.219-.146.429s.082.173,0,.219a.137.137,0,0,1-.192-.109v-.1a.134.134,0,0,0-.164-.082.119.119,0,0,0-.064.128,1.288,1.288,0,0,0,.055.2c0,.228,0,.41-.31.456s-.474.109-.392.438a.155.155,0,0,1-.155.182c-.319,0-.392.274-.465.447a3.648,3.648,0,0,1-.967,1.1c-.146.137-.255.237-.182.429a.292.292,0,0,0,.447.119,1.678,1.678,0,0,1,.912-.091,10.106,10.106,0,0,0,1.377-.155,5.006,5.006,0,0,1,.739,0,4.451,4.451,0,0,0,1.633-.2c.173-.064.274-.109.383.073s.356.137.529,0a3.411,3.411,0,0,1,1.624-.21h.155c.529-.31,1.167-.2,1.7-.465a.383.383,0,0,1,.2-.073c.556.146,1.122-.182,1.678,0a.712.712,0,0,0,.41-.064c.137,0,.31-.119.42-.073a1.359,1.359,0,0,0,1.04-.046,1.076,1.076,0,0,1,.584,0,3.32,3.32,0,0,0,1.313-.182,1.888,1.888,0,0,1,1.25,0,.565.565,0,0,0,.465,0,2.335,2.335,0,0,1,.912-.128c.283,0,.474.064.538-.292,0-.164.228-.182.337,0a.3.3,0,0,0,.456.073.338.338,0,0,1,.155,0,13.945,13.945,0,0,0,1.824-.237h.447c.082,0,.21.055.255,0,.483-.429,1.131,0,1.624-.383a5.828,5.828,0,0,0,1.259-.064A21.042,21.042,0,0,0,92.4,59.3a1.24,1.24,0,0,1,.155,0,11.174,11.174,0,0,0,2.344-.237,9.12,9.12,0,0,0,1.368-.31c.465-.119.912.082,1.368,0,.62-.091,1.24-.109,1.824-.155a1.313,1.313,0,0,1,.374,0,.912.912,0,0,0,.794-.21c.155-.137.328-.164.456,0s.128.21.228.182c.474-.119.912.109,1.414-.082a.848.848,0,0,1,.821,0,.438.438,0,0,0,.493-.064c.173-.109.319-.137.465.055s.31.137.438,0a.739.739,0,0,1,.584-.328c.265,0,.292,0,.2.292a.276.276,0,0,1-.064.192,1.2,1.2,0,0,0,.693-.237,1.824,1.824,0,0,1,1.532-.319.912.912,0,0,0,.721-.146.666.666,0,0,1,.711-.055.483.483,0,0,0,.5-.073.766.766,0,0,1,.711-.064.912.912,0,0,0,.584,0,.255.255,0,0,1,.319.182c.064.164.082.328-.082.429a1.824,1.824,0,0,1-1.4.392.976.976,0,0,0-.365,0l-1.532.219a.675.675,0,0,1-.264,0c-.356-.155-.693-.246-1,.137-.055.064-.164,0-.255,0a.611.611,0,0,0-.255,0,1.642,1.642,0,0,1-1.359-.137.237.237,0,0,0-.292.064,1.441,1.441,0,0,1-1.2.42,2.9,2.9,0,0,0-1.022.237,3.375,3.375,0,0,0-1.286.374h0c-.547-.219-1.058.192-1.614.128a2.682,2.682,0,0,0-1.14.228,1.943,1.943,0,0,1-1.2,0,.775.775,0,0,0-.556.046,2.134,2.134,0,0,1-1.259.182,2.052,2.052,0,0,0-.976.237.912.912,0,0,1-.611.064,1.213,1.213,0,0,0-.575,0,4.04,4.04,0,0,0-1.669.274.511.511,0,0,1-.365,0,1.988,1.988,0,0,0-.8,0,.857.857,0,0,1-.52,0,.812.812,0,0,0-.912.164.794.794,0,0,1-.638.173,2.6,2.6,0,0,0-1.459.109c-.21.119-.547,0-.821,0-.064,0-.155-.064-.2,0-.447.274-.912.073-1.35.082a1.532,1.532,0,0,0-.73.137,1.824,1.824,0,0,1-1.541,0c-.164-.046-.319-.1-.4.1a.353.353,0,0,1-.529.146.693.693,0,0,0-.912,0,.164.164,0,0,1-.155,0c-.6-.182-1.085.2-1.614.374a4.442,4.442,0,0,1-1.587.192,3.238,3.238,0,0,0-1.35.219.848.848,0,0,1-.766,0,.784.784,0,0,0-.757.128.675.675,0,0,1-.7,0,1.14,1.14,0,0,0-.721-.091,16.7,16.7,0,0,0-1.824.255,3.647,3.647,0,0,0-.365.082,1.678,1.678,0,0,1-1.359-.073.383.383,0,0,0-.447,0,1.459,1.459,0,0,1-.748.246c-.556.1-1.1.237-1.66.356a1.551,1.551,0,0,1-.638.073,12.287,12.287,0,0,0-1.532,0,.629.629,0,0,0-.356.109.6.6,0,0,1-.511.064c-.3-.091-.593.109-.912.064a.2.2,0,0,0-.219.192,2.49,2.49,0,0,1-.274.511c-.164.347-.3.693-.784.693-.091,0-.182.109-.146.192.146.337-.128.42-.328.556l-.3.219c-.064.046-.146.109-.109.173.356.483-.173.337-.347.447H59.75a.493.493,0,0,1-.109.529,1.925,1.925,0,0,1-.958.7c-.109,0-.119.155-.146.255a.73.73,0,0,1-.593.657c-.173,0-.283.082-.155.319s-.146.429-.3.538c-.337.246-.657.474-.7.912,0,.128-.173.164-.265.246s-.4.182-.447.429-.146.137-.255.128a.447.447,0,0,0-.4.182c.064.146.155.091.237.073s.228,0,.246.119-.073.182-.192.2a.274.274,0,0,0-.265.155c-.073.182-.228.2-.392.21s-.274,0-.31.155-.128.347-.347.146H54.3c0,.383-.383.192-.547.328s-.055.2.055.246a1.423,1.423,0,0,0,1.012.146,8.684,8.684,0,0,1,1.824-.292,3,3,0,0,0,.912-.182.338.338,0,0,1,.155-.046,5.016,5.016,0,0,0,1.824-.255c.173,0,.383.082.529,0,.575-.246,1.158.091,1.724-.1a.228.228,0,0,1,.155,0,.8.8,0,0,0,.912-.164,1.168,1.168,0,0,1,.912-.146,1.988,1.988,0,0,0,1.067-.109,3.365,3.365,0,0,1,1.14-.246,10.348,10.348,0,0,1,1.031.1h.21c.511-.21,1.076-.1,1.587-.328a.319.319,0,0,1,.155-.055,9.559,9.559,0,0,0,1.441-.091,6.54,6.54,0,0,0,1.25-.173c.447-.128.912-.392,1.386-.091.073.055.173,0,.255,0a2.417,2.417,0,0,1,1.414-.137.985.985,0,0,0,.839-.192c.383-.392.784-.21,1.14-.155s.4.073.584-.082a.721.721,0,0,1,.693-.119,3.028,3.028,0,0,0,1.925-.073.265.265,0,0,1,.2,0,3.73,3.73,0,0,0,1.587,0,12.451,12.451,0,0,1,1.4-.192,1.24,1.24,0,0,0,.666-.2.52.52,0,0,1,.556,0c.511.31,1.031,0,1.532-.055a2.107,2.107,0,0,1,.784-.091.648.648,0,0,0,.265,0,13.308,13.308,0,0,1,2.061-.337,2.736,2.736,0,0,1,1.468,0,.684.684,0,0,0,.465-.055,2.645,2.645,0,0,1,1.359-.146,2.736,2.736,0,0,0,1.04-.109,11.855,11.855,0,0,0,2.116-.493,1.177,1.177,0,0,1,.73.073.657.657,0,0,0,.684-.155c.119-.128.292-.2.42,0s.483.192.73.1a2.964,2.964,0,0,1,.912-.155.848.848,0,0,0,.41-.064c.283-.31.62-.219.912-.21a1.9,1.9,0,0,0,.638,0,.219.219,0,0,1,.2,0,.638.638,0,0,0,.83,0h.1c.465.2.912-.073,1.359-.119s.784-.119,1.186-.182a4.506,4.506,0,0,1,1.158-.119h.21c.383-.356.812-.137,1.222-.146h.046c.347.182.547-.474.857-.192s.584,0,.867-.082a1.04,1.04,0,0,1,.365-.073c.565.064,1.131-.128,1.706-.055.265,0,.538-.164.83-.173.447,0,.547.091.41.511a.7.7,0,0,1-.064.146c-.109.164.064.456-.146.52-.365.1-.611.456-1.058.392a1.906,1.906,0,0,0-1,.091.137.137,0,0,1-.1,0,1.45,1.45,0,0,0-1.268.128,1.067,1.067,0,0,1-.584.064,3.329,3.329,0,0,0-1.76.2,1.569,1.569,0,0,1-.912,0c-.082,0-.21-.091-.246-.055-.42.328-.912.055-1.35.246a2.262,2.262,0,0,1-.821.1,3.384,3.384,0,0,0-1.614.128,3.557,3.557,0,0,1-1.323.128,1.915,1.915,0,0,0-.721.146.5.5,0,0,1-.31.073.857.857,0,0,0-.912.255c-.228-.41-.246-.42-.611-.146a.748.748,0,0,1-1.058-.046.155.155,0,0,0-.219,0h0a1.733,1.733,0,0,1-1.578.173.584.584,0,0,0-.547.082c-.091.073-.182.109-.283,0a.292.292,0,0,0-.456.1c-.128.21-.228.337-.511.091a.173.173,0,0,0-.274,0,2.052,2.052,0,0,1-1.724.328,1.578,1.578,0,0,0-.821.091,1.824,1.824,0,0,1-1.3.109,1.3,1.3,0,0,0-.912.109.912.912,0,0,1-.666,0,1.049,1.049,0,0,0-.912.1,1.094,1.094,0,0,1-.912.182,1.9,1.9,0,0,0-1.085.173,3.84,3.84,0,0,1-1.359.137c-.109,0-.228-.055-.319,0a.912.912,0,0,1-.912.064.658.658,0,0,0-.31.055.821.821,0,0,1-.711.082.237.237,0,0,0-.21,0c-.365.265-.821.182-1.222.365a1.487,1.487,0,0,1-.994.109,1.633,1.633,0,0,0-.839,0,4.022,4.022,0,0,0-1.332.328c-.073.055-.2.082-.255,0-.255-.274-.538-.073-.83-.064-.821,0-1.633.164-2.444.237a2.736,2.736,0,0,0-1.049.228.556.556,0,0,1-.6-.046.839.839,0,0,0-.912,0,2.737,2.737,0,0,1-.985.246c-.711.073-1.432.091-2.134.228a3.411,3.411,0,0,1-1.359,0,.648.648,0,0,0-.3.082,1.523,1.523,0,0,1-.629.128c-.912,0-1.824.274-2.736.31a1.651,1.651,0,0,0-.62.137.739.739,0,0,1-.42.046,2.517,2.517,0,0,0-1.414.173c-.119,0-.255.137-.356.055-.3-.228-.611-.073-.912,0a.958.958,0,0,1-.675,0,.5.5,0,0,0-.365,0,.585.585,0,0,1-.155,0,2.025,2.025,0,0,0-1.386.128h0c-.493-.292-.912,0-1.368.155a1.441,1.441,0,0,1-.912.082c-.347-.109-1.085.292-1.359.52-.52.438-.711,1.158-1.359,1.468-.228.109-.265.374-.374.575a.584.584,0,0,1-.483.356c-.21,0-.42,0-.274.374a.483.483,0,0,1-.255.474c-.429.119-.584.483-.848.748a.383.383,0,0,1-.21.146,2,2,0,0,0-1.4,1.022,14.751,14.751,0,0,1-1.04,1.323,2.043,2.043,0,0,1-.711.711.21.21,0,0,0-.128.219c.055.328-.182.465-.42.6a2.162,2.162,0,0,0-.511.529,2.992,2.992,0,0,1-.648.711.748.748,0,0,0-.091.821.182.182,0,0,0,.137,0,.135.135,0,0,0,.128-.192c-.182-.347.1-.347.265-.292.73.255,1.341-.21,2.007-.356.182,0,.337-.237.493,0,0,.064.128,0,.2,0a4.8,4.8,0,0,0,1.459-.31.538.538,0,0,1,.757.109.164.164,0,0,0,.3,0,.5.5,0,0,1,.648-.228.41.41,0,0,0,.255,0c.493-.192,1.031,0,1.514-.228.493.228,1-.064,1.5,0H52.9c.219.3.383.155.566-.055a.356.356,0,0,1,.228-.128A4.469,4.469,0,0,1,55.244,84a2.435,2.435,0,0,0,.912-.128c.1,0,.228-.082.3,0,.219.265.42.055.657,0a4.561,4.561,0,0,0,1.149-.438,3.421,3.421,0,0,1,.994-.155h.374c.711-.41,1.432-.155,2.153-.137h.055c.675-.374,1.459,0,2.162-.42a1.149,1.149,0,0,1,1.3,0c.082.064.21,0,.3,0a.684.684,0,0,1,.711,0,.593.593,0,0,0,.6,0,3.357,3.357,0,0,1,1.158-.429c.237,0,.483-.137.693.1s.265,0,.392-.073a.912.912,0,0,1,.912-.082.474.474,0,0,0,.456,0A2.007,2.007,0,0,1,71.571,82c.392,0,.8-.265,1.186,0a4.278,4.278,0,0,1,1.551-.21c.347,0,.684-.228.985.082a.21.21,0,0,0,.192,0c.383-.228.857-.128,1.231-.374s.629-.055.912-.173c.119.091,0,.137,0,.182s-.1.228.091.237a.757.757,0,0,0,.547-.182,1.177,1.177,0,0,1,1.24-.192.6.6,0,0,0,.629-.146.657.657,0,0,1,.775-.146,1.031,1.031,0,0,0,.83-.091c.119,0,.228-.146.347-.109A1,1,0,0,0,83,80.746a.328.328,0,0,1,.438.064c.2.246.42.192.666.064s.337-.228.483-.21a1.669,1.669,0,0,0,1.277-.255c.1-.073.246,0,.347.073a.775.775,0,0,0,.848,0,1.432,1.432,0,0,1,1.076-.182.474.474,0,0,0,.356-.1.511.511,0,0,1,.511,0,.31.31,0,0,0,.31,0,.922.922,0,0,1,.967,0,.794.794,0,0,0,.711-.091,1.113,1.113,0,0,1,.8-.173,5.646,5.646,0,0,0,.912,0,1.113,1.113,0,0,1,.575.046c.246.119.392.119.465-.182,0-.119.164-.137.265-.109a.994.994,0,0,0,.83-.091.356.356,0,0,1,.255,0,2.107,2.107,0,0,0,.912,0l2.043-.164a.584.584,0,0,0,.255-.055,1.2,1.2,0,0,1,.912-.21,35.727,35.727,0,0,0,3.94-.356.5.5,0,0,1,.155,0,2.2,2.2,0,0,0,1.523-.119h0a1.4,1.4,0,0,1,1.195,0,1.914,1.914,0,0,0,.3-.082c.1-.027.2-.073.255,0,.383.228.748,0,1.177-.1a2.463,2.463,0,0,1-.3.83.575.575,0,0,1-.711.319,1.058,1.058,0,0,0-.73.082,2.107,2.107,0,0,1-1.45.155.465.465,0,0,0-.365,0,.474.474,0,0,1-.456.046.438.438,0,0,0-.264,0,13.409,13.409,0,0,1-1.706.328c-.091,0-.192.055-.265,0a2.636,2.636,0,0,0-1.45.146,2.837,2.837,0,0,1-.839.046,4.332,4.332,0,0,0-1.149.219c-.274.073-.511.137-.739-.091s-.283-.091-.438,0a3.511,3.511,0,0,1-2.025.474,8.21,8.21,0,0,0-2.435.3,7.294,7.294,0,0,1-1.268.128.246.246,0,0,1-.228-.1.274.274,0,0,0-.292-.073,11.621,11.621,0,0,0-1.824.474.556.556,0,0,1-.52,0c-.255-.1-.556,0-.83-.128-.119-.055-.237,0-.347.119a.487.487,0,0,1-.319.182,8.956,8.956,0,0,1-1.286.109,4.169,4.169,0,0,0-1.578.182,3.438,3.438,0,0,1-1.523.137,5.473,5.473,0,0,0-1.824.182,2.654,2.654,0,0,1-1.1,0,.757.757,0,0,0-.511,0,1.669,1.669,0,0,1-1.2.082.483.483,0,0,0-.575.128.4.4,0,0,1-.246.1c-.392,0-.784.182-1.158.155a4.232,4.232,0,0,0-1.824.42c-.255.1-.438.173-.638-.082a.292.292,0,0,0-.493.073.483.483,0,0,1-.666.237c-.511.265-1.04,0-1.551.064a3.42,3.42,0,0,1-1.578,0,.347.347,0,0,0-.41.164.374.374,0,0,1-.547.146.529.529,0,0,0-.556,0,.438.438,0,0,1-.41,0,.529.529,0,0,0-.465.046c-.1,0-.237.1-.3,0-.319-.392-.666-.082-.912,0s-.584.3-.912.073c-.474.164-1.031-.173-1.468.265a.5.5,0,0,1-.3.1,4.56,4.56,0,0,1-1.824,0,.246.246,0,0,0-.21,0c-.42.283-.912.128-1.368.319a.538.538,0,0,1-.265,0,.775.775,0,0,0-.739.31c0-.31,0-.456-.274-.483a2.937,2.937,0,0,0-1.5.173.911.911,0,0,1-1,0,.164.164,0,0,0-.146,0c-.365.128-.775,0-1.1.192a2.828,2.828,0,0,1-1.076.21,14.067,14.067,0,0,0-1.724.347,1.423,1.423,0,0,1-.52,0,1.487,1.487,0,0,0-.684.091c-.073,0-.137.091-.2.082a1.3,1.3,0,0,0-1.049.2h-.255a1.706,1.706,0,0,0-1.432,0,7.106,7.106,0,0,1-.994.2h-.21c-.392-.31-.766-.109-1.167.055-.237.091-.52.173-.711-.119-.064-.1-.182-.091-.292-.064l-.1.046a16.291,16.291,0,0,0-1.925.62,1,1,0,0,1-.374,0,.784.784,0,0,0-.556.292c-.538.739-1.2,1.386-1.678,2.171-.091.137-.246.2-.365.31a4.241,4.241,0,0,0-1.24,1.177.255.255,0,0,1-.228.119.237.237,0,0,0-.173.109,3.521,3.521,0,0,1-1.414,1.541c-.046,0-.109,0-.128.091-.31.711-1.158,1.031-1.432,1.824-.046.119-.164.182-.265.255-.374.255-.374.255-.538.775a1.824,1.824,0,0,0,.976-.1c.219-.073.42-.182.648-.055s.283,0,.429,0a11.428,11.428,0,0,1,1.824-.137,3.329,3.329,0,0,0,1.669-.31c.1-.046.21-.109.274,0,.164.31.429.21.648.1a2.572,2.572,0,0,1,.912-.182,2.22,2.22,0,0,0,1.386-.21,1.058,1.058,0,0,1,.465-.082,1.259,1.259,0,0,0,.575-.128.73.73,0,0,1,.611-.1c.274.082.511-.109.784-.1a2.636,2.636,0,0,0,1.3-.1c.556.182,1.095-.155,1.624-.109a7.241,7.241,0,0,0,1.724-.192,1.5,1.5,0,0,1,.912.064.657.657,0,0,0,.511,0,2.8,2.8,0,0,1,1.158-.146.237.237,0,0,0,.31-.21c.064-.228.182-.3.374-.128s.146.119.173.109c.374-.228.784,0,1.186-.146a3.42,3.42,0,0,1,1.578-.155h.255c.474-.42,1.131-.082,1.624-.429a4.505,4.505,0,0,0,1.049,0,19.288,19.288,0,0,0,2.736-.246c.8-.155,1.614-.109,2.408-.265a2.736,2.736,0,0,0,1.04-.237.137.137,0,0,1,.1,0c.429.192.794-.064,1.167-.192a4.9,4.9,0,0,1,1.368,0,16.337,16.337,0,0,0,1.751-.137,1.687,1.687,0,0,1,.638,0,.748.748,0,0,0,.693-.182c.2-.173.374-.182.52.064,0,0,.119.119.164.109.483-.1.976.146,1.459-.064a.675.675,0,0,1,.41-.091,1.249,1.249,0,0,0,1.067-.055c.1-.064.2,0,.265.128a.268.268,0,0,0,.429,0,.712.712,0,0,1,.52-.337c.3,0,.347,0,.274.319s.064.21.2.164a.6.6,0,0,0,.237-.128,4.561,4.561,0,0,1,1.167-.511.429.429,0,0,1,.365,0,.912.912,0,0,0,.821,0c.292-.109.575-.274.912-.082a.475.475,0,0,0,.5-.128.52.52,0,0,1,.547,0,.912.912,0,0,0,.912-.091.967.967,0,0,1,.912-.119,2.49,2.49,0,0,0,1.523-.073,2.546,2.546,0,0,1,.356-.091,3.694,3.694,0,0,0,1.56-.31.21.21,0,0,1,.328.137c.073.283.283.237.447.119A1.468,1.468,0,0,1,87.3,90.1a.912.912,0,0,0,.5-.137c.091-.064.21-.128.3-.064a.407.407,0,0,0,.547-.064c.182-.228.192,0,.246.091s.146.21.292.146a.3.3,0,0,0,.228-.319c0-.31.128-.337.347-.237a1.56,1.56,0,0,0,.575.1.306.306,0,0,1,.337.265c.018.182-.155.219-.292.255h-.109c-.292,0-.265.529-.6.447a.62.62,0,0,0-.711.2.173.173,0,0,1-.146,0,2.736,2.736,0,0,0-1.158.073c-.182,0-.356,0-.356-.237s-.128-.319-.356-.2a.529.529,0,0,0-.274.319.365.365,0,0,1-.237.265c-.182.073-.337.173-.456-.119s-.237-.274-.447,0-.2.274-.383.237-.4-.082-.547.164-.192,0-.255,0a.255.255,0,0,0-.374-.073,2.171,2.171,0,0,1-1.095.219,6.157,6.157,0,0,1-1.587.046c-.137-.046-.265.064-.392.128a1.551,1.551,0,0,1-1.085.164.739.739,0,0,0-.42,0c-.52.146-1.067.082-1.587.237a.584.584,0,0,1-.4-.119.493.493,0,0,0-.511,0,1.824,1.824,0,0,1-1.733.21.912.912,0,0,0-1.012.192.73.73,0,0,1-.748.182.976.976,0,0,0-.62.109,7.215,7.215,0,0,0-1.751.474s-.119.055-.155,0c-.547-.21-1.067.182-1.624.137a2.226,2.226,0,0,0-1.04.219,1.824,1.824,0,0,1-1.195,0,.793.793,0,0,0-.611,0A1.879,1.879,0,0,1,65.2,93.6a2.134,2.134,0,0,0-.985.219.976.976,0,0,1-.666.055,1.46,1.46,0,0,0-.629,0,3.548,3.548,0,0,0-1.56.264.465.465,0,0,1-.41,0,1.268,1.268,0,0,0-.584,0,1.332,1.332,0,0,1-.775-.055.766.766,0,0,0-.912.2c-.182.21-.356.164-.6.164-.474,0-.967-.21-1.441.128a.62.62,0,0,1-.62,0,.912.912,0,0,0-.721,0,1.459,1.459,0,0,1-.629,0,2.025,2.025,0,0,0-1.4.21.693.693,0,0,1-.565.082c-.246-.055-.493-.091-.721-.164s-.374-.109-.465.164-.219.164-.356.109a1.35,1.35,0,0,1-.283-.137.52.52,0,0,0-.648,0c-.1.073-.228.164-.347.119-.493-.192-.912.119-1.313.283a4.433,4.433,0,0,1-1.733.283A3.083,3.083,0,0,0,45.3,95.8a.493.493,0,0,1-.465,0,.912.912,0,0,0-.912,0,.912.912,0,0,1-.912,0,.684.684,0,0,0-.356-.082,9.494,9.494,0,0,0-2.572.429,2.381,2.381,0,0,1-1.131-.091.483.483,0,0,0-.666,0,.739.739,0,0,1-.456.146,9.969,9.969,0,0,0-1.614.337,4.032,4.032,0,0,1-1.149.1,3.356,3.356,0,0,0-1.414.128,4.962,4.962,0,0,1-1.3.137,1.177,1.177,0,0,0-1.022.42,7.3,7.3,0,0,1-.839.73c-.365.337-.6.766-.976,1.076a.976.976,0,0,1-.3.219,1.4,1.4,0,0,0-.794.812c-.046.091-.073.219-.146.274-.429.356-.684.912-1.213,1.122-.146.073-.319.146-.356.31-.1.52-.556.748-.912,1.085a6.932,6.932,0,0,0-1.368,1.414,7.452,7.452,0,0,1-1.158,1.3c-.192.228-.374.474-.566.711a.164.164,0,0,0,0,.192.128.128,0,0,0,.182.055c.41-.347.812,0,1.2,0a1.04,1.04,0,0,0,.62-.064,1.45,1.45,0,0,1,.62-.128,8.465,8.465,0,0,0,1.906-.292.31.31,0,0,1,.155,0,4.561,4.561,0,0,0,1.642-.228,5.317,5.317,0,0,1,1.313-.1,4.708,4.708,0,0,0,.912,0,.848.848,0,0,1,.429,0,.575.575,0,0,0,.7-.146,1.076,1.076,0,0,1,.912-.192,2.253,2.253,0,0,0,1.25-.173c.356-.146.748-.119,1.095-.264a.055.055,0,0,1,.055,0c.292.274.666,0,.994.119a1.414,1.414,0,0,0,.721-.091,9.832,9.832,0,0,1,1.432-.255,3.913,3.913,0,0,0,1.022-.091,1.915,1.915,0,0,1,.684,0c.5-.055.912-.328,1.45-.347.109,0,.246-.091.319-.055.365.219.7,0,1.058-.064a1.825,1.825,0,0,1,.912,0,1.158,1.158,0,0,0,.994-.219.638.638,0,0,1,.73-.119.912.912,0,0,0,1-.119.639.639,0,0,1,.556-.073,4.05,4.05,0,0,0,.912.1,2.171,2.171,0,0,0,1.131-.182.237.237,0,0,1,.155,0c.529.228,1.058,0,1.578,0a10.308,10.308,0,0,1,1.5-.1.912.912,0,0,0,.6-.182.547.547,0,0,1,.6-.064,1.915,1.915,0,0,0,1.669.137,3.867,3.867,0,0,1,.784-.109,11.7,11.7,0,0,0,1.478-.192,10.642,10.642,0,0,1,1.7-.21,1.523,1.523,0,0,1,.575,0,.73.73,0,0,0,.52,0,1.551,1.551,0,0,1,1.332-.036.228.228,0,0,0,.155,0c.547-.246,1.158-.173,1.715-.365s.912-.109,1.414-.3a1.25,1.25,0,0,1,.675.055.556.556,0,0,0,.584-.128c.192-.173.383-.292.556,0,.082.146.246.128.383.082A4.715,4.715,0,0,1,69,101.97a.155.155,0,0,0,.109,0,1.113,1.113,0,0,1,1.04-.21c.347.055.711-.146,1.04.082a.192.192,0,0,0,.155,0c.456-.347.985-.091,1.478-.21a3.548,3.548,0,0,1,1.35-.21c.31,0,.62-.173.912-.182a1.512,1.512,0,0,0,1.067-.228.255.255,0,0,1,.255,0c.192.064.41,0,.584.064.356.164.584-.42.857-.21s.593,0,.912,0a9.513,9.513,0,0,1,1.432-.137,9.311,9.311,0,0,0,1.423-.164,2.615,2.615,0,0,1,.374-.046.328.328,0,0,1,.319.137,5.336,5.336,0,0,1-.064,1.2.228.228,0,0,1-.337,0c-.182-.2-.292-.119-.465,0a1.031,1.031,0,0,1-.657.182,3.439,3.439,0,0,0-1.012.091c-.556-.246-1.058.119-1.6.192a1.324,1.324,0,0,1-.42,0,2.435,2.435,0,0,0-1.441.128,2.1,2.1,0,0,1-1.2.073h-.1c-.456.255-.976,0-1.423.246a1.4,1.4,0,0,1-.675.119,3.94,3.94,0,0,0-1.715.119,4.305,4.305,0,0,1-1.423.109,1.131,1.131,0,0,0-.575.1.8.8,0,0,1-.611.1.474.474,0,0,0-.41.082c-.128.091-.246.128-.374,0a.3.3,0,0,0-.465,0c-.246.274-.556.2-.848.192h-.155c-.2-.465-.465-.173-.7,0a.912.912,0,0,1-.711.091c-.337-.082-.693-.265-1.076-.064a.365.365,0,0,1-.255,0,.374.374,0,0,0-.483.21c-.128.219-.283.356-.474.055-.091-.155-.2-.082-.3,0a2.089,2.089,0,0,1-1.678.319,1.587,1.587,0,0,0-.775.064,1.733,1.733,0,0,1-1.441.1,1,1,0,0,0-.784.109,1.25,1.25,0,0,1-.775,0,1.031,1.031,0,0,0-.912.109,1.824,1.824,0,0,1-1.14.21,1.149,1.149,0,0,0-.629.082,3.347,3.347,0,0,1-1.715.2.7.7,0,0,0-.365.055c-.082,0-.182.109-.246.091a7.616,7.616,0,0,0-1.231.082,4.643,4.643,0,0,0-1.441.255,5.117,5.117,0,0,1-1.578.173,5.682,5.682,0,0,0-1.733.274c-.1,0-.255.128-.292.1-.365-.356-.794-.073-1.177,0a14.429,14.429,0,0,0-3.229.456.748.748,0,0,1-.657-.082.912.912,0,0,0-.912,0,2.052,2.052,0,0,1-.766.219,19.356,19.356,0,0,1-2.4.21c-.246,0-.429.228-.711.164a1.879,1.879,0,0,0-1.24.1.347.347,0,0,1-.21,0c-.912,0-1.824.255-2.736.3a1.715,1.715,0,0,0-.73.173.474.474,0,0,1-.356,0,2.39,2.39,0,0,0-1.359.128c-.137.055-.283.146-.41.064a.83.83,0,0,0-.812,0,1.049,1.049,0,0,1-.83,0,.338.338,0,0,0-.31,0c-.1,0-.21.109-.31.064a1.368,1.368,0,0,0-1.085.082.264.264,0,0,1-.2,0c-.374-.219-.721-.055-1.076.073a1.824,1.824,0,0,1-1.3.155.531.531,0,0,0-.31.064c-.1.064-.21.091-.255.055-.493-.337-.857.155-1.286.228-.173,0-.192.21-.21.337a.912.912,0,0,1-.356.575c-.283.237-.629.41-.748.8a.328.328,0,0,1-.155.137,1.769,1.769,0,0,0-.912,1.022s-.046.119-.082.137c-.575.283-.721.912-1.231,1.286,0,0-.082.046-.082.064-.046.465-.511.6-.748.912a1.031,1.031,0,0,1-.465.347,1.04,1.04,0,0,0-.575.6,1.2,1.2,0,0,1-.83.83c-.109,0-.246.082-.246.182,0,.347-.438.456-.474.794,0,.119-.182.155-.283.219s-.383.219-.4.474a.265.265,0,0,1-.192.228,2.408,2.408,0,0,0-.529.374.775.775,0,0,1-.8.091c-.31-.119-.365-.3-.283-.62s.356-.538.328-.912c.383-.082.347-.556.556-.657.493-.237.62-.757,1.012-1.058a10.806,10.806,0,0,0,.794-.794c.292-.255.83-.52.967-1.022a.347.347,0,0,1,.2-.237,1.934,1.934,0,0,0,1.2-1.222c.082-.246.347-.356.556-.483s.42-.219.41-.5a.255.255,0,0,1,.109-.182c.374-.3.556-.775.994-1.012a.7.7,0,0,0,.31-.356A3.01,3.01,0,0,1,20,107.562a.565.565,0,0,0,.31-.292,2.791,2.791,0,0,1,.584-.8,2.463,2.463,0,0,1,.693-.648c.219-.109.246-.347.4-.493a7.461,7.461,0,0,0,1.25-1.633.994.994,0,0,1,.328-.347,1.45,1.45,0,0,0,.6-.593c.082-.173.31-.228.474-.347a1.341,1.341,0,0,0,.657-.739c.064-.255.347-.347.538-.5a1.1,1.1,0,0,0,.4-.465,1.3,1.3,0,0,1,.675-.721.912.912,0,0,0,.465-.493,1.605,1.605,0,0,1,.721-.757c.292-.164.593-.347.638-.739,0-.128.128-.21.228-.292a10.946,10.946,0,0,0,1.3-1.3h0A7.6,7.6,0,0,0,32,94.582a.483.483,0,0,1,.265-.164.365.365,0,0,0,.246-.2c.173-.4.584-.611.812-.967.365-.565,1.012-.912,1.332-1.5a.912.912,0,0,1,.383-.365,1.988,1.988,0,0,0,.784-.794A5.81,5.81,0,0,1,37.2,89.21a1.341,1.341,0,0,0,.493-.547,4.168,4.168,0,0,1,1.259-1.551c.328-.31.693-.565,1.049-.848.1-.073.219-.146.164-.292-.119-.292.109-.374.3-.465s.483-.246.511-.556a.164.164,0,0,1,.073-.137c.392-.246.565-.721.976-.912a1.131,1.131,0,0,0,.6-.721.225.225,0,0,1,.1-.173c.62-.255.693-1.022,1.3-1.3.164-.082.274-.328.374-.511a2.6,2.6,0,0,1,.766-.912,3.165,3.165,0,0,0,.711-.766,9.12,9.12,0,0,0,1-1.3.31.31,0,0,1,.164-.137c.374-.1.511-.41.675-.7.055-.109.1-.246.219-.292.456-.173.666-.584.912-.912a5.728,5.728,0,0,1,.912-.912c.347-.3.529-.766.994-.912a.274.274,0,0,0,.137-.219.328.328,0,0,1,.119-.237c.292-.182.648-.31.748-.693.347-.082.429-.356.575-.629s.565-.483.848-.73c.119-.109.219-.192.064-.337s-.064-.146,0-.164.319-.255.511-.265.356-.082.274-.347.091-.182.2-.155.255-.073.337-.237a8.463,8.463,0,0,1,.8-1.213c.082-.091.146-.2.283-.228s.31-.237.41-.392.265-.3.337-.447c.274-.556.794-.912,1.067-1.487a2.736,2.736,0,0,1,1.031-1.095c.137-.091.283-.128.328-.31s.182-.2.3-.283.228-.137.228-.319,0-.292.2-.319a.182.182,0,0,0,.164-.228.739.739,0,0,1,.109-.337c.109-.246.219-.392.52-.283.137.055.265,0,.173-.182s.055-.2.119-.292c.319-.483.912-.73,1.1-1.323,0-.109.109-.128.21-.137s.182-.073.119-.2,0-.155,0-.173c.255,0,.219-.328.337-.4.337-.228.438-.638.775-.857a1.541,1.541,0,0,1,.319-.2c.255-.055.483-.1.4-.438.374-.274.456-.812.912-.985A.456.456,0,0,0,65,58.1c.173-.137-.137-.5.31-.556.265,0,.337-.328.356-.584,0-.091.137-.091.219-.128.274-.128.547-.255.593-.62,0-.119.137-.246.237-.347a1.168,1.168,0,0,0,.219-.292c.137-.2.082-.474.21-.62s.429-.073.575-.237a7.179,7.179,0,0,1,.912-.912,2.112,2.112,0,0,0,.128-.173c.164-.173.62-.055.511-.5.246-.137.356-.392.529-.584a2.426,2.426,0,0,1,1-.584c.392-.128.493-.192.392-.556a.365.365,0,0,1,.091-.41,2.362,2.362,0,0,1,.821-.739.775.775,0,0,0,.2-.182c.265-.31.429-.684.721-.976.119-.119-.064-.447.328-.4.2,0,.347-.228.575-.255s.356-.064.237-.42a.3.3,0,0,1,.192-.42,6.568,6.568,0,0,0,.912-.529c.219-.155.429-.246.274-.556a.217.217,0,0,1,.064-.192c.064-.046.182-.319.392-.337s.155-.337.292-.438.365.128.556,0,.128-.109.109-.164c-.137-.356.055-.374.347-.438a.447.447,0,0,0,.265-.565.415.415,0,0,1,.082-.319c.319-.21.5-.611.912-.62.1,0,.182-.064.21-.2.073-.365.082-.365.438-.283h.219" transform="translate(-0.993 -0.715)"/>
    <path id="Trazado_1918" data-name="Trazado 1918" d="M81.01,121.151c0,.091,0,.164-.055.2a2.508,2.508,0,0,0-.638.711.556.556,0,0,1-.7.219.5.5,0,0,0-.5.055c-.128.082-.265.173-.4.119a1.2,1.2,0,0,0-.967.109,2.2,2.2,0,0,1-1.3.1c-.055,0-.119-.055-.146,0-.347.2-.721.082-1.076.146l-1.35.274a1,1,0,0,1-.429,0c-.648-.173-1.25.2-1.824.228a8.83,8.83,0,0,0-1.888.283.411.411,0,0,1-.356-.082c-.255-.228-.511-.146-.784,0a3.155,3.155,0,0,1-1.66.374,10.088,10.088,0,0,0-2.545.283,2.444,2.444,0,0,1-1.651,0,.3.3,0,0,0-.2,0,8.209,8.209,0,0,0-1.824.438c-.356.192-.73,0-1.085-.073a.711.711,0,0,0-.584.1.748.748,0,0,1-.8.164.182.182,0,0,0-.155,0c-.483.31-1,0-1.5.137a8.462,8.462,0,0,0-.83.2,3.073,3.073,0,0,1-1.414.128,5.472,5.472,0,0,0-1.824.155,2.352,2.352,0,0,1-.31.064,6.312,6.312,0,0,0-2.107.182c-.7-.265-1.341.246-2.025.246-.119,0-.246.082-.365.064a3.913,3.913,0,0,0-1.961.465c-.164.064-.274.082-.41-.055-.265-.274-.374-.274-.584,0s-.328.21-.566.246c-.912.146-1.724-.064-2.572.146a.666.666,0,0,1-.511-.055.4.4,0,0,0-.593.155.31.31,0,0,1-.493.128.6.6,0,0,0-.556,0c-.347.119-.739,0-1.085.155a.128.128,0,0,1-.1,0c-.3-.392-.657-.128-.912,0a.912.912,0,0,1-.857,0c-.31-.146-.693-.137-1-.319a6.083,6.083,0,0,0-1.122-.547.152.152,0,0,1-.146-.219.219.219,0,0,1,.283-.082,1.3,1.3,0,0,0,.994,0,8,8,0,0,1,1.131-.319c.292-.082.456.091.684.146s.456-.283.657-.146c.538.383.976,0,1.432-.182a1.432,1.432,0,0,1,1.277-.064c.137.073.274,0,.4-.064a1.149,1.149,0,0,1,.976-.091.556.556,0,0,0,.465-.046c.556-.31,1.2-.173,1.824-.374.4.3.794,0,1.195-.073h.055a1.624,1.624,0,0,0,1.167-.1.283.283,0,0,1,.255,0c.265.292.547.146.866.055s.684-.164,1.022-.292c.2-.073.5-.182.611.173,0,.128.146.137.255.119a.766.766,0,0,0,.447-.164,1.177,1.177,0,0,1,1.377-.146.337.337,0,0,0,.392-.1.721.721,0,0,1,.912-.192c.21.119.493,0,.721-.1a.912.912,0,0,1,.62-.1c.21.064.374-.064.556-.146.347-.155.41-.128.6.164s.219.319.547,0,.6-.474,1-.237a.3.3,0,0,0,.383-.1.611.611,0,0,1,.912-.055.328.328,0,0,0,.429,0c.228-.1.474-.164.7-.265a.556.556,0,0,1,.465-.055.529.529,0,0,0,.465-.055c.2-.109.42,0,.611-.082a5.244,5.244,0,0,1,1.56,0,.493.493,0,0,0,.3-.091,1.323,1.323,0,0,1,.967-.228h.912a.976.976,0,0,1,.62.1.173.173,0,0,0,.283-.119c.055-.2.2-.219.374-.182a1.258,1.258,0,0,0,.73-.109.383.383,0,0,1,.31-.055,1.679,1.679,0,0,0,.912,0,15.8,15.8,0,0,1,1.742-.109.964.964,0,0,0,.465-.073,1.213,1.213,0,0,1,.967-.228c1.259,0,2.508-.237,3.776-.347h.155a3.1,3.1,0,0,0,1.678-.146,1.532,1.532,0,0,1,1.186,0,.546.546,0,0,0,.3-.064.41.41,0,0,1,.41,0,.493.493,0,0,0,.511,0,9.069,9.069,0,0,1,1.541-.383c.146,0,.283-.064.356.091" transform="translate(-3.008 -10.629)"/>
    <path id="Trazado_1919" data-name="Trazado 1919" d="M99.092,97.221a.128.128,0,0,1-.1.164.137.137,0,0,1-.192-.109.109.109,0,0,1,.073-.128.164.164,0,0,1,.219.073" transform="translate(-8.685 -8.526)"/>
  </g>
</svg>
