<?xml version="1.0" standalone="no"?>
<!DOCTYPE svg PUBLIC "-//W3C//DTD SVG 1.1//EN" "http://www.w3.org/Graphics/SVG/1.1/DTD/svg11.dtd" >
<svg>
<metadata>
Created by FontForge 20090622 at Mon Oct 26 17:39:27 2015
 By deploy user
True type fonts.
</metadata>
<defs>
<font id="Avant-GardeGothicT." horiz-adv-x="554" >
  <font-face 
    font-family="Avant Garde Gothic T."
    font-weight="400"
    font-stretch="normal"
    units-per-em="1000"
    panose-1="0 0 0 0 0 0 0 0 0 0"
    ascent="800"
    descent="-200"
    x-height="547"
    cap-height="739"
    bbox="-115 -223 1151 989"
    underline-thickness="58"
    underline-position="-67"
    unicode-range="U+0020-U+F002"
  />
<missing-glyph horiz-adv-x="786" 
d="M49 0v786h688v-786h-688zM688 49v688h-590v-688h590z" />
    <glyph glyph-name=".notdef" horiz-adv-x="786" 
d="M49 0v786h688v-786h-688zM688 49v688h-590v-688h590z" />
    <glyph glyph-name=".null" horiz-adv-x="0" 
 />
    <glyph glyph-name="nonmarkingreturn" horiz-adv-x="277" 
 />
    <glyph glyph-name="space" unicode=" " horiz-adv-x="277" 
 />
    <glyph glyph-name="exclam" unicode="!" horiz-adv-x="295" 
d="M111 739h74v-546h-74v546zM111 126h74v-126h-74v126z" />
    <glyph glyph-name="quotedbl" unicode="&#x22;" horiz-adv-x="309" 
d="M74 739h52v-226h-52v226zM185 739h52v-226h-52v226z" />
    <glyph glyph-name="numbersign" unicode="#" 
d="M298 739h42l-72 -250h89l74 250h41l-73 -250h150l-16 -58h-151l-36 -123h150l-17 -58h-151l-73 -250h-43l74 250h-90l-74 -250h-42l74 250h-149l16 58h150l36 123h-149l16 58h151zM249 431l-36 -123h91l35 123h-90z" />
    <glyph glyph-name="dollar" unicode="$" 
d="M245 808h65v-82q78 -15 120 -65t42 -118h-69q-6 54 -34 84q-32 34 -89 34q-47 0 -79 -31t-32 -83q0 -79 69 -103q32 -11 49 -16q49 -16 71 -25q57 -23 89 -71t32 -110q0 -73 -50 -133t-119 -60v-83h-65v83q-77 16 -122 65q-48 53 -48 133h70q0 -59 37.5 -96.5t94.5 -37.5
q53 0 92 37t39 91q0 46 -24 79.5t-76 50.5l-80 25q-66 20 -100 71q-30 45 -30 103q0 68 41.5 116t105.5 59v83z" />
    <glyph glyph-name="percent" unicode="%" horiz-adv-x="775" 
d="M187 751q77 0 125.5 -50.5t48.5 -123.5q0 -72 -51 -124t-123 -52q-71 0 -122.5 52.5t-51.5 124.5q0 75 51 124t123 49zM513 739h72l-332 -740h-72zM577 337q77 0 125.5 -50.5t48.5 -123.5q0 -72 -51 -124t-123 -52q-71 0 -122.5 52.5t-51.5 124.5q0 75 51 124t123 49z
M187 680q-42 0 -72.5 -28.5t-30.5 -74.5q0 -44 30.5 -74.5t72.5 -30.5q47 0 75 32.5t28 76.5q0 42 -29.5 70.5t-73.5 28.5zM577 266q-42 0 -72.5 -28.5t-30.5 -74.5q0 -44 30.5 -74.5t72.5 -30.5q47 0 75 32.5t28 76.5q0 42 -29.5 70.5t-73.5 28.5z" />
    <glyph glyph-name="ampersand" unicode="&#x26;" horiz-adv-x="757" 
d="M319 751q73 0 127 -51t54 -123q0 -61 -48 -108q-38 -37 -97 -59l140 -138l107 208h83l-137 -261l187 -182l-53 -50l-169 165q-39 -78 -87 -117q-58 -48 -139 -48q-96 0 -163 67t-67 161q0 71 44.5 127.5t121.5 92.5q-38 39 -55 69q-23 41 -23 85q0 66 53 114t121 48z
M322 680q-43 0 -73 -26.5t-30 -67.5q0 -34 27 -68q4 -5 53 -54q53 17 85 43q42 34 42 80q0 38 -32.5 65.5t-71.5 27.5zM280 379q-149 -70 -149 -169q0 -61 43.5 -106.5t106.5 -45.5t110 46q35 35 66 102z" />
    <glyph glyph-name="quotesingle" unicode="'" horiz-adv-x="198" 
d="M74 739h50v-226h-50v226z" />
    <glyph glyph-name="parenleft" unicode="(" horiz-adv-x="369" 
d="M335 741v-67q-93 -52 -148.5 -154t-55.5 -215q0 -110 55 -210.5t149 -156.5v-66q-49 18 -83.5 43.5t-77.5 75.5q-59 68 -88 149t-29 165q0 122 58 232t159 175q5 3 29.5 15t31.5 14z" />
    <glyph glyph-name="parenright" unicode=")" horiz-adv-x="369" 
d="M34 -129v67q93 52 148.5 154t55.5 215q0 110 -55 210.5t-149 156.5v66q49 -18 83.5 -43.5t77.5 -75.5q59 -68 88 -149t29 -165q0 -122 -58 -232t-159 -175q-5 -3 -29.5 -15t-31.5 -14z" />
    <glyph glyph-name="asterisk" unicode="*" horiz-adv-x="425" 
d="M161 751l52 -90l54 90l46 -28l-53 -90h100v-51h-100l53 -88l-46 -28l-54 91l-52 -91l-48 28l54 88h-103v51h103l-54 90z" />
    <glyph glyph-name="plus" unicode="+" horiz-adv-x="606" 
d="M265 554h76v-213h214v-76h-214v-216h-76v216h-214v76h214v213z" />
    <glyph glyph-name="comma" unicode="," horiz-adv-x="277" 
d="M179 126h74l-88 -193h-74z" />
    <glyph glyph-name="hyphen" unicode="-" horiz-adv-x="332" 
d="M31 334h271v-67h-271v67z" />
    <glyph glyph-name="period" unicode="." horiz-adv-x="277" 
d="M101 126h74v-126h-74v126z" />
    <glyph glyph-name="slash" unicode="/" horiz-adv-x="437" 
d="M329 739h68l-291 -867h-66z" />
    <glyph glyph-name="zero" unicode="0" 
d="M461 671q34 -35 49 -89t15 -114v-188q0 -72 -12 -120.5t-46 -86.5q-37 -42 -83 -64t-106 -22q-113 0 -180.5 74.5t-67.5 195.5v232q0 114 70 188t178 74q59 0 108 -24q40 -20 75 -56zM160 634q-29 -24 -42.5 -66t-13.5 -96v-210q0 -90 39 -143q45 -61 135 -61
q46 0 78.5 16t56.5 47q19 25 28.5 63t9.5 81v207q0 58 -15 101.5t-53 71.5q-20 15 -47.5 25t-57.5 10q-34 0 -63 -12t-55 -34z" />
    <glyph glyph-name="one" unicode="1" 
d="M155 739h199v-739h-74v672h-125v67z" />
    <glyph glyph-name="two" unicode="2" 
d="M276 751q102 0 169 -73q61 -66 61 -150q0 -53 -22 -100t-60 -84l-288 -277h366v-67h-469v66l333 322q26 25 46 65t20 74q0 65 -47.5 109t-113.5 44q-39 0 -73 -17q-42 -22 -67 -65q-9 -17 -13.5 -41.5t-4.5 -56.5h-74q0 129 79 195q67 56 158 56z" />
    <glyph glyph-name="three" unicode="3" 
d="M271 751q79 0 132 -55t53 -132q0 -47 -21 -82q-17 -28 -54 -60q55 -24 89 -79.5t34 -117.5q0 -99 -68.5 -168.5t-169.5 -69.5q-97 0 -165 70t-68 174h74q0 -70 45.5 -121.5t112.5 -51.5q69 0 117 49t48 116q0 40 -19.5 75.5t-52.5 60.5q-22 16 -49.5 22.5t-63.5 6.5h-25
v66l29 -2q55 0 92 28q41 31 41 88q0 49 -32.5 80.5t-82.5 31.5q-47 0 -78.5 -35.5t-31.5 -89.5h-74q0 82 51.5 139t136.5 57z" />
    <glyph glyph-name="four" unicode="4" 
d="M370 739h90v-537h67v-67h-67v-135h-74v135h-374v67zM386 637l-287 -435h287v435z" />
    <glyph glyph-name="five" unicode="5" 
d="M133 739h334v-67h-274l-37 -204q62 35 125 35q103 0 175 -76t72 -181q0 -110 -72.5 -184.5t-175.5 -74.5q-107 0 -180.5 72.5t-73.5 172.5h74q0 -72 51 -123t125 -51q75 0 126.5 54.5t51.5 131.5q0 76 -51 132t-125 56q-47 0 -86 -22q-33 -19 -67 -56l-59 21z" />
    <glyph glyph-name="six" unicode="6" 
d="M295 739h86l-176 -261q19 13 41 18.5t47 5.5q99 0 169 -80q67 -77 67 -177q0 -104 -70 -179q-74 -79 -183 -79q-104 0 -177.5 76.5t-73.5 181.5q0 47 16 93q13 39 36 73zM276 431q-74 0 -125.5 -53.5t-51.5 -129.5q0 -77 51.5 -133.5t125.5 -56.5t126.5 54.5t52.5 131.5
q0 76 -51.5 131.5t-127.5 55.5z" />
    <glyph glyph-name="seven" unicode="7" 
d="M64 739h426v-67l-302 -672h-80l304 672h-348v67z" />
    <glyph glyph-name="eight" unicode="8" 
d="M279 751q82 0 138 -56t56 -137q0 -44 -20 -82q-23 -44 -68 -63q63 -29 97 -87q30 -51 30 -108q0 -96 -69.5 -163.5t-168.5 -67.5q-95 0 -163.5 67.5t-68.5 161.5q0 65 34.5 119.5t90.5 77.5q-41 20 -63.5 59.5t-22.5 89.5q0 81 57 135t141 54zM279 680q-51 0 -87.5 -33.5
t-36.5 -81.5q0 -53 37 -87t87 -34q48 0 84 35t36 84q0 48 -35.5 82.5t-84.5 34.5zM275 373q-68 0 -113.5 -47.5t-45.5 -112.5t46 -110t113 -45q70 0 116.5 47.5t46.5 112.5q0 66 -48.5 110.5t-114.5 44.5z" />
    <glyph glyph-name="nine" unicode="9" 
d="M278 751q104 0 177.5 -75.5t73.5 -180.5q0 -45 -11 -81q-15 -50 -59 -115l-200 -299h-86l175 259q-20 -12 -42.5 -17.5t-45.5 -5.5q-99 0 -169 81q-66 77 -66 176q0 105 73.5 181.5t179.5 76.5zM278 680q-74 0 -126.5 -53.5t-52.5 -130.5q0 -67 45 -122q52 -64 136 -64
q89 0 137 65q38 51 38 115q0 76 -51 133t-126 57z" />
    <glyph glyph-name="colon" unicode=":" horiz-adv-x="277" 
d="M101 510h74v-126h-74v126zM101 126h74v-126h-74v126z" />
    <glyph glyph-name="semicolon" unicode=";" horiz-adv-x="277" 
d="M129 510h74v-126h-74v126zM129 126h74l-88 -193h-74z" />
    <glyph glyph-name="less" unicode="&#x3c;" horiz-adv-x="606" 
d="M558 565v-73l-414 -191l414 -191v-73l-509 232v64z" />
    <glyph glyph-name="equal" unicode="=" horiz-adv-x="606" 
d="M51 436h504v-75h-504v75zM51 241h504v-75h-504v75z" />
    <glyph glyph-name="greater" unicode="&#x3e;" horiz-adv-x="606" 
d="M48 38v73l414 191l-414 191v73l509 -232v-64z" />
    <glyph glyph-name="question" unicode="?" horiz-adv-x="591" 
d="M301 751q97 0 160.5 -64.5t63.5 -158.5q0 -39 -13.5 -71t-48.5 -67l-66 -67q-31 -31 -45 -65.5t-14 -64.5h-74q0 80 48 142l90 93q49 53 49 105q0 62 -45.5 104.5t-110.5 42.5q-69 0 -114 -49t-45 -123h-71q0 51 11.5 88.5t42.5 72.5q35 39 80.5 60.5t101.5 21.5z
M264 126h74v-126h-74v126z" />
    <glyph glyph-name="at" unicode="@" horiz-adv-x="867" 
d="M454 752q141 0 240 -89q103 -93 103 -230q0 -106 -69 -198q-72 -96 -164 -96q-30 0 -56.5 14.5t-32.5 39.5q-17 -23 -52.5 -37.5t-66.5 -14.5q-63 0 -102 44t-39 107q0 108 69 203q75 103 180 103q37 0 67.5 -17.5t46.5 -49.5l15 47h68l-108 -324q-7 -17 -7 -31
q0 -15 8.5 -23.5t24.5 -8.5q14 0 30 8q58 29 95 85q44 68 44 158q0 114 -93 190q-87 71 -203 71q-139 0 -234.5 -99t-95.5 -237t97 -234t234 -96q82 0 151 36.5t116 101.5l60 1q-47 -88 -137 -138t-190 -50q-163 0 -272.5 112.5t-109.5 272.5q0 159 112 269t271 110z
M466 538q-75 0 -128 -87q-46 -75 -46 -153q0 -41 21 -67t58 -26q67 0 120 99q46 86 46 161q0 30 -19.5 51.5t-51.5 21.5z" />
    <glyph glyph-name="A" unicode="A" horiz-adv-x="740" 
d="M330 739h82l317 -739h-80l-107 248h-344l-107 -248h-80zM371 654l-144 -339h286z" />
    <glyph glyph-name="B" unicode="B" horiz-adv-x="574" 
d="M76 739h193q125 0 184 -68q23 -27 37 -59t14 -68q0 -46 -22 -84.5t-59 -64.5q57 -24 89 -73.5t32 -111.5q0 -72 -47 -131q-34 -42 -88.5 -60.5t-130.5 -18.5h-202v739zM282 673l-132 -1v-249h115q70 0 112 26q53 33 53 99q0 42 -30 77q-41 48 -118 48zM150 356v-289h141
q78 0 126 35q52 38 52 108q0 77 -59 114q-50 32 -137 32h-123z" />
    <glyph glyph-name="C" unicode="C" horiz-adv-x="813" 
d="M426 751q110 0 207 -58.5t135 -143.5h-83q-41 61 -111.5 96t-145.5 35q-124 0 -217 -92t-93 -216q0 -126 92 -220t221 -94q77 0 145 36t112 99h83q-50 -91 -141 -148.5t-199 -57.5q-165 0 -276 112t-111 273q0 155 112 267t270 112z" />
    <glyph glyph-name="D" unicode="D" horiz-adv-x="744" 
d="M76 739h211q91 0 171.5 -28t133.5 -83q49 -50 76 -110q32 -70 32 -146q0 -77 -25.5 -140.5t-84.5 -125.5q-47 -49 -121.5 -77.5t-165.5 -28.5h-227v739zM150 672v-605h119q73 0 128 13q69 16 115 55q57 48 85.5 104.5t28.5 132.5q0 57 -19.5 106.5t-54.5 88.5
q-48 54 -113.5 79.5t-148.5 25.5h-140z" />
    <glyph glyph-name="E" unicode="E" horiz-adv-x="536" 
d="M76 739h404v-67h-330v-266h319v-67h-319v-272h330v-67h-404v739z" />
    <glyph glyph-name="F" unicode="F" horiz-adv-x="485" 
d="M76 739h375v-67h-301v-267h290v-67h-290v-338h-74v739z" />
    <glyph glyph-name="G" unicode="G" horiz-adv-x="872" 
d="M439 751q113 0 210 -58t137 -151h-85q-35 63 -109.5 100.5t-151.5 37.5q-120 0 -210 -75q-49 -40 -79 -100q-33 -65 -33 -133q0 -132 96 -223t228 -91q102 0 187 60t113 156h-413v67h501q0 -137 -111 -243q-116 -111 -279 -111q-159 0 -276 110q-120 113 -120 275
q0 85 38 161q34 69 98 125q105 93 259 93z" />
    <glyph glyph-name="H" unicode="H" horiz-adv-x="683" 
d="M76 739h74v-325h383v325h74v-739h-74v347h-383v-347h-74v739z" />
    <glyph glyph-name="I" unicode="I" horiz-adv-x="226" 
d="M76 739h74v-739h-74v739z" />
    <glyph glyph-name="J" unicode="J" horiz-adv-x="482" 
d="M332 739h74v-503q0 -72 -7.5 -108.5t-30.5 -65.5q-29 -36 -69.5 -55.5t-90.5 -19.5q-80 0 -137 51q-60 54 -60 137h73q0 -52 38.5 -84.5t91.5 -32.5q71 0 102 59q10 18 13 43t3 76v503z" />
    <glyph glyph-name="K" unicode="K" horiz-adv-x="591" 
d="M76 739h74v-425l341 425h94l-292 -360l292 -379h-92l-247 320l-96 -118v-202h-74v739z" />
    <glyph glyph-name="L" unicode="L" horiz-adv-x="462" 
d="M76 739h74v-672h306v-67h-380v739z" />
    <glyph glyph-name="M" unicode="M" horiz-adv-x="919" 
d="M76 739h114l270 -629l269 629h114v-739h-74v657l-278 -657h-63l-278 656v-656h-74v739z" />
    <glyph glyph-name="N" unicode="N" horiz-adv-x="740" 
d="M76 739h100l414 -613v613h74v-739h-74l-440 650v-650h-74v739z" />
    <glyph glyph-name="O" unicode="O" horiz-adv-x="869" 
d="M434 751q158 0 274.5 -110.5t116.5 -267.5q0 -162 -115 -274t-275 -112q-158 0 -273 109q-118 112 -118 271t114.5 271.5t275.5 112.5zM434 680q-132 0 -224 -91t-92 -222q0 -127 95 -218t223 -91q129 0 222 91t93 223q0 127 -93.5 217.5t-223.5 90.5z" />
    <glyph glyph-name="P" unicode="P" horiz-adv-x="592" 
d="M76 739h211q66 0 118.5 -13.5t87.5 -45.5t53.5 -70.5t18.5 -91.5q0 -106 -74 -165q-69 -55 -181 -55h-160v-298h-74v739zM450 622q-33 31 -68 40.5t-103 9.5h-129v-307h149q85 0 136 37q56 41 56 118q0 30 -9 55.5t-32 46.5z" />
    <glyph glyph-name="Q" unicode="Q" horiz-adv-x="871" 
d="M442 751q170 0 283.5 -110.5t113.5 -276.5q0 -78 -34 -150t-90 -123q22 -16 47 -26t48 -10l17 1v-69q-57 0 -93.5 14.5t-70.5 48.5q-51 -33 -109.5 -48t-113.5 -15q-161 0 -278.5 109.5t-117.5 268.5q0 164 114 275t284 111zM441 680q-136 0 -229.5 -91.5t-93.5 -228.5
q0 -25 2 -43t10 -38q75 27 159 27q92 0 169 -29q90 -34 207 -135q46 45 73 102.5t27 120.5q0 133 -94 224t-230 91zM274 237q-25 0 -58 -5.5t-57 -16.5q49 -76 121.5 -116.5t163.5 -40.5q43 0 86 10t76 34q-113 84 -132 94q-79 41 -200 41z" />
    <glyph glyph-name="R" unicode="R" horiz-adv-x="607" 
d="M76 739h213q75 0 128.5 -17t93.5 -57q31 -31 48.5 -72.5t17.5 -93.5q0 -90 -62.5 -156.5t-155.5 -66.5l208 -276h-92l-251 335h76q34 0 69 8q47 11 73.5 33t43.5 55t17 69q0 38 -12.5 67.5t-35.5 52.5q-27 27 -67 39.5t-89 12.5h-149v-672h-74v739z" />
    <glyph glyph-name="S" unicode="S" horiz-adv-x="498" 
d="M254 751q85 0 144.5 -56.5t59.5 -143.5h-76q-7 58 -43 93.5t-92 35.5q-52 0 -90 -37t-38 -91q0 -43 25 -74q22 -27 60 -38l140 -43q64 -27 98 -79.5t34 -114.5q0 -90 -67 -153t-158 -63q-95 0 -162 61t-67 159h79q0 -58 41.5 -103.5t106.5 -45.5q64 0 108.5 40.5
t44.5 104.5q0 47 -29 84t-78 54q-26 8 -42 12q-51 15 -86 27q-60 21 -91 67.5t-31 105.5q0 86 60 142t149 56z" />
    <glyph glyph-name="T" unicode="T" horiz-adv-x="426" 
d="M7 739h412v-67h-168v-672h-74v672h-170v67z" />
    <glyph glyph-name="U" unicode="U" horiz-adv-x="655" 
d="M76 739h74v-470q0 -87 41 -144q48 -67 137 -67q84 0 132 62q45 58 45 153v466h74v-474q0 -122 -68 -200t-182 -78q-59 0 -104 20t-83 60q-32 33 -49 86.5t-17 116.5v469z" />
    <glyph glyph-name="V" unicode="V" horiz-adv-x="702" 
d="M10 739h81l259 -647l261 647h81l-307 -739h-70z" />
    <glyph glyph-name="W" unicode="W" horiz-adv-x="960" 
d="M10 739h77l181 -644l177 644h70l177 -643l181 643h77l-211 -739h-97l-162 605l-163 -605h-97z" />
    <glyph glyph-name="X" unicode="X" horiz-adv-x="609" 
d="M23 739h86l196 -296l195 296h86l-239 -361l254 -378h-87l-209 316l-210 -316h-87l251 378z" />
    <glyph glyph-name="Y" unicode="Y" horiz-adv-x="592" 
d="M2 739h81l213 -415l213 415h81l-257 -492v-247h-74v247z" />
    <glyph glyph-name="Z" unicode="Z" horiz-adv-x="480" 
d="M28 739h435v-67l-362 -605h373v-67h-457v66l363 606h-352v67z" />
    <glyph glyph-name="bracketleft" unicode="[" horiz-adv-x="351" 
d="M313 740v-77q-69 -30 -99 -80.5t-30 -131.5v-284q0 -85 28.5 -136.5t100.5 -81.5v-77q-94 28 -147.5 98.5t-53.5 166.5v338q0 96 56 167t145 98z" />
    <glyph glyph-name="backslash" unicode="\" horiz-adv-x="605" 
d="M84 739h71l309 -739h-70z" />
    <glyph glyph-name="bracketright" unicode="]" horiz-adv-x="351" 
d="M38 -128v77q69 30 99 80.5t30 131.5v284q0 85 -27 134q-30 54 -102 84v77q94 -28 147.5 -98.5t53.5 -166.5v-338q0 -96 -56 -167t-145 -98z" />
    <glyph glyph-name="asciicircum" unicode="^" horiz-adv-x="606" 
d="M273 739h58l257 -559h-64l-223 484l-219 -484h-64z" />
    <glyph glyph-name="underscore" unicode="_" horiz-adv-x="500" 
d="M0 -67h500v-58h-500v58z" />
    <glyph glyph-name="grave" unicode="`" horiz-adv-x="378" 
d="M304 671l-33 -58l-197 106l32 60z" />
    <glyph glyph-name="a" unicode="a" horiz-adv-x="683" 
d="M334 559q80 0 138 -36q64 -40 77 -84v108h71v-547h-71v106q-28 -57 -86.5 -88t-124.5 -31q-61 0 -116 23q-70 30 -128 95q-20 23 -36 73.5t-16 97.5q0 116 84.5 199.5t207.5 83.5zM335 488q-91 0 -155 -64t-64 -154q0 -88 66 -150t155 -62q87 0 149.5 64.5t62.5 149.5
q0 90 -61 153t-153 63z" />
    <glyph glyph-name="b" unicode="b" horiz-adv-x="682" 
d="M133 0h-70v739h74v-298q14 40 60 73q63 45 150 45q120 0 206.5 -82.5t86.5 -200.5q0 -45 -16.5 -94.5t-37.5 -74.5q-54 -64 -102 -90q-55 -30 -133 -30q-71 0 -131.5 30.5t-86.5 80.5v-98zM343 488q-84 0 -145 -57q-66 -62 -66 -156q0 -96 65 -158q62 -59 151 -59
q91 0 154.5 62.5t63.5 154.5q0 90 -64.5 151.5t-158.5 61.5z" />
    <glyph glyph-name="c" unicode="c" horiz-adv-x="647" 
d="M338 559q89 0 163 -47.5t107 -130.5h-83q-28 50 -80.5 78.5t-105.5 28.5q-93 0 -158 -60.5t-65 -151.5q0 -90 62 -154t156 -64q59 0 102 22q48 25 89 80h82q-36 -81 -106.5 -127t-159.5 -46q-126 0 -212.5 82.5t-86.5 204.5q0 119 87 202t209 83z" />
    <glyph glyph-name="d" unicode="d" horiz-adv-x="685" 
d="M548 739h74v-739h-70v102q-41 -58 -87 -84q-54 -31 -132 -31q-112 0 -199 80q-92 85 -92 207q0 119 85 202t208 83q76 0 136 -34q53 -30 77 -76v290zM331 488q-89 0 -152 -62t-63 -151t63 -153t155 -64q89 0 152.5 64.5t63.5 153.5t-63.5 150.5t-155.5 61.5z" />
    <glyph glyph-name="e" unicode="e" horiz-adv-x="650" 
d="M327 559q63 0 116.5 -25.5t96.5 -72.5q40 -44 56 -96.5t16 -117.5h-495q0 -72 62.5 -130.5t143.5 -58.5q60 0 116 32.5t79 87.5h77q-31 -84 -104 -137.5t-162 -53.5q-119 0 -203 82t-84 203q0 118 82.5 202.5t202.5 84.5zM328 488q-80 0 -138.5 -49.5t-73.5 -124.5h421
q-14 73 -74 123.5t-135 50.5z" />
    <glyph glyph-name="f" unicode="f" horiz-adv-x="314" 
d="M310 739v-67q-72 0 -103.5 -28.5t-31.5 -96.5h136v-67h-136v-480h-74v480h-85v67h85q0 102 57 149q52 43 152 43z" />
    <glyph glyph-name="g" unicode="g" horiz-adv-x="673" 
d="M321 559q86 0 148 -43q44 -31 70 -77v108h71v-487q0 -54 -10 -92t-36 -72q-44 -56 -105.5 -83t-127.5 -27q-94 0 -169 54.5t-100 146.5h73q30 -62 82 -96t119 -34q53 0 96.5 19.5t73.5 60.5q21 28 27 65.5t6 107.5q-22 -53 -75 -86q-59 -37 -138 -37q-116 0 -200 82
t-84 202q0 118 79 203t200 85zM320 488q-88 0 -146 -62t-58 -149q0 -94 60.5 -156.5t150.5 -62.5q91 0 151 65t60 151q0 90 -63 152t-155 62z" />
    <glyph glyph-name="h" unicode="h" horiz-adv-x="610" 
d="M63 739h74v-271q24 44 67.5 67.5t99.5 23.5q102 0 172.5 -70.5t70.5 -180.5v-308h-74v303q0 85 -48 135t-124 50q-67 0 -112 -40q-52 -46 -52 -130v-318h-74v739z" />
    <glyph glyph-name="i" unicode="i" horiz-adv-x="200" 
d="M63 739h74v-126h-74v126zM63 547h74v-547h-74v547z" />
    <glyph glyph-name="j" unicode="j" horiz-adv-x="203" 
d="M66 739h74v-126h-74v126zM66 547h74v-514q0 -68 -9.5 -99.5t-32.5 -59.5q-55 -66 -143 -66v72q51 0 81 33t30 120v514z" />
    <glyph glyph-name="k" unicode="k" horiz-adv-x="502" 
d="M63 739h74v-519l251 327h95l-212 -274l226 -273h-95l-178 216l-87 -112v-104h-74v739z" />
    <glyph glyph-name="l" unicode="l" horiz-adv-x="200" 
d="M63 739h74v-739h-74v739z" />
    <glyph glyph-name="m" unicode="m" horiz-adv-x="938" 
d="M279 559q60 0 111 -28t80 -76q19 44 72.5 74t111.5 30q45 0 90 -23q37 -19 75 -56q32 -30 44 -71t12 -94v-315h-74v319q0 69 -38 117q-42 52 -112 52q-61 0 -103 -41t-42 -108v-339h-74v328q0 68 -43 114t-106 46q-65 0 -105.5 -41.5t-40.5 -108.5v-338h-74v547h70v-72
q15 28 29 42q44 42 117 42z" />
    <glyph glyph-name="n" unicode="n" horiz-adv-x="610" 
d="M474 492q73 -65 73 -182v-310h-74v303q0 82 -46.5 133.5t-125.5 51.5q-36 0 -64.5 -12t-53.5 -35q-46 -43 -46 -133v-308h-74v547h70v-82q29 42 66 65q46 29 105 29q49 0 92 -17.5t78 -49.5z" />
    <glyph glyph-name="o" unicode="o" horiz-adv-x="655" 
d="M329 559q113 0 198.5 -84.5t85.5 -198.5q0 -115 -82 -202t-202 -87q-115 0 -201 82t-86 200q0 121 83.5 205.5t203.5 84.5zM328 488q-89 0 -150.5 -64.5t-61.5 -153.5t62.5 -150.5t151.5 -61.5q88 0 148.5 63.5t60.5 155.5q0 89 -62 150t-149 61z" />
    <glyph glyph-name="p" unicode="p" horiz-adv-x="682" 
d="M543 484q51 -40 76 -103q21 -53 21 -110q0 -118 -86 -201t-209 -83q-61 0 -111 23q-66 30 -97 94v-296h-74v739h70v-95q33 49 84 76q58 31 134 31q48 0 90.5 -14.5t101.5 -60.5zM350 488q-91 0 -154.5 -60.5t-63.5 -152.5t61.5 -154.5t153.5 -62.5q89 0 154 61t65 153
q0 91 -63.5 153.5t-152.5 62.5z" />
    <glyph glyph-name="q" unicode="q" horiz-adv-x="682" 
d="M330 559q73 0 136 -33q56 -30 83 -74v95h70v-739h-74v295q-64 -116 -208 -116q-120 0 -207.5 82.5t-87.5 200.5q0 122 83.5 205.5t204.5 83.5zM331 488q-90 0 -152.5 -63.5t-62.5 -153.5q0 -89 63 -151t156 -62q90 0 152.5 59.5t62.5 158.5q0 90 -64 151t-155 61z" />
    <glyph glyph-name="r" unicode="r" horiz-adv-x="301" 
d="M292 559v-73q-64 0 -109.5 -44.5t-45.5 -111.5v-330h-74v547h70v-80q22 44 61 68t98 24z" />
    <glyph glyph-name="s" unicode="s" horiz-adv-x="388" 
d="M195 559q62 0 107 -44t45 -104h-74q0 35 -24 56t-60 21q-30 0 -53.5 -21.5t-23.5 -55.5q0 -24 13 -44t36 -29l117 -45q43 -21 63 -54.5t20 -77.5q0 -75 -49.5 -124.5t-128.5 -49.5q-65 0 -115 49t-50 125h74q0 -43 28 -73t71 -30q41 0 68.5 25.5t27.5 65.5q0 28 -11 47
q-18 31 -63 48q-41 12 -67.5 22t-42.5 20q-29 20 -45 46q-20 33 -20 74q0 64 45.5 108.5t111.5 44.5z" />
    <glyph glyph-name="t" unicode="t" horiz-adv-x="339" 
d="M126 739h74v-192h127v-67h-127v-480h-74v480h-114v67h114v192z" />
    <glyph glyph-name="u" unicode="u" horiz-adv-x="608" 
d="M63 547h74v-311q0 -75 44.5 -126.5t122.5 -51.5q77 0 122 53t45 134l1 302h73v-547l-70 -1v87q-27 -51 -73 -75t-107 -24q-58 0 -102 22q-34 17 -70 53q-21 21 -27 30q-33 49 -33 144v311z" />
    <glyph glyph-name="v" unicode="v" 
d="M8 547h80l189 -453l189 453h80l-231 -547h-77z" />
    <glyph glyph-name="w" unicode="w" horiz-adv-x="831" 
d="M7 547h78l172 -458l127 391h61l126 -391l175 458h78l-208 -547h-85l-117 363l-115 -363h-85z" />
    <glyph glyph-name="x" unicode="x" horiz-adv-x="480" 
d="M8 547h87l145 -211l145 211h87l-188 -269l188 -278h-87l-145 219l-145 -219h-87l187 278z" />
    <glyph glyph-name="y" unicode="y" horiz-adv-x="536" 
d="M9 547h79l175 -436l185 436h79l-316 -739h-78l86 209z" />
    <glyph glyph-name="z" unicode="z" horiz-adv-x="425" 
d="M20 547h376v-67l-294 -413h313v-67h-405v65l296 415h-286v67z" />
    <glyph glyph-name="braceleft" unicode="{" horiz-adv-x="351" 
d="M270 739q-38 -10 -58.5 -38t-20.5 -67v-191q0 -66 -20 -95t-70 -42q55 -12 75 -46q15 -26 15 -80v-204q0 -39 19 -65t61 -38q-83 0 -117.5 29.5t-34.5 92.5v216q0 36 -21.5 62.5t-59.5 32.5q43 13 62 36t19 59v200q0 80 38 111q33 27 113 27z" />
    <glyph glyph-name="bar" unicode="|" horiz-adv-x="672" 
d="M304 739h64v-739h-64v739z" />
    <glyph glyph-name="braceright" unicode="}" horiz-adv-x="351" 
d="M36 -127q38 10 58.5 38t20.5 67v191q0 66 20 95t70 42q-55 12 -75 46q-15 26 -15 80v204q0 39 -19 65t-61 38q83 0 117.5 -29.5t34.5 -92.5v-216q0 -36 21.5 -62.5t59.5 -32.5q-43 -13 -62 -36t-19 -59v-200q0 -80 -38 -111q-33 -27 -113 -27z" />
    <glyph glyph-name="asciitilde" unicode="~" horiz-adv-x="606" 
d="M513 391l42 -47q-26 -48 -59 -77q-39 -34 -82 -34q-31 0 -83 21q-119 48 -136 48q-38 0 -67 -35q-27 -42 -36 -55l-41 48q31 56 59 82q38 36 84 36q36 0 117 -35t103 -35q28 0 56 25q24 21 43 58z" />
    <glyph glyph-name="quotesinglbase" unicode="&#x201a;" horiz-adv-x="354" 
d="M177 126h74l-88 -193h-74z" />
    <glyph glyph-name="florin" unicode="&#x192;" 
d="M546 751l-13 -70q-9 1 -17 1q-12 0 -23.5 -2.5t-22.5 -9.5q-36 -23 -51.5 -55t-25.5 -94h112l-12 -67h-112l-88 -475q-18 -95 -72.5 -144t-150.5 -49h-19q-14 0 -18.5 1t-14.5 5l13 65q12 -2 29 -4t28 -2q54 0 85 29q36 34 52 117l87 457h-114l13 67h112q16 112 65 167
q55 63 158 63z" />
    <glyph glyph-name="quotedblbase" unicode="&#x201e;" horiz-adv-x="502" 
d="M177 126h74l-88 -193h-74zM327 126h74l-88 -193h-74z" />
    <glyph glyph-name="ellipsis" unicode="&#x2026;" horiz-adv-x="1000" 
d="M130 126h74v-126h-74v126zM463 126h74v-126h-74v126zM796 126h74v-126h-74v126z" />
    <glyph glyph-name="dagger" unicode="&#x2020;" horiz-adv-x="553" 
d="M239 739h74v-200h181v-67h-181v-599h-74v599h-180v67h180v200z" />
    <glyph glyph-name="daggerdbl" unicode="&#x2021;" horiz-adv-x="553" 
d="M240 740h73v-178h180v-69h-180v-94h180v-65h-180v-463h-73v463h-182v65h182v94h-182v69h182v178z" />
    <glyph glyph-name="circumflex" unicode="&#x2c6;" horiz-adv-x="502" 
d="M219 739h64l145 -126h-90l-87 73l-87 -73h-90z" />
    <glyph glyph-name="perthousand" unicode="&#x2030;" horiz-adv-x="1174" 
d="M187 751q77 0 125.5 -50.5t48.5 -123.5q0 -72 -51 -124t-123 -52q-71 0 -122.5 52.5t-51.5 124.5q0 75 51 124t123 49zM513 739h72l-332 -740h-72zM577 337q77 0 125.5 -50.5t48.5 -123.5q0 -72 -51 -124t-123 -52q-71 0 -122.5 52.5t-51.5 124.5q0 75 51 124t123 49z
M977 337q77 0 125.5 -50.5t48.5 -123.5q0 -72 -51 -124t-123 -52q-71 0 -122.5 52.5t-51.5 124.5q0 75 51 124t123 49zM577 266q-42 0 -72.5 -28.5t-30.5 -74.5q0 -44 30.5 -74.5t72.5 -30.5q47 0 75 32.5t28 76.5q0 42 -29.5 70.5t-73.5 28.5zM187 680q-42 0 -72.5 -28.5
t-30.5 -74.5q0 -44 30.5 -74.5t72.5 -30.5q47 0 75 32.5t28 76.5q0 42 -29.5 70.5t-73.5 28.5zM977 266q-42 0 -72.5 -28.5t-30.5 -74.5q0 -44 30.5 -74.5t72.5 -30.5q47 0 75 32.5t28 76.5q0 42 -29.5 70.5t-73.5 28.5z" />
    <glyph glyph-name="Scaron" unicode="&#x160;" horiz-adv-x="498" 
d="M254 751q85 0 144.5 -56.5t59.5 -143.5h-76q-7 58 -43 93.5t-92 35.5q-52 0 -90 -37t-38 -91q0 -43 25 -74q22 -27 60 -38l140 -43q64 -27 98 -79.5t34 -114.5q0 -90 -67 -153t-158 -63q-95 0 -162 61t-67 159h79q0 -58 41.5 -103.5t106.5 -45.5q64 0 108.5 40.5
t44.5 104.5q0 47 -29 84t-78 54q-26 8 -42 12q-51 15 -86 27q-60 21 -91 67.5t-31 105.5q0 86 60 142t149 56zM187 930l86 -74l87 74h89l-142 -126h-67l-145 126h92z" />
    <glyph glyph-name="guilsinglleft" unicode="&#x2039;" horiz-adv-x="251" 
d="M153 500l58 -31l-94 -168l94 -168l-58 -32l-113 200z" />
    <glyph glyph-name="OE" unicode="&#x152;" horiz-adv-x="1194" 
d="M432 751q101 0 187 -44q79 -41 129 -110v142h390v-67h-316v-267h305v-67h-305v-271h316v-67h-390v144q-51 -69 -125 -110q-84 -47 -183 -47q-164 0 -278 105q-118 109 -118 277q0 163 111.5 272.5t276.5 109.5zM443 680q-140 0 -232.5 -88.5t-92.5 -223.5q0 -130 91 -220
t222 -90t224 91t93 224q0 123 -90 215t-215 92z" />
    <glyph glyph-name="quoteleft" unicode="&#x2018;" horiz-adv-x="351" 
d="M98 739h74l88 -193h-74z" />
    <glyph glyph-name="quoteright" unicode="&#x2019;" horiz-adv-x="351" 
d="M165 547h-74l87 192h73z" />
    <glyph glyph-name="quotedblleft" unicode="&#x201c;" horiz-adv-x="502" 
d="M244 739h74l84 -193h-70zM96 739h74l88 -193h-74z" />
    <glyph glyph-name="quotedblright" unicode="&#x201d;" horiz-adv-x="484" 
d="M171 739h74l-88 -193h-70zM319 739h74l-88 -193h-74z" />
    <glyph glyph-name="bullet" unicode="&#x2022;" horiz-adv-x="606" 
d="M303 486q75 0 130 -54t55 -132q0 -77 -54.5 -130.5t-130.5 -53.5q-75 0 -130 54t-55 129q0 79 54 133t131 54z" />
    <glyph glyph-name="endash" unicode="&#x2013;" horiz-adv-x="500" 
d="M0 334h500v-67h-500v67z" />
    <glyph glyph-name="emdash" unicode="&#x2014;" horiz-adv-x="1000" 
d="M0 334h1000v-67h-1000v67z" />
    <glyph glyph-name="tilde" unicode="&#x2dc;" horiz-adv-x="439" 
d="M162 715q26 0 51 -12q59 -28 68 -28q14 0 25 6t29 19l30 -48q-19 -17 -40 -28t-43 -11q-23 0 -49 12q-61 28 -72 28q-16 0 -30 -7.5t-27 -21.5l-29 49q22 22 37 30q22 12 50 12z" />
    <glyph glyph-name="trademark" unicode="&#x2122;" horiz-adv-x="1000" 
d="M63 739h341v-60h-133v-361h-74v361h-134v60zM478 739h108l121 -297l125 297h106v-421h-66v361l-146 -361h-39l-142 361v-361h-67v421z" />
    <glyph glyph-name="scaron" unicode="&#x161;" horiz-adv-x="226" 
d="M76 739h74v-739h-74v739zM75 949h74v-126h-74v126z" />
    <glyph glyph-name="guilsinglright" unicode="&#x203a;" horiz-adv-x="200" 
d="M63 547h74v-547h-74v547z" />
    <glyph glyph-name="oe" unicode="&#x153;" horiz-adv-x="498" 
d="M268 -11l-23 -54q18 6 31 6q32 0 51.5 -20.5t19.5 -54.5q0 -37 -24 -61t-57 -24q-36 0 -56 18.5t-26 48.5l41 5q3 -14 16 -22t27 -8t26.5 11.5t12.5 31.5q0 17 -12.5 30.5t-31.5 13.5q-26 0 -37 -21l-30 16l37 84q-88 0 -149.5 61.5t-61.5 156.5h79q0 -58 41.5 -103.5
t106.5 -45.5q64 0 108.5 40.5t44.5 104.5q0 47 -29 84t-78 54q-26 8 -42 12q-51 15 -86 27q-60 21 -91 67.5t-31 105.5q0 86 60 142t149 56q85 0 144.5 -56.5t59.5 -143.5h-76q-7 58 -43 93.5t-92 35.5q-52 0 -90 -37t-38 -91q0 -43 25 -74q22 -27 60 -38l140 -43
q64 -27 98 -79.5t34 -114.5q0 -87 -61.5 -150.5t-146.5 -63.5z" />
    <glyph glyph-name="c157" horiz-adv-x="388" 
d="M208 -12l-23 -52q18 6 30 6q32 0 50.5 -19.5t18.5 -53.5q0 -36 -23.5 -59.5t-54.5 -23.5q-35 0 -54.5 18t-26.5 47l41 5q3 -14 15 -22t27 -8q14 0 25.5 11.5t11.5 31.5q0 16 -12 29t-30 13q-26 0 -36 -20l-29 16l36 81q-62 0 -109 50t-47 123h74q0 -43 28 -73t71 -30
q41 0 68.5 25.5t27.5 65.5q0 28 -11 47q-18 31 -63 48q-41 12 -67.5 22t-42.5 20q-29 20 -45 46q-20 33 -20 74q0 64 45.5 108.5t111.5 44.5q62 0 107 -44t45 -104h-74q0 35 -24 56t-60 21q-30 0 -53.5 -21.5t-23.5 -55.5q0 -24 13 -44t36 -29l117 -45q43 -21 63 -54.5
t20 -77.5q0 -68 -42.5 -116.5t-110.5 -56.5z" />
    <glyph glyph-name="c158" horiz-adv-x="872" 
d="M439 751q113 0 210 -58t137 -151h-85q-35 63 -109.5 100.5t-151.5 37.5q-120 0 -210 -75q-49 -40 -79 -100q-33 -65 -33 -133q0 -132 96 -223t228 -91q102 0 187 60t113 156h-413v67h501q0 -137 -111 -243q-116 -111 -279 -111q-159 0 -276 110q-120 113 -120 275
q0 85 38 161q34 69 98 125q105 93 259 93zM289 916h63q10 -21 35.5 -33.5t52.5 -12.5q28 0 54 12t36 34h63q-13 -51 -55 -77t-97 -26q-54 0 -94 24q-44 27 -58 79z" />
    <glyph glyph-name="Ydieresis" unicode="&#x178;" horiz-adv-x="673" 
d="M321 559q86 0 148 -43q44 -31 70 -77v108h71v-487q0 -54 -10 -92t-36 -72q-44 -56 -105.5 -83t-127.5 -27q-94 0 -169 54.5t-100 146.5h73q30 -62 82 -96t119 -34q53 0 96.5 19.5t73.5 60.5q21 28 27 65.5t6 107.5q-22 -53 -75 -86q-59 -37 -138 -37q-116 0 -200 82
t-84 202q0 118 79 203t200 85zM320 488q-88 0 -146 -62t-58 -149q0 -94 60.5 -156.5t150.5 -62.5q91 0 151 65t60 151q0 90 -63 152t-155 62zM176 752h63q10 -21 35.5 -33.5t52.5 -12.5q28 0 54 12t36 34h63q-13 -51 -55.5 -80t-96.5 -29q-53 0 -95.5 28t-56.5 81z" />
    <glyph glyph-name="nonbreakingspace" unicode="&#xa0;" horiz-adv-x="500" 
 />
    <glyph glyph-name="exclamdown" unicode="&#xa1;" horiz-adv-x="295" 
d="M184 -192h-72v548h72v-548zM184 422h-72v126h72v-126z" />
    <glyph glyph-name="cent" unicode="&#xa2;" 
d="M260 705h66v-93q66 -9 114 -49t70 -101h-84q-21 38 -59 58.5t-83 20.5q-65 0 -115 -46t-50 -110t48.5 -113.5t116.5 -49.5q41 0 78 18.5t61 49.5h80q-14 -49 -66 -91t-111 -48v-89h-66v89q-88 0 -151.5 70.5t-63.5 163.5q0 90 64.5 158.5t150.5 68.5v93z" />
    <glyph glyph-name="sterling" unicode="&#xa3;" 
d="M315 751q90 0 160 -61t79 -150h-70q-11 59 -59.5 99.5t-108.5 40.5q-74 0 -123 -50t-49 -123q0 -28 6.5 -50.5t21.5 -43.5h284v-67h-215q33 -33 53 -76t20 -87q0 -29 -7.5 -57t-22.5 -59h30q58 0 93 6t56 25q55 48 55 119q0 15 -1 26.5t-5 23.5h71q9 -24 9 -57
q0 -42 -14.5 -77t-41.5 -65q-30 -34 -77.5 -51t-104.5 -17h-296v67h139q20 18 31.5 49t11.5 65q0 64 -49 121q-16 19 -49 44h-124v67h73q-10 24 -15.5 47t-5.5 47q0 52 23 99.5t57.5 79.5t76.5 48.5t88 16.5z" />
    <glyph glyph-name="currency" unicode="&#xa4;" 
d="M280 553q44 0 76.5 -11t70.5 -39l44 44l53 -52l-44 -44q48 -70 48 -156q0 -75 -48 -143l42 -43l-53 -52l-42 43q-70 -50 -154 -50q-72 0 -146 50l-44 -43l-52 53l43 42q-25 37 -36.5 75t-11.5 73q0 44 11.5 80t36.5 71l-43 43l52 53l44 -43q33 25 72 37t81 12zM280 481
q-79 0 -130.5 -51.5t-51.5 -129.5q0 -72 52 -125t126 -53q75 0 127.5 53.5t52.5 127.5q0 73 -50.5 125.5t-125.5 52.5z" />
    <glyph glyph-name="yen" unicode="&#xa5;" 
d="M0 739h81l216 -415l211 415h81l-145 -281h99v-62h-132l-49 -97h174v-62h-203v-237h-74v237h-206v62h177l-51 97h-133v62h101z" />
    <glyph glyph-name="brokenbar" unicode="&#xa6;" horiz-adv-x="672" 
d="M304 739h64v-295h-64v295zM304 296h64v-296h-64v296z" />
    <glyph glyph-name="section" unicode="&#xa7;" horiz-adv-x="615" 
d="M305 751q66 0 119 -40q58 -44 58 -105h-69q-3 35 -35 54.5t-71 19.5q-46 0 -73.5 -23.5t-27.5 -66.5q0 -29 14 -49t37 -31l163 -82q60 -30 86 -65q23 -31 23 -71q0 -43 -23 -82.5t-58 -62.5q24 -20 38 -48t14 -60q0 -81 -55.5 -129.5t-134.5 -48.5q-84 0 -144.5 58.5
t-60.5 145.5h69q6 -65 42 -99t95 -34q55 0 86.5 28.5t31.5 74.5q0 29 -19 53q-15 19 -36 30l-228 119q-26 14 -42.5 42.5t-16.5 59.5q0 47 24.5 87t64.5 65q-20 16 -30.5 44.5t-10.5 56.5q0 68 49.5 113.5t120.5 45.5zM218 454q-26 -16 -43 -44t-17 -59q0 -27 13 -44t39 -30
l190 -95q23 12 40.5 40.5t17.5 55.5q0 23 -7.5 37.5t-37.5 39.5z" />
    <glyph glyph-name="dieresis" unicode="&#xa8;" horiz-adv-x="369" 
d="M44 739h74v-126h-74v126zM191 739h74v-126h-74v126z" />
    <glyph glyph-name="copyright" unicode="&#xa9;" horiz-adv-x="747" 
d="M373 751q158 0 270 -111t112 -270q0 -157 -111 -270t-271 -113q-158 0 -270 111t-112 272q0 156 111.5 268.5t270.5 112.5zM373 705q-137 0 -236 -99t-99 -236q0 -140 98.5 -238.5t236.5 -98.5q141 0 238.5 99.5t97.5 237.5q0 140 -98.5 237.5t-237.5 97.5zM387 592
q72 0 119.5 -38t61.5 -106h-54q-10 45 -44 72t-82 27q-73 0 -115 -52q-38 -47 -38 -120t39 -122q44 -55 116 -55q49 0 83.5 28.5t39.5 73.5h55q-6 -66 -58 -107t-119 -41q-96 0 -154 63t-58 158q0 93 54 154q58 65 154 65z" />
    <glyph glyph-name="ordfeminine" unicode="&#xaa;" horiz-adv-x="369" 
d="M186 751q74 0 109 -53v47h44v-292h-44v45q-40 -52 -107 -52q-64 0 -110.5 43.5t-46.5 108.5q0 64 43.5 108.5t111.5 44.5zM31 369h308v-44h-308v44zM187 708q-46 0 -79 -32t-33 -77q0 -46 33.5 -77.5t79.5 -31.5q43 0 75 32t32 76q0 45 -31.5 77.5t-76.5 32.5z" />
    <glyph glyph-name="guillemotleft" unicode="&#xab;" horiz-adv-x="425" 
d="M153 500l58 -31l-94 -167l94 -169l-58 -32l-113 200zM326 500l59 -31l-94 -168l94 -168l-59 -32l-113 200z" />
    <glyph glyph-name="logicalnot" unicode="&#xac;" horiz-adv-x="606" 
d="M51 436h504v-270h-76v194h-428v76z" />
    <glyph glyph-name="minus" unicode="&#xad;" horiz-adv-x="606" 
d="M51 339h504v-76h-504v76z" />
    <glyph glyph-name="registered" unicode="&#xae;" horiz-adv-x="747" 
d="M374 751q159 0 270 -112t111 -269q0 -156 -110.5 -269.5t-270.5 -113.5t-271.5 112.5t-111.5 269.5t110.5 269.5t272.5 112.5zM374 705q-140 0 -238 -99t-98 -237t98 -237t238 -99t237.5 98.5t97.5 237.5t-97.5 237.5t-237.5 98.5zM232 583h200q64 0 101 -28.5t37 -86.5
t-41 -88q-37 -27 -94 -27l129 -197h-62l-122 197h-96v-197h-52v427zM284 545v-151h134q44 0 68 15q31 19 31 61q0 41 -31 60q-25 15 -70 15h-132z" />
    <glyph glyph-name="macron" unicode="&#xaf;" horiz-adv-x="485" 
d="M74 680h337v-67h-337v67z" />
    <glyph glyph-name="degree" unicode="&#xb0;" horiz-adv-x="400" 
d="M199 739q60 0 105.5 -43.5t45.5 -105.5q0 -63 -44 -107t-106 -44q-61 0 -105.5 43.5t-44.5 107.5q0 61 44 105t105 44zM199 699q-44 0 -76.5 -31.5t-32.5 -77.5q0 -47 33 -79t77 -32t77 32t33 79q0 45 -33 77t-78 32z" />
    <glyph glyph-name="plusminus" unicode="&#xb1;" horiz-adv-x="606" 
d="M265 554h76v-162h214v-76h-214v-164h-76v164h-214v76h214v162zM51 76h504v-76h-504v76z" />
    <glyph glyph-name="twosuperior" unicode="&#xb2;" horiz-adv-x="332" 
d="M266 715q26 -22 40 -47t14 -55q0 -36 -13 -61q-18 -34 -69 -80l-151 -135h230v-41h-305v40l205 183q21 20 35 44t14 50q0 39 -28.5 65.5t-70.5 26.5q-46 0 -71.5 -29.5t-25.5 -79.5h-54q0 65 41.5 107.5t113.5 42.5q31 0 52.5 -6.5t42.5 -24.5z" />
    <glyph glyph-name="threesuperior" unicode="&#xb3;" horiz-adv-x="332" 
d="M167 747q51 0 87.5 -31.5t36.5 -80.5q0 -26 -15 -48.5t-38 -36.5q35 -14 58 -47.5t23 -71.5q0 -59 -45.5 -100.5t-108.5 -41.5t-107.5 41.5t-44.5 104.5h48q0 -44 29.5 -74.5t72.5 -30.5q44 0 74.5 28.5t30.5 72.5q0 25 -11 44.5t-29 32.5t-40 17.5t-54 4.5v40
q61 0 83.5 17.5t22.5 49.5q0 29 -22 49t-53 20q-33 0 -52.5 -23t-19.5 -54h-48q0 51 34.5 84.5t87.5 33.5z" />
    <glyph glyph-name="acute" unicode="&#xb4;" horiz-adv-x="375" 
d="M266 785l35 -58l-193 -114l-34 56z" />
    <glyph glyph-name="mu" unicode="&#xb5;" horiz-adv-x="608" 
d="M63 547h74v-311q0 -79 45.5 -128.5t121.5 -49.5t121.5 52.5t45.5 134.5v302h74v-547h-70v87q-26 -49 -70 -74.5t-110 -25.5q-90 0 -158 62v-241h-74v739z" />
    <glyph glyph-name="paragraph" unicode="&#xb6;" horiz-adv-x="564" 
d="M239 739h252v-866h-74v799h-114v-799h-74v482q-78 0 -135 56t-57 134q0 74 46 128q56 66 156 66z" />
    <glyph glyph-name="periodcentered" unicode="&#x2219;" horiz-adv-x="277" 
d="M101 364h74v-126h-74v126z" />
    <glyph glyph-name="cedilla" unicode="&#xb8;" horiz-adv-x="324" 
d="M128 0h37l-24 -58q17 7 32 7q34 0 55.5 -22t21.5 -59q0 -39 -26 -65t-61 -26q-39 0 -60.5 19.5t-28.5 52.5l44 5q3 -14 17.5 -23.5t29.5 -9.5q16 0 29 13t13 34q0 19 -13 33t-34 14q-15 0 -24.5 -5.5t-16.5 -16.5l-31 17z" />
    <glyph glyph-name="onesuperior" unicode="&#xb9;" horiz-adv-x="332" 
d="M101 739h135v-443h-54v402h-81v41z" />
    <glyph glyph-name="ordmasculine" unicode="&#xba;" horiz-adv-x="369" 
d="M184 751q64 0 108.5 -45.5t44.5 -107.5t-45 -107t-107 -45q-63 0 -108 44t-45 108q0 63 44 108t108 45zM32 369h305v-44h-305v44zM185 707q-46 0 -76.5 -31.5t-30.5 -76.5q0 -47 31 -78t76 -31t75.5 30.5t30.5 79.5q0 44 -30.5 75.5t-75.5 31.5z" />
    <glyph glyph-name="guillemotright" unicode="&#xbb;" horiz-adv-x="425" 
d="M273 103l-58 31l94 167l-94 169l58 32l113 -200zM100 103l-59 31l94 168l-94 168l59 32l113 -200z" />
    <glyph glyph-name="onequarter" unicode="&#xbc;" horiz-adv-x="831" 
d="M101 739h135v-443h-54v402h-81v41zM549 739h64l-332 -739h-64zM700 444h59v-322h44v-41h-44v-81h-52v81h-239v41zM707 383l-188 -261h188v261z" />
    <glyph glyph-name="onehalf" unicode="&#xbd;" horiz-adv-x="831" 
d="M96 739h135v-443h-54v402h-81v41zM539 739h64l-332 -739h-64zM760 419q26 -22 40 -47t14 -55q0 -36 -13 -61q-18 -34 -69 -80l-151 -135h230v-41h-305v40l205 183q21 20 35 44t14 50q0 39 -28.5 65.5t-70.5 26.5q-46 0 -71.5 -29.5t-25.5 -79.5h-54q0 65 41.5 107.5
t113.5 42.5q31 0 52.5 -6.5t42.5 -24.5z" />
    <glyph glyph-name="threequarters" unicode="&#xbe;" horiz-adv-x="831" 
d="M565 740h63l-332 -740h-64zM700 443h60v-321h44v-41h-44v-81h-51v81h-240v41zM167 747q51 0 87.5 -31.5t36.5 -80.5q0 -26 -15 -48.5t-38 -36.5q35 -14 58 -47.5t23 -71.5q0 -59 -45.5 -100.5t-108.5 -41.5t-107.5 41.5t-44.5 104.5h48q0 -44 29.5 -74.5t72.5 -30.5
q44 0 74.5 28.5t30.5 72.5q0 25 -11 44.5t-29 32.5t-40 17.5t-54 4.5v40q61 0 83.5 17.5t22.5 49.5q0 29 -22 49t-53 20q-33 0 -52.5 -23t-19.5 -54h-48q0 51 34.5 84.5t87.5 33.5zM709 385l-190 -263h190v263z" />
    <glyph glyph-name="questiondown" unicode="&#xbf;" horiz-adv-x="591" 
d="M291 -203q-97 0 -160.5 64.5t-63.5 158.5q0 39 13.5 71t48.5 67l66 67q31 31 45 65.5t14 64.5h74q0 -80 -48 -142l-90 -93q-49 -53 -49 -105q0 -62 45.5 -104.5t110.5 -42.5q69 0 114 49t45 123h71q0 -51 -11.5 -88.5t-42.5 -72.5q-35 -39 -80.5 -60.5t-101.5 -21.5z
M328 422h-74v126h74v-126z" />
    <glyph glyph-name="Agrave" unicode="&#xc0;" horiz-adv-x="740" 
d="M330 739h82l317 -739h-80l-107 248h-344l-107 -248h-80zM371 654l-144 -339h286zM496 863l-33 -58l-197 106l32 60z" />
    <glyph glyph-name="Aacute" unicode="&#xc1;" horiz-adv-x="740" 
d="M330 739h82l317 -739h-80l-107 248h-344l-107 -248h-80zM371 654l-144 -339h286zM459 977l35 -58l-193 -114l-34 56z" />
    <glyph glyph-name="Acircumflex" unicode="&#xc2;" horiz-adv-x="740" 
d="M330 739h82l317 -739h-80l-107 248h-344l-107 -248h-80zM371 654l-144 -339h286zM349 931h64l145 -126h-90l-87 73l-87 -73h-90z" />
    <glyph glyph-name="Atilde" unicode="&#xc3;" horiz-adv-x="740" 
d="M330 739h82l317 -739h-80l-107 248h-344l-107 -248h-80zM371 654l-144 -339h286zM324 907q26 0 51 -12q59 -28 68 -28q14 0 25 6t29 19l30 -48q-19 -17 -40 -28t-43 -11q-23 0 -49 12q-61 28 -72 28q-16 0 -30 -7.5t-27 -21.5l-29 49q22 22 37 30q22 12 50 12z" />
    <glyph glyph-name="Adieresis" unicode="&#xc4;" horiz-adv-x="740" 
d="M330 739h82l317 -739h-80l-107 248h-344l-107 -248h-80zM371 654l-144 -339h286zM241 931h74v-126h-74v126zM388 931h74v-126h-74v126z" />
    <glyph glyph-name="Aring" unicode="&#xc5;" horiz-adv-x="740" 
d="M330 739h82l317 -739h-80l-107 248h-344l-107 -248h-80zM371 654l-144 -339h286zM379 989q39 0 66 -27t27 -64q0 -38 -25.5 -65.5t-66.5 -27.5t-66.5 27.5t-25.5 65.5q0 36 27.5 63.5t63.5 27.5zM380 952q-21 0 -38 -15t-17 -38q0 -24 15.5 -40.5t39.5 -16.5t39.5 16.5
t15.5 39.5q0 21 -15.5 37.5t-39.5 16.5z" />
    <glyph glyph-name="AE" unicode="&#xc6;" horiz-adv-x="992" 
d="M525 739h411v-67h-317v-266h306v-67h-306v-272h317v-67h-391v249h-272l-174 -249h-88zM545 647l-225 -331h225v331z" />
    <glyph glyph-name="Ccedilla" unicode="&#xc7;" horiz-adv-x="813" 
d="M426 752q104 0 198 -53q100 -57 144 -149h-83q-41 62 -110.5 96.5t-146.5 34.5q-124 0 -217 -92t-93 -217q0 -128 93.5 -220.5t219.5 -92.5q77 0 145 36t112 99h83q-54 -93 -143.5 -149.5t-195.5 -56.5h-26l-19 -46q10 3 18 5t13 2q34 0 56 -21t22 -58q0 -36 -24 -64.5
t-64 -28.5q-34 0 -57 18t-31 54l43 5q4 -13 17.5 -23t28.5 -10q22 0 33 14.5t11 32.5q0 22 -15.5 34.5t-32.5 12.5q-12 0 -21.5 -4.5t-18.5 -17.5l-31 17l36 82q-144 22 -235 131.5t-91 248.5q0 157 111.5 268.5t270.5 111.5z" />
    <glyph glyph-name="Egrave" unicode="&#xc8;" horiz-adv-x="536" 
d="M76 739h404v-67h-330v-266h319v-67h-319v-272h330v-67h-404v739zM460 863l-33 -58l-197 106l32 60z" />
    <glyph glyph-name="Eacute" unicode="&#xc9;" horiz-adv-x="536" 
d="M76 739h404v-67h-330v-266h319v-67h-319v-272h330v-67h-404v739zM423 977l35 -58l-193 -114l-34 56z" />
    <glyph glyph-name="Ecircumflex" unicode="&#xca;" horiz-adv-x="536" 
d="M76 739h404v-67h-330v-266h319v-67h-319v-272h330v-67h-404v739zM313 931h64l145 -126h-90l-87 73l-87 -73h-90z" />
    <glyph glyph-name="Edieresis" unicode="&#xcb;" horiz-adv-x="536" 
d="M76 739h404v-67h-330v-266h319v-67h-319v-272h330v-67h-404v739zM204 931h74v-126h-74v126zM351 931h74v-126h-74v126z" />
    <glyph glyph-name="Igrave" unicode="&#xcc;" horiz-adv-x="226" 
d="M76 739h74v-739h-74v739zM305 863l-33 -58l-197 106l32 60z" />
    <glyph glyph-name="Iacute" unicode="&#xcd;" horiz-adv-x="226" 
d="M76 739h74v-739h-74v739zM268 977l35 -58l-193 -114l-34 56z" />
    <glyph glyph-name="Icircumflex" unicode="&#xce;" horiz-adv-x="226" 
d="M76 739h74v-739h-74v739zM158 931h64l145 -126h-90l-87 73l-87 -73h-90z" />
    <glyph glyph-name="Idieresis" unicode="&#xcf;" horiz-adv-x="226" 
d="M76 739h74v-739h-74v739zM49 931h74v-126h-74v126zM196 931h74v-126h-74v126z" />
    <glyph glyph-name="Eth" unicode="&#xd0;" horiz-adv-x="872" 
d="M439 751q113 0 210 -58t137 -151h-85q-35 63 -109.5 100.5t-151.5 37.5q-120 0 -210 -75q-49 -40 -79 -100q-33 -65 -33 -133q0 -132 96 -223t228 -91q102 0 187 60t113 156h-413v67h501q0 -137 -111 -243q-116 -111 -279 -111q-159 0 -276 110q-120 113 -120 275
q0 85 38 161q34 69 98 125q105 93 259 93zM289 916h63q10 -21 35.5 -33.5t52.5 -12.5q28 0 54 12t36 34h63q-13 -51 -55 -77t-97 -26q-54 0 -94 24q-44 27 -58 79z" />
    <glyph glyph-name="Ntilde" unicode="&#xd1;" horiz-adv-x="740" 
d="M76 739h100l414 -613v613h74v-739h-74l-440 650v-650h-74v739zM389 907q26 0 51 -12q59 -28 68 -28q14 0 25 6t29 19l30 -48q-19 -17 -40 -28t-43 -11q-23 0 -49 12q-61 28 -72 28q-16 0 -30 -7.5t-27 -21.5l-29 49q22 22 37 30q22 12 50 12z" />
    <glyph glyph-name="Ograve" unicode="&#xd2;" horiz-adv-x="869" 
d="M434 751q158 0 274.5 -110.5t116.5 -267.5q0 -162 -115 -274t-275 -112q-158 0 -273 109q-118 112 -118 271t114.5 271.5t275.5 112.5zM434 680q-132 0 -224 -91t-92 -222q0 -127 95 -218t223 -91q129 0 222 91t93 223q0 127 -93.5 217.5t-223.5 90.5zM594 863l-33 -58
l-197 106l32 60z" />
    <glyph glyph-name="Oacute" unicode="&#xd3;" horiz-adv-x="869" 
d="M434 751q158 0 274.5 -110.5t116.5 -267.5q0 -162 -115 -274t-275 -112q-158 0 -273 109q-118 112 -118 271t114.5 271.5t275.5 112.5zM434 680q-132 0 -224 -91t-92 -222q0 -127 95 -218t223 -91q129 0 222 91t93 223q0 127 -93.5 217.5t-223.5 90.5zM556 977l35 -58
l-193 -114l-34 56z" />
    <glyph glyph-name="Ocircumflex" unicode="&#xd4;" horiz-adv-x="869" 
d="M434 751q158 0 274.5 -110.5t116.5 -267.5q0 -162 -115 -274t-275 -112q-158 0 -273 109q-118 112 -118 271t114.5 271.5t275.5 112.5zM434 680q-132 0 -224 -91t-92 -222q0 -127 95 -218t223 -91q129 0 222 91t93 223q0 127 -93.5 217.5t-223.5 90.5zM447 931h64
l145 -126h-90l-87 73l-87 -73h-90z" />
    <glyph glyph-name="Otilde" unicode="&#xd5;" horiz-adv-x="869" 
d="M434 751q158 0 274.5 -110.5t116.5 -267.5q0 -162 -115 -274t-275 -112q-158 0 -273 109q-118 112 -118 271t114.5 271.5t275.5 112.5zM434 680q-132 0 -224 -91t-92 -222q0 -127 95 -218t223 -91q129 0 222 91t93 223q0 127 -93.5 217.5t-223.5 90.5zM421 907
q26 0 51 -12q59 -28 68 -28q14 0 25 6t29 19l30 -48q-19 -17 -40 -28t-43 -11q-23 0 -49 12q-61 28 -72 28q-16 0 -30 -7.5t-27 -21.5l-29 49q22 22 37 30q22 12 50 12z" />
    <glyph glyph-name="Odieresis" unicode="&#xd6;" horiz-adv-x="869" 
d="M434 751q158 0 274.5 -110.5t116.5 -267.5q0 -162 -115 -274t-275 -112q-158 0 -273 109q-118 112 -118 271t114.5 271.5t275.5 112.5zM434 680q-132 0 -224 -91t-92 -222q0 -127 95 -218t223 -91q129 0 222 91t93 223q0 127 -93.5 217.5t-223.5 90.5zM318 931h74v-126
h-74v126zM465 931h74v-126h-74v126z" />
    <glyph glyph-name="multiply" unicode="&#xd7;" horiz-adv-x="606" 
d="M105 555l198 -198l198 198l54 -54l-198 -198l198 -198l-54 -54l-198 198l-198 -198l-54 54l198 198l-198 198z" />
    <glyph glyph-name="Oslash" unicode="&#xd8;" horiz-adv-x="868" 
d="M727 821l54 -43l-91 -121q59 -49 96.5 -128t37.5 -163q0 -156 -116.5 -267.5t-273.5 -111.5q-108 0 -204 58l-95 -128l-55 41l95 127l-69 77q-62 91 -62 205q0 157 112.5 270.5t272.5 113.5q59 0 111 -14t93 -41zM437 680q-136 0 -227.5 -93.5t-91.5 -224.5
q0 -62 27 -119q24 -51 72 -101l373 497q-35 22 -72 31.5t-81 9.5zM645 599l-373 -497q70 -44 161 -44q130 0 223.5 90.5t93.5 218.5q0 72 -30 133q-26 53 -75 99z" />
    <glyph glyph-name="Ugrave" unicode="&#xd9;" horiz-adv-x="655" 
d="M76 739h74v-470q0 -87 41 -144q48 -67 137 -67q84 0 132 62q45 58 45 153v466h74v-474q0 -122 -68 -200t-182 -78q-59 0 -104 20t-83 60q-32 33 -49 86.5t-17 116.5v469zM520 863l-33 -58l-197 106l32 60z" />
    <glyph glyph-name="Uacute" unicode="&#xda;" horiz-adv-x="655" 
d="M76 739h74v-470q0 -87 41 -144q48 -67 137 -67q84 0 132 62q45 58 45 153v466h74v-474q0 -122 -68 -200t-182 -78q-59 0 -104 20t-83 60q-32 33 -49 86.5t-17 116.5v469zM482 977l35 -58l-193 -114l-34 56z" />
    <glyph glyph-name="Ucircumflex" unicode="&#xdb;" horiz-adv-x="655" 
d="M76 739h74v-470q0 -87 41 -144q48 -67 137 -67q84 0 132 62q45 58 45 153v466h74v-474q0 -122 -68 -200t-182 -78q-59 0 -104 20t-83 60q-32 33 -49 86.5t-17 116.5v469zM373 931h64l145 -126h-90l-87 73l-87 -73h-90z" />
    <glyph glyph-name="Udieresis" unicode="&#xdc;" horiz-adv-x="655" 
d="M76 739h74v-470q0 -87 41 -144q48 -67 137 -67q84 0 132 62q45 58 45 153v466h74v-474q0 -122 -68 -200t-182 -78q-59 0 -104 20t-83 60q-32 33 -49 86.5t-17 116.5v469zM223 931h74v-126h-74v126zM370 931h74v-126h-74v126z" />
    <glyph glyph-name="Yacute" unicode="&#xdd;" horiz-adv-x="226" 
d="M76 739h74v-739h-74v739zM75 949h74v-126h-74v126z" />
    <glyph glyph-name="Thorn" unicode="&#xde;" horiz-adv-x="498" 
d="M268 -11l-23 -54q18 6 31 6q32 0 51.5 -20.5t19.5 -54.5q0 -37 -24 -61t-57 -24q-36 0 -56 18.5t-26 48.5l41 5q3 -14 16 -22t27 -8t26.5 11.5t12.5 31.5q0 17 -12.5 30.5t-31.5 13.5q-26 0 -37 -21l-30 16l37 84q-88 0 -149.5 61.5t-61.5 156.5h79q0 -58 41.5 -103.5
t106.5 -45.5q64 0 108.5 40.5t44.5 104.5q0 47 -29 84t-78 54q-26 8 -42 12q-51 15 -86 27q-60 21 -91 67.5t-31 105.5q0 86 60 142t149 56q85 0 144.5 -56.5t59.5 -143.5h-76q-7 58 -43 93.5t-92 35.5q-52 0 -90 -37t-38 -91q0 -43 25 -74q22 -27 60 -38l140 -43
q64 -27 98 -79.5t34 -114.5q0 -87 -61.5 -150.5t-146.5 -63.5z" />
    <glyph glyph-name="germandbls" unicode="&#xdf;" 
d="M267 751q84 0 144.5 -61.5t60.5 -144.5q0 -58 -23 -97t-61 -59q64 -21 100 -70t36 -119q0 -92 -61.5 -152.5t-144.5 -60.5q-71 0 -123 39q-45 34 -66 86v-112h-70v505q0 63 13.5 106t53.5 84q22 22 60 39t81 17zM189 655q-32 -26 -44 -61t-12 -81v-310h49
q0 -56 37 -100.5t95 -44.5q59 0 97.5 40.5t38.5 101.5q0 41 -17.5 69t-52.5 50q-20 12 -49 17.5t-65 5.5l-43 -1v67q76 0 123 33q52 37 52 106q0 54 -38.5 93.5t-92.5 39.5q-21 0 -42.5 -7t-35.5 -18z" />
    <glyph glyph-name="agrave" unicode="&#xe0;" horiz-adv-x="683" 
d="M334 559q80 0 138 -36q64 -40 77 -84v108h71v-547h-71v106q-28 -57 -86.5 -88t-124.5 -31q-61 0 -116 23q-70 30 -128 95q-20 23 -36 73.5t-16 97.5q0 116 84.5 199.5t207.5 83.5zM335 488q-91 0 -155 -64t-64 -154q0 -88 66 -150t155 -62q87 0 149.5 64.5t62.5 149.5
q0 90 -61 153t-153 63zM499 671l-33 -58l-197 106l32 60z" />
    <glyph glyph-name="aacute" unicode="&#xe1;" horiz-adv-x="683" 
d="M334 559q80 0 138 -36q64 -40 77 -84v108h71v-547h-71v106q-28 -57 -86.5 -88t-124.5 -31q-61 0 -116 23q-70 30 -128 95q-20 23 -36 73.5t-16 97.5q0 116 84.5 199.5t207.5 83.5zM335 488q-91 0 -155 -64t-64 -154q0 -88 66 -150t155 -62q87 0 149.5 64.5t62.5 149.5
q0 90 -61 153t-153 63zM461 785l35 -58l-193 -114l-34 56z" />
    <glyph glyph-name="acircumflex" unicode="&#xe2;" horiz-adv-x="683" 
d="M334 559q80 0 138 -36q64 -40 77 -84v108h71v-547h-71v106q-28 -57 -86.5 -88t-124.5 -31q-61 0 -116 23q-70 30 -128 95q-20 23 -36 73.5t-16 97.5q0 116 84.5 199.5t207.5 83.5zM335 488q-91 0 -155 -64t-64 -154q0 -88 66 -150t155 -62q87 0 149.5 64.5t62.5 149.5
q0 90 -61 153t-153 63zM352 739h64l145 -126h-90l-87 73l-87 -73h-90z" />
    <glyph glyph-name="atilde" unicode="&#xe3;" horiz-adv-x="683" 
d="M334 559q80 0 138 -36q64 -40 77 -84v108h71v-547h-71v106q-28 -57 -86.5 -88t-124.5 -31q-61 0 -116 23q-70 30 -128 95q-20 23 -36 73.5t-16 97.5q0 116 84.5 199.5t207.5 83.5zM335 488q-91 0 -155 -64t-64 -154q0 -88 66 -150t155 -62q87 0 149.5 64.5t62.5 149.5
q0 90 -61 153t-153 63zM326 715q26 0 51 -12q59 -28 68 -28q14 0 25 6t29 19l30 -48q-19 -17 -40 -28t-43 -11q-23 0 -49 12q-61 28 -72 28q-16 0 -30 -7.5t-27 -21.5l-29 49q22 22 37 30q22 12 50 12z" />
    <glyph glyph-name="adieresis" unicode="&#xe4;" horiz-adv-x="683" 
d="M334 559q80 0 138 -36q64 -40 77 -84v108h71v-547h-71v106q-28 -57 -86.5 -88t-124.5 -31q-61 0 -116 23q-70 30 -128 95q-20 23 -36 73.5t-16 97.5q0 116 84.5 199.5t207.5 83.5zM335 488q-91 0 -155 -64t-64 -154q0 -88 66 -150t155 -62q87 0 149.5 64.5t62.5 149.5
q0 90 -61 153t-153 63zM242 739h74v-126h-74v126zM389 739h74v-126h-74v126z" />
    <glyph glyph-name="aring" unicode="&#xe5;" horiz-adv-x="683" 
d="M334 559q80 0 138 -36q64 -40 77 -84v108h71v-547h-71v106q-28 -57 -86.5 -88t-124.5 -31q-61 0 -116 23q-70 30 -128 95q-20 23 -36 73.5t-16 97.5q0 116 84.5 199.5t207.5 83.5zM335 488q-91 0 -155 -64t-64 -154q0 -88 66 -150t155 -62q87 0 149.5 64.5t62.5 149.5
q0 90 -61 153t-153 63zM382 797q39 0 66 -27t27 -64q0 -38 -25.5 -65.5t-66.5 -27.5t-66.5 27.5t-25.5 65.5q0 36 27.5 63.5t63.5 27.5zM383 760q-21 0 -38 -15t-17 -38q0 -24 15.5 -40.5t39.5 -16.5t39.5 16.5t15.5 39.5q0 21 -15.5 37.5t-39.5 16.5z" />
    <glyph glyph-name="ae" unicode="&#xe6;" horiz-adv-x="1157" 
d="M338 559q66 0 121.5 -26.5t91.5 -77.5v104h70v-104q34 48 90.5 76t121.5 28q63 0 123 -29q50 -24 87 -64q41 -44 58 -98t17 -122h-493q7 -80 67.5 -134t140.5 -54q61 0 114 32.5t76 87.5h76q-24 -83 -100.5 -137t-164.5 -54q-59 0 -116.5 26.5t-96.5 72.5v-99h-70v99
q-44 -48 -95 -73.5t-119 -25.5q-55 0 -106 17.5t-84 46.5q-47 42 -76 99.5t-29 121.5q0 117 82 200q86 87 214 87zM332 488q-93 0 -154.5 -64.5t-61.5 -155.5q0 -87 63.5 -148.5t153.5 -61.5q91 0 154.5 61.5t63.5 153.5q0 93 -64 154t-155 61zM835 488q-83 0 -143 -53
q-56 -50 -65 -122h413q-8 72 -69.5 123.5t-135.5 51.5z" />
    <glyph glyph-name="ccedilla" unicode="&#xe7;" horiz-adv-x="647" 
d="M338 559q91 0 165 -49t105 -129h-83q-24 47 -78.5 77t-107.5 30q-91 0 -157 -61t-66 -152q0 -92 63.5 -154.5t154.5 -62.5q59 0 101 21q47 24 90 81h82q-44 -92 -119 -134q-69 -39 -168 -39l-18 -43q18 7 32 7q36 0 56.5 -22.5t20.5 -58.5q0 -35 -25 -63t-62 -28
q-36 0 -58.5 17.5t-30.5 54.5l44 5q4 -15 17.5 -24t29.5 -9q19 0 30.5 14t11.5 31q0 22 -14.5 35.5t-31.5 13.5q-26 0 -42 -22l-31 17l36 80q-109 18 -176 97.5t-67 183.5q0 119 86.5 202.5t209.5 83.5z" />
    <glyph glyph-name="egrave" unicode="&#xe8;" horiz-adv-x="650" 
d="M327 559q63 0 116.5 -25.5t96.5 -72.5q40 -44 56 -96.5t16 -117.5h-495q0 -72 62.5 -130.5t143.5 -58.5q60 0 116 32.5t79 87.5h77q-31 -84 -104 -137.5t-162 -53.5q-119 0 -203 82t-84 203q0 118 82.5 202.5t202.5 84.5zM328 488q-80 0 -138.5 -49.5t-73.5 -124.5h421
q-14 73 -74 123.5t-135 50.5zM482 671l-33 -58l-197 106l32 60z" />
    <glyph glyph-name="eacute" unicode="&#xe9;" horiz-adv-x="650" 
d="M327 559q63 0 116.5 -25.5t96.5 -72.5q40 -44 56 -96.5t16 -117.5h-495q0 -72 62.5 -130.5t143.5 -58.5q60 0 116 32.5t79 87.5h77q-31 -84 -104 -137.5t-162 -53.5q-119 0 -203 82t-84 203q0 118 82.5 202.5t202.5 84.5zM328 488q-80 0 -138.5 -49.5t-73.5 -124.5h421
q-14 73 -74 123.5t-135 50.5zM445 785l35 -58l-193 -114l-34 56z" />
    <glyph glyph-name="ecircumflex" unicode="&#xea;" horiz-adv-x="650" 
d="M327 559q63 0 116.5 -25.5t96.5 -72.5q40 -44 56 -96.5t16 -117.5h-495q0 -72 62.5 -130.5t143.5 -58.5q60 0 116 32.5t79 87.5h77q-31 -84 -104 -137.5t-162 -53.5q-119 0 -203 82t-84 203q0 118 82.5 202.5t202.5 84.5zM328 488q-80 0 -138.5 -49.5t-73.5 -124.5h421
q-14 73 -74 123.5t-135 50.5zM335 739h64l145 -126h-90l-87 73l-87 -73h-90z" />
    <glyph glyph-name="edieresis" unicode="&#xeb;" horiz-adv-x="650" 
d="M327 559q63 0 116.5 -25.5t96.5 -72.5q40 -44 56 -96.5t16 -117.5h-495q0 -72 62.5 -130.5t143.5 -58.5q60 0 116 32.5t79 87.5h77q-31 -84 -104 -137.5t-162 -53.5q-119 0 -203 82t-84 203q0 118 82.5 202.5t202.5 84.5zM328 488q-80 0 -138.5 -49.5t-73.5 -124.5h421
q-14 73 -74 123.5t-135 50.5zM226 739h74v-126h-74v126zM373 739h74v-126h-74v126z" />
    <glyph glyph-name="igrave" unicode="&#xec;" horiz-adv-x="200" 
d="M63 547h74v-547h-74v547zM279 671l-33 -58l-197 106l32 60z" />
    <glyph glyph-name="iacute" unicode="&#xed;" horiz-adv-x="200" 
d="M63 547h74v-547h-74v547zM242 785l35 -58l-193 -114l-34 56z" />
    <glyph glyph-name="icircumflex" unicode="&#xee;" horiz-adv-x="200" 
d="M63 547h74v-547h-74v547zM132 739h64l145 -126h-90l-87 73l-87 -73h-90z" />
    <glyph glyph-name="idieresis" unicode="&#xef;" horiz-adv-x="200" 
d="M63 547h74v-547h-74v547zM23 739h74v-126h-74v126zM170 739h74v-126h-74v126z" />
    <glyph glyph-name="eth" unicode="&#xf0;" horiz-adv-x="673" 
d="M321 559q86 0 148 -43q44 -31 70 -77v108h71v-487q0 -54 -10 -92t-36 -72q-44 -56 -105.5 -83t-127.5 -27q-94 0 -169 54.5t-100 146.5h73q30 -62 82 -96t119 -34q53 0 96.5 19.5t73.5 60.5q21 28 27 65.5t6 107.5q-22 -53 -75 -86q-59 -37 -138 -37q-116 0 -200 82
t-84 202q0 118 79 203t200 85zM320 488q-88 0 -146 -62t-58 -149q0 -94 60.5 -156.5t150.5 -62.5q91 0 151 65t60 151q0 90 -63 152t-155 62zM176 752h63q10 -21 35.5 -33.5t52.5 -12.5q28 0 54 12t36 34h63q-13 -51 -55.5 -80t-96.5 -29q-53 0 -95.5 28t-56.5 81z" />
    <glyph glyph-name="ntilde" unicode="&#xf1;" horiz-adv-x="610" 
d="M474 492q73 -65 73 -182v-310h-74v303q0 82 -46.5 133.5t-125.5 51.5q-36 0 -64.5 -12t-53.5 -35q-46 -43 -46 -133v-308h-74v547h70v-82q29 42 66 65q46 29 105 29q49 0 92 -17.5t78 -49.5zM312 715q26 0 51 -12q59 -28 68 -28q14 0 25 6t29 19l30 -48q-19 -17 -40 -28
t-43 -11q-23 0 -49 12q-61 28 -72 28q-16 0 -30 -7.5t-27 -21.5l-29 49q22 22 37 30q22 12 50 12z" />
    <glyph glyph-name="ograve" unicode="&#xf2;" horiz-adv-x="655" 
d="M329 559q113 0 198.5 -84.5t85.5 -198.5q0 -115 -82 -202t-202 -87q-115 0 -201 82t-86 200q0 121 83.5 205.5t203.5 84.5zM328 488q-89 0 -150.5 -64.5t-61.5 -153.5t62.5 -150.5t151.5 -61.5q88 0 148.5 63.5t60.5 155.5q0 89 -62 150t-149 61zM485 671l-33 -58
l-197 106l32 60z" />
    <glyph glyph-name="oacute" unicode="&#xf3;" horiz-adv-x="655" 
d="M329 559q113 0 198.5 -84.5t85.5 -198.5q0 -115 -82 -202t-202 -87q-115 0 -201 82t-86 200q0 121 83.5 205.5t203.5 84.5zM328 488q-89 0 -150.5 -64.5t-61.5 -153.5t62.5 -150.5t151.5 -61.5q88 0 148.5 63.5t60.5 155.5q0 89 -62 150t-149 61zM447 785l35 -58
l-193 -114l-34 56z" />
    <glyph glyph-name="ocircumflex" unicode="&#xf4;" horiz-adv-x="655" 
d="M329 559q113 0 198.5 -84.5t85.5 -198.5q0 -115 -82 -202t-202 -87q-115 0 -201 82t-86 200q0 121 83.5 205.5t203.5 84.5zM328 488q-89 0 -150.5 -64.5t-61.5 -153.5t62.5 -150.5t151.5 -61.5q88 0 148.5 63.5t60.5 155.5q0 89 -62 150t-149 61zM338 739h64l145 -126
h-90l-87 73l-87 -73h-90z" />
    <glyph glyph-name="otilde" unicode="&#xf5;" horiz-adv-x="655" 
d="M329 559q113 0 198.5 -84.5t85.5 -198.5q0 -115 -82 -202t-202 -87q-115 0 -201 82t-86 200q0 121 83.5 205.5t203.5 84.5zM328 488q-89 0 -150.5 -64.5t-61.5 -153.5t62.5 -150.5t151.5 -61.5q88 0 148.5 63.5t60.5 155.5q0 89 -62 150t-149 61zM312 715q26 0 51 -12
q59 -28 68 -28q14 0 25 6t29 19l30 -48q-19 -17 -40 -28t-43 -11q-23 0 -49 12q-61 28 -72 28q-16 0 -30 -7.5t-27 -21.5l-29 49q22 22 37 30q22 12 50 12z" />
    <glyph glyph-name="odieresis" unicode="&#xf6;" horiz-adv-x="655" 
d="M329 559q113 0 198.5 -84.5t85.5 -198.5q0 -115 -82 -202t-202 -87q-115 0 -201 82t-86 200q0 121 83.5 205.5t203.5 84.5zM328 488q-89 0 -150.5 -64.5t-61.5 -153.5t62.5 -150.5t151.5 -61.5q88 0 148.5 63.5t60.5 155.5q0 89 -62 150t-149 61zM218 739h74v-126h-74
v126zM365 739h74v-126h-74v126z" />
    <glyph glyph-name="divide" unicode="&#xf7;" horiz-adv-x="606" 
d="M265 553h76v-76h-76v76zM51 339h504v-76h-504v76zM265 125h76v-76h-76v76z" />
    <glyph glyph-name="oslash" unicode="&#xf8;" horiz-adv-x="653" 
d="M531 594l54 -41l-59 -76q85 -89 85 -204q0 -117 -84.5 -201.5t-200.5 -84.5q-75 0 -142 40l-55 -72l-52 40l55 70q-42 39 -66 94t-24 114q0 115 83.5 200.5t200.5 85.5q39 0 76 -11q25 -8 72 -30zM330 488q-89 0 -151.5 -62.5t-62.5 -149.5q0 -43 14.5 -83t43.5 -69
l257 335q-48 29 -101 29zM484 418l-257 -335q52 -25 103 -25q87 0 147 63.5t60 153.5q0 39 -13.5 77.5t-39.5 65.5z" />
    <glyph glyph-name="ugrave" unicode="&#xf9;" horiz-adv-x="608" 
d="M63 547h74v-311q0 -75 44.5 -126.5t122.5 -51.5q77 0 122 53t45 134l1 302h73v-547l-70 -1v87q-27 -51 -73 -75t-107 -24q-58 0 -102 22q-34 17 -70 53q-21 21 -27 30q-33 49 -33 144v311zM483 671l-33 -58l-197 106l32 60z" />
    <glyph glyph-name="uacute" unicode="&#xfa;" horiz-adv-x="608" 
d="M63 547h74v-311q0 -75 44.5 -126.5t122.5 -51.5q77 0 122 53t45 134l1 302h73v-547l-70 -1v87q-27 -51 -73 -75t-107 -24q-58 0 -102 22q-34 17 -70 53q-21 21 -27 30q-33 49 -33 144v311zM446 785l35 -58l-193 -114l-34 56z" />
    <glyph glyph-name="ucircumflex" unicode="&#xfb;" horiz-adv-x="608" 
d="M63 547h74v-311q0 -75 44.5 -126.5t122.5 -51.5q77 0 122 53t45 134l1 302h73v-547l-70 -1v87q-27 -51 -73 -75t-107 -24q-58 0 -102 22q-34 17 -70 53q-21 21 -27 30q-33 49 -33 144v311zM336 739h64l145 -126h-90l-87 73l-87 -73h-90z" />
    <glyph glyph-name="udieresis" unicode="&#xfc;" horiz-adv-x="608" 
d="M63 547h74v-311q0 -75 44.5 -126.5t122.5 -51.5q77 0 122 53t45 134l1 302h73v-547l-70 -1v87q-27 -51 -73 -75t-107 -24q-58 0 -102 22q-34 17 -70 53q-21 21 -27 30q-33 49 -33 144v311zM197 739h74v-126h-74v126zM344 739h74v-126h-74v126z" />
    <glyph glyph-name="yacute" unicode="&#xfd;" horiz-adv-x="200" 
d="M63 547h74v-547h-74v547z" />
    <glyph glyph-name="thorn" unicode="&#xfe;" horiz-adv-x="388" 
d="M208 -12l-23 -52q18 6 30 6q32 0 50.5 -19.5t18.5 -53.5q0 -36 -23.5 -59.5t-54.5 -23.5q-35 0 -54.5 18t-26.5 47l41 5q3 -14 15 -22t27 -8q14 0 25.5 11.5t11.5 31.5q0 16 -12 29t-30 13q-26 0 -36 -20l-29 16l36 81q-62 0 -109 50t-47 123h74q0 -43 28 -73t71 -30
q41 0 68.5 25.5t27.5 65.5q0 28 -11 47q-18 31 -63 48q-41 12 -67.5 22t-42.5 20q-29 20 -45 46q-20 33 -20 74q0 64 45.5 108.5t111.5 44.5q62 0 107 -44t45 -104h-74q0 35 -24 56t-60 21q-30 0 -53.5 -21.5t-23.5 -55.5q0 -24 13 -44t36 -29l117 -45q43 -21 63 -54.5
t20 -77.5q0 -68 -42.5 -116.5t-110.5 -56.5z" />
    <glyph glyph-name="ydieresis" unicode="&#xff;" horiz-adv-x="536" 
d="M9 547h79l175 -436l185 436h79l-316 -739h-78l86 209zM137 739h74v-126h-74v126zM284 739h74v-126h-74v126z" />
    <glyph glyph-name="breve" unicode="&#x2d8;" horiz-adv-x="453" 
d="M74 716h63q10 -21 35.5 -33.5t52.5 -12.5q28 0 54 12t36 34h63q-13 -51 -55 -77t-97 -26q-54 0 -94 24q-44 27 -58 79z" />
    <glyph glyph-name="dotaccent" unicode="&#x2d9;" horiz-adv-x="222" 
d="M74 739h74v-126h-74v126z" />
    <glyph glyph-name="dotlessi" unicode="&#x131;" horiz-adv-x="200" 
d="M63 547h74v-547h-74v547z" />
    <glyph glyph-name="ring" unicode="&#x2da;" horiz-adv-x="332" 
d="M165 797q39 0 66 -27t27 -64q0 -38 -25.5 -65.5t-66.5 -27.5t-66.5 27.5t-25.5 65.5q0 36 27.5 63.5t63.5 27.5zM166 760q-21 0 -38 -15t-17 -38q0 -24 15.5 -40.5t39.5 -16.5t39.5 16.5t15.5 39.5q0 21 -15.5 37.5t-39.5 16.5z" />
    <glyph glyph-name="ogonek" unicode="&#x2db;" horiz-adv-x="302" 
d="M198 0q-37 -23 -52 -37q-27 -25 -27 -52q0 -29 19.5 -43t47.5 -14q19 0 42 9v-44q-10 -5 -24 -7t-27 -2q-41 0 -70 21q-33 24 -33 66q0 35 28 67q22 26 48 36h48z" />
    <glyph glyph-name="caron" unicode="&#x2c7;" horiz-adv-x="502" 
d="M166 739l86 -74l87 74h89l-142 -126h-67l-145 126h92z" />
    <glyph glyph-name="Lslash" unicode="&#x141;" horiz-adv-x="517" 
d="M122 739h74v-277l148 125v-85l-148 -125v-310h306v-67h-380v320l-96 -80v87l96 80v332z" />
    <glyph glyph-name="lslash" unicode="&#x142;" horiz-adv-x="300" 
d="M116 739h74v-255l80 53v-74l-80 -53v-410h-74v366l-80 -54v73l80 52v302z" />
    <glyph glyph-name="fraction" unicode="&#x2215;" horiz-adv-x="166" 
d="M217 739h64l-332 -739h-64z" />
    <glyph glyph-name="fi" unicode="&#xf001;" horiz-adv-x="487" 
d="M307 739v-68l-18 1q-51 0 -82 -25q-36 -29 -36 -84q1 -11 1 -16h136v-67h-136v-480h-74v480h-85v67h85q0 97 56 144.5t153 47.5zM350 739h74v-126h-74v126zM350 547h74v-547h-74v547z" />
    <glyph glyph-name="fl" unicode="&#xf002;" horiz-adv-x="485" 
d="M307 739v-68l-18 1q-51 0 -82 -25q-36 -29 -36 -84q1 -11 1 -16h136v-67h-136v-480h-74v480h-85v67h85q0 97 56 144.5t153 47.5zM349 740h73v-740h-73v740z" />
    <glyph glyph-name="Zcaron" unicode="&#x17d;" horiz-adv-x="480" 
d="M28 739h435v-67l-362 -605h373v-67h-457v66l363 606h-352v67zM172 930l86 -74l87 74h89l-142 -126h-67l-145 126h92z" />
    <glyph glyph-name="zcaron" unicode="&#x17e;" horiz-adv-x="425" 
d="M20 547h376v-67l-294 -413h313v-67h-405v65l296 415h-286v67zM138 738l86 -74l87 74h89l-142 -126h-67l-145 126h92z" />
    <glyph glyph-name="Scedilla" unicode="&#x15e;" horiz-adv-x="498" 
d="M268 -11l-23 -54q18 6 31 6q32 0 51.5 -20.5t19.5 -54.5q0 -37 -24 -61t-57 -24q-36 0 -56 18.5t-26 48.5l41 5q3 -14 16 -22t27 -8t26.5 11.5t12.5 31.5q0 17 -12.5 30.5t-31.5 13.5q-26 0 -37 -21l-30 16l37 84q-88 0 -149.5 61.5t-61.5 156.5h79q0 -58 41.5 -103.5
t106.5 -45.5q64 0 108.5 40.5t44.5 104.5q0 47 -29 84t-78 54q-26 8 -42 12q-51 15 -86 27q-60 21 -91 67.5t-31 105.5q0 86 60 142t149 56q85 0 144.5 -56.5t59.5 -143.5h-76q-7 58 -43 93.5t-92 35.5q-52 0 -90 -37t-38 -91q0 -43 25 -74q22 -27 60 -38l140 -43
q64 -27 98 -79.5t34 -114.5q0 -87 -61.5 -150.5t-146.5 -63.5z" />
    <glyph glyph-name="scedilla" unicode="&#x15f;" horiz-adv-x="388" 
d="M208 -12l-23 -52q18 6 30 6q32 0 50.5 -19.5t18.5 -53.5q0 -36 -23.5 -59.5t-54.5 -23.5q-35 0 -54.5 18t-26.5 47l41 5q3 -14 15 -22t27 -8q14 0 25.5 11.5t11.5 31.5q0 16 -12 29t-30 13q-26 0 -36 -20l-29 16l36 81q-62 0 -109 50t-47 123h74q0 -43 28 -73t71 -30
q41 0 68.5 25.5t27.5 65.5q0 28 -11 47q-18 31 -63 48q-41 12 -67.5 22t-42.5 20q-29 20 -45 46q-20 33 -20 74q0 64 45.5 108.5t111.5 44.5q62 0 107 -44t45 -104h-74q0 35 -24 56t-60 21q-30 0 -53.5 -21.5t-23.5 -55.5q0 -24 13 -44t36 -29l117 -45q43 -21 63 -54.5
t20 -77.5q0 -68 -42.5 -116.5t-110.5 -56.5z" />
    <glyph glyph-name="Gbreve" unicode="&#x11e;" horiz-adv-x="872" 
d="M439 751q113 0 210 -58t137 -151h-85q-35 63 -109.5 100.5t-151.5 37.5q-120 0 -210 -75q-49 -40 -79 -100q-33 -65 -33 -133q0 -132 96 -223t228 -91q102 0 187 60t113 156h-413v67h501q0 -137 -111 -243q-116 -111 -279 -111q-159 0 -276 110q-120 113 -120 275
q0 85 38 161q34 69 98 125q105 93 259 93zM289 916h63q10 -21 35.5 -33.5t52.5 -12.5q28 0 54 12t36 34h63q-13 -51 -55 -77t-97 -26q-54 0 -94 24q-44 27 -58 79z" />
    <glyph glyph-name="gbreve" unicode="&#x11f;" horiz-adv-x="673" 
d="M321 559q86 0 148 -43q44 -31 70 -77v108h71v-487q0 -54 -10 -92t-36 -72q-44 -56 -105.5 -83t-127.5 -27q-94 0 -169 54.5t-100 146.5h73q30 -62 82 -96t119 -34q53 0 96.5 19.5t73.5 60.5q21 28 27 65.5t6 107.5q-22 -53 -75 -86q-59 -37 -138 -37q-116 0 -200 82
t-84 202q0 118 79 203t200 85zM320 488q-88 0 -146 -62t-58 -149q0 -94 60.5 -156.5t150.5 -62.5q91 0 151 65t60 151q0 90 -63 152t-155 62zM176 752h63q10 -21 35.5 -33.5t52.5 -12.5q28 0 54 12t36 34h63q-13 -51 -55.5 -80t-96.5 -29q-53 0 -95.5 28t-56.5 81z" />
    <glyph glyph-name="Idotaccent" unicode="&#x130;" horiz-adv-x="226" 
d="M76 739h74v-739h-74v739zM75 949h74v-126h-74v126z" />
  </font>
</defs>
</svg>
