<svg id="Grupo_128" data-name="Grupo 128" xmlns="http://www.w3.org/2000/svg" width="147.861" height="21.203" viewBox="0 0 147.861 21.203">
  <g id="g6692" transform="translate(0 0.301)">
    <path id="path6694" d="M313.742,1478.089h-5.886v-14.716h-.06l-3.756,14.716h-4.024l-3.873-14.716h-.06v14.716h-4.747v-20.6H299.6l2.942,10.93h.06l2.822-10.93h8.321Z" transform="translate(-291.336 -1457.486)" fill="#7c7c7c"/>
  </g>
  <g id="g6696" transform="translate(24.022 0.301)">
    <path id="path6698" d="M341.631,1478.089H326.163v-20.6h15.468v4.744h-9.28v3h7.506v4.594h-7.506v3.334h9.28Z" transform="translate(-326.163 -1457.486)" fill="#7c7c7c"/>
  </g>
  <g id="g6708" transform="translate(40.971 0.299)">
    <path id="path6710" d="M357.976,1473.343a3.861,3.861,0,0,0,2.162-.361,3.6,3.6,0,0,0,1.35-1.353,7.574,7.574,0,0,0,.962-3.964,7.662,7.662,0,0,0-1.262-4.325c-.991-1.231-1.951-1.171-3.394-1.171h-.721v11.174Zm-7.239-15.859h7.6c2.976,0,5.345.391,7.569,2.523a10.531,10.531,0,0,1,3.153,7.809,10.875,10.875,0,0,1-2.851,7.478,9.676,9.676,0,0,1-7.449,2.793h-8.019v-20.6Z" transform="translate(-350.737 -1457.484)" fill="#7c7c7c"/>
  </g>
  <path id="path6712" d="M385.287,1478.091h-6.368v-20.6h6.368Z" transform="translate(-318.509 -1457.186)" fill="#7c7c7c"/>
  <g id="g6714" transform="translate(67.83 0.299)">
    <path id="path6716" d="M400.489,1469.527l-1.683-5.977-1.68,5.977Zm1.082,4.508h-5.5l-1.259,4.054h-5.137l6.4-20.6h6.669l6.458,20.6h-6.458l-1.171-4.054Z" transform="translate(-389.677 -1457.484)" fill="#7c7c7c"/>
  </g>
  <g id="g6718" transform="translate(85.991)">
    <path id="path6720" d="M434.028,1470.445a8.183,8.183,0,0,1-8.591,7.809c-6.185,0-9.429-4.476-9.429-10.332,0-5.948,2.853-10.872,9.34-10.872,5.254,0,8.258,3.121,8.68,8.258l-5.886.3c.06-1.74-.6-3.932-2.733-3.932-2.793,0-2.913,4.294-2.913,6.247,0,2.073.12,5.585,2.973,5.585,1.953,0,2.7-1.711,2.794-3.423Z" transform="translate(-416.008 -1457.05)" fill="#7c7c7c"/>
  </g>
  <g id="g6722" transform="translate(104.772)">
    <path id="path6724" d="M449.993,1467.74c0,1.982.208,5.8,3.093,5.8s3.093-3.813,3.093-5.8c0-2.011-.3-6.037-3.093-6.037s-3.093,4.026-3.093,6.037m12.943-.029c0,5.858-3.605,10.542-9.85,10.542s-9.85-4.684-9.85-10.542c0-6.156,3.574-10.661,9.85-10.661s9.85,4.5,9.85,10.661" transform="translate(-443.236 -1457.05)" fill="#7c7c7c"/>
  </g>
  <g id="g6726" transform="translate(125.453 0.301)">
    <path id="path6728" d="M495.628,1478.089h-5.886v-14.716h-.06l-3.756,14.716H481.9l-3.876-14.716h-.059v14.716H473.22v-20.6h8.26l2.944,10.93h.06l2.822-10.93h8.321Z" transform="translate(-473.22 -1457.486)" fill="#7c7c7c"/>
  </g>
</svg>
