<svg xmlns="http://www.w3.org/2000/svg" width="92" height="53.987" viewBox="0 0 92 53.987">
  <path id="Trazado_822" data-name="Trazado 822" d="M376.033,1364.827c0-9.475-7.34-18.068-21.541-18.068H340.386V1330H328.36l-4.837,8.895L318.461,1330H306.436v19.75a13.7,13.7,0,0,0-18.594.159,12.437,12.437,0,0,0-2.777,4.052,12.567,12.567,0,0,0-1.005,4.957v.062a12.436,12.436,0,0,0,3.752,8.98,13.7,13.7,0,0,0,18.73-.032,12.479,12.479,0,0,0,3.752-8.158h6.668v-12.215l6.562,9.367,6.337-9.367v12.215H340.2v24.217h13.864c14.3,0,21.992-7.931,21.992-18.623l-.027-.536Zm-74.648-5.848a4.058,4.058,0,0,1-4.161,4.3,4.128,4.128,0,0,1-4.255-4.364v-.063h0a4.212,4.212,0,1,1,8.417.063v.062Zm61.713,6.257c0,4.569-3.564,6.559-7.788,6.559h-2.436v-13.212h2.4c4.261,0,7.825,1.994,7.825,6.565v.088Z" transform="translate(-284.06 -1330)" fill="#7c7c7c"/>
</svg>
