<svg id="Grupo_127" data-name="Grupo 127" xmlns="http://www.w3.org/2000/svg" width="104.116" height="55.731" viewBox="0 0 104.116 55.731">
  <path id="Trazado_823" data-name="Trazado 823" d="M757.173,1373.476l-13.135-13.049c-.268.252-.486.448-.691.652q-6.78,6.732-13.558,13.465a4.178,4.178,0,0,1-6.384-.011c-4.712-4.681-9.454-9.345-14.174-14.021-1.963-1.945-.764-4.022,2.5-4.351.256-.026.515-.038.772-.064,4.932-.482,7.8-3.693,6.424-7.218-.907-2.325-3.225-3.438-6.3-3.8a31.341,31.341,0,0,0-3.488-.13c-3.306-.012-6.612.007-9.919,0-2.126,0-3.511-.93-3.527-2.337-.018-1.435,1.394-2.41,3.558-2.4,4.374.02,8.75.008,13.122.12a20.589,20.589,0,0,1,7.4,1.59c4.812,2,7.26,5.9,6.424,10.119-.783,3.951-3.878,6.444-9,7.807l9.4,9.294c.267-.258.483-.462.691-.67q6.834-6.79,13.669-13.583a4.171,4.171,0,0,1,6.11-.022q6.863,6.82,13.727,13.64c.209.206.431.406.7.654.222-.2.407-.357.574-.524q7.026-7,14.05-14a4.287,4.287,0,0,1,5.666-.006q8.557,8.524,17.115,17.051c1.209,1.205,1.22,2.5.029,3.469a4.15,4.15,0,0,1-2.686.849c-3.534,0-7.067.017-10.6,0-2.081-.011-3.574-1.086-3.593-2.527-.019-1.473,1.482-2.555,3.615-2.584,1.19-.016,2.382,0,3.821,0l-10.522-10.455c-.3.289-.526.508-.749.73q-16.8,16.687-33.6,33.379a4.157,4.157,0,0,1-2.707,1.381,3.8,3.8,0,0,1-3.34-1.134,1.907,1.907,0,0,1,.044-2.826c.9-.965,1.878-1.887,2.825-2.827q7.589-7.539,15.178-15.077C756.78,1373.889,756.945,1373.712,757.173,1373.476Z" transform="translate(-695.69 -1340.216)" fill="#7c7c7c"/>
</svg>
