<svg xmlns="http://www.w3.org/2000/svg" width="174.827" height="40.62" viewBox="0 0 174.827 40.62">
  <g id="Grupo_152" data-name="Grupo 152" opacity="0.7">
    <g id="Grupo_151" data-name="Grupo 151">
      <g id="Grupo_146" data-name="Grupo 146">
        <path id="Trazado_831" data-name="Trazado 831" d="M607.147,1564.785a20.31,20.31,0,1,1-20.31-20.311A20.31,20.31,0,0,1,607.147,1564.785Z" transform="translate(-566.527 -1544.474)" fill="#161616"/>
        <g id="Grupo_145" data-name="Grupo 145" transform="translate(11.334 7.199)">
          <g id="Grupo_133" data-name="Grupo 133" transform="translate(0.239)">
            <path id="Trazado_832" data-name="Trazado 832" d="M600.184,1577.562h-.8v-8.7h2.546l-2.546-6.253v-.078a6.464,6.464,0,0,0-2.242-5.045,8.343,8.343,0,0,0-5.485-1.885,7.735,7.735,0,0,0-7.726,7.726v14.232h-.8v-14.232a8.532,8.532,0,0,1,8.522-8.522c4.909,0,8.481,3.211,8.523,7.647l2.934,7.206h-2.934Z" transform="translate(-583.139 -1554.807)" fill="#fff"/>
          </g>
          <g id="Grupo_134" data-name="Grupo 134" transform="translate(2.487 3.086)">
            <path id="Trazado_833" data-name="Trazado 833" d="M598.915,1578.905h-.8v-13.394a5.478,5.478,0,1,0-10.956,0v13.394h-.8v-13.394a6.275,6.275,0,1,1,12.549,0Z" transform="translate(-586.366 -1559.236)" fill="#fff"/>
          </g>
          <g id="Grupo_135" data-name="Grupo 135" transform="translate(4.866 5.704)">
            <path id="Trazado_834" data-name="Trazado 834" d="M597.572,1580.045h-.8v-13.155a3.1,3.1,0,1,0-6.2,0v13.155h-.8v-13.155a3.9,3.9,0,1,1,7.791,0Z" transform="translate(-589.781 -1562.995)" fill="#fff"/>
          </g>
          <g id="Grupo_136" data-name="Grupo 136" transform="translate(7.233 8.508)">
            <path id="Trazado_835" data-name="Trazado 835" d="M596.235,1581.266h-.8v-12.719a.732.732,0,0,0-1.464,0v12.719h-.8v-12.719a1.528,1.528,0,0,1,3.056,0Z" transform="translate(-593.179 -1567.019)" fill="#fff"/>
          </g>
          <g id="Grupo_137" data-name="Grupo 137" transform="translate(0 22.516)">
            <rect id="Rectángulo_97" data-name="Rectángulo 97" width="1.274" height="1.274" fill="#fff"/>
          </g>
          <g id="Grupo_138" data-name="Grupo 138" transform="translate(2.248 22.516)">
            <rect id="Rectángulo_98" data-name="Rectángulo 98" width="1.274" height="1.274" fill="#fff"/>
          </g>
          <g id="Grupo_139" data-name="Grupo 139" transform="translate(4.607 22.516)">
            <rect id="Rectángulo_99" data-name="Rectángulo 99" width="1.275" height="1.274" fill="#fff"/>
          </g>
          <g id="Grupo_140" data-name="Grupo 140" transform="translate(6.995 22.516)">
            <rect id="Rectángulo_100" data-name="Rectángulo 100" width="1.274" height="1.274" fill="#fff"/>
          </g>
          <g id="Grupo_141" data-name="Grupo 141" transform="translate(9.254 22.516)">
            <rect id="Rectángulo_101" data-name="Rectángulo 101" width="1.275" height="1.274" fill="#fff"/>
          </g>
          <g id="Grupo_142" data-name="Grupo 142" transform="translate(11.622 22.516)">
            <rect id="Rectángulo_102" data-name="Rectángulo 102" width="1.274" height="1.274" fill="#fff"/>
          </g>
          <g id="Grupo_143" data-name="Grupo 143" transform="translate(14.001 22.516)">
            <rect id="Rectángulo_103" data-name="Rectángulo 103" width="1.274" height="1.274" fill="#fff"/>
          </g>
          <g id="Grupo_144" data-name="Grupo 144" transform="translate(16.248 22.516)">
            <rect id="Rectángulo_104" data-name="Rectángulo 104" width="1.275" height="1.274" fill="#fff"/>
          </g>
        </g>
      </g>
      <g id="Grupo_150" data-name="Grupo 150" transform="translate(51.903 14.104)">
        <g id="Grupo_149" data-name="Grupo 149">
          <g id="Grupo_147" data-name="Grupo 147">
            <path id="Trazado_836" data-name="Trazado 836" d="M642.17,1567.8v-2.3h.967v2.3h1.614v.834h-1.614v4.969c0,.323.228.484.792.484a5.361,5.361,0,0,0,.861-.067v.792a4.408,4.408,0,0,1-1.129.109c-1.047,0-1.491-.27-1.491-1.156v-5.13h-1.141v-.834Z" transform="translate(-641.029 -1564.958)" fill="#161616"/>
            <path id="Trazado_837" data-name="Trazado 837" d="M650.557,1564.911v3.652h.026a2.878,2.878,0,0,1,2.068-1.071,1.855,1.855,0,0,1,2.013,2.041v5.077H653.7v-5.05c0-.927-.444-1.236-1.142-1.236a3.234,3.234,0,0,0-2,1.06v5.225h-.967v-9.7Z" transform="translate(-643.626 -1564.777)" fill="#161616"/>
            <path id="Trazado_838" data-name="Trazado 838" d="M665.857,1574.24a2.8,2.8,0,0,1-2.685,1.628c-1.557,0-3.035-1.075-3.035-3.628,0-2.256,1.127-3.625,2.848-3.625,1.451,0,2.659.938,2.659,3.168v.647H661.1c0,1.531.915,2.6,2.07,2.6a2.157,2.157,0,0,0,1.934-1.182Zm-1.179-2.644c0-1.288-.62-2.149-1.669-2.149-1.167,0-1.8.86-1.88,2.149Z" transform="translate(-646.825 -1565.901)" fill="#161616"/>
            <path id="Trazado_839" data-name="Trazado 839" d="M682.921,1574.24a2.8,2.8,0,0,1-2.686,1.628c-1.558,0-3.036-1.075-3.036-3.628,0-2.256,1.13-3.625,2.849-3.625,1.452,0,2.659.938,2.659,3.168v.647h-4.542c0,1.531.915,2.6,2.071,2.6a2.158,2.158,0,0,0,1.935-1.182Zm-1.184-2.644c0-1.288-.616-2.149-1.665-2.149-1.168,0-1.8.86-1.879,2.149Z" transform="translate(-652 -1565.901)" fill="#161616"/>
            <path id="Trazado_840" data-name="Trazado 840" d="M689.793,1564.911v9.7h-.968v-9.7Z" transform="translate(-655.527 -1564.777)" fill="#161616"/>
            <path id="Trazado_841" data-name="Trazado 841" d="M699.465,1574.24a2.8,2.8,0,0,1-2.687,1.628c-1.556,0-3.035-1.075-3.035-3.628,0-2.256,1.129-3.625,2.847-3.625,1.453,0,2.662.938,2.662,3.168v.647h-4.541c0,1.531.911,2.6,2.068,2.6a2.158,2.158,0,0,0,1.935-1.182Zm-1.182-2.644c0-1.288-.618-2.149-1.666-2.149-1.171,0-1.8.86-1.882,2.149Z" transform="translate(-657.019 -1565.901)" fill="#161616"/>
            <path id="Trazado_842" data-name="Trazado 842" d="M708.668,1570.83a1.719,1.719,0,0,0-1.653-1.382c-1.195,0-1.893,1.018-1.893,2.793s.7,2.794,1.893,2.794a1.932,1.932,0,0,0,1.922-1.289l.779.349a2.808,2.808,0,0,1-2.7,1.774c-1.747,0-2.86-1.37-2.86-3.628s1.114-3.625,2.86-3.625a2.569,2.569,0,0,1,2.553,1.893Z" transform="translate(-660.177 -1565.901)" fill="#161616"/>
            <path id="Trazado_843" data-name="Trazado 843" d="M715.285,1567.8v-2.3h.966v2.3h1.612v.834h-1.612v4.969c0,.323.229.484.792.484a5.375,5.375,0,0,0,.861-.067v.792a4.409,4.409,0,0,1-1.128.109c-1.046,0-1.492-.27-1.492-1.156v-5.13h-1.143v-.834Z" transform="translate(-663.206 -1564.958)" fill="#161616"/>
            <path id="Trazado_844" data-name="Trazado 844" d="M722.338,1568.758h.967v1.385h.024a2.381,2.381,0,0,1,2.272-1.492v.968c-1.209.024-1.84.82-2.3,2.255v3.87h-.967Z" transform="translate(-665.692 -1565.912)" fill="#161616"/>
            <path id="Trazado_845" data-name="Trazado 845" d="M731.132,1564.719v1.155h-.968v-1.155Zm-.968,2.847h.968v6.986h-.968Z" transform="translate(-668.066 -1564.719)" fill="#161616"/>
            <path id="Trazado_846" data-name="Trazado 846" d="M739.593,1570.83a1.717,1.717,0,0,0-1.651-1.382c-1.2,0-1.894,1.018-1.894,2.793s.7,2.794,1.894,2.794a1.931,1.931,0,0,0,1.922-1.289l.778.349a2.808,2.808,0,0,1-2.7,1.774c-1.747,0-2.863-1.37-2.863-3.628s1.116-3.625,2.863-3.625a2.571,2.571,0,0,1,2.553,1.893Z" transform="translate(-669.557 -1565.901)" fill="#161616"/>
            <path id="Trazado_847" data-name="Trazado 847" d="M753.076,1574.551V1568.4h-1.182v-.834h1.182v-.792c0-1.652.566-2.055,1.706-2.055.282,0,.578.04.859.067v.86a6.392,6.392,0,0,0-.7-.095c-.658,0-.9.214-.9.993v1.021h1.516v.834h-1.516v6.152Z" transform="translate(-674.658 -1564.719)" fill="#161616"/>
            <path id="Trazado_848" data-name="Trazado 848" d="M759.575,1570.091a2.859,2.859,0,0,1,2.619-1.476c1.183,0,2.417.563,2.417,2.094v3.52a5.428,5.428,0,0,0,.161,1.5h-.993l-.107-.968a3.118,3.118,0,0,1-2.31,1.1,1.843,1.843,0,0,1-1.989-1.921c0-1.531,1.17-2.3,4.272-2.849v-.375c0-.926-.6-1.276-1.437-1.276a1.813,1.813,0,0,0-1.789,1.087Zm4.071,1.868c-2.215.39-3.3,1.034-3.3,2a1.146,1.146,0,0,0,1.156,1.074,3.251,3.251,0,0,0,2.149-1.155Z" transform="translate(-676.927 -1565.901)" fill="#161616"/>
            <path id="Trazado_849" data-name="Trazado 849" d="M774.26,1570.83a1.718,1.718,0,0,0-1.652-1.382c-1.2,0-1.894,1.018-1.894,2.793s.7,2.794,1.894,2.794a1.928,1.928,0,0,0,1.921-1.289l.78.349a2.807,2.807,0,0,1-2.7,1.774c-1.746,0-2.861-1.37-2.861-3.628s1.115-3.625,2.861-3.625a2.569,2.569,0,0,1,2.552,1.893Z" transform="translate(-680.073 -1565.901)" fill="#161616"/>
            <path id="Trazado_850" data-name="Trazado 850" d="M780.875,1567.8v-2.3h.968v2.3h1.611v.834h-1.611v4.969c0,.323.231.484.793.484a5.343,5.343,0,0,0,.86-.067v.792a4.4,4.4,0,0,1-1.128.109c-1.046,0-1.492-.27-1.492-1.156v-5.13h-1.14v-.834Z" transform="translate(-683.103 -1564.958)" fill="#161616"/>
            <path id="Trazado_851" data-name="Trazado 851" d="M790.154,1575.868c-1.907,0-2.862-1.613-2.862-3.628s.954-3.625,2.862-3.625,2.861,1.611,2.861,3.625S792.061,1575.868,790.154,1575.868Zm0-6.421c-1.156,0-1.894.994-1.894,2.793s.738,2.794,1.894,2.794,1.894-.994,1.894-2.794S791.31,1569.448,790.154,1569.448Z" transform="translate(-685.395 -1565.901)" fill="#161616"/>
            <path id="Trazado_852" data-name="Trazado 852" d="M798.341,1568.758h.968v1.385h.024a2.378,2.378,0,0,1,2.271-1.492v.968c-1.211.024-1.84.82-2.3,2.255v3.87h-.968Z" transform="translate(-688.746 -1565.912)" fill="#161616"/>
            <path id="Trazado_853" data-name="Trazado 853" d="M810,1568.8l-2.458,7.6a2.374,2.374,0,0,1-2.349,1.962,3.862,3.862,0,0,1-.7-.082v-.791a5.049,5.049,0,0,0,.523.038c.59,0,1.492-.134,1.827-1.664l-2.431-7.066h1.021l1.881,5.334h.028l1.639-5.334Z" transform="translate(-690.588 -1565.958)" fill="#161616"/>
          </g>
          <g id="Grupo_148" data-name="Grupo 148" transform="translate(120.023 0.716)">
            <path id="Trazado_854" data-name="Trazado 854" d="M814.764,1565.747a1.432,1.432,0,1,1-1.454,1.428A1.429,1.429,0,0,1,814.764,1565.747Zm0,.232a1.2,1.2,0,1,0,1.168,1.2A1.164,1.164,0,0,0,814.764,1565.979Zm-.306,2.024H814.2v-1.65h.633c.394,0,.585.147.585.47a.428.428,0,0,1-.431.454l.471.726h-.279l-.439-.717h-.287Zm0-.924h.3c.307,0,.408-.09.408-.271,0-.159-.077-.247-.366-.247h-.343Z" transform="translate(-813.31 -1565.747)" fill="#161616"/>
          </g>
        </g>
      </g>
    </g>
  </g>
</svg>
