<svg id="Grupo_132" data-name="Grupo 132" xmlns="http://www.w3.org/2000/svg" width="105.014" height="28.404" viewBox="0 0 105.014 28.404">
  <g id="Grupo_131" data-name="Grupo 131">
    <g id="Grupo_130" data-name="Grupo 130">
      <path id="Trazado_824" data-name="Trazado 824" d="M988.047,1454.5l0-.007h-.01a.547.547,0,0,0-.225-.148.584.584,0,0,0-.164-.025.537.537,0,0,0-.391.174h-.182a.108.108,0,0,0-.005-.037.16.16,0,0,0-.091-.1.181.181,0,0,0-.238.08.175.175,0,0,0-.013.057h-.16a.4.4,0,0,0-.136-.115.39.39,0,0,0-.468.115h-.215a.319.319,0,0,0-.136-.123.34.34,0,0,0-.425.123h-.124a.452.452,0,0,0-.148-.115.468.468,0,0,0-.542.115h-.133c0-.008,0-.016,0-.022a.188.188,0,0,0-.1-.115.2.2,0,0,0-.266.092.3.3,0,0,0-.014.045h-.333a.25.25,0,0,0-.123-.127.272.272,0,0,0-.355.125v0h-1.036a.218.218,0,0,0-.116-.127.237.237,0,0,0-.313.107c0,.006,0,.014,0,.02H981.3a.371.371,0,0,0-.142-.123.388.388,0,0,0-.507.175.378.378,0,0,0,.024.373l-.17,1.15a2.183,2.183,0,0,0-.211.932,2.121,2.121,0,0,0,.027.317l-.126.842a.331.331,0,0,0-.077.1.3.3,0,0,0-.015.233.4.4,0,0,0,.034.063l-.084.563a.289.289,0,0,0-.091.1.283.283,0,0,0,.032.3l-.122.824a.739.739,0,0,0-.2.507.752.752,0,0,0,.078.326l-.126.853a.928.928,0,0,0-.12.8l-.107.725a.46.46,0,0,0-.1.18.448.448,0,0,0,.025.3l-.038.248a.176.176,0,0,0-.046.314l-.157,1.064c-.023.156-.045.309-.067.463a.57.57,0,0,0-.121.349.561.561,0,0,0,.047.228c-.016.144-.032.285-.049.428a.179.179,0,0,0-.122.144.185.185,0,0,0,.087.179c-.02.194-.038.389-.058.58a.642.642,0,0,0-.093.15.587.587,0,0,0,0,.453c.01.025.023.049.035.072-.018.215-.035.423-.053.632a.505.505,0,0,0-.05.59c-.013.155-.028.309-.041.459a.429.429,0,0,0-.107.281.42.42,0,0,0,.059.215c-.021.2-.041.39-.065.58a1.108,1.108,0,0,0-.083.223h-.017c-.037-.245-.07-.49-.1-.734a2.351,2.351,0,0,0,.069-.568,2.378,2.378,0,0,0-.3-1.167c-.044-.33-.086-.66-.131-.99a.606.606,0,0,0,.111-.352.614.614,0,0,0-.224-.471l0-.03a.212.212,0,0,0,.154-.2.215.215,0,0,0-.214-.215c-.006-.039-.012-.079-.017-.117a.853.853,0,0,0,.091-.379.867.867,0,0,0-.239-.6c-.012-.069-.022-.135-.033-.205l-.007-.039a.235.235,0,0,0,.115-.2.238.238,0,0,0-.189-.231l-.044-.262a1.261,1.261,0,0,0-.21-1.224l-.1-.582a.556.556,0,0,0,.1-.251.568.568,0,0,0-.237-.544l-.031-.176a.3.3,0,0,0,.122-.2.293.293,0,0,0-.21-.319l-.035-.2a.468.468,0,0,0,.1-.237.48.48,0,0,0-.222-.475l-.023-.134a.439.439,0,0,0,.115-.241.434.434,0,0,0-.086-.33.443.443,0,0,0-.148-.126l-.033-.19c.013-.016.026-.026.038-.04a.426.426,0,0,0,.075-.313.419.419,0,0,0-.17-.274.442.442,0,0,0-.055-.032l-.084-.49a.185.185,0,0,0-.059-.344l-.024-.142a.383.383,0,0,0,.126-.28.379.379,0,0,0-.233-.349l-.114-.657a1.923,1.923,0,0,0-.267-1.565l-.058-.336a.194.194,0,0,0,.092-.161.189.189,0,0,0-.149-.182l-.009-.046h-.767a1.93,1.93,0,0,0-1.468,0h-.807a.374.374,0,0,0-.6,0h-.279a.6.6,0,0,0-.787,0h-.468a.251.251,0,0,0-.06-.057.39.39,0,0,0-.5.057h-.447a.191.191,0,0,0-.075-.127.2.2,0,0,0-.268.041.2.2,0,0,0-.035.145.19.19,0,0,0,.079.125c.005.006.012.006.019.011l-.026.153a.42.42,0,0,0-.11.1.484.484,0,0,0-.086.361.5.5,0,0,0,.08.2l-.143.822a.421.421,0,0,0-.116.1.435.435,0,0,0,.009.513l-.033.189a.214.214,0,0,0-.065.376l-.037.211a.758.758,0,0,0-.23.544.747.747,0,0,0,.077.328l-.052.3a.471.471,0,0,0-.209.392.461.461,0,0,0,.093.278l-.1.58a.954.954,0,0,0-.228.623.939.939,0,0,0,.062.333l-.121.693a.493.493,0,0,0-.178.308.483.483,0,0,0,.069.317l-.064.359a.345.345,0,0,0-.145.529c.013.016.029.032.044.049l-.05.281a.313.313,0,0,0-.14.106.305.305,0,0,0,.051.409l-.124.711a2.036,2.036,0,0,0-.272,1.016,1.979,1.979,0,0,0,.038.381q-.037.237-.068.474a.215.215,0,0,0-.187.182.21.21,0,0,0,.136.225c-.042.359-.077.716-.109,1.076a.559.559,0,0,0-.174.333.572.572,0,0,0,.109.422c0,.031,0,.061-.006.093a.185.185,0,0,0-.111.3.167.167,0,0,0,.084.06c-.009.1-.016.2-.024.3a.3.3,0,0,0-.154.221.292.292,0,0,0,.059.224.261.261,0,0,0,.056.057c0,.037-.005.072-.007.109a.315.315,0,0,0-.149.224.307.307,0,0,0,.06.232.223.223,0,0,0,.045.049c-.01.131-.023.26-.035.39a1.218,1.218,0,0,0-.082.118.5.5,0,0,0-.155-.418l-.031-.257a.256.256,0,0,0-.052-.43c-.011-.094-.024-.191-.034-.289a.7.7,0,0,0,.1-.276.718.718,0,0,0-.207-.607c-.01-.08-.021-.162-.029-.245a.21.21,0,0,0,.077-.16.213.213,0,0,0-.119-.188c-.011-.068-.019-.134-.028-.2a.3.3,0,0,0,.085-.207.307.307,0,0,0-.141-.258c-.014-.1-.028-.209-.042-.314a.68.68,0,0,0,.079-.315.707.707,0,0,0-.182-.469c-.026-.2-.056-.407-.083-.61a.442.442,0,0,0,.092-.268.451.451,0,0,0-.18-.359l-.086-.579a.951.951,0,0,0,.069-.356.979.979,0,0,0-.21-.6l-.031-.209a.3.3,0,0,0-.074-.5l-.029-.2a.266.266,0,0,0,.091-.2.263.263,0,0,0-.156-.24l-.044-.3a.435.435,0,0,0,.081-.256.455.455,0,0,0-.17-.353l-.139-.934a.294.294,0,0,0,.1-.22.3.3,0,0,0-.17-.271l-.055-.369a.192.192,0,0,0,.094-.162.187.187,0,0,0-.145-.182l-.026-.18a.478.478,0,0,0,.081-.264.47.47,0,0,0-.174-.361l-.008-.057a.241.241,0,0,0-.061-.406l-.022-.155a.188.188,0,0,0-.051-.346l0-.018a.305.305,0,0,0,.086-.21.3.3,0,0,0-.154-.264l-.031-.217a.914.914,0,0,0-.134-.9l-.041-.277a.255.255,0,0,0,.087-.191.246.246,0,0,0-.151-.229l-.032-.224a.617.617,0,0,0,.072-.284.609.609,0,0,0-.178-.433l0-.027h-.031a.6.6,0,0,0-.8,0h-.073a.305.305,0,0,0-.266-.162.3.3,0,0,0-.266.162H962.5a.249.249,0,0,0-.466,0H962a.753.753,0,0,0-.918,0h-.2a.252.252,0,0,0-.231-.151.255.255,0,0,0-.23.151h-.079a.39.39,0,0,0-.311-.153.385.385,0,0,0-.309.153h-.24a.6.6,0,0,0-.394-.148.607.607,0,0,0-.4.148h-.518a.915.915,0,0,0-.484-.142.929.929,0,0,0-.451.12.2.2,0,0,0-.148-.071.223.223,0,0,0-.085.022.235.235,0,0,0-.154-.061.227.227,0,0,0-.229.227.233.233,0,0,0,.112.2l0,.008a.191.191,0,0,0,.1.164.9.9,0,0,0-.057.312.916.916,0,0,0,.291.668l.017.073a.3.3,0,0,0-.119.237.3.3,0,0,0,.177.275.188.188,0,0,0,.1.347c.009,0,.017,0,.026,0a.394.394,0,0,0,.141.629l.006.024a.395.395,0,0,0,.144.642l.007.035a.307.307,0,0,0-.118.238.3.3,0,0,0,.238.294l0,.016a.191.191,0,0,0,.07.37s.007,0,.011,0l.165.736a.406.406,0,0,0-.108.272.4.4,0,0,0,.252.371l.032.144a.188.188,0,0,0-.131.178.191.191,0,0,0,.19.193c.009,0,.015,0,.021,0v0a.222.222,0,0,0-.128.2.226.226,0,0,0,.179.223.4.4,0,0,0-.1.265.394.394,0,0,0,.293.38l.01.049a.3.3,0,0,0-.113.232.3.3,0,0,0,.231.292l.032.146a.2.2,0,0,0-.128.18.193.193,0,0,0,.191.194.127.127,0,0,0,.019,0l.038.18a1.336,1.336,0,0,0,.053.232l.088.4a.225.225,0,0,0-.133.207.228.228,0,0,0,.227.228h0l.053.235a.6.6,0,0,0,.182.818l.049.217a.375.375,0,0,0,.136.613l.1.459a.877.877,0,0,0-.08.371.92.92,0,0,0,.316.691l.068.307a.3.3,0,0,0-.11.23.3.3,0,0,0,.227.291l.025.115a.2.2,0,0,0-.111.174.191.191,0,0,0,.192.191l.044.2a.7.7,0,0,0-.087.332.707.707,0,0,0,.286.568l.15.671a.98.98,0,0,0,.231,1.039l.121.545a.259.259,0,0,0-.093.2.264.264,0,0,0,.194.256l.018.082a.187.187,0,0,0-.13.154.188.188,0,0,0,.163.216l.027,0c.008,0,.014,0,.021,0l.1.42a.391.391,0,0,0,.142.644l.035.154a.556.556,0,0,0-.086.227.573.573,0,0,0,.261.56l.2.921a.877.877,0,0,0-.094.385.855.855,0,0,0,.332.674l.1.46a.319.319,0,0,0-.114.2.3.3,0,0,0,.06.223.291.291,0,0,0,.173.112l.024.112a.45.45,0,0,0-.089.21.475.475,0,0,0,.092.351.459.459,0,0,0,.152.129l.036.166a.189.189,0,0,0-.128.178.193.193,0,0,0,.192.193c.006,0,.011-.006.017-.006l.117.521a1.54,1.54,0,0,0-.086.5,1.516,1.516,0,0,0,.434,1.062l.1.438h.728a1.489,1.489,0,0,0,.266.025,1.471,1.471,0,0,0,.265-.025h.694a.526.526,0,0,0,.039.065.393.393,0,0,0,.261.153c.018,0,.038,0,.054,0a.4.4,0,0,0,.356-.221h.991a.765.765,0,0,0,.419.2.607.607,0,0,0,.1.008.77.77,0,0,0,.522-.207h.4a.305.305,0,0,0,.244.2.314.314,0,0,0,.042,0,.3.3,0,0,0,.284-.2h.587a.244.244,0,0,0,.24.211.242.242,0,0,0,.237-.211h.3l0,.012a.184.184,0,0,0,.037.142.193.193,0,0,0,.126.074l.027,0a.19.19,0,0,0,.08-.363l.011-.085a.574.574,0,0,0,.222-.373.582.582,0,0,0-.111-.424l.053-.375a.421.421,0,0,0,.112-.283.444.444,0,0,0-.044-.189l.046-.334a.5.5,0,0,0,.187-.327.506.506,0,0,0-.09-.368l.088-.617a.964.964,0,0,0,.257-.654.953.953,0,0,0-.1-.437l.014-.094h.008a.19.19,0,0,0,.045-.375l.029-.2a.76.76,0,0,0,.242-.453.747.747,0,0,0-.11-.5l.122-.867a.465.465,0,0,0,.1-.734l.115-.821a.212.212,0,0,0,.177-.177.2.2,0,0,0-.041-.159.207.207,0,0,0-.078-.063.364.364,0,0,0,.195-.272.37.37,0,0,0-.071-.274c-.013-.016-.029-.031-.043-.047l.02-.138a.6.6,0,0,0,.118-.834l.039-.286a.309.309,0,0,0,.152-.223.306.306,0,0,0-.059-.224.2.2,0,0,0-.027-.027c.064-.445.119-.876.166-1.3a.422.422,0,0,0,.068-.576l-.009-.008c.033-.316.061-.627.087-.933a.7.7,0,0,0,.176-.381.709.709,0,0,0-.106-.482c.008-.094.014-.188.022-.28a.314.314,0,0,0,.189-.239.309.309,0,0,0-.147-.3c0-.052.009-.1.011-.154a.607.607,0,0,0,.186-.356.45.45,0,0,0,0-.048.609.609,0,0,0,.156.373c.011.1.023.212.035.32a.408.408,0,0,0-.1.218.418.418,0,0,0,.168.393c.014.145.031.293.047.441a.186.186,0,0,0,.038.346c0,.019,0,.04,0,.06a.373.373,0,0,0-.061.205.357.357,0,0,0,.117.265c.048.413.1.833.164,1.261a.182.182,0,0,0-.093.16.19.19,0,0,0,.142.182c.038.246.079.5.123.75a.292.292,0,0,0-.107.227.306.306,0,0,0,.2.283l.116.642a.387.387,0,0,0-.085.236.378.378,0,0,0,.185.325l.022.119a.179.179,0,0,0-.071.142.192.192,0,0,0,.128.18l.086.478a.175.175,0,0,0,.058.322l.017.1a.561.561,0,0,0,.111.611l.107.6a1.019,1.019,0,0,0-.015.766,1,1,0,0,0,.211.33l.2,1.105a1,1,0,0,0-.045.292.978.978,0,0,0,.2.592l.09.505a.308.308,0,0,0-.082.344.315.315,0,0,0,.175.178l.169.933a.7.7,0,0,0,.031.611.773.773,0,0,0,.1.142l.106.581a.716.716,0,0,0,.026.623.84.84,0,0,0,.112.15l.007.035h.032a.707.707,0,0,0,.472.182.72.72,0,0,0,.342-.087.655.655,0,0,0,.131-.094h.094a.183.183,0,0,0,.017.124.192.192,0,0,0,.169.1.194.194,0,0,0,.093-.024.191.191,0,0,0,.094-.2h1.187a.513.513,0,0,0,.418.218.531.531,0,0,0,.186-.033.518.518,0,0,0,.235-.185h.322a.069.069,0,0,0,0,.018.191.191,0,0,0,.382,0,.135.135,0,0,0,0-.018h.3a1.329,1.329,0,0,0,1.491,0h.123a.3.3,0,0,0,.2.211.281.281,0,0,0,.092.016.3.3,0,0,0,.289-.209l0-.018h.386a.21.21,0,0,0,.006.1.2.2,0,0,0,.179.121.177.177,0,0,0,.07-.014.19.19,0,0,0,.11-.245.188.188,0,0,0-.076-.086.471.471,0,0,0,.15-.18.488.488,0,0,0-.058-.515.3.3,0,0,0,.215-.2.306.306,0,0,0-.138-.359l.239-1.185a.346.346,0,0,0,.048-.029.423.423,0,0,0,.092-.588l-.013-.012.068-.341a.479.479,0,0,0,.089-.127.51.51,0,0,0,.018-.4l.066-.332a.561.561,0,0,0,.281-.712.536.536,0,0,0-.1-.168l.161-.8a1.605,1.605,0,0,0,.268-.889,1.664,1.664,0,0,0-.027-.293l.1-.519a.2.2,0,0,0,.174-.172.2.2,0,0,0-.04-.153.258.258,0,0,0-.058-.052l.066-.333s.006-.006.007-.01a.56.56,0,0,0,.054-.288l.059-.29a.2.2,0,0,0,.147-.327.2.2,0,0,0-.07-.058l.024-.12a.7.7,0,0,0,.2-.98l.018-.09a.3.3,0,0,0,.087-.43l.112-.562a1.223,1.223,0,0,0,.3-.8,1.24,1.24,0,0,0-.061-.381l.111-.547a.656.656,0,0,0,.262-.867.849.849,0,0,0-.067-.1l.026-.125a.416.416,0,0,0,.146-.725l.054-.264a.434.434,0,0,0,.144-.719l.1-.513a.51.51,0,0,0,.278-.455.52.52,0,0,0-.12-.328l.009-.049a.179.179,0,1,0,.077-.341.983.983,0,0,0,.237-1.216l.036-.178a.181.181,0,0,0,.058.011.179.179,0,0,0,.012-.357l.131-.646a.25.25,0,0,0,.086-.436l.037-.177a.141.141,0,0,0,.038.01.193.193,0,0,0,.19-.194.187.187,0,0,0-.155-.183l.009-.041a.4.4,0,0,0,.116-.576l.033-.163a.6.6,0,0,0,.181-.9l.02-.1a.34.34,0,0,0,.2-.54.312.312,0,0,0-.071-.068.478.478,0,0,0,.146-.761l.013-.065a.244.244,0,0,0,.043.005.2.2,0,0,0,.182-.114.188.188,0,0,0,.009-.152.2.2,0,0,0-.1-.115.265.265,0,0,0-.052-.012l.018-.1a1.218,1.218,0,0,0,.258-1.274l.022-.109a.333.333,0,0,0,.153-.584.526.526,0,0,0,.236-.292.537.537,0,0,0-.031-.406A.555.555,0,0,0,988.047,1454.5Zm-1.216-.019a.078.078,0,0,1,.072-.047.057.057,0,0,1,.035.01.071.071,0,0,1,.043.049h-.037c-.005-.01-.01-.018-.018-.022a.051.051,0,0,0-.063.022h-.034Zm-7.571,9.96,0-.012,0,.024Zm-.392,2.847a.094.094,0,0,1,.01-.03c0,.022-.005.045-.006.065A.054.054,0,0,1,978.868,1467.285Zm-9.669-12.807a.072.072,0,0,1,.056-.027.059.059,0,0,1,.04.013.055.055,0,0,1,.02.026h-.007a.044.044,0,0,0-.017-.022.061.061,0,0,0-.086.014l0,.008H969.2l-.007.043A.066.066,0,0,1,969.2,1454.477Zm-2.37,14.756a.059.059,0,0,1,.016-.031v.01l-.007.022a.054.054,0,0,0,0,.029v.014A.074.074,0,0,1,966.829,1469.233Zm-9.659-12.559a.065.065,0,0,1,.041-.062l0,0a.065.065,0,0,0-.036.058.061.061,0,0,0,.061.061h0l0,.005,0,0A.067.067,0,0,1,957.17,1456.674Zm.515,2.244a.066.066,0,0,1,.029-.055v.008a.058.058,0,0,0-.023.047.061.061,0,0,0,.045.057v.008A.068.068,0,0,1,957.685,1458.918Zm.413,1.888a.066.066,0,0,1,.037-.057v.006a.064.064,0,0,0-.03.051.061.061,0,0,0,.055.06v.006A.068.068,0,0,1,958.1,1460.806Zm.484,2.157a.068.068,0,0,1,.032-.054v.007a.061.061,0,0,0-.025.047.059.059,0,0,0,.051.06l0,.008A.067.067,0,0,1,958.582,1462.963Zm1.346,5.959a.068.068,0,0,1,.017-.043l0,.01a.055.055,0,0,0-.013.033.06.06,0,0,0,.031.051v.01A.067.067,0,0,1,959.928,1468.922Zm.984,4.327a.07.07,0,0,1-.045-.027.067.067,0,0,1-.012-.051.063.063,0,0,1,.036-.049l0,0a.075.075,0,0,0-.032.045.059.059,0,0,0,.054.068h0v.006Zm1.352,6.243a.069.069,0,0,1,.032-.057v.008a.059.059,0,0,0-.025.049.064.064,0,0,0,.05.06l0,.006A.069.069,0,0,1,962.265,1479.492Zm7.855,2.811h0a.06.06,0,0,1-.046-.027.063.063,0,0,1-.012-.049.056.056,0,0,1,.011-.03h.01a.061.061,0,0,0-.016.03.06.06,0,0,0,.054.069.062.062,0,0,0,.069-.053.061.061,0,0,0-.013-.045h.007a.075.075,0,0,1,.013.047A.069.069,0,0,1,970.12,1482.3Zm.8-4.99a.067.067,0,0,1-.058.066v-.008a.06.06,0,0,0,.016-.113l0-.006A.065.065,0,0,1,970.924,1477.313Zm1.508-11.622a.609.609,0,0,0-.12-.317l0,0c.01-.1.02-.207.029-.311a.821.821,0,0,0,.107-.084c.02.156.041.313.059.469A.615.615,0,0,0,972.432,1465.691Zm1.218,7.837a.063.063,0,0,1,.01-.033l.017.093A.081.081,0,0,1,973.65,1473.529Zm2.9,8.721a.072.072,0,0,1-.033.041.075.075,0,0,1-.093-.027.072.072,0,0,1,0-.065h.008a.063.063,0,0,0,0,.061.059.059,0,0,0,.083.025.06.06,0,0,0,.024-.084v0h.008A.081.081,0,0,1,976.548,1482.249Zm2.726-.033a.069.069,0,0,1-.137,0,.067.067,0,0,1,0-.018h.008a.041.041,0,0,0,0,.018.062.062,0,0,0,.123,0,.032.032,0,0,0,0-.018h.007A.067.067,0,0,1,979.274,1482.216Zm3.22.079a.071.071,0,0,1-.09-.039.072.072,0,0,1,.006-.058h.008a.059.059,0,0,0-.007.055.061.061,0,1,0,.114-.045.058.058,0,0,0-.056-.038v-.007a.069.069,0,0,1,.064.042A.071.071,0,0,1,982.494,1482.3Zm3.657-17.777a.082.082,0,0,1-.134.06l.01-.047a.045.045,0,0,0,.044.035.047.047,0,0,0,.049-.048.049.049,0,0,0-.049-.049.045.045,0,0,0-.035.015l.009-.041a.063.063,0,0,1,.026-.005A.082.082,0,0,1,986.151,1464.518Zm.251-1.822a.08.08,0,0,1,.079.082.079.079,0,0,1-.079.079.071.071,0,0,1-.038-.01l.006-.033a.051.051,0,0,0,.031.01.048.048,0,0,0,.048-.046.049.049,0,0,0-.048-.052c-.007,0-.01.006-.016.006l.009-.036Zm.374-1.539a.07.07,0,0,1-.069.069.024.024,0,0,1-.014,0v-.005l.013,0a.062.062,0,0,0,.061-.063.061.061,0,0,0-.051-.058v-.005A.066.066,0,0,1,986.776,1461.157Z" transform="translate(-956.618 -1454.04)" fill="#7c7c7c"/>
      <path id="Trazado_825" data-name="Trazado 825" d="M1018.728,1479.113a.3.3,0,0,0-.14-.256v-.058a.513.513,0,0,0,.137-.347.531.531,0,0,0-.134-.361v-.349a.245.245,0,0,0,.134-.216.249.249,0,0,0-.073-.18.207.207,0,0,0-.059-.045l0-.344a.365.365,0,0,0,.134-.279.378.378,0,0,0-.1-.26.16.16,0,0,1-.029-.024l0-.791-.359,0a.4.4,0,0,0-.195-.12.4.4,0,0,0-.387.118l-.556,0a1.451,1.451,0,0,0-.227-.076,1.791,1.791,0,0,0-.412-.055,1.7,1.7,0,0,0-.642.128h-.254a.179.179,0,0,0-.012-.037.185.185,0,0,0-.119-.087l-.046-.007a.19.19,0,0,0-.18.13h-.217a.469.469,0,0,0-.191-.106.476.476,0,0,0-.42.1l-.511,0a1.019,1.019,0,0,0-.239-.1,1.038,1.038,0,0,0-.219-.027.9.9,0,0,0-.437.114v-.15a.289.289,0,0,0,0-.481l0-.6a.384.384,0,0,0,.119-.191.378.378,0,0,0-.118-.374l0-.654a.874.874,0,0,0,.071-.183.921.921,0,0,0-.068-.633l0-.685a.44.44,0,0,0,.136-.223.445.445,0,0,0-.134-.439l0-.333a.19.19,0,0,0,.153-.139.2.2,0,0,0-.14-.235l-.012,0,0-.545a.408.408,0,0,0,.122-.158.4.4,0,0,0,0-.3.379.379,0,0,0-.117-.152l0-1.105a.282.282,0,0,0,0-.5l0-1.219a.71.71,0,0,0,.1-.17.636.636,0,0,0,0-.485.66.66,0,0,0-.1-.156l0-1.092a.534.534,0,0,0,.089-.138.489.489,0,0,0-.086-.5l.005-1.273a.309.309,0,0,0,0-.493l0-.394a.292.292,0,0,0,.107-.136.286.286,0,0,0,0-.229.312.312,0,0,0-.106-.131l0-.982a.311.311,0,0,0,.119-.145.316.316,0,0,0-.118-.38l.01-2.841a1.016,1.016,0,0,0,.1-.238.97.97,0,0,0-.1-.717v-.207a.313.313,0,0,0,.132-.147.306.306,0,0,0,0-.232.288.288,0,0,0-.127-.142v-.18a.194.194,0,0,0,.113-.109.19.19,0,0,0,0-.147.185.185,0,0,0-.1-.1h-.007v-.084h-.166a.241.241,0,0,0-.416,0l-.219,0a.58.58,0,0,0-.262-.145.565.565,0,0,0-.149-.018.6.6,0,0,0-.414.161l-.625,0a1.211,1.211,0,0,0-1.311,0h-.127a.192.192,0,0,0-.14-.153l-.046-.005a.193.193,0,0,0-.188.144v.012h-.059a.416.416,0,0,0-.169-.126.42.42,0,0,0-.156-.033.431.431,0,0,0-.3.118.342.342,0,0,0-.126-.1.307.307,0,0,0-.378.133h-.005a.677.677,0,0,0-.2-.124.749.749,0,0,0-.279-.056.757.757,0,0,0-.38.1.258.258,0,0,0-.124-.074.245.245,0,0,0-.217.052.352.352,0,0,0-.065-.038.313.313,0,0,0-.368.111.445.445,0,0,0-.214-.129.433.433,0,0,0-.522.31.425.425,0,0,0,.124.417l0,.974a.6.6,0,0,0-.166.224.567.567,0,0,0,0,.437.578.578,0,0,0,.161.215l0,.67a.181.181,0,0,0-.148.136.192.192,0,0,0,.14.235h.007l0,.629a.5.5,0,0,0-.093.142.465.465,0,0,0,.093.49l0,.936a.746.746,0,0,0-.081.138.665.665,0,0,0,.078.633v.2a.281.281,0,0,0-.1.151.275.275,0,0,0,.031.215.313.313,0,0,0,.072.08l0,.325a.214.214,0,0,0-.114.278.22.22,0,0,0,.114.115v.409a.373.373,0,0,0,0,.161l0,.442a.661.661,0,0,0-.114.176.576.576,0,0,0,.112.606v.285a.394.394,0,0,0-.126.467.391.391,0,0,0,.122.158l0,1.148a.734.734,0,0,0-.14.275.717.717,0,0,0,.079.547.6.6,0,0,0,.058.079l0,.44a.309.309,0,0,0-.14.153.322.322,0,0,0,0,.24.3.3,0,0,0,.138.15l0,.445a.267.267,0,0,0-.169.15.26.26,0,0,0,.142.338.051.051,0,0,0,.025.006v.092a.189.189,0,0,0-.148.114.191.191,0,0,0,.106.25.161.161,0,0,0,.04.008v.115a.286.286,0,0,0-.114.137.3.3,0,0,0,.113.364l0,.1a.394.394,0,0,0-.106.145.389.389,0,0,0,.1.441v.324a.737.737,0,0,0-.131.262.717.717,0,0,0,.078.539.847.847,0,0,0,.051.069v.125a.352.352,0,0,0-.108.177.379.379,0,0,0,.107.367l0,.554a.186.186,0,0,0,0,.348l-.006,1.047a.3.3,0,0,0-.129.177.308.308,0,0,0,.128.328v.4a.337.337,0,0,0-.114.175.329.329,0,0,0,.111.336v.336a.482.482,0,0,0-.124.218.5.5,0,0,0,.122.471l0,.739a.3.3,0,0,0-.128.175.3.3,0,0,0,.126.327v.45a.191.191,0,0,0-.133.137.2.2,0,0,0,.132.23v.1a.422.422,0,0,0-.12.2.435.435,0,0,0,.118.414v.025a.235.235,0,0,0-.123.152.225.225,0,0,0,.121.27v.15a.693.693,0,0,0,0,.311l0,.4a.3.3,0,0,0-.1.41.28.28,0,0,0,.1.1v.393a.2.2,0,0,0-.134.137.192.192,0,0,0,.141.232l.047.008a.192.192,0,0,0,.186-.148v0h.182a.546.546,0,0,0,.239.135.645.645,0,0,0,.136.017.56.56,0,0,0,.377-.148h.184a.424.424,0,0,0,.237.166.477.477,0,0,0,.1.012.418.418,0,0,0,.341-.176h.376a.359.359,0,0,0,.027.055.293.293,0,0,0,.184.138.278.278,0,0,0,.074.01.3.3,0,0,0,.281-.2h.353a1.019,1.019,0,0,0,.268.113.98.98,0,0,0,.741-.108l1.259,0a.2.2,0,0,0,.022.056.188.188,0,0,0,.115.088l.048.005a.191.191,0,0,0,.186-.142v0l.934,0a.223.223,0,0,0,.2.125h0a.228.228,0,0,0,.155-.061.2.2,0,0,0,.084.022h0a.2.2,0,0,0,.149-.07.864.864,0,0,0,.447.125l.008,0h0a.9.9,0,0,0,.484-.14l.5,0a.629.629,0,0,0,.4.158h0a.6.6,0,0,0,.409-.156l.362,0a.172.172,0,0,0,.169.135h0a.175.175,0,0,0,.171-.135h.292a.5.5,0,0,0,.343.14h0a.518.518,0,0,0,.348-.135h.233a.4.4,0,0,0,.307.156h0a.4.4,0,0,0,.273-.112.189.189,0,0,0,.174.115h0a.185.185,0,0,0,.155-.084.41.41,0,0,0,.236.082h0a.4.4,0,0,0,.288-.668.262.262,0,0,0,.114-.207.258.258,0,0,0-.114-.213v-.265a.778.778,0,0,0,.127-.412.763.763,0,0,0-.125-.427v-.079a.258.258,0,0,0,.134-.22.246.246,0,0,0-.133-.221v-.218A.3.3,0,0,0,1018.728,1479.113Zm-3.339-3.529h.017l.01.007h-.045C1015.378,1475.589,1015.383,1475.585,1015.389,1475.585Zm-2.362-5.133a.062.062,0,0,1-.034.041v0a.069.069,0,0,0,.028-.038.063.063,0,0,0-.027-.066v-.008A.067.067,0,0,1,1013.027,1470.452Zm.017-15.753v-.043A.089.089,0,0,1,1013.045,1454.7Zm-3.817-.3h-.009a.054.054,0,0,0-.035-.025h0l0-.008A.072.072,0,0,1,1009.228,1454.4Zm-.059-.035v.007a.058.058,0,0,0-.05.026h0A.069.069,0,0,1,1009.168,1454.369Zm-3.659,3.288a.047.047,0,0,1,.028-.038v.006a.058.058,0,0,0-.021.033.063.063,0,0,0,.021.065v.008A.069.069,0,0,1,1005.51,1457.657Zm-.044,11.514a.086.086,0,0,1,0-.053.078.078,0,0,1,.034-.033v.008a.058.058,0,0,0-.027.029.063.063,0,0,0,.026.075v.009A.078.078,0,0,1,1005.466,1469.171Zm0,9.628a.061.061,0,0,1-.007-.051c0-.008.008-.01.01-.016v.008l0,.01a.077.077,0,0,0,0,.045v.01Zm-.019,3.244a.178.178,0,0,1,.013-.018v.009l-.005.01a.065.065,0,0,0,0,.045v.011A.071.071,0,0,1,1005.446,1482.043Zm.013.058h.009a.061.061,0,0,0,.031.02h0l0,0A.054.054,0,0,1,1005.459,1482.1Zm.054.026,0-.006a.059.059,0,0,0,.044-.02h.006A.064.064,0,0,1,1005.513,1482.127Zm5.683-.006h.01a.067.067,0,0,0,.026.013v.007A.071.071,0,0,1,1011.2,1482.121Zm.052.023v-.01a.058.058,0,0,0,.041-.013h.007A.066.066,0,0,1,1011.248,1482.144Zm2.166-.007Zm1.394.023Zm1-.011a.09.09,0,0,1-.058.024.087.087,0,0,1-.057-.024l-.009-.014h.053c.005,0,.008,0,.012,0s.008,0,.013,0h.055C1015.812,1482.138,1015.811,1482.144,1015.808,1482.148Zm.753,0Zm.891.018h0v0Zm.45.013a.071.071,0,0,1-.058-.034h.009a.057.057,0,0,0,.049.026.059.059,0,0,0,.05-.025h.009A.07.07,0,0,1,1017.9,1482.175Zm.393-.01h0v0Z" transform="translate(-962.801 -1454.027)" fill="#7c7c7c"/>
      <path id="Trazado_826" data-name="Trazado 826" d="M1001.783,1475.56a.237.237,0,0,0-.13-.306l-.044-.013v-.058a.373.373,0,0,0,.156-.469.386.386,0,0,0-.154-.178l0-.656a.469.469,0,0,0,.109-.159.445.445,0,0,0,0-.34.423.423,0,0,0-.1-.148l0-1.082a.459.459,0,0,0,.115-.512.448.448,0,0,0-.114-.16l.006-1.672a.654.654,0,0,0,.1-.168.724.724,0,0,0-.1-.709v-.2a.154.154,0,0,0,.035-.029.189.189,0,0,0,.042-.142.207.207,0,0,0-.075-.129v-.231a.464.464,0,0,0,.128-.171.417.417,0,0,0,0-.321.4.4,0,0,0-.123-.161l0-1.051a.558.558,0,0,0,.107-.215.6.6,0,0,0-.067-.464.318.318,0,0,0-.037-.049l0-.347a.38.38,0,0,0,0-.535l0-.554a.493.493,0,0,0,.128-.221.473.473,0,0,0-.051-.357.452.452,0,0,0-.077-.092l0-.8a.547.547,0,0,0,0-.557l0-.675a1.013,1.013,0,0,0,.156-.671,1.036,1.036,0,0,0-.152-.423v-.3a.389.389,0,0,0,.1-.186.4.4,0,0,0-.1-.391l0-.265a.126.126,0,0,0,.024-.022.458.458,0,0,0-.022-.609v-.094a.19.19,0,0,0,.124-.2.187.187,0,0,0-.121-.156v-.162a.312.312,0,0,0,0-.537v-.07a.293.293,0,0,0,.086-.09.282.282,0,0,0,.031-.216.269.269,0,0,0-.115-.157v-.41a.71.71,0,0,0,.107-.582.674.674,0,0,0-.106-.225v-.046a.216.216,0,0,0,.1-.066.215.215,0,0,0-.1-.336v-.07c.01-.016.023-.03.03-.043a.7.7,0,0,0,.074-.54.664.664,0,0,0-.1-.224v-.161l-.153,0a.7.7,0,0,0-.43-.144.7.7,0,0,0-.429.142l-.235,0a.19.19,0,0,0-.185-.153h-.023a.2.2,0,0,0-.129.073.226.226,0,0,0-.033.08h-.1a.49.49,0,0,0-.4-.139.484.484,0,0,0-.282.136l-.154,0a.3.3,0,0,0-.3-.154.291.291,0,0,0-.223.147.213.213,0,0,0-.207-.17h-.027a.221.221,0,0,0-.143.082.2.2,0,0,0-.039.092h-.119a.516.516,0,0,0-.411-.137.491.491,0,0,0-.288.137l-.363,0a.713.713,0,0,0-.286-.147.783.783,0,0,0-.179-.024.74.74,0,0,0-.467.168h-.331a.165.165,0,0,0-.027-.027.5.5,0,0,0-.65.024h-.23a.233.233,0,0,0-.087-.094.262.262,0,0,0-.356.078l-.005.013h-.2v.036a.187.187,0,0,0,0,.347l0,.591a.3.3,0,0,0-.072.08.373.373,0,0,0,.07.484l0,1.257c-.017.022-.036.039-.051.06a.507.507,0,0,0,.05.6l0,.82a.467.467,0,0,0-.058.052.4.4,0,0,0,.049.565l.007.005,0,.248a.262.262,0,0,0-.139.262.25.25,0,0,0,.139.2l0,1.089a.594.594,0,0,0-.136.249.569.569,0,0,0,.134.526l0,1.049a.9.9,0,0,0-.124.283.936.936,0,0,0,.12.745l0,.624a.278.278,0,0,0-.1.127.3.3,0,0,0,.1.357v.3a.487.487,0,0,0-.071.158.523.523,0,0,0,.069.414l0,.646A.588.588,0,0,0,994,1467a.6.6,0,0,0,.143.309v.265a.214.214,0,0,0-.12.314.226.226,0,0,0,.12.093v.209a.377.377,0,0,0-.161.22.381.381,0,0,0,.159.409l0,.478a.5.5,0,0,0-.142.19.478.478,0,0,0,.141.549v.168a.226.226,0,0,0-.1.326.211.211,0,0,0,.093.084v.112a.464.464,0,0,0-.181.265.469.469,0,0,0,.179.495v.262a.544.544,0,0,0-.093.146.5.5,0,0,0,0,.385.531.531,0,0,0,.088.139v.339a.288.288,0,0,0-.12.166.3.3,0,0,0,.12.314l0,.455a.345.345,0,0,0-.113.139.353.353,0,0,0,0,.265.33.33,0,0,0,.107.139v.267a.905.905,0,0,0-.08.145.766.766,0,0,0,0,.6.7.7,0,0,0,.075.137v.137a.224.224,0,0,0,0,.413l0,.717a.311.311,0,0,0-.106.16.3.3,0,0,0,.1.3l0,.537a.515.515,0,0,0-.11.207.522.522,0,0,0,.108.461l-.009,2.687a.314.314,0,0,0-.167.205.32.32,0,0,0,.164.36v.494h.252a.051.051,0,0,0,.01.017.4.4,0,0,0,.313.147.408.408,0,0,0,.266-.1.448.448,0,0,0,.062-.067l.212,0a.32.32,0,0,0,.176.119.333.333,0,0,0,.077.01.327.327,0,0,0,.258-.129l.941,0a.4.4,0,0,0,.193.12.465.465,0,0,0,.093.01.37.37,0,0,0,.286-.129l.437,0a.637.637,0,0,0,.25.133.729.729,0,0,0,.15.019.613.613,0,0,0,.4-.152l.5,0a.164.164,0,0,0,.01.022.2.2,0,0,0,.147.068.182.182,0,0,0,.125-.046.162.162,0,0,0,.034-.042h.168a.218.218,0,0,1,.012.022.2.2,0,0,0,.146.068.193.193,0,0,0,.123-.044.2.2,0,0,0,.036-.043h.206a.383.383,0,0,0,.531.043c.015-.013.027-.028.04-.041h.4a.486.486,0,0,0,.815-.313.482.482,0,0,0-.113-.355.269.269,0,0,0-.066-.064l0-1.055a.21.21,0,0,0,.134-.148.206.206,0,0,0-.132-.252v-.452a.542.542,0,0,0,.155-.259.551.551,0,0,0-.059-.417.655.655,0,0,0-.093-.114l.006-1.8a.29.29,0,0,0,.134-.147.3.3,0,0,0,0-.232.278.278,0,0,0-.131-.144l0-.633A.236.236,0,0,0,1001.783,1475.56Zm-.118-17.071v0Zm-1.365-4.112h-.009a.059.059,0,0,0-.047-.022v-.008A.066.066,0,0,1,1000.3,1454.376Zm-.108,0a.071.071,0,0,1,.044-.025l0,.008a.056.056,0,0,0-.039.022h-.007Z" transform="translate(-961.354 -1454.025)" fill="#7c7c7c"/>
      <path id="Trazado_827" data-name="Trazado 827" d="M1041.433,1467.444a.256.256,0,0,0-.142-.333l0,0c-.006-.112-.01-.229-.018-.34a1.629,1.629,0,0,0,.111-.306,1.722,1.722,0,0,0-.317-1.49c-.042-.25-.087-.5-.138-.738a.781.781,0,0,0,.066-.162.665.665,0,0,0-.274-.712c-.041-.148-.084-.292-.126-.438a.4.4,0,0,0-.013-.513.377.377,0,0,0-.2-.115c-.046-.133-.1-.268-.146-.4a.586.586,0,0,0-.069-.515.576.576,0,0,0-.241-.2c-.038-.081-.075-.163-.114-.242a.592.592,0,0,0-.36-.689c-.057-.1-.119-.191-.177-.291a.612.612,0,0,0-.426-.649c-.019-.026-.037-.054-.058-.081a.662.662,0,0,0-.493-.711.689.689,0,0,0-.084-.015c-.072-.084-.141-.168-.216-.249l.01-.01a.222.222,0,0,0,0-.166.211.211,0,0,0-.118-.115.222.222,0,0,0-.166,0q-.134-.133-.272-.265c0-.008-.01-.016-.013-.024a2.279,2.279,0,0,0-1.289-1.021c-.167-.113-.336-.224-.51-.33a.3.3,0,0,0-.449-.253c-.031-.016-.058-.033-.09-.049a.391.391,0,0,0-.059-.112.464.464,0,0,0-.307-.185.459.459,0,0,0-.2.016c-.058-.028-.116-.053-.176-.078a.49.49,0,0,0-.47-.2c-.06-.024-.122-.043-.185-.067l-.015-.026a.707.707,0,0,0-.465-.279.677.677,0,0,0-.331.033l-.058-.017a.3.3,0,0,0-.515-.141c-.085-.023-.169-.045-.256-.066a.716.716,0,0,0-.3-.161.732.732,0,0,0-.175-.021.72.72,0,0,0-.226.035l-.327-.055a.447.447,0,0,0-.293-.171.44.44,0,0,0-.334.081c-.061-.007-.121-.011-.18-.019a1.368,1.368,0,0,0-.65-.169,1.49,1.49,0,0,0-.284.028c-.061.015-.12.032-.177.052l-.12-.008a.284.284,0,0,0-.031-.06.193.193,0,0,0-.125-.074l-.03,0a.191.191,0,0,0-.178.133c-.055,0-.112,0-.166-.006a.471.471,0,0,0-.257-.128.476.476,0,0,0-.389.122h-.051a.131.131,0,0,0-.012-.021.232.232,0,0,0-.16-.1.244.244,0,0,0-.244.115h-.151a.193.193,0,0,0-.148-.123h-.028a.189.189,0,0,0-.176.124h-.014v0a.315.315,0,0,0-.2-.121.307.307,0,0,0-.287.121l-.207,0a.913.913,0,0,0-.923,0l-.275,0c-.005-.006-.007-.014-.013-.019a.239.239,0,0,0-.164-.1.261.261,0,0,0-.253.119l-.218,0a.6.6,0,0,0-.732,0l-1.348-.006v.256a.6.6,0,0,0,0,.709v.265l-.022.018a.422.422,0,0,0,.021.584v.242a.517.517,0,0,0-.172.268.509.509,0,0,0,.168.517v.215a.567.567,0,0,0-.14.762.552.552,0,0,0,.136.141v.038a.314.314,0,0,0-.175.2.305.305,0,0,0,.174.354v.044a1.531,1.531,0,0,0-.182,1.1,1.479,1.479,0,0,0,.176.46v.564a.564.564,0,0,0-.142.254.575.575,0,0,0,.138.531v.244a.258.258,0,0,0-.153.287.252.252,0,0,0,.152.18l0,.082a.71.71,0,0,0-.25.469.7.7,0,0,0,.247.619v.024a.3.3,0,0,0-.127.175.3.3,0,0,0,.127.322l0,.365a.768.768,0,0,0-.051.068,1.226,1.226,0,0,0,.046,1.416l0,.445a.642.642,0,0,0-.236.433.656.656,0,0,0,.141.484.749.749,0,0,0,.091.093v.117a.416.416,0,0,0-.158.141.407.407,0,0,0-.06.319.417.417,0,0,0,.216.284v.275a.44.44,0,0,0-.089.073.434.434,0,0,0,.087.648l0,.547a.541.541,0,0,0-.091.1.526.526,0,0,0-.074.387.5.5,0,0,0,.163.275v.071l-.015,0-.035,0a.182.182,0,0,0-.116.078.179.179,0,0,0-.024.135.175.175,0,0,0,.174.141h.016v.027a.966.966,0,0,0-.174.779.925.925,0,0,0,.169.374v.237l-.017,0a.178.178,0,0,0,.015.351l0,1.291a.188.188,0,0,0,0,.361l0,.875c-.012.016-.027.03-.039.047a.615.615,0,0,0-.086.463.6.6,0,0,0,.125.256l0,.229a.243.243,0,0,0-.044.041.338.338,0,0,0-.083.248.342.342,0,0,0,.126.242l0,.12a.441.441,0,0,0-.037.046.48.48,0,0,0,.037.574v.171a.191.191,0,0,0-.108.127.212.212,0,0,0,.023.155.2.2,0,0,0,.084.07v.313a1.223,1.223,0,0,0-.063.7,1.027,1.027,0,0,0,.059.2l0,.4a.322.322,0,0,0-.089.15.34.34,0,0,0,.038.256.321.321,0,0,0,.051.062l0,.153a.542.542,0,0,0-.092.244.526.526,0,0,0,.09.352l0,.982.446,0a.2.2,0,0,0,.02.052.184.184,0,0,0,.108.08l.043.005a.182.182,0,0,0,.176-.137h.282a.326.326,0,0,0,.187.132.5.5,0,0,0,.079.011.324.324,0,0,0,.229-.1.418.418,0,0,0,.155.082.358.358,0,0,0,.092.01.366.366,0,0,0,.291-.136h.034a.342.342,0,0,0,.2.144.361.361,0,0,0,.079.009.332.332,0,0,0,.282-.149l.7,0a2.138,2.138,0,0,0,.759.139,2.086,2.086,0,0,0,.457-.047,2.46,2.46,0,0,0,.3-.086l1.341,0a.54.54,0,0,0,.232.125.5.5,0,0,0,.134.018.555.555,0,0,0,.37-.143c.089,0,.179-.005.271-.005a.454.454,0,0,0,.182.1.555.555,0,0,0,.112.014.453.453,0,0,0,.325-.137c.036,0,.072,0,.107-.008a.288.288,0,0,0,.155.1.283.283,0,0,0,.071.008.3.3,0,0,0,.258-.142.258.258,0,0,0,.147.1.326.326,0,0,0,.064.006.258.258,0,0,0,.238-.15l.077-.008a.431.431,0,0,0,.093.049.468.468,0,0,0,.183.037.487.487,0,0,0,.319-.117.614.614,0,0,0,.082.029.908.908,0,0,0,.237.031.961.961,0,0,0,.715-.313c.238-.057.478-.121.716-.189a.4.4,0,0,0,.113.043.377.377,0,0,0,.116.016.469.469,0,0,0,.43-.275l.242-.09c.017.006.033.014.052.019a.351.351,0,0,0,.069.008.283.283,0,0,0,.262-.183c.119-.052.239-.106.357-.162a.185.185,0,0,0,.071.053.173.173,0,0,0,.071.013.193.193,0,0,0,.179-.119.181.181,0,0,0,.005-.109c.1-.053.2-.106.3-.164a.351.351,0,0,0,.06.008.522.522,0,0,0,.48-.322.074.074,0,0,1,0-.014c.137-.09.271-.183.406-.281a.372.372,0,0,0,.1.017.344.344,0,0,0,.346-.365c.088-.074.178-.149.264-.229l.019.008a.389.389,0,0,0,.069.009.281.281,0,0,0,.277-.216.273.273,0,0,0,0-.142,9.174,9.174,0,0,0,.634-.691,2.2,2.2,0,0,0,.589-.605,2.166,2.166,0,0,0,.282-.623c.137-.226.27-.466.395-.714a.464.464,0,0,0,.315-.67c.047-.112.1-.224.142-.34a.984.984,0,0,0,.51-.631.994.994,0,0,0-.066-.668c.029-.1.059-.207.088-.314a.457.457,0,0,0,.317-.277.459.459,0,0,0-.124-.527c.011-.047.02-.094.029-.141a.3.3,0,0,0,.177-.339.293.293,0,0,0-.083-.151c.066-.365.123-.745.169-1.136a.215.215,0,0,0,.178-.133.208.208,0,0,0,0-.163.2.2,0,0,0-.116-.115.014.014,0,0,0-.012,0c.011-.107.022-.215.031-.326a.293.293,0,0,0,.1-.355.289.289,0,0,0-.063-.094c0-.057.009-.118.012-.176a.522.522,0,0,0,.129-.251.5.5,0,0,0-.079-.385.107.107,0,0,0-.018-.021c0-.121.009-.243.012-.367a.713.713,0,0,0,0-.231c0-.128,0-.259.006-.392l0-.03a.3.3,0,0,0-.006-.5c0-.051,0-.1,0-.154A.252.252,0,0,0,1041.433,1467.444Zm-8.653,5.9a.063.063,0,0,1,.026-.031s-.005.012-.01.018a.036.036,0,0,0-.01.015l0,.008-.009.02A.068.068,0,0,1,1032.781,1473.342Zm-3.114-5,0,0a.064.064,0,0,1,0,.035Zm.007-1.955,0,0a.094.094,0,0,1,0,.038Zm.014-4.242s0,.005,0,.009a.081.081,0,0,1,0,.043Zm3.822,4.07.025-.019c0,.013,0,.026,0,.037a.058.058,0,0,0-.016.038.054.054,0,0,0,.023.036.307.307,0,0,1,.007.04.086.086,0,0,1-.062-.071A.084.084,0,0,1,1033.51,1466.217Zm-3.445,9.253a.485.485,0,0,0-.182-.135.455.455,0,0,0-.175-.035.424.424,0,0,0-.065.006l0-.158a.307.307,0,0,0,.13-.111.3.3,0,0,0,.042-.229.308.308,0,0,0-.171-.211v-.092a.3.3,0,0,0,.137-.429.294.294,0,0,0-.134-.12l0-.778a.459.459,0,0,0,.142-.308.443.443,0,0,0-.117-.334c-.008-.01-.016-.015-.023-.023v-.395c.016-.022.036-.041.051-.065a.55.55,0,0,0-.049-.681v-.254c.011-.016.025-.028.034-.043a.611.611,0,0,0,.082-.464.618.618,0,0,0-.114-.24v-.207a.227.227,0,0,0,.138-.259.214.214,0,0,0-.135-.158v-.078a1.239,1.239,0,0,0,.108-.829,1.267,1.267,0,0,0-.1-.289v-.008a.2.2,0,0,0,.1-.078.179.179,0,0,0,.025-.144.2.2,0,0,0-.072-.112.3.3,0,0,0,.07-.265.279.279,0,0,0-.12-.176v-.1a.405.405,0,0,0,.161-.41.4.4,0,0,0-.156-.237.215.215,0,0,0,.093-.081.231.231,0,0,0,.031-.172.225.225,0,0,0-.125-.156v-.028a.181.181,0,0,0,.1-.073.178.178,0,0,0,.023-.143.184.184,0,0,0-.12-.14v-.191a.44.44,0,0,0,.07-.08.388.388,0,0,0-.068-.5v-.235a.463.463,0,0,0,.054-.342.43.43,0,0,0-.053-.134v-.1a.192.192,0,0,0,.114-.213.194.194,0,0,0-.113-.135v-.058a.3.3,0,0,0,.123-.31.327.327,0,0,0-.12-.18v-.1a.4.4,0,0,0,.12-.377.391.391,0,0,0-.119-.207v-.1a.678.678,0,0,0,.059-.073.4.4,0,0,0-.057-.494v-.049a.191.191,0,0,0,.1-.076.188.188,0,0,0,.024-.144.2.2,0,0,0-.115-.137.3.3,0,0,0,.107-.3.284.284,0,0,0-.114-.175v-.031a.578.578,0,0,0,.2.033.672.672,0,0,0,.125-.011.6.6,0,0,0,.19-.078,3.2,3.2,0,0,1,.366.069.677.677,0,0,0,.039.057,1,1,0,0,0,.676.368.9.9,0,0,0,.108.008.877.877,0,0,0,.119-.013,2.4,2.4,0,0,1,.2.148.448.448,0,0,0,.337.437.623.623,0,0,0,.107.013l.016,0s.008.01.011.011c0,.018-.009.032-.011.047a.306.306,0,0,0,.255.346.361.361,0,0,0,.045,0l.008,0c.018.028.034.057.052.084,0,.018-.01.03-.011.047a.708.708,0,0,0,.134.539.682.682,0,0,0,.292.231c.011.028.023.055.032.08a.455.455,0,0,0,.026.455.45.45,0,0,0,.182.155c.043.141.08.283.115.43a1.627,1.627,0,0,0,.194,1.172.17.17,0,0,0-.056.043.18.18,0,0,0-.045.131.176.176,0,0,0,.17.164c.008.079.016.158.022.235a.3.3,0,0,0-.14.321.3.3,0,0,0,.184.217c0,.055.008.112.01.164a.222.222,0,0,0-.1.1.214.214,0,0,0,0,.166.325.325,0,0,0,.031.049l0,0a.368.368,0,0,0,0,.282.357.357,0,0,0,.1.133c0,.031,0,.061,0,.093a.293.293,0,0,0-.089.117.3.3,0,0,0,.043.3.564.564,0,0,0-.087.437.552.552,0,0,0,.12.246c0,.077-.008.156-.013.235a.438.438,0,0,0-.031.038.766.766,0,0,0-.112.58.731.731,0,0,0,.073.2c-.023.211-.053.423-.087.638-.021.024-.043.051-.062.077a.977.977,0,0,0-.131.738c.005.019.011.035.017.052-.042.166-.086.33-.137.492-.013.01-.024.017-.037.028a.745.745,0,0,0-.251.52.707.707,0,0,0,.018.194l-.037.08a.19.19,0,0,0-.155.324c-.011.021-.023.041-.033.062a.415.415,0,0,0-.224.228.406.406,0,0,0-.029.19c-.059.088-.124.172-.19.256a.362.362,0,0,0-.053.006.528.528,0,0,0-.327.221.5.5,0,0,0-.079.257,3.661,3.661,0,0,1-.416.3l-.013,0a1.182,1.182,0,0,0-.222.022,1.084,1.084,0,0,0-.577.332A3.1,3.1,0,0,1,1030.065,1475.47Zm-1.255-21,.012,0a.047.047,0,0,1,.027.013.029.029,0,0,1-.016,0l-.011,0a.05.05,0,0,0-.031,0h-.014A.069.069,0,0,1,1028.809,1454.474Zm-1.785,0h0Zm-4.862,16.548v.035l-.016,0v0h0v-.035A.036.036,0,0,1,1022.162,1471.019Zm-.094.094a.079.079,0,0,1,.012-.06.1.1,0,0,1,.05-.036l0,.036a.047.047,0,0,0-.035.057.045.045,0,0,0,.046.033v0h0v.037A.081.081,0,0,1,1022.068,1471.112Zm.092.03h0v.013Zm-.063,1.742a.078.078,0,0,1,.059-.091v.037a.047.047,0,0,0-.028.05.043.043,0,0,0,.028.031v.037A.082.082,0,0,1,1022.1,1472.883Zm.044,1.647a.062.062,0,0,1,.01-.051v.016a.063.063,0,0,0,0,.033l0,.008v.01C1022.146,1474.54,1022.14,1474.537,1022.14,1474.531Zm.536,7.636h.049l.008.007h0l-.006.031A.081.081,0,0,1,1022.676,1482.167Zm.069.039,0-.037a.049.049,0,0,0,.023,0h.044A.085.085,0,0,1,1022.745,1482.206Zm12.574-1.352a.066.066,0,0,1-.081.04l.009,0a.06.06,0,0,0,.063-.033l.009,0Z" transform="translate(-964.911 -1454.043)" fill="#7c7c7c"/>
      <path id="Trazado_828" data-name="Trazado 828" d="M1062.824,1454.955a.608.608,0,0,0-.177-.312v-.057h-.072a.6.6,0,0,0-.346-.114.787.787,0,0,0-.136.016.617.617,0,0,0-.216.093l-.335,0a.227.227,0,0,0-.4,0h-.126a1.239,1.239,0,0,0-.787-.09,1.109,1.109,0,0,0-.248.087h-.061a.192.192,0,0,0-.17-.108l-.042,0a.185.185,0,0,0-.111.07.3.3,0,0,0-.267-.068.309.309,0,0,0-.16.1h-.127a.4.4,0,0,0-.4-.141.4.4,0,0,0-.223.139h-.027a.222.222,0,0,0-.242-.106.215.215,0,0,0-.146.106h-.045a.185.185,0,0,0-.168-.107l-.043,0a.192.192,0,0,0-.127.1h-.224a.4.4,0,0,0-.358-.1.377.377,0,0,0-.186.1h-.3a.464.464,0,0,0-.3-.037.47.47,0,0,0-.093.033h-.142a.193.193,0,0,0-.167-.1l-.04.005a.176.176,0,0,0-.121.082l-.005.009h-.081a.312.312,0,0,0-.3-.1.28.28,0,0,0-.16.1h-.14a.4.4,0,0,0-.357-.1.387.387,0,0,0-.184.1h-.145a.394.394,0,0,0-.349-.093.389.389,0,0,0-.174.092h-.078a.19.19,0,0,0-.17-.112l-.044,0a.2.2,0,0,0-.13.106h-.016a.3.3,0,0,0-.292-.1.291.291,0,0,0-.161.1l-.871,0a1.976,1.976,0,0,0-1.424,0l-.658,0a.387.387,0,0,0-.492-.066.379.379,0,0,0-.1.522.5.5,0,0,0,.05.056l0,.7a2.037,2.037,0,0,0,0,1.42l0,.4a.386.386,0,0,0-.119.257.4.4,0,0,0,.1.285.121.121,0,0,0,.016.015l0,.462a.6.6,0,0,0-.209.586.612.612,0,0,0,.208.344l0,.58a.587.587,0,0,0-.081.2.6.6,0,0,0,.078.426v.643a.857.857,0,0,0,0,1.1l0,.483a.4.4,0,0,0-.174.416.39.39,0,0,0,.171.256v.145a.413.413,0,0,0,0,.618v.1a.294.294,0,0,0-.141.205.307.307,0,0,0,.14.311v.119a.209.209,0,0,0-.007.4.369.369,0,0,0,0,.5v.241a.624.624,0,0,0-.144.3.614.614,0,0,0,.141.5l0,.469a.841.841,0,0,0-.141.339.87.87,0,0,0,.138.639v.505a.616.616,0,0,0-.141.3.606.606,0,0,0,.14.5l0,.271a.409.409,0,0,0-.114.176.411.411,0,0,0,.112.43l0,.474a.383.383,0,0,0-.148.235.37.37,0,0,0,.146.357v.135a.3.3,0,0,0-.093.175.311.311,0,0,0,.092.281v.144a.4.4,0,0,0-.123.225.406.406,0,0,0,.12.362v.21a.191.191,0,0,0-.082.125.183.183,0,0,0,.031.144.165.165,0,0,0,.05.047v.051a2.085,2.085,0,0,0-.074.292,2.124,2.124,0,0,0,.07,1.021l0,.725a.375.375,0,0,0-.065.505.336.336,0,0,0,.063.069v.1a.188.188,0,0,0,0,.361l0,.317a.178.178,0,0,0-.119.136.193.193,0,0,0,.03.135.178.178,0,0,0,.089.061v.175a.562.562,0,0,0,0,.455l0,.791a.99.99,0,0,0,0,.91l0,.194a.3.3,0,0,0,0,.5v.141a.175.175,0,0,0-.1.073.185.185,0,0,0-.031.144.2.2,0,0,0,.126.142v.244a.619.619,0,0,0-.019.076.977.977,0,0,0,.017.424l0,.608h.495a.937.937,0,0,0,.285.1.975.975,0,0,0,.168.016.96.96,0,0,0,.452-.114l.561,0a.483.483,0,0,0,.35.15.4.4,0,0,0,.1-.01.479.479,0,0,0,.256-.139l1.038,0a2.187,2.187,0,0,0,.352.1,2.048,2.048,0,0,0,.349.031,2.088,2.088,0,0,0,.706-.123l.587,0a.444.444,0,0,0,.31.131.3.3,0,0,0,.087-.008.449.449,0,0,0,.226-.121l.4,0a.509.509,0,0,0,.376.172.637.637,0,0,0,.1-.01.5.5,0,0,0,.279-.16h.028v-.037a.5.5,0,0,0,.091-.4.473.473,0,0,0-.09-.2l0-.664a.191.191,0,0,0,.131-.215.187.187,0,0,0-.129-.142l0-.5a.631.631,0,0,0,.068-.086.56.56,0,0,0-.066-.711v-.15a.542.542,0,0,0,.084-.09.6.6,0,0,0-.079-.791v-.221a.653.653,0,0,0,.163-.33.64.64,0,0,0-.107-.488c-.017-.021-.035-.041-.054-.061v-.189a.461.461,0,0,0,.139-.257.468.468,0,0,0-.077-.352.709.709,0,0,0-.059-.066v-.074a.31.31,0,0,0,.17-.223.3.3,0,0,0-.051-.226.306.306,0,0,0-.118-.1l0-.532a1.136,1.136,0,0,0,.057-.2,1.081,1.081,0,0,0-.055-.558l0-.459a.259.259,0,0,0,.066-.142.294.294,0,0,0-.065-.242l0-.322a.459.459,0,0,0,.091-.2.419.419,0,0,0-.09-.336v-.347a.364.364,0,0,0,0-.567v-.084a.238.238,0,0,0,.032.012l.032,0a.2.2,0,0,0,.16-.086l.277,0a.642.642,0,0,0,.109.011.5.5,0,0,0,.11-.011l.744,0a.639.639,0,0,0,.154.065.631.631,0,0,0,.145.017.622.622,0,0,0,.3-.078h.6a.664.664,0,0,0,.4.136.68.68,0,0,0,.364-.106c.012-.009.024-.019.035-.029l.421,0a.383.383,0,0,0,.134.087.334.334,0,0,0,.148.03.393.393,0,0,0,.278-.117l.582,0a.181.181,0,0,0,.128.114l.046,0a.185.185,0,0,0,.184-.143.181.181,0,0,0-.02-.144v-.119a.5.5,0,0,0,.1-.164.566.566,0,0,0,0-.437.594.594,0,0,0-.1-.153l0-1.007a.967.967,0,0,0,0-.452l0-.713a.588.588,0,0,0,.1-.164.612.612,0,0,0-.1-.619l0-.41a.638.638,0,0,0,.1-.164.655.655,0,0,0-.094-.654l0-.6c0-.022,0-.045,0-.071v-.259a.282.282,0,0,0,.083-.375.289.289,0,0,0-.173-.127.283.283,0,0,0-.3.115h-.244a.215.215,0,0,0-.113-.112.22.22,0,0,0-.278.11h-.176a.421.421,0,0,0-.142-.1.4.4,0,0,0-.153-.03.414.414,0,0,0-.3.125l-.194,0a.477.477,0,0,0-.142-.1.422.422,0,0,0-.153-.03.41.41,0,0,0-.3.126h-.218a.461.461,0,0,0-.145-.093.455.455,0,0,0-.176-.036.465.465,0,0,0-.322.126l-.733,0a.632.632,0,0,0-.141-.085.548.548,0,0,0-.209-.041.56.56,0,0,0-.354.125l-.486,0v-.457a.382.382,0,0,0,.107-.143.4.4,0,0,0-.1-.445l0-.773a.77.77,0,0,0,.093-.153.575.575,0,0,0-.092-.58v-.332a.379.379,0,0,0,.106-.142.392.392,0,0,0,0-.3.386.386,0,0,0-.1-.141v-.024a.5.5,0,0,0,.1-.155.468.468,0,0,0,0-.359h.205a.371.371,0,0,0,.306.15.4.4,0,0,0,.31-.147h.158a.331.331,0,0,0,.074.043.291.291,0,0,0,.117.024.3.3,0,0,0,.189-.066l.155,0a.382.382,0,0,0,.147.109.39.39,0,0,0,.142.027.381.381,0,0,0,.293-.135h.152a.318.318,0,0,0,.152.135.348.348,0,0,0,.117.024.311.311,0,0,0,.267-.156h.2a.192.192,0,0,0,.1.093.2.2,0,0,0,.074.016.188.188,0,0,0,.171-.109l.005,0a.451.451,0,0,0,.123.079.382.382,0,0,0,.149.031.4.4,0,0,0,.266-.107l.558,0a.726.726,0,0,0,.283.145.683.683,0,0,0,.176.024.73.73,0,0,0,.46-.166l.283,0,0-1.359a.352.352,0,0,0,.06-.092.327.327,0,0,0,0-.24.282.282,0,0,0-.057-.086l0-.549a.253.253,0,0,0,0-.417v-.158a.188.188,0,0,0,0-.309v-.226a.287.287,0,0,0,.034-.057.3.3,0,0,0,0-.232.309.309,0,0,0-.031-.055v-.281a.3.3,0,0,0,.028-.047.4.4,0,0,0-.026-.345l0-.408a.43.43,0,0,0,.057-.068.4.4,0,0,0,.052-.3.391.391,0,0,0-.107-.192v-.176A.606.606,0,0,0,1062.824,1454.955Zm-13.486,21.584c0-.006.006-.01.01-.016v.01l0,.008a.089.089,0,0,0,0,.031v.015A.065.065,0,0,1,1049.337,1476.538Zm0,.723a.076.076,0,0,1-.014-.061.081.081,0,0,1,.021-.041v.11Zm-.009,3.469a.073.073,0,0,1,.005-.039v.049Zm7.511.059a.057.057,0,0,1-.009.043v-.015a.051.051,0,0,0,0-.028v-.011S1056.838,1480.786,1056.838,1480.789Z" transform="translate(-968.371 -1454.053)" fill="#7c7c7c"/>
      <path id="Trazado_829" data-name="Trazado 829" d="M1074.674,1480.332V1480a.311.311,0,0,0,0-.579v-.161a.177.177,0,0,0,.06-.076.189.189,0,0,0-.058-.221v-.221a.543.543,0,0,0,.091-.147.506.506,0,0,0,0-.394.5.5,0,0,0-.086-.136l0-.585a.562.562,0,0,0,.042-.082.568.568,0,0,0,0-.437c-.01-.024-.024-.047-.036-.071v-.277a.612.612,0,0,0,.1-.166.572.572,0,0,0,0-.439.529.529,0,0,0-.1-.15l0-.428a.538.538,0,0,0,.042-.082.571.571,0,0,0,0-.439.39.39,0,0,0-.038-.068l0-.584a.966.966,0,0,0,.155-.33.98.98,0,0,0-.1-.74c-.014-.024-.032-.041-.047-.062v-.19a.3.3,0,0,0,.163-.162.3.3,0,0,0-.161-.39v-.025a.4.4,0,0,0,.161-.229.394.394,0,0,0-.159-.423v-.4a.252.252,0,0,0,.057-.087.307.307,0,0,0,0-.235.383.383,0,0,0-.057-.086l0-.6a1.319,1.319,0,0,0,.08-.223,1.216,1.216,0,0,0-.077-.826l0-.748a.627.627,0,0,0,.035-.068.6.6,0,0,0-.033-.519v-.1a.721.721,0,0,0,.093-.213.707.707,0,0,0-.078-.539.123.123,0,0,0-.013-.017v-.188a.2.2,0,0,0,.024-.242c-.005-.01-.016-.016-.022-.026v-.111a.318.318,0,0,0,.087-.142.309.309,0,0,0-.034-.23.251.251,0,0,0-.051-.06V1466a.11.11,0,0,0,.073-.079.108.108,0,0,0-.079-.133.11.11,0,0,0-.133.079v.013l-.161.078a.236.236,0,0,0-.061-.021.379.379,0,0,0-.44.215c-.049.017-.1.033-.155.051a.408.408,0,0,0-.066-.024.46.46,0,0,0-.464.157.311.311,0,0,0-.038-.019l-.046-.006a.18.18,0,0,0-.123.047.234.234,0,0,0-.067-.034l-.045-.005a.191.191,0,0,0-.173.114l-.154.023a.594.594,0,0,0-.115-.046.586.586,0,0,0-.129-.016.528.528,0,0,0-.344.127.041.041,0,0,0-.018,0,.373.373,0,0,0-.172-.1.38.38,0,0,0-.383.128.6.6,0,0,0-.236-.121.652.652,0,0,0-.149-.019.6.6,0,0,0-.361.117.3.3,0,0,0-.127-.1.308.308,0,0,0-.35.1h-.041a.393.393,0,0,0-.177-.139.365.365,0,0,0-.154-.032.426.426,0,0,0-.272.1.175.175,0,0,0-.107-.075l-.046-.007a.182.182,0,0,0-.124.049.606.606,0,0,0-.355-.251.49.49,0,0,0-.15-.02.6.6,0,0,0-.332.1.429.429,0,0,0-.481-.139c-.021-.008-.047-.013-.067-.021a.269.269,0,0,0-.171-.125.276.276,0,0,0-.135,0l-.144-.067a.147.147,0,0,0-.113-.141l-.036,0a.156.156,0,0,0-.074.019h0v0a.162.162,0,0,0-.074.093.166.166,0,0,0,.017.117.062.062,0,0,0,.023.023.192.192,0,0,0-.042.245.094.094,0,0,0,.014.014.427.427,0,0,0-.053.121.459.459,0,0,0,.112.424v.144a.415.415,0,0,0-.053.092.425.425,0,0,0,0,.33.585.585,0,0,0,.049.086v.046a.431.431,0,0,0-.154.24.447.447,0,0,0,.152.458v.324a.2.2,0,0,0-.082.109.192.192,0,0,0,.079.2v.584a.376.376,0,0,0-.141.174.391.391,0,0,0,0,.3.38.38,0,0,0,.138.17l0,1.076a.291.291,0,0,0-.15.153.285.285,0,0,0,.148.367l0,1.187a.667.667,0,0,0-.125.191.63.63,0,0,0,0,.486.609.609,0,0,0,.119.18l0,1.047a.443.443,0,0,0-.108.16.483.483,0,0,0,.106.523l0,1.234a.308.308,0,0,0-.12.142.313.313,0,0,0,.117.381l0,.368a.3.3,0,0,0-.127.377.306.306,0,0,0,.127.141l0,.962a.31.31,0,0,0-.139.152.315.315,0,0,0,.136.391l-.005,1.9a.192.192,0,0,0-.155.141.18.18,0,0,0,.02.145.191.191,0,0,0,.117.087l.017,0,0,.514a1.024,1.024,0,0,0-.12.275.974.974,0,0,0,.117.748l0,.327.34,0a1.051,1.051,0,0,0,.245.1.994.994,0,0,0,.237.029.922.922,0,0,0,.481-.128l.335,0a.3.3,0,0,0,.135.106.326.326,0,0,0,.123.027.315.315,0,0,0,.256-.131h.041a.394.394,0,0,0,.286.132h0a.386.386,0,0,0,.283-.131h.148a.308.308,0,0,0,.231.112h0a.311.311,0,0,0,.216-.09l.015-.02.251,0a.191.191,0,0,0,.176.125h0a.191.191,0,0,0,.179-.125l.318,0a.506.506,0,0,0,.336.129h0a.522.522,0,0,0,.335-.127h.405a.753.753,0,0,0,.434.139h.007a.782.782,0,0,0,.431-.135h.239a.255.255,0,0,0,.217.127h0a.252.252,0,0,0,.207-.111.408.408,0,0,0,.272.111h0a.4.4,0,0,0,.28-.119l0,0h.02l0-.025a.4.4,0,0,0,.09-.251.39.39,0,0,0-.08-.235.2.2,0,0,0,.086-.156.193.193,0,0,0-.094-.16v-.039a.387.387,0,0,0,0-.5v-.2a.289.289,0,0,0,.145-.256.3.3,0,0,0-.142-.256v-.17a.973.973,0,0,0,.071-1.1C1074.722,1480.39,1074.7,1480.363,1074.674,1480.332Zm-7.538,1.338a.073.073,0,0,1,.037-.043v.006a.064.064,0,0,0-.031.039.059.059,0,0,0,.029.066v.01A.071.071,0,0,1,1067.136,1481.671Zm2.508,2.08Zm1.324.008c-.007,0-.012,0-.017,0h.035C1070.981,1483.754,1070.974,1483.758,1070.968,1483.758Zm2.011.008Z" transform="translate(-970.635 -1455.493)" fill="#7c7c7c"/>
      <path id="Trazado_830" data-name="Trazado 830" d="M1075.552,1458.135a.5.5,0,0,0-.256-.337c-.017-.1-.036-.2-.062-.3a.644.644,0,0,0-.271-.779,3.56,3.56,0,0,0-.193-.377v0a.2.2,0,0,0,.028-.155.2.2,0,0,0-.2-.162l-.031,0c-.051-.074-.1-.147-.161-.217a.446.446,0,0,0,0-.141.429.429,0,0,0-.429-.333c-.09-.086-.186-.168-.285-.248a.474.474,0,0,0-.143-.112c-.1-.074-.213-.149-.325-.215a.08.08,0,0,0,0-.025.187.187,0,0,0-.184-.146l-.04,0a.162.162,0,0,0-.042.019c-.034-.017-.067-.037-.1-.052,0-.011,0-.024,0-.036a.248.248,0,0,0-.293-.187.215.215,0,0,0-.1.052c-.048-.018-.094-.033-.141-.046a.208.208,0,0,0-.191-.137l-.045.006a.194.194,0,0,0-.079.039c-.087-.024-.175-.041-.264-.057a.428.428,0,0,0-.447-.186.419.419,0,0,0-.207.114c-.047,0-.1,0-.147,0s-.1,0-.153,0a.5.5,0,0,0-.335-.045.472.472,0,0,0-.188.09l-.042.005v0a.208.208,0,0,0-.2-.162l-.044.006a.2.2,0,0,0-.131.09.186.186,0,0,0-.03.082.346.346,0,0,0-.259-.053.333.333,0,0,0-.254.3l-.168.068a.409.409,0,0,0-.221-.011.418.418,0,0,0-.275.2.852.852,0,0,0-.333,0,.822.822,0,0,0-.52.364.812.812,0,0,0-.128.479.455.455,0,0,0-.1.005.328.328,0,0,0-.246.391.169.169,0,0,0,.012.031l-.061.084a.326.326,0,0,0-.218.354c-.037.064-.073.133-.106.2a.194.194,0,0,0-.062.134l-.018.037a.427.427,0,0,0-.262.49.5.5,0,0,0,.046.117c-.029.107-.054.219-.076.33a.647.647,0,0,0-.125.139.658.658,0,0,0,.043.769c0,.066,0,.132.007.2a.238.238,0,0,0-.073.068.2.2,0,0,0-.027.155.2.2,0,0,0,.138.15c.007.055.016.107.025.161v0a.425.425,0,0,0-.058.32.43.43,0,0,0,.21.281c.023.068.046.135.072.2a.322.322,0,0,1-.023.023.2.2,0,0,0-.028.154.213.213,0,0,0,.2.162c.025.053.052.106.079.155a.534.534,0,0,0,.01.154.507.507,0,0,0,.314.368,4.446,4.446,0,0,0,.415.49.335.335,0,0,0,.008.1.43.43,0,0,0,.475.328c.024.02.049.038.076.057a.144.144,0,0,0,0,.027.325.325,0,0,0,.318.254.285.285,0,0,0,.071-.008l.021-.007c.044.027.088.05.135.075a.829.829,0,0,0,.693.382.727.727,0,0,0,.183-.02l.021,0a.221.221,0,0,0,.035.01.325.325,0,0,0,.28.168.273.273,0,0,0,.072-.008.306.306,0,0,0,.128-.06c.106.017.213.03.32.037a.432.432,0,0,0,.325.153.546.546,0,0,0,.093-.01.417.417,0,0,0,.229-.141c.015,0,.027,0,.039,0a.315.315,0,0,0,.253.124.363.363,0,0,0,.069-.006.33.33,0,0,0,.206-.144c.01-.013.017-.033.025-.046l.008,0a.2.2,0,0,0,.142.06l.047,0a.21.21,0,0,0,.147-.141c.089-.024.176-.052.262-.084a1.282,1.282,0,0,0,.428-.021,1.307,1.307,0,0,0,.832-.582,1.032,1.032,0,0,0,.092-.174,4.368,4.368,0,0,0,.461-.445l.022,0a.246.246,0,0,0,.153-.107.239.239,0,0,0,.037-.146c.021-.03.044-.058.065-.088h.025a.209.209,0,0,0,.155-.248l0-.01.065-.106a.434.434,0,0,0,.068-.008.322.322,0,0,0,.192-.505,4.6,4.6,0,0,0,.19-.549.448.448,0,0,0,.145-.136.434.434,0,0,0,.056-.32.417.417,0,0,0-.077-.162,4.545,4.545,0,0,0,.037-.479A.507.507,0,0,0,1075.552,1458.135Zm-5.464-3.937-.008,0a.067.067,0,0,0-.064-.05v-.009A.075.075,0,0,1,1070.088,1454.2Zm-.135-.024a.094.094,0,0,1,.046-.031v.008a.066.066,0,0,0-.05.077l-.006,0A.088.088,0,0,1,1069.953,1454.174Z" transform="translate(-970.55 -1454)" fill="#7c7c7c"/>
    </g>
  </g>
</svg>
