<?xml version="1.0" encoding="utf-8"?>
<!-- Generator: Adobe Illustrator 22.1.0, SVG Export Plug-In . SVG Version: 6.00 Build 0)  -->
<svg version="1.1" xmlns="http://www.w3.org/2000/svg" xmlns:xlink="http://www.w3.org/1999/xlink" x="0px" y="0px"
	 viewBox="0 0 1198.8 426.6" style="enable-background:new 0 0 1198.8 426.6;" xml:space="preserve">
<style type="text/css">
	.st0{clip-path:url(#SVGID_2_);}
	.st1{fill:url(#SVGID_3_);}
	.st2{fill:#FFFFFF;}
	.st3{font-family:'Poppins-Regular';}
	.st4{font-size:10.6375px;}
	.st5{opacity:0.8;fill:#FFFFFF;}
	.st6{fill:#FFFFFF;stroke:#231F20;stroke-width:0;stroke-linecap:round;stroke-linejoin:round;}
	.st7{opacity:0.15;}
	.st8{fill:#23E584;}
	.st9{opacity:5.000000e-02;}
	.st10{opacity:2.000000e-02;}
	.st11{opacity:0.1;}
	.st12{opacity:0.25;}
	.st13{fill:#F4B244;}
	.st14{opacity:0.7;fill:#FFFFFF;}
	.st15{display:none;}
	.st16{display:inline;opacity:0.2;}
	.st17{fill:#FF00FF;}
</style>
<g id="Capa_1">
	
		<image style="display:none;overflow:visible;" width="1194" height="427" xlink:href="1.png"  transform="matrix(1 0 0 1 0.2247 -3)">
	</image>
	<g>
		<defs>
			<polygon id="SVGID_1_" points="77,279.6 102.5,235.3 77,191 25.8,191 0.2,235.3 25.8,279.6 			"/>
		</defs>
		<clipPath id="SVGID_2_">
			<use xlink:href="#SVGID_1_"  style="overflow:visible;"/>
		</clipPath>
		<g class="st0">
			<g>
				<linearGradient id="SVGID_3_" gradientUnits="userSpaceOnUse" x1="258.5934" y1="236.2339" x2="909.7382" y2="236.2339">
					<stop  offset="0" style="stop-color:#F4B244"/>
					<stop  offset="0.4869" style="stop-color:#7532FF"/>
					<stop  offset="1" style="stop-color:#37986B"/>
				</linearGradient>
				<path class="st1" d="M326.2,231.5c3.3,0,7.3-2.3,9-5.2l19.6-33.9c1.6-2.9,1.6-7.5,0-10.4l-19.6-33.9c-1.6-2.9-5.7-5.2-9-5.2
					h-39.1c-3.3,0-7.4,2.3-9,5.2l-19.6,33.9c-1.6,2.9-1.6,7.5,0,10.4l19.6,33.9c1.6,2.9,5.7,5.2,9,5.2H326.2z M250.6,196.4
					c-1.6-2.9-5.7-5.2-9-5.2h-39.1c-3.3,0-7.3,2.3-9,5.2l-19.6,33.9c-1.6,2.9-1.6,7.5,0,10.4l19.6,33.9c1.7,2.9,5.7,5.2,9,5.2h39.1
					c3.3,0,7.3-2.3,9-5.2l19.6-33.9c1.6-2.9,1.6-7.5,0-10.4L250.6,196.4z M362.1,274.6c1.7,2.9,5.7,5.2,9,5.2h39.1
					c3.3,0,7.4-2.3,9-5.2l19.6-33.9c1.6-2.9,1.6-7.5,0-10.4l-19.6-33.9c-1.6-2.9-5.7-5.2-9-5.2h-39.1c-3.3,0-7.3,2.3-9,5.2
					l-19.6,33.9c-1.6,2.9-1.6,7.5,0,10.4L362.1,274.6z M614.9,226.3c1.7,2.9,5.7,5.2,9,5.2H663c3.3,0,7.3-2.3,9-5.2l19.6-33.9
					c1.6-2.9,1.7-7.5,0-10.4L672,148.1c-1.6-2.9-5.7-5.2-9-5.2h-39.1c-3.3,0-7.3,2.3-9,5.2l-19.6,33.9c-1.7,2.9-1.7,7.5,0,10.4
					L614.9,226.3z M828.7,231.9c3.3,0,7.3-2.3,9-5.2l19.6-33.9c1.6-2.9,1.7-7.5,0-10.4l-19.6-33.9c-1.6-2.9-5.7-5.2-9-5.2h-39.1
					c-3.3,0-7.3,2.3-9,5.2l-19.6,33.9c-1.7,2.9-1.7,7.5,0,10.4l19.6,33.9c1.7,2.9,5.7,5.2,9,5.2H828.7z M579.4,279.8
					c3.3,0,7.4-2.3,9-5.2l19.6-33.9c1.6-2.9,1.6-7.5,0-10.4l-19.6-33.9c-1.6-2.9-5.7-5.2-9-5.2h-39.1c-3.3,0-7.3,2.3-9,5.2
					l-19.6,33.9c-1.6,2.9-1.6,7.5,0,10.4l19.6,33.9c1.7,2.9,5.7,5.2,9,5.2H579.4z M663,328.5c3.3,0,7.3-2.3,9-5.2l19.6-33.9
					c1.6-2.9,1.7-7.5,0-10.4L672,245.1c-1.6-2.9-5.7-5.2-9-5.2h-39.1c-3.3,0-7.3,2.3-9,5.2L595.3,279c-1.7,2.9-1.7,7.5,0,10.4
					l19.6,33.9c1.7,2.9,5.7,5.2,9,5.2H663z M912,184.6c3.3,0,7.3-2.3,9-5.2l19.6-33.9c1.7-2.9,1.7-7.5,0-10.4L921,101.2
					c-1.6-2.9-5.7-5.2-9-5.2h-39.1c-3.3,0-7.4,2.3-9,5.2l-19.6,33.9c-1.7,2.9-1.6,7.5,0,10.4l19.6,33.9c1.7,2.9,5.7,5.2,9,5.2H912z
					 M697.8,274.6c1.7,2.9,5.7,5.2,9,5.2h39.1c3.3,0,7.3-2.3,9-5.2l19.6-33.9c1.6-2.9,1.7-7.5,0-10.4l-19.6-33.9
					c-1.6-2.9-5.7-5.2-9-5.2h-39.1c-3.3,0-7.3,2.3-9,5.2l-19.6,33.9c-1.7,2.9-1.7,7.5,0,10.4L697.8,274.6z M438.8,337.4
					c1.6-2.9,1.6-7.5,0-10.4l-19.6-33.9c-1.6-2.9-5.7-5.2-9-5.2h-39.1c-3.3,0-7.3,2.3-9,5.2L342.5,327c-1.6,2.9-1.6,7.5,0,10.4
					l19.6,33.9c1.7,2.9,5.7,5.2,9,5.2h39.1c3.3,0,7.4-2.3,9-5.2L438.8,337.4z M505.2,245.1c-1.6-2.9-5.7-5.2-9-5.2H457
					c-3.3,0-7.4,2.3-9,5.2L428.5,279c-1.6,2.9-1.6,7.5,0,10.4l19.6,33.9c1.6,2.9,5.7,5.2,9,5.2h39.1c3.3,0,7.4-2.3,9-5.2l19.6-33.9
					c1.6-2.9,1.6-7.5,0-10.4L505.2,245.1z M789.5,239.4c-3.3,0-7.3,2.3-9,5.2l-19.6,33.9c-1.7,2.9-1.7,7.5,0,10.4l19.6,33.9
					c1.7,2.9,5.7,5.2,9,5.2h39.1c3.3,0,7.3-2.3,9-5.2l19.6-33.9c1.6-2.9,1.7-7.5,0-10.4l-19.6-33.9c-1.6-2.9-5.7-5.2-9-5.2H789.5z
					 M872.6,191.2c-3.3,0-7.4,2.3-9,5.2l-19.6,33.9c-1.7,2.9-1.6,7.5,0,10.4l19.6,33.9c1.7,2.9,5.7,5.2,9,5.2h39.1
					c3.3,0,7.3-2.3,9-5.2l19.6-33.9c1.7-2.9,1.7-7.5,0-10.4l-19.6-33.9c-1.6-2.9-5.7-5.2-9-5.2H872.6z M579.4,184.6
					c3.3,0,7.4-2.3,9-5.2l19.6-33.9c1.6-2.9,1.6-7.5,0-10.4l-19.6-33.9c-1.6-2.9-5.7-5.2-9-5.2h-39.1c-3.3,0-7.3,2.3-9,5.2
					l-19.6,33.9c-1.6,2.9-1.6,7.5,0,10.4l19.6,33.9c1.7,2.9,5.7,5.2,9,5.2H579.4z M496.2,231.5c3.3,0,7.4-2.3,9-5.2l19.6-33.9
					c1.6-2.9,1.6-7.5,0-10.4l-19.6-33.9c-1.6-2.9-5.7-5.2-9-5.2H457c-3.3,0-7.4,2.3-9,5.2l-19.6,33.9c-1.6,2.9-1.6,7.5,0,10.4
					l19.6,33.9c1.7,2.9,5.7,5.2,9,5.2H496.2z M287.4,240.1c-3.3,0-7.4,2.3-9,5.2l-19.6,33.9c-1.6,2.9-1.6,7.5,0,10.4l19.6,33.9
					c1.7,2.9,5.7,5.2,9,5.2h39.1c3.3,0,7.4-2.3,9-5.2l19.6-33.9c1.6-2.9,1.6-7.5,0-10.4l-19.6-33.9c-1.6-2.9-5.7-5.2-9-5.2H287.4z"
					/>
			</g>
			<path class="st2" d="M913.1,235c-0.3-1.5-1.1-2.7-2.5-3.4c-1.2-0.5-2.4-0.6-3.6-0.4c-2.3,0.5-3.8,2.4-3.8,4.7c0,0.8,0,1.6,0,2.4
				c0,0.7,0.1,1.5,0.2,2.2c0.2,1,0.6,1.8,1.4,2.5c0.9,0.8,1.9,1,3.1,1.1c0.8,0,1.5,0,2.3-0.1c0.8,0,1.6-0.1,2.4-0.1
				c0.2,0,0.3,0,0.5-0.1V241c-0.1,0-0.1,0-0.2,0c-1,0.1-1.9,0.2-2.9,0.2c-0.7,0-1.4,0.1-2.2,0.1c-0.7,0-1.1-0.3-1.4-1
				c-0.1-0.2-0.1-0.5-0.2-0.8c0-0.1,0-0.3-0.1-0.5h7.1c0-0.1,0-0.2,0-0.3c0-0.8,0-1.5,0-2.3C913.3,235.9,913.2,235.4,913.1,235z
				 M906.1,236.2c-0.1-0.3,0-0.6,0.1-0.8c0.2-0.8,0.9-1.3,1.7-1.3c0.3,0,0.7,0,1,0.1c0.8,0.2,1.2,0.6,1.3,1.4c0,0.2,0,0.4,0.1,0.7
				H906.1z M900.9,232.5c-1-1.1-2.2-1.5-3.7-1.3c-0.7,0.1-1.3,0.3-2,0.5c-0.4,0.1-0.7,0.3-1.1,0.4c-0.2-0.1-0.4-0.3-0.6-0.4
				c-0.8-0.5-1.7-0.8-2.7-0.6c-0.6,0.1-1.2,0.3-1.7,0.5c-0.1,0-0.2,0.1-0.3,0.1c0-0.2,0-0.3,0-0.4h-2.9v12.8h3v-9.2
				c0.8-0.3,1.6-0.7,2.4-0.8c0.5-0.1,0.8,0.1,1.1,0.6c0.2,0.3,0.2,0.7,0.2,1.1c0,2.7,0,5.4,0,8.1c0,0.1,0,0.2,0,0.3h2.9v-9.4
				c0.6-0.2,1.3-0.4,1.9-0.6c0.4-0.1,0.8,0,1.2,0.3c0.4,0.3,0.5,0.8,0.5,1.3c0,2.7,0,5.4,0,8.1c0,0.1,0,0.2,0,0.3h2.9
				c0-0.1,0-0.2,0-0.3c0-2.8,0-5.5,0-8.3C902.1,234.4,901.7,233.3,900.9,232.5z M873.9,230c0-0.1,0-0.1,0-0.2
				c-0.2-0.6-0.5-1.2-1-1.6c-1.1-1-2.4-1.4-3.8-1.4c-1.5,0-2.9,0-4.4,0c-0.4,0-0.9,0-1.3,0.1c-1,0.1-1.9,0.5-2.6,1.2
				c-1.2,1.3-1.6,2.9-1.4,4.6c0.2,1.7,1.1,2.8,2.5,3.6c0.9,0.5,1.8,0.8,2.8,1c0.5,0.1,1.1,0.2,1.6,0.5c0.4,0.2,0.7,0.6,0.8,1.1
				c0,0.3,0,0.6,0,0.9c-0.1,0.6-0.5,1.1-1.1,1.3c-0.3,0.1-0.6,0.2-0.9,0.2c-0.8,0-1.5,0-2.3,0c-0.9,0-1.9-0.1-2.8-0.2
				c-0.3,0-0.5,0-0.8,0v3c0.1,0,0.1,0,0.2,0c0.5,0,0.9,0.1,1.4,0.1c1,0,2,0.1,3,0.1c0.9,0,1.8,0,2.7-0.1c1.6-0.2,2.7-1.1,3.3-2.6
				c0.4-1.1,0.5-2.2,0.4-3.3c-0.2-1.4-0.8-2.4-2-3.1c-0.7-0.4-1.4-0.6-2.1-0.8c-0.8-0.2-1.6-0.4-2.3-0.8c-0.9-0.5-1.3-1.2-1.2-2.2
				c0.1-0.6,0.3-1.1,0.9-1.4c0.4-0.2,0.8-0.3,1.2-0.3c1.4,0,2.8,0,4.2,0c0.3,0,0.5,0,0.7,0c0.4,0.1,0.8,0.2,1.1,0.5
				c0.1,0.1,0.2,0.2,0.3,0.3c1-0.2,2-0.3,3-0.5C873.9,230,873.9,230,873.9,230z M925.1,231.3c-1.1,0-2.2,0-3.3,0
				c-0.2,0-0.3,0.1-0.3,0.2c-1,1.1-2,2.2-2.9,3.4c-0.3,0.3-0.5,0.6-0.8,0.9c-0.1,0-0.2,0-0.4,0v-9h-3v17.4h3v-5.4h0.3
				c1.3,1.8,2.6,3.6,3.8,5.4h3.6c-1.6-2.3-3.2-4.5-4.8-6.8c1.7-2,3.3-3.9,5-5.9C925.2,231.3,925.2,231.3,925.1,231.3z M884.8,231.3
				h-9.7v2.9h5.6c-0.1,0.1-0.1,0.2-0.1,0.2c-1.8,2.5-3.6,4.9-5.3,7.4c-0.1,0.1-0.1,0.2-0.1,0.3c0,0.6,0,1.2,0,1.9c0,0,0,0.1,0,0.1
				h9.7v-2.9h-5.5c0.1-0.1,0.1-0.1,0.1-0.2c1.7-2.4,3.5-4.9,5.2-7.3c0.1-0.1,0.1-0.3,0.1-0.4c0-0.6,0-1.1,0-1.7
				C884.8,231.5,884.8,231.4,884.8,231.3z M871,244.1h3v-12.8h-3V244.1z M925,226.7l-0.2,0.7l-0.2-0.7h-0.4v1.1h0.3V227l0.2,0.8h0.2
				l0.2-0.8v0.8h0.3v-1.1H925z M923.4,227.8h0.3V227h0.3v-0.3h-1v0.3h0.3V227.8z"/>
			<text transform="matrix(1 0 0 1 799.045 215.5713)" class="st2 st3 st4">Ads</text>
			<text transform="matrix(1 0 0 1 781.7012 303.8623)"><tspan x="0" y="0" class="st2 st3 st4">Instagram</tspan><tspan x="17.3" y="12.8" class="st2 st3 st4">Ads</tspan></text>
			<path class="st2" d="M830.8,171c-1.6,0.7-3.3,1.2-5.1,1.4c1.8-1.1,3.3-2.9,3.9-4.9c-1.7,1-3.6,1.8-5.7,2.2
				c-1.6-1.7-3.9-2.8-6.5-2.8c-4.9,0-8.9,4-8.9,8.9c0,0.7,0.1,1.4,0.2,2c-7.4-0.4-14-3.9-18.4-9.3c-0.8,1.3-1.2,2.9-1.2,4.5
				c0,3.1,1.6,5.8,4,7.4c-1.5,0-2.8-0.4-4-1.1c0,0,0,0.1,0,0.1c0,4.3,3.1,7.9,7.2,8.8c-0.7,0.2-1.5,0.3-2.4,0.3
				c-0.6,0-1.1-0.1-1.7-0.2c1.1,3.5,4.4,6.1,8.3,6.2c-3.1,2.4-6.9,3.8-11.1,3.8c-0.7,0-1.4,0-2.1-0.1c4,2.5,8.6,4,13.7,4
				c16.4,0,25.4-13.6,25.4-25.4c0-0.4,0-0.8,0-1.2C828.1,174.4,829.6,172.8,830.8,171L830.8,171z M830.8,171"/>
			<path class="st2" d="M498.4,173.8c-1.6,0.7-3.3,1.2-5.1,1.4c1.8-1.1,3.3-2.9,3.9-4.9c-1.7,1-3.6,1.8-5.7,2.2
				c-1.6-1.7-3.9-2.8-6.5-2.8c-4.9,0-8.9,4-8.9,8.9c0,0.7,0.1,1.4,0.2,2c-7.4-0.4-14-3.9-18.4-9.3c-0.8,1.3-1.2,2.9-1.2,4.5
				c0,3.1,1.6,5.8,4,7.4c-1.5,0-2.8-0.4-4-1.1c0,0,0,0.1,0,0.1c0,4.3,3.1,7.9,7.2,8.8c-0.7,0.2-1.5,0.3-2.4,0.3
				c-0.6,0-1.1-0.1-1.7-0.2c1.1,3.5,4.4,6.1,8.3,6.2c-3.1,2.4-6.9,3.8-11.1,3.8c-0.7,0-1.4,0-2.1-0.1c4,2.5,8.6,4,13.7,4
				c16.4,0,25.4-13.6,25.4-25.4c0-0.4,0-0.8,0-1.2C495.7,177.1,497.2,175.5,498.4,173.8L498.4,173.8z M498.4,173.8"/>
			<g>
				<polygon class="st2" points="809.6,285.8 802.8,285.8 798.6,272.1 805.4,272.1 809.6,285.8 				"/>
				<path class="st2" d="M803.3,273.1h-4.5c-2.8,0-5-2.3-5-5v-2.9c0-2.8,2.3-5,5-5h4.5V273.1L803.3,273.1z"/>
				<path class="st2" d="M820.9,253l-5.7,3.9c-3,2.1-6.5,3.2-10.1,3.2h-2v13h2c3.5,0,7,1.1,10.1,3.2l5.7,3.9V253L820.9,253z"/>
				<path class="st2" d="M823.4,281.5h-0.6c-0.6,0-1-0.4-1-1v-27.7c0-0.6,0.4-1,1-1h0.6c0.6,0,1,0.4,1,1v27.7
					C824.4,281.1,823.9,281.5,823.4,281.5L823.4,281.5z"/>
				<path class="st2" d="M794.6,264.5c0.2,0,0.4,1,0.4,2.1c0,1.2-0.2,2.1-0.4,2.1c-0.2,0-0.4-1-0.4-2.1
					C794.1,265.4,794.3,264.5,794.6,264.5L794.6,264.5z"/>
			</g>
			<text transform="matrix(1 0 0 1 700.4844 258.1201)"><tspan x="0" y="0" class="st2 st3 st4">Facebook</tspan><tspan x="15.6" y="12.8" class="st2 st3 st4">Ads</tspan></text>
			<text transform="matrix(1 0 0 1 624.3184 310.2441)" class="st2 st3 st4">Display</text>
			<text transform="matrix(1 0 0 1 366.4683 352.7939)" class="st2 st3 st4">Analytics</text>
			<g>
				<polygon class="st2" points="726.7,240 719.8,240 715.6,226.4 722.5,226.4 726.7,240 				"/>
				<path class="st2" d="M720.3,227.4h-4.5c-2.8,0-5-2.3-5-5v-2.9c0-2.8,2.3-5,5-5h4.5V227.4L720.3,227.4z"/>
				<path class="st2" d="M737.9,207.3l-5.7,3.9c-3,2.1-6.5,3.2-10.1,3.2h-2v13h2c3.5,0,7,1.1,10.1,3.2l5.7,3.9V207.3L737.9,207.3z"
					/>
				<path class="st2" d="M740.4,235.8h-0.6c-0.6,0-1-0.4-1-1V207c0-0.6,0.4-1,1-1h0.6c0.6,0,1,0.4,1,1v27.7
					C741.4,235.3,741,235.8,740.4,235.8L740.4,235.8z"/>
				<path class="st2" d="M711.6,218.7c0.2,0,0.4,1,0.4,2.1c0,1.2-0.2,2.1-0.4,2.1c-0.2,0-0.4-1-0.4-2.1
					C711.2,219.7,711.4,218.7,711.6,218.7L711.6,218.7z"/>
			</g>
			<text transform="matrix(1 0 0 1 539.9464 262.376)" class="st2 st3 st4">Search</text>
			<text transform="matrix(1 0 0 1 620.67 213.4434)" class="st2 st3 st4">YouTube</text>
			<path class="st2" d="M550.6,133.9h4V130c0-1.7,0-4.3,1.3-5.9c1.3-1.7,3.1-2.9,6.1-2.9c5,0,7.1,0.7,7.1,0.7l-1,5.8
				c0,0-1.6-0.5-3.2-0.5c-1.5,0-2.9,0.5-2.9,2.1v4.4h6.3l-0.4,5.7H562v19.8h-7.4v-19.8h-4V133.9z"/>
			<path class="st2" d="M470.3,284.2c0-3.5,2.8-6.3,6.3-6.3c3.5,0,6.3,2.8,6.3,6.3c0,3.5-2.8,6.3-6.3,6.3
				C473.1,290.5,470.3,287.7,470.3,284.2 M466.9,284.2c0,5.4,4.3,9.7,9.7,9.7c5.4,0,9.7-4.3,9.7-9.7c0-5.4-4.3-9.7-9.7-9.7
				C471.3,274.5,466.9,278.9,466.9,284.2 M484.4,274.2c0,1.2,1,2.3,2.3,2.3c1.2,0,2.3-1,2.3-2.3c0-1.3-1-2.3-2.3-2.3
				C485.4,271.9,484.4,272.9,484.4,274.2 M469,299.6c-1.8-0.1-2.8-0.4-3.5-0.6c-0.9-0.3-1.5-0.8-2.2-1.4c-0.7-0.7-1.1-1.3-1.4-2.2
				c-0.3-0.7-0.6-1.7-0.6-3.5c-0.1-2-0.1-2.6-0.1-7.6c0-5,0-5.6,0.1-7.6c0.1-1.8,0.4-2.8,0.6-3.5c0.3-0.9,0.8-1.5,1.4-2.2
				c0.7-0.7,1.3-1.1,2.2-1.4c0.7-0.3,1.7-0.6,3.5-0.7c2-0.1,2.6-0.1,7.6-0.1c5,0,5.6,0,7.6,0.1c1.8,0.1,2.8,0.4,3.5,0.7
				c0.9,0.3,1.5,0.8,2.2,1.4c0.7,0.7,1.1,1.3,1.4,2.2c0.3,0.7,0.6,1.7,0.7,3.5c0.1,2,0.1,2.6,0.1,7.6c0,5,0,5.6-0.1,7.6
				c-0.1,1.8-0.4,2.8-0.7,3.5c-0.3,0.9-0.8,1.5-1.4,2.2c-0.7,0.7-1.3,1.1-2.2,1.4c-0.7,0.3-1.7,0.6-3.5,0.6c-2,0.1-2.6,0.1-7.6,0.1
				C471.6,299.7,471,299.7,469,299.6 M468.8,265.5c-2,0.1-3.4,0.4-4.6,0.9c-1.2,0.5-2.3,1.1-3.3,2.2c-1.1,1.1-1.7,2.1-2.2,3.3
				c-0.5,1.2-0.8,2.6-0.9,4.6c-0.1,2-0.1,2.7-0.1,7.8c0,5.1,0,5.8,0.1,7.8c0.1,2,0.4,3.4,0.9,4.6c0.5,1.2,1.1,2.3,2.2,3.3
				c1,1,2.1,1.7,3.3,2.2c1.2,0.5,2.6,0.8,4.6,0.9c2,0.1,2.7,0.1,7.8,0.1c5.1,0,5.8,0,7.8-0.1c2-0.1,3.4-0.4,4.6-0.9
				c1.2-0.5,2.3-1.1,3.3-2.2c1.1-1.1,1.7-2.1,2.2-3.3c0.5-1.2,0.8-2.6,0.9-4.6c0.1-2,0.1-2.7,0.1-7.8c0-5.1,0-5.8-0.1-7.8
				c-0.1-2-0.4-3.4-0.9-4.6c-0.5-1.2-1.1-2.3-2.2-3.3c-1-1-2.1-1.7-3.3-2.2c-1.2-0.5-2.6-0.8-4.6-0.9c-2-0.1-2.7-0.1-7.8-0.1
				C471.5,265.4,470.8,265.4,468.8,265.5"/>
			<g>
				<path class="st2" d="M403.1,303.8h-5.9c-1.4,0-2.6,1.2-2.6,2.6v30.1h8.5c1.4,0,2.6-1.2,2.6-2.6v-27.5
					C405.7,304.9,404.6,303.8,403.1,303.8z"/>
				<path class="st5" d="M383.4,316.7v8.6h-7.7c-1.4,0-2.6,1.2-2.6,2.6v6c0,1.4,1.2,2.6,2.6,2.6h18.9v-22.4h-8.6
					C384.5,314.1,383.4,315.2,383.4,316.7z"/>
			</g>
			<path class="st2" d="M409.6,226c-0.4-1.7-1.8-3-3.4-3.4c-3-0.8-15.2-0.8-15.2-0.8s-12.2,0-15.2,0.8c-1.7,0.4-3,1.8-3.4,3.4
				c-0.8,3-0.8,9.4-0.8,9.4s0,6.3,0.8,9.4c0.4,1.7,1.8,3,3.4,3.4c3,0.8,15.2,0.8,15.2,0.8s12.2,0,15.2-0.8c1.7-0.4,3-1.8,3.4-3.4
				c0.8-3,0.8-9.4,0.8-9.4S410.4,229,409.6,226z M387,241.2v-11.7l10.1,5.8L387,241.2z"/>
			<g>
				<path class="st2" d="M900.5,131.2h7.7c0.3,0,0.7-0.2,0.7-0.6c0-0.2-0.1-0.4-0.2-0.6l-7.7-7.6c-0.2-0.3-0.6-0.3-0.9-0.1
					c-0.2,0.1-0.2,0.3-0.2,0.5v7.6C899.8,131,900.1,131.2,900.5,131.2"/>
				<path class="st2" d="M908.9,133.3h-10.3c-0.5,0-0.8-0.4-0.8-0.8v-10.2c0-0.5-0.4-0.8-0.8-0.8h-17.5c-0.5,0-0.8,0.4-0.8,0.8v15.2
					c0,0,0.1,0,0.1,0h20.2c2.1,0,3.9,1.7,3.9,3.9v10.4c0,2.1-1.7,3.9-3.9,3.9h-20.2c0,0-0.1,0-0.1,0v3.3c0,0.5,0.4,0.8,0.8,0.8h29.5
					c0.5,0,0.8-0.4,0.8-0.8v-24.8C909.8,133.7,909.4,133.3,908.9,133.3"/>
				<path class="st2" d="M877,146.6c0,0.4,0,0.7,0.1,1.1c0.1,0.4,0.3,0.7,0.5,0.9c0.2,0.3,0.5,0.5,0.8,0.7c0.3,0.2,0.7,0.2,1.1,0.2
					c0.3,0,0.5,0,0.8-0.1c0.3-0.1,0.5-0.1,0.8-0.2c0.3-0.1,0.5-0.2,0.8-0.3c0.2-0.1,0.5-0.2,0.7-0.3v2c-0.2,0.1-0.4,0.1-0.6,0.2
					c-0.2,0.1-0.4,0.1-0.7,0.2c-0.3,0.1-0.6,0.1-0.9,0.2c-0.3,0-0.7,0.1-1.2,0.1c-0.7,0-1.3-0.1-1.9-0.3c-0.6-0.2-1-0.5-1.4-0.9
					c-0.4-0.4-0.7-0.9-0.9-1.5c-0.2-0.6-0.3-1.2-0.3-1.9c0-0.7,0.1-1.3,0.3-1.9c0.2-0.6,0.5-1,0.9-1.4c0.4-0.4,0.9-0.7,1.4-0.9
					c0.6-0.2,1.2-0.3,1.9-0.3c0.5,0,0.9,0,1.2,0.1c0.3,0,0.6,0.1,0.9,0.2c0.3,0.1,0.5,0.1,0.7,0.2c0.2,0.1,0.4,0.1,0.6,0.2v2
					c-0.2-0.1-0.4-0.2-0.7-0.3c-0.2-0.1-0.5-0.2-0.8-0.3c-0.3-0.1-0.5-0.2-0.8-0.2c-0.3-0.1-0.5-0.1-0.8-0.1c-0.4,0-0.8,0.1-1.1,0.3
					c-0.3,0.2-0.6,0.4-0.8,0.7c-0.2,0.3-0.4,0.6-0.5,1C877,145.8,877,146.2,877,146.6"/>
				<path class="st2" d="M883.6,144.5c0-0.5,0.1-0.9,0.4-1.2c0.2-0.3,0.5-0.6,0.9-0.8c0.4-0.2,0.8-0.4,1.2-0.5
					c0.4-0.1,0.8-0.1,1.2-0.1c0.7,0,1.3,0,1.9,0.1c0.6,0.1,1,0.2,1.3,0.3v0.5c0,0.2,0,0.3,0,0.5c0,0.2,0,0.3,0,0.5
					c0,0.1,0,0.3,0,0.5c-0.1-0.1-0.3-0.2-0.6-0.3c-0.2-0.1-0.5-0.2-0.8-0.3c-0.3-0.1-0.5-0.1-0.8-0.2c-0.3,0-0.5-0.1-0.8-0.1
					c-0.1,0-0.3,0-0.5,0c-0.2,0-0.4,0-0.5,0.1c-0.2,0-0.3,0.1-0.4,0.2c-0.1,0.1-0.2,0.3-0.2,0.4c0,0.2,0.1,0.4,0.4,0.6
					c0.2,0.1,0.6,0.3,0.9,0.4c0.4,0.1,0.8,0.3,1.2,0.4c0.4,0.1,0.8,0.3,1.2,0.5c0.4,0.2,0.7,0.5,0.9,0.8c0.2,0.3,0.4,0.8,0.4,1.3
					c0,0.5-0.1,0.9-0.3,1.3c-0.2,0.4-0.5,0.6-0.8,0.9c-0.4,0.2-0.8,0.4-1.3,0.5c-0.5,0.1-1,0.2-1.6,0.2c-0.5,0-1,0-1.5-0.1
					c-0.4-0.1-0.8-0.1-1.2-0.2c-0.3-0.1-0.6-0.2-0.8-0.2c-0.2-0.1-0.3-0.1-0.3-0.1c0-0.1,0-0.2,0-0.3c0-0.1,0-0.2,0-0.3v-0.4
					c0-0.3,0-0.7,0-1.1c0.2,0.1,0.4,0.2,0.6,0.3c0.3,0.1,0.5,0.2,0.8,0.4c0.3,0.1,0.6,0.2,1,0.3c0.3,0.1,0.7,0.1,1,0.1
					c0.1,0,0.3,0,0.5,0c0.2,0,0.4,0,0.6-0.1c0.2-0.1,0.4-0.1,0.5-0.3c0.1-0.1,0.2-0.3,0.2-0.5c0-0.2-0.1-0.4-0.4-0.5
					c-0.2-0.1-0.6-0.3-0.9-0.4c-0.4-0.1-0.8-0.3-1.2-0.4c-0.4-0.1-0.8-0.3-1.2-0.6c-0.4-0.2-0.7-0.5-0.9-0.9
					C883.7,145.5,883.6,145,883.6,144.5"/>
				<polygon class="st2" points="896.5,151 893.9,151 891.1,142.1 893.5,142.1 895.2,148.7 895.3,148.7 897,142.1 899.4,142.1 				
					"/>
			</g>
			<g>
				<path class="st2" d="M331.3,193c-0.3-0.7-1-1.2-1.8-1.4c-0.3-1.3-0.7-1.9-0.7-2c0.1-0.2,0.3-0.3,0.3-0.4
					c1.2-1.4,0.4-3.6-1.6-4.1c-1.1-1.1-2.1-1.6-3-2c-0.8-0.4-0.5-0.2-1.2-0.6c-0.2-1-0.3-3.2-0.6-4.8c-0.3-1.4-0.9-2.5-1.7-3.2
					c-0.4-0.8-0.8-1.5-1.4-2.1c2.8-4.3,3.5-8.5,1.5-10.7c-0.9-1-2.3-1.4-3.9-1.4c-2.3,0-5.1,0.9-7.9,2.6c0,0-1.8-1.5-1.9-1.5
					c-7.8-6.2-30,21.1-22.2,27.1l2,1.5c-1.3,3.5,0.5,7.7,4.2,9.1c0.8,0.3,1.7,0.4,2.6,0.4c0,0,5.9,10.9,18.5,10.9
					c14.5,0,18.2-14.2,18.2-14.3C330.7,196.1,331.9,194.4,331.3,193z M285.8,186.7c-1.6-2.7,1.2-8.2,3.1-11.3
					c4.9-7.7,13-13.9,16.6-13l1-0.4c0,0,2.8,2.3,2.8,2.3c1.9-1.1,4.3-2.3,6.6-2.5c-1.4,0.3-3.1,1-5,2.2c0,0-4.7,3.2-7.5,6
					c-1.6,1.5-7.8,9-7.8,9c1.1-2.2,1.9-3.2,3.7-5.5c1-1.3,2.1-2.5,3.2-3.7c0.5-0.5,1-1,1.6-1.5c0.4-0.3,0.7-0.7,1.1-1
					c0.2-0.1,0.3-0.3,0.5-0.4c0,0,0,0,0,0l-3.6-3l0.2,1.4l2.7,2.3c0,0-2.3,1.6-3.5,2.6c-4.7,4-9.3,10.1-11,16.1l0.1,0
					c-0.9,0.5-1.7,1.2-2.4,2.2C287.9,188.6,286,187.2,285.8,186.7z M293.5,197.9c-2.8,0-5.1-2.4-5.1-5.3c0-3,2.3-5.3,5.1-5.3
					c0.7,0,1.4,0.2,2,0.5c0,0,1.1,0.5,1.4,3.1v0l0,0c0.3-0.8,0.5-1.5,0.5-1.5c0.4,1.1,0.5,2.3,0.5,3.4l0,0l0,0
					c0.3-0.4,0.6-1.2,0.6-1.2C299.1,194.9,296.7,197.9,293.5,197.9z M299.7,179L299.7,179c0,0,2.2-4.1,7-6.9
					c-0.4-0.1-1.2,0.1-1.4,0.1c0.9-0.7,2.5-1.2,3.6-1.5c-0.3-0.2-1.1-0.3-1.5-0.3c-0.1,0-0.1,0-0.2,0c1.1-0.6,3-0.9,4.8-0.6
					c-0.2-0.3-0.7-0.5-1.1-0.6c0,0-0.2,0-0.2,0s0.1,0,0.1,0c1.1-0.2,2.3,0,3.3,0.4c-0.1-0.3-0.4-0.6-0.6-0.8c0,0-0.1-0.1-0.1-0.1
					c1,0.2,2,0.7,2.8,1.2c-0.1-0.2-0.4-0.5-0.5-0.7c1,0.3,2.1,1,2.6,2h0c0,0,0,0.1,0,0.1c0,0,0,0,0,0c-1.9-1.4-7.3-1-12.8,2.5
					C303,175.4,301.2,177.2,299.7,179z M329.2,195.4c-0.1,0.1-0.8,3.9-4.7,6.9c-5,3.9-11.5,3.5-14,1.3c-1.3-1.2-1.9-3-1.9-3
					s-0.1,1-0.2,1.4c-1-1.7-0.9-3.8-0.9-3.8s-0.5,1-0.8,1.5c-0.7-1.9-0.4-3.8-0.4-3.8l-0.6,0.9c0,0-0.3-2.1,0.4-3.9
					c0.7-1.9,2.1-3.2,2.4-3.4c-1-0.3-2.3-1.3-2.3-1.3c0,0,0.5,0,0.8,0c0,0-2.1-1.5-2.5-3.8c0.3,0.4,1,0.8,1,0.8
					c-0.2-0.6-0.3-2-0.1-3.3l0,0c0.4-2.5,2.5-4.2,4.9-4.2c2.5,0,4.2,0.6,6.3-1.4c0.4-0.4,0.8-0.8,1.4-0.9c0.1,0,0.2-0.1,0.6-0.1
					c0.3,0,0.7,0.1,1,0.3c1.1,0.7,1.4,2.5,1.5,3.8c0.5,4.8,0.3,4,2.2,5c0.9,0.5,2,0.9,3.2,2.2c0,0,0,0,0,0s0,0,0,0
					c1,0,1.5,0.8,1.1,1.4c-3.4,4-8.1,6-13.4,6.1c-0.2,0-0.7,0-0.7,0c-2.1,0.1-2.8,2.8-1.5,4.5c0.8,1,2.5,1.4,3.8,1.4l0,0
					c5.8,0.1,11.5-4,12.5-6.2c0,0,0.1-0.2,0.1-0.2c-0.2,0.3-5.8,5.6-12.7,5.4c0,0-0.7,0-1.4-0.2c-0.9-0.2-1.6-0.6-1.9-1.5
					c0.6,0.1,1.3,0.2,2.1,0.2c4.9,0,8.5-2.2,8.1-2.3c0,0,0,0-0.1,0c-0.6,0.1-6.5,2.4-10.2,1.3c0-0.1,0-0.2,0.1-0.3
					c0.3-1.1,0.9-1,1.9-1l0,0c3.4-0.1,6.2-1,8.2-2c2.2-1,3.9-2.4,4.5-3.1c0.8,1.3,0.8,3,0.8,3s0.3-0.1,0.7-0.1
					C329.9,193.1,330.2,194.3,329.2,195.4z M312.5,197C312.5,197,312.5,197,312.5,197C312.5,197,312.5,197,312.5,197z M312.5,196.9
					C312.5,196.9,312.5,196.9,312.5,196.9c0-0.1,0-0.2,0-0.3C312.5,196.8,312.5,196.8,312.5,196.9
					C312.5,196.9,312.5,196.9,312.5,196.9z M312.5,197.1C312.5,197.1,312.5,197.1,312.5,197.1C312.5,197.1,312.5,197.1,312.5,197.1z
					 M312.5,197.1c0,0.2,0.1,0.3,0.1,0.3C312.6,197.3,312.5,197.2,312.5,197.1z"/>
				<polygon class="st2" points="305.4,164.2 306.1,164.4 305.5,162.4 305.2,163.4 				"/>
				<path class="st2" d="M308.4,164.9l-1.1-0.9l0.4,1.4C308,165.2,308.2,165.1,308.4,164.9z"/>
				<path class="st2" d="M312.5,196.9C312.5,196.9,312.5,196.9,312.5,196.9C312.5,196.9,312.5,196.9,312.5,196.9z"/>
				<path class="st2" d="M312.5,196.7c0,0.1,0,0.2,0,0.2C312.5,196.8,312.5,196.8,312.5,196.7z"/>
				<path class="st6" d="M312.5,197C312.5,197,312.5,197,312.5,197"/>
				<line class="st6" x1="312.5" y1="197.1" x2="312.5" y2="197.1"/>
				<path class="st2" d="M312.6,197.4c0,0,0-0.1-0.1-0.3C312.5,197.2,312.6,197.3,312.6,197.4z"/>
				<path class="st2" d="M318.6,182.9c0.6-0.1,1.1,0.1,1.6,0.3c0-1.4-0.8-2.9-1.4-2.7v0c0,0,0,0,0,0v0c-0.4,0.1-0.4,0.7-0.4,1.1
					C318.4,182.1,318.4,182.5,318.6,182.9z"/>
				<path class="st2" d="M307.3,165.7L305,165l1.5,1.3C306.7,166.1,307,165.9,307.3,165.7z"/>
				<path class="st2" d="M313.1,184.9c0.5,0.2,0.8,0.3,0.8,0.2c0,0,0-0.2-0.1-0.3c-0.3-0.4-0.8-0.8-1.3-0.9
					c-1.1-0.4-2.4-0.2-3.3,0.6c-0.5,0.4-0.7,0.8-0.5,0.8c0.1,0,0.4-0.1,0.8-0.2C311.1,184.4,312,184.4,313.1,184.9z"/>
				<path class="st2" d="M313.3,186.2c0.3,0,0.5,0,0.5,0c0.1-0.2-0.7-0.7-1.7-0.6c-0.1,0-0.2,0.1-0.4,0.1c0,0-0.1,0-0.1,0
					c-0.3,0.1-0.5,0.2-0.7,0.4c-0.2,0.2-0.3,0.5-0.2,0.5c0.1,0.1,0.2,0,0.5-0.1C312.1,186.2,312.7,186.2,313.3,186.2z"/>
				<polygon class="st2" points="290.3,192.9 290.3,192.9 290.3,192.9 				"/>
				<path class="st2" d="M295.3,190.8c0.3,0.4,0.2,0.6,0.3,0.7c0,0,0.1,0.1,0.2,0c0.2-0.1,0.2-0.3,0.2-0.5l0,0c0,0,0,0,0,0l0,0
					c0-0.4-0.2-0.9-0.5-1.2l0,0l0,0v0c-0.4-0.4-0.9-0.8-1.6-0.9c-0.6-0.1-1.2,0-1.4,0.1l0,0c-0.1,0-0.2,0-0.3,0.1
					c-1.6,0.6-2.3,2.2-2,3.8c0.1,0.4,0.3,0.8,0.5,1.1l0,0c0,0,0,0,0,0l0,0c0.3,0.4,0.7,0.3,0.5,0c0-0.1-0.2-0.5-0.3-1.1
					c0-0.7,0.1-1.4,0.6-2c0.3-0.4,0.7-0.6,0.8-0.6v0c0.1,0,0.1-0.1,0.2-0.1c0,0,0.1,0,0.1,0c0.2-0.1,0.1,0,0.3-0.1l0,0
					C294.1,189.8,294.9,190.2,295.3,190.8z"/>
				<path class="st2" d="M294.8,191.9c-0.1-0.1-0.2-0.2-0.2-0.3c0-0.2,0-0.3,0.2-0.4c0.1-0.1,0.2-0.1,0.2-0.2c0-0.1-0.4-0.2-0.8,0.1
					c-0.3,0.3-0.3,0.9,0.1,1.3c0.5,0.5,1.2,0.6,1.3,1.2c0,0.1,0,0.2,0,0.3c0,0.1,0,0.3,0,0.3c-0.1,0.6-0.7,1.2-1.7,1
					c-0.2,0-0.3,0-0.3,0c-0.1,0.1,0.3,0.6,1.1,0.6c1.1,0,1.9-1.1,1.7-2.3C296.2,192.4,295.2,192.2,294.8,191.9z"/>
				<path class="st2" d="M319.6,185c-0.1,0.4,0.1,0.8,0.4,0.8c0.3,0,0.6-0.2,0.6-0.6c0.1-0.4-0.1-0.8-0.4-0.8
					C320,184.3,319.7,184.6,319.6,185z"/>
				<path class="st2" d="M317.5,186.4c0.4,0.2,0.8,0.2,1-0.1c0.2-0.3,0-0.7-0.4-0.9c-0.4-0.2-0.8-0.2-1,0.1
					C316.9,185.8,317.1,186.2,317.5,186.4z"/>
				<polygon class="st2" points="324.9,206.9 325.1,206.9 325.1,207.5 325.3,207.5 325.3,206.9 325.6,206.9 325.6,206.7 
					324.9,206.7 				"/>
				<polygon class="st2" points="326.1,207.1 325.9,206.7 325.6,206.7 325.6,207.5 325.8,207.5 325.8,206.9 326,207.5 326.2,207.5 
					326.3,206.9 326.3,207.5 326.6,207.5 326.6,206.7 326.2,206.7 				"/>
			</g>
			<path class="st2" d="M323.2,281h-3v-3.3c0-9.9-14.5-14.1-18.7-1.5c-4.1-2.4-8.3,0-8,4.9c-10.5,0-8.7,12-1.3,12h30.7
				c7.9,0,7.9-12,0-12 M303.6,286l-0.5-1h-2.6l-0.5,1h-1.7l2.6-7h1.9l2.6,7H303.6z M312.4,282.5c-0.2,0.3-0.4,0.6-0.6,0.8
				c-0.3,0.2-0.6,0.3-0.9,0.4c-0.3,0.1-0.7,0.1-1.1,0.1c-0.1,0-0.2,0-0.4,0c-0.2,0-0.3,0-0.5,0.2h-0.4c-0.1-0.2-0.2-0.2-0.2-0.2v3.2
				h-2v-7.8c0.3-0.1,0.6-0.2,0.9-0.2c0.3,0,0.6-0.1,1-0.1c0.4,0,0.8-0.1,1.3-0.1c0.5,0,0.9,0.1,1.3,0.2c0.4,0.1,0.7,0.3,1,0.5
				c0.3,0.2,0.5,0.5,0.6,0.8c0.1,0.3,0.2,0.7,0.2,1C312.6,281.8,312.5,282.2,312.4,282.5 M315.2,287h-2v-8h2V287z"/>
			<g>
				<path class="st5" d="M209.1,244c-2.4-2.1-3.9-5.2-3.9-8.6c0-6.3,5.1-11.4,11.4-11.4s11.4,5.1,11.4,11.4c0,4.2-2.3,7.9-5.7,9.9
					c1.7,1,3.6,1.5,5.7,1.5c2.3,0,4.4-0.7,6.1-1.8c1.4-2.8,2.2-5.9,2.2-9.2c0-11.2-9-20.2-20.2-20.2c-11.2,0-20.2,9-20.2,20.2
					c0,11.2,9,20.2,20.2,20.2c2,0,3.9-0.3,5.7-0.8C216.2,253.5,211.5,249.3,209.1,244z"/>
				<path class="st2" d="M235.6,227.6c2.4,2.1,3.9,5.2,3.9,8.6c0,6.3-5.1,11.4-11.4,11.4c-6.3,0-11.4-5.1-11.4-11.4
					c0-4.2,2.3-7.9,5.7-9.9c-1.7-1-3.6-1.5-5.7-1.5c-2.3,0-4.4,0.7-6.1,1.8c-1.4,2.8-2.2,5.9-2.2,9.2c0,11.2,9,20.2,20.2,20.2
					c11.2,0,20.2-9,20.2-20.2c0-11.2-9-20.2-20.2-20.2c-2,0-3.9,0.3-5.7,0.8C228.5,218.1,233.2,222.2,235.6,227.6z"/>
			</g>
			<g class="st7">
				<path class="st8" d="M996,137.6c3.3,0,7.3-2.3,9-5.2l19.6-33.9c1.7-2.9,1.7-7.5,0-10.4L1005,54.2c-1.6-2.9-5.7-5.2-9-5.2h-39.1
					c-3.3,0-7.4,2.3-9,5.2l-19.6,33.9c-1.7,2.9-1.6,7.5,0,10.4l19.6,33.9c1.7,2.9,5.7,5.2,9,5.2H996z"/>
			</g>
			<g class="st9">
				<path class="st8" d="M914,88.6c2.2,0,4.9-1.6,6-3.5l21.6-37.4c1.1-1.9,1.1-5,0-6.9L920,3.5c-1.1-1.9-3.8-3.5-6-3.5h-43.1
					c-2.2,0-4.9,1.6-6,3.5l-21.6,37.4c-1.1,1.9-1.1,5,0,6.9l21.6,37.4c1.1,1.9,3.8,3.5,6,3.5H914z"/>
			</g>
			<g class="st10">
				<path class="st8" d="M1166,137.6c3.3,0,7.3-2.3,9-5.2l19.6-33.9c1.7-2.9,1.7-7.5,0-10.4L1175,54.2c-1.6-2.9-5.7-5.2-9-5.2h-39.1
					c-3.3,0-7.3,2.3-9,5.2l-19.6,33.9c-1.7,2.9-1.7,7.5,0,10.4l19.6,33.9c1.6,2.9,5.7,5.2,9,5.2H1166z"/>
			</g>
			<g class="st11">
				<path class="st8" d="M1080,184.6c3.3,0,7.3-2.3,9-5.2l19.6-33.9c1.7-2.9,1.7-7.5,0-10.4l-19.6-33.9c-1.6-2.9-5.7-5.2-9-5.2
					h-39.1c-3.3,0-7.3,2.3-9,5.2l-19.6,33.9c-1.7,2.9-1.6,7.5,0,10.4l19.6,33.9c1.6,2.9,5.7,5.2,9,5.2H1080z"/>
			</g>
			<g class="st12">
				<path class="st8" d="M996,233.6c3.3,0,7.3-2.3,9-5.2l19.6-33.9c1.7-2.9,1.7-7.5,0-10.4l-19.6-33.9c-1.6-2.9-5.7-5.2-9-5.2h-39.1
					c-3.3,0-7.4,2.3-9,5.2l-19.6,33.9c-1.7,2.9-1.6,7.5,0,10.4l19.6,33.9c1.7,2.9,5.7,5.2,9,5.2H996z"/>
			</g>
			<g class="st7">
				<path class="st13" d="M242,377.6c3.3,0,7.3-2.3,9-5.2l19.6-33.9c1.6-2.9,1.6-7.5,0-10.4L251,294.2c-1.6-2.9-5.7-5.2-9-5.2h-39.1
					c-3.3,0-7.3,2.3-9,5.2l-19.6,33.9c-1.6,2.9-1.6,7.5,0,10.4l19.6,33.9c1.7,2.9,5.7,5.2,9,5.2H242z"/>
			</g>
			<g class="st11">
				<path class="st13" d="M156,426.6c3.3,0,7.3-2.3,9-5.2l19.6-33.9c1.6-2.9,1.7-7.5,0-10.4L165,343.2c-1.6-2.9-5.7-5.2-9-5.2h-39.1
					c-3.3,0-7.4,2.3-9,5.2l-19.6,33.9c-1.6,2.9-1.6,7.5,0,10.4l19.6,33.9c1.7,2.9,5.7,5.2,9,5.2H156z"/>
			</g>
			<g class="st12">
				<path class="st13" d="M156,328.6c3.3,0,7.3-2.3,9-5.2l19.6-33.9c1.6-2.9,1.7-7.5,0-10.4L165,245.2c-1.6-2.9-5.7-5.2-9-5.2h-39.1
					c-3.3,0-7.4,2.3-9,5.2l-19.6,33.9c-1.6,2.9-1.6,7.5,0,10.4l19.6,33.9c1.7,2.9,5.7,5.2,9,5.2H156z"/>
			</g>
			<g class="st9">
				<path class="st13" d="M71,279.6c3.3,0,7.3-2.3,9-5.2l19.6-33.9c1.6-2.9,1.7-7.5,0-10.4L80,196.2c-1.6-2.9-5.7-5.2-9-5.2H31.8
					c-3.3,0-7.4,2.3-9,5.2L3.2,230.1c-1.6,2.9-1.6,7.5,0,10.4l19.6,33.9c1.7,2.9,5.7,5.2,9,5.2H71z"/>
			</g>
			<g class="st10">
				<path class="st13" d="M71,377.6c3.3,0,7.3-2.3,9-5.2l19.6-33.9c1.6-2.9,1.7-7.5,0-10.4L80,294.2c-1.6-2.9-5.7-5.2-9-5.2H31.8
					c-3.3,0-7.4,2.3-9,5.2L3.2,328.1c-1.6,2.9-1.6,7.5,0,10.4l19.6,33.9c1.7,2.9,5.7,5.2,9,5.2H71z"/>
			</g>
			<g>
				<path class="st14" d="M626.9,279.4l10.9-18.9l9.4,5.4l-10.9,18.9L626.9,279.4z"/>
				<path class="st2" d="M658.2,279.3l-10.9-18.9c-1.4-2.7-4.7-3.7-7.4-2.3c-2.7,1.4-3.7,4.7-2.3,7.4c0.1,0.1,0.1,0.2,0.2,0.3
					l10.9,18.9c1.5,2.6,4.8,3.6,7.4,2.1c2.6-1.5,3.6-4.8,2.1-7.4C658.3,279.4,658.2,279.3,658.2,279.3L658.2,279.3L658.2,279.3z"/>
				<path class="st2" d="M631.7,276.6c3,0,5.4,2.4,5.4,5.4c0,3-2.4,5.4-5.4,5.4c-3,0-5.4-2.4-5.4-5.4
					C626.2,279,628.7,276.6,631.7,276.6z"/>
			</g>
			<g>
				<path class="st14" d="M626.9,182.4l10.9-18.9l9.4,5.4l-10.9,18.9L626.9,182.4z"/>
				<path class="st2" d="M658.2,182.3l-10.9-18.9c-1.4-2.7-4.7-3.7-7.4-2.3c-2.7,1.4-3.7,4.7-2.3,7.4c0.1,0.1,0.1,0.2,0.2,0.3
					l10.9,18.9c1.5,2.6,4.8,3.6,7.4,2.1c2.6-1.5,3.6-4.8,2.1-7.4C658.3,182.4,658.2,182.3,658.2,182.3L658.2,182.3L658.2,182.3z"/>
				<path class="st2" d="M631.7,179.6c3,0,5.4,2.4,5.4,5.4c0,3-2.4,5.4-5.4,5.4c-3,0-5.4-2.4-5.4-5.4
					C626.2,182,628.7,179.6,631.7,179.6z"/>
			</g>
			<g>
				<path class="st14" d="M542.9,231.4l10.9-18.9l9.4,5.4l-10.9,18.9L542.9,231.4z"/>
				<path class="st2" d="M574.2,231.3l-10.9-18.9c-1.4-2.7-4.7-3.7-7.4-2.3c-2.7,1.4-3.7,4.7-2.3,7.4c0.1,0.1,0.1,0.2,0.2,0.3
					l10.9,18.9c1.5,2.6,4.8,3.6,7.4,2.1c2.6-1.5,3.6-4.8,2.1-7.4C574.3,231.4,574.2,231.3,574.2,231.3L574.2,231.3L574.2,231.3z"/>
				<path class="st2" d="M547.7,228.6c3,0,5.4,2.4,5.4,5.4c0,3-2.4,5.4-5.4,5.4c-3,0-5.4-2.4-5.4-5.4
					C542.2,231,544.7,228.6,547.7,228.6z"/>
			</g>
		</g>
	</g>
</g>
<g id="grid" class="st15">
	<g class="st16">
		<rect x="4449.2" y="2190" class="st17" width="92" height="6009"/>
		<rect x="4561.2" y="2190" class="st17" width="92" height="6009"/>
		<rect x="4673.2" y="2190" class="st17" width="92" height="6009"/>
		<rect x="4785.2" y="2190" class="st17" width="92" height="6009"/>
		<rect x="4897.2" y="2190" class="st17" width="92" height="6009"/>
		<rect x="5009.2" y="2190" class="st17" width="92" height="6009"/>
		<rect x="5121.2" y="2190" class="st17" width="92" height="6009"/>
		<rect x="5233.2" y="2190" class="st17" width="92" height="6009"/>
		<rect x="5345.2" y="2190" class="st17" width="92" height="6009"/>
		<rect x="5457.2" y="2190" class="st17" width="92" height="6009"/>
		<rect x="5569.2" y="2190" class="st17" width="92" height="6009"/>
		<rect x="5681.2" y="2190" class="st17" width="92" height="6009"/>
	</g>
</g>
</svg>
