<svg width="100" height="39" viewBox="0 0 100 39" fill="none" xmlns="http://www.w3.org/2000/svg">
<path d="M25.2891 15.5234C25.2891 17.2682 25.0352 18.9479 24.5273 20.5625C24.0195 22.1771 23.2122 23.6224 22.1055 24.8984C21.0117 26.1615 19.5794 27.1641 17.8086 27.9062C16.0508 28.6354 13.9154 29 11.4023 29H0.289062V27.2812L2.39844 27.125C2.6849 27.099 2.89974 26.9948 3.04297 26.8125C3.19922 26.6302 3.27734 26.4414 3.27734 26.2461V4.91797C3.27734 4.72266 3.19922 4.53385 3.04297 4.35156C2.89974 4.15625 2.6849 4.05208 2.39844 4.03906L0.289062 3.88281V2.16406H10.6016C13.401 2.16406 15.9076 2.63932 18.1211 3.58984C20.3346 4.52734 22.0794 5.97917 23.3555 7.94531C24.6445 9.91146 25.2891 12.4375 25.2891 15.5234ZM20.7578 15.6016C20.7578 12.8021 20.3281 10.5625 19.4688 8.88281C18.6224 7.1901 17.418 5.96615 15.8555 5.21094C14.306 4.45573 12.4766 4.07812 10.3672 4.07812H7.32031V27.0859L10.5625 27.0469C12.6198 27.0208 14.4102 26.6302 15.9336 25.875C17.457 25.1068 18.6419 23.8893 19.4883 22.2227C20.3346 20.556 20.7578 18.349 20.7578 15.6016ZM33.5625 3.12109C33.5625 3.79818 33.3281 4.38411 32.8594 4.87891C32.3906 5.36068 31.8177 5.60156 31.1406 5.60156C30.4635 5.60156 29.8776 5.36068 29.3828 4.87891C28.901 4.38411 28.6602 3.79818 28.6602 3.12109C28.6602 2.43099 28.901 1.85156 29.3828 1.38281C29.8776 0.914062 30.4635 0.679688 31.1406 0.679688C31.8177 0.679688 32.3906 0.914062 32.8594 1.38281C33.3281 1.85156 33.5625 2.43099 33.5625 3.12109ZM35.6133 29H26.2188V27.4375L28.1719 27.3203C28.7318 27.2812 29.0117 26.9883 29.0117 26.4414V12.1641H26.2578V10.7578L31.1406 9.23438H32.7227V26.4414C32.7227 26.6888 32.8008 26.8906 32.957 27.0469C33.1263 27.2031 33.3281 27.2943 33.5625 27.3203L35.6133 27.4375V29ZM53.2422 27.0078C52.1224 27.6979 50.9115 28.2839 49.6094 28.7656C48.3203 29.2474 46.9987 29.4883 45.6445 29.4883C44.0299 29.4883 42.513 29.1302 41.0938 28.4141C39.6875 27.6849 38.5482 26.5846 37.6758 25.1133C36.8034 23.6419 36.3672 21.793 36.3672 19.5664C36.3672 17.4831 36.7708 15.6667 37.5781 14.1172C38.3854 12.5677 39.4987 11.3698 40.918 10.5234C42.3372 9.66406 43.9518 9.23438 45.7617 9.23438C48.2487 9.23438 50.1172 10.0091 51.3672 11.5586C52.6172 13.0951 53.2422 15.0547 53.2422 17.4375C53.2422 17.5677 53.2422 17.7435 53.2422 17.9648C53.2422 18.1732 53.2292 18.3685 53.2031 18.5508H40.2344C40.2344 19.5664 40.3385 20.582 40.5469 21.5977C40.7682 22.6003 41.1328 23.5117 41.6406 24.332C42.1484 25.1523 42.832 25.8099 43.6914 26.3047C44.5508 26.7995 45.625 27.0469 46.9141 27.0469C48.0599 27.0469 49.1732 26.7865 50.2539 26.2656C51.3477 25.7318 52.3438 25.1654 53.2422 24.5664V27.0078ZM49.2383 16.7539V15.875C49.2383 14.5599 48.9193 13.4531 48.2812 12.5547C47.6562 11.6562 46.6797 11.207 45.3516 11.207C44.0365 11.207 42.9167 11.7018 41.9922 12.6914C41.0677 13.681 40.5534 15.0352 40.4492 16.7539H49.2383ZM72.9219 12.3984H68.9375C69.237 12.8802 69.4909 13.4076 69.6992 13.9805C69.9076 14.5534 70.0117 15.224 70.0117 15.9922C70.0117 17.3203 69.6471 18.4596 68.918 19.4102C68.1888 20.3477 67.2253 21.0703 66.0273 21.5781C64.8424 22.0859 63.5534 22.3398 62.1602 22.3398C62.0299 22.3398 61.8997 22.3398 61.7695 22.3398C61.6393 22.3398 61.5091 22.3333 61.3789 22.3203C61.2096 22.5938 61.0924 22.8867 61.0273 23.1992C60.9753 23.5117 60.9492 23.8047 60.9492 24.0781C60.9492 24.3255 60.9622 24.5339 60.9883 24.7031C61.0143 24.8724 61.0339 24.9701 61.0469 24.9961L61.6133 25.0547C62.5508 25.1458 63.599 25.276 64.7578 25.4453C65.9297 25.6146 67.056 25.888 68.1367 26.2656C69.2305 26.6432 70.1289 27.1771 70.832 27.8672C71.5352 28.5573 71.8867 29.4688 71.8867 30.6016C71.8867 31.8646 71.4245 33.069 70.5 34.2148C69.5755 35.3737 68.3255 36.3177 66.75 37.0469C65.1875 37.7891 63.4362 38.1602 61.4961 38.1602C59.1133 38.1602 57.2643 37.6133 55.9492 36.5195C54.6341 35.4388 53.9766 34.0911 53.9766 32.4766C53.9766 31.3177 54.3216 30.2826 55.0117 29.3711C55.7018 28.4727 56.7695 27.8932 58.2148 27.6328C58.0716 27.2161 57.9674 26.9167 57.9023 26.7344C57.8372 26.5521 57.8047 26.2396 57.8047 25.7969C57.8047 25.276 57.9609 24.7031 58.2734 24.0781C58.599 23.4401 59.1133 22.763 59.8164 22.0469C58.4883 21.7474 57.3294 21.0768 56.3398 20.0352C55.3503 18.9805 54.8555 17.6458 54.8555 16.0312C54.8555 13.9349 55.5911 12.2812 57.0625 11.0703C58.5469 9.84635 60.487 9.23438 62.8828 9.23438C63.8333 9.23438 64.7122 9.3776 65.5195 9.66406C66.3398 9.9375 67.0104 10.1979 67.5312 10.4453H72.9219V12.3984ZM66.2031 15.7578C66.2031 14.9115 66.0599 14.1172 65.7734 13.375C65.487 12.6328 65.0703 12.0339 64.5234 11.5781C63.9766 11.1094 63.2995 10.875 62.4922 10.875C61.3724 10.875 60.4544 11.3112 59.7383 12.1836C59.0352 13.043 58.6836 14.2474 58.6836 15.7969C58.6836 17.138 59.0026 18.2904 59.6406 19.2539C60.2786 20.2044 61.2292 20.6797 62.4922 20.6797C63.6901 20.6797 64.6081 20.1979 65.2461 19.2344C65.8841 18.2708 66.2031 17.112 66.2031 15.7578ZM68.4492 31.6758C68.4492 30.8424 68.1562 30.1979 67.5703 29.7422C66.9974 29.2865 66.2812 28.9479 65.4219 28.7266C64.5625 28.5052 63.6966 28.349 62.8242 28.2578C61.9518 28.1536 61.2161 28.043 60.6172 27.9258C59.4583 28.3424 58.6576 28.9089 58.2148 29.625C57.7852 30.3411 57.5703 31.0247 57.5703 31.6758C57.5703 32.3138 57.7526 32.9909 58.1172 33.707C58.4948 34.4362 59.0677 35.0547 59.8359 35.5625C60.6172 36.0703 61.6068 36.3242 62.8047 36.3242C64.0807 36.3242 65.1354 36.0703 65.9688 35.5625C66.8021 35.0547 67.4206 34.4362 67.8242 33.707C68.2409 32.9909 68.4492 32.3138 68.4492 31.6758ZM92.0156 19.3906C92.0156 21.2786 91.625 22.9909 90.8438 24.5273C90.0625 26.0508 88.9557 27.2617 87.5234 28.1602C86.1042 29.0456 84.418 29.4883 82.4648 29.4883C80.5247 29.4883 78.8451 29.0456 77.4258 28.1602C76.0065 27.2747 74.9128 26.0703 74.1445 24.5469C73.3763 23.0234 72.9922 21.3047 72.9922 19.3906C72.9922 17.4896 73.3763 15.7708 74.1445 14.2344C74.9258 12.6979 76.0326 11.4805 77.4648 10.582C78.9102 9.68359 80.6159 9.23438 82.582 9.23438C84.5742 9.23438 86.2734 9.6901 87.6797 10.6016C89.0859 11.513 90.1602 12.737 90.9023 14.2734C91.6445 15.8099 92.0156 17.5156 92.0156 19.3906ZM87.8555 19.3516C87.8555 17.8932 87.6602 16.5326 87.2695 15.2695C86.8919 14.0065 86.306 12.9844 85.5117 12.2031C84.7305 11.4219 83.7409 11.0312 82.543 11.0312C81.306 11.0312 80.2904 11.4219 79.4961 12.2031C78.7148 12.9844 78.1354 14.0065 77.7578 15.2695C77.3802 16.5326 77.1914 17.8932 77.1914 19.3516C77.1914 20.7969 77.3802 22.1576 77.7578 23.4336C78.1484 24.6966 78.7344 25.7188 79.5156 26.5C80.3099 27.2812 81.306 27.6719 82.5039 27.6719C83.7279 27.6719 84.7305 27.2812 85.5117 26.5C86.306 25.7188 86.8919 24.6966 87.2695 23.4336C87.6602 22.1706 87.8555 20.8099 87.8555 19.3516ZM99.8984 25.9141C99.8984 26.7734 99.599 27.5026 99 28.1016C98.4141 28.7005 97.6914 29 96.832 29C95.9596 29 95.224 28.7005 94.625 28.1016C94.0391 27.5026 93.7461 26.7734 93.7461 25.9141C93.7461 25.0547 94.0391 24.332 94.625 23.7461C95.224 23.1471 95.9596 22.8477 96.832 22.8477C97.6914 22.8477 98.4141 23.1471 99 23.7461C99.599 24.332 99.8984 25.0547 99.8984 25.9141Z" fill="#F5F5F5"/>
</svg>
