<svg width="22" height="22" viewBox="0 0 22 22" xmlns="http://www.w3.org/2000/svg" xmlns:xlink="http://www.w3.org/1999/xlink">
    <defs>
        <path id="9ojzfi2msa" d="M0 0h22v22H0z"/>
    </defs>
    <g fill="none" fill-rule="evenodd">
        <g>
            <mask id="hiott16azb" fill="#fff">
                <use xlink:href="#9ojzfi2msa"/>
            </mask>
            <path d="M6.785 1.58c-2.91 0-5.277 2.48-5.277 5.529v7.783c0 3.048 2.367 5.529 5.277 5.529h8.43c2.91 0 5.277-2.48 5.277-5.53V7.11c0-3.049-2.367-5.53-5.276-5.53h-8.43zM15.215 22h-8.43C3.044 22 0 18.812 0 14.892V7.109c0-3.92 3.044-7.11 6.785-7.11h8.43C18.957 0 22 3.19 22 7.11v7.783C22 18.812 18.956 22 15.216 22z" fill="#FFF" mask="url(#hiott16azb)"/>
        </g>
        <path d="M11 7.429A3.575 3.575 0 0 0 7.429 11 3.576 3.576 0 0 0 11 14.571 3.576 3.576 0 0 0 14.571 11 3.575 3.575 0 0 0 11 7.429M11 16c-2.757 0-5-2.243-5-5s2.243-5 5-5 5 2.243 5 5-2.243 5-5 5M16.5 7a1.5 1.5 0 1 1 0-3 1.5 1.5 0 0 1 0 3z" fill="#FFF"/>
    </g>
</svg>
