<svg width="43" height="45" viewBox="0 0 43 45" xmlns="http://www.w3.org/2000/svg">
    <g fill-rule="nonzero" fill="none">
        <path d="M21.064 43.583c-5.254-2.278-9.568-5.659-12.822-10.049-2.597-3.502-4.52-7.644-5.72-12.31C.491 13.318 1.238 6.708 1.271 6.43l.144-1.223 1.187.252c1.675.355 3.375.536 5.05.536 7.92 0 13.12-3.977 13.172-4.018l.676-.526.676.527c.012.008 1.332 1.02 3.615 2.016a24.11 24.11 0 0 0 9.557 2c1.676 0 3.375-.18 5.05-.535l1.187-.252.144 1.223c.033.278.78 6.888-1.251 14.794-1.199 4.666-3.123 8.808-5.72 12.31-3.254 4.39-7.568 7.771-12.822 10.049l-.436.189-.436-.19z" fill="#172B8C"/>
        <path d="M21.5 2.874s5.458 4.25 13.848 4.25c1.651 0 3.418-.165 5.277-.559 0 0 3.114 26.337-19.125 35.978C-.738 32.903 2.375 6.565 2.375 6.565c1.86.395 3.625.56 5.277.56 8.389 0 13.848-4.25 13.848-4.25M21.487 0 20.15 1.079c-.085.063-1.336.993-3.45 1.907a23.015 23.015 0 0 1-9.048 1.879c-1.6 0-3.222-.172-4.823-.512L.456 3.85l-.29 2.445c-.033.287-.804 7.104 1.28 15.214 1.236 4.81 3.223 9.084 5.908 12.705 3.372 4.55 7.838 8.051 13.273 10.408L21.5 45l.873-.378c5.435-2.357 9.9-5.858 13.274-10.408 2.684-3.62 4.671-7.895 5.907-12.704 2.084-8.111 1.313-14.928 1.28-15.214l-.29-2.446-2.373.503c-1.6.34-3.224.512-4.823.512a23.013 23.013 0 0 1-9.049-1.879c-2.122-.918-3.375-1.851-3.45-1.908L21.487 0z" fill="#003E71"/>
        <path d="M21.28 43.28c-5.191-2.275-9.453-5.648-12.666-10.027-2.567-3.499-4.47-7.64-5.657-12.307C.941 13.016 1.68 6.406 1.713 6.128l.073-.622.596.128c1.723.37 3.47.557 5.193.556 4.244 0 7.709-1.14 9.868-2.096 2.347-1.039 3.704-2.093 3.717-2.104l.34-.266.34.267c.013.01 1.37 1.064 3.717 2.104a24.582 24.582 0 0 0 9.868 2.095c1.724 0 3.471-.187 5.193-.556l.596-.128.073.622c.033.277.772 6.889-1.244 14.818-1.187 4.668-3.09 8.808-5.657 12.307-3.213 4.379-7.474 7.753-12.667 10.027l-.219.096-.22-.096z" fill="#003E71"/>
        <path d="M21.5 2.446s5.489 4.318 13.925 4.318c1.661 0 3.437-.167 5.307-.568 0 0 3.13 26.76-19.232 36.556C-.863 32.956 2.268 6.196 2.268 6.196c1.87.401 3.646.568 5.307.568 8.435 0 13.925-4.318 13.925-4.318M21.5 1l-.678.534c-.014.01-1.342 1.038-3.637 2.05a24.038 24.038 0 0 1-9.61 2.033c-1.685 0-3.394-.183-5.078-.545l-1.194-.255-.145 1.242c-.008.072-.205 1.784-.148 4.496.053 2.49.339 6.34 1.406 10.536 1.206 4.74 3.14 8.949 5.752 12.507 3.272 4.46 7.61 7.896 12.893 10.21L21.5 44l.439-.192c5.283-2.314 9.621-5.75 12.893-10.21 2.611-3.558 4.546-7.767 5.752-12.507 1.067-4.197 1.353-8.046 1.406-10.536.057-2.712-.14-4.424-.148-4.496l-.145-1.242-1.194.255a24.281 24.281 0 0 1-5.078.545c-7.965 0-13.193-4.041-13.245-4.082L21.5 1z" fill="#FFF"/>
        <path d="M41.846 7a26.526 26.526 0 0 1-9.632.236L5 26.268c1.672 4.1 4.25 8.239 8.2 11.732l28.088-19.643C42.443 11.944 41.846 7 41.846 7z" fill="#FFF"/>
        <g fill="#ED1B3C">
            <path d="M15.941 28.954c-.103.594-.249 1.08-.432 1.44-.22.426-.548.795-.972 1.097-.45.32-.937.51-1.447.565-1.066.113-1.946-.32-2.618-1.291-.469-.676-.638-1.414-.504-2.192.134-.778.539-1.413 1.203-1.887.788-.561 1.746-.729 2.85-.498l.11.022.36-1.833-.102-.027a5.47 5.47 0 0 0-1.362-.18c-1.023 0-1.997.325-2.896.966a4.99 4.99 0 0 0-1.636 1.957c-.778 1.647-.638 3.254.417 4.777.802 1.158 1.836 1.853 3.072 2.065.255.043.51.065.761.065.966 0 1.916-.328 2.822-.974.658-.469 1.166-1.01 1.51-1.609.305-.54.54-1.247.7-2.102l.02-.11-1.836-.365-.02.114zM18.968 28.49c-.225-.053-.455 0-.676.158-.223.16-.349.36-.375.596-.024.23.03.444.163.636a.89.89 0 0 0 .714.39.857.857 0 0 0 .5-.175c.22-.158.346-.357.373-.592a.91.91 0 0 0-.161-.64.889.889 0 0 0-.538-.373zM19.877 18.463l3.186 4.6-6.142-2.493-1.456 1.038 5.202 7.508 1.556-1.11-3.176-4.585 6.127 2.482 1.461-1.042-5.201-7.507zM27.177 22.638c-.225-.053-.455 0-.676.158-.223.16-.35.36-.375.596-.025.23.03.444.163.636a.89.89 0 0 0 .714.39.857.857 0 0 0 .5-.175c.22-.157.346-.357.373-.592a.91.91 0 0 0-.161-.64.889.889 0 0 0-.538-.373zM28.53 17.457l.88 1.271a1.508 1.508 0 0 0-.958.286 1.573 1.573 0 0 0-.683 1.208c-.037.468.093.92.385 1.342.286.412.665.682 1.129.802a1.557 1.557 0 0 0 1.35-.248c.27-.192.463-.46.574-.798l.13.189.873-.622-2.807-4.053-.873.623zm1.993 3.185a.76.76 0 0 1-.34.558c-.195.14-.398.18-.624.123a.908.908 0 0 1-.538-.39.919.919 0 0 1-.18-.639.745.745 0 0 1 .331-.548.777.777 0 0 1 .46-.16c.053 0 .107.005.161.018a.89.89 0 0 1 .543.389c.148.214.21.427.187.65zM33.837 18.267a1.027 1.027 0 0 1-.43.674.89.89 0 0 1-.573.184.725.725 0 0 1-.42-.165l2.19-1.56-.152-.228c-.32-.483-.742-.777-1.252-.873-.493-.092-.976.026-1.432.351-.439.313-.7.726-.775 1.229-.075.5.043.98.351 1.426.313.451.721.72 1.213.798.096.015.193.023.287.023.387 0 .765-.13 1.123-.384.573-.409.864-.944.864-1.59v-.135l-.98.173-.014.077zm-.666-.951-1.203.858a.784.784 0 0 1 .024-.302.903.903 0 0 1 .35-.465.855.855 0 0 1 .492-.167h.016a.69.69 0 0 1 .321.076zM37.473 12.212l-1.053-1.519-2.218 1.581-.8-1.153 2.219-1.582L34.555 8l-3.765 2.684 5.2 7.508 1.548-1.103-2.283-3.295zM39.832 14.373a.889.889 0 0 0-.538-.373c-.225-.053-.455 0-.676.158-.223.16-.349.36-.375.596-.024.23.03.444.163.636a.89.89 0 0 0 .714.39.856.856 0 0 0 .5-.175c.22-.157.346-.357.373-.592a.91.91 0 0 0-.161-.64z"/>
        </g>
    </g>
</svg>
