<svg width="33" height="44" viewBox="0 0 33 44" xmlns="http://www.w3.org/2000/svg">
    <g fill="none" fill-rule="evenodd">
        <path d="M11.818 3.805C13.626 2.873 15.122 1.462 16.5 0c1.418 1.514 2.965 2.964 4.851 3.895 2.315 1.217 5.046 1.58 7.608 1.061 1.366-.245 2.653-.789 3.94-1.28.079 6.949.144 13.885.066 20.835-.04 2.096.052 4.244-.546 6.276-.78 2.938-2.667 5.513-5.046 7.39-1.366 1.087-2.888 1.967-4.487 2.665-1.47.634-3.174.647-4.513 1.566-.728.414-1.275 1.036-1.873 1.592-.598-.556-1.144-1.178-1.873-1.592-1.378-.932-3.12-.944-4.616-1.604-3.148-1.398-6.06-3.56-7.895-6.51C.764 32.146.101 29.622.075 27.1-.07 19.295.023 11.479.114 3.675c1.274.492 2.549 1.036 3.901 1.281 2.627.531 5.45.143 7.803-1.151" fill="#292A24"/>
        <path d="M6.895 8.51c.23-.489.409-1.007.605-1.51.212.503.408 1.007.605 1.51.637.014 1.258.014 1.895.014-.507.322-1.013.644-1.536.966.196.503.392 1.007.556 1.51a87.087 87.087 0 0 1-1.52-.91c-.49.309-.997.616-1.503.91.163-.517.36-1.021.539-1.524-.507-.308-1.013-.63-1.536-.952.637 0 1.275 0 1.895-.014M20.895 8.51c.213-.503.393-1.007.605-1.51.196.503.392 1.007.605 1.51.637.014 1.258.014 1.895.014-.507.322-1.03.644-1.536.952.18.503.376 1.007.556 1.524a36.32 36.32 0 0 1-1.52-.91c-.507.309-.997.616-1.52.91.18-.517.376-1.007.556-1.524-.507-.308-1.03-.63-1.536-.952.637 0 1.258 0 1.895-.014M25.895 8.51c.213-.503.393-1.007.605-1.51.196.503.392 1.007.605 1.51.62.014 1.258.014 1.895.014-.507.322-1.03.644-1.536.952.18.503.376 1.007.556 1.524a36.32 36.32 0 0 1-1.52-.91c-.507.309-.997.616-1.52.91.18-.517.36-1.021.556-1.524-.523-.308-1.03-.63-1.536-.952.637 0 1.258 0 1.895-.014" fill="#EEC532"/>
        <path d="M10.914 8.493c.215-.493.413-.986.61-1.493.215.493.413 1 .611 1.493.627.014 1.254.014 1.865.028a35.7 35.7 0 0 1-1.502.958c.198.507.38 1.014.561 1.521a88.001 88.001 0 0 1-1.534-.915c-.495.31-1.007.62-1.535.915.182-.521.38-1.028.561-1.535-.511-.31-1.023-.634-1.551-.958.644 0 1.287 0 1.914-.014M16.895 8.493c.213-.493.393-1 .605-1.493.212.493.392 1 .605 1.493.637.014 1.258.014 1.895.014-.507.324-1.03.648-1.536.958.18.507.376 1.014.556 1.535-.523-.296-1.013-.606-1.52-.915-.49.31-.997.62-1.52.915.18-.521.376-1.028.556-1.535-.507-.31-1.03-.634-1.536-.958.637 0 1.258 0 1.895-.014M5.9 12.493c.2-.493.4-1 .6-1.493.217.493.417 1 .617 1.493.633.028 1.25.014 1.883.028-.483.338-1 .648-1.5.958L8.05 15a51.516 51.516 0 0 1-1.533-.915c-.517.31-1.017.62-1.55.915.183-.507.383-1.014.566-1.521A52.444 52.444 0 0 1 4 12.52c.633-.014 1.267-.014 1.9-.028" fill="#EEC532"/>
        <path d="M9.9 12.493c.2-.493.4-1 .6-1.493.217.493.417 1 .617 1.493.633.028 1.25.014 1.883.028-.483.338-1 .648-1.5.958.167.507.367 1.014.55 1.521a51.516 51.516 0 0 1-1.533-.915c-.517.31-1.017.62-1.55.915.166-.521.366-1.014.566-1.521A52.444 52.444 0 0 1 8 12.52c.633-.014 1.267-.014 1.9-.028M14.9 12.498c.2-.494.383-1.003.6-1.498.217.495.417 1.004.617 1.498.616.029 1.25.014 1.883.029-.5.325-1 .65-1.5.96.167.51.367 1.004.55 1.513-.533-.283-1.033-.594-1.533-.905-.517.311-1.034.622-1.55.905.183-.495.366-1.004.55-1.512-.517-.311-1.017-.636-1.517-.961.633-.015 1.267-.015 1.9-.029" fill="#EEC532"/>
        <path d="M17.89 12.498c.2-.494.384-1.003.602-1.498.217.495.418 1.004.602 1.498.635.014 1.27.014 1.906.029-.502.325-1.003.65-1.522.96.184.51.385 1.018.552 1.513-.518-.283-1.02-.594-1.522-.905-.518.311-1.036.622-1.572.905.184-.509.385-1.004.569-1.512A35.537 35.537 0 0 1 16 12.527c.619-.015 1.254-.015 1.89-.029M22.89 12.498c.2-.494.401-1.003.618-1.498.218.495.402 1.004.602 1.498.636.014 1.271.014 1.89.029-.485.339-.987.65-1.505.96.184.51.385 1.004.552 1.513-.535-.283-1.037-.594-1.555-.905-.502.311-1.004.622-1.539.905.184-.509.385-1.004.569-1.512A36.226 36.226 0 0 1 21 12.527c.635-.015 1.254 0 1.89-.029" fill="#EEC532"/>
        <path d="M26.883 12.493c.2-.493.4-1 .617-1.493.2.493.4 1 .6 1.493.633.014 1.267.014 1.9.028-.5.324-1 .648-1.517.958l.55 1.521c-.533-.296-1.033-.606-1.55-.915-.5.31-1 .62-1.533.9.183-.492.367-1 .55-1.506-.5-.31-1-.634-1.5-.958.633-.014 1.25 0 1.883-.028M4.02 17h3.969c.015 7.342.015 14.671 0 22-1.363-.737-2.637-1.616-3.745-2.637-.24-.155-.255-.426-.24-.66C4.02 29.474 3.99 23.23 4.02 17M11.011 17H15c0 8.342-.015 16.671 0 25-1.235-.599-2.634-.807-3.989-1.145-.015-7.952-.015-15.903 0-23.855M19.015 17h3.97c.03 3.462 0 6.91.015 10.36-.015 4.502.015 9.005-.015 13.495-1.353.325-2.75.56-3.985 1.145.015-8.329 0-16.658.015-25M26.011 17h3.985c.015 6.243-.015 12.474 0 18.704.015.233 0 .504-.24.672-1.108 1.008-2.382 1.887-3.745 2.624-.015-7.329-.015-14.658 0-22" fill="#EEC532"/>
    </g>
</svg>
