<svg xmlns="http://www.w3.org/2000/svg" viewBox="0 0 473.96 108.76"><defs><style>.cls-1{fill:#fff;}.cls-2{fill:#ffcd00;}.cls-3{fill:#1a171b;}.cls-4{fill:#c00418;}.cls-5{fill:#004a99;}</style></defs><g id="Capa_2" data-name="Capa 2"><g id="Capa_1-2" data-name="Capa 1"><polygon class="cls-1" points="220.97 46.05 235.13 46.05 235.13 40.71 226.85 40.71 226.85 29.22 234.91 29.22 234.91 23.88 226.85 23.88 226.85 14 235.13 14 235.13 8.65 220.97 8.65 220.97 46.05"/><polygon class="cls-1" points="220.1 108.08 220.1 60.38 209.4 60.38 204.63 94.52 204.5 94.52 199.72 60.38 189.03 60.38 189.03 108.08 195.57 108.08 195.57 71.97 195.71 71.97 201.16 108.08 207.43 108.08 212.88 71.97 213.01 71.97 213.01 108.08 220.1 108.08"/><polygon class="cls-1" points="235.13 67.2 235.13 60.38 225.68 60.38 225.68 108.08 235.13 108.08 235.13 101.26 233.18 101.26 233.18 86.61 235.13 86.61 235.13 79.8 233.18 79.8 233.18 67.2 235.13 67.2"/><polygon class="cls-1" points="166 40.71 155.1 40.71 166 13.89 166 8.65 149.33 8.65 149.33 14 159.7 14 148.8 40.81 148.8 46.05 166 46.05 166 40.71"/><polygon class="cls-1" points="174.52 101.26 162.18 101.26 162.18 60.38 154.69 60.38 154.69 108.08 174.52 108.08 174.52 101.26"/><polygon class="cls-1" points="146.5 14 146.5 8.65 130.48 8.65 130.48 46.05 146.5 46.05 146.5 40.71 136.35 40.71 136.35 29.22 144.42 29.22 144.42 23.88 136.35 23.88 136.35 14 146.5 14"/><path class="cls-1" d="M214.83,43.7Q217,41.35,217,36.81V17.9q0-4.54-2.19-6.9c-1.46-1.56-3.65-2.35-6.57-2.35h-9v37.4h9Q212.64,46.05,214.83,43.7Zm-9.67-3V14h3a2.85,2.85,0,0,1,2.22.85,4.12,4.12,0,0,1,.77,2.78V37.07a4.11,4.11,0,0,1-.77,2.78,2.86,2.86,0,0,1-2.22.86Z"/><polygon class="cls-1" points="150.4 67.2 150.4 60.38 129.96 60.38 129.96 108.08 150.4 108.08 150.4 101.26 137.45 101.26 137.45 86.61 147.74 86.61 147.74 79.8 137.45 79.8 137.45 67.2 150.4 67.2"/><path class="cls-1" d="M181,38.62,182,46.05h5.87l-6.09-37.4h-8l-6.09,37.4h5.45l1.07-7.32H181Zm-6-5,2.56-18.49h.11l2.61,18.49Z"/><polygon class="cls-1" points="114.77 67.2 114.77 60.38 94.33 60.38 94.33 108.08 114.77 108.08 114.77 101.26 101.82 101.26 101.82 86.61 112.11 86.61 112.11 79.8 101.82 79.8 101.82 67.2 114.77 67.2"/><rect class="cls-1" x="27.42" y="60.38" width="7.49" height="47.69"/><polygon class="cls-1" points="15.89 40.71 6.22 40.71 6.22 8.65 0.34 8.65 0.34 46.05 15.89 46.05 15.89 40.71"/><polygon class="cls-1" points="85.39 14 85.39 8.65 69.36 8.65 69.36 46.05 85.39 46.05 85.39 40.71 75.24 40.71 75.24 29.22 83.31 29.22 83.31 23.88 75.24 23.88 75.24 14 85.39 14"/><polygon class="cls-1" points="15.97 108.08 15.97 67.2 23.81 67.2 23.81 60.38 0.64 60.38 0.64 67.2 8.48 67.2 8.48 108.08 15.97 108.08"/><path class="cls-1" d="M31.44,8.65h-8l-6.09,37.4h5.44l1.07-7.32h6.68v-.11l1.07,7.43h5.88Zm-6.84,25,2.56-18.49h.11l2.62,18.49Z"/><polygon class="cls-1" points="71.91 73.26 72.05 73.26 81.04 108.08 88.74 108.08 88.74 60.38 82.06 60.38 82.06 88.93 81.92 88.93 74.64 60.38 65.23 60.38 65.23 108.08 71.91 108.08 71.91 73.26"/><polygon class="cls-1" points="127.65 8.65 122.25 8.65 118.4 37.66 118.3 37.66 114.45 8.65 108.52 8.65 114.18 46.05 121.98 46.05 127.65 8.65"/><path class="cls-1" d="M106.17,19.55V17.26q0-4.38-2.08-6.5c-1.39-1.4-3.6-2.11-6.63-2.11H88.75v37.4h5.88V30h2a3.5,3.5,0,0,1,2.86,1,5.8,5.8,0,0,1,.83,3.58v6.84a26.5,26.5,0,0,0,.1,2.88,9.72,9.72,0,0,0,.43,1.71h6a6.59,6.59,0,0,1-.53-1.95,25.31,25.31,0,0,1-.11-2.59V34.94a13.15,13.15,0,0,0-.88-5.29,4.59,4.59,0,0,0-3-2.62v-.11Q106.18,25.38,106.17,19.55Zm-5.88,1.18a4.26,4.26,0,0,1-.88,3,3.5,3.5,0,0,1-2.64.91H94.63V14H97.3a2.74,2.74,0,0,1,2.27.9,4.77,4.77,0,0,1,.72,2.94Z"/><polygon class="cls-1" points="60.94 67.2 60.94 60.38 40.5 60.38 40.5 108.08 60.94 108.08 60.94 101.26 47.99 101.26 47.99 86.61 58.28 86.61 58.28 79.8 47.99 79.8 47.99 67.2 60.94 67.2"/><path class="cls-1" d="M65.84,37.4V32.11H60.28v5.71q0,3.42-2.94,3.42c-2,0-2.93-1.14-2.93-3.42V16.93c0-2.31,1-3.47,2.93-3.47s2.94,1.16,2.94,3.47v4.33h5.56v-4a9.66,9.66,0,0,0-2.22-6.79,8.33,8.33,0,0,0-6.44-2.4c-2.81,0-5,.8-6.43,2.4a9.66,9.66,0,0,0-2.22,6.79V37.4a9.62,9.62,0,0,0,2.22,6.78c1.47,1.6,3.62,2.4,6.43,2.4a8.33,8.33,0,0,0,6.44-2.4A9.62,9.62,0,0,0,65.84,37.4Z"/><rect class="cls-2" x="235.14" y="48.8" width="237.29" height="2.62"/><rect class="cls-3" x="235.14" y="51.41" width="237.29" height="2.63"/><rect class="cls-2" x="235.14" y="54.04" width="237.29" height="2.62"/><path class="cls-2" d="M270.86,62.84c-2,2.09-2.93,5-2.93,8.85V96.77c0,3.81,1,6.77,2.93,8.85s4.77,3.14,8.45,3.14,6.49-1.05,8.44-3.14,2.93-5,2.93-8.85V71.69c0-3.81-1-6.76-2.93-8.85S283,59.7,279.31,59.7,272.81,60.75,270.86,62.84Zm12.33,8.38v26c0,3.14-1.3,4.71-3.88,4.71s-3.89-1.57-3.89-4.71v-26c0-3.14,1.3-4.7,3.89-4.7S283.19,68.08,283.19,71.22Z"/><path class="cls-2" d="M294.48,46.05h5.44L301,38.73h6.68v-.11l1.07,7.43h5.88l-6.09-37.4h-8Zm9.77-30.88h.11L307,33.66h-5.29Z"/><polygon class="cls-2" points="305.11 0 301.37 6.14 305.8 6.14 311.52 0 305.11 0"/><polygon class="cls-2" points="291.64 8.65 283.26 8.65 279.52 35.42 279.41 35.42 275.67 8.65 267.29 8.65 267.29 46.05 272.41 46.05 272.41 17.74 272.52 17.74 276.79 46.05 281.71 46.05 285.98 17.74 286.09 17.74 286.09 46.05 291.64 46.05 291.64 8.65"/><path class="cls-2" d="M255.59,97a4.75,4.75,0,0,1-1.09,3.44,4.44,4.44,0,0,1-3.33,1.13,9.79,9.79,0,0,1-2.46-.28v6.82a19.21,19.21,0,0,0,3.48.27c3.68,0,6.41-.95,8.21-2.86s2.69-4.82,2.69-8.72V60.38h-7.5Z"/><rect class="cls-2" x="235.14" y="40.71" width="1.86" height="5.34"/><polygon class="cls-2" points="470.07 14 470.07 8.65 454.04 8.65 454.04 46.05 470.07 46.05 470.07 40.71 459.92 40.71 459.92 29.22 467.99 29.22 467.99 23.88 459.92 23.88 459.92 14 470.07 14"/><polygon class="cls-2" points="240.36 8.65 240.36 46.05 255.91 46.05 255.91 40.71 246.24 40.71 246.24 8.65 240.36 8.65"/><rect class="cls-2" x="235.14" y="8.65" width="1.86" height="5.34"/><rect class="cls-2" x="235.14" y="79.8" width="8.33" height="6.81"/><rect class="cls-2" x="235.14" y="60.38" width="10.99" height="6.81"/><rect class="cls-2" x="235.14" y="101.26" width="10.99" height="6.81"/><polygon class="cls-2" points="422.74 31.04 422.63 31.04 416.92 8.65 409.54 8.65 409.54 46.05 414.78 46.05 414.78 18.75 414.88 18.75 421.94 46.05 427.97 46.05 427.97 8.65 422.74 8.65 422.74 31.04"/><rect class="cls-2" x="438.67" y="60.38" width="7.49" height="47.69"/><path class="cls-2" d="M434.17,76.46v-5c0-3.72-.94-6.61-2.83-8.65s-4.62-3.07-8.21-3.07-6.32,1-8.21,3.07-2.82,4.93-2.82,8.65V97c0,3.72.94,6.61,2.82,8.65s4.62,3.07,8.21,3.07,6.33-1,8.21-3.07,2.83-4.93,2.83-8.65V90.29h-7.08v7.29q0,4.36-3.75,4.37t-3.75-4.37V70.94q0-4.43,3.75-4.42t3.75,4.42v5.52Z"/><path class="cls-2" d="M441.33,8.65h-9v37.4h9q4.38,0,6.57-2.35t2.19-6.89V17.9q0-4.54-2.19-6.9C446.44,9.44,444.25,8.65,441.33,8.65Zm2.88,28.42a4.11,4.11,0,0,1-.77,2.78,2.86,2.86,0,0,1-2.22.86h-3V14h3a2.85,2.85,0,0,1,2.22.85,4.12,4.12,0,0,1,.77,2.78Z"/><path class="cls-2" d="M462.58,59.7c-3.68,0-6.49,1-8.45,3.14s-2.93,5-2.93,8.85V96.77c0,3.81,1,6.77,2.93,8.85s4.77,3.14,8.45,3.14,6.5-1.05,8.45-3.14,2.93-5,2.93-8.85V71.69Q474,66,471,62.84T462.58,59.7Zm3.89,37.54q0,4.71-3.89,4.71t-3.88-4.71v-26c0-3.14,1.29-4.7,3.88-4.7s3.89,1.56,3.89,4.7Z"/><path class="cls-2" d="M392.66,8.65l-6.09,37.4H392l1.07-7.32h6.68v-.11l1.07,7.43h5.87l-6.09-37.4Zm1.12,25,2.57-18.49h.11l2.61,18.49Z"/><polygon class="cls-2" points="408.28 67.2 408.28 60.38 387.84 60.38 387.84 108.08 408.28 108.08 408.28 101.26 395.33 101.26 395.33 86.61 405.62 86.61 405.62 79.8 395.33 79.8 395.33 67.2 408.28 67.2"/><path class="cls-2" d="M384,19.55V17.26c0-2.92-.7-5.09-2.08-6.5s-3.6-2.11-6.63-2.11h-8.71v37.4h5.88V30h2a3.5,3.5,0,0,1,2.86,1,5.8,5.8,0,0,1,.83,3.58v6.84a26.5,26.5,0,0,0,.1,2.88,8.92,8.92,0,0,0,.43,1.71h6a6.59,6.59,0,0,1-.53-1.95,25.31,25.31,0,0,1-.11-2.59V34.94a13.15,13.15,0,0,0-.88-5.29,4.59,4.59,0,0,0-3-2.62v-.11Q384,25.38,384,19.55Zm-5.88,1.18a4.26,4.26,0,0,1-.88,3,3.51,3.51,0,0,1-2.64.91h-2.14V14h2.67a2.74,2.74,0,0,1,2.27.9,4.77,4.77,0,0,1,.72,2.94Z"/><path class="cls-2" d="M360.38,108.08h7.5V87.64h2.59a4.47,4.47,0,0,1,3.64,1.29c.71.87,1.06,2.39,1.06,4.57v8.72a33.5,33.5,0,0,0,.13,3.68,11.06,11.06,0,0,0,.55,2.18h7.63a8.41,8.41,0,0,1-.68-2.49,32.06,32.06,0,0,1-.14-3.3V93.91a16.82,16.82,0,0,0-1.12-6.75,5.86,5.86,0,0,0-3.85-3.34v-.13q4.9-2,4.9-9.41V71.35q0-5.58-2.65-8.28t-8.45-2.69H360.38Zm7.5-40.88h3.4a3.45,3.45,0,0,1,2.9,1.16,6.06,6.06,0,0,1,.92,3.74v3.68A5.55,5.55,0,0,1,374,79.67a4.52,4.52,0,0,1-3.38,1.15h-2.72Z"/><path class="cls-2" d="M306.83,60.38h-11.1v47.7h7.49V87.64h2.59a4.47,4.47,0,0,1,3.64,1.29c.71.87,1.06,2.39,1.06,4.57v8.72a32.76,32.76,0,0,0,.14,3.68,11,11,0,0,0,.54,2.18h7.63a8.41,8.41,0,0,1-.68-2.49,32.5,32.5,0,0,1-.13-3.3V93.91a16.8,16.8,0,0,0-1.13-6.75A5.86,5.86,0,0,0,313,83.82v-.13q4.91-2,4.91-9.41V71.35q0-5.58-2.66-8.28T306.83,60.38Zm3.61,15.4a5.5,5.5,0,0,1-1.12,3.89A4.51,4.51,0,0,1,306,80.82h-2.73V67.2h3.41a3.45,3.45,0,0,1,2.89,1.16,6,6,0,0,1,.92,3.74Z"/><path class="cls-2" d="M354,8.12q-4.28,0-6.52,2.43c-1.49,1.62-2.24,3.95-2.24,7V37.18q0,4.55,2.24,7T354,46.58q4.27,0,6.52-2.43t2.24-7V25h-8.49v5.34h2.94v7.32q0,3.63-3.05,3.63t-3-3.63V17.15q0-3.69,3-3.69t3.05,3.69v3.58h5.55V17.52c0-3-.75-5.35-2.24-7S356.89,8.12,354,8.12Z"/><path class="cls-2" d="M334.08,60.38v47.7h7.5V88.66h3.54q5.6,0,8.38-3c1.86-2,2.8-4.93,2.8-8.79v-4.7c0-3.86-.94-6.79-2.8-8.79s-4.65-3-8.38-3ZM348.8,71.69v5.66a5.19,5.19,0,0,1-.92,3.47,3.49,3.49,0,0,1-2.76,1h-3.54V67.2h3.54a3.52,3.52,0,0,1,2.76,1A5.19,5.19,0,0,1,348.8,71.69Z"/><path class="cls-2" d="M316.27,35v2.14q0,4.55,2.19,7t6.47,2.43q4.32,0,6.59-2.45c1.52-1.64,2.27-4,2.27-7.06a13,13,0,0,0-1.38-6.14,22.17,22.17,0,0,0-5.08-5.82,21.06,21.06,0,0,1-4-4.28,7,7,0,0,1-1.1-3.79c0-2.38,1-3.58,2.94-3.58a2.74,2.74,0,0,1,2.19.88,4.31,4.31,0,0,1,.75,2.81v1.92h5.56V17.52c0-3-.72-5.35-2.17-7S328,8.12,325.14,8.12s-5,.81-6.52,2.43a9.78,9.78,0,0,0-2.24,6.87,11.85,11.85,0,0,0,1.44,5.85,23.67,23.67,0,0,0,5.08,5.79,20,20,0,0,1,4,4.3,8,8,0,0,1,1.07,4.14,4.27,4.27,0,0,1-.78,2.86,2.84,2.84,0,0,1-2.27.88q-3,0-3-3.63V35Z"/><rect class="cls-4" y="48.8" width="235.14" height="2.62"/><rect class="cls-1" y="51.4" width="235.14" height="2.63"/><rect class="cls-5" y="54.04" width="235.14" height="2.62"/></g></g></svg>