<svg width="23" height="16" viewBox="0 0 23 16" xmlns="http://www.w3.org/2000/svg">
    <path d="m16.241 15.91.614-.026c1.527-.07 2.96-.182 3.632-.362.99-.263 1.769-1.007 2.034-1.992.416-1.549.472-4.554.479-5.329v-.37c-.007-.774-.063-3.78-.48-5.328A2.875 2.875 0 0 0 20.488.478c-.673-.18-2.105-.292-3.632-.362L16.241.09A140.32 140.32 0 0 0 11.813 0h-.625C9.787.007 4.084.059 2.514.478A2.875 2.875 0 0 0 .481 2.503C.064 4.05.009 7.057 0 7.83L0 7.968v.096l.001.137c.008.775.063 3.78.48 5.329.264.985 1.044 1.729 2.033 1.992 1.57.42 7.273.471 8.674.478h.625c.72-.003 2.58-.019 4.428-.09zM9 12V5l6 3.5L9 12z" fill="#FFF" fill-rule="nonzero"/>
</svg>
