<?xml version="1.0" encoding="utf-8"?>
<!-- Generator: Adobe Illustrator 22.1.0, SVG Export Plug-In . SVG Version: 6.00 Build 0)  -->
<svg version="1.1" id="Capa_1" xmlns="http://www.w3.org/2000/svg" xmlns:xlink="http://www.w3.org/1999/xlink" x="0px" y="0px"
	 viewBox="0 0 109.7 211" style="enable-background:new 0 0 109.7 211;" xml:space="preserve">
<style type="text/css">
	.st0{fill:#FFFFFF;stroke:#FFFFFF;stroke-width:3;stroke-miterlimit:10;}
</style>
<path class="st0" d="M92.1,100.6c-0.1-0.1-6.1-11.9-9.4-18.9c-0.7-29-5-44.9-7.5-51.8c0.9-2.4,1.4-5.3,0.9-8.7
	c-0.1-0.8-0.2-1.5-0.3-2.2c-0.4-3-1.4-12.2-11.1-12.4c-0.1,0-0.1,0-0.2,0H45.2c-0.1,0-0.1,0-0.2,0C35.3,6.8,34.2,16,33.9,19
	c-0.1,0.7-0.2,1.4-0.3,2.2c-0.5,3.4-0.1,6.3,0.9,8.7C32,36.8,27.7,52.7,27,81.7c-3.4,7-9.4,18.8-9.4,18.9c-0.5,1.1-0.8,2.2-0.8,3.4
	v92.8c0,4.1,3.4,7.5,7.5,7.5h61.2c4.1,0,7.5-3.4,7.5-7.5V104C92.9,102.8,92.7,101.7,92.1,100.6z M41.2,86.8c0.5-1,0.7-2,0.7-3.1
	c0.6-36.2,7.4-50.5,7.5-50.9c0,0,0-0.1,0.1-0.1c0.1-0.2,0.1-0.3,0.2-0.5c0-0.1,0.1-0.2,0.1-0.2c0.1-0.1,0.1-0.3,0.1-0.4
	s0.1-0.2,0.1-0.3c0-0.1,0.1-0.3,0.1-0.4s0-0.2,0.1-0.3c0-0.1,0-0.2,0-0.4c0-0.1,0-0.2,0-0.3c0-0.1,0-0.2,0-0.4c0-0.1,0-0.2,0-0.3
	c0-0.2,0-0.4,0-0.7c0-0.1,0-0.1,0-0.2c0-0.2,0-0.3-0.1-0.5c0-0.1,0-0.1-0.1-0.2c0-0.2-0.1-0.3-0.1-0.5c0-0.1,0-0.1-0.1-0.2
	s-0.1-0.3-0.2-0.4c0-0.1-0.1-0.1-0.1-0.2c-0.1-0.1-0.1-0.3-0.2-0.4c0-0.1-0.1-0.2-0.1-0.2c-0.1-0.1-0.1-0.2-0.2-0.4
	c-0.1-0.1-0.1-0.2-0.2-0.3c-0.1-0.1-0.1-0.2-0.2-0.3c-0.1-0.1-0.1-0.2-0.2-0.3l-0.1-0.1c0-0.1,0-0.1,0-0.2v-0.2c0-0.1,0-0.3,0-0.3
	l0,0c0.1-0.7,0.2-1.3,0.3-2H61c0.1,0.6,0.2,1.3,0.3,2c0,0.3,0.1,0.5,0,0.6c-2,2.1-2.6,5.2-1.4,8c0,0.1,0.1,0.2,0.1,0.3
	s0.1,0.1,0.1,0.2c0.1,0.1,6.9,14.4,7.6,51c0,1.1,0.3,2.2,0.7,3.1c2.6,5.4,7.5,15.2,9.5,19v83.5H31.8v-83.5
	C33.7,102,38.6,92.2,41.2,86.8z"/>
</svg>
