<?xml version="1.0" encoding="utf-8"?>
<!-- Generator: Adobe Illustrator 22.1.0, SVG Export Plug-In . SVG Version: 6.00 Build 0)  -->
<svg version="1.1" id="Capa_1" xmlns="http://www.w3.org/2000/svg" xmlns:xlink="http://www.w3.org/1999/xlink" x="0px" y="0px"
	 viewBox="0 0 436.4 165.1" style="enable-background:new 0 0 436.4 165.1;" xml:space="preserve">
<style type="text/css">
	.st0{clip-path:url(#SVGID_2_);fill:#FFFFFF;}
	.st1{clip-path:url(#SVGID_2_);fill:#E3000F;}
</style>
<g>
	<defs>
		<rect id="SVGID_1_" width="436.4" height="165.1"/>
	</defs>
	<clipPath id="SVGID_2_">
		<use xlink:href="#SVGID_1_"  style="overflow:visible;"/>
	</clipPath>
	<path class="st0" d="M50.3,126.8c-1.8,0.7-3.5,1.2-5.3,1.6c-1.8,0.4-3.6,0.5-5.4,0.5c-11.7,0-21.3-4.3-28.6-12.8
		C3.7,107.6,0,96.5,0,82.6c0-14.4,3.6-26,10.8-34.8s16.5-13.2,28.1-13.2c2.1,0,4.2,0.2,6.1,0.5c1.9,0.4,3.7,0.9,5.4,1.7V54
		c-1.8-0.7-3.5-1.2-5.1-1.6c-1.7-0.3-3.3-0.5-4.9-0.5c-6.1,0-11.1,2.7-14.9,8.1c-3.8,5.4-5.7,12.6-5.7,21.6c0,8.6,2,15.6,5.9,20.9
		c3.9,5.3,9,8,15.2,8c1.6,0,3.1-0.2,4.8-0.6c1.6-0.4,3.2-0.9,4.9-1.6V126.8z"/>
	<polygon class="st0" points="59.2,127.8 59.2,35.8 77.3,35.8 77.3,69.8 97.9,69.8 97.9,35.8 116.2,35.8 116.2,127.8 97.9,127.8 
		97.9,87.8 77.3,87.8 77.3,127.8 	"/>
	<polygon class="st0" points="128,127.8 128,35.8 166.8,35.8 166.8,52.8 145.8,52.8 145.8,71.4 164.8,71.4 164.8,88.3 145.8,88.3 
		145.8,109.9 166.8,109.9 166.8,127.8 	"/>
	<path class="st0" d="M224,126.8c-1.8,0.7-3.5,1.2-5.3,1.6c-1.8,0.4-3.6,0.5-5.4,0.5c-11.7,0-21.3-4.3-28.6-12.8
		c-7.3-8.5-11-19.7-11-33.6c0-14.4,3.6-26,10.8-34.8c7.2-8.8,16.5-13.2,28.1-13.2c2.1,0,4.2,0.2,6.1,0.5c1.9,0.4,3.7,0.9,5.4,1.7V54
		c-1.8-0.7-3.5-1.2-5.1-1.6c-1.7-0.3-3.3-0.5-4.9-0.5c-6.1,0-11.1,2.7-14.9,8.1c-3.8,5.4-5.7,12.6-5.7,21.6c0,8.6,2,15.6,5.9,20.9
		c3.9,5.3,9,8,15.2,8c1.6,0,3.1-0.2,4.8-0.6c1.6-0.4,3.2-0.9,4.9-1.6V126.8z"/>
	<polygon class="st0" points="232.8,127.7 232.8,35.8 250.6,35.8 250.6,82 268.6,35.8 287.7,35.8 268.7,83.8 288.3,127.7 
		268.7,127.7 250.6,88.9 250.6,127.7 	"/>
	<rect x="346.9" y="35.8" class="st0" width="18.7" height="92.1"/>
	<path class="st0" d="M378.5,127.8V35.8h18.6l18.6,49.6c0.5,1.6,1.3,4,2.3,7.3c1,3.3,2.1,7.2,3.4,11.6c-1-6.5-1.7-12.5-2.1-17.9
		c-0.5-5.4-0.7-10.5-0.7-15.2V35.8h17v92.1h-17l-20.2-51.5c-0.3-0.8-1.2-3.9-2.6-9.4c-0.7-2.5-1.2-4.5-1.6-5.9
		c0.4,3.6,0.7,7.6,0.9,12.1c0.2,4.5,0.3,9.8,0.3,16.1v38.7H378.5z"/>
	<rect x="5" y="0" class="st0" width="431.3" height="17.1"/>
	<rect x="5" y="148" class="st0" width="431.3" height="17.1"/>
	<polygon class="st1" points="301.7,83.5 315.3,55.6 296.6,55.6 283,83.5 283,83.5 283,83.5 283,83.6 283,83.6 295.4,109 314.1,109 
			"/>
	<rect x="296.1" y="74.5" class="st1" width="43.1" height="16.6"/>
</g>
</svg>
