<?xml version="1.0" encoding="utf-8"?>
<!-- Generator: Adobe Illustrator 22.1.0, SVG Export Plug-In . SVG Version: 6.00 Build 0)  -->
<svg version="1.1" id="Logo" xmlns="http://www.w3.org/2000/svg" xmlns:xlink="http://www.w3.org/1999/xlink" x="0px" y="0px"
	 viewBox="0 0 283.5 286.8" style="enable-background:new 0 0 283.5 286.8;" xml:space="preserve">
<style type="text/css">
	.st0{fill:#FFFFFF;}
</style>
<g>
	<path class="st0" d="M193.5,171.1c-8,8.1-18.5,16.1-28.8,19.4c-9.7,3.1-37.4,5.6-45.6-17.3c-1.8-4.9-0.3-6.5,4.2-7.8
		c6.7-2,23.9-7,42.1-13.9c16.5-6.1,31.2-13.7,35.8-16.8c8.3-5.4,9.5-13,5.9-21.2c-11.6-26-37.8-53.3-81.3-45
		c-34.6,6.6-59.4,37.7-59.4,73.4c0,44.1,26.6,69.9,60.4,77.9c31.3,7.5,68.1-7.7,83.8-33.2C216.8,176.7,199.2,165.1,193.5,171.1z
		 M115.2,136.4c-3.4-9.4-0.7-38,15.1-43.4c16.6-5.7,26.8,2.9,31.7,19.6c1.8,6.2,1.4,12.7-0.6,15.2c-2.9,3.6-8.2,5.7-12.9,7.3
		l-12.4,4.1C123.9,143.3,118,144.2,115.2,136.4z"/>
	<g>
		<path class="st0" d="M31.5,86.7c-2.2-1.3-3-4.2-1.7-6.4c1.3-2.2,4.2-3,6.4-1.7c2.2,1.3,3,4.2,1.7,6.4C36.7,87.2,33.8,88,31.5,86.7
			z"/>
		<path class="st0" d="M251.1,84.9c-2.2,1.3-5.1,0.4-6.4-1.8c-1.3-2.3-0.4-5.1,1.8-6.4c2.2-1.3,5.1-0.4,6.4,1.8
			C254.2,80.7,253.4,83.6,251.1,84.9z"/>
		<g>
			<path class="st0" d="M150,0l6.9,0.6c0.6,0,1.1,0.6,1,1.2l-2,24.7c-0.1,1.5-0.3,3.1-0.8,4.4c-1.4,4.5-5.3,6.3-8.8,6
				c-3-0.2-5.4-1.1-7-2.5c-0.5-0.4-0.5-1-0.1-1.6l2.4-3.2c0.4-0.4,1-0.6,1.5-0.3c0.2,0.2,0.9,0.4,1.5,0.4c1.2,0.1,1.9-0.7,2.1-2.3
				L148.8,1C148.8,0.4,149.4,0,150,0z"/>
			<path class="st0" d="M173.4,37.7c-1.8-3.8-2.1-8.7,0.9-15.8c3-7.2,6.8-10.4,10.7-11.8c3.8-1.2,7.8-0.7,11.9,1
				c4,1.7,7.2,4.1,9,7.6c1.8,3.8,2.1,8.7-0.9,15.8c-3,7.2-6.8,10.4-10.7,11.8c-3.8,1.2-7.8,0.7-11.9-1
				C178.4,43.6,175.2,41.2,173.4,37.7z M189.3,18c-2.3,1-4.4,3.8-5.9,7.5c-1.7,4-2.1,7.3-1.2,9.7c0.6,1.5,1.8,2.4,3.3,3.1
				c1.5,0.6,3,0.7,4.4,0.1c2.3-1,4.4-3.7,5.9-7.5c1.6-3.9,2.1-7.3,1.2-9.6c-0.6-1.5-1.7-2.5-3.3-3.1C192.2,17.5,190.8,17.4,189.3,18
				z"/>
			<path class="st0" d="M217.2,65.8c-0.3,0.3-0.7,0.4-0.9,0.2l-6-5.1c-0.3-0.2-0.3-0.7,0-1l9-10.5l5.7-20.4c0.3-0.9,0.8-1,1.2-0.6
				l6.7,5.7c0.2,0.2,0.1,0.4,0.1,0.6l-4.1,11.1l10.2-5.8c0.3-0.2,0.5-0.2,0.7,0l6.1,5.3c0.4,0.3,0.2,0.8-0.4,1.1l-19.2,8.9
				L217.2,65.8z"/>
			<g>
				<path class="st0" d="M54.4,28.8L54.4,28.8c-5.9,4-8.5,9.3-7.9,16.2c0.3,2.9,1.5,6.1,3.5,9c2.3,3.4,5,5.8,7.9,7.2
					c5.6,2.6,11.3,2.1,16.9-1.7c5.4-3.7,8.8-8.6,9.3-13.8c0,0,0.1-0.6,0.1-0.6c0-0.2-0.1-0.8-0.7-0.9c0,0-5.4-1.2-5.5-1.2
					c-0.1,0-0.4,0.1-0.9,0.2c-0.2,0.1-0.3,0.4-0.4,0.7c-0.5,2.9-2.8,6.5-5,8c-3.5,2.4-6,1.9-7.5,1c-0.2-0.1-0.6-0.3-0.6-0.8
					c-0.1-0.3,0-0.7,0.4-1c3.9-4.4,8.4-10.6,10.1-13.8c1.7-3.2,1.7-4.5,0.3-6.6c-1.6-2.4-4.4-4.1-7.6-4.7
					C62.7,25.2,58.3,26.2,54.4,28.8z M55.2,39.9c0,0,0.1-0.5,0.1-0.5c0.4-2,1.5-3.6,3.2-4.8c1.4-1,2.9-1.3,4.3-1.1
					c1.2,0.2,2.3,0.9,2.9,1.9c0.5,0.8,0.5,1.6,0,2.6c-1.2,1.9-5.3,7-6.6,8.4c-0.4,0.4-0.8,0.8-1.3,0.7c-0.5,0-0.8-0.5-0.9-0.7
					c-1-1.5-1.6-3.2-1.7-5l0-1.4C55.2,40.1,55.2,39.9,55.2,39.9z"/>
			</g>
			<path class="st0" d="M114,24.3l-5-18.7c-0.2-0.6,0.2-1.2,0.8-1.4l5.9-1.7c0.6-0.2,1.3,0.2,1.4,0.8l8.4,31.4
				c0.2,0.6-0.2,1.2-0.8,1.4c0,0-7.7,2-8.2,2.1c-0.6,0.1-1,0-1.3-0.4l-13.8-15.2l6,17.9c0.2,0.6-0.1,1.2-0.6,1.4l-5.6,2.1
				c-0.6,0.2-1.2-0.1-1.4-0.6l-11-31.2c-0.2-0.6,0.1-1.2,0.6-1.4l8.2-3.1c0.5-0.2,1,0,1.3,0.3L114,24.3z"/>
		</g>
		<g>
			<path class="st0" d="M0,131.7l1.3-7.2c0.1-0.5,0.5-0.9,1-0.9c0.5,0,2,0,3,0.2l4.8,0.9c2.8,0.5,4.6,0.3,5.2-2.7l0.5-2.6
				c0-0.2-0.1-0.4-0.3-0.4l-11.6-2.1c-0.6-0.1-1-0.7-0.9-1.4l1.3-6.9c0.1-0.6,0.7-1,1.3-0.9l33.2,6c0.4,0.1,0.7,0.5,0.6,1l-1.9,10.7
				c-0.6,3.5-1.7,6.4-3.4,8.5c-1.9,2.4-4.9,3.5-8.2,2.9c-3.8-0.7-6.3-2.8-7.2-6.7l-0.1,0c-1.9,4.3-4.8,4.8-9,4l-4-0.7
				c-1.3-0.2-3-0.3-4.2-0.2C0.4,133.2-0.1,132.6,0,131.7z M30.5,122.1c0-0.2,0-0.4-0.3-0.4l-6.8-1.2c-0.3-0.1-0.4,0-0.4,0.3
				l-0.4,1.9c-0.4,2.3,0.8,3.9,3.3,4.3c2.3,0.4,3.8-0.4,4.2-2.7L30.5,122.1z"/>
			<path class="st0" d="M21.1,207.5c0.5-0.8,0.9-0.9,1.5-0.4l5.6,3.9c0.7,0.5,0.6,0.9,0.2,1.5c-1.4,2.1-1.6,4-0.4,5.8
				c1.5,2.2,3.6,2.6,5.2,1.6c0.9-0.6,1.8-1.7,1.4-3.9l-0.8-3.7c-1.4-6.9,0-10.9,4.4-13.8c2.4-1.5,4.9-2,7.6-1.5
				c2.7,0.6,5.2,2.3,7.3,5.6c2.5,3.8,3.1,7.6,0.6,11.7c-0.6,1.1-1.2,1.2-1.7,0.7l-4.8-3.3c-0.2-0.3-0.3-0.5-0.1-0.8
				c1.3-1.6,1.3-2.8,0.3-4.3c-1.1-1.6-2.7-1.8-3.8-1.2c-1.4,0.9-1.7,1.8-1.1,4.6l0.8,3.7c1.6,7.3-0.5,11.3-4.3,13.8
				c-2.6,1.7-5.6,2.3-8.7,1.5c-3.2-0.7-6.2-3.1-8.5-6.8C18.3,216.7,18,212.9,21.1,207.5z"/>
			<path class="st0" d="M64.1,249.6c-0.4-0.3-0.7-0.2-0.9,0.1l-6,8.3c-0.3,0.3-0.7,0.4-1.1,0.1l-6.3-4.6c-0.3-0.2-0.4-0.7-0.2-1.1
				l19.9-27.4c0.4-0.5,0.9-0.6,1.4-0.2l8.6,6.3c2.4,1.8,4.4,3.6,5.5,5.8c1.9,3.7,1.6,7.5-1.2,11.5c-3.5,4.8-7.2,6-11.2,5.4
				c-2.3-0.3-4.7-1.5-7.1-3.2L64.1,249.6z M73.6,235.9c-0.2-0.2-0.3-0.2-0.5,0.1l-5,6.9c-0.2,0.3-0.2,0.3,0,0.5l1.8,1.3
				c2,1.5,4.1,0.7,5.8-1.7c1.6-2.2,1.7-4.4-0.4-5.8L73.6,235.9z"/>
			<path class="st0" d="M97.5,277.3c-2.4-3.5-3.5-8.4-1.6-15.9c1.9-7.6,5.2-11.4,8.9-13.4c3.6-1.8,7.7-1.9,12.1-0.9
				c4.3,1,7.9,3,10.2,6.2c2.4,3.5,3.5,8.4,1.6,15.9c-1.9,7.6-5.2,11.4-8.9,13.4c-3.6,1.8-7.7,1.9-12.1,0.9
				C103.4,282.4,99.8,280.5,97.5,277.3z M110.3,255.2c-2.1,1.4-3.8,4.4-4.8,8.4c-1,4.2-0.9,7.6,0.3,9.8c0.9,1.4,2.2,2.2,3.8,2.6
				c1.6,0.4,3.1,0.2,4.5-0.6c2.1-1.4,3.8-4.4,4.8-8.4c1-4.2,0.9-7.6-0.4-9.8c-0.9-1.4-2.1-2.2-3.8-2.6
				C113.1,254.2,111.6,254.4,110.3,255.2z"/>
			<path class="st0" d="M201.9,266.6c-0.8-0.5-0.9-0.9-0.4-1.5l4-5.5c0.5-0.7,0.9-0.6,1.5-0.2c2.1,1.5,3.9,1.7,5.8,0.5
				c2.3-1.4,2.7-3.5,1.6-5.2c-0.6-0.9-1.7-1.9-3.9-1.5l-3.7,0.7c-6.9,1.3-10.9-0.2-13.7-4.6c-1.5-2.4-2-4.9-1.4-7.6
				c0.6-2.7,2.4-5.2,5.7-7.2c3.8-2.4,7.7-3,11.7-0.4c1.1,0.7,1.1,1.2,0.7,1.7l-3.4,4.7c-0.3,0.2-0.5,0.3-0.8,0.1
				c-1.6-1.3-2.8-1.3-4.3-0.4c-1.7,1-1.9,2.7-1.2,3.8c0.9,1.4,1.7,1.8,4.5,1.2l3.7-0.8c7.3-1.5,11.3,0.7,13.7,4.5
				c1.6,2.6,2.2,5.6,1.4,8.7c-0.8,3.2-3.2,6.1-6.9,8.4C211.1,269.5,207.3,269.7,201.9,266.6z"/>
			<path class="st0" d="M251.5,234.6l-4.6,5.3c-0.4,0.5-1.1,0.5-1.6,0.1L220,218.3c-0.5-0.4-0.5-1.1-0.1-1.6l4.6-5.3
				c0.4-0.5,1.2-0.6,1.6-0.2l25.3,21.7C251.8,233.3,251.9,234.1,251.5,234.6z"/>
			<path class="st0" d="M268.1,209.8c-0.2,0.4-0.6,0.6-1,0.4l-31.5-13c-0.4-0.2-0.6-0.6-0.4-1l4.4-10.7c1.8-4.3,3-6,4.6-7.1
				c2.3-1.7,4.9-1.8,7.8-0.6c3.1,1.3,5.1,4,4.8,7.1l-0.1,0.4l0.2-0.3c2.4-3.6,6.7-4.8,11.1-3c6.5,2.7,7.8,9,4.8,16.4L268.1,209.8z
				 M245.3,190.8c-0.1,0.2,0,0.4,0.2,0.5l4.8,2c0.2,0.1,0.4,0,0.5-0.2l0.7-1.6c0.8-2,0.2-3.6-1.4-4.3c-1.6-0.7-3.1-0.2-4,2
				L245.3,190.8z M257.5,195.8c-0.1,0.2,0,0.4,0.2,0.5l6.5,2.7c0.2,0.1,0.4,0,0.5-0.2l0.8-2c1.1-2.7,0.5-4.6-1.7-5.5
				c-2.2-0.9-4.3-0.5-5.6,2.7L257.5,195.8z"/>
			<path class="st0" d="M282.4,141.1c0.6,0,1.1,0.6,1.1,1.2l-0.9,18.4c0,0.6-0.6,1.1-1.2,1.1l-33.3-1.7c-0.6,0-1.1-0.6-1.1-1.2
				l0.3-7c0-0.7,0.6-1.2,1.2-1.1l26.6,1.3c0.1,0,0.3-0.1,0.3-0.3l0.5-9.9c0-0.6,0.6-1.1,1.2-1.1L282.4,141.1z"/>
			<path class="st0" d="M277.6,108.4c0.4-0.1,0.8,0.1,0.9,0.4l1.8,7.8c0.1,0.4-0.2,0.7-0.6,0.8l-13.7,3.2L249.1,134
				c-0.8,0.6-1.2,0.3-1.4-0.2l-2-8.7c-0.1-0.2,0.1-0.4,0.3-0.5l10-6.7l-11.8-1.3c-0.3,0-0.5-0.1-0.6-0.4l-1.9-8
				c-0.1-0.5,0.3-0.8,1-0.7l21.2,4.2L277.6,108.4z"/>
			<g>
				<path class="st0" d="M38.6,166.7L38.6,166.7c-1.8-6.9-5.9-11.2-12.6-12.9c-2.8-0.7-6.2-0.6-9.6,0.2c-3.9,1-7.2,2.7-9.4,5
					c-4.4,4.4-5.7,9.9-4.1,16.4c1.6,6.4,5.1,11.1,9.8,13.4c0,0,0.5,0.3,0.5,0.3c0.2,0,0.7,0.2,1.1-0.4c0,0,2.9-4.7,3-4.7
					c0-0.1,0-0.4,0.1-0.9c-0.1-0.2-0.3-0.4-0.5-0.6c-2.5-1.4-5.2-4.8-5.9-7.4c-1-4.1,0.3-6.3,1.6-7.4c0.2-0.1,0.5-0.4,0.9-0.3
					c0.3,0,0.6,0.3,0.9,0.7c2.9,5.1,7.2,11.5,9.5,14.1c2.4,2.6,3.6,3.1,6.1,2.5c2.8-0.7,5.4-2.7,7-5.5
					C39.2,175.7,39.8,171.3,38.6,166.7z M27.8,163.7c0,0,0.5,0.2,0.5,0.2c1.7,1.1,2.9,2.6,3.4,4.6c0.4,1.7,0.3,3.2-0.5,4.4
					c-0.6,1-1.6,1.8-2.8,2.1c-0.9,0.2-1.7-0.1-2.4-0.9c-1.4-1.8-4.8-7.3-5.7-9c-0.2-0.5-0.5-1-0.2-1.5c0.2-0.4,0.7-0.6,1-0.6
					c1.8-0.5,3.6-0.4,5.3,0.1l1.3,0.5C27.7,163.6,27.8,163.7,27.8,163.7z"/>
			</g>
			<path class="st0" d="M157.3,265.5l2.9,19c0.1,0.6-0.3,1.2-1,1.3l-6.1,1c-0.6,0.1-1.3-0.3-1.4-0.9l-4.8-32.2
				c-0.1-0.6,0.4-1.2,1-1.3c0,0,8-1.1,8.5-1.1c0.6,0,1,0.1,1.2,0.5l12,16.9l-3.9-18.8c-0.2-0.6,0.2-1.2,0.8-1.4l5.8-1.4
				c0.6-0.1,1.2,0.2,1.4,0.8l7,32.4c0.1,0.6-0.2,1.2-0.8,1.4l-8.4,2.1c-0.5,0.1-1-0.1-1.3-0.5L157.3,265.5z"/>
		</g>
	</g>
</g>
</svg>
