<?xml version="1.0" encoding="utf-8"?>
<!-- Generator: Adobe Illustrator 22.1.0, SVG Export Plug-In . SVG Version: 6.00 Build 0)  -->
<svg version="1.1" id="Capa_1" xmlns="http://www.w3.org/2000/svg" xmlns:xlink="http://www.w3.org/1999/xlink" x="0px" y="0px"
	 viewBox="0 0 430.9 430.9" style="enable-background:new 0 0 430.9 430.9;" xml:space="preserve">
<style type="text/css">
	.st0{fill:#FFFFFF;}
</style>
<g>
	<path class="st0" d="M430.9,157.4c0-58.9-47.9-106.8-106.8-106.8H106.8c-28.5,0-55.3,11.1-75.5,31.3C11.1,102.1,0,128.9,0,157.4
		l0,116c0,58.9,47.9,106.8,106.8,106.8h217.3c58.9,0,106.8-47.9,106.8-106.8l0,0L430.9,157.4z M324.1,62.7
		c52.3,0,94.8,42.5,94.8,94.8l0,66.8c-17.8-34.2-53.6-57.7-94.8-57.7h-28.5v-104H324.1z M106.8,252.2c-29.4,0-57-13.7-75-36.8
		c17.4-22.4,44.5-36.8,75-36.8h217.3c30.5,0,57.6,14.4,75,36.8c-2.4,3.2-5.1,6.2-7.9,9c-17.9,17.9-41.7,27.8-67,27.8H106.8z
		 M147.3,62.7h136.3v104H147.3V62.7z M12,157.4c0-25.3,9.9-49.1,27.8-67c17.9-17.9,41.7-27.8,67-27.8h28.5v104h-28.5
		c-41.2,0-77,23.4-94.8,57.7L12,157.4z M12,273.4c0-17.3,4.7-33.6,12.8-47.5c20.2,24.2,50.2,38.4,82,38.4h128.8v104H106.8
		C54.5,368.2,12,325.7,12,273.4z M324.1,368.2h-76.5v-104h76.4c28.5,0,55.4-11.1,75.5-31.3c2.3-2.3,4.4-4.6,6.5-7.1
		c8.1,14,12.8,30.2,12.8,47.5C418.8,325.7,376.3,368.2,324.1,368.2z"/>
	<path class="st0" d="M183.7,76.8c-11.5,0-20.9,9.4-20.9,20.9v33.6c0,11.5,9.4,20.9,20.9,20.9s20.9-9.4,20.9-20.9V97.7
		C204.6,86.2,195.2,76.8,183.7,76.8z M192.6,131.3c0,4.9-4,8.9-8.9,8.9s-8.9-4-8.9-8.9V97.7c0-4.9,4-8.9,8.9-8.9s8.9,4,8.9,8.9
		V131.3z"/>
	<path class="st0" d="M130.7,291.1c-3.3,0-6,2.7-6,6v38.3c0,3.3,2.7,6,6,6s6-2.7,6-6v-38.3C136.7,293.8,134.1,291.1,130.7,291.1z"/>
	<path class="st0" d="M315.5,291.1c-3.3,0-6,2.7-6,6v38.3c0,3.3,2.7,6,6,6s6-2.7,6-6v-38.3C321.5,293.8,318.8,291.1,315.5,291.1z"/>
	<path class="st0" d="M278.6,291.1c-3.3,0-6,2.7-6,6v38.3c0,3.3,2.7,6,6,6s6-2.7,6-6v-38.3C284.6,293.8,281.9,291.1,278.6,291.1z"/>
	<path class="st0" d="M167.7,291.1c-3.3,0-6,2.7-6,6v38.3c0,3.3,2.7,6,6,6s6-2.7,6-6v-38.3C173.7,293.8,171,291.1,167.7,291.1z"/>
	<path class="st0" d="M204.7,291.1c-3.3,0-6,2.7-6,6v38.3c0,3.3,2.7,6,6,6s6-2.7,6-6v-38.3C210.7,293.8,208,291.1,204.7,291.1z"/>
</g>
</svg>
