<svg xmlns="http://www.w3.org/2000/svg" xmlns:xlink="http://www.w3.org/1999/xlink" width="48.08" height="42.884" viewBox="0 0 48.08 42.884">
  <defs>
    <linearGradient id="linear-gradient" x1="-0.48" y1="2.054" x2="0.8" y2="0.137" gradientUnits="objectBoundingBox">
      <stop offset="0" stop-color="#cb00f0"/>
      <stop offset="1" stop-color="#e867a7"/>
    </linearGradient>
  </defs>
  <g id="Grupo_397" data-name="Grupo 397" transform="translate(-231 -1598.268)">
    <path id="Trazado_985" data-name="Trazado 985" d="M546.5,3244.667h19.4a4.648,4.648,0,0,1,4.023,2.323l9.7,16.8a4.646,4.646,0,0,1,0,4.646l-9.7,16.8a4.648,4.648,0,0,1-4.023,2.323H546.5a4.648,4.648,0,0,1-4.023-2.323l-9.7-16.8a4.647,4.647,0,0,1,0-4.646l9.7-16.8A4.648,4.648,0,0,1,546.5,3244.667Z" transform="translate(-301.153 -1646.399)" fill="url(#linear-gradient)"/>
    <g id="chart" transform="translate(244 1608)">
      <path id="Trazado_1046" data-name="Trazado 1046" d="M21.872,21.212H2.286a.967.967,0,0,1-.966-.966V.66A.66.66,0,1,0,0,.66V20.246a2.289,2.289,0,0,0,2.286,2.286H21.872a.66.66,0,1,0,0-1.32Zm0,0" fill="#fff"/>
      <path id="Trazado_1047" data-name="Trazado 1047" d="M58.62,85.635H75.78a.809.809,0,0,0,.808-.808v-12a.933.933,0,0,0-1.341-.84l-3.705,1.654-3.183-.549-2.975-4.045a.936.936,0,0,0-.944-.36l-5.885,1.238a.938.938,0,0,0-.741.913V84.827A.809.809,0,0,0,58.62,85.635Zm7.251-6.949a.935.935,0,0,0,.816.479c.027,0,.055,0,.082,0l4.784-.424a.931.931,0,0,0,.466-.174l3.248-2.2v4.265l-3.972-.7a.937.937,0,0,0-.6.09L66.96,81.966,64.3,80.049a.937.937,0,0,0-.47-.173l-4.7-.384V75.005l5.093.726Zm-6.739,5.628v-3.5l4.483.367,2.765,1.994a.929.929,0,0,0,.977.07l3.826-2,4.082.721v2.341Zm5.334-14.282L67.387,74a.929.929,0,0,0,.593.367l3.454.6a.939.939,0,0,0,.566-.08l3.268-1.459v1.348l-3.932,2.657-4.433.393-1.617-2.9a.938.938,0,0,0-.684-.47l-5.469-.78V71.155Zm0,0" transform="translate(-55.268 -65.647)" fill="#fff"/>
    </g>
  </g>
</svg>
