<svg xmlns="http://www.w3.org/2000/svg" xmlns:xlink="http://www.w3.org/1999/xlink" width="48.081" height="42.884" viewBox="0 0 48.081 42.884">
  <defs>
    <linearGradient id="linear-gradient" x1="-0.357" y1="1.738" x2="0.923" y2="-0.184" gradientUnits="objectBoundingBox">
      <stop offset="0" stop-color="#f07800"/>
      <stop offset="1" stop-color="#e867a7"/>
    </linearGradient>
  </defs>
  <g id="Grupo_413" data-name="Grupo 413" transform="translate(-231 -1426)">
    <g id="Grupo_198" data-name="Grupo 198" transform="translate(0 -170)">
      <path id="Trazado_984" data-name="Trazado 984" d="M546.5,3244.667h19.4a4.648,4.648,0,0,1,4.023,2.323l9.7,16.8a4.646,4.646,0,0,1,0,4.646l-9.7,16.8a4.648,4.648,0,0,1-4.023,2.323H546.5a4.648,4.648,0,0,1-4.023-2.323l-9.7-16.8a4.647,4.647,0,0,1,0-4.646l9.7-16.8A4.648,4.648,0,0,1,546.5,3244.667Z" transform="translate(-301.153 -1648.667)" fill="url(#linear-gradient)"/>
    </g>
    <path id="Trazado_1203" data-name="Trazado 1203" d="M31.833,44.167A12.333,12.333,0,1,1,44.167,31.833,12.351,12.351,0,0,1,31.833,44.167Zm0-22.946A10.612,10.612,0,1,0,42.446,31.833,10.625,10.625,0,0,0,31.833,21.221Zm0,14.083A3.471,3.471,0,1,1,35.3,31.833h0A3.464,3.464,0,0,1,31.833,35.3Zm0-5.22a1.75,1.75,0,1,0,1.75,1.75h0A1.738,1.738,0,0,0,31.833,30.084Zm0,7.515a.845.845,0,0,1-.86-.86V34.443a.86.86,0,0,1,1.721,0v2.295A.863.863,0,0,1,31.833,37.6Zm0-7.515a.845.845,0,0,1-.86-.86V26.929a.86.86,0,0,1,1.721,0v2.295A.845.845,0,0,1,31.833,30.084Zm-2.61,2.61H26.929a.86.86,0,0,1,0-1.721h2.295a.86.86,0,0,1,0,1.721Zm7.515,0H34.443a.86.86,0,0,1,0-1.721h2.295a.845.845,0,0,1,.86.86A.863.863,0,0,1,36.738,32.694Zm-14.083,0H20.36a.86.86,0,0,1,0-1.721h2.295a.86.86,0,0,1,0,1.721Zm20.651,0H41.012a.86.86,0,0,1,0-1.721h2.295a.845.845,0,0,1,.86.86A.863.863,0,0,1,43.306,32.694ZM31.833,23.516a.845.845,0,0,1-.86-.86V20.36a.86.86,0,0,1,1.721,0v2.295A.845.845,0,0,1,31.833,23.516Zm0,20.651a.845.845,0,0,1-.86-.86V41.012a.86.86,0,0,1,1.721,0v2.295A.863.863,0,0,1,31.833,44.167Z" transform="translate(223.5 1415.232)" fill="#fff"/>
  </g>
</svg>
