<svg xmlns="http://www.w3.org/2000/svg" xmlns:xlink="http://www.w3.org/1999/xlink" width="48.081" height="42.884" viewBox="0 0 48.081 42.884">
  <defs>
    <linearGradient id="linear-gradient" x1="0.789" x2="0" y2="1.618" gradientUnits="objectBoundingBox">
      <stop offset="0" stop-color="#8916db"/>
      <stop offset="0.433" stop-color="#6e45ce"/>
      <stop offset="1" stop-color="#0082e1"/>
    </linearGradient>
  </defs>
  <g id="Grupo_432" data-name="Grupo 432" transform="translate(-231 -1861)">
    <g id="Grupo_202" data-name="Grupo 202" transform="translate(0 -214)">
      <path id="Trazado_976" data-name="Trazado 976" d="M546.5,3244.667h19.4a4.648,4.648,0,0,1,4.023,2.323l9.7,16.8a4.646,4.646,0,0,1,0,4.646l-9.7,16.8a4.648,4.648,0,0,1-4.023,2.323H546.5a4.648,4.648,0,0,1-4.023-2.323l-9.7-16.8a4.647,4.647,0,0,1,0-4.646l9.7-16.8A4.648,4.648,0,0,1,546.5,3244.667Z" transform="translate(-301.153 -1169.667)" fill="url(#linear-gradient)"/>
    </g>
    <g id="Grupo_401" data-name="Grupo 401" transform="translate(206.158 1852.155)">
      <path id="Trazado_1205" data-name="Trazado 1205" d="M38.763,38.621h6a4.371,4.371,0,0,0,8.7,0h5.785a.921.921,0,0,0,.921-.921,5.115,5.115,0,0,0-1.178-3.188,4.408,4.408,0,0,0-1.577-1.236V29.63a8.533,8.533,0,0,0-2.473-6.04,8.422,8.422,0,0,0-2.866-1.907v-.325a3.114,3.114,0,0,0-6.228,0v.325a8.423,8.423,0,0,0-2.866,1.907,8.533,8.533,0,0,0-2.473,6.04v3.687a4.443,4.443,0,0,0-1.49,1.2A5.115,5.115,0,0,0,37.842,37.7.921.921,0,0,0,38.763,38.621Zm10.35,2.114a2.569,2.569,0,0,1-2.492-2.114H51.6A2.569,2.569,0,0,1,49.113,40.735Zm-.151-20.649a1.273,1.273,0,0,1,1.259,1.094,8.528,8.528,0,0,0-2.518,0A1.273,1.273,0,0,1,48.962,20.086Zm0,2.843a6.663,6.663,0,0,1,6.61,6.7v3.323H42.352V29.63A6.664,6.664,0,0,1,48.962,22.929ZM42.077,34.8H55.935a2.653,2.653,0,0,1,2.236,1.983H39.841A2.653,2.653,0,0,1,42.077,34.8Z" transform="translate(0)" fill="#fff"/>
    </g>
  </g>
</svg>
