<svg xmlns="http://www.w3.org/2000/svg" width="9.257" height="25.704" viewBox="0 0 9.257 25.704">
  <g id="Grupo_353" data-name="Grupo 353" transform="translate(18229.715 -479.803)">
    <g id="Símbolo_7_1" data-name="Símbolo 7 1" transform="translate(-18440.189 522.047)">
      <path id="Trazado_10" data-name="Trazado 10" d="M215.142-24.953h-.116a2.545,2.545,0,0,1-2.476-2.107l-2.076-10.555a4.629,4.629,0,0,1,4.629-4.629h0a4.629,4.629,0,0,1,4.628,4.629l-.021.329-2.05,10.248A2.545,2.545,0,0,1,215.142-24.953Zm-.059-2.181a.393.393,0,0,0,.435-.315l2.032-10.166A2.447,2.447,0,0,0,215.1-40.06h0a2.446,2.446,0,0,0-2.444,2.35L214.7-27.466a.381.381,0,0,0,.385.332Z" fill="#29a9ff"/>
      <path id="Trazado_11" data-name="Trazado 11" d="M215.1-16.54a3.694,3.694,0,0,1-3.7-3.692,3.7,3.7,0,0,1,3.692-3.7h.005a3.7,3.7,0,0,1,3.7,3.692,3.7,3.7,0,0,1-3.692,3.7Zm0-5.209a1.515,1.515,0,0,0-1.481,1.547,1.514,1.514,0,0,0,1.481,1.48h0a1.513,1.513,0,0,0,1.48-1.546A1.515,1.515,0,0,0,215.1-21.749Z" fill="#29a9ff"/>
    </g>
  </g>
</svg>
