<svg xmlns="http://www.w3.org/2000/svg" xmlns:xlink="http://www.w3.org/1999/xlink" width="48.081" height="42.884" viewBox="0 0 48.081 42.884">
  <defs>
    <linearGradient id="linear-gradient" x1="-0.357" y1="1.738" x2="0.923" y2="-0.184" gradientUnits="objectBoundingBox">
      <stop offset="0" stop-color="#f07800"/>
      <stop offset="1" stop-color="#e867a7"/>
    </linearGradient>
  </defs>
  <g id="Grupo_428" data-name="Grupo 428" transform="translate(-231 -2269)">
    <g id="Grupo_425" data-name="Grupo 425" transform="translate(0 673)">
      <path id="Trazado_984" data-name="Trazado 984" d="M546.5,3244.667h19.4a4.648,4.648,0,0,1,4.023,2.323l9.7,16.8a4.646,4.646,0,0,1,0,4.646l-9.7,16.8a4.648,4.648,0,0,1-4.023,2.323H546.5a4.648,4.648,0,0,1-4.023-2.323l-9.7-16.8a4.647,4.647,0,0,1,0-4.646l9.7-16.8A4.648,4.648,0,0,1,546.5,3244.667Z" transform="translate(-301.153 -1648.667)" fill="url(#linear-gradient)"/>
    </g>
    <g id="Grupo_427" data-name="Grupo 427" transform="translate(240.5 2275.5)">
      <g id="Grupo_426" data-name="Grupo 426" transform="translate(2.5 2.5)">
        <path id="Trazado_1216" data-name="Trazado 1216" d="M23.865,20.2a3.821,3.821,0,0,0-2.028.606l-1.87-1.87a6.216,6.216,0,0,0,0-7.85L21.81,9.244a3.542,3.542,0,0,0,2.028.606,3.662,3.662,0,1,0,0-7.323A3.609,3.609,0,0,0,20.2,6.162a3.731,3.731,0,0,0,.606,2l-1.87,1.87a6.216,6.216,0,0,0-7.85,0L9.244,8.164a3.731,3.731,0,0,0,.606-2A3.675,3.675,0,1,0,6.162,9.823,3.822,3.822,0,0,0,8.19,9.218l1.844,1.844a6.216,6.216,0,0,0,0,7.85l-1.87,1.844a3.519,3.519,0,0,0-2-.606,3.662,3.662,0,1,0,3.662,3.662,3.731,3.731,0,0,0-.606-2l1.844-1.87a6.216,6.216,0,0,0,7.85,0l1.844,1.87a3.542,3.542,0,0,0-.606,2.028,3.662,3.662,0,1,0,7.323,0A3.587,3.587,0,0,0,23.865,20.2Zm0-16.228a2.187,2.187,0,1,1-2.187,2.187A2.181,2.181,0,0,1,23.865,3.975ZM19.913,15.013a4.8,4.8,0,0,1-1.9,3.82,3.1,3.1,0,0,0-6.006,0,4.883,4.883,0,1,1,7.9-3.82ZM3.975,6.162A2.187,2.187,0,1,1,6.162,8.348,2.181,2.181,0,0,1,3.975,6.162ZM6.162,26.051a2.187,2.187,0,1,1,2.187-2.187A2.181,2.181,0,0,1,6.162,26.051Zm17.7,0a2.187,2.187,0,1,1,2.187-2.187A2.181,2.181,0,0,1,23.865,26.051Z" transform="translate(-2.5 -2.5)" fill="#fff"/>
        <circle id="Elipse_142" data-name="Elipse 142" cx="2.107" cy="2.107" r="2.107" transform="translate(10.406 9.352)" fill="#fff"/>
      </g>
    </g>
  </g>
</svg>
