<svg xmlns="http://www.w3.org/2000/svg" xmlns:xlink="http://www.w3.org/1999/xlink" width="48.081" height="42.884" viewBox="0 0 48.081 42.884">
  <defs>
    <linearGradient id="linear-gradient" x1="-0.48" y1="2.054" x2="0.8" y2="0.137" gradientUnits="objectBoundingBox">
      <stop offset="0" stop-color="#cb00f0"/>
      <stop offset="1" stop-color="#e867a7"/>
    </linearGradient>
  </defs>
  <g id="Grupo_380" data-name="Grupo 380" transform="translate(-231 -1586)">
    <g id="Grupo_199" data-name="Grupo 199" transform="translate(0 -257)">
      <path id="Trazado_985" data-name="Trazado 985" d="M546.5,3244.667h19.4a4.648,4.648,0,0,1,4.023,2.323l9.7,16.8a4.646,4.646,0,0,1,0,4.646l-9.7,16.8a4.648,4.648,0,0,1-4.023,2.323H546.5a4.648,4.648,0,0,1-4.023-2.323l-9.7-16.8a4.647,4.647,0,0,1,0-4.646l9.7-16.8A4.648,4.648,0,0,1,546.5,3244.667Z" transform="translate(-301.153 -1401.667)" fill="url(#linear-gradient)"/>
    </g>
    <g id="idea" transform="translate(213.133 1595.269)">
      <g id="Grupo_218" data-name="Grupo 218" transform="translate(29.867)">
        <g id="Grupo_217" data-name="Grupo 217" transform="translate(0)">
          <path id="Trazado_997" data-name="Trazado 997" d="M41.934,0a9.262,9.262,0,0,0-9.251,9.251v1.482L29.94,14.652a.4.4,0,0,0,.329.633h2.413V18.1A2.819,2.819,0,0,0,35.5,20.916h1.609v2.816a.4.4,0,0,0,.4.4H47.967a.4.4,0,0,0,.4-.4v-.5A23.706,23.706,0,0,1,50.1,14.464a14.429,14.429,0,0,0,1.088-5.2V9.251A9.261,9.261,0,0,0,41.934,0Zm7.418,14.161a24.53,24.53,0,0,0-1.787,9.068v.1H37.912V20.513a.4.4,0,0,0-.4-.4H35.5A2.013,2.013,0,0,1,33.487,18.1V14.882a.4.4,0,0,0-.4-.4H31.042l2.373-3.39a.4.4,0,0,0,.073-.23V9.251a8.447,8.447,0,0,1,16.893,0A13.635,13.635,0,0,1,49.352,14.161Z" transform="translate(-29.867 0)" fill="#fff" stroke="#fff" stroke-width="0.5"/>
        </g>
      </g>
      <g id="Grupo_220" data-name="Grupo 220" transform="translate(37.107 4.414)">
        <g id="Grupo_219" data-name="Grupo 219">
          <path id="Trazado_998" data-name="Trazado 998" d="M188.3,93.645h-.011a4.827,4.827,0,0,0-3.079,8.544,1.929,1.929,0,0,1,.666,1.522v2.011a1.208,1.208,0,0,0,1.207,1.207H189.5a1.208,1.208,0,0,0,1.207-1.207v-2.109a1.916,1.916,0,0,1,.71-1.457,4.83,4.83,0,0,0-3.113-8.511Zm2.6,7.892a2.718,2.718,0,0,0-1,2.07v2.116a.4.4,0,0,1-.4.4h-2.413a.4.4,0,0,1-.4-.4v-2a2.73,2.73,0,0,0-.95-2.147,4.022,4.022,0,0,1,2.56-7.125h.009a4.027,4.027,0,0,1,4.013,4.032h0A3.986,3.986,0,0,1,190.9,101.537Z" transform="translate(-183.467 -93.645)" fill="#fff" stroke="#fff" stroke-width="0.5"/>
        </g>
      </g>
      <g id="Grupo_222" data-name="Grupo 222" transform="translate(39.923 14.48)">
        <g id="Grupo_221" data-name="Grupo 221">
          <rect id="Rectángulo_113" data-name="Rectángulo 113" width="4.022" height="0.804" fill="#fff" stroke="#fff" stroke-width="0.5"/>
        </g>
      </g>
      <g id="Grupo_224" data-name="Grupo 224" transform="translate(39.923 8.849)">
        <g id="Grupo_223" data-name="Grupo 223">
          <path id="Trazado_999" data-name="Trazado 999" d="M247.172,187.945a.4.4,0,0,0-.355-.212H243.6a.4.4,0,0,0-.335.625l.737,1.105v4.3h.8v-4.424a.4.4,0,0,0-.068-.223l-.388-.581h1.715l-.388.581a.4.4,0,0,0-.068.223v4.424h.8v-4.3l.737-1.106A.4.4,0,0,0,247.172,187.945Z" transform="translate(-243.197 -187.733)" fill="#fff" stroke="#fff" stroke-width="0.5"/>
        </g>
      </g>
      <g id="Grupo_226" data-name="Grupo 226" transform="translate(41.532 2.011)">
        <g id="Grupo_225" data-name="Grupo 225">
          <rect id="Rectángulo_114" data-name="Rectángulo 114" width="0.804" height="1.609" fill="#fff" stroke="#fff" stroke-width="0.5"/>
        </g>
      </g>
      <g id="Grupo_228" data-name="Grupo 228" transform="translate(34.694 8.849)">
        <g id="Grupo_227" data-name="Grupo 227" transform="translate(0)">
          <rect id="Rectángulo_115" data-name="Rectángulo 115" width="1.609" height="0.804" fill="#fff" stroke="#fff" stroke-width="0.5"/>
        </g>
      </g>
      <g id="Grupo_230" data-name="Grupo 230" transform="translate(47.565 8.447)">
        <g id="Grupo_229" data-name="Grupo 229" transform="translate(0)">
          <rect id="Rectángulo_116" data-name="Rectángulo 116" width="1.609" height="0.804" fill="#fff" stroke="#fff" stroke-width="0.5"/>
        </g>
      </g>
      <g id="Grupo_232" data-name="Grupo 232" transform="translate(36.421 3.738)">
        <g id="Grupo_231" data-name="Grupo 231" transform="translate(0 0)">
          <rect id="Rectángulo_117" data-name="Rectángulo 117" width="0.804" height="1.707" transform="translate(0 0.569) rotate(-45)" fill="#fff" stroke="#fff" stroke-width="0.5"/>
        </g>
      </g>
      <g id="Grupo_234" data-name="Grupo 234" transform="translate(45.672 3.739)">
        <g id="Grupo_233" data-name="Grupo 233" transform="translate(0 0)">
          <rect id="Rectángulo_118" data-name="Rectángulo 118" width="1.707" height="0.804" transform="translate(0 1.207) rotate(-45)" fill="#fff" stroke="#fff" stroke-width="0.5"/>
        </g>
      </g>
      <g id="Grupo_236" data-name="Grupo 236" transform="translate(36.019 12.586)">
        <g id="Grupo_235" data-name="Grupo 235" transform="translate(0 0)">
          <rect id="Rectángulo_119" data-name="Rectángulo 119" width="1.707" height="0.804" transform="translate(0 1.207) rotate(-45)" fill="#fff" stroke="#fff" stroke-width="0.5"/>
        </g>
      </g>
      <g id="Grupo_238" data-name="Grupo 238" transform="translate(46.074 12.587)">
        <g id="Grupo_237" data-name="Grupo 237" transform="translate(0 0)">
          <rect id="Rectángulo_120" data-name="Rectángulo 120" width="0.804" height="1.707" transform="translate(0 0.569) rotate(-45)" fill="#fff" stroke="#fff" stroke-width="0.5"/>
        </g>
      </g>
    </g>
  </g>
</svg>
