<svg xmlns="http://www.w3.org/2000/svg" width="37.887" height="19.715" viewBox="0 0 37.887 19.715">
  <g id="Símbolo_11_1" data-name="Símbolo 11 1" transform="translate(-47.454 -5.143)">
    <path id="Trazado_20" data-name="Trazado 20" d="M56.341,24.459a1.281,1.281,0,0,0,1.812.045l.045-.045a1.281,1.281,0,0,0,.046-1.811c-.015-.016-.031-.031-.046-.046l-7.561-7.628L58.2,7.479a1.313,1.313,0,0,0-1.857-1.857l-8.49,8.424a1.283,1.283,0,0,0-.043,1.814c.014.015.028.029.043.043Z" fill="#f95c32"/>
    <path id="Trazado_20-2" data-name="Trazado 20" d="M76.453,5.636a1.281,1.281,0,0,0-1.812-.045c-.016.015-.03.029-.045.045a1.281,1.281,0,0,0-.046,1.811l.046.046,7.561,7.628L74.6,22.616a1.313,1.313,0,1,0,1.857,1.857l8.49-8.424a1.283,1.283,0,0,0,.043-1.814l-.043-.043Z" fill="#f95c32"/>
    <path id="Trazado_21" data-name="Trazado 21" d="M61.216,24.658a.977.977,0,0,0,.6.133,1.4,1.4,0,0,0,1.194-.73l9.153-16.98a1.321,1.321,0,0,0-2.322-1.26L60.688,22.867a1.255,1.255,0,0,0,.41,1.727A1.032,1.032,0,0,0,61.216,24.658Z" fill="#f95c32"/>
  </g>
</svg>
