<svg xmlns="http://www.w3.org/2000/svg" xmlns:xlink="http://www.w3.org/1999/xlink" width="48.08" height="42.884" viewBox="0 0 48.08 42.884">
  <defs>
    <linearGradient id="linear-gradient" x1="-0.48" y1="2.054" x2="0.8" y2="0.137" gradientUnits="objectBoundingBox">
      <stop offset="0" stop-color="#cb00f0"/>
      <stop offset="1" stop-color="#e867a7"/>
    </linearGradient>
  </defs>
  <g id="Grupo_423" data-name="Grupo 423" transform="translate(-231 -1673.268)">
    <g id="Grupo_402" data-name="Grupo 402" transform="translate(0 21.268)">
      <g id="Grupo_199" data-name="Grupo 199" transform="translate(0 -191)">
        <path id="Trazado_985" data-name="Trazado 985" d="M546.5,3244.667h19.4a4.648,4.648,0,0,1,4.023,2.323l9.7,16.8a4.646,4.646,0,0,1,0,4.646l-9.7,16.8a4.648,4.648,0,0,1-4.023,2.323H546.5a4.648,4.648,0,0,1-4.023-2.323l-9.7-16.8a4.647,4.647,0,0,1,0-4.646l9.7-16.8A4.648,4.648,0,0,1,546.5,3244.667Z" transform="translate(-301.153 -1401.667)" fill="url(#linear-gradient)"/>
      </g>
    </g>
    <g id="Grupo_408" data-name="Grupo 408" transform="translate(240.9 1679.9)">
      <path id="Trazado_1210" data-name="Trazado 1210" d="M13.217,15.983a1.956,1.956,0,1,1,2.766.026A1.994,1.994,0,0,1,13.217,15.983Zm-1.54-5.819a5.386,5.386,0,0,1,1.931-.783V8.389a.457.457,0,0,1,.444-.444h1.2a.457.457,0,0,1,.444.444v.992a4.738,4.738,0,0,1,1.9.809l.7-.7a.449.449,0,0,1,.626,0l.835.835a.449.449,0,0,1,0,.626l-.731.731a5.386,5.386,0,0,1,.783,1.931h.992a.457.457,0,0,1,.444.444v1.2a.457.457,0,0,1-.444.444h-.992a4.738,4.738,0,0,1-.809,1.9l.7.7a.449.449,0,0,1,0,.626l-.835.835a.449.449,0,0,1-.626,0l-.731-.731a5.386,5.386,0,0,1-1.931.783v.992a.457.457,0,0,1-.444.444h-1.2a.457.457,0,0,1-.444-.444v-.992a4.738,4.738,0,0,1-1.9-.809l-.7.7a.449.449,0,0,1-.626,0l-.835-.835a.449.449,0,0,1,0-.626l.7-.7a5.386,5.386,0,0,1-.783-1.931H8.363a.457.457,0,0,1-.444-.444v-1.2a.457.457,0,0,1,.444-.444h.992a4.738,4.738,0,0,1,.809-1.9l-.7-.7a.449.449,0,0,1,0-.626l.835-.835a.449.449,0,0,1,.626,0Zm.757,2.244a3.064,3.064,0,0,0-.026,4.358,3.1,3.1,0,1,0,.026-4.358Zm4.958-3.6h-.809V5.623A2.216,2.216,0,0,1,18.8,3.4h.678a1.7,1.7,0,1,1,0,.835h-.7a1.4,1.4,0,0,0-1.409,1.409V8.807ZM20.21,3.8a.887.887,0,1,0,.887-.887A.9.9,0,0,0,20.21,3.8ZM14.182,7.11V5.466a1.7,1.7,0,1,1,.835,0V7.11ZM14.6,4.683a.887.887,0,1,0-.887-.887A.88.88,0,0,0,14.6,4.683Zm-1.957.939V8.807h-.522a1.07,1.07,0,0,0-.287.026V5.623a1.4,1.4,0,0,0-1.409-1.409H9.746a1.7,1.7,0,1,1,0-.835h.678A2.256,2.256,0,0,1,12.643,5.623ZM8.989,3.8a.887.887,0,1,0-.887.887A.88.88,0,0,0,8.989,3.8Zm3.027,16.623h.626V23.6a2.216,2.216,0,0,1-2.218,2.218H9.746a1.7,1.7,0,1,1,0-.835h.678a1.4,1.4,0,0,0,1.409-1.409V20.393C11.886,20.393,11.938,20.419,12.016,20.419ZM8.989,25.4a.887.887,0,1,0-.887.887A.9.9,0,0,0,8.989,25.4Zm7.307,0a1.7,1.7,0,1,1-2.114-1.644V22.115h.809v1.618A1.709,1.709,0,0,1,16.3,25.4Zm-.809,0a.887.887,0,1,0-.887.887A.9.9,0,0,0,15.487,25.4Zm7.307,0a1.7,1.7,0,0,1-3.34.418h-.678A2.216,2.216,0,0,1,16.557,23.6V20.419h.522a1.07,1.07,0,0,0,.287-.026V23.6a1.4,1.4,0,0,0,1.409,1.409h.678A1.707,1.707,0,0,1,21.1,23.733,1.639,1.639,0,0,1,22.794,25.4Zm-.809,0a.887.887,0,1,0-.887.887A.9.9,0,0,0,21.985,25.4ZM8.78,12.643H5.623A2.216,2.216,0,0,1,3.4,10.425V9.746a1.7,1.7,0,1,1,.835,0v.678a1.4,1.4,0,0,0,1.409,1.409H8.833v.809ZM4.683,8.1a.887.887,0,1,0-.887.887A.88.88,0,0,0,4.683,8.1Zm.783,6.106H7.11v.809H5.466a1.709,1.709,0,1,1,0-.809Zm-.783.391a.88.88,0,0,0-.887-.887.858.858,0,0,0-.861.887.88.88,0,0,0,.887.887A.858.858,0,0,0,4.683,14.6Zm-.47,4.175v.678a1.7,1.7,0,1,1-.835,0v-.678A2.216,2.216,0,0,1,5.6,16.557H8.78v.522a1.07,1.07,0,0,0,.026.287H5.623A1.437,1.437,0,0,0,4.214,18.775ZM3.8,20.21a.887.887,0,1,0,.887.887A.88.88,0,0,0,3.8,20.21Zm23.3.887a1.7,1.7,0,1,1-2.114-1.644v-.678a1.4,1.4,0,0,0-1.409-1.409H20.393v-.809h3.184a2.216,2.216,0,0,1,2.218,2.218v.678A1.707,1.707,0,0,1,27.1,21.1Zm-.835,0a.88.88,0,0,0-.887-.887.858.858,0,0,0-.861.887.88.88,0,0,0,.887.887A.858.858,0,0,0,26.265,21.1Zm.835-6.5a1.7,1.7,0,0,1-3.34.418H22.115v-.809h1.618a1.707,1.707,0,0,1,1.644-1.279A1.677,1.677,0,0,1,27.1,14.6Zm-.835,0a.88.88,0,0,0-.887-.887.858.858,0,0,0-.861.887.88.88,0,0,0,.887.887A.858.858,0,0,0,26.265,14.6ZM27.1,8.1a1.707,1.707,0,0,1-1.279,1.644v.678A2.216,2.216,0,0,1,23.6,12.643H20.419v-.522a1.07,1.07,0,0,0-.026-.287H23.6a1.4,1.4,0,0,0,1.409-1.409V9.746A1.693,1.693,0,1,1,27.1,8.1Zm-.835,0a.88.88,0,0,0-.887-.887.858.858,0,0,0-.861.887.88.88,0,0,0,.887.887A.858.858,0,0,0,26.265,8.1Z" transform="translate(0 0)" fill="#fff"/>
    </g>
  </g>
</svg>
