<svg xmlns="http://www.w3.org/2000/svg" width="20.206" height="27.859" viewBox="0 0 20.206 27.859">
  <g id="Grupo_349" data-name="Grupo 349" transform="translate(-56.294 43.047)">
    <path id="Trazado_1060" data-name="Trazado 1060" d="M73.334-39.843H72.8v-1.181a2.025,2.025,0,0,0-2.024-2.023h-8.75A2.025,2.025,0,0,0,60-41.024v1.181h-.539a3.169,3.169,0,0,0-3.165,3.166v18.324a3.169,3.169,0,0,0,3.165,3.165H73.334A3.169,3.169,0,0,0,76.5-18.353V-36.677A3.169,3.169,0,0,0,73.334-39.843Zm-11.312-1.2,8.774.023v4.329a.024.024,0,0,1-.024.024L62-36.695,62-37.843l.011-2ZM74.5-18.353a1.166,1.166,0,0,1-1.166,1.165H59.459a1.166,1.166,0,0,1-1.165-1.165V-36.677a1.167,1.167,0,0,1,1.165-1.166H60v1.148a2.026,2.026,0,0,0,2.024,2.024h8.75A2.026,2.026,0,0,0,72.8-36.695v-1.148h.538A1.167,1.167,0,0,1,74.5-36.677Z" fill="#3c69ff"/>
    <path id="Trazado_1061" data-name="Trazado 1061" d="M71.973-32.338H60.821a1,1,0,0,0-1,1,1,1,0,0,0,1,1H71.973a1,1,0,0,0,1-1A1,1,0,0,0,71.973-32.338Z" fill="#3c69ff"/>
    <path id="Trazado_1062" data-name="Trazado 1062" d="M71.973-27.526H60.821a1,1,0,0,0-1,1,1,1,0,0,0,1,1H71.973a1,1,0,0,0,1-1A1,1,0,0,0,71.973-27.526Z" fill="#3c69ff"/>
    <path id="Trazado_1063" data-name="Trazado 1063" d="M69.493-22.672H63.3a1,1,0,0,0-1,1,1,1,0,0,0,1,1h6.193a1,1,0,0,0,1-1A1,1,0,0,0,69.493-22.672Z" fill="#3c69ff"/>
  </g>
</svg>
