<svg xmlns="http://www.w3.org/2000/svg" xmlns:xlink="http://www.w3.org/1999/xlink" width="48.08" height="42.884" viewBox="0 0 48.08 42.884">
  <defs>
    <linearGradient id="linear-gradient" x1="0.789" x2="0" y2="1.618" gradientUnits="objectBoundingBox">
      <stop offset="0" stop-color="#8916db"/>
      <stop offset="0.433" stop-color="#6e45ce"/>
      <stop offset="1" stop-color="#0082e1"/>
    </linearGradient>
  </defs>
  <g id="Grupo_395" data-name="Grupo 395" transform="translate(-231 -1887.268)">
    <g id="Grupo_202" data-name="Grupo 202" transform="translate(0 -187.732)">
      <path id="Trazado_976" data-name="Trazado 976" d="M546.5,3244.667h19.4a4.648,4.648,0,0,1,4.023,2.323l9.7,16.8a4.646,4.646,0,0,1,0,4.646l-9.7,16.8a4.648,4.648,0,0,1-4.023,2.323H546.5a4.648,4.648,0,0,1-4.023-2.323l-9.7-16.8a4.647,4.647,0,0,1,0-4.646l9.7-16.8A4.648,4.648,0,0,1,546.5,3244.667Z" transform="translate(-301.153 -1169.667)" fill="url(#linear-gradient)"/>
    </g>
    <g id="flag_1_" data-name="flag (1)" transform="translate(241 1872.277)">
      <g id="Grupo_256" data-name="Grupo 256" transform="translate(0 22.723)">
        <path id="Trazado_1025" data-name="Trazado 1025" d="M26.361,45.592l-5.567-9.048a.83.83,0,0,0-1.414,0l-.723,1.175a.389.389,0,0,0,.662.407l.723-1.175a.053.053,0,0,1,.09,0L25.7,46a.053.053,0,0,1-.045.08H22.572L13.949,32.065a.828.828,0,0,0-.308-.294h0V29.135a3.592,3.592,0,0,0,.946.125,7.32,7.32,0,0,0,2.528-.609,4.446,4.446,0,0,1,3.337-.351.481.481,0,0,0,.659-.446V23.464a.48.48,0,0,0-.292-.443,5.04,5.04,0,0,0-3.975.312c-1.159.43-2.253.836-3.444.3a.389.389,0,0,0-.547.355v.014a.4.4,0,0,0-.011.09v7.677a.828.828,0,0,0-.308.294L8.442,38.719,7.1,36.544a.83.83,0,0,0-1.414,0L.123,45.592A.83.83,0,0,0,.83,46.857H25.655a.83.83,0,0,0,.707-1.265ZM13.631,24.543a5.52,5.52,0,0,0,3.485-.482,4.592,4.592,0,0,1,3.219-.4v3.775a5.525,5.525,0,0,0-3.49.481,4.59,4.59,0,0,1-3.214.4ZM4.825,46.079l1.333-2.167a.389.389,0,0,0-.662-.407L3.913,46.079H.83A.053.053,0,0,1,.785,46l5.567-9.048a.053.053,0,0,1,.09,0L7.985,39.46,6.444,41.966a.389.389,0,1,0,.662.407l6.091-9.9a.053.053,0,0,1,.09,0l8.372,13.607Z" transform="translate(0 -22.723)" fill="#fff" stroke="#fff" stroke-width="0.5"/>
      </g>
    </g>
  </g>
</svg>
