<svg xmlns="http://www.w3.org/2000/svg" xmlns:xlink="http://www.w3.org/1999/xlink" width="48.08" height="42.884" viewBox="0 0 48.08 42.884">
  <defs>
    <linearGradient id="linear-gradient" x1="-0.357" y1="1.738" x2="0.923" y2="-0.184" gradientUnits="objectBoundingBox">
      <stop offset="0" stop-color="#f07800"/>
      <stop offset="1" stop-color="#e867a7"/>
    </linearGradient>
  </defs>
  <g id="Grupo_393" data-name="Grupo 393" transform="translate(-231 -1392.268)">
    <g id="Grupo_198" data-name="Grupo 198" transform="translate(0 -203.732)">
      <path id="Trazado_984" data-name="Trazado 984" d="M546.5,3244.667h19.4a4.648,4.648,0,0,1,4.023,2.323l9.7,16.8a4.646,4.646,0,0,1,0,4.646l-9.7,16.8a4.648,4.648,0,0,1-4.023,2.323H546.5a4.648,4.648,0,0,1-4.023-2.323l-9.7-16.8a4.647,4.647,0,0,1,0-4.646l9.7-16.8A4.648,4.648,0,0,1,546.5,3244.667Z" transform="translate(-301.153 -1648.667)" fill="url(#linear-gradient)"/>
    </g>
    <path id="strategy" d="M19.165,17.532a.993.993,0,0,0,.993-.993V6.456a3.978,3.978,0,0,0-3.973-3.973H13.014a2.979,2.979,0,0,0-5.875,0H3.973A3.978,3.978,0,0,0,0,6.456v15a3.978,3.978,0,0,0,3.973,3.973H16.185a3.978,3.978,0,0,0,3.973-3.973.993.993,0,1,0-1.987,0,1.989,1.989,0,0,1-1.987,1.987H3.973a1.989,1.989,0,0,1-1.987-1.987v-15A1.989,1.989,0,0,1,3.973,4.47h3.5a2.978,2.978,0,0,0,5.215,0h3.5a1.989,1.989,0,0,1,1.987,1.987V16.539A.993.993,0,0,0,19.165,17.532ZM10.076,4.023a.994.994,0,0,1-.993-.993V2.98a.993.993,0,0,1,1.987,0v.05A.994.994,0,0,1,10.076,4.023Zm-3.725,8.06-.787.787a.993.993,0,0,1-1.4-1.4l.787-.787-.787-.787a.993.993,0,0,1,1.4-1.4l.787.787.788-.787a.993.993,0,0,1,1.4,1.4l-.788.787.788.787a.993.993,0,0,1-1.4,1.4Zm9.642,6.35-.788.787.788.787a.993.993,0,0,1-1.4,1.4l-.787-.787-.787.787a.993.993,0,1,1-1.4-1.4l.788-.787-.787-.787a.993.993,0,1,1,1.4-1.4l.787.787.788-.787a.993.993,0,1,1,1.4,1.4ZM4.911,19.667a.993.993,0,1,1-.993.993A.993.993,0,0,1,4.911,19.667Zm11.373-7a.993.993,0,1,1-1.987,0v-1L7.687,19.039a.993.993,0,0,1-1.479-1.326l6.753-7.532H11.815a.993.993,0,1,1,0-1.987H14.3a1.989,1.989,0,0,1,1.987,1.987v2.483Zm0,0" transform="translate(245.333 1401)" fill="#fff"/>
  </g>
</svg>
