<svg xmlns="http://www.w3.org/2000/svg" width="24.384" height="24.382" viewBox="0 0 24.384 24.382">
  <g id="Grupo_351" data-name="Grupo 351" transform="translate(-7.617 -2.809)">
    <path id="Trazado_1065" data-name="Trazado 1065" d="M8.614,12.265a1,1,0,1,0-1-1A1,1,0,0,0,8.614,12.265Z" fill="#932aad"/>
    <path id="Trazado_1066" data-name="Trazado 1066" d="M8.614,16a1,1,0,1,0-1-1A1,1,0,0,0,8.614,16Z" fill="#932aad"/>
    <circle id="Elipse_130" data-name="Elipse 130" cx="0.996" cy="0.996" r="0.996" transform="translate(7.617 21.467)" fill="#932aad"/>
    <path id="Trazado_1067" data-name="Trazado 1067" d="M8.614,19.728a1,1,0,1,0-1-1A1,1,0,0,0,8.614,19.728Z" fill="#932aad"/>
    <path id="Trazado_1068" data-name="Trazado 1068" d="M8.614,8.533a1,1,0,1,0-1-1A1,1,0,0,0,8.614,8.533Z" fill="#932aad"/>
    <path id="Trazado_1069" data-name="Trazado 1069" d="M31.835,4.355a1,1,0,0,0-.282-1.381,1,1,0,0,0-1.381.282L27.5,7.3a1.881,1.881,0,0,0-.227-.015,2.492,2.492,0,0,0-2.49,2.489,2.369,2.369,0,0,0,.09.624l-2.454,3.129a2.47,2.47,0,0,0-3.587,1.978l-3.922,2.285a2.463,2.463,0,0,0-1.817-.8A2.492,2.492,0,0,0,10.6,19.478a2.465,2.465,0,0,0,.372,1.3l-3.2,4.87a1,1,0,0,0,1.667,1.093l3.168-4.828a2.29,2.29,0,0,0,.477.053,2.476,2.476,0,0,0,2.47-2.251l3.922-2.282a2.46,2.46,0,0,0,1.817.8,2.491,2.491,0,0,0,2.489-2.489,2.357,2.357,0,0,0-.088-.623l2.453-3.128a2.478,2.478,0,0,0,3.09-3.72ZM27.768,9.776a.5.5,0,1,1-.5-.5A.5.5,0,0,1,27.768,9.776ZM21.8,15.746a.5.5,0,1,1-.5-.5A.5.5,0,0,1,21.8,15.746Zm-8.209,3.732a.5.5,0,1,1-.5-.5A.5.5,0,0,1,13.588,19.478Z" fill="#932aad"/>
    <path id="Trazado_1070" data-name="Trazado 1070" d="M8.614,4.8a1,1,0,1,0-1-1A1,1,0,0,0,8.614,4.8Z" fill="#932aad"/>
    <circle id="Elipse_131" data-name="Elipse 131" cx="0.996" cy="0.996" r="0.996" transform="translate(26.276 25.199)" fill="#932aad"/>
    <path id="Trazado_1071" data-name="Trazado 1071" d="M31,25.2a1,1,0,1,0,1,1A1,1,0,0,0,31,25.2Z" fill="#932aad"/>
    <path id="Trazado_1072" data-name="Trazado 1072" d="M12.345,25.2a1,1,0,1,0,1,1A1,1,0,0,0,12.345,25.2Z" fill="#932aad"/>
    <circle id="Elipse_132" data-name="Elipse 132" cx="0.996" cy="0.996" r="0.996" transform="translate(22.544 25.199)" fill="#932aad"/>
    <path id="Trazado_1073" data-name="Trazado 1073" d="M19.809,25.2a1,1,0,1,0,1,1A1,1,0,0,0,19.809,25.2Z" fill="#932aad"/>
    <path id="Trazado_1074" data-name="Trazado 1074" d="M16.077,25.2a1,1,0,1,0,1,1A1,1,0,0,0,16.077,25.2Z" fill="#932aad"/>
  </g>
</svg>
