<svg xmlns="http://www.w3.org/2000/svg" width="28.958" height="24.045" viewBox="0 0 28.958 24.045">
  <g id="Grupo_347" data-name="Grupo 347" transform="translate(-5.329 41.14)">
    <path id="Trazado_1056" data-name="Trazado 1056" d="M33.316-23.958l-.249,0V-38.935a2.208,2.208,0,0,0-2.205-2.2H8.769a2.207,2.207,0,0,0-2.2,2.2v14.976h-.25a.98.98,0,0,0-.985.977V-19.3a2.208,2.208,0,0,0,2.2,2.2H32.083a2.206,2.206,0,0,0,2.2-2.2v-3.682A.979.979,0,0,0,33.316-23.958ZM8.515-39.185H31.109v15.226h-7.62a.985.985,0,0,0-.692.286l-.944.944H17.765l-.944-.944a.984.984,0,0,0-.691-.286H8.5ZM32.339-19.047H7.291V-22h8.438l.938.944a.98.98,0,0,0,.69.286h4.916a.99.99,0,0,0,.7-.286L23.915-22h8.424Z" fill="#8e89f4"/>
    <path id="Trazado_1057" data-name="Trazado 1057" d="M28.411-25.684a.974.974,0,0,0,.69-.284.972.972,0,0,0,.288-.689.977.977,0,0,0-.283-.693.973.973,0,0,0-.69-.289h-.249l-.01-.249v-8.592a.978.978,0,0,0-.977-.977H22.27a.979.979,0,0,0-.978.977v3.933H18.338v-.25a.979.979,0,0,0-.977-.978H12.45a.979.979,0,0,0-.977.978v5.16h-.256a.969.969,0,0,0-.687.284.969.969,0,0,0-.29.69.98.98,0,0,0,.974.981h17.2ZM16.383-27.639H13.428v-4.182h2.955Zm4.909,0H18.338v-2.955h2.954Zm4.91,0H23.247V-35.5H26.2Z" fill="#8e89f4"/>
  </g>
</svg>
