<svg xmlns="http://www.w3.org/2000/svg" xmlns:xlink="http://www.w3.org/1999/xlink" width="48.08" height="42.884" viewBox="0 0 48.08 42.884">
  <defs>
    <linearGradient id="linear-gradient" x1="-0.357" y1="1.738" x2="0.923" y2="-0.184" gradientUnits="objectBoundingBox">
      <stop offset="0" stop-color="#f07800"/>
      <stop offset="1" stop-color="#e867a7"/>
    </linearGradient>
  </defs>
  <g id="Grupo_198" data-name="Grupo 198" transform="translate(-231 -1596)">
    <path id="Trazado_984" data-name="Trazado 984" d="M546.5,3244.667h19.4a4.648,4.648,0,0,1,4.023,2.323l9.7,16.8a4.646,4.646,0,0,1,0,4.646l-9.7,16.8a4.648,4.648,0,0,1-4.023,2.323H546.5a4.648,4.648,0,0,1-4.023-2.323l-9.7-16.8a4.647,4.647,0,0,1,0-4.646l9.7-16.8A4.648,4.648,0,0,1,546.5,3244.667Z" transform="translate(-301.153 -1648.667)" fill="url(#linear-gradient)"/>
    <g id="Grupo_407" data-name="Grupo 407" transform="translate(227.311 1594.684)">
      <path id="Trazado_1209" data-name="Trazado 1209" d="M18.586,34.094H36.735a1.946,1.946,0,0,0,1.955-1.955,7.891,7.891,0,0,0-7.88-7.88.434.434,0,0,1-.341-.4V22.118a5.135,5.135,0,0,0,1.768-2.2,2.575,2.575,0,0,0,2.172-2.544c0-.155-.031-.31-.031-.434l.031-.31a16.042,16.042,0,0,0,.031-2.141A6.95,6.95,0,0,0,31.771,9.46a6.538,6.538,0,0,0-5.243-1.3,6.262,6.262,0,0,0-3.506,1.924,2.077,2.077,0,0,0-1.458.372,2.759,2.759,0,0,0-1.148,1.892,4.391,4.391,0,0,0,.962,3.351,2.548,2.548,0,0,0,1.768,4.281,4.875,4.875,0,0,0,1.768,2.172v1.706a.434.434,0,0,1-.341.4,7.891,7.891,0,0,0-7.88,7.88A1.858,1.858,0,0,0,18.586,34.094Zm18.832-1.955a.7.7,0,0,1-.714.714H28.141V29.843c3.444-1.272,4.219-3.413,4.405-4.126A6.672,6.672,0,0,1,37.417,32.139ZM32.547,18.457c0-.124.031-.279.031-.4v-.931c.186,0,.372.031.527.031,0,.062.031.124.031.217A1.294,1.294,0,0,1,32.547,18.457Zm-5.833-9.09a5.265,5.265,0,0,1,4.25,1.055,5.834,5.834,0,0,1,2.2,4.126c.031.558.031,1.024.031,1.365-5.15-.062-8.315-3.909-9.183-5.15A4.94,4.94,0,0,1,26.714,9.367Zm-4.84,8a1.223,1.223,0,0,1,.31-.838c.217.186.4.31.527.434v1.117a3.372,3.372,0,0,0,.031.558A1.392,1.392,0,0,1,21.874,17.372Zm1.086-1.8a3.408,3.408,0,0,1-1.365-3.133,1.5,1.5,0,0,1,.589-.993,1.018,1.018,0,0,1,.652-.155A13.689,13.689,0,0,0,24.2,13Zm.993,2.513V16.41h0l1.179-2.482a12.338,12.338,0,0,0,6.2,3.1v1.055a3.692,3.692,0,0,1-7.384,0Zm.558,7.415a1.665,1.665,0,0,0,1.582-1.644V22.739a4.972,4.972,0,0,0,3.1,0v1.117A1.665,1.665,0,0,0,30.778,25.5a2.508,2.508,0,0,1,.5.031c-.124.5-.776,2.11-3.63,3.165-2.854-1.055-3.506-2.668-3.661-3.2Zm-1.737.217c.155.683.9,2.73,4.126,4v3.1H18.586a.7.7,0,0,1-.714-.714A6.654,6.654,0,0,1,22.774,25.717Z" transform="translate(0 0)" fill="#fff"/>
    </g>
  </g>
</svg>
