<svg xmlns="http://www.w3.org/2000/svg" width="26.849" height="27.182" viewBox="0 0 26.849 27.182">
  <g id="Grupo_352" data-name="Grupo 352" transform="translate(18336.747 -523.456)">
    <g id="Símbolo_2_1" data-name="Símbolo 2 1" transform="translate(-18440.189 522.047)">
      <path id="Trazado_2" data-name="Trazado 2" d="M117.166,3.04h-1A12.776,12.776,0,1,0,128.9,15.815h0v-1H117.166Zm9.7,13.776a10.777,10.777,0,0,1-10.7,9.774,10.562,10.562,0,0,1-6.81-2.469,10.774,10.774,0,0,1,5.816-19.047V16.815Z" fill="#39e394"/>
      <path id="Trazado_3" data-name="Trazado 3" d="M119.459,1.409h-1V13.284h11.83v-1A10.856,10.856,0,0,0,119.459,1.409Zm1,9.841V3.445a8.846,8.846,0,0,1,7.776,7.805Z" fill="#39e394"/>
    </g>
  </g>
</svg>
