<svg xmlns="http://www.w3.org/2000/svg" xmlns:xlink="http://www.w3.org/1999/xlink" width="48.08" height="42.884" viewBox="0 0 48.08 42.884">
  <defs>
    <linearGradient id="linear-gradient" x1="-0.48" y1="2.054" x2="0.8" y2="0.137" gradientUnits="objectBoundingBox">
      <stop offset="0" stop-color="#cb00f0"/>
      <stop offset="1" stop-color="#e867a7"/>
    </linearGradient>
  </defs>
  <g id="Grupo_379" data-name="Grupo 379" transform="translate(-231 -1633)">
    <g id="Grupo_199" data-name="Grupo 199" transform="translate(0 -210)">
      <path id="Trazado_985" data-name="Trazado 985" d="M546.5,3244.667h19.4a4.648,4.648,0,0,1,4.023,2.323l9.7,16.8a4.646,4.646,0,0,1,0,4.646l-9.7,16.8a4.648,4.648,0,0,1-4.023,2.323H546.5a4.648,4.648,0,0,1-4.023-2.323l-9.7-16.8a4.647,4.647,0,0,1,0-4.646l9.7-16.8A4.648,4.648,0,0,1,546.5,3244.667Z" transform="translate(-301.153 -1401.667)" fill="url(#linear-gradient)"/>
    </g>
    <g id="target_1_" data-name="target (1)" transform="translate(242 1642)">
      <path id="Trazado_1006" data-name="Trazado 1006" d="M167.525,149.858a3.09,3.09,0,1,0-4.392,0,4.66,4.66,0,0,0-2.464,4.113v.785a.733.733,0,0,0,.733.733h7.854a.733.733,0,0,0,.733-.733v-.785A4.658,4.658,0,0,0,167.525,149.858Zm-3.819-2.17a1.623,1.623,0,1,1,1.623,1.623A1.625,1.625,0,0,1,163.705,147.687Zm4.817,6.335h-6.388v-.052a3.194,3.194,0,0,1,6.388,0Zm0,0" transform="translate(-152.814 -137.529)" fill="#fff"/>
      <path id="Trazado_1007" data-name="Trazado 1007" d="M12.515,0A12.515,12.515,0,1,0,25.029,12.515,12.529,12.529,0,0,0,12.515,0Zm.733,23.538V21.154a.733.733,0,0,0-1.467,0v2.383a11.064,11.064,0,0,1-10.29-10.29H3.875a.733.733,0,0,0,0-1.467H1.492a11.064,11.064,0,0,1,10.29-10.29V3.875a.733.733,0,0,0,1.467,0V1.492a11.064,11.064,0,0,1,10.29,10.29H21.154a.733.733,0,0,0,0,1.467h2.383A11.064,11.064,0,0,1,13.248,23.538Zm0,0" fill="#fff"/>
    </g>
  </g>
</svg>
