<svg xmlns="http://www.w3.org/2000/svg" xmlns:xlink="http://www.w3.org/1999/xlink" width="48.08" height="42.884" viewBox="0 0 48.08 42.884">
  <defs>
    <linearGradient id="linear-gradient" x1="-0.563" y1="1.911" x2="1.179" y2="-0.141" gradientUnits="objectBoundingBox">
      <stop offset="0" stop-color="#3cffa5"/>
      <stop offset="1" stop-color="#6953ff"/>
    </linearGradient>
  </defs>
  <g id="Grupo_382" data-name="Grupo 382" transform="translate(-231 -2069)">
    <g id="Símbolo_14_1" data-name="Símbolo 14 – 1" transform="translate(-18.907 17)">
      <path id="Trazado_976" data-name="Trazado 976" d="M546.5,3244.667h19.4a4.648,4.648,0,0,1,4.023,2.323l9.7,16.8a4.646,4.646,0,0,1,0,4.646l-9.7,16.8a4.648,4.648,0,0,1-4.023,2.323H546.5a4.648,4.648,0,0,1-4.023-2.323l-9.7-16.8a4.647,4.647,0,0,1,0-4.646l9.7-16.8A4.648,4.648,0,0,1,546.5,3244.667Z" transform="translate(-282.246 -1192.667)" fill="url(#linear-gradient)"/>
    </g>
    <g id="shopping-basket" transform="translate(239 2076.55)">
      <path id="Trazado_1011" data-name="Trazado 1011" d="M246.627,201.243a.627.627,0,1,0-.627-.627A.627.627,0,0,0,246.627,201.243Zm0,0" transform="translate(-230.571 -187.445)" fill="#fff"/>
      <path id="Trazado_1012" data-name="Trazado 1012" d="M29.6,8.78H25.894L20.189.931A1.882,1.882,0,0,0,16.92,2.8a.639.639,0,0,0,.048.074L21.444,8.78H10.669L15.144,2.87a.673.673,0,0,0,.048-.074A1.882,1.882,0,0,0,11.924.931L6.218,8.78H2.509a2.509,2.509,0,0,0-.8,4.886.624.624,0,0,0,.384.132.607.607,0,0,1,.085.006.625.625,0,0,1,.533.509L4.84,26.052A1.881,1.881,0,0,0,6.692,27.6H25.421a1.881,1.881,0,0,0,1.851-1.545l2.134-11.738a.626.626,0,0,1,.534-.509.583.583,0,0,1,.083-.006.623.623,0,0,0,.386-.133A2.508,2.508,0,0,0,29.6,8.78ZM18,2.154a.627.627,0,0,1,1.113-.578.589.589,0,0,0,.041.065l5.19,7.14H23.017Zm-5.041-.513A.673.673,0,0,0,13,1.577a.627.627,0,0,1,1.113.577L9.1,8.78H7.769ZM29.6,12.544H18.565a.624.624,0,1,0,0,1.248h9.684a1.9,1.9,0,0,0-.077.291L26.038,25.827a.627.627,0,0,1-.617.515H6.692a.627.627,0,0,1-.617-.515L3.941,14.088a1.894,1.894,0,0,0-.077-.29h9.684a.627.627,0,1,0,0-1.254H2.509a1.254,1.254,0,0,1,0-2.509H29.6a1.254,1.254,0,1,1,0,2.509Zm0,0" transform="translate(0 0)" fill="#fff"/>
      <path id="Trazado_1013" data-name="Trazado 1013" d="M227.882,249.988A1.884,1.884,0,0,0,226,251.87v5.017a1.882,1.882,0,1,0,3.763,0V251.87A1.881,1.881,0,0,0,227.882,249.988Zm.627,6.9a.627.627,0,0,1-1.254,0V251.87a.627.627,0,1,1,1.254,0Zm0,0" transform="translate(-211.825 -234.309)" fill="#fff"/>
      <path id="Trazado_1014" data-name="Trazado 1014" d="M327.882,258.769a1.884,1.884,0,0,0,1.882-1.882V251.87a1.882,1.882,0,1,0-3.763,0v5.017A1.884,1.884,0,0,0,327.882,258.769Zm-.627-6.9a.627.627,0,0,1,1.254,0v5.017a.627.627,0,0,1-1.254,0Zm0,0" transform="translate(-305.553 -234.309)" fill="#fff"/>
      <path id="Trazado_1015" data-name="Trazado 1015" d="M127.882,249.988A1.884,1.884,0,0,0,126,251.87v5.017a1.882,1.882,0,1,0,3.763,0V251.87A1.881,1.881,0,0,0,127.882,249.988Zm.627,6.9a.627.627,0,0,1-1.254,0V251.87a.627.627,0,1,1,1.254,0Zm0,0" transform="translate(-118.097 -234.309)" fill="#fff"/>
    </g>
  </g>
</svg>
