<svg xmlns="http://www.w3.org/2000/svg" xmlns:xlink="http://www.w3.org/1999/xlink" width="48.08" height="42.884" viewBox="0 0 48.08 42.884">
  <defs>
    <linearGradient id="linear-gradient" x1="-0.357" y1="1.738" x2="0.923" y2="-0.184" gradientUnits="objectBoundingBox">
      <stop offset="0" stop-color="#f07800"/>
      <stop offset="1" stop-color="#e867a7"/>
    </linearGradient>
  </defs>
  <g id="Grupo_383" data-name="Grupo 383" transform="translate(-231 -1423)">
    <g id="Grupo_198" data-name="Grupo 198" transform="translate(0 -173)">
      <path id="Trazado_984" data-name="Trazado 984" d="M546.5,3244.667h19.4a4.648,4.648,0,0,1,4.023,2.323l9.7,16.8a4.646,4.646,0,0,1,0,4.646l-9.7,16.8a4.648,4.648,0,0,1-4.023,2.323H546.5a4.648,4.648,0,0,1-4.023-2.323l-9.7-16.8a4.647,4.647,0,0,1,0-4.646l9.7-16.8A4.648,4.648,0,0,1,546.5,3244.667Z" transform="translate(-301.153 -1648.667)" fill="url(#linear-gradient)"/>
    </g>
    <path id="puzzle" d="M18.8,0H1.025A1.026,1.026,0,0,0,0,1.025V18.8a1.026,1.026,0,0,0,1.025,1.025H18.8A1.026,1.026,0,0,0,19.826,18.8V1.025A1.026,1.026,0,0,0,18.8,0Zm.342,1.025V9.571H15.97a.342.342,0,0,0-.274.547,1.931,1.931,0,0,1,.369,1.162A1.569,1.569,0,0,1,14.7,12.989a1.569,1.569,0,0,1-1.367-1.709,1.931,1.931,0,0,1,.369-1.162.342.342,0,0,0-.274-.547H10.255V6.981a2.729,2.729,0,0,0,1.025.2,2.244,2.244,0,0,0,2.393-2.051A2.244,2.244,0,0,0,11.28,3.076a2.729,2.729,0,0,0-1.025.2V.684H18.8A.342.342,0,0,1,19.142,1.025Zm-18.459,0A.342.342,0,0,1,1.025.684H9.571V3.856a.342.342,0,0,0,.547.274A1.935,1.935,0,0,1,11.28,3.76a1.569,1.569,0,0,1,1.709,1.367A1.569,1.569,0,0,1,11.28,6.495a1.935,1.935,0,0,1-1.162-.369.342.342,0,0,0-.547.274V9.571H6.981a2.729,2.729,0,0,0,.2-1.025A2.244,2.244,0,0,0,5.127,6.153,2.244,2.244,0,0,0,3.076,8.546a2.729,2.729,0,0,0,.2,1.025H.684Zm0,17.775V10.255H3.856a.342.342,0,0,0,.274-.547A1.931,1.931,0,0,1,3.76,8.546,1.569,1.569,0,0,1,5.127,6.837,1.569,1.569,0,0,1,6.495,8.546a1.931,1.931,0,0,1-.369,1.162.342.342,0,0,0,.274.547H9.571v2.59a2.729,2.729,0,0,0-1.025-.2A2.244,2.244,0,0,0,6.153,14.7,2.244,2.244,0,0,0,8.546,16.75a2.729,2.729,0,0,0,1.025-.2v2.59H1.025A.342.342,0,0,1,.684,18.8Zm18.459,0a.342.342,0,0,1-.342.342H10.255V15.97a.342.342,0,0,0-.547-.274,1.935,1.935,0,0,1-1.162.369A1.569,1.569,0,0,1,6.837,14.7a1.569,1.569,0,0,1,1.709-1.367,1.935,1.935,0,0,1,1.162.369.342.342,0,0,0,.547-.274V10.255h2.59a2.729,2.729,0,0,0-.2,1.025A2.244,2.244,0,0,0,14.7,13.673,2.244,2.244,0,0,0,16.75,11.28a2.729,2.729,0,0,0-.2-1.025h2.59Zm0,0" transform="translate(245 1434.254)" fill="#fff" stroke="#fff" stroke-width="0.5"/>
  </g>
</svg>
