<?xml version="1.0" encoding="utf-8"?>
<!-- Generator: Adobe Illustrator 22.1.0, SVG Export Plug-In . SVG Version: 6.00 Build 0)  -->
<svg version="1.1" id="Capa_1" xmlns="http://www.w3.org/2000/svg" xmlns:xlink="http://www.w3.org/1999/xlink" x="0px" y="0px"
	 viewBox="0 0 75 75" style="enable-background:new 0 0 75 75;" xml:space="preserve">
<style type="text/css">
	.st0{fill:#5C61DE;}
</style>
<g>
	<g>
		<path class="st0" d="M37.5,57.5c-11,0-20-9-20-20s9-20,20-20c5.3,0,10.3,2,14.2,5.8l-2.3,2.3c-3.2-3.2-7.3-4.8-11.8-4.8
			c-9.2,0-16.7,7.5-16.7,16.7s7.5,16.7,16.7,16.7s16.7-7.5,16.7-16.7h3.3C57.5,48.5,48.5,57.5,37.5,57.5z"/>
	</g>
	<g>
		<path class="st0" d="M37.5,50.8c-7.3,0-13.3-6-13.3-13.5c0-3.7,1.3-7,4-9.5c2.5-2.3,5.8-3.8,9.3-3.7c7.3,0,13.3,6,13.3,13.5h-3.3
			c0-5.5-4.5-10-10-10.2l0,0c-2.7,0-5.2,1-7,2.8c-2,1.8-3,4.3-3,7.2c0,5.5,4.5,10,10,10.2V50.8z"/>
	</g>
	<g>
		<path class="st0" d="M42.2,42.2l-2.3-2.3c1.3-1.3,1.3-3.3,0-4.7c-1.3-1.3-3.5-1.3-4.7,0c-0.7,0.7-1,1.5-1,2.3s0.3,1.7,1,2.3
			l-2.3,2.3c-1.3-1.2-2-2.8-2-4.7s0.7-3.5,2-4.7c2.5-2.5,6.8-2.5,9.5,0C44.8,35.3,44.8,39.7,42.2,42.2z"/>
	</g>
</g>
</svg>
