<svg xmlns="http://www.w3.org/2000/svg" xmlns:xlink="http://www.w3.org/1999/xlink" width="48.08" height="42.884" viewBox="0 0 48.08 42.884">
  <defs>
    <linearGradient id="linear-gradient" x1="-0.563" y1="1.911" x2="1.179" y2="-0.141" gradientUnits="objectBoundingBox">
      <stop offset="0" stop-color="#3cffa5"/>
      <stop offset="1" stop-color="#6953ff"/>
    </linearGradient>
  </defs>
  <g id="Grupo_386" data-name="Grupo 386" transform="translate(-231 -2167)">
    <g id="Grupo_206" data-name="Grupo 206" transform="translate(0 -173)">
      <g id="Símbolo_14_3" data-name="Símbolo 14 – 3" transform="translate(-18.907 288)">
        <path id="Trazado_976" data-name="Trazado 976" d="M546.5,3244.667h19.4a4.648,4.648,0,0,1,4.023,2.323l9.7,16.8a4.646,4.646,0,0,1,0,4.646l-9.7,16.8a4.648,4.648,0,0,1-4.023,2.323H546.5a4.648,4.648,0,0,1-4.023-2.323l-9.7-16.8a4.647,4.647,0,0,1,0-4.646l9.7-16.8A4.648,4.648,0,0,1,546.5,3244.667Z" transform="translate(-282.246 -1192.667)" fill="url(#linear-gradient)"/>
      </g>
    </g>
    <g id="money" transform="translate(242 2173)">
      <g id="Grupo_245" data-name="Grupo 245" transform="translate(15.597 16.166)">
        <g id="Grupo_244" data-name="Grupo 244">
          <path id="Trazado_1019" data-name="Trazado 1019" d="M302.138,259.953a1,1,0,1,1,1.144-.99.52.52,0,0,0,1.04,0,2.069,2.069,0,0,0-1.664-1.971v-.27a.52.52,0,1,0-1.04,0v.27a2.069,2.069,0,0,0-1.664,1.971,2.114,2.114,0,0,0,2.184,2.03,1,1,0,1,1-1.144.99.52.52,0,1,0-1.04,0,2.069,2.069,0,0,0,1.664,1.971v.225a.52.52,0,1,0,1.04,0v-.225a2.069,2.069,0,0,0,1.664-1.971A2.114,2.114,0,0,0,302.138,259.953Z" transform="translate(-299.954 -256.201)" fill="#fff" stroke="#fff" stroke-width="0.5"/>
        </g>
      </g>
      <g id="Grupo_255" data-name="Grupo 255" transform="translate(0 3)">
        <g id="Grupo_254" data-name="Grupo 254" transform="translate(0 0)">
          <path id="Trazado_1024" data-name="Trazado 1024" d="M20.145,11.952a2.387,2.387,0,0,0-.231-.425h1.354a2.392,2.392,0,1,0,0-4.784H17.1A2.39,2.39,0,0,0,15.131,3H2.392a2.392,2.392,0,1,0,0,4.784H6.556a2.385,2.385,0,0,0,0,2.7H5.2a2.39,2.39,0,0,0-1.486,4.264,2.388,2.388,0,0,0,0,3.744,2.388,2.388,0,0,0,0,3.744A2.39,2.39,0,0,0,5.2,26.5h6.128a8.838,8.838,0,1,0,8.817-14.551Zm1.123-4.169a1.352,1.352,0,0,1,0,2.7H8.528a1.352,1.352,0,1,1,0-2.7ZM2.392,6.744a1.352,1.352,0,1,1,0-2.7h12.74a1.352,1.352,0,0,1,0,2.7ZM5.2,11.528h12.74a1.351,1.351,0,0,1,.59.136c-.246-.021-.495-.032-.746-.032a8.812,8.812,0,0,0-6.255,2.6H5.2a1.352,1.352,0,1,1,0-2.7Zm0,3.744h5.44a8.815,8.815,0,0,0-1.337,2.7H5.2a1.352,1.352,0,1,1,0-2.7Zm0,3.744H9.064a8.847,8.847,0,0,0-.032,2.7H5.2a1.352,1.352,0,1,1,0-2.7Zm0,6.448a1.352,1.352,0,1,1,0-2.7H9.245a8.8,8.8,0,0,0,1.248,2.7Zm12.584,2.808a7.8,7.8,0,1,1,7.8-7.8A7.809,7.809,0,0,1,17.783,28.271Z" transform="translate(0 -3)" fill="#fff" stroke="#fff" stroke-width="0.5"/>
        </g>
      </g>
    </g>
  </g>
</svg>
