<svg xmlns="http://www.w3.org/2000/svg" xmlns:xlink="http://www.w3.org/1999/xlink" width="48.08" height="42.884" viewBox="0 0 48.08 42.884">
  <defs>
    <linearGradient id="linear-gradient" x1="0.789" x2="0" y2="1.618" gradientUnits="objectBoundingBox">
      <stop offset="0" stop-color="#8916db"/>
      <stop offset="0.433" stop-color="#6e45ce"/>
      <stop offset="1" stop-color="#0082e1"/>
    </linearGradient>
  </defs>
  <g id="Grupo_385" data-name="Grupo 385" transform="translate(-231 -1911)">
    <g id="Grupo_202" data-name="Grupo 202" transform="translate(0 -164)">
      <path id="Trazado_976" data-name="Trazado 976" d="M546.5,3244.667h19.4a4.648,4.648,0,0,1,4.023,2.323l9.7,16.8a4.646,4.646,0,0,1,0,4.646l-9.7,16.8a4.648,4.648,0,0,1-4.023,2.323H546.5a4.648,4.648,0,0,1-4.023-2.323l-9.7-16.8a4.647,4.647,0,0,1,0-4.646l9.7-16.8A4.648,4.648,0,0,1,546.5,3244.667Z" transform="translate(-301.153 -1169.667)" fill="url(#linear-gradient)"/>
    </g>
    <g id="atomic_2_" data-name="atomic (2)" transform="translate(243 1919.066)">
      <g id="Grupo_240" data-name="Grupo 240" transform="translate(9.233 11.269)">
        <g id="Grupo_239" data-name="Grupo 239" transform="translate(0 0)">
          <path id="Trazado_1004" data-name="Trazado 1004" d="M206.484,201.258a2.99,2.99,0,1,0,2.99,2.99A2.994,2.994,0,0,0,206.484,201.258Zm0,4.849a1.859,1.859,0,1,1,1.859-1.859A1.861,1.861,0,0,1,206.484,206.107Z" transform="translate(-203.494 -201.258)" fill="#fff"/>
        </g>
      </g>
      <g id="Grupo_242" data-name="Grupo 242" transform="translate(0 2.239)">
        <g id="Grupo_241" data-name="Grupo 241" transform="translate(0 0)">
          <path id="Trazado_1005" data-name="Trazado 1005" d="M23.153,9.089a5.636,5.636,0,0,0-.731-4.012,2.01,2.01,0,0,0-3.583-1.816A12.614,12.614,0,0,0,12.223,5.25C8.123,2.88,4.411,2.6,2.486,4.522A4.762,4.762,0,0,0,1.217,8a2.011,2.011,0,0,0,.794,3.859h.035a17.937,17.937,0,0,0,1.167,2.4C.844,18.359.559,22.071,2.486,24a4.75,4.75,0,0,0,3.472,1.27,13.031,13.031,0,0,0,6.265-2,13.03,13.03,0,0,0,6.266,2A4.752,4.752,0,0,0,21.961,24c1.926-1.926,1.641-5.638-.729-9.738A14.588,14.588,0,0,0,23.153,9.089ZM20.589,3.371a.88.88,0,1,1-.88.88A.881.881,0,0,1,20.589,3.371ZM18.583,4.384a2.01,2.01,0,0,0,3.058,1.58,4.809,4.809,0,0,1,.391,2.972,12.871,12.871,0,0,1-1.482,4.221,25.439,25.439,0,0,0-3.258-3.967,25.459,25.459,0,0,0-3.968-3.259A11.231,11.231,0,0,1,18.583,4.384ZM2.011,10.73a.88.88,0,1,1,.88-.88A.881.881,0,0,1,2.011,10.73Zm1.118.791a2.01,2.01,0,0,0-.78-3.653,3.6,3.6,0,0,1,.937-2.546c1.447-1.447,4.465-1.193,7.835.61A26.321,26.321,0,0,0,3.9,13.158,16.256,16.256,0,0,1,3.13,11.521ZM3.286,23.2c-1.447-1.447-1.193-4.465.61-7.835a25.455,25.455,0,0,0,3.259,3.967,25.46,25.46,0,0,0,3.967,3.259C7.751,24.389,4.733,24.644,3.286,23.2Zm4.669-4.669a23.988,23.988,0,0,1-3.422-4.269,25,25,0,0,1,7.691-7.691,23.992,23.992,0,0,1,4.269,3.422,23.962,23.962,0,0,1,3.421,4.269,23.961,23.961,0,0,1-3.421,4.269,23.99,23.99,0,0,1-4.269,3.422A23.988,23.988,0,0,1,7.955,18.528ZM21.161,23.2c-1.447,1.447-4.466,1.193-7.836-.61a25.455,25.455,0,0,0,3.967-3.259,25.434,25.434,0,0,0,3.258-3.966C22.353,18.731,22.608,21.75,21.161,23.2Z" transform="translate(0 -2.239)" fill="#fff"/>
        </g>
      </g>
    </g>
  </g>
</svg>
