<?xml version="1.0" encoding="utf-8"?>
<!-- Generator: Adobe Illustrator 22.1.0, SVG Export Plug-In . SVG Version: 6.00 Build 0)  -->
<svg version="1.1" id="Capa_1" xmlns="http://www.w3.org/2000/svg" xmlns:xlink="http://www.w3.org/1999/xlink" x="0px" y="0px"
	 viewBox="0 0 22.5 21.8" style="enable-background:new 0 0 22.5 21.8;" xml:space="preserve">
<style type="text/css">
	.st0{fill:#EA5556;}
</style>
<g>
	<g>
		<path class="st0" d="M20.8,11.9c-0.4,1.4-1.7,2.3-3.2,2.3c-1.5,0-2.7-1-3.2-2.3H1c-0.5,0-1-0.4-1-1c0-0.5,0.4-1,1-1h13.5
			c0.4-1.4,1.7-2.3,3.2-2.3c1.5,0,2.7,1,3.2,2.3h0.7c0.5,0,1,0.4,1,1c0,0.5-0.4,1-1,1H20.8z M17.6,9.5c-0.8,0-1.4,0.6-1.4,1.4
			c0,0.8,0.6,1.4,1.4,1.4c0.8,0,1.4-0.6,1.4-1.4C19,10.1,18.4,9.5,17.6,9.5z M7.2,4.3L7.2,4.3C6.8,5.6,5.6,6.6,4.1,6.6
			c-1.5,0-2.7-1-3.2-2.3C0.4,4.3,0,3.8,0,3.3c0-0.5,0.4-0.9,0.9-1C1.3,1,2.6,0,4.1,0c1.5,0,2.7,1,3.2,2.3h14.3c0.5,0,1,0.4,1,1
			s-0.4,1-1,1H7.2z M4.1,1.9c-0.8,0-1.4,0.6-1.4,1.4c0,0.8,0.6,1.4,1.4,1.4c0.8,0,1.4-0.6,1.4-1.4C5.4,2.6,4.8,1.9,4.1,1.9z
			 M10,19.4L10,19.4c-0.4,1.4-1.7,2.3-3.2,2.3c-1.5,0-2.7-1-3.2-2.3H1c-0.5,0-1-0.4-1-1c0-0.5,0.4-1,1-1h2.7
			c0.4-1.4,1.7-2.3,3.2-2.3c1.5,0,2.7,1,3.2,2.3h11.6c0.5,0,1,0.4,1,1c0,0.5-0.4,1-1,1H10z M6.8,17.1c-0.8,0-1.4,0.6-1.4,1.4
			c0,0.8,0.6,1.4,1.4,1.4c0.8,0,1.4-0.6,1.4-1.4C8.2,17.7,7.6,17.1,6.8,17.1z"/>
	</g>
</g>
</svg>
