<svg xmlns="http://www.w3.org/2000/svg" xmlns:xlink="http://www.w3.org/1999/xlink" width="48.08" height="42.884" viewBox="0 0 48.08 42.884">
  <defs>
    <linearGradient id="linear-gradient" x1="-0.357" y1="1.738" x2="0.923" y2="-0.184" gradientUnits="objectBoundingBox">
      <stop offset="0" stop-color="#f07800"/>
      <stop offset="1" stop-color="#e867a7"/>
    </linearGradient>
  </defs>
  <g id="Grupo_420" data-name="Grupo 420" transform="translate(-231 -1596)">
    <path id="Trazado_984" data-name="Trazado 984" d="M546.5,3244.667h19.4a4.648,4.648,0,0,1,4.023,2.323l9.7,16.8a4.646,4.646,0,0,1,0,4.646l-9.7,16.8a4.648,4.648,0,0,1-4.023,2.323H546.5a4.648,4.648,0,0,1-4.023-2.323l-9.7-16.8a4.647,4.647,0,0,1,0-4.646l9.7-16.8A4.648,4.648,0,0,1,546.5,3244.667Z" transform="translate(-301.153 -1648.667)" fill="url(#linear-gradient)"/>
    <g id="Grupo_418" data-name="Grupo 418" transform="translate(-33 348)">
      <g id="Grupo_397" data-name="Grupo 397" transform="translate(279 1255.232)">
        <g id="Grupo_382" data-name="Grupo 382" transform="translate(0 3.749)">
          <g id="Grupo_381" data-name="Grupo 381">
            <path id="Trazado_1193" data-name="Trazado 1193" d="M196.411,195.751v17.879a.408.408,0,0,1,0,.058c-.006.116.014-.011.006-.014a.516.516,0,0,1-.014.075c-.011.053-.036.105-.047.158-.014.072.064-.116.006-.017-.019.03-.033.064-.053.094-.006.008-.039.061-.042.061s.08-.089.019-.028c-.042.044-.083.086-.127.127-.061.058.025-.028.028-.019s-.064.042-.061.042a.475.475,0,0,1-.064.036c-.116.064,0,.022,0,.006,0,.017-.161.05-.177.055a.712.712,0,0,0-.075.014c.1-.039.083-.008.033-.008l-.08,0H180.79a.338.338,0,0,1-.058,0c-.116-.006.011.014.014.006a.573.573,0,0,1-.147-.033c-.025-.006-.047-.017-.069-.022-.111-.033.091.053,0,0-.011-.006-.158-.08-.155-.094s.105.094.028.019c-.017-.017-.036-.03-.053-.05s-.042-.044-.061-.067c-.08-.08.008.014.008.014s-.083-.136-.094-.155c-.044-.075.019.033.011.033a.283.283,0,0,1-.025-.069.811.811,0,0,1-.044-.18c.006,0,.008.147.008.033,0-.025,0-.053,0-.078v-16.5c0-.454,0-.912,0-1.366,0-.03,0-.061,0-.091,0-.125-.022.091,0,.017.008-.03.011-.061.019-.091s.028-.136.044-.141c-.006,0-.061.111,0,.017.017-.025.028-.053.044-.078.006-.008.039-.061.042-.061-.047.058-.058.072-.03.042a.479.479,0,0,1,.036-.042c.033-.036.069-.066.1-.1.083-.08-.078.036-.011.008a.44.44,0,0,0,.075-.05c.022-.011.042-.022.064-.036.094-.055-.033.017-.033.011,0-.022.177-.055.194-.058.114-.022-.014-.011-.017,0s.08-.006.078-.006h2.973l-.554-.554v1.344c0,.05,0,.1,0,.152a.708.708,0,0,0,.69.687c.05,0,.1,0,.147,0H192.4c.083,0,.169,0,.252,0a.712.712,0,0,0,.734-.687c.019-.446,0-.9,0-1.344v-.152l-.554.554c.978,0,1.956-.014,2.935,0l.1,0c.044,0,.025,0-.053-.008a.706.706,0,0,1,.075.014c.019.006.172.033.177.055,0-.006-.111-.061-.017,0,.036.022.072.044.108.064.075.044-.033-.019-.025-.022s.069.061.08.072l.075.078c.072.078-.055-.1,0,0,.011.019.1.15.089.158a.683.683,0,0,0-.028-.066l.025.069c.011.036.022.072.03.108a.454.454,0,0,1,.014.075q-.017-.129-.008-.033a.5.5,0,0,1,.008.086.554.554,0,1,0,1.108,0,1.762,1.762,0,0,0-1-1.577,2.278,2.278,0,0,0-.978-.175h-2.71a.563.563,0,0,0-.554.554v1.438c0,.141-.025-.05.036-.127l.2-.2c.08-.064.269-.036.127-.036h-8.7c-.161,0,.022-.03.111.036l.2.2c.072.094.033.266.036.136v-1.444a.563.563,0,0,0-.554-.554c-.97,0-1.94-.006-2.91,0a1.775,1.775,0,0,0-1.774,1.757c0,.127,0,.255,0,.385V212.73a3.606,3.606,0,0,0,.222,1.76,1.794,1.794,0,0,0,1.616.9h14.853a1.769,1.769,0,0,0,1.754-1.413,8.237,8.237,0,0,0,.036-1.408V195.76a.559.559,0,0,0-.554-.554A.552.552,0,0,0,196.411,195.751Z" transform="translate(-179.04 -194)" fill="#fff"/>
          </g>
        </g>
        <g id="Grupo_384" data-name="Grupo 384" transform="translate(4.129 0)">
          <g id="Grupo_383" data-name="Grupo 383" transform="translate(0)">
            <path id="Trazado_1194" data-name="Trazado 1194" d="M337.587,60.853H334.76l.554.554a5.259,5.259,0,0,0-.05-1.023,2.131,2.131,0,0,0-1.178-1.483,2.194,2.194,0,0,0-1.92.039,2.156,2.156,0,0,0-1.067,1.308,4.18,4.18,0,0,0-.083,1.161l.554-.554h-1.992c-.272,0-.546-.008-.82,0a.706.706,0,0,0-.7.7c0,.089,0,.18,0,.272V64.2c0,.094,0,.188,0,.283a.707.707,0,0,0,.69.709c.1,0,.2,0,.3,0h8.521a.706.706,0,0,0,.7-.687c.011-.233,0-.468,0-.7,0-.737.014-1.471,0-2.209v-.047a.718.718,0,0,0-.2-.485.71.71,0,0,0-.479-.208.556.556,0,0,0-.554.554.571.571,0,0,0,.554.554.779.779,0,0,1-.08,0l-.244-.141c-.122-.094-.1-.4-.1-.205v2.86c.006.091-.05-.047.036-.161l.2-.2c.08-.064.269-.036.127-.036h-8.7c-.161,0,.022-.03.111.036l.2.2c.067.086.036.274.036.114v-2.86c-.006-.127.1.1-.1.252l-.244.141s-.116,0-.066,0h2.813a.563.563,0,0,0,.554-.554c0-.233-.014-.468.006-.7.011-.141-.022.1.008-.039.011-.05.022-.1.036-.144.008-.03.019-.058.03-.089.028-.083-.011.033-.014.03a.6.6,0,0,1,.075-.144c.025-.042.055-.08.078-.122.039-.067-.089.1-.011.011.017-.017.03-.036.047-.055.033-.036.066-.069.1-.1.017-.017.036-.03.055-.047.08-.072-.1.061,0,0,.025-.017.233-.161.252-.141,0,0-.133.047-.03.014l.069-.025a1.316,1.316,0,0,1,.18-.044c.083-.019-.028-.006-.036,0a.41.41,0,0,1,.075-.008,1.555,1.555,0,0,1,.161,0c.03,0,.061,0,.089.006.125.006-.014,0-.014,0,.025-.019.18.042.213.05a.335.335,0,0,1,.08.028s-.119-.058-.014-.006a1.551,1.551,0,0,1,.15.08c.025.014.047.03.072.047.1.061-.006-.011-.011-.011.047.008.125.111.155.144a.612.612,0,0,1,.055.064c.078.086-.006-.011-.008-.014.028.008.078.119.091.141l.042.075c0,.006.053.133.025.05s0,.017.008.033c.011.033.022.069.03.105s.011.058.019.086c.033.136,0-.114.006.028,0,.047.006.094.006.141V61.4a.563.563,0,0,0,.554.554h2.827a.56.56,0,0,0,.554-.554A.573.573,0,0,0,337.587,60.853Z" transform="translate(-328.056 -58.7)" fill="#fff"/>
            <path id="Trazado_1195" data-name="Trazado 1195" d="M485.754,108.784h.022c-.05-.006-.1-.014-.147-.019a.25.25,0,0,1,.061.017l-.133-.055c.014.006.025.014.036.019l-.111-.086a.332.332,0,0,1,.044.044l-.086-.111a.15.15,0,0,1,.019.036c-.019-.044-.036-.089-.055-.133a.222.222,0,0,1,.017.061c-.006-.05-.014-.1-.019-.147a.12.12,0,0,1,0,.044c.006-.05.014-.1.019-.147a.252.252,0,0,1-.017.061c.019-.044.036-.089.055-.133-.006.014-.014.025-.019.036l.086-.111a.332.332,0,0,1-.044.044l.111-.086a.149.149,0,0,1-.036.019l.133-.055a.221.221,0,0,1-.061.017c.05-.006.1-.014.147-.019a.119.119,0,0,1-.044,0c.05.006.1.014.147.019a.251.251,0,0,1-.061-.017l.133.055c-.014-.006-.025-.014-.036-.019l.111.086a.337.337,0,0,1-.044-.044l.086.111a.149.149,0,0,1-.019-.036c.019.044.036.089.055.133a.218.218,0,0,1-.017-.061c.006.05.014.1.019.147a.119.119,0,0,1,0-.044c-.006.05-.014.1-.019.147a.247.247,0,0,1,.017-.061c-.019.044-.036.089-.055.133.006-.014.014-.025.019-.036l-.086.111a.337.337,0,0,1,.044-.044l-.111.086a.15.15,0,0,1,.036-.019l-.133.055a.22.22,0,0,1,.061-.017c-.05.006-.1.014-.147.019h.022a.554.554,0,1,0,0-1.108.8.8,0,0,0-.532.222.752.752,0,1,0,1.072.006.79.79,0,0,0-.54-.227.556.556,0,0,0-.554.554A.567.567,0,0,0,485.754,108.784Z" transform="translate(-480.651 -106.318)" fill="#fff"/>
          </g>
        </g>
        <g id="Grupo_386" data-name="Grupo 386" transform="translate(8.487 1.358)">
          <g id="Grupo_385" data-name="Grupo 385">
            <path id="Trazado_1196" data-name="Trazado 1196" d="M485.69,108.454v.022c.006-.05.014-.1.019-.147a.249.249,0,0,1-.017.061c.019-.044.036-.089.055-.133-.006.014-.014.025-.019.036l.086-.111a.333.333,0,0,1-.044.044l.111-.086a.15.15,0,0,1-.036.019l.133-.055a.22.22,0,0,1-.061.017c.05-.006.1-.014.147-.019a.119.119,0,0,1-.044,0c.05.006.1.014.147.019a.249.249,0,0,1-.061-.017l.133.055c-.014-.006-.025-.014-.036-.019l.111.086a.329.329,0,0,1-.044-.044l.086.111a.15.15,0,0,1-.019-.036c.019.044.036.089.055.133a.22.22,0,0,1-.017-.061c.005.05.014.1.019.147a.117.117,0,0,1,0-.044c-.006.05-.014.1-.019.147a.249.249,0,0,1,.017-.061c-.019.044-.036.089-.055.133.006-.014.014-.025.019-.036l-.086.111a.329.329,0,0,1,.044-.044l-.111.086a.149.149,0,0,1,.036-.019l-.133.055a.22.22,0,0,1,.061-.017c-.05.006-.1.014-.147.019a.119.119,0,0,1,.044,0c-.05-.006-.1-.014-.147-.019a.249.249,0,0,1,.061.017l-.133-.055c.014.006.025.014.036.019l-.111-.086a.333.333,0,0,1,.044.044l-.086-.111a.15.15,0,0,1,.019.036c-.019-.044-.036-.089-.055-.133a.22.22,0,0,1,.017.061c-.006-.05-.014-.1-.019-.147v.022a.554.554,0,1,0,1.108,0,.8.8,0,0,0-.222-.532.752.752,0,1,0-.006,1.072.79.79,0,0,0,.227-.54.556.556,0,0,0-.554-.554A.567.567,0,0,0,485.69,108.454Z" transform="translate(-485.291 -107.7)" fill="#fff"/>
          </g>
        </g>
        <g id="Grupo_388" data-name="Grupo 388" transform="translate(8.609 1.483)">
          <g id="Grupo_387" data-name="Grupo 387">
            <path id="Trazado_1197" data-name="Trazado 1197" d="M489.842,112.829v.008c.006-.05.014-.1.019-.147a.065.065,0,0,1-.006.022c.019-.044.036-.089.055-.133l-.008.014.086-.111-.017.017.111-.086a.06.06,0,0,1-.014.008l.133-.055a.065.065,0,0,1-.022.006c.05-.006.1-.014.147-.019h-.017c.05.006.1.014.147.019a.065.065,0,0,1-.022-.006l.133.055-.014-.008.111.086-.017-.017.086.111-.008-.014c.019.044.036.089.055.133a.064.064,0,0,1-.006-.022c.006.05.014.1.019.147v-.017c-.006.05-.014.1-.019.147a.064.064,0,0,1,.006-.022c-.019.044-.036.089-.055.133l.008-.014-.086.111.017-.017-.111.086.014-.008-.133.055a.065.065,0,0,1,.022-.006c-.05.006-.1.014-.147.019h.017c-.05-.006-.1-.014-.147-.019a.065.065,0,0,1,.022.006l-.133-.055.014.008-.111-.086.017.017-.086-.111.008.014c-.019-.044-.036-.089-.055-.133a.065.065,0,0,1,.006.022c-.006-.05-.014-.1-.019-.147v.008a.43.43,0,0,0,.047.213.416.416,0,0,0,.114.177.612.612,0,0,0,.391.161c.05-.006.1-.014.147-.019a.583.583,0,0,0,.244-.141.561.561,0,0,0,.164-.391.429.429,0,0,0-.011-.083.715.715,0,0,0-.011-.08.7.7,0,0,0-.033-.08.435.435,0,0,0-.036-.08l-.086-.111-.008-.008-.008-.008-.111-.086a.729.729,0,0,0-.147-.064.564.564,0,0,0-.177-.028.54.54,0,0,0-.177.028.6.6,0,0,0-.147.064l-.111.086-.008.008-.008.008-.086.111a.431.431,0,0,0-.036.08.69.69,0,0,0-.033.08c-.006.028-.008.055-.011.08s-.008.055-.011.083a.612.612,0,0,0,.183.441.625.625,0,0,0,.2.133.7.7,0,0,0,.08.033c.028.006.055.008.08.011a.749.749,0,0,0,.078.011h.011c.05-.006.1-.014.147-.019l.022-.006a.622.622,0,0,0,.263-.155.845.845,0,0,0,.105-.136.665.665,0,0,0,.083-.31.43.43,0,0,0-.047-.213.416.416,0,0,0-.114-.177.612.612,0,0,0-.391-.161c-.05.006-.1.014-.147.019a.583.583,0,0,0-.244.141l-.086.111A.533.533,0,0,0,489.842,112.829Z" transform="translate(-489.69 -112.2)" fill="#fff"/>
          </g>
        </g>
        <g id="Grupo_390" data-name="Grupo 390" transform="translate(2.977 9.705)">
          <g id="Grupo_389" data-name="Grupo 389" transform="translate(0 0)">
            <path id="Trazado_1198" data-name="Trazado 1198" d="M287.037,410.036h10.007c.463,0,.928.011,1.391,0h.019a.554.554,0,1,0,0-1.108H288.447c-.463,0-.928-.011-1.391,0h-.019a.554.554,0,0,0,0,1.108Z" transform="translate(-286.482 -408.922)" fill="#fff"/>
          </g>
        </g>
        <g id="Grupo_392" data-name="Grupo 392" transform="translate(2.977 14.211)">
          <g id="Grupo_391" data-name="Grupo 391" transform="translate(0 0)">
            <path id="Trazado_1199" data-name="Trazado 1199" d="M287.037,572.636h10.007c.463,0,.928.011,1.391,0h.019a.554.554,0,1,0,0-1.108H288.447c-.463,0-.928-.011-1.391,0h-.019a.554.554,0,0,0,0,1.108Z" transform="translate(-286.482 -571.522)" fill="#fff"/>
          </g>
        </g>
        <g id="Grupo_394" data-name="Grupo 394" transform="translate(2.977 18.725)">
          <g id="Grupo_393" data-name="Grupo 393">
            <path id="Trazado_1200" data-name="Trazado 1200" d="M287.037,735.509h2.444a.554.554,0,0,0,0-1.109h-2.444a.554.554,0,0,0,0,1.109Z" transform="translate(-286.482 -734.4)" fill="#fff"/>
          </g>
        </g>
        <g id="Grupo_396" data-name="Grupo 396" transform="translate(8.354 17.169)">
          <g id="Grupo_395" data-name="Grupo 395" transform="translate(0 0)">
            <path id="Trazado_1201" data-name="Trazado 1201" d="M486.7,678.42l-1.4,1.4-2.231,2.231-.513.513h.784l-1.663-1.663-.241-.241a.555.555,0,1,0-.784.784l1.663,1.663.241.241a.563.563,0,0,0,.784,0l1.4-1.4,2.231-2.231.513-.513a.555.555,0,0,0-.784-.784Z" transform="translate(-480.498 -678.261)" fill="#fff"/>
          </g>
        </g>
      </g>
    </g>
  </g>
</svg>
