<svg xmlns="http://www.w3.org/2000/svg" width="27.655" height="27.147" viewBox="0 0 27.655 27.147">
  <g id="Símbolo_8_1" data-name="Símbolo 8 1" transform="translate(-105.393 42.691)">
    <g id="Trazado_12" data-name="Trazado 12">
      <path id="Trazado_1058" data-name="Trazado 1058" d="M124.738-15.544h-7.925a1,1,0,0,1-.966-.743l-2.113-7.921a1,1,0,0,1,.173-.867,1,1,0,0,1,.793-.391h7.657a1,1,0,0,1,.958.712l2.381,7.922a1,1,0,0,1-.156.884A1,1,0,0,1,124.738-15.544Zm-7.157-2h5.812l-1.779-5.922H116Zm14.467-6.7h-4.265a1,1,0,0,1-1-1l0-.127a1.582,1.582,0,0,0-.359-1.232,3.726,3.726,0,0,0-2.594-.685H111.5a6.188,6.188,0,0,1-6.1-6.254,6.145,6.145,0,0,1,1.863-4.348,6.061,6.061,0,0,1,4.392-1.756H123.83a3.734,3.734,0,0,0,2.6-.685,1.587,1.587,0,0,0,.359-1.232l0-.127a1,1,0,0,1,1-1h4.266a1,1,0,0,1,1,1v16.446A1,1,0,0,1,132.048-24.245Zm-3.319-2h2.319V-40.691h-2.32a3.237,3.237,0,0,1-.874,1.759,5.464,5.464,0,0,1-4.024,1.285H111.635a4.227,4.227,0,0,0-2.981,1.188,4.147,4.147,0,0,0-1.261,2.94,4.186,4.186,0,0,0,4.129,4.23h12.31A5.463,5.463,0,0,1,127.855-28,3.227,3.227,0,0,1,128.729-26.245Z" fill="#f4b244"/>
    </g>
  </g>
</svg>
