<svg xmlns="http://www.w3.org/2000/svg" xmlns:xlink="http://www.w3.org/1999/xlink" width="48.081" height="42.884" viewBox="0 0 48.081 42.884">
  <defs>
    <linearGradient id="linear-gradient" x1="0.789" x2="0" y2="1.618" gradientUnits="objectBoundingBox">
      <stop offset="0" stop-color="#8916db"/>
      <stop offset="0.433" stop-color="#6e45ce"/>
      <stop offset="1" stop-color="#0082e1"/>
    </linearGradient>
  </defs>
  <g id="Grupo_430" data-name="Grupo 430" transform="translate(-231 -1861)">
    <g id="Grupo_202" data-name="Grupo 202" transform="translate(0 -214)">
      <path id="Trazado_976" data-name="Trazado 976" d="M546.5,3244.667h19.4a4.648,4.648,0,0,1,4.023,2.323l9.7,16.8a4.646,4.646,0,0,1,0,4.646l-9.7,16.8a4.648,4.648,0,0,1-4.023,2.323H546.5a4.648,4.648,0,0,1-4.023-2.323l-9.7-16.8a4.647,4.647,0,0,1,0-4.646l9.7-16.8A4.648,4.648,0,0,1,546.5,3244.667Z" transform="translate(-301.153 -1169.667)" fill="url(#linear-gradient)"/>
    </g>
    <g id="Grupo_399" data-name="Grupo 399" transform="translate(237.007 1863.773)">
      <path id="Trazado_1202" data-name="Trazado 1202" d="M26.741,5.962a.59.59,0,0,0-.35,1.014l4.553,4.544a.59.59,0,1,0,.829-.829L27.22,6.137A.59.59,0,0,0,26.741,5.962ZM18.124,7.769c-.4,0-.789.01-1.18.046a12.027,12.027,0,0,0-10.4,8.341,12.168,12.168,0,0,0,7.917,15.188A11.985,11.985,0,0,0,28.317,13.6l1.051-2.018a.59.59,0,0,0-.1-.691L27.045,8.672a.59.59,0,0,0-.664-.111l-2.11.986A11.407,11.407,0,0,0,21.718,8.34,12.1,12.1,0,0,0,18.124,7.769Zm-.009,1.18a10.947,10.947,0,0,1,3.244.516A10.38,10.38,0,0,1,23.911,10.7a.589.589,0,0,0,.581.046l2.018-.94,1.622,1.613-1,1.9a.591.591,0,0,0,.037.6,10.842,10.842,0,0,1-12.35,16.3,10.965,10.965,0,0,1-7.142-13.7,10.835,10.835,0,0,1,9.373-7.53C17.4,8.953,17.756,8.945,18.114,8.948Zm-.037,1.364c-.153,0-.308,0-.461.009a9.457,9.457,0,0,0-6.488,2.968c-.016.012-.031.024-.046.037l-.009.009-.037.027-.028.028A9.547,9.547,0,0,0,9.866,24.644a.593.593,0,1,0,1.025-.6l0,0a8.447,8.447,0,0,1-1.152-4.11L10.852,20a.59.59,0,1,0,.2-1.162.582.582,0,0,0-.128-.008L9.8,18.755a8.23,8.23,0,0,1,1.945-4.406l.811.811a.59.59,0,1,0,.846-.822l-.016-.017-.811-.811A8.261,8.261,0,0,1,17,11.547l.064,1.143a.59.59,0,1,0,1.171-.065l-.065-1.143a8.379,8.379,0,0,1,5.521,2.2c.1.088.184.177.277.267a.59.59,0,1,0,.846-.822l-.017-.016c-.1-.1-.207-.2-.313-.295A9.54,9.54,0,0,0,18.078,10.312Zm7.806,4.626a.59.59,0,0,0-.5.885,8.384,8.384,0,0,1,1.041,3.917l-1.133-.074h-.065a.59.59,0,0,0-.009,1.18l1.143.074A8.25,8.25,0,0,1,24.4,25.326l-.811-.811a.59.59,0,1,0-.829.839l.811.8a8.21,8.21,0,0,1-4.415,1.963l-.074-1.143a.59.59,0,0,0-.616-.563h-.011a.59.59,0,0,0-.544.633v0l.065,1.124a8.406,8.406,0,0,1-5.345-2.064l.783-.792a.59.59,0,1,0-.829-.83L11.35,25.731a.59.59,0,0,0,0,.829,4.156,4.156,0,0,0,.314.295c.009.008.018.011.028.019A9.5,9.5,0,0,0,26.418,15.252.59.59,0,0,0,25.884,14.939Zm-3.4.12a.591.591,0,0,0-.415.175l-2.756,2.682a2.2,2.2,0,0,0-2.673.323,2.194,2.194,0,0,0,3.106,3.1,2.2,2.2,0,0,0,.378-2.562L22.9,16.082a.59.59,0,0,0-.415-1.023Zm-4.276,3.705a.969.969,0,0,1,.719.286,1.02,1.02,0,0,1-.028,1.438,1,1,0,0,1-1.41-1.41A1.068,1.068,0,0,1,18.206,18.764Z" fill="#fff"/>
    </g>
  </g>
</svg>
