<svg xmlns="http://www.w3.org/2000/svg" xmlns:xlink="http://www.w3.org/1999/xlink" width="48.08" height="42.884" viewBox="0 0 48.08 42.884">
  <defs>
    <linearGradient id="linear-gradient" x1="-0.357" y1="1.738" x2="0.923" y2="-0.184" gradientUnits="objectBoundingBox">
      <stop offset="0" stop-color="#f07800"/>
      <stop offset="1" stop-color="#e867a7"/>
    </linearGradient>
  </defs>
  <g id="Grupo_392" data-name="Grupo 392" transform="translate(-231 -2378)">
    <g id="Grupo_207" data-name="Grupo 207" transform="translate(0 782)">
      <path id="Trazado_984" data-name="Trazado 984" d="M546.5,3244.667h19.4a4.648,4.648,0,0,1,4.023,2.323l9.7,16.8a4.646,4.646,0,0,1,0,4.646l-9.7,16.8a4.648,4.648,0,0,1-4.023,2.323H546.5a4.648,4.648,0,0,1-4.023-2.323l-9.7-16.8a4.647,4.647,0,0,1,0-4.646l9.7-16.8A4.648,4.648,0,0,1,546.5,3244.667Z" transform="translate(-301.153 -1648.667)" fill="url(#linear-gradient)"/>
    </g>
    <g id="worlwide" transform="translate(242.862 2388)">
      <g id="Grupo_267" data-name="Grupo 267" transform="translate(0.138)">
        <path id="Trazado_1030" data-name="Trazado 1030" d="M20.3,3.466A11.73,11.73,0,0,0,12.108.008C12.054,0,12,0,11.948,0s-.106,0-.16.008A11.81,11.81,0,0,0,3.6,20.168a11.73,11.73,0,0,0,8.191,3.457c.054,0,.107.008.16.008s.106,0,.16-.008A11.81,11.81,0,0,0,20.3,3.466ZM4.59,4.458A10.35,10.35,0,0,1,9.021,1.826,11.275,11.275,0,0,0,7.946,3.3,13.99,13.99,0,0,0,6.829,5.557h-3.2A10.558,10.558,0,0,1,4.59,4.458Zm-1.851,2.5H6.357A17.618,17.618,0,0,0,5.7,11.115H1.566A10.324,10.324,0,0,1,2.739,6.961Zm0,9.711a10.323,10.323,0,0,1-1.173-4.153H5.7a17.618,17.618,0,0,0,.654,4.153Zm1.851,2.5a10.538,10.538,0,0,1-.957-1.1h3.2a13.986,13.986,0,0,0,1.117,2.258,11.275,11.275,0,0,0,1.075,1.473A10.351,10.351,0,0,1,4.59,19.175Zm6.656,2.765A7.577,7.577,0,0,1,9.141,19.6a12.326,12.326,0,0,1-.794-1.521h2.9v3.864Zm0-5.268H7.822a16.067,16.067,0,0,1-.714-4.153h4.138Zm0-5.557H7.108a16.063,16.063,0,0,1,.714-4.153h3.425v4.153Zm0-5.557h-2.9a12.326,12.326,0,0,1,.794-1.521,7.576,7.576,0,0,1,2.105-2.343V5.557Zm9.911,1.4a10.323,10.323,0,0,1,1.173,4.153H18.194a17.618,17.618,0,0,0-.654-4.153Zm-1.851-2.5a10.558,10.558,0,0,1,.956,1.1h-3.2A13.986,13.986,0,0,0,15.951,3.3a11.271,11.271,0,0,0-1.075-1.473A10.351,10.351,0,0,1,19.307,4.458ZM12.65,1.693a7.577,7.577,0,0,1,2.105,2.343,12.327,12.327,0,0,1,.794,1.521h-2.9V1.693Zm0,5.268h3.425a16.064,16.064,0,0,1,.714,4.153H12.65Zm4.138,5.557a16.063,16.063,0,0,1-.714,4.153H12.65V12.519ZM12.65,21.941V18.076h2.9a12.326,12.326,0,0,1-.794,1.521A7.576,7.576,0,0,1,12.65,21.941Zm6.656-2.765a10.351,10.351,0,0,1-4.431,2.632,11.275,11.275,0,0,0,1.075-1.473,13.99,13.99,0,0,0,1.117-2.258h3.2A10.552,10.552,0,0,1,19.307,19.175Zm1.851-2.5H17.54a17.615,17.615,0,0,0,.654-4.153h4.137A10.324,10.324,0,0,1,21.158,16.672Z" transform="translate(-0.138)" fill="#fff"/>
      </g>
    </g>
  </g>
</svg>
