<svg xmlns="http://www.w3.org/2000/svg" xmlns:xlink="http://www.w3.org/1999/xlink" width="48.08" height="42.884" viewBox="0 0 48.08 42.884">
  <defs>
    <linearGradient id="linear-gradient" x1="0.789" x2="0" y2="1.618" gradientUnits="objectBoundingBox">
      <stop offset="0" stop-color="#8916db"/>
      <stop offset="0.433" stop-color="#6e45ce"/>
      <stop offset="1" stop-color="#0082e1"/>
    </linearGradient>
  </defs>
  <g id="Grupo_390" data-name="Grupo 390" transform="translate(-231 -1872)">
    <g id="Grupo_202" data-name="Grupo 202" transform="translate(0 -203)">
      <path id="Trazado_976" data-name="Trazado 976" d="M546.5,3244.667h19.4a4.648,4.648,0,0,1,4.023,2.323l9.7,16.8a4.646,4.646,0,0,1,0,4.646l-9.7,16.8a4.648,4.648,0,0,1-4.023,2.323H546.5a4.648,4.648,0,0,1-4.023-2.323l-9.7-16.8a4.647,4.647,0,0,1,0-4.646l9.7-16.8A4.648,4.648,0,0,1,546.5,3244.667Z" transform="translate(-301.153 -1169.667)" fill="url(#linear-gradient)"/>
    </g>
    <path id="add-contact_1_" data-name="add-contact (1)" d="M14.264,4.08l1.25-1.25,2.21,2.21,3.669-3.669,1.25,1.25L17.724,7.54Zm7.025,2.4A11.321,11.321,0,0,1,3.314,19.831,11.331,11.331,0,0,1,11.315.5a11.357,11.357,0,0,1,3.472.556L13.343,2.5a9.543,9.543,0,0,0-9.2,15.622A7.379,7.379,0,0,1,8.359,13a4.391,4.391,0,1,1,5.912,0,7.379,7.379,0,0,1,4.218,5.125A9.53,9.53,0,0,0,19.967,7.8Zm-9.974,5.9A2.623,2.623,0,1,0,8.692,9.753,2.626,2.626,0,0,0,11.315,12.376Zm0,9a9.495,9.495,0,0,0,5.58-1.806,5.582,5.582,0,0,0-11.16,0A9.495,9.495,0,0,0,11.315,21.378Zm0,0" transform="translate(244 1881.641)" fill="#fff"/>
  </g>
</svg>
