<svg xmlns="http://www.w3.org/2000/svg" xmlns:xlink="http://www.w3.org/1999/xlink" width="48.08" height="42.884" viewBox="0 0 48.08 42.884">
  <defs>
    <linearGradient id="linear-gradient" x1="-0.357" y1="1.738" x2="0.923" y2="-0.184" gradientUnits="objectBoundingBox">
      <stop offset="0" stop-color="#f07800"/>
      <stop offset="1" stop-color="#e867a7"/>
    </linearGradient>
  </defs>
  <g id="Grupo_388" data-name="Grupo 388" transform="translate(-231 -1355)">
    <g id="Grupo_198" data-name="Grupo 198" transform="translate(0 -241)">
      <path id="Trazado_984" data-name="Trazado 984" d="M546.5,3244.667h19.4a4.648,4.648,0,0,1,4.023,2.323l9.7,16.8a4.646,4.646,0,0,1,0,4.646l-9.7,16.8a4.648,4.648,0,0,1-4.023,2.323H546.5a4.648,4.648,0,0,1-4.023-2.323l-9.7-16.8a4.647,4.647,0,0,1,0-4.646l9.7-16.8A4.648,4.648,0,0,1,546.5,3244.667Z" transform="translate(-301.153 -1648.667)" fill="url(#linear-gradient)"/>
    </g>
    <g id="famous" transform="translate(243.159 1364.81)">
      <g id="Grupo_286" data-name="Grupo 286" transform="translate(5.851 6.235)">
        <g id="Grupo_285" data-name="Grupo 285">
          <path id="Trazado_1040" data-name="Trazado 1040" d="M128.092,134.979a3.9,3.9,0,1,0-4.482,0A4.346,4.346,0,0,0,120,139.255v5.409a.39.39,0,0,0,.39.39h10.921a.39.39,0,0,0,.39-.39h0v-5.409A4.346,4.346,0,0,0,128.092,134.979Zm-5.361-3.187a3.12,3.12,0,1,1,3.12,3.12A3.12,3.12,0,0,1,122.73,131.792Zm8.191,12.481H120.78v-5.019a3.566,3.566,0,0,1,3.562-3.562h3.017a3.566,3.566,0,0,1,3.562,3.562Z" transform="translate(-120 -127.886)" fill="#fff" stroke="#fff" stroke-width="0.5"/>
        </g>
      </g>
      <g id="Grupo_288" data-name="Grupo 288" transform="translate(11.311 2.34)">
        <g id="Grupo_287" data-name="Grupo 287">
          <rect id="Rectángulo_121" data-name="Rectángulo 121" width="0.78" height="1.56" fill="#fff" stroke="#fff" stroke-width="0.5"/>
        </g>
      </g>
      <g id="Grupo_290" data-name="Grupo 290" transform="translate(15.164 3.301)">
        <g id="Grupo_289" data-name="Grupo 289" transform="translate(0 0)">
          <rect id="Rectángulo_122" data-name="Rectángulo 122" width="1.56" height="0.78" transform="translate(0 1.103) rotate(-45)" fill="#fff" stroke="#fff" stroke-width="0.5"/>
        </g>
      </g>
      <g id="Grupo_292" data-name="Grupo 292" transform="translate(19.892 22.622)">
        <g id="Grupo_291" data-name="Grupo 291">
          <rect id="Rectángulo_123" data-name="Rectángulo 123" width="1.56" height="0.78" fill="#fff" stroke="#fff" stroke-width="0.5"/>
        </g>
      </g>
      <g id="Grupo_294" data-name="Grupo 294" transform="translate(19.892 18.722)">
        <g id="Grupo_293" data-name="Grupo 293">
          <rect id="Rectángulo_124" data-name="Rectángulo 124" width="1.56" height="0.78" fill="#fff" stroke="#fff" stroke-width="0.5"/>
        </g>
      </g>
      <g id="Grupo_296" data-name="Grupo 296" transform="translate(19.892 14.821)">
        <g id="Grupo_295" data-name="Grupo 295">
          <rect id="Rectángulo_125" data-name="Rectángulo 125" width="1.56" height="0.78" fill="#fff" stroke="#fff" stroke-width="0.5"/>
        </g>
      </g>
      <g id="Grupo_298" data-name="Grupo 298" transform="translate(19.419 10.693)">
        <g id="Grupo_297" data-name="Grupo 297" transform="translate(0 0)">
          <rect id="Rectángulo_126" data-name="Rectángulo 126" width="1.56" height="0.78" transform="translate(0 0.494) rotate(-18.446)" fill="#fff" stroke="#fff" stroke-width="0.5"/>
        </g>
      </g>
      <g id="Grupo_300" data-name="Grupo 300" transform="translate(18.208 6.649)">
        <g id="Grupo_299" data-name="Grupo 299" transform="translate(0 0)">
          <rect id="Rectángulo_127" data-name="Rectángulo 127" width="1.56" height="0.78" transform="translate(0 0.494) rotate(-18.446)" fill="#fff" stroke="#fff" stroke-width="0.5"/>
        </g>
      </g>
      <g id="Grupo_302" data-name="Grupo 302" transform="translate(6.584 3.302)">
        <g id="Grupo_301" data-name="Grupo 301" transform="translate(0 0)">
          <rect id="Rectángulo_128" data-name="Rectángulo 128" width="0.78" height="1.56" transform="matrix(0.707, -0.707, 0.707, 0.707, 0, 0.552)" fill="#fff" stroke="#fff" stroke-width="0.5"/>
        </g>
      </g>
      <g id="Grupo_304" data-name="Grupo 304" transform="translate(1.95 22.622)">
        <g id="Grupo_303" data-name="Grupo 303">
          <rect id="Rectángulo_129" data-name="Rectángulo 129" width="1.56" height="0.78" fill="#fff" stroke="#fff" stroke-width="0.5"/>
        </g>
      </g>
      <g id="Grupo_306" data-name="Grupo 306" transform="translate(1.95 18.722)">
        <g id="Grupo_305" data-name="Grupo 305">
          <rect id="Rectángulo_130" data-name="Rectángulo 130" width="1.56" height="0.78" fill="#fff" stroke="#fff" stroke-width="0.5"/>
        </g>
      </g>
      <g id="Grupo_308" data-name="Grupo 308" transform="translate(1.95 14.821)">
        <g id="Grupo_307" data-name="Grupo 307">
          <rect id="Rectángulo_131" data-name="Rectángulo 131" width="1.56" height="0.78" fill="#fff" stroke="#fff" stroke-width="0.5"/>
        </g>
      </g>
      <g id="Grupo_310" data-name="Grupo 310" transform="translate(2.257 10.694)">
        <g id="Grupo_309" data-name="Grupo 309" transform="translate(0 0)">
          <rect id="Rectángulo_132" data-name="Rectángulo 132" width="0.78" height="1.56" transform="matrix(0.316, -0.949, 0.949, 0.316, 0, 0.74)" fill="#fff" stroke="#fff" stroke-width="0.5"/>
        </g>
      </g>
      <g id="Grupo_312" data-name="Grupo 312" transform="translate(3.467 6.652)">
        <g id="Grupo_311" data-name="Grupo 311" transform="translate(0 0)">
          <rect id="Rectángulo_133" data-name="Rectángulo 133" width="0.78" height="1.56" transform="translate(0 0.74) rotate(-71.561)" fill="#fff" stroke="#fff" stroke-width="0.5"/>
        </g>
      </g>
      <g id="Grupo_314" data-name="Grupo 314" transform="translate(19.502)">
        <g id="Grupo_313" data-name="Grupo 313">
          <path id="Trazado_1041" data-name="Trazado 1041" d="M403.51,1.56A1.171,1.171,0,0,1,402.34.39a.39.39,0,1,0-.78,0,1.171,1.171,0,0,1-1.17,1.17.39.39,0,1,0,0,.78,1.171,1.171,0,0,1,1.17,1.17.39.39,0,1,0,.78,0,1.171,1.171,0,0,1,1.17-1.17.39.39,0,0,0,0-.78Zm-1.56.781a1.968,1.968,0,0,0-.391-.391.391.391,0,1,1,.782,0A1.966,1.966,0,0,0,401.95,2.341Z" transform="translate(-400 0)" fill="#fff" stroke="#fff" stroke-width="0.5"/>
        </g>
      </g>
      <g id="Grupo_316" data-name="Grupo 316">
        <g id="Grupo_315" data-name="Grupo 315">
          <path id="Trazado_1042" data-name="Trazado 1042" d="M3.51,1.56A1.171,1.171,0,0,1,2.34.39a.39.39,0,1,0-.78,0A1.171,1.171,0,0,1,.39,1.56a.39.39,0,1,0,0,.78A1.171,1.171,0,0,1,1.56,3.51a.39.39,0,1,0,.78,0A1.171,1.171,0,0,1,3.51,2.34a.39.39,0,1,0,0-.78Zm-1.56.781a1.967,1.967,0,0,0-.391-.391,1.967,1.967,0,0,0,.391-.391,1.967,1.967,0,0,0,.391.391A1.967,1.967,0,0,0,1.95,2.341Z" fill="#fff" stroke="#fff" stroke-width="0.5"/>
        </g>
      </g>
    </g>
  </g>
</svg>
