<svg xmlns="http://www.w3.org/2000/svg" width="28.338" height="25.155" viewBox="0 0 28.338 25.155">
  <g id="Grupo_348" data-name="Grupo 348" transform="translate(-151.875 41.695)">
    <path id="Trazado_1059" data-name="Trazado 1059" d="M177.834-39.263a8.159,8.159,0,0,0-5.8-2.432h-.061a8.058,8.058,0,0,0-5.791,2.466l-.186.193-.193-.186a8.369,8.369,0,0,0-5.832-2.371,8.5,8.5,0,0,0-2.1.264,7.848,7.848,0,0,0-5.716,5.893,8.033,8.033,0,0,0,2.413,8.105l9.71,9.723a2.121,2.121,0,0,0,1.731,1.068,2.077,2.077,0,0,0,1.636-.821c.055-.064.1-.118.167-.181l9.587-9.752a8.223,8.223,0,0,0,2.813-6.151A8.154,8.154,0,0,0,177.834-39.263Zm-2,10.259-9.75,9.91-9.913-9.913a5.761,5.761,0,0,1-1.78-5.812l.029-.119a5.5,5.5,0,0,1,4.033-4.146,6.148,6.148,0,0,1,1.505-.186c.021,0,.053,0,.08,0a5.891,5.891,0,0,1,4.968,2.754l.985,1.641,1-1.626a5.78,5.78,0,0,1,4.991-2.874h.059a5.954,5.954,0,0,1,5.851,6.021A6.075,6.075,0,0,1,175.838-29Z" fill="#6628c9"/>
  </g>
</svg>
