<svg xmlns="http://www.w3.org/2000/svg" width="34.988" height="20.629" viewBox="0 0 34.988 20.629">
  <g id="Símbolo_11_5" data-name="Símbolo 11 5" transform="translate(-551.19 106.432)">
    <path id="Trazado_970" data-name="Trazado 970" d="M-11.176-39.431a3.371,3.371,0,0,0-3.354,3.358,3.334,3.334,0,0,0,.584,1.889L-18.6-29.521a3.34,3.34,0,0,0-2.156-.8,3.382,3.382,0,0,0-2.89,1.664l-2.4-.9c.008-.094.015-.189.015-.285a3.353,3.353,0,0,0-3.353-3.353,3.354,3.354,0,0,0-3.354,3.353,3.32,3.32,0,0,0,.254,1.244l-4.776,3.913a3.327,3.327,0,0,0-2.185-.839,3.358,3.358,0,0,0-3.363,3.353A3.358,3.358,0,0,0-39.457-18.8a3.357,3.357,0,0,0,3.363-3.353v0a3.267,3.267,0,0,0-.119-.885l4.911-4.033a3.346,3.346,0,0,0,4.551-.689l2.65.99A3.348,3.348,0,0,0-20.594-23.6a3.347,3.347,0,0,0,3.185-3.361,3.3,3.3,0,0,0-.135-.915l5.075-5.082a3.322,3.322,0,0,0,1.288.24,3.359,3.359,0,0,0,3.359-3.359,3.359,3.359,0,0,0-3.359-3.358Zm0,1.919a1.439,1.439,0,0,1,1.441,1.437,1.439,1.439,0,0,1-1.437,1.441,1.439,1.439,0,0,1-1.441-1.437v0A1.425,1.425,0,0,1-11.2-37.512Zm-18.205,6.237a1.439,1.439,0,0,1,1.441,1.437A1.439,1.439,0,0,1-29.377-28.4a1.439,1.439,0,0,1-1.441-1.437v0a1.425,1.425,0,0,1,1.409-1.439Zm8.623,2.879a1.439,1.439,0,0,1,1.441,1.437,1.439,1.439,0,0,1-1.437,1.441,1.439,1.439,0,0,1-1.441-1.437v0a1.481,1.481,0,0,1,.083-.48,1.425,1.425,0,0,1,1.349-.959Zm-18.684,4.8A1.439,1.439,0,0,1-38-22.159a1.439,1.439,0,0,1-1.437,1.441,1.439,1.439,0,0,1-1.441-1.437h0A1.425,1.425,0,0,1-39.474-23.6h.032Z" transform="translate(594 -67)" fill="#2dac71"/>
  </g>
</svg>
