<?xml version="1.0" standalone="no"?>
<!DOCTYPE svg PUBLIC "-//W3C//DTD SVG 1.1//EN" "http://www.w3.org/Graphics/SVG/1.1/DTD/svg11.dtd" >
<svg xmlns="http://www.w3.org/2000/svg" xmlns:xlink="http://www.w3.org/1999/xlink" version="1.1">
<metadata></metadata>
<defs>
<font id="solido_compressedbook" horiz-adv-x="651" >
<font-face units-per-em="2048" ascent="1536" descent="-512" />
<missing-glyph horiz-adv-x="286" />
<glyph unicode="&#xfb01;" horiz-adv-x="733" d="M25 907v117h81v250q0 112 50 156.5t141 44.5h354v-312h-143v187h-168q-48 0 -69 -24t-21 -73v-229h151v-117h-151v-907h-144v907h-81zM508 0v1024h143v-1024h-143z" />
<glyph unicode="&#xfb02;" horiz-adv-x="741" d="M25 907v117h81v250q0 112 50 156.5t141 44.5h354v-1475h-143v1350h-168q-48 0 -69 -24t-21 -73v-229h151v-117h-151v-907h-144v907h-81z" />
<glyph horiz-adv-x="0" />
<glyph horiz-adv-x="682" />
<glyph unicode=" "  horiz-adv-x="286" />
<glyph unicode="&#x09;" horiz-adv-x="286" />
<glyph unicode="&#xa0;" horiz-adv-x="286" />
<glyph unicode="!" horiz-adv-x="348" d="M100 0h148v195h-148v-195zM100 819v615h148v-615l-27 -461h-92z" />
<glyph unicode="&#x22;" horiz-adv-x="610" d="M76 1239v195h127v-195l-27 -272h-74zM408 1239v195h129v-195l-29 -272h-74z" />
<glyph unicode="#" horiz-adv-x="870" d="M61 494v75h170v318h-170v76h170v471h76v-471h258v471h76v-471h170v-76h-170v-318h170v-75h-170v-494h-76v494h-258v-494h-76v494h-170zM307 569h258v318h-258v-318z" />
<glyph unicode="$" horiz-adv-x="733" d="M74 252v260h143v-260q0 -61 41.5 -98t108.5 -37t107 35t40 92v145q0 54 -24 100.5t-62.5 80.5t-85 67.5t-93 70.5t-85 80t-62.5 105.5t-24 138.5v160q0 110 67 176.5t183 75.5v194h78v-194q116 -11 182.5 -80t66.5 -182v-260h-143v260q0 61 -39 98t-106 37 q-65 0 -103.5 -35t-38.5 -90v-160q0 -54 24 -99.5t62.5 -79.5t85 -67.5t93.5 -70.5t85.5 -80t62.5 -105t24 -137v-145q0 -114 -69 -181.5t-187 -76.5v-195h-78v195q-117 11 -185.5 80t-68.5 182z" />
<glyph unicode="%" horiz-adv-x="1165" d="M74 737v557q0 73 48 116.5t130 43.5q80 0 129 -43.5t49 -116.5v-557q0 -73 -49 -116t-129 -43q-82 0 -130 43t-48 116zM164 737q0 -34 24.5 -56t63.5 -22q38 0 62 22t24 56v557q0 35 -24 56.5t-62 21.5q-40 0 -64 -21.5t-24 -56.5v-557zM233 0h76l625 1434h-76zM735 152 v557q0 73 49 116t129 43t129.5 -43t49.5 -116v-557q0 -73 -49.5 -116.5t-129.5 -43.5t-129 43.5t-49 116.5zM825 152q0 -35 24 -56.5t64 -21.5q38 0 62 21.5t24 56.5v557q0 35 -23.5 56t-62.5 21q-40 0 -64 -21t-24 -56v-557z" />
<glyph unicode="&#x26;" horiz-adv-x="870" d="M76 252v217q0 94 32 156t105 116q-66 99 -96.5 178.5t-30.5 170.5v102q0 119 77 186.5t210 67.5q132 0 209 -70.5t77 -193.5v-260h-141v260q0 61 -39 98t-106 37q-65 0 -104.5 -35t-39.5 -90v-100q0 -120 95 -267l194 -282v225h303v-127h-159v-307l159 -234v-100h-104 l-84 123q-32 -65 -100.5 -100t-163.5 -35q-133 0 -213 71t-80 193zM219 252q0 -61 41 -98t109 -37q66 0 107.5 35t41.5 92v49l-231 342q-68 -68 -68 -166v-217z" />
<glyph unicode="'" horiz-adv-x="278" d="M76 1239v195h127v-195l-27 -272h-74z" />
<glyph unicode="(" horiz-adv-x="491" d="M53 717q0 -272 86.5 -534t241.5 -490h96q-282 497 -282 1024t282 1024h-96q-155 -228 -241.5 -490t-86.5 -534z" />
<glyph unicode=")" horiz-adv-x="491" d="M14 -307q283 498 283 1024t-283 1024h97q155 -228 241 -489.5t86 -534.5t-86 -534.5t-241 -489.5h-97z" />
<glyph unicode="*" horiz-adv-x="550" d="M61 1157l148 74l-148 72l43 77l138 -92l-11 164h88l-10 -164l137 92l46 -77l-150 -72l150 -74l-46 -76l-137 93l10 -166h-88l11 166l-138 -93z" />
<glyph unicode="+" horiz-adv-x="589" d="M61 666v112h177v178h114v-178h176v-112h-176v-177h-114v177h-177z" />
<glyph unicode="," horiz-adv-x="286" d="M27 -272h102l78 272v195h-127v-195z" />
<glyph unicode="-" horiz-adv-x="563" d="M72 455v114h420v-114h-420z" />
<glyph unicode="." horiz-adv-x="286" d="M80 0h127v195h-127v-195z" />
<glyph unicode="/" horiz-adv-x="798" d="M49 0h76l625 1434h-76z" />
<glyph unicode="0" horiz-adv-x="768" d="M90 252v930q0 122 80 193t213 71q134 0 214.5 -71t80.5 -193v-930q0 -122 -80.5 -193t-214.5 -71q-133 0 -213 71t-80 193zM236 252q0 -60 40.5 -97.5t106.5 -37.5q67 0 108 37.5t41 97.5v930q0 60 -41 97.5t-108 37.5q-66 0 -106.5 -37.5t-40.5 -97.5v-930z" />
<glyph unicode="1" horiz-adv-x="552" d="M51 0v125h164v1184h-164v125h309v-1309h164v-125h-473z" />
<glyph unicode="2" horiz-adv-x="729" d="M74 0v270q0 74 24.5 142.5t63.5 121t86 102t94 95t86 90t63.5 96t24.5 105.5v160q0 60 -40.5 97.5t-106.5 37.5q-67 0 -106.5 -37t-39.5 -98v-250h-143v250q0 122 78 193t211 71t213 -71t80 -193v-160q0 -76 -24.5 -144.5t-63 -121t-85.5 -101t-94.5 -93.5t-86 -89 t-63 -96t-24.5 -107v-145h441v-125h-588z" />
<glyph unicode="3" horiz-adv-x="739" d="M74 252v250h145v-250q0 -60 41 -97.5t107 -37.5q67 0 107 36.5t40 96.5v303q0 59 -40 97t-107 38h-74v129h74q66 0 102.5 37t36.5 96v234q0 61 -36.5 97t-102.5 36t-106 -37.5t-40 -97.5v-250h-143v250q0 122 78 193t211 71q132 0 206 -67.5t74 -188.5v-236 q0 -141 -112 -200q127 -62 127 -203v-305q0 -121 -80.5 -189.5t-214.5 -68.5q-133 0 -213 71t-80 193z" />
<glyph unicode="4" horiz-adv-x="768" d="M27 387v127l422 920h147v-920h141v-127h-141v-387h-147v387h-422zM170 514h279v627z" />
<glyph unicode="5" horiz-adv-x="731" d="M82 252v250h143v-250q0 -60 40.5 -97.5t107.5 -37.5q66 0 106.5 37.5t40.5 97.5v375q0 60 -40.5 97.5t-106.5 37.5h-281v672h547v-125h-403v-418h137q134 0 213.5 -70.5t79.5 -193.5v-375q0 -122 -80 -193t-213 -71t-212 71t-79 193z" />
<glyph unicode="6" horiz-adv-x="755" d="M90 252v930q0 122 80 193t213 71q134 0 212.5 -70.5t78.5 -193.5v-250h-144v250q0 60 -40 97.5t-107 37.5q-66 0 -106.5 -37.5t-40.5 -97.5v-365h147q135 0 215 -70.5t80 -193.5v-301q0 -122 -80.5 -193t-214.5 -71q-133 0 -213 71t-80 193zM236 252q0 -60 40.5 -97.5 t106.5 -37.5q67 0 108 37.5t41 97.5v301q0 60 -41 97.5t-108 37.5h-147v-436z" />
<glyph unicode="7" horiz-adv-x="634" d="M29 1309v125h575v-125q-140 -247 -217.5 -595t-77.5 -714h-149q0 337 81.5 703.5t215.5 605.5h-428z" />
<glyph unicode="8" horiz-adv-x="743" d="M78 246v270q0 144 131 203q-115 62 -115 201v270q0 121 73.5 188.5t205.5 67.5t205 -67t73 -189v-270q0 -142 -112 -201q127 -62 127 -203v-270q0 -121 -79.5 -189.5t-213.5 -68.5t-214.5 68.5t-80.5 189.5zM225 250q0 -60 40.5 -96.5t107.5 -36.5q66 0 106.5 36.5 t40.5 96.5v268q0 59 -41 97t-106 38q-67 0 -107.5 -38t-40.5 -97v-268zM236 915q0 -59 36 -96t101 -37q64 0 100.5 37t36.5 96v269q0 61 -36 97t-101 36q-66 0 -101.5 -36t-35.5 -97v-269z" />
<glyph unicode="9" horiz-adv-x="755" d="M78 881v301q0 122 80 193t213 71t214 -71t81 -193v-930q0 -122 -81 -193t-214 -71t-211 71t-78 193v250h143v-250q0 -60 40 -97.5t106 -37.5q67 0 108 37.5t41 97.5v364h-149q-133 0 -213 71t-80 194zM223 881q0 -60 41 -98t107 -38h149v437q0 60 -41 97.5t-108 37.5 q-66 0 -107 -37.5t-41 -97.5v-301z" />
<glyph unicode=":" horiz-adv-x="313" d="M92 145h129v195h-129v-195zM92 623h129v194h-129v-194z" />
<glyph unicode=";" horiz-adv-x="350" d="M66 -272h100l80 272v195h-129v-195zM117 623h129v194h-129v-194z" />
<glyph unicode="&#x3c;" horiz-adv-x="587" d="M59 659v121l437 160v-123l-281 -96v-4l281 -90v-123z" />
<glyph unicode="=" horiz-adv-x="600" d="M90 530v115h420v-115h-420zM90 801v112h420v-112h-420z" />
<glyph unicode="&#x3e;" horiz-adv-x="587" d="M90 504l436 155v121l-436 160v-123l283 -96v-4l-283 -90v-123z" />
<glyph unicode="?" horiz-adv-x="714" d="M61 932v250q0 122 78 193t211 71t213 -71t80 -193v-355q0 -105 -59.5 -173t-161.5 -85l-21 -217h-112v340h61q66 0 107 37.5t41 97.5v355q0 60 -41 97.5t-107 37.5q-67 0 -106 -37t-39 -98v-250h-144zM276 0v195h148v-195h-148z" />
<glyph unicode="@" horiz-adv-x="886" d="M92 90v844q0 132 91.5 219.5t265.5 87.5q175 0 266.5 -87.5t91.5 -219.5v-758h-262l-25 47q-34 -55 -102 -55q-65 0 -93 42t-28 105v340q0 63 28 105.5t93 42.5q72 0 110 -64l11 56h71v-539h107v678q0 102 -68.5 163.5t-199.5 61.5q-130 0 -198.5 -61.5t-68.5 -163.5 v-844q0 -102 68.5 -163.5t198.5 -61.5v-82q-174 0 -265.5 87.5t-91.5 219.5zM387 324q0 -33 15.5 -53.5t46.5 -20.5q71 0 71 112v246q0 113 -71 113q-31 0 -46.5 -20.5t-15.5 -53.5v-323z" />
<glyph unicode="A" horiz-adv-x="722" d="M18 0l271 1444h147l269 -1444h-150l-66 391h-260l-65 -391h-146zM250 516h219l-111 651z" />
<glyph unicode="B" horiz-adv-x="759" d="M98 0v1434h293q130 0 204.5 -63.5t74.5 -184.5v-266q0 -141 -129 -191q151 -50 151 -203v-274q0 -122 -74.5 -187t-207.5 -65h-312zM246 125h164q64 0 100.5 34.5t36.5 96.5v274q0 60 -37 94.5t-100 34.5h-164v-534zM246 784h143q62 0 97.5 33.5t35.5 93.5v271 q0 60 -35.5 93.5t-97.5 33.5h-143v-525z" />
<glyph unicode="C" horiz-adv-x="741" d="M84 252q0 -122 81 -193t214 -71t213 71t80 193v260h-144v-260q0 -61 -41.5 -98t-107.5 -37q-67 0 -107.5 36.5t-40.5 98.5v930q0 60 40.5 97.5t107.5 37.5q66 0 107.5 -37.5t41.5 -97.5v-260h144v260q0 122 -80 193t-213 71t-214 -71t-81 -193v-930z" />
<glyph unicode="D" horiz-adv-x="772" d="M98 0v1434h303q133 0 210 -69t77 -191v-914q0 -122 -77 -191t-210 -69h-303zM246 125h155q64 0 102 36.5t38 98.5v914q0 61 -38 98t-102 37h-155v-1184z" />
<glyph unicode="E" d="M98 0v1434h510v-125h-362v-525h301v-125h-301v-534h362v-125h-510z" />
<glyph unicode="F" horiz-adv-x="638" d="M98 0v1434h510v-125h-362v-568h301v-125h-301v-616h-148z" />
<glyph unicode="G" horiz-adv-x="749" d="M84 252v930q0 122 81 193t214 71t213 -71t80 -193v-260h-144v260q0 60 -41.5 97.5t-107.5 37.5q-67 0 -107.5 -37.5t-40.5 -97.5v-930q0 -62 40.5 -98.5t107.5 -36.5q66 0 107.5 37t41.5 98v303h-147v125h291v-428q0 -122 -80 -193t-213 -71t-214 71t-81 193z" />
<glyph unicode="H" horiz-adv-x="790" d="M98 0v1434h148v-650h301v650h145v-1434h-145v659h-301v-659h-148z" />
<glyph unicode="I" horiz-adv-x="344" d="M98 0v1434h148v-1434h-148z" />
<glyph unicode="J" horiz-adv-x="428" d="M29 0q76 0 126 8.5t93 32.5t63.5 71.5t20.5 120.5v1201h-146v-1182q0 -79 -34 -103t-123 -24v-125z" />
<glyph unicode="K" horiz-adv-x="724" d="M98 0v1434h148v-660l321 660h162l-348 -699l354 -735h-164l-325 680v-680h-148z" />
<glyph unicode="L" horiz-adv-x="630" d="M100 0v1434h146v-1309h358v-125h-504z" />
<glyph unicode="M" horiz-adv-x="942" d="M98 0v1434h156l221 -676l225 676h144v-1434h-148v664q0 186 9 391l-170 -510h-136l-176 540q10 -257 10 -421v-664h-135z" />
<glyph unicode="N" horiz-adv-x="800" d="M98 0v1434h160l320 -1059q-9 208 -9 395v664h133v-1434h-155l-322 1063q8 -188 8 -399v-664h-135z" />
<glyph unicode="O" horiz-adv-x="757" d="M84 252q0 -122 81 -193t214 -71t213 71t80 193v930q0 122 -80 193t-213 71t-214 -71t-81 -193v-930zM231 252v930q0 60 40.5 97.5t107.5 37.5q66 0 106.5 -37.5t40.5 -97.5v-930q0 -60 -40.5 -97.5t-106.5 -37.5q-67 0 -107.5 37.5t-40.5 97.5z" />
<glyph unicode="P" horiz-adv-x="727" d="M98 0v1434h297q133 0 210 -69t77 -191v-343q0 -122 -77 -191t-210 -69h-149v-571h-148zM246 696h149q66 0 104 36.5t38 98.5v343q0 61 -38.5 98t-103.5 37h-149v-613z" />
<glyph unicode="Q" horiz-adv-x="757" d="M84 252v930q0 122 81 193t214 71t213 -71t80 -193v-930q0 -103 -58.5 -171t-160.5 -87v-66q0 -76 33 -98.5t122 -22.5v-124q-60 0 -103.5 5t-83 19.5t-64 39.5t-38.5 65.5t-14 97.5v84q-102 19 -161.5 87t-59.5 171zM231 252q0 -60 40.5 -97.5t107.5 -37.5 q66 0 106.5 37.5t40.5 97.5v930q0 60 -40.5 97.5t-106.5 37.5q-67 0 -107.5 -37.5t-40.5 -97.5v-930z" />
<glyph unicode="R" horiz-adv-x="763" d="M98 0v1434h312q131 0 201.5 -66.5t70.5 -185.5v-242q0 -182 -145 -233q103 -45 120 -201l48 -506h-148l-39 502q-9 81 -47 114t-106 33h-119v-649h-148zM246 774h157q66 0 100 35t34 94v275q0 58 -34.5 94.5t-99.5 36.5h-157v-535z" />
<glyph unicode="S" horiz-adv-x="724" d="M68 252q0 -122 79.5 -193t212.5 -71q135 0 216 69t81 191v145q0 75 -24 137t-63 105t-85.5 80t-93 70.5t-85.5 67.5t-63 79.5t-24 99.5v160q0 55 38.5 90t104.5 35t106 -37.5t40 -97.5v-260h143v260q0 122 -78 193t-211 71t-210.5 -67.5t-77.5 -186.5v-160 q0 -76 24 -138.5t62.5 -105.5t85 -80t93 -70.5t85 -67.5t62.5 -80.5t24 -100.5v-145q0 -57 -41 -92t-107 -35q-68 0 -109.5 37t-41.5 98v260h-143v-260z" />
<glyph unicode="T" horiz-adv-x="618" d="M35 1309v125h549v-125h-201v-1309h-145v1309h-203z" />
<glyph unicode="U" horiz-adv-x="780" d="M96 252v1182h146v-1182q0 -61 40.5 -98t106.5 -37q68 0 109 37t41 98v1182h145v-1182q0 -122 -81 -193t-214 -71t-213 71t-80 193z" />
<glyph unicode="V" horiz-adv-x="722" d="M20 1434h150l195 -1147l196 1147h144l-271 -1444h-145z" />
<glyph unicode="W" horiz-adv-x="1120" d="M23 1434h149l156 -1094l161 1094h150l160 -1102l157 1102h142l-232 -1444h-145l-160 1104l-160 -1104h-147z" />
<glyph unicode="X" horiz-adv-x="688" d="M2 0l268 729l-258 705h152l180 -545l182 545h150l-258 -705l268 -729h-149l-193 573l-190 -573h-152z" />
<glyph unicode="Y" horiz-adv-x="706" d="M12 1434h150l194 -709l195 709h145l-270 -899v-535h-147v535z" />
<glyph unicode="Z" horiz-adv-x="622" d="M35 0v125l395 1184h-375v125h527v-125l-396 -1184h400v-125h-551z" />
<glyph unicode="[" horiz-adv-x="516" d="M106 -307v2048h375v-105h-256v-1839h256v-104h-375z" />
<glyph unicode="\" horiz-adv-x="798" d="M47 1434h78l625 -1434h-78z" />
<glyph unicode="]" horiz-adv-x="516" d="M33 -203h258v1839h-258v105h377v-2048h-377v104z" />
<glyph unicode="^" horiz-adv-x="653" d="M117 594l149 287h119l152 -287h-121l-90 180l-88 -180h-121z" />
<glyph unicode="_" horiz-adv-x="618" d="M98 -41h420v-113h-420v113z" />
<glyph unicode="`" horiz-adv-x="509" d="M117 1413h143l133 -287h-117z" />
<glyph unicode="a" horiz-adv-x="643" d="M47 213v125q0 53 7 90.5t30 75t63 60.5t109 38t166 16v162q0 125 -119 125q-85 0 -186 -63l-51 110q118 84 251 84q248 0 248 -250v-786h-116l-17 106q-29 -61 -80 -89.5t-108 -28.5t-97 19t-61 53t-30 71t-9 82zM190 229q0 -51 25.5 -81.5t79.5 -30.5q127 0 127 202v191 q-74 -2 -121 -12.5t-70.5 -30.5t-32 -43.5t-8.5 -58.5v-136z" />
<glyph unicode="b" horiz-adv-x="667" d="M82 0h117l14 98q63 -110 186 -110q57 0 97.5 20.5t61.5 56.5t30.5 76t9.5 88v566q0 48 -9.5 88t-30.5 76t-61.5 56.5t-97.5 20.5q-116 0 -174 -98v537h-143v-1475zM225 307v410q0 86 29.5 138t93.5 52q54 0 80.5 -36t26.5 -91v-536q0 -55 -26.5 -91t-80.5 -36 q-64 0 -93.5 52t-29.5 138z" />
<glyph unicode="c" horiz-adv-x="575" d="M66 252q0 -135 72 -199.5t198 -64.5q98 0 211 35l-17 124q-88 -30 -163 -30q-82 0 -120 37t-38 116v484q0 79 38 116t120 37q75 0 163 -30l17 124q-113 35 -211 35q-126 0 -198 -64.5t-72 -199.5v-520z" />
<glyph unicode="d" horiz-adv-x="667" d="M70 229v566q0 37 5.5 70t19 65t35.5 55t57 37t81 14q116 0 174 -98v537h144v-1475h-117l-14 98q-32 -56 -81.5 -83t-105.5 -27q-46 0 -81 14t-57 37t-35.5 55t-19 65t-5.5 70zM213 244q0 -55 26 -91t80 -36q64 0 93.5 52t29.5 138v410q0 86 -29.5 138t-93.5 52 q-54 0 -80 -36t-26 -91v-536z" />
<glyph unicode="e" horiz-adv-x="641" d="M68 250v534q0 123 67 187.5t191 64.5q121 0 186.5 -63.5t65.5 -186.5v-309h-367v-213q0 -78 39.5 -112.5t122.5 -34.5q108 0 196 30l19 -124q-112 -35 -244 -35q-127 0 -201.5 63.5t-74.5 198.5zM211 592h229v199q0 56 -28.5 89t-85.5 33q-58 0 -86.5 -34.5t-28.5 -90.5 v-196z" />
<glyph unicode="f" horiz-adv-x="419" d="M25 907h81v-907h144v907h151v117h-151v242q0 49 21 72.5t69 23.5q39 0 72 -8l8 121q-54 12 -123 12q-91 0 -141 -44t-50 -157v-262h-81v-117z" />
<glyph unicode="g" horiz-adv-x="667" d="M70 256q0 -48 9 -88.5t30 -77t61.5 -57.5t97.5 -21q53 0 99 26t75 75v-263q0 -78 -38.5 -114.5t-116.5 -36.5q-98 0 -189 31l-16 -125q113 -35 221 -35q283 0 283 276v1178h-117l-14 -98q-32 56 -81.5 83t-105.5 27q-46 0 -81 -14t-57 -37t-35.5 -55t-19 -65t-5.5 -70 v-539zM213 268v512q0 55 26 91t80 36q64 0 93.5 -52t29.5 -138v-385q0 -86 -29.5 -137.5t-93.5 -51.5q-54 0 -80 35t-26 90z" />
<glyph unicode="h" horiz-adv-x="677" d="M82 0h143v717q0 86 30 138t95 52q53 0 80 -36t27 -91v-780h143v795q0 37 -5.5 70t-20 65t-36.5 55t-57.5 37t-81.5 14q-113 0 -174 -98v537h-143v-1475z" />
<glyph unicode="i" horiz-adv-x="309" d="M82 0h143v1024h-143v-1024zM82 1163h143v256h-143v-256z" />
<glyph unicode="j" horiz-adv-x="309" d="M-88 -418q70 -12 123 -12q91 0 140.5 44.5t49.5 156.5v1253h-143v-1233q0 -49 -20 -72.5t-68 -23.5q-30 0 -72 10zM82 1163h143v256h-143v-256z" />
<glyph unicode="k" horiz-adv-x="681" d="M82 0v1475h143v-918l301 467h162l-328 -494l334 -530h-164l-305 485v-485h-143z" />
<glyph unicode="l" horiz-adv-x="327" d="M92 0h144v1475h-144v-1475z" />
<glyph unicode="m" horiz-adv-x="1050" d="M82 0v1024h117l14 -98q63 110 186 110q137 0 181 -123q33 64 85.5 93.5t106.5 29.5q57 0 97.5 -20.5t61.5 -56.5t30.5 -76t9.5 -88v-795h-144v780q0 55 -26 91t-80 36q-64 0 -93.5 -52t-29.5 -138v-717h-143v780q0 55 -26.5 91t-80.5 36q-64 0 -93.5 -52t-29.5 -138v-717 h-143z" />
<glyph unicode="n" horiz-adv-x="677" d="M82 0h143v717q0 86 29.5 138t93.5 52q54 0 80.5 -36t26.5 -91v-780h143v795q0 48 -9.5 88t-30.5 76t-61.5 56.5t-97.5 20.5q-123 0 -186 -110l-14 98h-117v-1024z" />
<glyph unicode="o" d="M68 240v544q0 123 67 187.5t191 64.5t191 -64.5t67 -187.5v-544q0 -123 -67 -187.5t-191 -64.5t-191 64.5t-67 187.5zM211 236q0 -56 28.5 -90.5t86.5 -34.5q57 0 85.5 34.5t28.5 90.5v552q0 56 -28.5 90.5t-85.5 34.5q-58 0 -86.5 -34.5t-28.5 -90.5v-552z" />
<glyph unicode="p" horiz-adv-x="667" d="M82 -410v1434h117l14 -98q63 110 186 110q57 0 97.5 -20.5t61.5 -56.5t30.5 -76t9.5 -88v-566q0 -48 -9.5 -88t-30.5 -76t-61.5 -56.5t-97.5 -20.5q-116 0 -174 98v-496h-143zM225 307q0 -86 29.5 -138t93.5 -52q54 0 80.5 36t26.5 91v536q0 55 -26.5 91t-80.5 36 q-64 0 -93.5 -52t-29.5 -138v-410z" />
<glyph unicode="q" horiz-adv-x="667" d="M70 229q0 -37 5.5 -70t19 -65t35.5 -55t57 -37t81 -14q116 0 174 98v-496h144v1434h-117l-14 -98q-32 56 -81.5 83t-105.5 27q-46 0 -81 -14t-57 -37t-35.5 -55t-19 -65t-5.5 -70v-566zM213 244v536q0 55 26 91t80 36q64 0 93.5 -52t29.5 -138v-410q0 -86 -29.5 -138 t-93.5 -52q-54 0 -80 36t-26 91z" />
<glyph unicode="r" horiz-adv-x="438" d="M82 0h143v690q0 91 43.5 139t139.5 48v159q-59 0 -115 -34.5t-80 -106.5l-14 129h-117v-1024z" />
<glyph unicode="s" horiz-adv-x="600" d="M41 33q104 -45 240 -45q129 0 205.5 66t76.5 184v43q0 64 -20 114t-52 81t-70.5 56.5t-77 47t-70.5 44.5t-52 57t-20 77v41q0 53 32 83.5t93 30.5q86 0 180 -36l22 124q-113 35 -211 35q-127 0 -196.5 -64t-69.5 -173v-43q0 -63 20 -113t52 -81.5t70.5 -57.5t77.5 -48 t71 -45.5t52 -57.5t20 -77v-38q0 -61 -35 -94t-100 -33q-98 0 -209 47z" />
<glyph unicode="t" horiz-adv-x="434" d="M25 907v117h81v205h144v-205h158v-117h-158v-698q0 -49 21 -72.5t69 -23.5q39 0 72 8l10 -121q-56 -12 -123 -12q-93 0 -143 43.5t-50 156.5v719h-81z" />
<glyph unicode="u" horiz-adv-x="677" d="M80 229q0 -37 5.5 -70t19.5 -65t36 -55t58 -37t82 -14q54 0 103 27t81 83l14 -98h117v1024h-143v-717q0 -86 -29.5 -138t-93.5 -52q-54 0 -80.5 36t-26.5 91v780h-143v-795z" />
<glyph unicode="v" horiz-adv-x="626" d="M14 1024h144l157 -823l158 823h139l-229 -1034h-141z" />
<glyph unicode="w" horiz-adv-x="974" d="M16 1024h144l129 -811l127 811h141l129 -813l129 813h141l-194 -1034h-148l-127 794l-127 -794h-147z" />
<glyph unicode="x" horiz-adv-x="608" d="M4 0l227 512l-227 512h146l157 -367l158 367h139l-229 -512l229 -512h-139l-158 367l-157 -367h-146z" />
<glyph unicode="y" horiz-adv-x="624" d="M-4 -418l8 123q47 -14 90 -14q54 0 81 25.5t44 90.5l41 183h-20l-228 1034h146l159 -823l156 823h137l-262 -1192q-18 -82 -41 -134t-54.5 -80t-67 -38t-87.5 -10q-34 0 -102 12z" />
<glyph unicode="z" horiz-adv-x="546" d="M35 0v117l321 790h-307v117h453v-117l-322 -790h332v-117h-477z" />
<glyph unicode="{" horiz-adv-x="468" d="M27 659q30 -4 53 -13.5t38 -20t25 -30t15.5 -34.5t8 -44t3 -46.5t0.5 -54.5q0 -60 -10 -214.5t-10 -217.5q0 -76 12 -128.5t33 -84.5t58 -49.5t77 -23t100 -5.5v104q-26 0 -43.5 2t-42.5 13t-39.5 31t-25.5 59.5t-11 95.5q0 62 10.5 236.5t10.5 238.5q0 113 -34 165.5 t-116 76.5v4q82 24 116 76.5t34 165.5q0 64 -10.5 238.5t-10.5 236.5q0 47 7 82.5t20.5 56.5t27.5 34t35.5 18.5t35.5 7t36 1.5v105q-60 0 -100 -5.5t-77 -23t-58 -49.5t-33 -84.5t-12 -128.5q0 -63 10 -217.5t10 -214.5q0 -37 -0.5 -54.5t-3 -47t-8 -44t-15.5 -34.5 t-25 -30.5t-38 -20t-53 -13.5v-115z" />
<glyph unicode="|" horiz-adv-x="288" d="M106 -307v2048h78v-2048h-78z" />
<glyph unicode="}" horiz-adv-x="468" d="M39 -203q26 0 43.5 2t42.5 13t39.5 31t25.5 59.5t11 95.5q0 62 -10.5 236.5t-10.5 238.5q0 113 34 165.5t116 76.5v4q-82 24 -116 76.5t-34 165.5q0 64 10.5 238.5t10.5 236.5q0 47 -7 82.5t-20.5 56.5t-27.5 34t-35.5 18.5t-35.5 7t-36 1.5v105q60 0 100 -5.5t77 -23 t58 -49.5t33 -84.5t12 -128.5q0 -63 -10 -217.5t-10 -214.5q0 -37 0.5 -54.5t3 -47t8 -44t15.5 -34.5t25 -30.5t38 -20t53 -13.5v-115q-30 -4 -53 -13.5t-38 -20t-25 -30t-15.5 -34.5t-8 -44t-3 -46.5t-0.5 -54.5q0 -60 10 -214.5t10 -217.5q0 -76 -12 -128.5t-33 -84.5 t-58 -49.5t-77 -23t-100 -5.5v104z" />
<glyph unicode="~" horiz-adv-x="612" d="M70 633q0 95 34 142.5t93 47.5q45 0 110 -41t94 -41q62 0 62 82h82q0 -96 -34 -143t-93 -47q-45 0 -110.5 40t-94.5 40q-61 0 -61 -80h-82z" />
<glyph unicode="&#xa1;" horiz-adv-x="329" d="M92 -139v-271h146v271l-27 805h-92zM92 829v195h148v-195h-148z" />
<glyph unicode="&#xa2;" horiz-adv-x="622" d="M80 252v520q0 123 59.5 188t165.5 74v195h78v-193q77 -4 178 -35l-18 -124q-88 30 -164 30q-80 0 -118 -37t-38 -116v-484q0 -79 38 -116t118 -37q76 0 164 30l18 -124q-101 -31 -178 -35v-193h-78v195q-106 9 -165.5 74t-59.5 188z" />
<glyph unicode="&#xa3;" horiz-adv-x="806" d="M68 555v125h84v512q0 119 77.5 186.5t210.5 67.5t211 -71t78 -193v-260h-143v260q0 60 -40 97.5t-106 37.5t-104.5 -35t-38.5 -90v-512h178v-125h-178v-430h434v-125h-661v125h82v430h-84z" />
<glyph unicode="&#xa4;" horiz-adv-x="579" d="M82 391v242q0 115 72 174l-54 125h21l49 -115q49 35 121 35t121 -35l47 115h20l-53 -125q72 -59 72 -174v-242q0 -117 -72 -176l53 -123h-20l-49 113q-50 -33 -119 -33q-68 0 -121 33l-49 -113h-21l56 125q-74 60 -74 174zM102 391q0 -88 49.5 -143t139.5 -55 q89 0 137.5 55t48.5 143v242q0 88 -48.5 143t-137.5 55q-90 0 -139.5 -55t-49.5 -143v-242z" />
<glyph unicode="&#xa5;" horiz-adv-x="784" d="M49 1434h150l194 -709l197 709h145l-260 -856h156v-113h-168v-465h-146v465h-167v113h155z" />
<glyph unicode="&#xa6;" horiz-adv-x="290" d="M106 -307v921h78v-921h-78zM106 819v922h78v-922h-78z" />
<glyph unicode="&#xa7;" horiz-adv-x="763" d="M92 248v215h144v-215q0 -60 39.5 -97.5t105.5 -37.5t104.5 35t38.5 90v333h-432v107h580v-440q0 -119 -78.5 -186.5t-212.5 -67.5q-133 0 -211 71t-78 193zM92 764v428q0 119 78 186.5t211 67.5t211 -71t78 -193v-215h-144v215q0 61 -39 98t-106 37q-65 0 -103 -35 t-38 -90v-322h432v-106h-580z" />
<glyph unicode="&#xa8;" horiz-adv-x="671" d="M117 1163h143v256h-143v-256zM412 1163h143v256h-143v-256z" />
<glyph unicode="&#xa9;" horiz-adv-x="1556" d="M61 717q0 204 93 372.5t258 266.5t366 98t366 -98t258 -266.5t93 -372.5q0 -154 -55 -291t-149.5 -234.5t-228 -154.5t-284.5 -57t-284.5 57t-228 154.5t-149.5 234.5t-55 291zM111 717q0 -154 52.5 -284t143 -218t212.5 -137t259 -49q136 0 258 49t212 137t143 218 t53 284q0 152 -53 282t-143 217.5t-212 137t-258 49.5q-137 0 -259 -49.5t-212.5 -137t-143 -217.5t-52.5 -282zM600 434q0 -73 48 -116.5t130 -43.5q80 0 129 43.5t49 116.5v156h-90v-156q0 -36 -24.5 -57t-63.5 -21q-40 0 -64 21t-24 57v555q0 35 24 57.5t64 22.5 q38 0 63 -22.5t25 -57.5v-153h90v153q0 74 -49 117t-129 43q-82 0 -130 -42.5t-48 -117.5v-555z" />
<glyph unicode="&#xaa;" horiz-adv-x="489" d="M82 662v77h313v-77h-313zM82 961v73q0 40 7.5 67t29.5 51.5t68.5 37.5t117.5 14v94q0 74 -67 74q-49 0 -113 -39l-31 70q69 51 152 51q149 0 149 -151v-472h-71l-11 64q-34 -72 -112 -72q-64 0 -91.5 40t-27.5 98zM172 971q0 -66 61 -66q72 0 72 119v111 q-80 -1 -106.5 -21t-26.5 -63v-80z" />
<glyph unicode="&#xab;" horiz-adv-x="942" d="M49 451v118l406 377v-129l-265 -305v-4l265 -301v-129zM461 451v118l403 377v-129l-264 -305v-4l264 -301v-129z" />
<glyph unicode="&#xac;" horiz-adv-x="667" d="M80 666v112h498v-262h-146v150h-352z" />
<glyph unicode="&#xad;" horiz-adv-x="563" d="M72 455v114h420v-114h-420z" />
<glyph unicode="&#xae;" horiz-adv-x="1556" d="M61 717q0 204 93 372.5t258 266.5t366 98t366 -98t258 -266.5t93 -372.5q0 -154 -55 -291t-149.5 -234.5t-228 -154.5t-284.5 -57t-284.5 57t-228 154.5t-149.5 234.5t-55 291zM111 717q0 -154 52.5 -284t143 -218t212.5 -137t259 -49q136 0 258 49t212 137t143 218 t53 284q0 152 -53 282t-143 217.5t-212 137t-258 49.5q-137 0 -259 -49.5t-212.5 -137t-143 -217.5t-52.5 -282zM612 285v860h189q79 0 122.5 -40.5t43.5 -111.5v-143q0 -113 -88 -141q62 -29 73 -121l27 -303h-90l-25 301q-4 48 -26.5 67t-63.5 19h-69v-387h-93zM705 752 h92q77 0 77 75v164q0 34 -19.5 55t-57.5 21h-92v-315z" />
<glyph unicode="&#xaf;" horiz-adv-x="671" d="M117 1159v105h438v-105h-438z" />
<glyph unicode="&#xb0;" horiz-adv-x="479" d="M53 1266q0 78 54.5 133t132.5 55t132 -55t54 -133q0 -76 -54.5 -130.5t-131.5 -54.5q-78 0 -132.5 54t-54.5 131zM133 1266q0 -45 30 -76t77 -31q45 0 74.5 31t29.5 76q0 47 -29 77.5t-75 30.5q-47 0 -77 -30.5t-30 -77.5z" />
<glyph unicode="&#xb1;" horiz-adv-x="604" d="M80 455v112h444v-112h-444zM80 801v112h166v166h112v-166h166v-112h-166v-166h-112v166h-166z" />
<glyph unicode="&#xb2;" horiz-adv-x="444" d="M47 834v163q0 52 19.5 99t49 80.5t63.5 68.5t63.5 63.5t49 64.5t19.5 73v96q0 35 -24 56.5t-62 21.5q-40 0 -63 -21.5t-23 -56.5v-149h-90v149q0 74 47 117t129 43q80 0 129 -43.5t49 -116.5v-96q0 -62 -27.5 -116t-66.5 -93t-78 -75t-66.5 -78.5t-27.5 -86.5v-86h266 v-77h-356z" />
<glyph unicode="&#xb3;" horiz-adv-x="454" d="M47 985v150h90v-150q0 -35 24 -56.5t64 -21.5q38 0 62 21.5t24 56.5v182q0 34 -24 55t-62 21h-45v82h45q38 0 59 21t21 55v143q0 36 -21 56t-59 20q-40 0 -63 -21.5t-23 -56.5v-149h-90v149q0 74 47 117t129 43q79 0 123.5 -41t44.5 -113v-145q0 -84 -67 -117 q77 -38 77 -121v-184q0 -73 -48.5 -114.5t-129.5 -41.5q-82 0 -130 43.5t-48 116.5z" />
<glyph unicode="&#xb4;" horiz-adv-x="509" d="M117 1126h119l157 287h-143z" />
<glyph unicode="&#xb6;" horiz-adv-x="882" d="M96 260v914q0 122 77 191t210 69h113v-1434h-113q-133 0 -210 69t-77 191zM575 0v1434h246v-105h-127v-1225h127v-104h-246z" />
<glyph unicode="&#xb7;" horiz-adv-x="290" d="M82 438h127v195h-127v-195z" />
<glyph unicode="&#xb8;" horiz-adv-x="561" d="M109 -397l16 78q63 -23 127 -23q88 0 88 82v18q0 41 -19 60.5t-71 19.5h-49v172h84v-86h10q162 0 162 -149v-35q0 -83 -51.5 -125.5t-135.5 -42.5q-39 0 -88.5 10t-72.5 21z" />
<glyph unicode="&#xb9;" horiz-adv-x="333" d="M33 834v77h98v705h-98v78h188v-783h98v-77h-286z" />
<glyph unicode="&#xba;" horiz-adv-x="497" d="M92 662v77h314v-77h-314zM92 977v326q0 73 41.5 112t116.5 39q74 0 115 -39t41 -112v-326q0 -74 -41 -114t-115 -40q-75 0 -116.5 39.5t-41.5 114.5zM182 975q0 -33 16.5 -53.5t51.5 -20.5q32 0 48.5 20.5t16.5 53.5v330q0 32 -16.5 51.5t-48.5 19.5q-68 0 -68 -71v-330z " />
<glyph unicode="&#xbb;" horiz-adv-x="942" d="M78 78l403 373v118l-403 377v-129l264 -305v-4l-264 -301v-129zM487 78l406 373v118l-406 377v-129l265 -305v-4l-265 -301v-129z" />
<glyph unicode="&#xbc;" horiz-adv-x="1003" d="M33 573v78h98v705h-98v78h188v-783h98v-78h-286zM115 0l624 1434h78l-624 -1434h-78zM557 231v78l252 551h92v-551h84v-78h-84v-231h-92v231h-252zM645 309h164v369z" />
<glyph unicode="&#xbd;" horiz-adv-x="1034" d="M33 573v78h98v705h-98v78h188v-783h98v-78h-286zM115 0l624 1434h78l-624 -1434h-78zM635 0v164q0 61 27 115t66 93.5t78 76t66 78.5t27 85v97q0 35 -23.5 56t-62.5 21q-40 0 -63 -21t-23 -56v-150h-88v150q0 73 47 116t127 43q82 0 130 -43t48 -116v-97q0 -45 -14.5 -86 t-38 -72.5t-51.5 -60.5t-56 -55.5t-51.5 -52.5t-38 -57t-14.5 -64v-86h264v-78h-356z" />
<glyph unicode="&#xbe;" horiz-adv-x="1116" d="M47 725v149h90v-149q0 -35 24 -56.5t64 -21.5q38 0 62 21.5t24 56.5v182q0 34 -24 55t-62 21h-45v82h45q38 0 59 21t21 55v143q0 36 -21 56t-59 20q-40 0 -63 -21.5t-23 -56.5v-149h-90v149q0 74 47 117t129 43q79 0 123.5 -41t44.5 -113v-145q0 -84 -67 -117 q77 -38 77 -121v-184q0 -73 -48.5 -114.5t-129.5 -41.5q-82 0 -130 43.5t-48 116.5zM227 0l625 1434h78l-625 -1434h-78zM670 231v78l252 551h92v-551h84v-78h-84v-231h-92v231h-252zM758 309h164v369z" />
<glyph unicode="&#xbf;" horiz-adv-x="706" d="M70 -158v355q0 105 59.5 173t161.5 85l20 217h113v-340h-62q-66 0 -106.5 -37.5t-40.5 -97.5v-355q0 -60 40.5 -97.5t106.5 -37.5q67 0 107.5 37.5t40.5 97.5v250h143v-250q0 -122 -79 -193t-212 -71t-212.5 71t-79.5 193zM291 829v195h145v-195h-145z" />
<glyph unicode="&#xc0;" horiz-adv-x="722" d="M18 0l271 1444h147l269 -1444h-150l-66 391h-260l-65 -391h-146zM143 1823h144l133 -287h-117zM250 516h219l-111 651z" />
<glyph unicode="&#xc1;" horiz-adv-x="722" d="M18 0l271 1444h147l269 -1444h-150l-66 391h-260l-65 -391h-146zM250 516h219l-111 651zM301 1536h119l158 287h-144z" />
<glyph unicode="&#xc2;" horiz-adv-x="722" d="M18 0l271 1444h147l269 -1444h-150l-66 391h-260l-65 -391h-146zM150 1536l149 287h119l151 -287h-120l-91 180l-88 -180h-120zM250 516h219l-111 651z" />
<glyph unicode="&#xc3;" horiz-adv-x="722" d="M18 0l271 1444h147l269 -1444h-150l-66 391h-260l-65 -391h-146zM121 1544q0 96 34.5 143.5t94.5 47.5q45 0 110 -41t93 -41q61 0 61 82h84q0 -97 -34 -144t-95 -47q-45 0 -109.5 41t-93.5 41q-61 0 -61 -82h-84zM250 516h219l-111 651z" />
<glyph unicode="&#xc4;" horiz-adv-x="722" d="M18 0l271 1444h147l269 -1444h-150l-66 391h-260l-65 -391h-146zM141 1573h144v256h-144v-256zM250 516h219l-111 651zM436 1573h144v256h-144v-256z" />
<glyph unicode="&#xc5;" horiz-adv-x="722" d="M18 0l271 1444h147l269 -1444h-150l-66 391h-260l-65 -391h-146zM168 1692q0 86 50 128t140 42q92 0 142.5 -42t50.5 -128q0 -168 -193 -168q-190 0 -190 168zM250 516h219l-111 651zM270 1692q0 -97 88 -97q91 0 91 97q0 98 -91 98q-88 0 -88 -98z" />
<glyph unicode="&#xc6;" horiz-adv-x="1038" d="M6 0l391 1434h598v-125h-362v-525h301v-125h-301v-534h362v-125h-510v391h-227l-106 -391h-146zM293 516h192v709z" />
<glyph unicode="&#xc7;" horiz-adv-x="741" d="M84 252v930q0 122 81 193t214 71t213 -71t80 -193v-260h-144v260q0 60 -41.5 97.5t-107.5 37.5q-67 0 -107.5 -37.5t-40.5 -97.5v-930q0 -62 40.5 -98.5t107.5 -36.5q66 0 107.5 37t41.5 98v260h144v-260q0 -112 -67.5 -181.5t-182.5 -80.5v-76h10q162 0 162 -150v-34 q0 -83 -51 -125.5t-135 -42.5q-40 0 -89.5 9.5t-72.5 20.5l16 78q60 -22 127 -22q88 0 88 82v18q0 41 -19 60.5t-71 19.5h-49v162q-117 11 -185.5 80t-68.5 182z" />
<glyph unicode="&#xc8;" d="M98 0v1434h510v-125h-362v-525h301v-125h-301v-534h362v-125h-510zM129 1823h143l134 -287h-117z" />
<glyph unicode="&#xc9;" d="M98 0v1434h510v-125h-362v-525h301v-125h-301v-534h362v-125h-510zM287 1536h119l157 287h-143z" />
<glyph unicode="&#xca;" d="M98 0v1434h510v-125h-362v-525h301v-125h-301v-534h362v-125h-510zM137 1536l150 287h119l151 -287h-121l-90 180l-88 -180h-121z" />
<glyph unicode="&#xcb;" d="M98 0v1434h510v-125h-362v-525h301v-125h-301v-534h362v-125h-510zM127 1573h143v256h-143v-256zM422 1573h143v256h-143v-256z" />
<glyph unicode="&#xcc;" horiz-adv-x="344" d="M-45 1823h143l133 -287h-116zM98 0v1434h148v-1434h-148z" />
<glyph unicode="&#xcd;" horiz-adv-x="344" d="M98 0v1434h148v-1434h-148zM113 1536h118l158 287h-143z" />
<glyph unicode="&#xce;" horiz-adv-x="344" d="M-39 1536l150 287h118l152 -287h-121l-90 180l-88 -180h-121zM98 0v1434h148v-1434h-148z" />
<glyph unicode="&#xcf;" horiz-adv-x="344" d="M-47 1573h143v256h-143v-256zM98 0v1434h148v-1434h-148zM248 1573h143v256h-143v-256z" />
<glyph unicode="&#xd0;" horiz-adv-x="778" d="M6 659v125h100v650h302q133 0 209.5 -69t76.5 -191v-914q0 -122 -76.5 -191t-209.5 -69h-302v659h-100zM252 125h156q66 0 103.5 36.5t37.5 98.5v914q0 61 -38 98t-103 37h-156v-525h123v-125h-123v-534z" />
<glyph unicode="&#xd1;" horiz-adv-x="800" d="M98 0v1434h160l320 -1059q-9 208 -9 395v664h133v-1434h-155l-322 1063q8 -188 8 -399v-664h-135zM162 1544q0 96 34.5 143.5t94.5 47.5q45 0 110 -41t93 -41q61 0 61 82h84q0 -97 -34 -144t-95 -47q-45 0 -109.5 41t-93.5 41q-61 0 -61 -82h-84z" />
<glyph unicode="&#xd2;" horiz-adv-x="757" d="M84 252q0 -122 81 -193t214 -71t213 71t80 193v930q0 122 -80 193t-213 71t-214 -71t-81 -193v-930zM162 1823h143l133 -287h-116zM231 252v930q0 60 40.5 97.5t107.5 37.5q66 0 106.5 -37.5t40.5 -97.5v-930q0 -60 -40.5 -97.5t-106.5 -37.5q-67 0 -107.5 37.5 t-40.5 97.5z" />
<glyph unicode="&#xd3;" horiz-adv-x="757" d="M84 252q0 -122 81 -193t214 -71t213 71t80 193v930q0 122 -80 193t-213 71t-214 -71t-81 -193v-930zM231 252v930q0 60 40.5 97.5t107.5 37.5q66 0 106.5 -37.5t40.5 -97.5v-930q0 -60 -40.5 -97.5t-106.5 -37.5q-67 0 -107.5 37.5t-40.5 97.5zM319 1536h119l158 287 h-143z" />
<glyph unicode="&#xd4;" horiz-adv-x="757" d="M84 252q0 -122 81 -193t214 -71t213 71t80 193v930q0 122 -80 193t-213 71t-214 -71t-81 -193v-930zM168 1536l149 287h119l152 -287h-121l-90 180l-88 -180h-121zM231 252v930q0 60 40.5 97.5t107.5 37.5q66 0 106.5 -37.5t40.5 -97.5v-930q0 -60 -40.5 -97.5 t-106.5 -37.5q-67 0 -107.5 37.5t-40.5 97.5z" />
<glyph unicode="&#xd5;" horiz-adv-x="757" d="M84 252q0 -122 81 -193t214 -71t213 71t80 193v930q0 122 -80 193t-213 71t-214 -71t-81 -193v-930zM139 1544q0 96 34.5 143.5t94.5 47.5q45 0 110 -41t93 -41q61 0 61 82h84q0 -97 -34 -144t-95 -47q-45 0 -109 41t-93 41q-62 0 -62 -82h-84zM231 252v930 q0 60 40.5 97.5t107.5 37.5q66 0 106.5 -37.5t40.5 -97.5v-930q0 -60 -40.5 -97.5t-106.5 -37.5q-67 0 -107.5 37.5t-40.5 97.5z" />
<glyph unicode="&#xd6;" horiz-adv-x="757" d="M84 252q0 -122 81 -193t214 -71t213 71t80 193v930q0 122 -80 193t-213 71t-214 -71t-81 -193v-930zM160 1573h143v256h-143v-256zM231 252v930q0 60 40.5 97.5t107.5 37.5q66 0 106.5 -37.5t40.5 -97.5v-930q0 -60 -40.5 -97.5t-106.5 -37.5q-67 0 -107.5 37.5 t-40.5 97.5zM455 1573h143v256h-143v-256z" />
<glyph unicode="&#xd7;" horiz-adv-x="604" d="M66 565l393 396l82 -82l-396 -394z" />
<glyph unicode="&#xd8;" horiz-adv-x="757" d="M84 252v930q0 122 81 193t214 71q117 0 196 -57l29 86h68l-47 -138q47 -62 47 -155v-930q0 -122 -80 -193t-213 -71q-118 0 -195 55l-28 -84h-68l45 133q-49 68 -49 160zM231 381l289 846q-14 42 -51.5 66t-89.5 24q-67 0 -107.5 -37.5t-40.5 -97.5v-801zM240 205 q14 -41 50 -64.5t89 -23.5q66 0 106.5 37.5t40.5 97.5v797z" />
<glyph unicode="&#xd9;" horiz-adv-x="780" d="M96 252v1182h146v-1182q0 -61 40.5 -98t106.5 -37q68 0 109 37t41 98v1182h145v-1182q0 -122 -81 -193t-214 -71t-213 71t-80 193zM172 1823h143l134 -287h-117z" />
<glyph unicode="&#xda;" horiz-adv-x="780" d="M96 252v1182h146v-1182q0 -61 40.5 -98t106.5 -37q68 0 109 37t41 98v1182h145v-1182q0 -122 -81 -193t-214 -71t-213 71t-80 193zM330 1536h119l157 287h-143z" />
<glyph unicode="&#xdb;" horiz-adv-x="780" d="M96 252v1182h146v-1182q0 -61 40.5 -98t106.5 -37q68 0 109 37t41 98v1182h145v-1182q0 -122 -81 -193t-214 -71t-213 71t-80 193zM180 1536l150 287h119l151 -287h-121l-90 180l-88 -180h-121z" />
<glyph unicode="&#xdc;" horiz-adv-x="780" d="M96 252v1182h146v-1182q0 -61 40.5 -98t106.5 -37q68 0 109 37t41 98v1182h145v-1182q0 -122 -81 -193t-214 -71t-213 71t-80 193zM170 1573h143v256h-143v-256zM465 1573h143v256h-143v-256z" />
<glyph unicode="&#xdd;" horiz-adv-x="706" d="M12 1434h150l194 -709l195 709h145l-270 -899v-535h-147v535zM293 1536h119l157 287h-143z" />
<glyph unicode="&#xde;" horiz-adv-x="729" d="M98 0v1434h148v-281h149q133 0 210 -68.5t77 -191.5v-342q0 -122 -77 -191t-210 -69h-149v-291h-148zM246 418h149q66 0 104 35.5t38 97.5v342q0 61 -38.5 98t-103.5 37h-149v-610z" />
<glyph unicode="&#xdf;" horiz-adv-x="718" d="M25 907v117h81v211q0 123 67.5 187.5t193.5 64.5q125 0 192.5 -64t67.5 -188v-274q0 -135 -117 -187q71 -24 110 -75.5t39 -127.5v-319q0 -121 -73 -186.5t-201 -65.5h-80v125h78q64 0 100.5 34.5t36.5 96.5v317q0 60 -37 96t-100 36h-78v124h43q62 0 98.5 34t36.5 93 v283q0 56 -28.5 90.5t-87.5 34.5t-88 -34.5t-29 -90.5v-1239h-144v907h-81z" />
<glyph unicode="&#xe0;" horiz-adv-x="643" d="M47 213v125q0 53 7 90.5t30 75t63 60.5t109 38t166 16v162q0 125 -119 125q-85 0 -186 -63l-51 110q118 84 251 84q248 0 248 -250v-786h-116l-17 106q-29 -61 -80 -89.5t-108 -28.5t-97 19t-61 53t-30 71t-9 82zM100 1413h144l133 -287h-117zM190 229q0 -51 25.5 -81.5 t79.5 -30.5q127 0 127 202v191q-74 -2 -121 -12.5t-70.5 -30.5t-32 -43.5t-8.5 -58.5v-136z" />
<glyph unicode="&#xe1;" horiz-adv-x="643" d="M47 213v125q0 53 7 90.5t30 75t63 60.5t109 38t166 16v162q0 125 -119 125q-85 0 -186 -63l-51 110q118 84 251 84q248 0 248 -250v-786h-116l-17 106q-29 -61 -80 -89.5t-108 -28.5t-97 19t-61 53t-30 71t-9 82zM190 229q0 -51 25.5 -81.5t79.5 -30.5q127 0 127 202v191 q-74 -2 -121 -12.5t-70.5 -30.5t-32 -43.5t-8.5 -58.5v-136zM258 1126h119l158 287h-144z" />
<glyph unicode="&#xe2;" horiz-adv-x="643" d="M47 213v125q0 53 7 90.5t30 75t63 60.5t109 38t166 16v162q0 125 -119 125q-85 0 -186 -63l-51 110q118 84 251 84q248 0 248 -250v-786h-116l-17 106q-29 -61 -80 -89.5t-108 -28.5t-97 19t-61 53t-30 71t-9 82zM106 1126l150 287h119l151 -287h-120l-91 181l-88 -181 h-121zM190 229q0 -51 25.5 -81.5t79.5 -30.5q127 0 127 202v191q-74 -2 -121 -12.5t-70.5 -30.5t-32 -43.5t-8.5 -58.5v-136z" />
<glyph unicode="&#xe3;" horiz-adv-x="643" d="M47 213v125q0 53 7 90.5t30 75t63 60.5t109 38t166 16v162q0 125 -119 125q-85 0 -186 -63l-51 110q118 84 251 84q248 0 248 -250v-786h-116l-17 106q-29 -61 -80 -89.5t-108 -28.5t-97 19t-61 53t-30 71t-9 82zM78 1135q0 96 34.5 143t94.5 47q45 0 110 -41t93 -41 q61 0 61 82h84q0 -97 -34 -143.5t-95 -46.5q-45 0 -109.5 41t-93.5 41q-61 0 -61 -82h-84zM190 229q0 -51 25.5 -81.5t79.5 -30.5q127 0 127 202v191q-74 -2 -121 -12.5t-70.5 -30.5t-32 -43.5t-8.5 -58.5v-136z" />
<glyph unicode="&#xe4;" horiz-adv-x="643" d="M47 213v125q0 53 7 90.5t30 75t63 60.5t109 38t166 16v162q0 125 -119 125q-85 0 -186 -63l-51 110q118 84 251 84q248 0 248 -250v-786h-116l-17 106q-29 -61 -80 -89.5t-108 -28.5t-97 19t-61 53t-30 71t-9 82zM98 1163h144v256h-144v-256zM190 229q0 -51 25.5 -81.5 t79.5 -30.5q127 0 127 202v191q-74 -2 -121 -12.5t-70.5 -30.5t-32 -43.5t-8.5 -58.5v-136zM393 1163h144v256h-144v-256z" />
<glyph unicode="&#xe5;" horiz-adv-x="643" d="M47 213v125q0 53 7 90.5t30 75t63 60.5t109 38t166 16v162q0 125 -119 125q-85 0 -186 -63l-51 110q118 84 251 84q248 0 248 -250v-786h-116l-17 106q-29 -61 -80 -89.5t-108 -28.5t-97 19t-61 53t-30 71t-9 82zM127 1282q0 86 50 128t140 42q92 0 142.5 -42t50.5 -128 q0 -168 -193 -168q-190 0 -190 168zM190 229q0 -51 25.5 -81.5t79.5 -30.5q127 0 127 202v191q-74 -2 -121 -12.5t-70.5 -30.5t-32 -43.5t-8.5 -58.5v-136zM229 1282q0 -96 88 -96q91 0 91 96q0 98 -91 98q-88 0 -88 -98z" />
<glyph unicode="&#xe6;" horiz-adv-x="991" d="M47 213v113q0 53 7 90.5t29.5 75.5t62.5 60.5t108.5 37.5t165.5 16v174q0 125 -119 125q-83 0 -184 -63l-51 110q50 37 116.5 60.5t134.5 23.5q117 0 181 -55q64 55 180 55q123 0 188.5 -63.5t65.5 -186.5v-288h-369v-234q0 -78 40 -112.5t122 -34.5q111 0 199 30 l16 -124q-112 -35 -242 -35q-198 0 -256 135q-31 -72 -86 -103.5t-112 -31.5t-97 19t-61 53t-30 71t-9 82zM190 229q0 -51 25.5 -81.5t79.5 -30.5q125 0 125 202v179q-73 -1 -119.5 -11.5t-70 -31t-32 -44t-8.5 -59.5v-123zM563 606h230v185q0 56 -28 89t-87 33 q-57 0 -86 -34.5t-29 -90.5v-182z" />
<glyph unicode="&#xe7;" horiz-adv-x="575" d="M66 252v520q0 135 72 199.5t198 64.5q98 0 211 -35l-17 -124q-88 30 -163 30q-82 0 -120 -37t-38 -116v-484q0 -79 38 -116t120 -37q75 0 163 30l17 -124q-94 -29 -168 -33v-76h10q162 0 162 -150v-34q0 -83 -51 -125.5t-135 -42.5q-40 0 -89.5 9.5t-72.5 20.5l16 78 q60 -22 127 -22q88 0 88 82v18q0 41 -19 60.5t-71 19.5h-49v162q-108 9 -168.5 73.5t-60.5 188.5z" />
<glyph unicode="&#xe8;" horiz-adv-x="641" d="M68 250v534q0 123 67 187.5t191 64.5q121 0 186.5 -63.5t65.5 -186.5v-309h-367v-213q0 -78 39.5 -112.5t122.5 -34.5q108 0 196 30l19 -124q-112 -35 -244 -35q-127 0 -201.5 63.5t-74.5 198.5zM109 1413h143l133 -287h-117zM211 592h229v199q0 56 -28.5 89t-85.5 33 q-58 0 -86.5 -34.5t-28.5 -90.5v-196z" />
<glyph unicode="&#xe9;" horiz-adv-x="641" d="M68 250v534q0 123 67 187.5t191 64.5q121 0 186.5 -63.5t65.5 -186.5v-309h-367v-213q0 -78 39.5 -112.5t122.5 -34.5q108 0 196 30l19 -124q-112 -35 -244 -35q-127 0 -201.5 63.5t-74.5 198.5zM211 592h229v199q0 56 -28.5 89t-85.5 33q-58 0 -86.5 -34.5t-28.5 -90.5 v-196zM266 1126h119l158 287h-144z" />
<glyph unicode="&#xea;" horiz-adv-x="641" d="M68 250v534q0 123 67 187.5t191 64.5q121 0 186.5 -63.5t65.5 -186.5v-309h-367v-213q0 -78 39.5 -112.5t122.5 -34.5q108 0 196 30l19 -124q-112 -35 -244 -35q-127 0 -201.5 63.5t-74.5 198.5zM115 1126l149 287h119l152 -287h-121l-90 181l-88 -181h-121zM211 592h229 v199q0 56 -28.5 89t-85.5 33q-58 0 -86.5 -34.5t-28.5 -90.5v-196z" />
<glyph unicode="&#xeb;" horiz-adv-x="641" d="M68 250v534q0 123 67 187.5t191 64.5q121 0 186.5 -63.5t65.5 -186.5v-309h-367v-213q0 -78 39.5 -112.5t122.5 -34.5q108 0 196 30l19 -124q-112 -35 -244 -35q-127 0 -201.5 63.5t-74.5 198.5zM106 1163h144v256h-144v-256zM211 592h229v199q0 56 -28.5 89t-85.5 33 q-58 0 -86.5 -34.5t-28.5 -90.5v-196zM401 1163h144v256h-144v-256z" />
<glyph unicode="&#xec;" horiz-adv-x="309" d="M-63 1413h143l133 -287h-117zM82 0h143v1024h-143v-1024z" />
<glyph unicode="&#xed;" horiz-adv-x="309" d="M82 0h143v1024h-143v-1024zM94 1126h119l158 287h-144z" />
<glyph unicode="&#xee;" horiz-adv-x="309" d="M-55 1126l149 287h119l152 -287h-121l-90 181l-88 -181h-121zM82 0h143v1024h-143v-1024z" />
<glyph unicode="&#xef;" horiz-adv-x="309" d="M-66 1163h144v256h-144v-256zM82 0h143v1024h-143v-1024zM229 1163h144v256h-144v-256z" />
<glyph unicode="&#xf0;" horiz-adv-x="708" d="M47 252v301q0 123 79.5 193.5t213.5 70.5h147v365q0 56 -34.5 92.5t-94.5 42.5v-219h-75v219h-189v129h189v192h75v-192q126 -5 201.5 -76t75.5 -188v-930q0 -122 -81 -193t-214 -71t-213 71t-80 193zM193 252q0 -60 40.5 -97.5t106.5 -37.5q67 0 107 37.5t40 97.5v436 h-147q-66 0 -106.5 -37.5t-40.5 -97.5v-301z" />
<glyph unicode="&#xf1;" horiz-adv-x="677" d="M82 0h143v717q0 86 29.5 138t93.5 52q54 0 80.5 -36t26.5 -91v-780h143v795q0 48 -9.5 88t-30.5 76t-61.5 56.5t-97.5 20.5q-123 0 -186 -110l-14 98h-117v-1024zM104 1135q0 96 34.5 143t94.5 47q45 0 110 -41t93 -41q62 0 62 82h84q0 -97 -34 -143.5t-95 -46.5 q-45 0 -109.5 41t-93.5 41q-62 0 -62 -82h-84z" />
<glyph unicode="&#xf2;" d="M68 240v544q0 123 67 187.5t191 64.5t191 -64.5t67 -187.5v-544q0 -123 -67 -187.5t-191 -64.5t-191 64.5t-67 187.5zM109 1413h143l133 -287h-117zM211 236q0 -56 28.5 -90.5t86.5 -34.5q57 0 85.5 34.5t28.5 90.5v552q0 56 -28.5 90.5t-85.5 34.5q-58 0 -86.5 -34.5 t-28.5 -90.5v-552z" />
<glyph unicode="&#xf3;" d="M68 240v544q0 123 67 187.5t191 64.5t191 -64.5t67 -187.5v-544q0 -123 -67 -187.5t-191 -64.5t-191 64.5t-67 187.5zM211 236q0 -56 28.5 -90.5t86.5 -34.5q57 0 85.5 34.5t28.5 90.5v552q0 56 -28.5 90.5t-85.5 34.5q-58 0 -86.5 -34.5t-28.5 -90.5v-552zM266 1126h119 l158 287h-144z" />
<glyph unicode="&#xf4;" d="M68 240v544q0 123 67 187.5t191 64.5t191 -64.5t67 -187.5v-544q0 -123 -67 -187.5t-191 -64.5t-191 64.5t-67 187.5zM115 1126l149 287h119l152 -287h-121l-90 181l-88 -181h-121zM211 236q0 -56 28.5 -90.5t86.5 -34.5q57 0 85.5 34.5t28.5 90.5v552q0 56 -28.5 90.5 t-85.5 34.5q-58 0 -86.5 -34.5t-28.5 -90.5v-552z" />
<glyph unicode="&#xf5;" d="M68 240v544q0 123 67 187.5t191 64.5t191 -64.5t67 -187.5v-544q0 -123 -67 -187.5t-191 -64.5t-191 64.5t-67 187.5zM86 1135q0 96 34.5 143t94.5 47q45 0 110 -41t93 -41q61 0 61 82h84q0 -97 -34 -143.5t-95 -46.5q-45 0 -109.5 41t-93.5 41q-61 0 -61 -82h-84z M211 236q0 -56 28.5 -90.5t86.5 -34.5q57 0 85.5 34.5t28.5 90.5v552q0 56 -28.5 90.5t-85.5 34.5q-58 0 -86.5 -34.5t-28.5 -90.5v-552z" />
<glyph unicode="&#xf6;" d="M68 240v544q0 123 67 187.5t191 64.5t191 -64.5t67 -187.5v-544q0 -123 -67 -187.5t-191 -64.5t-191 64.5t-67 187.5zM106 1163h144v256h-144v-256zM211 236q0 -56 28.5 -90.5t86.5 -34.5q57 0 85.5 34.5t28.5 90.5v552q0 56 -28.5 90.5t-85.5 34.5q-58 0 -86.5 -34.5 t-28.5 -90.5v-552zM401 1163h144v256h-144v-256z" />
<glyph unicode="&#xf7;" horiz-adv-x="602" d="M68 666v112h467v-112h-467zM233 377h129v194h-129v-194zM233 874h129v195h-129v-195z" />
<glyph unicode="&#xf8;" d="M68 -41l47 117q-47 62 -47 164v544q0 123 67 187.5t191 64.5q95 0 153 -37l27 66h78l-47 -117q47 -62 47 -164v-544q0 -123 -67 -187.5t-191 -64.5q-95 0 -156 37l-27 -66h-75zM211 322l213 538q-26 53 -98 53q-58 0 -86.5 -34.5t-28.5 -90.5v-466zM225 166 q27 -55 101 -55q57 0 85.5 34.5t28.5 90.5v469z" />
<glyph unicode="&#xf9;" horiz-adv-x="677" d="M80 229q0 -37 5.5 -70t19.5 -65t36 -55t58 -37t82 -14q54 0 103 27t81 83l14 -98h117v1024h-143v-717q0 -86 -29.5 -138t-93.5 -52q-54 0 -80.5 36t-26.5 91v780h-143v-795zM123 1413h143l133 -287h-116z" />
<glyph unicode="&#xfa;" horiz-adv-x="677" d="M80 229q0 -37 5.5 -70t19.5 -65t36 -55t58 -37t82 -14q54 0 103 27t81 83l14 -98h117v1024h-143v-717q0 -86 -29.5 -138t-93.5 -52q-54 0 -80.5 36t-26.5 91v780h-143v-795zM281 1126h118l158 287h-143z" />
<glyph unicode="&#xfb;" horiz-adv-x="677" d="M80 229q0 -37 5.5 -70t19.5 -65t36 -55t58 -37t82 -14q54 0 103 27t81 83l14 -98h117v1024h-143v-717q0 -86 -29.5 -138t-93.5 -52q-54 0 -80.5 36t-26.5 91v780h-143v-795zM129 1126l150 287h118l152 -287h-121l-90 181l-88 -181h-121z" />
<glyph unicode="&#xfc;" horiz-adv-x="677" d="M80 229q0 -37 5.5 -70t19.5 -65t36 -55t58 -37t82 -14q54 0 103 27t81 83l14 -98h117v1024h-143v-717q0 -86 -29.5 -138t-93.5 -52q-54 0 -80.5 36t-26.5 91v780h-143v-795zM121 1163h143v256h-143v-256zM416 1163h143v256h-143v-256z" />
<glyph unicode="&#xfd;" horiz-adv-x="624" d="M-4 -418l8 123q47 -14 90 -14q54 0 81 25.5t44 90.5l41 183h-20l-228 1034h146l159 -823l156 823h137l-262 -1192q-18 -82 -41 -134t-54.5 -80t-67 -38t-87.5 -10q-34 0 -102 12zM252 1126h119l157 287h-143z" />
<glyph unicode="&#xfe;" horiz-adv-x="667" d="M82 -410v1885h143v-537q61 98 174 98q46 0 81.5 -14t57.5 -37t36.5 -55t20 -65t5.5 -70v-566q0 -37 -5.5 -70t-20 -65t-36.5 -55t-57.5 -37t-81.5 -14q-113 0 -174 98v-496h-143zM225 307q0 -86 30 -138t95 -52q53 0 80 36t27 91v536q0 55 -27 91t-80 36q-65 0 -95 -52 t-30 -138v-410z" />
<glyph unicode="&#xff;" horiz-adv-x="624" d="M-4 -418l8 123q47 -14 90 -14q54 0 81 25.5t44 90.5l41 183h-20l-228 1034h146l159 -823l156 823h137l-262 -1192q-18 -82 -41 -134t-54.5 -80t-67 -38t-87.5 -10q-34 0 -102 12zM92 1163h144v256h-144v-256zM387 1163h143v256h-143v-256z" />
<glyph unicode="&#x152;" horiz-adv-x="1079" d="M84 252v930q0 122 77 193t204 71q168 0 223 -123v111h448v-125h-362v-525h301v-125h-301v-534h362v-125h-448v111q-55 -123 -223 -123q-127 0 -204 71t-77 193zM231 252q0 -60 40.5 -97.5t107.5 -37.5t107 37.5t40 97.5v930q0 60 -40 97.5t-107 37.5t-107.5 -37.5 t-40.5 -97.5v-930z" />
<glyph unicode="&#x153;" horiz-adv-x="1013" d="M68 240v544q0 123 67 187.5t191 64.5q122 0 186 -61q67 61 186 61q122 0 187 -63t65 -187v-309h-366v-213q0 -78 40 -112.5t121 -34.5q45 0 103 9t94 21l19 -124q-113 -35 -242 -35q-131 0 -203 63q-63 -63 -190 -63q-124 0 -191 64.5t-67 187.5zM211 236 q0 -56 28.5 -90.5t86.5 -34.5q57 0 85.5 34.5t28.5 90.5v552q0 56 -28.5 90.5t-85.5 34.5q-58 0 -86.5 -34.5t-28.5 -90.5v-552zM584 592h229v199q0 56 -28 89t-87 33q-57 0 -85.5 -34.5t-28.5 -90.5v-196z" />
<glyph unicode="&#x178;" horiz-adv-x="706" d="M12 1434h150l194 -709l195 709h145l-270 -899v-535h-147v535zM135 1573h144v256h-144v-256zM430 1573h143v256h-143v-256z" />
<glyph unicode="&#x2c6;" horiz-adv-x="653" d="M117 1126l149 287h119l152 -287h-121l-90 181l-88 -181h-121z" />
<glyph unicode="&#x2dc;" horiz-adv-x="663" d="M125 1135q0 96 34.5 143t94.5 47q45 0 110 -41t93 -41q61 0 61 82h84q0 -97 -34 -143.5t-95 -46.5q-45 0 -109.5 41t-93.5 41q-61 0 -61 -82h-84z" />
<glyph unicode="&#x2000;" horiz-adv-x="931" />
<glyph unicode="&#x2001;" horiz-adv-x="1862" />
<glyph unicode="&#x2002;" horiz-adv-x="931" />
<glyph unicode="&#x2003;" horiz-adv-x="1862" />
<glyph unicode="&#x2004;" horiz-adv-x="620" />
<glyph unicode="&#x2005;" horiz-adv-x="465" />
<glyph unicode="&#x2006;" horiz-adv-x="310" />
<glyph unicode="&#x2007;" horiz-adv-x="310" />
<glyph unicode="&#x2008;" horiz-adv-x="232" />
<glyph unicode="&#x2009;" horiz-adv-x="372" />
<glyph unicode="&#x200a;" horiz-adv-x="103" />
<glyph unicode="&#x2010;" horiz-adv-x="563" d="M72 455v114h420v-114h-420z" />
<glyph unicode="&#x2011;" horiz-adv-x="563" d="M72 455v114h420v-114h-420z" />
<glyph unicode="&#x2012;" horiz-adv-x="563" d="M72 455v114h420v-114h-420z" />
<glyph unicode="&#x2013;" horiz-adv-x="755" d="M72 455v114h612v-114h-612z" />
<glyph unicode="&#x2014;" horiz-adv-x="960" d="M72 455v114h817v-114h-817z" />
<glyph unicode="&#x2018;" horiz-adv-x="284" d="M88 967h117v194l-55 273h-62v-467z" />
<glyph unicode="&#x2019;" horiz-adv-x="282" d="M72 1239v195h127v-467h-74z" />
<glyph unicode="&#x201a;" horiz-adv-x="286" d="M80 0v195h127v-467h-74z" />
<glyph unicode="&#x201c;" horiz-adv-x="616" d="M82 967v467h76l53 -273v-194h-129zM414 967v467h75l54 -273v-194h-129z" />
<glyph unicode="&#x201d;" horiz-adv-x="614" d="M72 1239v195h127v-467h-74zM403 1239v195h129v-467h-75z" />
<glyph unicode="&#x201e;" horiz-adv-x="618" d="M80 0v195h127v-467h-74zM412 0v195h129v-467h-76z" />
<glyph unicode="&#x2022;" horiz-adv-x="391" d="M82 606h225v262h-225v-262z" />
<glyph unicode="&#x2026;" horiz-adv-x="952" d="M80 0h127v195h-127v-195zM412 0h129v195h-129v-195zM743 0h129v195h-129v-195z" />
<glyph unicode="&#x202f;" horiz-adv-x="372" />
<glyph unicode="&#x2039;" horiz-adv-x="532" d="M49 451v118l406 377v-129l-265 -305v-4l265 -301v-129z" />
<glyph unicode="&#x203a;" horiz-adv-x="532" d="M78 78l403 373v118l-403 377v-129l264 -305v-4l-264 -301v-129z" />
<glyph unicode="&#x205f;" horiz-adv-x="465" />
<glyph unicode="&#x20ac;" horiz-adv-x="831" d="M61 543v102h97v154h-97v102h97v281q0 122 81 193t214 71t212.5 -71t79.5 -193v-260h-143v260q0 60 -41.5 97.5t-107.5 37.5q-67 0 -107.5 -37.5t-40.5 -97.5v-281h141v-102h-141v-154h141v-102h-141v-291q0 -62 40.5 -98.5t107.5 -36.5q66 0 107.5 37t41.5 98v260h143 v-260q0 -122 -79.5 -193t-212.5 -71t-214 71t-81 193v291h-97z" />
<glyph unicode="&#x2122;" horiz-adv-x="1056" d="M94 1356v78h332v-78h-121v-783h-90v783h-121zM502 573v861h96l133 -404l133 404h80h8v-861h-92v388q0 111 6 237l-100 -301h-84l-102 317q6 -138 6 -253v-388h-84z" />
<glyph unicode="&#x25fc;" horiz-adv-x="1024" d="M0 0v1024h1024v-1024h-1024z" />
<glyph unicode="&#xfb03;" horiz-adv-x="1132" d="M25 907v117h81v262q0 113 50 157t141 44q69 0 123 -12l-8 -121q-33 8 -72 8q-48 0 -69 -23.5t-21 -72.5v-242h258v250q0 112 49 156.5t141 44.5h353v-312h-144v187h-168q-48 0 -68 -24t-20 -73v-229h150v-117h-150v-907h-143v907h-258v-907h-144v907h-81zM907 0v1024h144 v-1024h-144z" />
<glyph unicode="&#xfb04;" horiz-adv-x="1142" d="M25 907v117h81v262q0 113 50 157t141 44q69 0 123 -12l-8 -121q-33 8 -72 8q-48 0 -69 -23.5t-21 -72.5v-242h258v250q0 112 49 156.5t141 44.5h353v-1475h-144v1350h-168q-48 0 -68 -24t-20 -73v-229h150v-117h-150v-907h-143v907h-258v-907h-144v907h-81z" />
</font>
</defs>
</svg>
