<?xml version="1.0" standalone="no"?>
<!DOCTYPE svg PUBLIC "-//W3C//DTD SVG 1.1//EN" "http://www.w3.org/Graphics/SVG/1.1/DTD/svg11.dtd" >
<svg xmlns="http://www.w3.org/2000/svg" xmlns:xlink="http://www.w3.org/1999/xlink" version="1.1">
<metadata></metadata>
<defs>
<font id="solido_compressedlight" horiz-adv-x="620" >
<font-face units-per-em="2048" ascent="1536" descent="-512" />
<missing-glyph horiz-adv-x="286" />
<glyph unicode="&#xfb01;" horiz-adv-x="686" d="M25 940v84h88v262q0 58 14 97t40 58t54.5 26.5t65.5 7.5h309v-304h-102v213h-181q-53 0 -75.5 -27t-22.5 -85v-248h166v-84h-166v-940h-102v940h-88zM494 0v1024h102v-1024h-102z" />
<glyph unicode="&#xfb02;" horiz-adv-x="694" d="M25 940v84h88v262q0 58 14 97t40 58t54.5 26.5t65.5 7.5h309v-1475h-102v1384h-181q-53 0 -75.5 -27t-22.5 -85v-248h166v-84h-166v-940h-102v940h-88z" />
<glyph horiz-adv-x="0" />
<glyph horiz-adv-x="682" />
<glyph unicode=" "  horiz-adv-x="286" />
<glyph unicode="&#x09;" horiz-adv-x="286" />
<glyph unicode="&#xa0;" horiz-adv-x="286" />
<glyph unicode="!" horiz-adv-x="321" d="M109 0h104v178h-104v-178zM109 819v615h104v-615l-18 -477h-68z" />
<glyph unicode="&#x22;" horiz-adv-x="567" d="M82 1255v179h92v-179l-18 -270h-56zM391 1255v179h94v-179l-18 -270h-57z" />
<glyph unicode="#" horiz-adv-x="854" d="M63 510v57h173v320h-173v59h173v488h57v-488h270v488h58v-488h170v-59h-170v-320h170v-57h-170v-510h-58v510h-270v-510h-57v510h-173zM293 567h270v320h-270v-320z" />
<glyph unicode="$" horiz-adv-x="706" d="M78 240v272h102v-272q0 -71 48 -115.5t126 -44.5t125 42t47 111v156q0 59 -24.5 108t-63.5 85t-86.5 70t-95 71t-86.5 78.5t-63.5 102.5t-24.5 134v166q0 106 67 170t177 72v192h57v-194q109 -8 176.5 -73.5t67.5 -176.5v-272h-103v272q0 70 -46.5 115t-123.5 45 q-76 0 -122 -42.5t-46 -107.5v-166q0 -58 24.5 -107t64 -85t86.5 -70t94.5 -71t87 -79t64 -102t24.5 -133v-155q0 -110 -68.5 -174t-179.5 -72v-195h-57v193q-111 8 -179.5 74.5t-68.5 177.5z" />
<glyph unicode="%" horiz-adv-x="1130" d="M78 731v569q0 72 47 113t121 41t122 -41t48 -113v-569q0 -70 -48 -111.5t-122 -41.5t-121 41t-47 112zM145 731q0 -40 28 -66t73 -26t72.5 26t27.5 66v569q0 42 -27.5 67.5t-72.5 25.5q-46 0 -73.5 -26t-27.5 -67v-569zM223 0h60l624 1434h-59zM717 145v570 q0 72 47 112.5t121 40.5t121 -40.5t47 -112.5v-570q0 -72 -47 -112.5t-121 -40.5t-121 40.5t-47 112.5zM784 145q0 -40 28 -66t73 -26t72.5 26t27.5 66v570q0 40 -27.5 66t-72.5 26t-73 -26t-28 -66v-570z" />
<glyph unicode="&#x26;" horiz-adv-x="833" d="M82 240v239q0 95 33.5 155.5t109.5 113.5l-8 10q-63 98 -94 178.5t-31 167.5v100q0 114 75 178t195 64q121 0 196 -66.5t75 -185.5v-272h-103v272q0 70 -45.5 115t-122.5 45q-76 0 -121.5 -42.5t-45.5 -107.5v-100q0 -118 96 -279l239 -368v297h252v-90h-149v-365 l149 -229v-70h-75l-91 139q-27 -72 -96.5 -111.5t-161.5 -39.5q-122 0 -199 67t-77 185zM184 240q0 -71 47.5 -115.5t126.5 -44.5q78 0 125 42t47 111v39l-256 398q-51 -42 -70.5 -87t-19.5 -104v-239z" />
<glyph unicode="'" horiz-adv-x="256" d="M82 1255v179h92v-179l-18 -270h-56z" />
<glyph unicode="(" horiz-adv-x="477" d="M57 717q0 -265 88 -532t242 -492h74q-303 510 -303 1024t303 1024h-74q-154 -225 -242 -492t-88 -532z" />
<glyph unicode=")" horiz-adv-x="477" d="M18 -307q301 507 301 1024t-301 1024h72q154 -225 242 -492t88 -532t-88 -532t-242 -492h-72z" />
<glyph unicode="*" horiz-adv-x="532" d="M63 1159l154 80l-154 78l35 57l142 -90l-7 168h66l-8 -168l145 90l33 -57l-152 -78l152 -80l-33 -55l-145 92l8 -170h-66l7 170l-142 -92z" />
<glyph unicode="+" horiz-adv-x="577" d="M63 682v84h185v184h82v-184h184v-84h-184v-184h-82v184h-185z" />
<glyph unicode="," horiz-adv-x="260" d="M35 -270h74l67 270v178h-92v-178z" />
<glyph unicode="-" horiz-adv-x="557" d="M70 471v82h419v-82h-419z" />
<glyph unicode="." horiz-adv-x="260" d="M84 0h92v178h-92v-178z" />
<glyph unicode="/" horiz-adv-x="780" d="M49 0h57l625 1434h-57z" />
<glyph unicode="0" horiz-adv-x="745" d="M96 240v954q0 118 78 185t199 67q122 0 199 -67t77 -185v-954q0 -118 -77 -185t-199 -67q-121 0 -199 67t-78 185zM201 240q0 -70 47.5 -115t124.5 -45t124.5 45t47.5 115v954q0 70 -47.5 115t-124.5 45t-124.5 -45t-47.5 -115v-954z" />
<glyph unicode="1" horiz-adv-x="518" d="M51 0v90h166v1253h-166v91h271v-1344h167v-90h-438z" />
<glyph unicode="2" horiz-adv-x="702" d="M78 0v244q0 73 25 141t64.5 122t87.5 105.5t96 100.5t87.5 96.5t64.5 104t25 114.5v166q0 70 -48.5 115t-125.5 45t-123.5 -45t-46.5 -115v-256h-102v256q0 118 76 185t196 67q122 0 200.5 -67t78.5 -185v-166q0 -73 -25 -141t-64.5 -122t-87.5 -104.5t-96.5 -99t-88 -96 t-64.5 -104t-25 -115.5v-156h451v-90h-555z" />
<glyph unicode="3" horiz-adv-x="716" d="M78 240v256h104v-256q0 -70 48.5 -115t125.5 -45t124.5 44.5t47.5 115.5v309q0 69 -47.5 114.5t-124.5 45.5h-77v92h77q75 0 118.5 45t43.5 112v238q0 71 -43 114.5t-119 43.5q-77 0 -123.5 -45t-46.5 -115v-256h-102v256q0 119 75 185.5t197 66.5q119 0 190.5 -65 t71.5 -181v-237q0 -149 -126 -207q65 -26 103 -79.5t38 -129.5v-309q0 -119 -77.5 -184.5t-199.5 -65.5t-200 67t-78 185z" />
<glyph unicode="4" horiz-adv-x="737" d="M29 406v90l428 938h104v-938h144v-90h-144v-406h-104v406h-428zM131 496h326v725z" />
<glyph unicode="5" horiz-adv-x="708" d="M86 240v256h102v-256q0 -70 48.5 -115t125.5 -45t125 45t48 115v376q0 71 -47.5 115.5t-125.5 44.5h-264v658h516v-91h-413v-473h161q121 0 199 -67.5t78 -186.5v-376q0 -118 -78 -185t-199 -67q-122 0 -199 67t-77 185z" />
<glyph unicode="6" horiz-adv-x="733" d="M96 240v954q0 118 78 185t199 67q122 0 197 -66.5t75 -185.5v-256h-102v256q0 70 -46.5 115t-123.5 45t-124.5 -45t-47.5 -115v-393h172q122 0 199 -67t77 -185v-309q0 -118 -77 -185t-199 -67q-121 0 -199 67t-78 185zM201 240q0 -70 47.5 -115t124.5 -45t124.5 45 t47.5 115v309q0 71 -47.5 115.5t-124.5 44.5h-172v-469z" />
<glyph unicode="7" horiz-adv-x="606" d="M33 1343v91h542v-91q-148 -256 -232.5 -630t-84.5 -713h-106q0 322 88 708t231 635h-438z" />
<glyph unicode="8" horiz-adv-x="718" d="M82 238v274q0 77 38.5 130t104.5 79q-60 27 -94.5 79.5t-34.5 125.5v274q0 117 71.5 181.5t192.5 64.5q119 0 191 -65t72 -181v-274q0 -147 -127 -205q65 -26 103 -79.5t38 -129.5v-274q0 -119 -77.5 -184.5t-199.5 -65.5q-123 0 -200.5 65.5t-77.5 184.5zM186 240 q0 -71 48 -115.5t126 -44.5q77 0 124.5 44.5t47.5 115.5v274q0 68 -47.5 113t-124.5 45t-125.5 -45t-48.5 -113v-274zM199 924q0 -69 42.5 -113.5t118.5 -44.5t119 45t43 113v272q0 71 -43 114.5t-119 43.5t-118.5 -43.5t-42.5 -114.5v-272z" />
<glyph unicode="9" horiz-adv-x="733" d="M84 885v309q0 118 77 185t199 67q121 0 199 -67t78 -185v-954q0 -118 -78 -185t-199 -67q-122 0 -197 66.5t-75 185.5v256h102v-256q0 -70 46.5 -115t123.5 -45t124.5 45t47.5 115v393h-172q-122 0 -199 67t-77 185zM188 885q0 -71 47.5 -115.5t124.5 -44.5h172v469 q0 70 -47.5 115t-124.5 45t-124.5 -45t-47.5 -115v-309z" />
<glyph unicode=":" horiz-adv-x="286" d="M98 150h92v176h-92v-176zM98 637h92v176h-92v-176z" />
<glyph unicode=";" horiz-adv-x="323" d="M72 -270h75l68 270v178h-92v-178zM123 637h92v176h-92v-176z" />
<glyph unicode="&#x3c;" horiz-adv-x="573" d="M61 678v86l418 160v-88l-305 -113v-4l305 -109v-90z" />
<glyph unicode="=" horiz-adv-x="610" d="M94 553v82h420v-82h-420zM94 813v84h420v-84h-420z" />
<glyph unicode="&#x3e;" horiz-adv-x="573" d="M94 520l418 158v86l-418 160v-88l305 -113v-4l-305 -109v-90z" />
<glyph unicode="?" horiz-adv-x="686" d="M63 936v258q0 118 76 185t197 67q122 0 199 -67t77 -185v-369q0 -104 -61.5 -168.5t-161.5 -78.5l-14 -240h-84v328h45q77 0 124.5 44.5t47.5 114.5v369q0 70 -47.5 115t-124.5 45t-123.5 -45t-46.5 -115v-258h-103zM285 0v178h104v-178h-104z" />
<glyph unicode="@" horiz-adv-x="854" d="M98 74v876q0 128 88 209.5t248 81.5q159 0 247.5 -81.5t88.5 -209.5v-774h-235l-17 53q-34 -61 -108 -61q-63 0 -91 41.5t-28 101.5v348q0 60 28 102t91 42q78 0 114 -68l6 60h54v-559h121v714q0 100 -70 165t-201 65t-200.5 -64.5t-69.5 -165.5v-876q0 -101 69.5 -165.5 t200.5 -64.5v-61q-160 0 -248 81.5t-88 209.5zM358 317q0 -38 18.5 -63t55.5 -25q44 0 65 34.5t21 90.5v262q0 56 -21 90.5t-65 34.5q-37 0 -55.5 -25t-18.5 -63v-336z" />
<glyph unicode="A" horiz-adv-x="702" d="M25 0l274 1444h104l273 -1444h-107l-73 410h-295l-72 -410h-104zM217 502h262l-131 739z" />
<glyph unicode="B" horiz-adv-x="739" d="M106 0v1434h271q119 0 192.5 -61.5t73.5 -178.5v-266q0 -148 -139 -199q75 -21 118.5 -73.5t43.5 -133.5v-278q0 -119 -74 -181.5t-197 -62.5h-289zM211 90h184q77 0 121.5 42t44.5 114v278q0 69 -45 111.5t-121 42.5h-184v-588zM211 770h164q74 0 119 41.5t45 110.5v268 q0 70 -45 111.5t-119 41.5h-164v-573z" />
<glyph unicode="C" horiz-adv-x="722" d="M92 240q0 -118 78 -185t199 -67q122 0 200 67t78 185v272h-102v-272q0 -71 -49 -115.5t-127 -44.5q-77 0 -124.5 44.5t-47.5 115.5v954q0 70 47.5 115t124.5 45q78 0 127 -45.5t49 -114.5v-272h102v272q0 118 -78 185t-200 67q-121 0 -199 -67t-78 -185v-954z" />
<glyph unicode="D" horiz-adv-x="751" d="M106 0v1434h283q121 0 195.5 -66t74.5 -184v-934q0 -118 -74.5 -184t-195.5 -66h-283zM211 90h178q76 0 122 44.5t46 115.5v934q0 70 -46 114.5t-122 44.5h-178v-1253z" />
<glyph unicode="E" horiz-adv-x="638" d="M106 0v1434h488v-91h-383v-573h317v-92h-317v-588h383v-90h-488z" />
<glyph unicode="F" horiz-adv-x="626" d="M106 0v1434h488v-91h-383v-616h317v-92h-317v-635h-105z" />
<glyph unicode="G" horiz-adv-x="731" d="M92 240v954q0 118 78 185t199 67q122 0 200 -67t78 -185v-272h-102v272q0 69 -49 114.5t-127 45.5q-77 0 -124.5 -45t-47.5 -115v-954q0 -71 47.5 -115.5t124.5 -44.5q78 0 127 44.5t49 115.5v333h-174v91h276v-424q0 -118 -78 -185t-200 -67q-121 0 -199 67t-78 185z " />
<glyph unicode="H" horiz-adv-x="772" d="M106 0v1434h105v-664h350v664h105v-1434h-105v678h-350v-678h-105z" />
<glyph unicode="I" horiz-adv-x="317" d="M106 0v1434h105v-1434h-105z" />
<glyph unicode="J" horiz-adv-x="411" d="M31 0q57 0 97 4.5t76.5 18.5t58 38.5t34 65t12.5 98.5v1209h-104v-1196q0 -93 -38 -120.5t-136 -27.5v-90z" />
<glyph unicode="K" horiz-adv-x="681" d="M106 0v1434h105v-676l356 676h115l-373 -703l381 -731h-117l-362 696v-696h-105z" />
<glyph unicode="L" horiz-adv-x="618" d="M106 0v1434h105v-1344h377v-90h-482z" />
<glyph unicode="M" horiz-adv-x="903" d="M106 0v1434h109l240 -719l239 719h94h9v-1434h-105v784q0 195 8 383l-202 -604h-97l-208 633q10 -273 10 -412v-784h-97z" />
<glyph unicode="N" horiz-adv-x="782" d="M106 0v1434h113l369 -1172q-8 191 -8 387v785h96v-1434h-111l-370 1176q8 -200 8 -392v-784h-97z" />
<glyph unicode="O" horiz-adv-x="739" d="M92 240q0 -118 78 -185t199 -67q122 0 200 67t78 185v954q0 118 -78 185t-200 67q-121 0 -199 -67t-78 -185v-954zM197 240v954q0 70 47.5 115t124.5 45t125.5 -45t48.5 -115v-954q0 -70 -48.5 -115t-125.5 -45t-124.5 45t-47.5 115z" />
<glyph unicode="P" horiz-adv-x="706" d="M106 0v1434h277q122 0 197 -65.5t75 -184.5v-350q0 -120 -75 -186t-197 -66h-172v-582h-105zM211 672h172q77 0 122.5 44.5t45.5 117.5v350q0 70 -45.5 114.5t-122.5 44.5h-172v-671z" />
<glyph unicode="Q" horiz-adv-x="739" d="M92 240v954q0 118 78 185t199 67q122 0 200 -67t78 -185v-954q0 -104 -62 -169t-163 -79v-76q0 -91 36.5 -117t135.5 -26v-90q-72 0 -118.5 8.5t-85 31.5t-56 67.5t-17.5 113.5v88q-101 12 -163 77.5t-62 170.5zM197 240q0 -70 47.5 -115t124.5 -45t125.5 45t48.5 115 v954q0 70 -48.5 115t-125.5 45t-124.5 -45t-47.5 -115v-954z" />
<glyph unicode="R" horiz-adv-x="743" d="M106 0v1434h289q121 0 190.5 -63t69.5 -181v-252q0 -180 -155 -227q115 -44 131 -209l45 -502h-103l-43 500q-10 94 -54 132t-126 38h-139v-670h-105zM211 760h180q78 0 119 42t41 113v273q0 70 -41.5 112.5t-118.5 42.5h-180v-583z" />
<glyph unicode="S" horiz-adv-x="704" d="M76 240q0 -118 77 -185t199 -67t200.5 65.5t78.5 182.5v155q0 73 -24.5 133t-64 102t-87.5 79t-95.5 71t-87 70t-64 85t-24.5 107v166q0 65 46 107.5t122 42.5q77 0 123.5 -45t46.5 -115v-272h103v272q0 119 -75.5 185.5t-197.5 66.5q-121 0 -196.5 -64t-75.5 -178v-166 q0 -73 24.5 -134t64 -102.5t87 -78.5t95 -71t87 -70t64 -85t24.5 -108v-156q0 -69 -48 -111t-126 -42t-126 44.5t-48 115.5v272h-102v-272z" />
<glyph unicode="T" horiz-adv-x="598" d="M35 1343v91h528v-91h-211v-1343h-104v1343h-213z" />
<glyph unicode="U" horiz-adv-x="759" d="M102 240v1194h105v-1194q0 -71 47.5 -115.5t126.5 -44.5q77 0 124.5 44.5t47.5 115.5v1194h104v-1194q0 -118 -77.5 -185t-198.5 -67q-122 0 -200.5 67t-78.5 185z" />
<glyph unicode="V" horiz-adv-x="702" d="M27 1434h106l219 -1229l221 1229h105l-275 -1444h-104z" />
<glyph unicode="W" horiz-adv-x="1103" d="M29 1434h106l182 -1201l185 1201h106l183 -1201l182 1201h102l-235 -1444h-105l-182 1196l-184 -1196h-105z" />
<glyph unicode="X" horiz-adv-x="665" d="M6 0l275 727l-265 707h109l207 -594l209 594h106l-262 -707l272 -727h-106l-219 621l-217 -621h-109z" />
<glyph unicode="Y" horiz-adv-x="681" d="M16 1434h107l219 -754l221 754h105l-275 -889v-545h-104v545z" />
<glyph unicode="Z" horiz-adv-x="593" d="M37 0v90l407 1253h-387v91h496v-91l-408 -1253h410v-90h-518z" />
<glyph unicode="[" horiz-adv-x="505" d="M111 -307v2048h360v-76h-272v-1896h272v-76h-360z" />
<glyph unicode="\" horiz-adv-x="780" d="M49 1434h57l625 -1434h-57z" />
<glyph unicode="]" horiz-adv-x="505" d="M35 -231h272v1896h-272v76h360v-2048h-360v76z" />
<glyph unicode="^" horiz-adv-x="636" d="M125 594l147 287h86l154 -287h-88l-109 209l-102 -209h-88z" />
<glyph unicode="_" horiz-adv-x="643" d="M111 -41h419v-82h-419v82z" />
<glyph unicode="`" horiz-adv-x="489" d="M125 1413h102l138 -287h-84z" />
<glyph unicode="a" d="M53 203v137q0 65 14 109t53.5 82t117 57.5t196.5 21.5v183q0 149 -137 149q-86 0 -188 -61l-37 80q46 33 108 54t125 21q108 0 170 -57t62 -180v-799h-84l-11 115q-28 -64 -80 -95.5t-114 -31.5q-45 0 -79.5 13t-56 33.5t-35 49t-19 57.5t-5.5 62zM156 213q0 -59 31 -96 t96 -37q151 0 151 231v219q-88 -2 -145 -14.5t-85 -37t-38 -52.5t-10 -70v-143z" />
<glyph unicode="b" horiz-adv-x="645" d="M88 0h84l10 109q28 -58 79 -89.5t110 -31.5q56 0 96.5 20.5t62.5 56t31.5 75t9.5 85.5v574q0 46 -9.5 85.5t-31.5 75t-62.5 56t-96.5 20.5q-58 0 -106 -29.5t-75 -82.5v551h-102v-1475zM190 293v438q0 92 36 152.5t112 60.5q66 0 98.5 -43.5t32.5 -109.5v-558 q0 -66 -32.5 -109.5t-98.5 -43.5q-76 0 -112 60.5t-36 152.5z" />
<glyph unicode="c" horiz-adv-x="557" d="M74 236q0 -132 69.5 -190t184.5 -58q89 0 198 32l-12 91q-95 -31 -168 -31q-83 0 -126.5 39.5t-43.5 128.5v528q0 89 43.5 128.5t126.5 39.5q73 0 168 -31l12 91q-109 32 -198 32q-115 0 -184.5 -58t-69.5 -190v-552z" />
<glyph unicode="d" horiz-adv-x="645" d="M76 225v574q0 46 9.5 85.5t30.5 75t61.5 56t96.5 20.5q58 0 107 -29.5t76 -82.5v551h102v-1475h-86l-10 109q-28 -58 -79 -89.5t-110 -31.5q-56 0 -96.5 20.5t-61.5 56t-30.5 75t-9.5 85.5zM178 233q0 -66 32 -109.5t97 -43.5q77 0 113.5 60.5t36.5 152.5v438 q0 92 -36.5 152.5t-113.5 60.5q-65 0 -97 -43.5t-32 -109.5v-558z" />
<glyph unicode="e" d="M74 236v561q0 118 65 178.5t176 60.5q110 0 174 -60.5t64 -178.5v-301h-377v-250q0 -166 178 -166q100 0 195 31l12 -91q-109 -32 -223 -32q-55 0 -100.5 12.5t-83.5 40.5t-59 77.5t-21 117.5zM176 580h279v219q0 67 -36 108t-104 41t-103.5 -41.5t-35.5 -109.5v-217z " />
<glyph unicode="f" horiz-adv-x="403" d="M25 940h88v-940h102v940h166v84h-166v262q0 57 22.5 84t75.5 27q40 0 80 -11l8 89q-52 12 -114 12q-37 0 -65.5 -7.5t-54.5 -26.5t-40 -58t-14 -97v-274h-88v-84z" />
<glyph unicode="g" horiz-adv-x="645" d="M76 250q0 -45 9.5 -84.5t30.5 -75.5t61.5 -57t96.5 -21q58 0 106.5 30t74.5 85v-299q0 -88 -43.5 -126t-126.5 -38q-104 0 -183 31l-14 -92q113 -33 207 -33q262 0 262 256v1198h-84l-10 -109q-28 58 -79 89.5t-110 31.5q-56 0 -96.5 -20.5t-61.5 -56t-30.5 -75 t-9.5 -85.5v-549zM178 260v531q0 66 32 109.5t97 43.5q76 0 112 -60.5t36 -152.5v-412q0 -93 -35.5 -153t-112.5 -60q-65 0 -97 44t-32 110z" />
<glyph unicode="h" horiz-adv-x="657" d="M88 0h102v731q0 59 13.5 105t48.5 77t88 31q65 0 97 -43.5t32 -109.5v-791h102v799q0 46 -9.5 85.5t-30.5 75t-61.5 56t-96.5 20.5q-58 0 -107 -29.5t-76 -82.5v551h-102v-1475z" />
<glyph unicode="i" horiz-adv-x="280" d="M88 0h102v1024h-102v-1024zM88 1171h102v252h-102v-252z" />
<glyph unicode="j" horiz-adv-x="280" d="M-96 -418q52 -12 114 -12q38 0 65.5 7.5t53.5 26.5t39.5 57.5t13.5 96.5v1266h-102v-1251q0 -59 -22 -86t-76 -27q-30 0 -78 10zM88 1171h102v252h-102v-252z" />
<glyph unicode="k" horiz-adv-x="643" d="M88 0v1475h102v-932l336 481h117l-354 -498l362 -526h-119l-342 502v-502h-102z" />
<glyph unicode="l" horiz-adv-x="299" d="M98 0h103v1475h-103v-1475z" />
<glyph unicode="m" horiz-adv-x="1036" d="M88 0v1024h84l10 -109q28 58 79 89.5t110 31.5q144 0 186 -135q30 70 82.5 102.5t112.5 32.5q56 0 96.5 -20.5t61.5 -56t30.5 -75t9.5 -85.5v-799h-102v791q0 66 -32 109.5t-97 43.5q-76 0 -112 -60.5t-36 -152.5v-731h-102v791q0 66 -32.5 109.5t-98.5 43.5 q-76 0 -112 -60.5t-36 -152.5v-731h-102z" />
<glyph unicode="n" horiz-adv-x="655" d="M88 0h102v731q0 92 36 152.5t112 60.5q66 0 98.5 -43.5t32.5 -109.5v-791h102v799q0 46 -9.5 85.5t-31.5 75t-62.5 56t-96.5 20.5q-59 0 -110 -31.5t-79 -89.5l-10 109h-84v-1024z" />
<glyph unicode="o" horiz-adv-x="630" d="M74 227v570q0 118 65 178.5t176 60.5t176.5 -60.5t65.5 -178.5v-570q0 -118 -65.5 -178.5t-176.5 -60.5t-176 60.5t-65 178.5zM176 227q0 -68 35.5 -109.5t103.5 -41.5t104 42t36 109v570q0 67 -36 109t-104 42t-103.5 -41.5t-35.5 -109.5v-570z" />
<glyph unicode="p" horiz-adv-x="645" d="M88 -410v1434h84l10 -109q28 58 79 89.5t110 31.5q56 0 96.5 -20.5t62.5 -56t31.5 -75t9.5 -85.5v-574q0 -46 -9.5 -85.5t-31.5 -75t-62.5 -56t-96.5 -20.5q-58 0 -106 29.5t-75 82.5v-510h-102zM190 293q0 -92 36 -152.5t112 -60.5q66 0 98.5 43.5t32.5 109.5v558 q0 66 -32.5 109.5t-98.5 43.5q-76 0 -112 -60.5t-36 -152.5v-438z" />
<glyph unicode="q" horiz-adv-x="645" d="M76 225q0 -46 9.5 -85.5t30.5 -75t61.5 -56t96.5 -20.5q58 0 107 29.5t76 82.5v-510h102v1434h-86l-10 -109q-28 58 -79 89.5t-110 31.5q-56 0 -96.5 -20.5t-61.5 -56t-30.5 -75t-9.5 -85.5v-574zM178 233v558q0 66 32 109.5t97 43.5q77 0 113.5 -60.5t36.5 -152.5v-438 q0 -92 -36.5 -152.5t-113.5 -60.5q-65 0 -97 43.5t-32 109.5z" />
<glyph unicode="r" horiz-adv-x="409" d="M88 0h102v713q0 95 45 153t142 58v112q-62 0 -117 -36t-78 -105l-10 129h-84v-1024z" />
<glyph unicode="s" horiz-adv-x="579" d="M45 33q110 -45 229 -45q118 0 190.5 62.5t72.5 176.5v47q0 64 -20.5 113.5t-54 80t-73.5 55t-79.5 46.5t-73 46.5t-54 62.5t-20.5 88v43q0 66 40.5 102.5t106.5 36.5q82 0 176 -35l17 91q-98 32 -199 32q-115 0 -181.5 -60.5t-66.5 -164.5v-47q0 -64 20.5 -113.5t54 -80 t73.5 -55.5t79.5 -47.5t73 -47.5t54 -63t20.5 -87v-43q0 -72 -42 -111.5t-116 -39.5q-97 0 -204 47z" />
<glyph unicode="t" horiz-adv-x="415" d="M27 940v84h88v205h102v-205h172v-84h-172v-752q0 -57 22.5 -83.5t75.5 -26.5q44 0 80 10l8 -88q-52 -12 -114 -12q-80 0 -127 39.5t-47 148.5v764h-88z" />
<glyph unicode="u" horiz-adv-x="657" d="M86 225q0 -46 9.5 -85.5t31 -75t62 -56t96.5 -20.5q59 0 109.5 31t80.5 90l8 -109h86v1024h-102v-731q0 -59 -13.5 -105t-48.5 -77t-88 -31q-65 0 -97 43.5t-32 109.5v791h-102v-799z" />
<glyph unicode="v" horiz-adv-x="604" d="M20 1024h103l180 -885l182 885h99l-232 -1034h-100z" />
<glyph unicode="w" horiz-adv-x="952" d="M23 1024h102l151 -877l150 877h100l152 -870l149 870h103l-199 -1034h-104l-150 862l-151 -862h-105z" />
<glyph unicode="x" horiz-adv-x="583" d="M10 0l232 512l-232 512h103l180 -408l182 408h98l-231 -512l231 -512h-98l-182 408l-180 -408h-103z" />
<glyph unicode="y" horiz-adv-x="602" d="M-8 -418l8 88q44 -12 84 -12q57 0 85 27t46 94l49 211h-14l-232 1034h105l182 -874l178 874h101l-277 -1231q-31 -131 -80.5 -177t-138.5 -46q-44 0 -96 12z" />
<glyph unicode="z" horiz-adv-x="520" d="M37 0v84l334 856h-322v84h426v-84l-336 -856h344v-84h-446z" />
<glyph unicode="{" horiz-adv-x="452" d="M29 672q30 -4 53 -14t38 -21.5t25.5 -32.5t15.5 -36.5t7.5 -46t3 -48.5t0.5 -55q0 -60 -10 -214.5t-10 -217.5q0 -92 16.5 -151t53 -89.5t81.5 -41.5t113 -11v76q-26 0 -43.5 2t-45.5 14t-45 33.5t-30.5 66.5t-13.5 107t10 239.5t10 241.5q0 114 -34 167.5t-113 74.5v4 q79 21 113 74.5t34 167.5q0 64 -10 241.5t-10 239.5t13.5 107t30.5 66.5t45 33.5t45.5 14t43.5 2v76q-68 0 -113 -11t-81.5 -41.5t-53 -89.5t-16.5 -151q0 -63 10 -217.5t10 -214.5q0 -37 -0.5 -55t-3 -48.5t-7.5 -46t-15.5 -36.5t-25.5 -32.5t-38 -21.5t-53 -14v-90z" />
<glyph unicode="|" horiz-adv-x="280" d="M111 -307v2048h59v-2048h-59z" />
<glyph unicode="}" horiz-adv-x="452" d="M37 -231q26 0 43.5 2t45.5 14t45 33.5t30.5 66.5t13.5 107t-10 239.5t-10 241.5q0 114 34 167.5t113 74.5v4q-79 21 -113 74.5t-34 167.5q0 64 10 241.5t10 239.5t-13.5 107t-30.5 66.5t-45 33.5t-45.5 14t-43.5 2v76q68 0 113 -11t81.5 -41.5t53 -89.5t16.5 -151 q0 -63 -10 -217.5t-10 -214.5q0 -37 0.5 -55t3 -48.5t7.5 -46t15.5 -36.5t25.5 -32.5t38 -21.5t53 -14v-90q-30 -4 -53 -14t-38 -21.5t-25.5 -32.5t-15.5 -36.5t-7.5 -46t-3 -48.5t-0.5 -55q0 -60 10 -214.5t10 -217.5q0 -92 -16.5 -151t-53 -89.5t-81.5 -41.5t-113 -11v76z " />
<glyph unicode="~" horiz-adv-x="610" d="M74 641q0 91 34.5 133.5t88.5 42.5q38 0 75 -24.5t70.5 -49t63.5 -24.5q69 0 69 98h62q0 -91 -33.5 -133.5t-87.5 -42.5q-38 0 -75 24.5t-70.5 49t-63.5 24.5q-70 0 -70 -98h-63z" />
<glyph unicode="&#xa1;" horiz-adv-x="303" d="M100 -147v-263h105v263l-19 829h-69zM100 846v178h105v-178h-105z" />
<glyph unicode="&#xa2;" horiz-adv-x="602" d="M84 236v552q0 232 221 246v195h57v-193q70 -4 175 -32l-13 -91q-91 31 -166 31q-85 0 -128.5 -39.5t-43.5 -128.5v-528q0 -89 43.5 -128.5t128.5 -39.5q75 0 166 31l13 -91q-105 -28 -175 -32v-193h-57v195q-221 14 -221 246z" />
<glyph unicode="&#xa3;" horiz-adv-x="776" d="M70 0v90h82v483h-82v93h82v538q0 114 75 178t197 64q120 0 196 -67t76 -185v-272h-102v272q0 70 -46.5 115t-123.5 45q-76 0 -122 -42.5t-46 -107.5v-538h182v-93h-182v-483h442v-90h-628z" />
<glyph unicode="&#xa4;" horiz-adv-x="589" d="M88 391v242q0 115 72 174l-54 125h21l49 -113q50 33 119 33q72 0 121 -35l49 115h20l-55 -125q74 -57 74 -174v-242q0 -115 -72 -174l53 -125h-20l-49 115q-49 -35 -121 -35q-69 0 -119 33l-49 -113h-21l52 125q-70 60 -70 174zM109 391q0 -88 48.5 -143t137.5 -55 q90 0 139 55t49 143v242q0 88 -49 143t-139 55q-89 0 -137.5 -55t-48.5 -143v-242z" />
<glyph unicode="&#xa5;" horiz-adv-x="749" d="M49 1434h107l221 -750l219 750h104l-264 -856h168v-82h-178v-496h-104v496h-179v82h168z" />
<glyph unicode="&#xa6;" horiz-adv-x="282" d="M113 -307v921h57v-921h-57zM113 819v922h57v-922h-57z" />
<glyph unicode="&#xa7;" horiz-adv-x="739" d="M96 600v78h545v-449q0 -116 -75 -179.5t-197 -63.5q-121 0 -196 67t-75 187v239h103v-239q0 -71 45.5 -115.5t122.5 -44.5q78 0 123 41.5t45 107.5v371h-441zM96 768v436q0 114 76 178t197 64q122 0 197 -66.5t75 -185.5v-242h-102v242q0 70 -46.5 115t-123.5 45 q-76 0 -122 -42.5t-46 -107.5v-358h440v-78h-545z" />
<glyph unicode="&#xa8;" horiz-adv-x="645" d="M125 1171h102v252h-102v-252zM418 1171h102v252h-102v-252z" />
<glyph unicode="&#xa9;" horiz-adv-x="1560" d="M63 717q0 204 93 372.5t258 266.5t366 98t366 -98t258 -266.5t93 -372.5q0 -154 -55 -291t-149.5 -234.5t-228 -154.5t-284.5 -57t-284.5 57t-228 154.5t-149.5 234.5t-55 291zM104 717q0 -155 53.5 -287.5t145 -222t215 -139.5t262.5 -50t262.5 50t215 139.5t145 222 t53.5 287.5q0 154 -53.5 285.5t-145 220.5t-215.5 139.5t-262 50.5t-262 -50.5t-215.5 -139.5t-145 -220.5t-53.5 -285.5zM612 428q0 -72 47 -113t121 -41t121 41t47 113v162h-67v-162q0 -41 -27.5 -66.5t-73.5 -25.5t-73 25.5t-27 66.5v569q0 40 27.5 66.5t72.5 26.5 t73 -26.5t28 -66.5v-161h67v161q0 71 -47 112.5t-121 41.5t-121 -41.5t-47 -112.5v-569z" />
<glyph unicode="&#xaa;" horiz-adv-x="483" d="M88 670v59h295v-59h-295zM88 956v80q0 39 8.5 65.5t31.5 49.5t69.5 34.5t117.5 12.5v109q0 86 -79 86q-45 0 -113 -37l-25 51q64 47 144 47q141 0 141 -143v-480h-55l-6 68q-16 -37 -48 -55.5t-69 -18.5q-63 0 -90 38t-27 93zM156 961q0 -76 71 -76q88 0 88 135v127 q-97 -1 -128 -25.5t-31 -74.5v-86z" />
<glyph unicode="&#xab;" horiz-adv-x="919" d="M51 467v86l393 387v-94l-294 -334v-4l294 -330v-94zM449 467v86l391 387v-94l-293 -334v-4l293 -330v-94z" />
<glyph unicode="&#xac;" horiz-adv-x="659" d="M88 682v84h477v-231h-104v147h-373z" />
<glyph unicode="&#xad;" horiz-adv-x="557" d="M70 471v82h419v-82h-419z" />
<glyph unicode="&#xae;" horiz-adv-x="1560" d="M63 717q0 204 93 372.5t258 266.5t366 98t366 -98t258 -266.5t93 -372.5q0 -154 -55 -291t-149.5 -234.5t-228 -154.5t-284.5 -57t-284.5 57t-228 154.5t-149.5 234.5t-55 291zM104 717q0 -155 53.5 -287.5t145 -222t215 -139.5t262.5 -50t262.5 50t215 139.5t145 222 t53.5 287.5q0 154 -53.5 285.5t-145 220.5t-215.5 139.5t-262 50.5t-262 -50.5t-215.5 -139.5t-145 -220.5t-53.5 -285.5zM625 285v860h176q73 0 115 -38.5t42 -109.5v-147q0 -113 -92 -139q67 -26 78 -125l29 -301h-68l-26 301q-6 55 -31.5 76.5t-73.5 21.5h-82v-399h-67z M692 743h107q44 0 68 25t24 66v163q0 40 -24 65t-68 25h-107v-344z" />
<glyph unicode="&#xaf;" horiz-adv-x="659" d="M125 1165v76h410v-76h-410z" />
<glyph unicode="&#xb0;" horiz-adv-x="475" d="M57 1274q0 75 53 127.5t128 52.5t126.5 -52.5t51.5 -127.5t-52 -126.5t-126 -51.5q-75 0 -128 51.5t-53 126.5zM117 1274q0 -52 34.5 -86.5t86.5 -34.5q51 0 84.5 34.5t33.5 86.5t-33.5 86.5t-84.5 34.5q-52 0 -86.5 -34.5t-34.5 -86.5z" />
<glyph unicode="&#xb1;" horiz-adv-x="598" d="M82 483v84h434v-84h-434zM82 813v84h176v176h82v-176h176v-84h-176v-176h-82v176h-176z" />
<glyph unicode="&#xb2;" horiz-adv-x="428" d="M49 834v149q0 60 27.5 114.5t67 95.5t79 80.5t67 84.5t27.5 92v98q0 40 -27.5 66t-72.5 26t-71.5 -25.5t-26.5 -66.5v-153h-68v153q0 72 46 113t120 41t121 -41t47 -113v-98q0 -60 -27.5 -114.5t-67 -95.5t-79 -79.5t-67 -84t-27.5 -93.5v-90h268v-59h-336z" />
<glyph unicode="&#xb3;" horiz-adv-x="440" d="M49 979v154h68v-154q0 -40 27.5 -66t72.5 -26q46 0 73 25.5t27 66.5v184q0 40 -27.5 66t-72.5 26h-45v62h45q44 0 70 25t26 63v147q0 40 -25.5 64t-70.5 24t-71.5 -25.5t-26.5 -66.5v-153h-66v153q0 72 45 113t119 41q73 0 117.5 -39.5t44.5 -108.5v-147q0 -87 -76 -121 q84 -34 84 -123v-186q0 -71 -47.5 -111.5t-122.5 -40.5q-74 0 -121 41t-47 113z" />
<glyph unicode="&#xb4;" horiz-adv-x="489" d="M125 1126h86l154 287h-103z" />
<glyph unicode="&#xb6;" horiz-adv-x="843" d="M102 250v934q0 118 75.5 184t197.5 66h117v-1434h-117q-122 0 -197.5 66t-75.5 184zM567 0v1434h213v-76h-127v-1282h127v-76h-213z" />
<glyph unicode="&#xb7;" horiz-adv-x="264" d="M86 449h92v178h-92v-178z" />
<glyph unicode="&#xb8;" horiz-adv-x="563" d="M119 -393l14 59q58 -24 129 -24q100 0 100 94v24q0 46 -21 68t-83 22h-43v156h64v-92h12q158 0 158 -143v-35q0 -79 -49 -118.5t-126 -39.5q-38 0 -85 9.5t-70 19.5z" />
<glyph unicode="&#xb9;" horiz-adv-x="315" d="M33 834v59h100v743h-100v58h168v-801h98v-59h-266z" />
<glyph unicode="&#xba;" horiz-adv-x="489" d="M98 670v59h295v-59h-295zM98 971v338q0 70 40 107.5t108 37.5t107.5 -37.5t39.5 -107.5v-338q0 -72 -39.5 -109t-107.5 -37t-108 37t-40 109zM164 969q0 -38 21 -62t61 -24t60 23.5t20 62.5v340q0 39 -20.5 63.5t-59.5 24.5q-40 0 -61 -24.5t-21 -63.5v-340z" />
<glyph unicode="&#xbb;" horiz-adv-x="919" d="M80 84l391 383v86l-391 387v-94l293 -334v-4l-293 -330v-94zM475 84l393 383v86l-393 387v-94l295 -334v-4l-295 -330v-94z" />
<glyph unicode="&#xbc;" horiz-adv-x="958" d="M33 573v60h100v743h-100v58h168v-801h98v-60h-266zM102 0l625 1434h57l-624 -1434h-58zM530 242v57l256 561h68v-561h86v-57h-86v-242h-68v242h-256zM596 299h190v424z" />
<glyph unicode="&#xbd;" horiz-adv-x="995" d="M33 573v60h100v743h-100v58h168v-801h98v-60h-266zM102 0l625 1434h57l-624 -1434h-58zM614 0v150q0 51 20 98t50 81.5t64.5 71t64.5 67t50 69.5t20 79v99q0 40 -28 66t-73 26t-71.5 -25.5t-26.5 -66.5v-154h-68v154q0 72 46 112.5t120 40.5t122 -41t48 -112v-99 q0 -60 -28 -114.5t-67.5 -95t-79 -79t-67.5 -84t-28 -93.5v-91h270v-59h-338z" />
<glyph unicode="&#xbe;" horiz-adv-x="1079" d="M49 719v153h68v-153q0 -40 27.5 -66t72.5 -26q46 0 73 25.5t27 66.5v184q0 40 -27.5 66t-72.5 26h-45v62h45q44 0 70 25t26 63v147q0 40 -25.5 64t-70.5 24t-71.5 -25.5t-26.5 -66.5v-153h-66v153q0 72 45 113t119 41q73 0 117.5 -39.5t44.5 -108.5v-147q0 -87 -76 -121 q84 -34 84 -123v-186q0 -71 -47.5 -111.5t-122.5 -40.5q-74 0 -121 41t-47 113zM225 0l625 1434h57l-624 -1434h-58zM651 242v57l256 561h68v-561h86v-57h-86v-242h-68v242h-256zM717 299h190v424z" />
<glyph unicode="&#xbf;" horiz-adv-x="677" d="M72 -170v369q0 104 61.5 168.5t163.5 78.5l14 240h82v-328h-43q-77 0 -125.5 -44.5t-48.5 -114.5v-369q0 -70 48.5 -115t125.5 -45t123.5 45t46.5 115v258h103v-258q0 -118 -76 -185t-197 -67q-122 0 -200 67t-78 185zM297 846v178h104v-178h-104z" />
<glyph unicode="&#xc0;" horiz-adv-x="702" d="M25 0l274 1444h104l273 -1444h-107l-73 410h-295l-72 -410h-104zM154 1823h102l137 -287h-84zM217 502h262l-131 739z" />
<glyph unicode="&#xc1;" horiz-adv-x="702" d="M25 0l274 1444h104l273 -1444h-107l-73 410h-295l-72 -410h-104zM217 502h262l-131 739zM307 1536h86l154 287h-103z" />
<glyph unicode="&#xc2;" horiz-adv-x="702" d="M25 0l274 1444h104l273 -1444h-107l-73 410h-295l-72 -410h-104zM158 1536l147 287h86l154 -287h-88l-109 209l-102 -209h-88zM217 502h262l-131 739z" />
<glyph unicode="&#xc3;" horiz-adv-x="702" d="M25 0l274 1444h104l273 -1444h-107l-73 410h-295l-72 -410h-104zM119 1548q0 91 34.5 134.5t86.5 43.5q39 0 76.5 -24.5t71.5 -49t63 -24.5q69 0 69 98h62q0 -91 -33.5 -134.5t-87.5 -43.5q-30 0 -60.5 15.5t-51.5 34t-47.5 34t-49.5 15.5q-70 0 -70 -99h-63zM217 502 h262l-131 739z" />
<glyph unicode="&#xc4;" horiz-adv-x="702" d="M25 0l274 1444h104l273 -1444h-107l-73 410h-295l-72 -410h-104zM152 1581h102v252h-102v-252zM217 502h262l-131 739zM444 1581h103v252h-103v-252z" />
<glyph unicode="&#xc5;" horiz-adv-x="702" d="M25 0l274 1444h104l273 -1444h-107l-73 410h-295l-72 -410h-104zM170 1692q0 84 47.5 127t132.5 43q87 0 134.5 -42.5t47.5 -127.5q0 -83 -47.5 -125.5t-134.5 -42.5q-85 0 -132.5 42.5t-47.5 125.5zM217 502h262l-131 739zM244 1692q0 -50 25.5 -82.5t80.5 -32.5 q56 0 82.5 32.5t26.5 82.5q0 51 -26 82.5t-83 31.5q-55 0 -80.5 -31.5t-25.5 -82.5z" />
<glyph unicode="&#xc6;" horiz-adv-x="1019" d="M12 0l412 1434h551v-91h-383v-573h317v-92h-317v-588h383v-90h-488v410h-251l-119 -410h-105zM262 502h225v780z" />
<glyph unicode="&#xc7;" horiz-adv-x="722" d="M92 240v954q0 118 78 185t199 67q122 0 200 -67t78 -185v-272h-102v272q0 69 -49 114.5t-127 45.5q-77 0 -124.5 -45t-47.5 -115v-954q0 -71 47.5 -115.5t124.5 -44.5q78 0 127 44.5t49 115.5v272h102v-272q0 -110 -68.5 -176t-177.5 -74v-82h13q157 0 157 -144v-34 q0 -79 -48.5 -118.5t-125.5 -39.5q-38 0 -85 9.5t-70 19.5l14 59q60 -25 129 -25q100 0 100 95v24q0 46 -21 68t-83 22h-43v146q-109 8 -177.5 73.5t-68.5 176.5z" />
<glyph unicode="&#xc8;" horiz-adv-x="638" d="M106 0v1434h488v-91h-383v-573h317v-92h-317v-588h383v-90h-488zM143 1823h103l137 -287h-84z" />
<glyph unicode="&#xc9;" horiz-adv-x="638" d="M106 0v1434h488v-91h-383v-573h317v-92h-317v-588h383v-90h-488zM297 1536h86l154 287h-103z" />
<glyph unicode="&#xca;" horiz-adv-x="638" d="M106 0v1434h488v-91h-383v-573h317v-92h-317v-588h383v-90h-488zM147 1536l148 287h86l154 -287h-89l-108 209l-102 -209h-89z" />
<glyph unicode="&#xcb;" horiz-adv-x="638" d="M106 0v1434h488v-91h-383v-573h317v-92h-317v-588h383v-90h-488zM143 1581h103v252h-103v-252zM436 1581h103v252h-103v-252z" />
<glyph unicode="&#xcc;" horiz-adv-x="317" d="M-39 1823h102l138 -287h-84zM106 0v1434h105v-1434h-105z" />
<glyph unicode="&#xcd;" horiz-adv-x="317" d="M106 0v1434h105v-1434h-105zM115 1536h86l153 287h-102z" />
<glyph unicode="&#xce;" horiz-adv-x="317" d="M-35 1536l148 287h86l153 -287h-88l-108 209l-103 -209h-88zM106 0v1434h105v-1434h-105z" />
<glyph unicode="&#xcf;" horiz-adv-x="317" d="M-39 1581h102v252h-102v-252zM106 0v1434h105v-1434h-105zM254 1581h102v252h-102v-252z" />
<glyph unicode="&#xd0;" horiz-adv-x="757" d="M4 678v92h109v664h282q121 0 197 -66t76 -184v-934q0 -118 -76 -184t-197 -66h-282v678h-109zM217 90h178q76 0 122 44.5t46 115.5v934q0 70 -46 114.5t-122 44.5h-178v-573h137v-92h-137v-588z" />
<glyph unicode="&#xd1;" horiz-adv-x="782" d="M106 0v1434h113l369 -1172q-8 191 -8 387v785h96v-1434h-111l-370 1176q8 -200 8 -392v-784h-97zM160 1548q0 91 34.5 134.5t86.5 43.5q39 0 76.5 -24.5t71.5 -49t63 -24.5q69 0 69 98h62q0 -91 -33.5 -134.5t-87.5 -43.5q-30 0 -60.5 15.5t-51.5 34t-47.5 34t-49.5 15.5 q-70 0 -70 -99h-63z" />
<glyph unicode="&#xd2;" horiz-adv-x="739" d="M92 240q0 -118 78 -185t199 -67q122 0 200 67t78 185v954q0 118 -78 185t-200 67q-121 0 -199 -67t-78 -185v-954zM172 1823h102l138 -287h-84zM197 240v954q0 70 47.5 115t124.5 45t125.5 -45t48.5 -115v-954q0 -70 -48.5 -115t-125.5 -45t-124.5 45t-47.5 115z" />
<glyph unicode="&#xd3;" horiz-adv-x="739" d="M92 240q0 -118 78 -185t199 -67q122 0 200 67t78 185v954q0 118 -78 185t-200 67q-121 0 -199 -67t-78 -185v-954zM197 240v954q0 70 47.5 115t124.5 45t125.5 -45t48.5 -115v-954q0 -70 -48.5 -115t-125.5 -45t-124.5 45t-47.5 115zM326 1536h86l153 287h-102z" />
<glyph unicode="&#xd4;" horiz-adv-x="739" d="M92 240q0 -118 78 -185t199 -67q122 0 200 67t78 185v954q0 118 -78 185t-200 67q-121 0 -199 -67t-78 -185v-954zM176 1536l148 287h86l153 -287h-88l-108 209l-103 -209h-88zM197 240v954q0 70 47.5 115t124.5 45t125.5 -45t48.5 -115v-954q0 -70 -48.5 -115 t-125.5 -45t-124.5 45t-47.5 115z" />
<glyph unicode="&#xd5;" horiz-adv-x="739" d="M92 240q0 -118 78 -185t199 -67q122 0 200 67t78 185v954q0 118 -78 185t-200 67q-121 0 -199 -67t-78 -185v-954zM137 1548q0 91 34.5 134.5t86.5 43.5q39 0 76.5 -24.5t71.5 -49t63 -24.5q70 0 70 98h61q0 -91 -33.5 -134.5t-87.5 -43.5q-30 0 -60.5 15.5t-51.5 34 t-47.5 34t-49.5 15.5q-69 0 -69 -99h-64zM197 240v954q0 70 47.5 115t124.5 45t125.5 -45t48.5 -115v-954q0 -70 -48.5 -115t-125.5 -45t-124.5 45t-47.5 115z" />
<glyph unicode="&#xd6;" horiz-adv-x="739" d="M92 240q0 -118 78 -185t199 -67q122 0 200 67t78 185v954q0 118 -78 185t-200 67q-121 0 -199 -67t-78 -185v-954zM172 1581h102v252h-102v-252zM197 240v954q0 70 47.5 115t124.5 45t125.5 -45t48.5 -115v-954q0 -70 -48.5 -115t-125.5 -45t-124.5 45t-47.5 115z M465 1581h102v252h-102v-252z" />
<glyph unicode="&#xd7;" horiz-adv-x="595" d="M70 555l399 397l57 -59l-397 -397z" />
<glyph unicode="&#xd8;" horiz-adv-x="739" d="M92 240v954q0 118 78 185t199 67q118 0 194 -64l31 93h53l-45 -134q45 -61 45 -147v-954q0 -118 -78 -185t-200 -67q-120 0 -193 61l-31 -90h-51l43 131q-45 61 -45 150zM197 270l329 998q-44 86 -157 86q-77 0 -124.5 -45t-47.5 -115v-924zM213 166q44 -86 156 -86 q77 0 125.5 45t48.5 115v919z" />
<glyph unicode="&#xd9;" horiz-adv-x="759" d="M102 240v1194h105v-1194q0 -71 47.5 -115.5t126.5 -44.5q77 0 124.5 44.5t47.5 115.5v1194h104v-1194q0 -118 -77.5 -185t-198.5 -67q-122 0 -200.5 67t-78.5 185zM182 1823h103l137 -287h-84z" />
<glyph unicode="&#xda;" horiz-adv-x="759" d="M102 240v1194h105v-1194q0 -71 47.5 -115.5t126.5 -44.5q77 0 124.5 44.5t47.5 115.5v1194h104v-1194q0 -118 -77.5 -185t-198.5 -67q-122 0 -200.5 67t-78.5 185zM336 1536h86l153 287h-102z" />
<glyph unicode="&#xdb;" horiz-adv-x="759" d="M102 240v1194h105v-1194q0 -71 47.5 -115.5t126.5 -44.5q77 0 124.5 44.5t47.5 115.5v1194h104v-1194q0 -118 -77.5 -185t-198.5 -67q-122 0 -200.5 67t-78.5 185zM186 1536l148 287h86l153 -287h-88l-108 209l-103 -209h-88z" />
<glyph unicode="&#xdc;" horiz-adv-x="759" d="M102 240v1194h105v-1194q0 -71 47.5 -115.5t126.5 -44.5q77 0 124.5 44.5t47.5 115.5v1194h104v-1194q0 -118 -77.5 -185t-198.5 -67q-122 0 -200.5 67t-78.5 185zM182 1581h103v252h-103v-252zM475 1581h103v252h-103v-252z" />
<glyph unicode="&#xdd;" horiz-adv-x="681" d="M16 1434h107l219 -754l221 754h105l-275 -889v-545h-104v545zM297 1536h86l154 287h-103z" />
<glyph unicode="&#xde;" horiz-adv-x="708" d="M106 0v1434h105v-283h172q122 0 197 -66t75 -186v-350q0 -119 -75 -184.5t-197 -65.5h-172v-299h-105zM211 389h172q77 0 122.5 44.5t45.5 115.5v350q0 71 -45.5 115.5t-122.5 44.5h-172v-670z" />
<glyph unicode="&#xdf;" horiz-adv-x="696" d="M25 940v84h88v223q0 118 65.5 179t177.5 61q111 0 176.5 -61t65.5 -179v-278q0 -144 -131 -195q76 -21 120 -74t44 -135v-321q0 -119 -72.5 -181.5t-191.5 -62.5h-88v90h86q76 0 120.5 42t44.5 114v321q0 70 -44.5 112t-120.5 42h-86v92h53q75 0 119.5 41.5t44.5 110.5 v282q0 68 -35.5 110t-104.5 42t-105 -42t-36 -110v-1247h-102v940h-88z" />
<glyph unicode="&#xe0;" d="M53 203v137q0 65 14 109t53.5 82t117 57.5t196.5 21.5v183q0 149 -137 149q-86 0 -188 -61l-37 80q46 33 108 54t125 21q108 0 170 -57t62 -180v-799h-84l-11 115q-28 -64 -80 -95.5t-114 -31.5q-45 0 -79.5 13t-56 33.5t-35 49t-19 57.5t-5.5 62zM109 1413h102l137 -287 h-84zM156 213q0 -59 31 -96t96 -37q151 0 151 231v219q-88 -2 -145 -14.5t-85 -37t-38 -52.5t-10 -70v-143z" />
<glyph unicode="&#xe1;" d="M53 203v137q0 65 14 109t53.5 82t117 57.5t196.5 21.5v183q0 149 -137 149q-86 0 -188 -61l-37 80q46 33 108 54t125 21q108 0 170 -57t62 -180v-799h-84l-11 115q-28 -64 -80 -95.5t-114 -31.5q-45 0 -79.5 13t-56 33.5t-35 49t-19 57.5t-5.5 62zM156 213q0 -59 31 -96 t96 -37q151 0 151 231v219q-88 -2 -145 -14.5t-85 -37t-38 -52.5t-10 -70v-143zM262 1126h86l154 287h-103z" />
<glyph unicode="&#xe2;" d="M53 203v137q0 65 14 109t53.5 82t117 57.5t196.5 21.5v183q0 149 -137 149q-86 0 -188 -61l-37 80q46 33 108 54t125 21q108 0 170 -57t62 -180v-799h-84l-11 115q-28 -64 -80 -95.5t-114 -31.5q-45 0 -79.5 13t-56 33.5t-35 49t-19 57.5t-5.5 62zM113 1126l147 287h86 l154 -287h-88l-109 209l-102 -209h-88zM156 213q0 -59 31 -96t96 -37q151 0 151 231v219q-88 -2 -145 -14.5t-85 -37t-38 -52.5t-10 -70v-143z" />
<glyph unicode="&#xe3;" d="M53 203v137q0 65 14 109t53.5 82t117 57.5t196.5 21.5v183q0 149 -137 149q-86 0 -188 -61l-37 80q46 33 108 54t125 21q108 0 170 -57t62 -180v-799h-84l-11 115q-28 -64 -80 -95.5t-114 -31.5q-45 0 -79.5 13t-56 33.5t-35 49t-19 57.5t-5.5 62zM74 1139 q0 91 34.5 134.5t86.5 43.5q39 0 76.5 -24.5t71.5 -49t63 -24.5q69 0 69 98h62q0 -91 -33.5 -134.5t-87.5 -43.5q-38 0 -75.5 24.5t-71 49t-62.5 24.5q-70 0 -70 -98h-63zM156 213q0 -59 31 -96t96 -37q151 0 151 231v219q-88 -2 -145 -14.5t-85 -37t-38 -52.5t-10 -70v-143 z" />
<glyph unicode="&#xe4;" d="M53 203v137q0 65 14 109t53.5 82t117 57.5t196.5 21.5v183q0 149 -137 149q-86 0 -188 -61l-37 80q46 33 108 54t125 21q108 0 170 -57t62 -180v-799h-84l-11 115q-28 -64 -80 -95.5t-114 -31.5q-45 0 -79.5 13t-56 33.5t-35 49t-19 57.5t-5.5 62zM109 1171h102v252h-102 v-252zM156 213q0 -59 31 -96t96 -37q151 0 151 231v219q-88 -2 -145 -14.5t-85 -37t-38 -52.5t-10 -70v-143zM401 1171h103v252h-103v-252z" />
<glyph unicode="&#xe5;" d="M53 203v137q0 65 14 109t53.5 82t117 57.5t196.5 21.5v183q0 149 -137 149q-86 0 -188 -61l-37 80q46 33 108 54t125 21q108 0 170 -57t62 -180v-799h-84l-11 115q-28 -64 -80 -95.5t-114 -31.5q-45 0 -79.5 13t-56 33.5t-35 49t-19 57.5t-5.5 62zM125 1282 q0 84 47.5 127t132.5 43q87 0 134.5 -42.5t47.5 -127.5q0 -83 -47.5 -125.5t-134.5 -42.5q-85 0 -132.5 42.5t-47.5 125.5zM156 213q0 -59 31 -96t96 -37q151 0 151 231v219q-88 -2 -145 -14.5t-85 -37t-38 -52.5t-10 -70v-143zM199 1282q0 -50 25.5 -82.5t80.5 -32.5 q56 0 82.5 32.5t26.5 82.5q0 51 -26 83t-83 32q-55 0 -80.5 -31.5t-25.5 -83.5z" />
<glyph unicode="&#xe6;" horiz-adv-x="976" d="M53 203v123q0 52 8 89t31.5 72t65 57t110 36t164.5 16v197q0 149 -137 149q-87 0 -189 -61l-36 80q106 75 235 75q125 0 182 -71q62 71 187 71q109 0 173 -60.5t64 -178.5v-281h-376v-270q0 -166 178 -166q99 0 194 31l13 -91q-109 -32 -224 -32q-197 0 -247 143 q-27 -75 -82.5 -109t-118.5 -34q-56 0 -96 18.5t-60.5 51t-29.5 68t-9 77.5zM156 213q0 -59 30.5 -96t96.5 -37q149 0 149 231v205q-88 -2 -144.5 -14.5t-84.5 -37t-37.5 -51.5t-9.5 -69v-131zM535 596h278v203q0 67 -35.5 108t-103.5 41t-103.5 -41.5t-35.5 -109.5v-201z " />
<glyph unicode="&#xe7;" horiz-adv-x="557" d="M74 236v552q0 132 69.5 190t184.5 58q89 0 198 -32l-12 -91q-95 31 -168 31q-83 0 -126.5 -39.5t-43.5 -128.5v-528q0 -89 43.5 -128.5t126.5 -39.5q73 0 168 31l12 -91q-106 -29 -168 -32v-80h13q157 0 157 -144v-34q0 -79 -48.5 -118.5t-125.5 -39.5q-38 0 -85 9.5 t-70 19.5l14 59q60 -25 129 -25q100 0 100 95v24q0 46 -21 68t-83 22h-43v146q-221 14 -221 246z" />
<glyph unicode="&#xe8;" d="M74 236v561q0 118 65 178.5t176 60.5q110 0 174 -60.5t64 -178.5v-301h-377v-250q0 -166 178 -166q100 0 195 31l12 -91q-109 -32 -223 -32q-55 0 -100.5 12.5t-83.5 40.5t-59 77.5t-21 117.5zM119 1413h102l137 -287h-84zM176 580h279v219q0 67 -36 108t-104 41 t-103.5 -41.5t-35.5 -109.5v-217z" />
<glyph unicode="&#xe9;" d="M74 236v561q0 118 65 178.5t176 60.5q110 0 174 -60.5t64 -178.5v-301h-377v-250q0 -166 178 -166q100 0 195 31l12 -91q-109 -32 -223 -32q-55 0 -100.5 12.5t-83.5 40.5t-59 77.5t-21 117.5zM176 580h279v219q0 67 -36 108t-104 41t-103.5 -41.5t-35.5 -109.5v-217z M272 1126h86l154 287h-102z" />
<glyph unicode="&#xea;" d="M74 236v561q0 118 65 178.5t176 60.5q110 0 174 -60.5t64 -178.5v-301h-377v-250q0 -166 178 -166q100 0 195 31l12 -91q-109 -32 -223 -32q-55 0 -100.5 12.5t-83.5 40.5t-59 77.5t-21 117.5zM123 1126l147 287h86l154 -287h-88l-109 209l-102 -209h-88zM176 580h279 v219q0 67 -36 108t-104 41t-103.5 -41.5t-35.5 -109.5v-217z" />
<glyph unicode="&#xeb;" d="M74 236v561q0 118 65 178.5t176 60.5q110 0 174 -60.5t64 -178.5v-301h-377v-250q0 -166 178 -166q100 0 195 31l12 -91q-109 -32 -223 -32q-55 0 -100.5 12.5t-83.5 40.5t-59 77.5t-21 117.5zM117 1171h102v252h-102v-252zM176 580h279v219q0 67 -36 108t-104 41 t-103.5 -41.5t-35.5 -109.5v-217zM410 1171h102v252h-102v-252z" />
<glyph unicode="&#xec;" horiz-adv-x="280" d="M-57 1413h102l137 -287h-84zM88 0h102v1024h-102v-1024z" />
<glyph unicode="&#xed;" horiz-adv-x="280" d="M88 0h102v1024h-102v-1024zM96 1126h86l154 287h-103z" />
<glyph unicode="&#xee;" horiz-adv-x="280" d="M-53 1126l147 287h86l154 -287h-88l-109 209l-102 -209h-88zM88 0h102v1024h-102v-1024z" />
<glyph unicode="&#xef;" horiz-adv-x="280" d="M-57 1171h102v252h-102v-252zM88 0h102v1024h-102v-1024zM236 1171h102v252h-102v-252z" />
<glyph unicode="&#xf0;" horiz-adv-x="688" d="M53 240v309q0 118 78 185t199 67h174v393q0 66 -43 110t-115 50v-213h-57v213h-193v92h193v192h57v-192q116 -5 188 -71.5t72 -180.5v-954q0 -118 -77 -185t-199 -67q-121 0 -199 67t-78 185zM158 240q0 -70 47.5 -115t124.5 -45t125.5 45t48.5 115v469h-174 q-77 0 -124.5 -44.5t-47.5 -115.5v-309z" />
<glyph unicode="&#xf1;" horiz-adv-x="655" d="M88 0h102v731q0 92 36 152.5t112 60.5q66 0 98.5 -43.5t32.5 -109.5v-791h102v799q0 46 -9.5 85.5t-31.5 75t-62.5 56t-96.5 20.5q-59 0 -110 -31.5t-79 -89.5l-10 109h-84v-1024zM102 1139q0 91 34.5 134.5t86.5 43.5q39 0 76.5 -24.5t71.5 -49t63 -24.5q70 0 70 98h61 q0 -91 -33.5 -134.5t-87.5 -43.5q-38 0 -75.5 24.5t-70.5 49t-62 24.5q-70 0 -70 -98h-64z" />
<glyph unicode="&#xf2;" horiz-adv-x="630" d="M74 227v570q0 118 65 178.5t176 60.5t176.5 -60.5t65.5 -178.5v-570q0 -118 -65.5 -178.5t-176.5 -60.5t-176 60.5t-65 178.5zM119 1413h102l137 -287h-84zM176 227q0 -68 35.5 -109.5t103.5 -41.5t104 42t36 109v570q0 67 -36 109t-104 42t-103.5 -41.5t-35.5 -109.5 v-570z" />
<glyph unicode="&#xf3;" horiz-adv-x="630" d="M74 227v570q0 118 65 178.5t176 60.5t176.5 -60.5t65.5 -178.5v-570q0 -118 -65.5 -178.5t-176.5 -60.5t-176 60.5t-65 178.5zM176 227q0 -68 35.5 -109.5t103.5 -41.5t104 42t36 109v570q0 67 -36 109t-104 42t-103.5 -41.5t-35.5 -109.5v-570zM272 1126h86l154 287 h-102z" />
<glyph unicode="&#xf4;" horiz-adv-x="630" d="M74 227v570q0 118 65 178.5t176 60.5t176.5 -60.5t65.5 -178.5v-570q0 -118 -65.5 -178.5t-176.5 -60.5t-176 60.5t-65 178.5zM123 1126l147 287h86l154 -287h-88l-109 209l-102 -209h-88zM176 227q0 -68 35.5 -109.5t103.5 -41.5t104 42t36 109v570q0 67 -36 109 t-104 42t-103.5 -41.5t-35.5 -109.5v-570z" />
<glyph unicode="&#xf5;" horiz-adv-x="630" d="M74 227v570q0 118 65 178.5t176 60.5t176.5 -60.5t65.5 -178.5v-570q0 -118 -65.5 -178.5t-176.5 -60.5t-176 60.5t-65 178.5zM84 1139q0 91 34.5 134.5t86.5 43.5q39 0 76.5 -24.5t71.5 -49t63 -24.5q69 0 69 98h62q0 -91 -33.5 -134.5t-87.5 -43.5q-38 0 -75.5 24.5 t-71 49t-62.5 24.5q-70 0 -70 -98h-63zM176 227q0 -68 35.5 -109.5t103.5 -41.5t104 42t36 109v570q0 67 -36 109t-104 42t-103.5 -41.5t-35.5 -109.5v-570z" />
<glyph unicode="&#xf6;" horiz-adv-x="630" d="M74 227v570q0 118 65 178.5t176 60.5t176.5 -60.5t65.5 -178.5v-570q0 -118 -65.5 -178.5t-176.5 -60.5t-176 60.5t-65 178.5zM117 1171h102v252h-102v-252zM176 227q0 -68 35.5 -109.5t103.5 -41.5t104 42t36 109v570q0 67 -36 109t-104 42t-103.5 -41.5t-35.5 -109.5 v-570zM410 1171h102v252h-102v-252z" />
<glyph unicode="&#xf7;" horiz-adv-x="598" d="M74 682v84h450v-84h-450zM248 393h92v178h-92v-178zM248 877h92v178h-92v-178z" />
<glyph unicode="&#xf8;" horiz-adv-x="630" d="M74 -41l43 115q-43 59 -43 153v570q0 118 65 178.5t176 60.5q95 0 156 -43l27 72h59l-43 -115q43 -59 43 -153v-570q0 -118 -65.5 -178.5t-176.5 -60.5q-94 0 -155 43l-27 -72h-59zM176 225l254 666q-37 57 -115 57q-68 0 -103.5 -41.5t-35.5 -109.5v-570v-2zM201 133 q37 -57 114 -57q68 0 104 42t36 109v570v2z" />
<glyph unicode="&#xf9;" horiz-adv-x="657" d="M86 225q0 -46 9.5 -85.5t31 -75t62 -56t96.5 -20.5q59 0 109.5 31t80.5 90l8 -109h86v1024h-102v-731q0 -59 -13.5 -105t-48.5 -77t-88 -31q-65 0 -97 43.5t-32 109.5v791h-102v-799zM131 1413h102l138 -287h-84z" />
<glyph unicode="&#xfa;" horiz-adv-x="657" d="M86 225q0 -46 9.5 -85.5t31 -75t62 -56t96.5 -20.5q59 0 109.5 31t80.5 90l8 -109h86v1024h-102v-731q0 -59 -13.5 -105t-48.5 -77t-88 -31q-65 0 -97 43.5t-32 109.5v791h-102v-799zM285 1126h86l153 287h-102z" />
<glyph unicode="&#xfb;" horiz-adv-x="657" d="M86 225q0 -46 9.5 -85.5t31 -75t62 -56t96.5 -20.5q59 0 109.5 31t80.5 90l8 -109h86v1024h-102v-731q0 -59 -13.5 -105t-48.5 -77t-88 -31q-65 0 -97 43.5t-32 109.5v791h-102v-799zM135 1126l148 287h86l153 -287h-88l-108 209l-103 -209h-88z" />
<glyph unicode="&#xfc;" horiz-adv-x="657" d="M86 225q0 -46 9.5 -85.5t31 -75t62 -56t96.5 -20.5q59 0 109.5 31t80.5 90l8 -109h86v1024h-102v-731q0 -59 -13.5 -105t-48.5 -77t-88 -31q-65 0 -97 43.5t-32 109.5v791h-102v-799zM131 1171h102v252h-102v-252zM424 1171h102v252h-102v-252z" />
<glyph unicode="&#xfd;" horiz-adv-x="602" d="M-8 -418l8 88q44 -12 84 -12q57 0 85 27t46 94l49 211h-14l-232 1034h105l182 -874l178 874h101l-277 -1231q-31 -131 -80.5 -177t-138.5 -46q-44 0 -96 12zM256 1126h86l154 287h-103z" />
<glyph unicode="&#xfe;" horiz-adv-x="647" d="M88 -410v1885h102v-551q27 53 76 82.5t107 29.5q56 0 96.5 -20.5t61.5 -56t30.5 -75t9.5 -85.5v-574q0 -46 -9.5 -85.5t-30.5 -75t-61.5 -56t-96.5 -20.5q-58 0 -107 29.5t-76 82.5v-510h-102zM190 293q0 -59 13.5 -105t48.5 -77t88 -31q65 0 97 43.5t32 109.5v558 q0 66 -32 109.5t-97 43.5q-53 0 -88 -31t-48.5 -77t-13.5 -105v-438z" />
<glyph unicode="&#xff;" horiz-adv-x="602" d="M-8 -418l8 88q44 -12 84 -12q57 0 85 27t46 94l49 211h-14l-232 1034h105l182 -874l178 874h101l-277 -1231q-31 -131 -80.5 -177t-138.5 -46q-44 0 -96 12zM102 1171h103v252h-103v-252zM395 1171h103v252h-103v-252z" />
<glyph unicode="&#x152;" horiz-adv-x="1075" d="M92 240v954q0 118 75 185t193 67q82 0 140 -34t84 -97v119h446v-91h-383v-573h318v-92h-318v-588h383v-90h-446v119q-26 -63 -84 -97t-140 -34q-118 0 -193 67t-75 185zM197 240q0 -70 47.5 -115t124.5 -45q78 0 126 45t48 115v954q0 70 -48 115t-126 45 q-77 0 -124.5 -45t-47.5 -115v-954z" />
<glyph unicode="&#x153;" horiz-adv-x="999" d="M74 227v570q0 118 65 178.5t176 60.5q128 0 191 -75q63 75 190 75q110 0 174 -60.5t64 -178.5v-301h-377v-250q0 -90 45.5 -128t132.5 -38q102 0 193 31l14 -91q-109 -32 -225 -32q-142 0 -209 78q-66 -78 -193 -78q-111 0 -176 60.5t-65 178.5zM176 227 q0 -68 35.5 -109.5t103.5 -41.5t104 42t36 109v570q0 67 -36 109t-104 42t-103.5 -41.5t-35.5 -109.5v-570zM557 580h279v219q0 67 -36 108t-104 41q-69 0 -104 -41.5t-35 -109.5v-217z" />
<glyph unicode="&#x178;" horiz-adv-x="681" d="M16 1434h107l219 -754l221 754h105l-275 -889v-545h-104v545zM143 1581h103v252h-103v-252zM436 1581h103v252h-103v-252z" />
<glyph unicode="&#x2c6;" horiz-adv-x="636" d="M125 1126l147 287h86l154 -287h-88l-109 209l-102 -209h-88z" />
<glyph unicode="&#x2dc;" horiz-adv-x="663" d="M131 1139q0 91 34.5 134.5t86.5 43.5q39 0 76.5 -24.5t71.5 -49t63 -24.5q69 0 69 98h62q0 -91 -33.5 -134.5t-87.5 -43.5q-38 0 -75.5 24.5t-71 49t-62.5 24.5q-69 0 -69 -98h-64z" />
<glyph unicode="&#x2000;" horiz-adv-x="931" />
<glyph unicode="&#x2001;" horiz-adv-x="1862" />
<glyph unicode="&#x2002;" horiz-adv-x="931" />
<glyph unicode="&#x2003;" horiz-adv-x="1862" />
<glyph unicode="&#x2004;" />
<glyph unicode="&#x2005;" horiz-adv-x="465" />
<glyph unicode="&#x2006;" horiz-adv-x="310" />
<glyph unicode="&#x2007;" horiz-adv-x="310" />
<glyph unicode="&#x2008;" horiz-adv-x="232" />
<glyph unicode="&#x2009;" horiz-adv-x="372" />
<glyph unicode="&#x200a;" horiz-adv-x="103" />
<glyph unicode="&#x2010;" horiz-adv-x="557" d="M70 471v82h419v-82h-419z" />
<glyph unicode="&#x2011;" horiz-adv-x="557" d="M70 471v82h419v-82h-419z" />
<glyph unicode="&#x2012;" horiz-adv-x="557" d="M70 471v82h419v-82h-419z" />
<glyph unicode="&#x2013;" horiz-adv-x="747" d="M70 471v82h610v-82h-610z" />
<glyph unicode="&#x2014;" horiz-adv-x="952" d="M70 471v82h815v-82h-815z" />
<glyph unicode="&#x2018;" horiz-adv-x="260" d="M96 985h74v178l-37 271h-37v-449z" />
<glyph unicode="&#x2019;" horiz-adv-x="258" d="M80 1255v179h92v-449h-57z" />
<glyph unicode="&#x201a;" horiz-adv-x="260" d="M84 0v178h92v-448h-55z" />
<glyph unicode="&#x201c;" horiz-adv-x="569" d="M86 985v449h57l35 -271v-178h-92zM397 985v449h56l36 -271v-178h-92z" />
<glyph unicode="&#x201d;" horiz-adv-x="567" d="M80 1255v179h92v-449h-57zM389 1255v179h92v-449h-55z" />
<glyph unicode="&#x201e;" horiz-adv-x="569" d="M84 0v178h92v-448h-55zM393 0v178h94v-448h-57z" />
<glyph unicode="&#x2022;" horiz-adv-x="329" d="M88 625h156v225h-156v-225z" />
<glyph unicode="&#x2026;" horiz-adv-x="880" d="M84 0h92v178h-92v-178zM393 0h94v178h-94v-178zM705 0h92v178h-92v-178z" />
<glyph unicode="&#x202f;" horiz-adv-x="372" />
<glyph unicode="&#x2039;" horiz-adv-x="522" d="M51 467v86l393 387v-94l-294 -334v-4l294 -330v-94z" />
<glyph unicode="&#x203a;" horiz-adv-x="522" d="M80 84l391 383v86l-391 387v-94l293 -334v-4l-293 -330v-94z" />
<glyph unicode="&#x205f;" horiz-adv-x="465" />
<glyph unicode="&#x20ac;" horiz-adv-x="813" d="M61 559v76h107v178h-107v74h107v307q0 118 77.5 185t198.5 67q122 0 199.5 -67t77.5 -185v-272h-103v272q0 70 -48.5 115t-125.5 45t-124.5 -45t-47.5 -115v-307h160v-74h-160v-178h160v-76h-160v-319q0 -71 47.5 -115.5t124.5 -44.5q78 0 126 44.5t48 115.5v272h103 v-272q0 -118 -77.5 -185t-199.5 -67q-121 0 -198.5 67t-77.5 185v319h-107z" />
<glyph unicode="&#x2122;" horiz-adv-x="1028" d="M94 1376v58h320v-58h-125v-803h-68v803h-127zM498 573v861h69l144 -426l141 426h61h5v-861h-68v455q0 106 6 232l-119 -351h-63l-121 369q6 -144 6 -250v-455h-61z" />
<glyph unicode="&#x25fc;" horiz-adv-x="1024" d="M0 0v1024h1024v-1024h-1024z" />
<glyph unicode="&#xfb03;" horiz-adv-x="1067" d="M25 940v84h88v274q0 58 14 97t40 58t54.5 26.5t65.5 7.5q62 0 114 -12l-8 -89q-40 11 -80 11q-53 0 -75.5 -27t-22.5 -84v-262h279v262q0 58 14 97t40 58t54.5 26.5t65.5 7.5h309v-304h-103v213h-180q-53 0 -75.5 -27t-22.5 -85v-248h166v-84h-166v-940h-102v940h-279 v-940h-102v940h-88zM874 0v1024h103v-1024h-103z" />
<glyph unicode="&#xfb04;" horiz-adv-x="1075" d="M25 940v84h88v274q0 58 14 97t40 58t54.5 26.5t65.5 7.5q62 0 114 -12l-8 -89q-40 11 -80 11q-53 0 -75.5 -27t-22.5 -84v-262h279v262q0 58 14 97t40 58t54.5 26.5t65.5 7.5h309v-1475h-103v1384h-180q-53 0 -75.5 -27t-22.5 -85v-248h166v-84h-166v-940h-102v940h-279 v-940h-102v940h-88z" />
</font>
</defs>
</svg>
