<?xml version="1.0" standalone="no"?>
<!DOCTYPE svg PUBLIC "-//W3C//DTD SVG 1.1//EN" "http://www.w3.org/Graphics/SVG/1.1/DTD/svg11.dtd" >
<svg xmlns="http://www.w3.org/2000/svg" xmlns:xlink="http://www.w3.org/1999/xlink" version="1.1">
<metadata></metadata>
<defs>
<font id="solido_compressedmedium" horiz-adv-x="743" >
<font-face units-per-em="2048" ascent="1536" descent="-512" />
<missing-glyph horiz-adv-x="286" />
<glyph unicode="&#xfb01;" horiz-adv-x="780" d="M25 877v147h75v238q0 116 53.5 164.5t155.5 48.5h396v-320h-185v160h-155q-80 0 -80 -80v-211h137v-147h-137v-877h-185v877h-75zM520 0v1024h185v-1024h-185z" />
<glyph unicode="&#xfb02;" horiz-adv-x="788" d="M25 877v147h75v238q0 116 53.5 164.5t155.5 48.5h396v-1475h-185v1315h-155q-80 0 -80 -80v-211h137v-147h-137v-877h-185v877h-75z" />
<glyph horiz-adv-x="0" />
<glyph horiz-adv-x="682" />
<glyph unicode=" "  horiz-adv-x="286" />
<glyph unicode="&#x09;" horiz-adv-x="286" />
<glyph unicode="&#xa0;" horiz-adv-x="286" />
<glyph unicode="!" horiz-adv-x="376" d="M94 0h189v211h-189v-211zM94 819v615h189v-615l-37 -444h-117z" />
<glyph unicode="&#x22;" horiz-adv-x="655" d="M68 1223v211h165v-211l-36 -275h-93zM422 1223v211h166v-211l-37 -275h-92z" />
<glyph unicode="#" horiz-adv-x="886" d="M59 477v94h168v314h-168v96h168v453h97v-453h243v453h95v-453h167v-96h-167v-314h167v-94h-167v-477h-95v477h-243v-477h-97v477h-168zM324 571h243v314h-243v-314z" />
<glyph unicode="$" horiz-adv-x="759" d="M70 264v248h184v-248q0 -53 35 -81.5t92 -28.5q56 0 89.5 27t33.5 73v137q0 50 -23.5 93t-61.5 75.5t-84 65t-92 70t-84 81t-61.5 107.5t-23.5 141v156q0 114 67 183t191 81v194h96v-194q123 -12 190.5 -85t67.5 -190v-247h-184v247q0 51 -32.5 81t-88.5 30 q-55 0 -87 -27t-32 -73v-154q0 -49 23.5 -91.5t61.5 -75t84 -65t92 -70t84 -81t61.5 -107t23.5 -139.5v-139q0 -114 -70 -185t-194 -83v-195h-96v195q-125 12 -193.5 84.5t-68.5 189.5z" />
<glyph unicode="%" horiz-adv-x="1198" d="M70 745v543q0 76 49 121t137 45t138 -45t50 -121v-543q0 -76 -50 -121.5t-138 -45.5t-137 45.5t-49 121.5zM184 745q0 -30 19.5 -47.5t52.5 -17.5t53.5 17.5t20.5 47.5v543q0 29 -20.5 46.5t-53.5 17.5q-32 0 -52 -17.5t-20 -46.5v-543zM242 0h96l625 1434h-97zM754 158 v544q0 75 50 120.5t138 45.5t137 -45.5t49 -120.5v-544q0 -75 -49 -120.5t-137 -45.5t-138 45.5t-50 120.5zM868 158q0 -29 20 -46.5t54 -17.5q32 0 52 17.5t20 46.5v544q0 29 -20 46.5t-52 17.5q-34 0 -54 -17.5t-20 -46.5v-544z" />
<glyph unicode="&#x26;" horiz-adv-x="907" d="M70 264v197q0 94 31 156.5t102 117.5q-65 94 -94 171.5t-29 170.5v103q0 125 79 195.5t224 70.5t224 -74.5t79 -202.5v-247h-182v247q0 51 -32.5 81t-88.5 30q-55 0 -86 -27t-31 -73v-101q0 -122 90 -254l148 -202v157h356v-162h-172v-249l172 -238v-131h-133l-78 111 q-77 -123 -270 -123q-146 0 -227.5 74.5t-81.5 201.5zM254 264q0 -53 34 -81.5t91 -28.5q56 0 90.5 27.5t34.5 72.5v59l-203 283q-47 -59 -47 -135v-197z" />
<glyph unicode="'" horiz-adv-x="301" d="M68 1223v211h165v-211l-36 -275h-93z" />
<glyph unicode="(" horiz-adv-x="505" d="M49 717q0 -539 326 -1024h121q-267 492 -267 1024t267 1024h-121q-326 -485 -326 -1024z" />
<glyph unicode=")" horiz-adv-x="505" d="M10 -307q266 491 266 1024t-266 1024h121q326 -485 326 -1024t-326 -1024h-121z" />
<glyph unicode="*" horiz-adv-x="569" d="M57 1153l146 70l-146 65l56 96l131 -90l-15 158h111l-14 -158l131 90l57 -96l-147 -65l147 -70l-57 -94l-131 92l14 -160h-111l15 160l-131 -92z" />
<glyph unicode="+" horiz-adv-x="602" d="M59 649v144h170v170h144v-170h170v-144h-170v-170h-144v170h-170z" />
<glyph unicode="," horiz-adv-x="315" d="M20 -274h130l90 274v211h-164v-211z" />
<glyph unicode="-" horiz-adv-x="569" d="M74 440v144h420v-144h-420z" />
<glyph unicode="." horiz-adv-x="315" d="M76 0h164v211h-164v-211z" />
<glyph unicode="/" horiz-adv-x="817" d="M49 0h94l625 1434h-94z" />
<glyph unicode="0" horiz-adv-x="790" d="M84 264v905q0 127 82.5 202t228.5 75q145 0 228.5 -75t83.5 -202v-905q0 -127 -83.5 -201.5t-228.5 -74.5q-146 0 -228.5 74.5t-82.5 201.5zM272 264q0 -51 33.5 -80.5t89.5 -29.5t89.5 29.5t33.5 80.5v905q0 51 -33.5 81t-89.5 30t-89.5 -30t-33.5 -81v-905z" />
<glyph unicode="1" horiz-adv-x="587" d="M51 0v160h160v1114h-160v160h348v-1274h160v-160h-508z" />
<glyph unicode="2" horiz-adv-x="755" d="M70 0v295q0 76 24 144.5t62 120t84.5 99t93 90t84.5 83t62 88t24 96.5v153q0 51 -33.5 81t-89.5 30t-88.5 -30t-32.5 -81v-241h-184v241q0 128 80.5 202.5t224.5 74.5q146 0 228.5 -75t82.5 -202v-155q0 -77 -24 -146t-62 -120t-84.5 -97t-93 -87.5t-84.5 -81.5 t-62 -87.5t-24 -97.5v-137h434v-160h-622z" />
<glyph unicode="3" horiz-adv-x="763" d="M68 264v242h188v-242q0 -51 33.5 -80.5t89.5 -29.5t89.5 29t33.5 79v297q0 47 -34 77t-89 30h-70v165h70q54 0 83.5 30t29.5 79v234q0 50 -29 78t-84 28q-56 0 -89.5 -30t-33.5 -81v-241h-184v241q0 128 80.5 202.5t226.5 74.5q144 0 219.5 -70.5t75.5 -195.5v-234 q0 -131 -101 -194q117 -63 117 -197v-299q0 -126 -82.5 -197t-228.5 -71t-228.5 74.5t-82.5 201.5z" />
<glyph unicode="4" horiz-adv-x="798" d="M27 371v159l415 904h189v-904h139v-159h-139v-371h-189v371h-415zM209 530h233v533z" />
<glyph unicode="5" horiz-adv-x="751" d="M76 264v242h184v-242q0 -51 33.5 -80.5t89.5 -29.5t89.5 29.5t33.5 80.5v375q0 49 -33.5 77.5t-89.5 28.5h-295v689h574v-160h-390v-361h111q145 0 228 -74t83 -200v-375q0 -127 -83 -201.5t-228 -74.5q-146 0 -226.5 74t-80.5 202z" />
<glyph unicode="6" horiz-adv-x="778" d="M84 264v905q0 127 82.5 202t228.5 75q144 0 224.5 -74.5t80.5 -202.5v-241h-184v241q0 51 -32.5 81t-88.5 30t-89.5 -30t-33.5 -81v-338h123q146 0 229 -73.5t83 -200.5v-293q0 -127 -83.5 -201.5t-228.5 -74.5q-146 0 -228.5 74.5t-82.5 201.5zM272 264 q0 -51 33.5 -80.5t89.5 -29.5t89.5 29.5t33.5 80.5v293q0 51 -33.5 80t-89.5 29h-123v-402z" />
<glyph unicode="7" horiz-adv-x="663" d="M27 1274v160h604v-160q-271 -495 -271 -1274h-192q0 355 74 701t200 573h-415z" />
<glyph unicode="8" horiz-adv-x="768" d="M74 256v264q0 138 119 199q-103 67 -103 192v269q0 126 75 196t220 70q144 0 219.5 -70.5t75.5 -195.5v-269q0 -130 -100 -192q116 -63 116 -199v-264q0 -126 -82.5 -197t-228.5 -71q-147 0 -229 71t-82 197zM262 262q0 -50 33.5 -79t89.5 -29t89.5 29t33.5 79v262 q0 49 -33.5 79t-89.5 30t-89.5 -30t-33.5 -79v-262zM272 905q0 -48 29.5 -77t83.5 -29t83.5 29t29.5 77v269q0 50 -29 78t-84 28t-84 -28t-29 -78v-269z" />
<glyph unicode="9" horiz-adv-x="778" d="M72 877v292q0 127 82.5 202t228.5 75t228.5 -75t82.5 -202v-905q0 -127 -82.5 -201.5t-228.5 -74.5t-225.5 74t-79.5 202v242h184v-242q0 -51 32.5 -80.5t88.5 -29.5t89.5 29.5t33.5 80.5v338h-123q-146 0 -228.5 74t-82.5 201zM260 877q0 -51 33.5 -80t89.5 -29h123v401 q0 51 -33.5 81t-89.5 30t-89.5 -30t-33.5 -81v-292z" />
<glyph unicode=":" horiz-adv-x="339" d="M88 143h164v211h-164v-211zM88 608h164v211h-164v-211z" />
<glyph unicode=";" horiz-adv-x="376" d="M57 -274h129l90 274v211h-163v-211zM113 608h163v211h-163v-211z" />
<glyph unicode="&#x3c;" horiz-adv-x="600" d="M59 643v152l455 159v-155l-260 -78v-4l260 -74v-158z" />
<glyph unicode="=" horiz-adv-x="591" d="M86 510v145h420v-145h-420zM86 788v144h420v-144h-420z" />
<glyph unicode="&#x3e;" horiz-adv-x="600" d="M86 485l457 158v152l-457 159v-155l260 -78v-4l-260 -74v-158z" />
<glyph unicode="?" horiz-adv-x="741" d="M57 928v241q0 128 81 202.5t227 74.5q145 0 228 -75t83 -202v-342q0 -104 -59 -174t-166 -92l-21 -194h-145v352h80q56 0 89 29.5t33 78.5v342q0 51 -33 81t-89 30t-89.5 -30t-33.5 -81v-241h-185zM270 0v211h189v-211h-189z" />
<glyph unicode="@" horiz-adv-x="917" d="M86 109v806q0 65 22 122t66 103.5t118.5 73.5t172.5 27t172.5 -27t118.5 -73.5t66 -103.5t22 -122v-737h-287l-33 41q-35 -49 -98 -49q-121 0 -121 149v332q0 150 121 150q70 0 109 -58l12 50h90v-517h94v639q0 104 -68 164t-198 60q-129 0 -197.5 -60t-68.5 -164v-806 q0 -104 68.5 -164t197.5 -60v-102q-98 0 -172.5 27t-118.5 73.5t-66 103.5t-22 122zM418 330q0 -60 49 -60q57 0 57 101v229q0 100 -57 100q-49 0 -49 -59v-311z" />
<glyph unicode="A" d="M12 0l267 1444h188l264 -1444h-192l-58 371h-225l-57 -371h-187zM281 530h176l-88 562z" />
<glyph unicode="B" horiz-adv-x="780" d="M92 0v1434h316q140 0 214 -65t74 -191v-267q0 -132 -116 -182q67 -27 103 -77t36 -120v-270q0 -127 -75 -194.5t-222 -67.5h-330zM281 160h141q108 0 108 106v271q0 49 -28.5 76.5t-79.5 27.5h-141v-481zM281 801h122q48 0 76.5 26t28.5 74v270q0 50 -28.5 76.5 t-76.5 26.5h-122v-473z" />
<glyph unicode="C" horiz-adv-x="759" d="M76 264q0 -127 83 -201.5t228 -74.5q146 0 228.5 74.5t82.5 201.5v248h-184v-248q0 -53 -35 -81.5t-92 -28.5t-90 28.5t-33 81.5v905q0 51 33.5 81t89.5 30t91.5 -30.5t35.5 -80.5v-247h184v247q0 127 -82.5 202t-228.5 75q-145 0 -228 -75t-83 -202v-905z" />
<glyph unicode="D" horiz-adv-x="790" d="M92 0v1434h322q144 0 222.5 -72.5t78.5 -198.5v-893q0 -126 -78.5 -198t-222.5 -72h-322zM281 160h133q54 0 83 28.5t29 81.5v893q0 50 -29.5 80.5t-82.5 30.5h-133v-1114z" />
<glyph unicode="E" horiz-adv-x="663" d="M92 0v1434h531v-160h-342v-473h284v-160h-284v-481h342v-160h-531z" />
<glyph unicode="F" horiz-adv-x="653" d="M92 0v1434h531v-160h-342v-518h284v-160h-284v-596h-189z" />
<glyph unicode="G" horiz-adv-x="768" d="M76 264v905q0 127 83 202t228 75q146 0 228.5 -75t82.5 -202v-247h-184v247q0 50 -35.5 80.5t-91.5 30.5t-89.5 -30t-33.5 -81v-905q0 -53 33 -81.5t90 -28.5t92 28.5t35 81.5v273h-123v161h307v-434q0 -127 -82.5 -201.5t-228.5 -74.5q-145 0 -228 74.5t-83 201.5z" />
<glyph unicode="H" horiz-adv-x="811" d="M92 0v1434h189v-633h249v633h189v-1434h-189v641h-249v-641h-189z" />
<glyph unicode="I" horiz-adv-x="372" d="M92 0v1434h189v-1434h-189z" />
<glyph unicode="J" horiz-adv-x="444" d="M25 0q81 0 136 9t102 34t70 74.5t23 124.5v1192h-188v-1168q0 -64 -31.5 -85t-111.5 -21v-160z" />
<glyph unicode="K" horiz-adv-x="765" d="M92 0v1434h189v-639l286 639h207l-321 -697l327 -737h-211l-288 657v-657h-189z" />
<glyph unicode="L" horiz-adv-x="643" d="M92 0v1434h189v-1274h337v-160h-526z" />
<glyph unicode="M" horiz-adv-x="980" d="M92 0v1434h199l207 -637l209 637h165h17v-1434h-189v545q0 188 9 393l-138 -414h-172l-145 455q10 -195 10 -434v-545h-172z" />
<glyph unicode="N" horiz-adv-x="821" d="M92 0v1434h205l268 -930q-8 180 -8 385v545h172v-1434h-201l-272 934q8 -183 8 -389v-545h-172z" />
<glyph unicode="O" horiz-adv-x="776" d="M76 264q0 -127 83 -201.5t228 -74.5q146 0 228.5 74.5t82.5 201.5v905q0 127 -82.5 202t-228.5 75q-145 0 -228 -75t-83 -202v-905zM264 264v905q0 51 33.5 81t89.5 30t89.5 -30t33.5 -81v-905q0 -51 -33.5 -80.5t-89.5 -29.5t-89.5 29.5t-33.5 80.5z" />
<glyph unicode="P" horiz-adv-x="747" d="M92 0v1434h316q145 0 223 -72t78 -199v-332q0 -128 -77.5 -199t-223.5 -71h-127v-561h-189zM281 721h127q54 0 83 28t29 82v332q0 50 -29.5 80.5t-82.5 30.5h-127v-553z" />
<glyph unicode="Q" horiz-adv-x="776" d="M76 264v905q0 127 83 202t228 75q146 0 228.5 -75t82.5 -202v-905q0 -105 -56.5 -174.5t-160.5 -91.5v-57q0 -60 31.5 -79.5t112.5 -19.5v-159q-82 0 -138 9.5t-102.5 34t-69 71.5t-22.5 118v82q-103 22 -160 92t-57 174zM264 264q0 -51 33.5 -80.5t89.5 -29.5t89.5 29.5 t33.5 80.5v905q0 51 -33.5 81t-89.5 30t-89.5 -30t-33.5 -81v-905z" />
<glyph unicode="R" horiz-adv-x="784" d="M92 0v1434h330q144 0 215.5 -69.5t71.5 -193.5v-231q0 -187 -138 -238q101 -50 115 -194l45 -508h-188l-37 502q-7 69 -39.5 98t-89.5 29h-96v-629h-189zM281 788h133q54 0 80 28t26 77v274q0 48 -26 77.5t-80 29.5h-133v-486z" />
<glyph unicode="S" d="M61 264q0 -127 82 -201.5t228 -74.5t228.5 72.5t82.5 197.5v139q0 76 -23.5 139.5t-61.5 107t-83.5 81t-91 70t-83.5 65t-61.5 75t-23.5 91.5v154q0 46 32 73t87 27q56 0 88.5 -30t32.5 -81v-247h184v247q0 128 -80.5 202.5t-224.5 74.5q-147 0 -227 -70.5t-80 -195.5 v-156q0 -77 23.5 -141t61.5 -107.5t84 -81t92 -70t84 -65t61.5 -75.5t23.5 -93v-137q0 -46 -33.5 -73t-89.5 -27q-57 0 -92 28.5t-35 81.5v248h-185v-248z" />
<glyph unicode="T" horiz-adv-x="636" d="M33 1274v160h571v-160h-190v-1274h-189v1274h-192z" />
<glyph unicode="U" horiz-adv-x="800" d="M88 264v1170h188v-1170q0 -53 33 -81.5t90 -28.5t90 28.5t33 81.5v1170h189v-1170q0 -127 -83 -201.5t-229 -74.5q-145 0 -228 74.5t-83 201.5z" />
<glyph unicode="V" d="M14 1434h191l170 -1067l172 1067h186l-268 -1444h-189z" />
<glyph unicode="W" horiz-adv-x="1138" d="M14 1434h193l133 -1002l139 1002h191l137 -1002l133 1002h182l-229 -1444h-188l-136 999l-137 -999h-188z" />
<glyph unicode="X" horiz-adv-x="712" d="M-4 0l264 727l-254 707h195l155 -500l154 500h195l-252 -707l262 -727h-195l-164 532l-166 -532h-194z" />
<glyph unicode="Y" horiz-adv-x="733" d="M8 1434h193l168 -664l172 664h186l-268 -910v-524h-189v524z" />
<glyph unicode="Z" horiz-adv-x="653" d="M35 0v160l383 1114h-363v160h557v-160l-383 -1114h385v-160h-579z" />
<glyph unicode="[" horiz-adv-x="524" d="M100 -307v2048h392v-133h-238v-1782h238v-133h-392z" />
<glyph unicode="\" horiz-adv-x="817" d="M47 1434h96l625 -1434h-96z" />
<glyph unicode="]" horiz-adv-x="524" d="M33 -174h239v1782h-239v133h391v-2048h-391v133z" />
<glyph unicode="^" horiz-adv-x="671" d="M109 594l151 287h150l153 -287h-155l-72 149l-72 -149h-155z" />
<glyph unicode="_" horiz-adv-x="593" d="M86 -41h420v-143h-420v143z" />
<glyph unicode="`" horiz-adv-x="532" d="M109 1413h184l131 -287h-152z" />
<glyph unicode="a" horiz-adv-x="665" d="M41 223v115q0 38 2.5 66.5t11.5 60t25 54t43.5 44t65.5 34.5t93.5 21.5t125.5 8.5v139q0 102 -99 102q-83 0 -184 -67l-66 145q129 90 271 90q262 0 262 -260v-776h-148l-20 96q-57 -108 -184 -108q-57 0 -98 20t-62 55t-30 74t-9 86zM225 244q0 -42 20.5 -66t61.5 -24 q52 0 76.5 42t24.5 132v159q-76 -1 -117 -15.5t-53.5 -37.5t-12.5 -63v-127z" />
<glyph unicode="b" horiz-adv-x="690" d="M76 0h147l21 88q66 -100 182 -100q201 0 201 248v552q0 248 -201 248q-103 0 -166 -84v523h-184v-1475zM260 319v386q0 165 98 165q42 0 63 -27.5t21 -72.5v-516q0 -45 -21 -72.5t-63 -27.5q-98 0 -98 165z" />
<glyph unicode="c" horiz-adv-x="591" d="M59 268q0 -138 74 -209t213 -71q108 0 221 37l-20 159q-88 -30 -162 -30q-77 0 -109 35t-32 106v434q0 71 32 106t109 35q74 0 162 -30l20 159q-113 37 -221 37q-139 0 -213 -71t-74 -209v-488z" />
<glyph unicode="d" horiz-adv-x="690" d="M63 236v552q0 248 201 248q46 0 90.5 -21.5t75.5 -62.5v523h184v-1475h-149l-21 88q-33 -52 -81.5 -76t-98.5 -24q-201 0 -201 248zM248 254q0 -45 20.5 -72.5t61.5 -27.5q100 0 100 165v386q0 165 -100 165q-41 0 -61.5 -27.5t-20.5 -72.5v-516z" />
<glyph unicode="e" horiz-adv-x="659" d="M59 264v510q0 127 70 194.5t207 67.5q266 0 266 -260v-317h-358v-176q0 -68 33 -98.5t112 -30.5q45 0 105 8.5t98 21.5l20 -159q-113 -37 -260 -37q-140 0 -216.5 69t-76.5 207zM244 604h182v176q0 99 -90 99q-92 0 -92 -101v-174z" />
<glyph unicode="f" horiz-adv-x="436" d="M25 877h75v-877h185v877h137v147h-137v223q0 80 80 80q39 0 63 -8l12 156q-59 12 -131 12q-102 0 -155.5 -48.5t-53.5 -164.5v-250h-75v-147z" />
<glyph unicode="g" horiz-adv-x="688" d="M63 260q0 -248 201 -248q47 0 91 22t73 64v-225q0 -69 -32.5 -103t-104.5 -34q-104 0 -195 31l-20 -160q130 -37 235 -37q301 0 301 297v1157h-147l-21 -88q-34 52 -82.5 76t-97.5 24q-201 0 -201 -248v-528zM248 279v491q0 45 20.5 72.5t61.5 27.5q98 0 98 -165v-359 q0 -168 -98 -168q-41 0 -61.5 28t-20.5 73z" />
<glyph unicode="h" horiz-adv-x="700" d="M76 0h184v705q0 165 98 165q42 0 63 -27.5t21 -72.5v-770h185v788q0 248 -201 248q-103 0 -166 -84v523h-184v-1475z" />
<glyph unicode="i" horiz-adv-x="335" d="M76 0h184v1024h-184v-1024zM76 1155h184v258h-184v-258z" />
<glyph unicode="j" horiz-adv-x="335" d="M-80 -418q76 -12 133 -12q101 0 154 48.5t53 164.5v1241h-184v-1214q0 -80 -78 -80q-26 0 -66 8zM76 1155h184v258h-184v-258z" />
<glyph unicode="k" horiz-adv-x="722" d="M76 0v1475h184v-904l264 453h207l-299 -492l305 -532h-211l-266 471v-471h-184z" />
<glyph unicode="l" horiz-adv-x="354" d="M86 0h184v1475h-184v-1475z" />
<glyph unicode="m" horiz-adv-x="1064" d="M76 0v1024h147l21 -88q66 100 182 100q131 0 178 -110q64 110 189 110q200 0 200 -248v-788h-184v770q0 45 -21.5 72.5t-62.5 27.5q-98 0 -98 -165v-705h-185v770q0 45 -21 72.5t-63 27.5q-98 0 -98 -165v-705h-184z" />
<glyph unicode="n" horiz-adv-x="700" d="M76 0h184v705q0 165 98 165q42 0 63 -27.5t21 -72.5v-770h185v788q0 248 -201 248q-116 0 -182 -100l-21 88h-147v-1024z" />
<glyph unicode="o" horiz-adv-x="671" d="M59 250v524q0 127 70 194.5t207 67.5q136 0 205 -67.5t69 -194.5v-524q0 -127 -69 -194.5t-205 -67.5q-137 0 -207 67.5t-70 194.5zM244 246q0 -101 92 -101q90 0 90 101v532q0 101 -90 101q-92 0 -92 -101v-532z" />
<glyph unicode="p" horiz-adv-x="690" d="M76 -410v1434h147l21 -88q66 100 182 100q201 0 201 -248v-552q0 -248 -201 -248q-103 0 -166 84v-482h-184zM260 319q0 -165 98 -165q42 0 63 27.5t21 72.5v516q0 45 -21 72.5t-63 27.5q-98 0 -98 -165v-386z" />
<glyph unicode="q" horiz-adv-x="690" d="M63 236q0 -248 201 -248q46 0 90.5 21.5t75.5 62.5v-482h184v1434h-149l-21 -88q-33 52 -81.5 76t-98.5 24q-201 0 -201 -248v-552zM248 254v516q0 45 20.5 72.5t61.5 27.5q100 0 100 -165v-386q0 -165 -100 -165q-41 0 -61.5 27.5t-20.5 72.5z" />
<glyph unicode="r" horiz-adv-x="464" d="M76 0h184v668q0 87 41 125t137 38v205q-57 0 -113.5 -33t-80.5 -108l-21 129h-147v-1024z" />
<glyph unicode="s" horiz-adv-x="620" d="M35 33q110 -45 252 -45q141 0 221 68.5t80 191.5v41q0 64 -19.5 114t-50 82t-68 58t-75 47t-68 42.5t-50 51.5t-19.5 68v34q0 41 25 67t77 26q85 0 188 -39l27 159q-113 37 -223 37q-138 0 -212.5 -67.5t-74.5 -180.5v-40q0 -63 19.5 -113t50 -82.5t68 -59t75 -48 t68 -43.5t50 -51.5t19.5 -65.5v-37q0 -103 -112 -103q-98 0 -211 50z" />
<glyph unicode="t" horiz-adv-x="450" d="M23 877v147h77v205h185v-205h141v-147h-141v-650q0 -40 18 -60t59 -20q36 0 66 9l10 -156q-59 -12 -131 -12q-101 0 -154 48.5t-53 164.5v676h-77z" />
<glyph unicode="u" horiz-adv-x="700" d="M74 236q0 -248 200 -248q50 0 99.5 24t83.5 76l18 -88h150v1024h-185v-705q0 -165 -100 -165q-41 0 -61.5 27.5t-20.5 72.5v770h-184v-788z" />
<glyph unicode="v" horiz-adv-x="647" d="M8 1024h185l133 -760l137 760h176l-225 -1034h-183z" />
<glyph unicode="w" horiz-adv-x="995" d="M12 1024h183l106 -752l107 752h178l108 -752l107 752h182l-190 -1034h-191l-104 725l-105 -725h-190z" />
<glyph unicode="x" horiz-adv-x="630" d="M0 0l223 512l-223 512h184l135 -324l136 324h178l-227 -512l227 -512h-178l-136 324l-135 -324h-184z" />
<glyph unicode="y" horiz-adv-x="647" d="M-2 -418l12 156q40 -12 92 -12q53 0 78.5 22.5t42.5 85.5l35 156h-27l-225 1034h187l137 -762l133 762h176l-250 -1153q-21 -96 -46 -155t-60 -91.5t-74.5 -43.5t-99.5 -11q-37 0 -111 12z" />
<glyph unicode="z" horiz-adv-x="573" d="M33 0v147l309 730h-293v147h479v-147l-309 -730h320v-147h-506z" />
<glyph unicode="{" horiz-adv-x="485" d="M23 649q26 -4 47 -10t36 -17t25.5 -21t17 -28.5t10 -31.5t5 -38.5t2 -41t0.5 -47.5q0 -60 -10.5 -215.5t-10.5 -218.5q0 -78 12.5 -130.5t34 -83.5t62 -47.5t82.5 -21t110 -4.5v133q-27 0 -44 2t-39 12t-34 28t-21 52.5t-9 83.5q0 62 10 233.5t10 235.5q0 111 -33.5 163 t-117.5 79v4q84 27 117.5 79t33.5 163q0 64 -10 235.5t-10 233.5q0 49 9 83.5t21 52.5t34 28t39 12t44 2v133q-68 0 -110 -4.5t-82.5 -21t-62 -47.5t-34 -83.5t-12.5 -130.5q0 -63 10.5 -218.5t10.5 -215.5q0 -36 -0.5 -53.5t-3 -46t-8 -42.5t-15.5 -33t-25 -29t-38 -19 t-53 -13v-135z" />
<glyph unicode="|" horiz-adv-x="296" d="M100 -307v2048h97v-2048h-97z" />
<glyph unicode="}" horiz-adv-x="485" d="M39 -174q35 0 56.5 4.5t45.5 20.5t35.5 54t11.5 99q0 62 -10 233.5t-10 235.5q0 112 33 164t118 78v4q-85 26 -118 78t-33 164q0 64 10 235.5t10 233.5q0 61 -11.5 99t-35.5 54t-45.5 20.5t-56.5 4.5v133q69 0 111 -4.5t82.5 -21t61.5 -47.5t33.5 -83.5t12.5 -130.5 q0 -63 -10.5 -218.5t-10.5 -215.5q0 -36 0.5 -54t3 -46t8 -42.5t16 -33t25.5 -28.5t38 -19t53 -13v-135q-35 -5 -60 -14.5t-41 -27t-25 -33.5t-12.5 -46.5t-4.5 -51t-1 -62.5q0 -60 10.5 -215.5t10.5 -218.5q0 -78 -12.5 -130.5t-33.5 -83.5t-61.5 -47.5t-82.5 -21 t-111 -4.5v133z" />
<glyph unicode="~" horiz-adv-x="616" d="M63 625q0 202 136 202q42 0 107.5 -31.5t90.5 -31.5q30 0 42 15.5t12 47.5h102q0 -202 -135 -202q-42 0 -108 31.5t-89 31.5q-30 0 -41.5 -15.5t-11.5 -47.5h-105z" />
<glyph unicode="&#xa1;" horiz-adv-x="356" d="M84 -131v-279h188v279l-34 780h-117zM86 813v211h188v-211h-188z" />
<glyph unicode="&#xa2;" horiz-adv-x="643" d="M74 268v488q0 123 60 193.5t171 82.5v197h96v-195q89 -4 183 -35l-23 -159q-85 30 -160 30q-77 0 -110 -35.5t-33 -105.5v-434q0 -70 33 -105.5t110 -35.5q75 0 160 30l23 -159q-94 -31 -183 -35v-195h-96v197q-111 12 -171 82.5t-60 193.5z" />
<glyph unicode="&#xa3;" horiz-adv-x="835" d="M68 0v160h82v375h-82v159h82v486q0 125 80 195.5t227 70.5q144 0 224.5 -74.5t80.5 -202.5v-247h-184v247q0 51 -32.5 81t-88.5 30q-55 0 -87 -27t-32 -73v-486h174v-159h-174v-375h428v-160h-698z" />
<glyph unicode="&#xa4;" horiz-adv-x="569" d="M78 391v242q0 115 69 174l-51 125h21l49 -113q50 33 119 33q72 0 121 -35l49 115h20l-55 -125q72 -59 72 -174v-242q0 -115 -72 -174l55 -125h-20l-52 113q-50 -33 -118 -33q-69 0 -119 33l-49 -113h-21l54 125q-72 59 -72 174zM98 391q0 -88 49 -143t138 -55t137.5 55 t48.5 143v242q0 88 -48.5 143t-137.5 55t-138 -55t-49 -143v-242z" />
<glyph unicode="&#xa5;" horiz-adv-x="817" d="M49 1434h193l168 -660l172 660h186l-250 -856h139v-144h-155v-434h-189v434h-155v144h139z" />
<glyph unicode="&#xa6;" horiz-adv-x="299" d="M100 -307v921h97v-921h-97zM100 819v922h97v-922h-97z" />
<glyph unicode="&#xa7;" horiz-adv-x="788" d="M88 258v188h184v-188q0 -50 33 -80.5t88 -30.5q56 0 87.5 28t31.5 73v295h-424v137h612v-432q0 -124 -80.5 -195t-226.5 -71q-144 0 -224.5 75t-80.5 201zM88 758v422q0 125 80 195.5t225 70.5q146 0 226.5 -74.5t80.5 -202.5v-188h-184v188q0 51 -33.5 81t-89.5 30 q-55 0 -86 -27t-31 -73v-285h424v-137h-612z" />
<glyph unicode="&#xa8;" horiz-adv-x="698" d="M109 1155h184v258h-184v-258zM406 1155h184v258h-184v-258z" />
<glyph unicode="&#xa9;" horiz-adv-x="1550" d="M59 717q0 204 93 372.5t258 266.5t366 98t366 -98t258 -266.5t93 -372.5q0 -154 -55 -291t-149.5 -234.5t-228 -154.5t-284.5 -57t-284.5 57t-228 154.5t-149.5 234.5t-55 291zM119 717q0 -152 52 -280.5t141 -215t209 -134.5t255 -48t254.5 48t208.5 134.5t141 215 t52 280.5q0 201 -89 356.5t-238 237.5t-329 82q-181 0 -330 -82t-238 -237.5t-89 -356.5zM588 440q0 -76 50 -121t138 -45q87 0 137 45t50 121v150h-113v-150q0 -30 -20.5 -46.5t-53.5 -16.5q-34 0 -54 16.5t-20 46.5v543q0 29 20 47.5t54 18.5q32 0 53 -18.5t21 -47.5v-147 h113v147q0 76 -50 121t-137 45q-88 0 -138 -45t-50 -121v-543z" />
<glyph unicode="&#xaa;" horiz-adv-x="497" d="M78 653v97h332v-97h-332zM78 967v67q0 33 3.5 55t16 46.5t35.5 38.5t64 23.5t100 10.5v82q0 62 -57 62q-47 0 -111 -41l-41 88q73 55 164 55q158 0 158 -158v-465h-91l-12 58q-35 -66 -110 -66q-119 0 -119 144zM190 979q0 -53 48 -53q59 0 59 102v94q-65 0 -86 -16 t-21 -51v-76z" />
<glyph unicode="&#xab;" horiz-adv-x="964" d="M49 434v152l416 364v-162l-236 -276v-4l236 -272v-162zM473 434v152l416 364v-162l-236 -276v-4l236 -272v-162z" />
<glyph unicode="&#xac;" horiz-adv-x="675" d="M74 649v144h516v-295h-189v151h-327z" />
<glyph unicode="&#xad;" horiz-adv-x="569" d="M74 440v144h420v-144h-420z" />
<glyph unicode="&#xae;" horiz-adv-x="1550" d="M59 717q0 204 93 372.5t258 266.5t366 98t366 -98t258 -266.5t93 -372.5q0 -154 -55 -291t-149.5 -234.5t-228 -154.5t-284.5 -57t-284.5 57t-228 154.5t-149.5 234.5t-55 291zM119 717q0 -152 52 -280.5t141 -215t209 -134.5t255 -48t254.5 48t208.5 134.5t141 215 t52 280.5q0 201 -89 356.5t-238 237.5t-329 82q-181 0 -330 -82t-238 -237.5t-89 -356.5zM602 285v860h199q87 0 129.5 -41.5t42.5 -116.5v-137q0 -114 -84 -143q61 -28 69 -117l29 -305h-115l-22 301q-8 76 -78 76h-55v-377h-115zM717 758h78q63 0 63 61v166q0 62 -63 62 h-78v-289z" />
<glyph unicode="&#xaf;" horiz-adv-x="681" d="M109 1153v133h464v-133h-464z" />
<glyph unicode="&#xb0;" horiz-adv-x="483" d="M49 1260q0 82 55.5 138t137.5 56q80 0 136 -56.5t56 -137.5q0 -79 -57 -136t-135 -57q-81 0 -137 56.5t-56 136.5zM150 1260q0 -40 25.5 -67.5t66.5 -27.5q39 0 65.5 27.5t26.5 67.5q0 41 -26 67.5t-66 26.5q-41 0 -66.5 -26.5t-25.5 -67.5z" />
<glyph unicode="&#xb1;" horiz-adv-x="608" d="M78 424v143h452v-143h-452zM78 788v144h153v153h146v-153h153v-144h-153v-153h-146v153h-153z" />
<glyph unicode="&#xb2;" horiz-adv-x="460" d="M45 834v178q0 62 27 116t65 92t76 72t65 72.5t27 77.5v94q0 29 -19.5 46t-52.5 17q-34 0 -52.5 -17t-18.5 -46v-145h-113v145q0 75 48.5 120.5t135.5 45.5t137 -45.5t50 -120.5v-94q0 -63 -27 -117t-65 -91t-76 -70.5t-65 -72t-27 -79.5v-80h260v-98h-375z" />
<glyph unicode="&#xb3;" horiz-adv-x="466" d="M43 991v146h115v-146q0 -29 19.5 -46t53.5 -17q33 0 52.5 17t19.5 46v178q0 28 -20 46t-52 18h-41v100h41q32 0 50 17t18 47v141q0 29 -18 45t-50 16q-34 0 -52.5 -17t-18.5 -46v-145h-113v145q0 75 48.5 120.5t135.5 45.5t133 -43t46 -117v-141q0 -76 -60 -117 q68 -38 68 -117v-180q0 -76 -49 -119t-138 -43q-88 0 -138 45.5t-50 120.5z" />
<glyph unicode="&#xb4;" horiz-adv-x="532" d="M109 1126h151l164 287h-184z" />
<glyph unicode="&#xb6;" horiz-adv-x="923" d="M92 270v893q0 127 78 199t223 72h107v-1434h-107q-146 0 -223.5 72t-77.5 198zM584 0v1434h280v-134h-129v-1167h129v-133h-280z" />
<glyph unicode="&#xb7;" horiz-adv-x="317" d="M76 428h166v211h-166v-211z" />
<glyph unicode="&#xb8;" horiz-adv-x="557" d="M96 -401l23 98q59 -25 121 -25q75 0 75 70v16q0 35 -15.5 51.5t-59.5 16.5h-54v188h105v-82h10q166 0 166 -153v-37q0 -85 -55 -130.5t-146 -45.5q-40 0 -91.5 10.5t-78.5 22.5z" />
<glyph unicode="&#xb9;" horiz-adv-x="354" d="M33 834v98h96v663h-96v99h211v-762h94v-98h-305z" />
<glyph unicode="&#xba;" horiz-adv-x="503" d="M86 653v97h332v-97h-332zM86 983v313q0 76 42 117t124 41q166 0 166 -158v-313q0 -77 -41.5 -118.5t-124.5 -41.5q-82 0 -124 42t-42 118zM199 979q0 -57 53 -57t53 57v319q0 60 -53 60t-53 -60v-319z" />
<glyph unicode="&#xbb;" horiz-adv-x="964" d="M76 74l416 360v152l-416 364v-162l235 -276v-4l-235 -272v-162zM500 74l418 360v152l-418 364v-162l235 -276v-4l-235 -272v-162z" />
<glyph unicode="&#xbc;" horiz-adv-x="1048" d="M33 573v99h96v663h-96v99h211v-762h96v-99h-307zM129 0l625 1434h94l-625 -1434h-94zM584 221v98l250 541h114v-541h84v-98h-84v-221h-114v221h-250zM696 319h138v316z" />
<glyph unicode="&#xbd;" horiz-adv-x="1073" d="M33 573v99h96v663h-96v99h211v-762h96v-99h-307zM129 0l625 1434h94l-625 -1434h-94zM655 0v178q0 62 27 116t65 92t76 72t65 72.5t27 77.5v94q0 29 -19.5 46.5t-51.5 17.5t-52 -17.5t-20 -46.5v-145h-113v145q0 75 48.5 120.5t136.5 45.5t138 -45.5t50 -120.5v-94 q0 -63 -27 -117t-65.5 -91t-77 -70.5t-65.5 -72t-27 -79.5v-80h262v-98h-377z" />
<glyph unicode="&#xbe;" horiz-adv-x="1153" d="M43 731v146h115v-146q0 -29 19.5 -46t53.5 -17q33 0 52.5 17t19.5 46v178q0 28 -20 46t-52 18h-41v100h41q32 0 50 17t18 47v141q0 29 -18 45t-50 16q-34 0 -52.5 -17t-18.5 -46v-146h-113v146q0 75 48.5 120.5t135.5 45.5t133 -43t46 -117v-141q0 -76 -60 -117 q68 -38 68 -117v-180q0 -76 -49 -119t-138 -43q-88 0 -138 45.5t-50 120.5zM233 0l625 1434h94l-624 -1434h-95zM686 221v98l250 541h115v-541h84v-98h-84v-221h-115v221h-250zM799 319h137v316z" />
<glyph unicode="&#xbf;" horiz-adv-x="733" d="M66 -145v342q0 105 58 174.5t165 91.5l22 194h144v-352h-78q-56 0 -89.5 -29.5t-33.5 -78.5v-342q0 -51 33.5 -81t89.5 -30t88.5 30t32.5 81v241h184v-241q0 -128 -79.5 -202.5t-225.5 -74.5t-228.5 75t-82.5 202zM283 813v211h188v-211h-188z" />
<glyph unicode="&#xc0;" d="M12 0l267 1444h188l264 -1444h-192l-58 371h-225l-57 -371h-187zM131 1823h184l131 -287h-151zM281 530h176l-88 562z" />
<glyph unicode="&#xc1;" d="M12 0l267 1444h188l264 -1444h-192l-58 371h-225l-57 -371h-187zM281 530h176l-88 562zM293 1536h151l164 287h-184z" />
<glyph unicode="&#xc2;" d="M12 0l267 1444h188l264 -1444h-192l-58 371h-225l-57 -371h-187zM143 1536l152 287h149l154 -287h-156l-71 150l-72 -150h-156zM281 530h176l-88 562z" />
<glyph unicode="&#xc3;" d="M12 0l267 1444h188l264 -1444h-192l-58 371h-225l-57 -371h-187zM123 1540q0 100 35 151.5t100 51.5q43 0 109.5 -32t89.5 -32q29 0 41 16t12 48h104q0 -100 -35 -151.5t-100 -51.5q-42 0 -107.5 32t-90.5 32q-30 0 -42 -16t-12 -48h-104zM281 530h176l-88 562z" />
<glyph unicode="&#xc4;" d="M12 0l267 1444h188l264 -1444h-192l-58 371h-225l-57 -371h-187zM129 1565h184v258h-184v-258zM281 530h176l-88 562zM426 1565h184v258h-184v-258z" />
<glyph unicode="&#xc5;" d="M12 0l267 1444h188l264 -1444h-192l-58 371h-225l-57 -371h-187zM168 1692q0 170 201 170q202 0 202 -170q0 -168 -202 -168q-201 0 -201 168zM281 530h176l-88 562zM297 1692q0 -80 72 -80q73 0 73 80q0 82 -73 82q-72 0 -72 -82z" />
<glyph unicode="&#xc6;" horiz-adv-x="1056" d="M0 0l371 1434h643v-160h-342v-473h284v-160h-284v-481h342v-160h-531v371h-202l-95 -371h-186zM322 530h161v635z" />
<glyph unicode="&#xc7;" horiz-adv-x="759" d="M76 264v905q0 127 83 202t228 75q146 0 228.5 -75t82.5 -202v-247h-184v247q0 50 -35.5 80.5t-91.5 30.5t-89.5 -30t-33.5 -81v-905q0 -53 33 -81.5t90 -28.5t92 28.5t35 81.5v248h184v-248q0 -114 -67.5 -186.5t-188.5 -87.5v-72h11q165 0 165 -154v-36 q0 -85 -54.5 -131t-145.5 -46q-40 0 -91.5 10.5t-78.5 22.5l22 99q59 -25 121 -25q76 0 76 70v16q0 35 -15.5 51.5t-60.5 16.5h-53v178q-124 12 -193 85t-69 189z" />
<glyph unicode="&#xc8;" horiz-adv-x="663" d="M92 0v1434h531v-160h-342v-473h284v-160h-284v-481h342v-160h-531zM115 1823h184l131 -287h-151z" />
<glyph unicode="&#xc9;" horiz-adv-x="663" d="M92 0v1434h531v-160h-342v-473h284v-160h-284v-481h342v-160h-531zM276 1536h152l164 287h-184z" />
<glyph unicode="&#xca;" horiz-adv-x="663" d="M92 0v1434h531v-160h-342v-473h284v-160h-284v-481h342v-160h-531zM125 1536l151 287h150l154 -287h-156l-72 150l-71 -150h-156z" />
<glyph unicode="&#xcb;" horiz-adv-x="663" d="M92 0v1434h531v-160h-342v-473h284v-160h-284v-481h342v-160h-531zM113 1565h184v258h-184v-258zM410 1565h184v258h-184v-258z" />
<glyph unicode="&#xcc;" horiz-adv-x="372" d="M-53 1823h184l131 -287h-151zM92 0v1434h189v-1434h-189z" />
<glyph unicode="&#xcd;" horiz-adv-x="372" d="M92 0v1434h189v-1434h-189zM111 1536h151l164 287h-184z" />
<glyph unicode="&#xce;" horiz-adv-x="372" d="M-41 1536l152 287h149l154 -287h-156l-72 150l-71 -150h-156zM92 0v1434h189v-1434h-189z" />
<glyph unicode="&#xcf;" horiz-adv-x="372" d="M-53 1565h184v258h-184v-258zM92 0v1434h189v-1434h-189zM244 1565h184v258h-184v-258z" />
<glyph unicode="&#xd0;" horiz-adv-x="798" d="M6 641v160h94v633h320q145 0 223 -72t78 -199v-893q0 -126 -77.5 -198t-223.5 -72h-320v641h-94zM289 160h131q54 0 83 28.5t29 81.5v893q0 50 -29.5 80.5t-82.5 30.5h-131v-473h108v-160h-108v-481z" />
<glyph unicode="&#xd1;" horiz-adv-x="821" d="M92 0v1434h205l268 -930q-8 180 -8 385v545h172v-1434h-201l-272 934q8 -183 8 -389v-545h-172zM164 1540q0 100 35 151.5t100 51.5q43 0 109.5 -32t89.5 -32q29 0 41 16t12 48h104q0 -100 -35 -151.5t-100 -51.5q-42 0 -107.5 32t-90.5 32q-30 0 -42 -16t-12 -48h-104z " />
<glyph unicode="&#xd2;" horiz-adv-x="776" d="M76 264q0 -127 83 -201.5t228 -74.5q146 0 228.5 74.5t82.5 201.5v905q0 127 -82.5 202t-228.5 75q-145 0 -228 -75t-83 -202v-905zM150 1823h184l131 -287h-152zM264 264v905q0 51 33.5 81t89.5 30t89.5 -30t33.5 -81v-905q0 -51 -33.5 -80.5t-89.5 -29.5t-89.5 29.5 t-33.5 80.5z" />
<glyph unicode="&#xd3;" horiz-adv-x="776" d="M76 264q0 -127 83 -201.5t228 -74.5q146 0 228.5 74.5t82.5 201.5v905q0 127 -82.5 202t-228.5 75q-145 0 -228 -75t-83 -202v-905zM264 264v905q0 51 33.5 81t89.5 30t89.5 -30t33.5 -81v-905q0 -51 -33.5 -80.5t-89.5 -29.5t-89.5 29.5t-33.5 80.5zM311 1536h152 l164 287h-185z" />
<glyph unicode="&#xd4;" horiz-adv-x="776" d="M76 264q0 -127 83 -201.5t228 -74.5q146 0 228.5 74.5t82.5 201.5v905q0 127 -82.5 202t-228.5 75q-145 0 -228 -75t-83 -202v-905zM160 1536l151 287h150l153 -287h-155l-72 150l-72 -150h-155zM264 264v905q0 51 33.5 81t89.5 30t89.5 -30t33.5 -81v-905 q0 -51 -33.5 -80.5t-89.5 -29.5t-89.5 29.5t-33.5 80.5z" />
<glyph unicode="&#xd5;" horiz-adv-x="776" d="M76 264q0 -127 83 -201.5t228 -74.5q146 0 228.5 74.5t82.5 201.5v905q0 127 -82.5 202t-228.5 75q-145 0 -228 -75t-83 -202v-905zM141 1540q0 100 35 151.5t100 51.5q43 0 109.5 -32t89.5 -32q29 0 41 16t12 48h105q0 -100 -35 -151.5t-100 -51.5q-42 0 -108 32t-91 32 q-29 0 -41 -16t-12 -48h-105zM264 264v905q0 51 33.5 81t89.5 30t89.5 -30t33.5 -81v-905q0 -51 -33.5 -80.5t-89.5 -29.5t-89.5 29.5t-33.5 80.5z" />
<glyph unicode="&#xd6;" horiz-adv-x="776" d="M76 264q0 -127 83 -201.5t228 -74.5q146 0 228.5 74.5t82.5 201.5v905q0 127 -82.5 202t-228.5 75q-145 0 -228 -75t-83 -202v-905zM147 1565h185v258h-185v-258zM264 264v905q0 51 33.5 81t89.5 30t89.5 -30t33.5 -81v-905q0 -51 -33.5 -80.5t-89.5 -29.5t-89.5 29.5 t-33.5 80.5zM444 1565h185v258h-185v-258z" />
<glyph unicode="&#xd7;" horiz-adv-x="612" d="M59 578l392 391l102 -103l-391 -393z" />
<glyph unicode="&#xd8;" horiz-adv-x="776" d="M76 264v905q0 127 83 202t228 75q120 0 199 -51l28 80h84l-49 -140q49 -67 49 -166v-905q0 -127 -82.5 -201.5t-228.5 -74.5q-117 0 -194 49l-29 -78h-84l49 137q-53 68 -53 168zM264 481l246 697q-3 47 -36 74.5t-87 27.5q-56 0 -89.5 -30t-33.5 -81v-688zM266 248 q4 -44 37 -69t84 -25q56 0 89.5 29.5t33.5 80.5v676z" />
<glyph unicode="&#xd9;" horiz-adv-x="800" d="M88 264v1170h188v-1170q0 -53 33 -81.5t90 -28.5t90 28.5t33 81.5v1170h189v-1170q0 -127 -83 -201.5t-229 -74.5q-145 0 -228 74.5t-83 201.5zM162 1823h184l131 -287h-151z" />
<glyph unicode="&#xda;" horiz-adv-x="800" d="M88 264v1170h188v-1170q0 -53 33 -81.5t90 -28.5t90 28.5t33 81.5v1170h189v-1170q0 -127 -83 -201.5t-229 -74.5q-145 0 -228 74.5t-83 201.5zM324 1536h151l164 287h-184z" />
<glyph unicode="&#xdb;" horiz-adv-x="800" d="M88 264v1170h188v-1170q0 -53 33 -81.5t90 -28.5t90 28.5t33 81.5v1170h189v-1170q0 -127 -83 -201.5t-229 -74.5q-145 0 -228 74.5t-83 201.5zM172 1536l152 287h149l154 -287h-156l-72 150l-71 -150h-156z" />
<glyph unicode="&#xdc;" horiz-adv-x="800" d="M88 264v1170h188v-1170q0 -53 33 -81.5t90 -28.5t90 28.5t33 81.5v1170h189v-1170q0 -127 -83 -201.5t-229 -74.5q-145 0 -228 74.5t-83 201.5zM160 1565h184v258h-184v-258zM457 1565h184v258h-184v-258z" />
<glyph unicode="&#xdd;" horiz-adv-x="733" d="M8 1434h193l168 -664l172 664h186l-268 -910v-524h-189v524zM289 1536h151l164 287h-184z" />
<glyph unicode="&#xde;" horiz-adv-x="747" d="M92 0v1434h189v-277h127q146 0 223.5 -71t77.5 -199v-332q0 -126 -77.5 -198t-223.5 -72h-127v-285h-189zM281 444h127q54 0 83 29t29 82v332q0 51 -29 80.5t-83 29.5h-127v-553z" />
<glyph unicode="&#xdf;" horiz-adv-x="741" d="M25 877v147h75v201q0 127 70.5 194.5t208.5 67.5t207 -67t69 -195v-273q0 -124 -104 -178q137 -51 137 -196v-316q0 -126 -73.5 -194t-211.5 -68h-71v160h67q109 0 109 106v316q0 49 -29 76.5t-80 27.5h-67v160h35q48 0 76 25.5t28 74.5v283q0 100 -92 100 q-94 0 -94 -100v-1229h-185v877h-75z" />
<glyph unicode="&#xe0;" horiz-adv-x="665" d="M41 223v115q0 38 2.5 66.5t11.5 60t25 54t43.5 44t65.5 34.5t93.5 21.5t125.5 8.5v139q0 102 -99 102q-83 0 -184 -67l-66 145q129 90 271 90q262 0 262 -260v-776h-148l-20 96q-57 -108 -184 -108q-57 0 -98 20t-62 55t-30 74t-9 86zM90 1413h184l132 -287h-152z M225 244q0 -42 20.5 -66t61.5 -24q52 0 76.5 42t24.5 132v159q-76 -1 -117 -15.5t-53.5 -37.5t-12.5 -63v-127z" />
<glyph unicode="&#xe1;" horiz-adv-x="665" d="M41 223v115q0 38 2.5 66.5t11.5 60t25 54t43.5 44t65.5 34.5t93.5 21.5t125.5 8.5v139q0 102 -99 102q-83 0 -184 -67l-66 145q129 90 271 90q262 0 262 -260v-776h-148l-20 96q-57 -108 -184 -108q-57 0 -98 20t-62 55t-30 74t-9 86zM225 244q0 -42 20.5 -66t61.5 -24 q52 0 76.5 42t24.5 132v159q-76 -1 -117 -15.5t-53.5 -37.5t-12.5 -63v-127zM252 1126h151l164 287h-184z" />
<glyph unicode="&#xe2;" horiz-adv-x="665" d="M41 223v115q0 38 2.5 66.5t11.5 60t25 54t43.5 44t65.5 34.5t93.5 21.5t125.5 8.5v139q0 102 -99 102q-83 0 -184 -67l-66 145q129 90 271 90q262 0 262 -260v-776h-148l-20 96q-57 -108 -184 -108q-57 0 -98 20t-62 55t-30 74t-9 86zM102 1126l152 287h149l154 -287 h-156l-71 150l-72 -150h-156zM225 244q0 -42 20.5 -66t61.5 -24q52 0 76.5 42t24.5 132v159q-76 -1 -117 -15.5t-53.5 -37.5t-12.5 -63v-127z" />
<glyph unicode="&#xe3;" horiz-adv-x="665" d="M41 223v115q0 38 2.5 66.5t11.5 60t25 54t43.5 44t65.5 34.5t93.5 21.5t125.5 8.5v139q0 102 -99 102q-83 0 -184 -67l-66 145q129 90 271 90q262 0 262 -260v-776h-148l-20 96q-57 -108 -184 -108q-57 0 -98 20t-62 55t-30 74t-9 86zM84 1130q0 100 35 151.5t100 51.5 q43 0 109.5 -31.5t89.5 -31.5q30 0 41.5 15.5t11.5 47.5h104q0 -100 -35 -151.5t-100 -51.5q-42 0 -107.5 32t-90.5 32q-30 0 -42 -16t-12 -48h-104zM225 244q0 -42 20.5 -66t61.5 -24q52 0 76.5 42t24.5 132v159q-76 -1 -117 -15.5t-53.5 -37.5t-12.5 -63v-127z" />
<glyph unicode="&#xe4;" horiz-adv-x="665" d="M41 223v115q0 38 2.5 66.5t11.5 60t25 54t43.5 44t65.5 34.5t93.5 21.5t125.5 8.5v139q0 102 -99 102q-83 0 -184 -67l-66 145q129 90 271 90q262 0 262 -260v-776h-148l-20 96q-57 -108 -184 -108q-57 0 -98 20t-62 55t-30 74t-9 86zM88 1155h184v258h-184v-258z M225 244q0 -42 20.5 -66t61.5 -24q52 0 76.5 42t24.5 132v159q-76 -1 -117 -15.5t-53.5 -37.5t-12.5 -63v-127zM385 1155h184v258h-184v-258z" />
<glyph unicode="&#xe5;" horiz-adv-x="665" d="M41 223v115q0 38 2.5 66.5t11.5 60t25 54t43.5 44t65.5 34.5t93.5 21.5t125.5 8.5v139q0 102 -99 102q-83 0 -184 -67l-66 145q129 90 271 90q262 0 262 -260v-776h-148l-20 96q-57 -108 -184 -108q-57 0 -98 20t-62 55t-30 74t-9 86zM127 1282q0 170 201 170 q202 0 202 -170q0 -168 -202 -168q-201 0 -201 168zM225 244q0 -42 20.5 -66t61.5 -24q52 0 76.5 42t24.5 132v159q-76 -1 -117 -15.5t-53.5 -37.5t-12.5 -63v-127zM256 1282q0 -80 72 -80q73 0 73 80q0 82 -73 82q-72 0 -72 -82z" />
<glyph unicode="&#xe6;" horiz-adv-x="1005" d="M41 223v105q0 46 4 78t16.5 67.5t38 59t65 43.5t100.5 30t143 10v150q0 102 -99 102q-83 0 -184 -67l-66 145q129 90 271 90q114 0 176 -45q67 45 178 45q266 0 266 -260v-299h-358v-194q0 -68 33 -98.5t112 -30.5q45 0 104.5 8.5t96.5 21.5l23 -159q-113 -37 -261 -37 q-198 0 -264 129q-33 -71 -87.5 -100t-108.5 -29q-57 0 -98 20t-62 55t-30 74t-9 86zM225 244q0 -42 20.5 -66t61.5 -24q52 0 76.5 42t24.5 132v149q-110 -1 -146.5 -28.5t-36.5 -88.5v-116zM592 616h182v164q0 99 -90 99q-92 0 -92 -101v-162z" />
<glyph unicode="&#xe7;" horiz-adv-x="591" d="M59 268v488q0 138 74 209t213 71q108 0 221 -37l-20 -159q-88 30 -162 30q-77 0 -109 -35t-32 -106v-434q0 -71 32 -106t109 -35q74 0 162 30l20 -159q-94 -29 -168 -35v-72h11q165 0 165 -154v-36q0 -85 -54.5 -131t-145.5 -46q-40 0 -91.5 10.5t-78.5 22.5l22 99 q59 -25 121 -25q76 0 76 70v16q0 35 -15.5 51.5t-60.5 16.5h-53v178q-115 12 -175.5 82.5t-60.5 195.5z" />
<glyph unicode="&#xe8;" horiz-adv-x="659" d="M59 264v510q0 127 70 194.5t207 67.5q266 0 266 -260v-317h-358v-176q0 -68 33 -98.5t112 -30.5q45 0 105 8.5t98 21.5l20 -159q-113 -37 -260 -37q-140 0 -216.5 69t-76.5 207zM96 1413h185l131 -287h-152zM244 604h182v176q0 99 -90 99q-92 0 -92 -101v-174z" />
<glyph unicode="&#xe9;" horiz-adv-x="659" d="M59 264v510q0 127 70 194.5t207 67.5q266 0 266 -260v-317h-358v-176q0 -68 33 -98.5t112 -30.5q45 0 105 8.5t98 21.5l20 -159q-113 -37 -260 -37q-140 0 -216.5 69t-76.5 207zM244 604h182v176q0 99 -90 99q-92 0 -92 -101v-174zM258 1126h152l163 287h-184z" />
<glyph unicode="&#xea;" horiz-adv-x="659" d="M59 264v510q0 127 70 194.5t207 67.5q266 0 266 -260v-317h-358v-176q0 -68 33 -98.5t112 -30.5q45 0 105 8.5t98 21.5l20 -159q-113 -37 -260 -37q-140 0 -216.5 69t-76.5 207zM109 1126l151 287h150l153 -287h-155l-72 150l-72 -150h-155zM244 604h182v176q0 99 -90 99 q-92 0 -92 -101v-174z" />
<glyph unicode="&#xeb;" horiz-adv-x="659" d="M59 264v510q0 127 70 194.5t207 67.5q266 0 266 -260v-317h-358v-176q0 -68 33 -98.5t112 -30.5q45 0 105 8.5t98 21.5l20 -159q-113 -37 -260 -37q-140 0 -216.5 69t-76.5 207zM94 1155h185v258h-185v-258zM244 604h182v176q0 99 -90 99q-92 0 -92 -101v-174zM391 1155 h184v258h-184v-258z" />
<glyph unicode="&#xec;" horiz-adv-x="335" d="M-70 1413h185l131 -287h-152zM76 0h184v1024h-184v-1024z" />
<glyph unicode="&#xed;" horiz-adv-x="335" d="M76 0h184v1024h-184v-1024zM92 1126h152l164 287h-185z" />
<glyph unicode="&#xee;" horiz-adv-x="335" d="M-59 1126l151 287h150l153 -287h-155l-72 150l-72 -150h-155zM76 0h184v1024h-184v-1024z" />
<glyph unicode="&#xef;" horiz-adv-x="335" d="M-72 1155h185v258h-185v-258zM76 0h184v1024h-184v-1024zM225 1155h185v258h-185v-258z" />
<glyph unicode="&#xf0;" horiz-adv-x="731" d="M39 264v293q0 127 83 200.5t228 73.5h123v338q0 45 -27 74t-73 35v-225h-97v227h-184v166h184v192h97v-192q136 -6 212.5 -80.5t76.5 -196.5v-905q0 -127 -83 -201.5t-229 -74.5q-145 0 -228 74.5t-83 201.5zM227 264q0 -51 33.5 -80.5t89.5 -29.5t89.5 29.5t33.5 80.5 v402h-123q-56 0 -89.5 -29t-33.5 -80v-293z" />
<glyph unicode="&#xf1;" horiz-adv-x="700" d="M76 0h184v705q0 165 98 165q42 0 63 -27.5t21 -72.5v-770h185v788q0 248 -201 248q-116 0 -182 -100l-21 88h-147v-1024zM106 1130q0 100 35.5 151.5t100.5 51.5q43 0 109 -31.5t89 -31.5q30 0 42 15.5t12 47.5h104q0 -100 -35 -151.5t-100 -51.5q-42 0 -108 32t-91 32 q-29 0 -41 -16t-12 -48h-105z" />
<glyph unicode="&#xf2;" horiz-adv-x="671" d="M59 250v524q0 127 70 194.5t207 67.5q136 0 205 -67.5t69 -194.5v-524q0 -127 -69 -194.5t-205 -67.5q-137 0 -207 67.5t-70 194.5zM96 1413h185l131 -287h-152zM244 246q0 -101 92 -101q90 0 90 101v532q0 101 -90 101q-92 0 -92 -101v-532z" />
<glyph unicode="&#xf3;" horiz-adv-x="671" d="M59 250v524q0 127 70 194.5t207 67.5q136 0 205 -67.5t69 -194.5v-524q0 -127 -69 -194.5t-205 -67.5q-137 0 -207 67.5t-70 194.5zM244 246q0 -101 92 -101q90 0 90 101v532q0 101 -90 101q-92 0 -92 -101v-532zM258 1126h152l163 287h-184z" />
<glyph unicode="&#xf4;" horiz-adv-x="671" d="M59 250v524q0 127 70 194.5t207 67.5q136 0 205 -67.5t69 -194.5v-524q0 -127 -69 -194.5t-205 -67.5q-137 0 -207 67.5t-70 194.5zM109 1126l151 287h150l153 -287h-155l-72 150l-72 -150h-155zM244 246q0 -101 92 -101q90 0 90 101v532q0 101 -90 101q-92 0 -92 -101 v-532z" />
<glyph unicode="&#xf5;" horiz-adv-x="671" d="M59 250v524q0 127 70 194.5t207 67.5q136 0 205 -67.5t69 -194.5v-524q0 -127 -69 -194.5t-205 -67.5q-137 0 -207 67.5t-70 194.5zM90 1130q0 100 35 151.5t100 51.5q43 0 109.5 -31.5t89.5 -31.5q30 0 41.5 15.5t11.5 47.5h105q0 -100 -35.5 -151.5t-100.5 -51.5 q-42 0 -107.5 32t-90.5 32q-29 0 -41 -16t-12 -48h-105zM244 246q0 -101 92 -101q90 0 90 101v532q0 101 -90 101q-92 0 -92 -101v-532z" />
<glyph unicode="&#xf6;" horiz-adv-x="671" d="M59 250v524q0 127 70 194.5t207 67.5q136 0 205 -67.5t69 -194.5v-524q0 -127 -69 -194.5t-205 -67.5q-137 0 -207 67.5t-70 194.5zM94 1155h185v258h-185v-258zM244 246q0 -101 92 -101q90 0 90 101v532q0 101 -90 101q-92 0 -92 -101v-532zM391 1155h184v258h-184v-258 z" />
<glyph unicode="&#xf7;" horiz-adv-x="606" d="M61 649v144h484v-144h-484zM219 358h166v211h-166v-211zM219 872h166v211h-166v-211z" />
<glyph unicode="&#xf8;" horiz-adv-x="671" d="M59 -41l50 119q-50 65 -50 172v524q0 127 70 194.5t207 67.5q92 0 153 -30l25 59h96l-49 -119q49 -64 49 -172v-524q0 -127 -69 -194.5t-205 -67.5q-94 0 -156 30l-24 -59h-97zM244 408l174 421q-19 50 -82 50q-92 0 -92 -101v-370zM252 195q19 -50 84 -50q90 0 90 101 v370z" />
<glyph unicode="&#xf9;" horiz-adv-x="700" d="M74 236q0 -248 200 -248q50 0 99.5 24t83.5 76l18 -88h150v1024h-185v-705q0 -165 -100 -165q-41 0 -61.5 27.5t-20.5 72.5v770h-184v-788zM113 1413h184l131 -287h-152z" />
<glyph unicode="&#xfa;" horiz-adv-x="700" d="M74 236q0 -248 200 -248q50 0 99.5 24t83.5 76l18 -88h150v1024h-185v-705q0 -165 -100 -165q-41 0 -61.5 27.5t-20.5 72.5v770h-184v-788zM274 1126h152l164 287h-184z" />
<glyph unicode="&#xfb;" horiz-adv-x="700" d="M74 236q0 -248 200 -248q50 0 99.5 24t83.5 76l18 -88h150v1024h-185v-705q0 -165 -100 -165q-41 0 -61.5 27.5t-20.5 72.5v770h-184v-788zM123 1126l151 287h150l154 -287h-156l-72 150l-71 -150h-156z" />
<glyph unicode="&#xfc;" horiz-adv-x="700" d="M74 236q0 -248 200 -248q50 0 99.5 24t83.5 76l18 -88h150v1024h-185v-705q0 -165 -100 -165q-41 0 -61.5 27.5t-20.5 72.5v770h-184v-788zM111 1155h184v258h-184v-258zM408 1155h184v258h-184v-258z" />
<glyph unicode="&#xfd;" horiz-adv-x="647" d="M-2 -418l12 156q40 -12 92 -12q53 0 78.5 22.5t42.5 85.5l35 156h-27l-225 1034h187l137 -762l133 762h176l-250 -1153q-21 -96 -46 -155t-60 -91.5t-74.5 -43.5t-99.5 -11q-37 0 -111 12zM246 1126h151l164 287h-184z" />
<glyph unicode="&#xfe;" horiz-adv-x="690" d="M76 -410v1885h184v-523q63 84 166 84q201 0 201 -248v-552q0 -248 -201 -248q-103 0 -166 84v-482h-184zM260 319q0 -165 98 -165q42 0 63 27.5t21 72.5v516q0 45 -21 72.5t-63 27.5q-98 0 -98 -165v-386z" />
<glyph unicode="&#xff;" horiz-adv-x="647" d="M-2 -418l12 156q40 -12 92 -12q53 0 78.5 22.5t42.5 85.5l35 156h-27l-225 1034h187l137 -762l133 762h176l-250 -1153q-21 -96 -46 -155t-60 -91.5t-74.5 -43.5t-99.5 -11q-37 0 -111 12zM82 1155h184v258h-184v-258zM379 1155h184v258h-184v-258z" />
<glyph unicode="&#x152;" horiz-adv-x="1085" d="M78 264v905q0 127 77 202t214 75q168 0 223 -117v105h450v-160h-342v-473h285v-160h-285v-481h342v-160h-450v104q-55 -116 -223 -116q-137 0 -214 74.5t-77 201.5zM266 264q0 -51 33.5 -80.5t89.5 -29.5t89.5 29.5t33.5 80.5v905q0 51 -33.5 81t-89.5 30t-89.5 -30 t-33.5 -81v-905z" />
<glyph unicode="&#x153;" horiz-adv-x="1026" d="M59 250v524q0 127 70 194.5t207 67.5q115 0 182 -49q67 49 184 49q267 0 267 -260v-317h-359v-176q0 -68 33.5 -98.5t112.5 -30.5q45 0 104 8.5t96 21.5l23 -159q-113 -37 -260 -37q-125 0 -195 53q-68 -53 -188 -53q-137 0 -207 67.5t-70 194.5zM244 246q0 -101 92 -101 q90 0 90 101v532q0 101 -90 101q-92 0 -92 -101v-532zM610 604h183v176q0 99 -91 99q-92 0 -92 -101v-174z" />
<glyph unicode="&#x178;" horiz-adv-x="733" d="M8 1434h193l168 -664l172 664h186l-268 -910v-524h-189v524zM125 1565h184v258h-184v-258zM422 1565h184v258h-184v-258z" />
<glyph unicode="&#x2c6;" horiz-adv-x="671" d="M109 1126l151 287h150l153 -287h-155l-72 150l-72 -150h-155z" />
<glyph unicode="&#x2dc;" horiz-adv-x="663" d="M119 1130q0 100 35 151.5t100 51.5q43 0 109.5 -31.5t89.5 -31.5q30 0 41.5 15.5t11.5 47.5h104q0 -100 -35 -151.5t-100 -51.5q-42 0 -108 32t-91 32q-29 0 -41 -16t-12 -48h-104z" />
<glyph unicode="&#x2000;" horiz-adv-x="931" />
<glyph unicode="&#x2001;" horiz-adv-x="1862" />
<glyph unicode="&#x2002;" horiz-adv-x="931" />
<glyph unicode="&#x2003;" horiz-adv-x="1862" />
<glyph unicode="&#x2004;" horiz-adv-x="620" />
<glyph unicode="&#x2005;" horiz-adv-x="465" />
<glyph unicode="&#x2006;" horiz-adv-x="310" />
<glyph unicode="&#x2007;" horiz-adv-x="310" />
<glyph unicode="&#x2008;" horiz-adv-x="232" />
<glyph unicode="&#x2009;" horiz-adv-x="372" />
<glyph unicode="&#x200a;" horiz-adv-x="103" />
<glyph unicode="&#x2010;" horiz-adv-x="569" d="M74 440v144h420v-144h-420z" />
<glyph unicode="&#x2011;" horiz-adv-x="569" d="M74 440v144h420v-144h-420z" />
<glyph unicode="&#x2012;" horiz-adv-x="569" d="M74 440v144h420v-144h-420z" />
<glyph unicode="&#x2013;" horiz-adv-x="763" d="M74 440v144h616v-144h-616z" />
<glyph unicode="&#x2014;" horiz-adv-x="968" d="M74 440v144h821v-144h-821z" />
<glyph unicode="&#x2018;" horiz-adv-x="309" d="M82 948h158v211l-72 275h-86v-486z" />
<glyph unicode="&#x2019;" horiz-adv-x="305" d="M63 1223v211h164v-486h-92z" />
<glyph unicode="&#x201a;" horiz-adv-x="315" d="M76 0v211h164v-485h-93z" />
<glyph unicode="&#x201c;" horiz-adv-x="663" d="M78 948v486h92l72 -275v-211h-164zM432 948v486h92l72 -275v-211h-164z" />
<glyph unicode="&#x201d;" horiz-adv-x="659" d="M63 1223v211h164v-486h-92zM418 1223v211h164v-486h-93z" />
<glyph unicode="&#x201e;" horiz-adv-x="667" d="M76 0v211h164v-485h-93zM430 0v211h164v-485h-92z" />
<glyph unicode="&#x2022;" horiz-adv-x="450" d="M78 586h293v303h-293v-303z" />
<glyph unicode="&#x2026;" horiz-adv-x="1021" d="M76 0h164v211h-164v-211zM430 0h164v211h-164v-211zM784 0h164v211h-164v-211z" />
<glyph unicode="&#x202f;" horiz-adv-x="372" />
<glyph unicode="&#x2039;" horiz-adv-x="540" d="M49 434v152l416 364v-162l-236 -276v-4l236 -272v-162z" />
<glyph unicode="&#x203a;" horiz-adv-x="540" d="M76 74l416 360v152l-416 364v-162l235 -276v-4l-235 -272v-162z" />
<glyph unicode="&#x205f;" horiz-adv-x="465" />
<glyph unicode="&#x20ac;" horiz-adv-x="851" d="M59 526v129h88v131h-88v127h88v256q0 127 83.5 202t228.5 75q146 0 228.5 -75t82.5 -202v-247h-184v247q0 50 -35.5 80.5t-91.5 30.5t-89.5 -30t-33.5 -81v-256h125v-127h-125v-131h125v-129h-125v-262q0 -53 33 -81.5t90 -28.5t92 28.5t35 81.5v248h184v-248 q0 -127 -82.5 -201.5t-228.5 -74.5q-145 0 -228.5 74.5t-83.5 201.5v262h-88z" />
<glyph unicode="&#x2122;" horiz-adv-x="1087" d="M94 1335v99h344v-99h-114v-762h-115v762h-115zM506 573v861h121l125 -383l125 383h100h10v-861h-115v322q0 28 5 238l-80 -246h-107l-86 270q6 -141 6 -262v-322h-104z" />
<glyph unicode="&#x25fc;" horiz-adv-x="1024" d="M0 0v1024h1024v-1024h-1024z" />
<glyph unicode="&#xfb03;" horiz-adv-x="1200" d="M25 877v147h75v250q0 116 53.5 164.5t155.5 48.5q72 0 131 -12l-12 -156q-24 8 -63 8q-80 0 -80 -80v-223h235v238q0 116 53 164.5t154 48.5h395v-320h-184v160h-156q-41 0 -59 -20t-18 -60v-211h135v-147h-135v-877h-185v877h-235v-877h-185v877h-75zM938 0v1024h184 v-1024h-184z" />
<glyph unicode="&#xfb04;" horiz-adv-x="1208" d="M25 877v147h75v250q0 116 53.5 164.5t155.5 48.5q72 0 131 -12l-12 -156q-24 8 -63 8q-80 0 -80 -80v-223h235v238q0 116 53 164.5t154 48.5h395v-1475h-184v1315h-156q-41 0 -59 -20t-18 -60v-211h135v-147h-135v-877h-185v877h-235v-877h-185v877h-75z" />
</font>
</defs>
</svg>
