<svg id="noun_chef_1992881" xmlns="http://www.w3.org/2000/svg" width="24" height="24" viewBox="0 0 24 24">
  <g id="Group">
    <path id="Shape" d="M19.7,24H4.3a.947.947,0,0,1-1-1V13.4A7.268,7.268,0,0,1,2.15,2.15,7.247,7.247,0,0,1,13.1,2.9,7.436,7.436,0,0,1,16.7,2a7.3,7.3,0,0,1,4,13.4V23A1,1,0,0,1,19.7,24ZM7.3,2A5.336,5.336,0,0,0,2,7.3,5.479,5.479,0,0,0,4.7,12a1.05,1.05,0,0,1,.5.9V22H18.8V14.8a1.051,1.051,0,0,1,.5-.9A5.16,5.16,0,0,0,22,9.3,5.335,5.335,0,0,0,16.7,4a5.167,5.167,0,0,0-3.2,1.1,1.084,1.084,0,0,1-.8.2,1.27,1.27,0,0,1-.7-.5A5.394,5.394,0,0,0,7.3,2Z" fill="#212121"/>
    <g id="Group-2" data-name="Group" transform="translate(8 8)">
      <path id="Path" d="M1,6.9a.945.945,0,0,1-1-1V1A.945.945,0,0,1,1,0,.945.945,0,0,1,2,1V5.9A1,1,0,0,1,1,6.9Z" transform="translate(0.5 0.6)" fill="#212121"/>
      <path id="Path-2" data-name="Path" d="M1,6.9a.945.945,0,0,1-1-1V1A.945.945,0,0,1,1,0,.945.945,0,0,1,2,1V5.9A1.075,1.075,0,0,1,1,6.9Z" transform="translate(5.5 0.6)" fill="#212121"/>
    </g>
  </g>
</svg>
