<svg id="Group_3" data-name="Group 3" xmlns="http://www.w3.org/2000/svg" xmlns:xlink="http://www.w3.org/1999/xlink" width="52" height="56" viewBox="0 0 52 56">
  <defs>
    <clipPath id="clip-path">
      <path id="Clip_2" data-name="Clip 2" d="M0,0H52V56H0Z" fill="none"/>
    </clipPath>
  </defs>
  <path id="Clip_2-2" data-name="Clip 2" d="M0,0H52V56H0Z" fill="none"/>
  <g id="Group_3-2" data-name="Group 3" clip-path="url(#clip-path)">
    <path id="Fill_1" data-name="Fill 1" d="M28.421,56a22.193,22.193,0,0,1-6.708-1.256,2.325,2.325,0,0,0,.732,1.028A31.108,31.108,0,0,1,10.81,49.443,29.514,29.514,0,0,1,4.339,41.3,29.863,29.863,0,0,1,.943,31.27s-.036.161-.124.538c-.066.287-.163.7-.3,1.282a56.3,56.3,0,0,1,.211-8.545A17.375,17.375,0,0,0,0,26.141a13.806,13.806,0,0,1,.7-4.4,51.552,51.552,0,0,1,2.661-5.854A21.172,21.172,0,0,1,4.707,8.233,8.14,8.14,0,0,1,5.98,5.968,7.3,7.3,0,0,0,7.263,9.832,24.047,24.047,0,0,1,26.432,0,22.953,22.953,0,0,1,36.983,2.554a25.432,25.432,0,0,1,8.3,6.887,9.61,9.61,0,0,1,3.728,4.677,18.514,18.514,0,0,1,1.236,5.254c.209.771.377,1.5.512,2.229a4.008,4.008,0,0,0,.319-.7c.939,2.189,1.633,6.008-.38,11.768a28.626,28.626,0,0,1-1.194,4.257,8.879,8.879,0,0,1-1.469,5.97,19.7,19.7,0,0,1-5.573,5.844c-.25.185-.485.36-.72.539-1.223,2.256-3.556,3.881-6.935,4.83a26.643,26.643,0,0,1-6.9.889c-.594,0-.95-.021-.953-.021A8.459,8.459,0,0,0,28.421,56ZM23.7,41.071h0a11.411,11.411,0,0,0,4.531,1.012,9.091,9.091,0,0,0,5.13-1.589,8.291,8.291,0,0,0,1.774-1.59c0,.019.108.921.21,1.366A9.562,9.562,0,0,0,39,34.415a15.891,15.891,0,0,0,.433-3.719,8.348,8.348,0,0,0,1.154,1.485c.725-2.928.007-10.526,0-10.6a.477.477,0,0,1,.048.042c.511.474,1.1,1.036,1.736,1.67.1-6.012-1.982-9.451-5.142-12.764,1.4,0,3.726,1.481,4.407,1.935A35.259,35.259,0,0,0,34.613,4.94,20.213,20.213,0,0,1,41.185,8.2a22.335,22.335,0,0,0-6.752-4.345,21.117,21.117,0,0,0-16.848.365,22.67,22.67,0,0,0-7.224,5.293,25.193,25.193,0,0,0-1.624,1.97l.02.017c.018.016.038.034.056.052a6.124,6.124,0,0,1,2.212-.273c.867,0,1.853.057,2.807.112h.009l.844.047c1.551-2.022,3.751-2.618,7.029-2.964-2.386,1.352-3.348,4.977-3.358,5.014a2.245,2.245,0,0,0,.478,1.7,4.006,4.006,0,0,0,3.208,1.086c.323,0,.671-.017,1.033-.05.15-.013.3-.02.446-.02.56,0,1.862.113,1.862,1.158a3.447,3.447,0,0,1-.883,1.97c-.139.189-.271.368-.376.541-.416.677-4.157,2.714-4.195,2.734,0,0,0,.015,0,.041.051.9.087,1.779.1,2.466a17.292,17.292,0,0,1-.1,1.767,8.165,8.165,0,0,0-1.782-1.2,1.2,1.2,0,0,0-.477-.108,1.051,1.051,0,0,0-.869.53,3.4,3.4,0,0,0-.333,2.655c.362.881,2.659,3.784,5.1,3.784a2.937,2.937,0,0,0,1.2-.254A12.174,12.174,0,0,1,27.647,31a6.193,6.193,0,0,1,1.826.269,3.159,3.159,0,0,1,1.492.987,1.912,1.912,0,0,1,.523,1.323c-.045.494-.425.806-1.071.879a4.482,4.482,0,0,0-2.992,1.156c-.339.235-.76.528-1.308.894a8.455,8.455,0,0,1-5.058,1.559c-.5,0-.982-.029-1.452-.056l-.309-.018c1.244,2.365,5.516,2.5,5.559,2.506,0,0,0,0,0,.007a1.5,1.5,0,0,1-1.011.577A.806.806,0,0,1,23.7,41.071Z" fill="#dea68c"/>
  </g>
</svg>
