<svg xmlns="http://www.w3.org/2000/svg" xmlns:xlink="http://www.w3.org/1999/xlink" width="46.13" height="49.488" viewBox="0 0 46.13 49.488">
  <defs>
    <clipPath id="clip-path">
      <path id="Clip_2" data-name="Clip 2" d="M0,0H46.13V49.488H0Z" transform="translate(0)" fill="none"/>
    </clipPath>
  </defs>
  <g id="Group_3" data-name="Group 3" transform="translate(0)">
    <path id="Clip_2-2" data-name="Clip 2" d="M0,0H46.13V49.488H0Z" transform="translate(0)" fill="none"/>
    <g id="Group_3-2" data-name="Group 3" clip-path="url(#clip-path)">
      <path id="Fill_1" data-name="Fill 1" d="M7.013,49.488h0a8.773,8.773,0,0,1-3.679-.734A4.65,4.65,0,0,1,.982,46.518a12.253,12.253,0,0,1-.715-7.53A30.706,30.706,0,0,1,2.889,31.32c3.479-7.3,9.674-15.244,17-21.794a48.373,48.373,0,0,0-7.828,5.111,44.775,44.775,0,0,0-9.442,10.2c0-.028,0-.056,0-.084,0-.063,0-.123,0-.185a19.23,19.23,0,0,1,1.66-7.844,20.039,20.039,0,0,1,4.524-6.4A21.158,21.158,0,0,1,15.5,6.011,21.922,21.922,0,0,1,23.711,4.42a22.722,22.722,0,0,1,2.682.172,36.161,36.161,0,0,1,7.127-3.377A20.894,20.894,0,0,1,40.014,0,7.86,7.86,0,0,1,44.6,1.206a3.809,3.809,0,0,1,1.465,2.768,11.662,11.662,0,0,1-.214,3.675,25.713,25.713,0,0,1-1.394,4.585,23.823,23.823,0,0,0,.513-4.357,10.978,10.978,0,0,0-.393-3.368,3.624,3.624,0,0,0-1.744-2.315,5.508,5.508,0,0,0-2.478-.521c-3.5,0-7.868,2.337-10.158,3.73a21.486,21.486,0,0,1,5.859,2.839A20.759,20.759,0,0,1,40.682,12.6a19.343,19.343,0,0,1,3.984,14.3H16.817c-.037,1,0,4.436,2.1,6.607A6.1,6.1,0,0,0,23.5,35.28a7.224,7.224,0,0,0,5.578-2.228,5.6,5.6,0,0,0,1.206-2.228H43.769a19.72,19.72,0,0,1-2.982,5.57,20.725,20.725,0,0,1-4.572,4.393,21.665,21.665,0,0,1-12.5,3.928,22.284,22.284,0,0,1-4.591-.491A34.77,34.77,0,0,1,11.87,48.5,12.762,12.762,0,0,1,7.013,49.488ZM5.7,35.067c-1.863,4.368-2.119,7.939-.721,10.054a4.192,4.192,0,0,0,3.693,1.839,7.935,7.935,0,0,0,2.49-.441,38.238,38.238,0,0,0,6.282-2.712A21.033,21.033,0,0,1,5.7,35.067ZM23.3,13.751a5.193,5.193,0,0,0-3.376,1.176A7.347,7.347,0,0,0,18,17.516a12.862,12.862,0,0,0-1.073,3.755v.009H30.6a9.493,9.493,0,0,0-.9-3.723,6.58,6.58,0,0,0-2.14-2.582,7.312,7.312,0,0,0-4.17-1.222Z" transform="translate(0 0)" fill="#dea68c"/>
    </g>
  </g>
</svg>
