<svg xmlns="http://www.w3.org/2000/svg" width="29.143" height="39.143" viewBox="0 0 29.143 39.143">
  <g id="noun_Map_Marker_2329546" data-name="noun_Map Marker_2329546" transform="translate(-0.428 -0.429)">
    <path id="Shape" d="M14.571,39.143a4.125,4.125,0,0,1-3.642-1.929l-9-16.071A13.741,13.741,0,0,1,4.286,4.152a14.85,14.85,0,0,1,20.6,0,13.71,13.71,0,0,1,2.259,17.062L18.285,37.143A4.231,4.231,0,0,1,14.571,39.143ZM14.571,3A11.722,11.722,0,0,0,6.4,6.268,10.858,10.858,0,0,0,3,14.143a10.5,10.5,0,0,0,1.571,5.572l9,16a1.16,1.16,0,0,0,1.072.428,1.2,1.2,0,0,0,1.071-.5l8.929-15.928a11.123,11.123,0,0,0,1.571-5.572,11.04,11.04,0,0,0-3.437-7.875A11.768,11.768,0,0,0,14.571,3Zm0,16.857a5.319,5.319,0,1,1,3.741-1.571A5.233,5.233,0,0,1,14.571,19.857Zm0-7.571a2.286,2.286,0,1,0,2.286,2.285A2.261,2.261,0,0,0,14.571,12.286Z" transform="translate(0.429 0.429)" fill="#fff"/>
  </g>
</svg>
