<svg id="iconfinder_Facebook_Messenger_1298720" xmlns="http://www.w3.org/2000/svg" width="28" height="28" viewBox="0 0 28 28">
  <rect id="Rectangle" width="28" height="28" fill="none"/>
  <path id="Facebook_Messenger" d="M5.217,28V23.057A12.575,12.575,0,0,1,0,12.963,12.414,12.414,0,0,1,4.1,3.8,14.493,14.493,0,0,1,14,0a14.491,14.491,0,0,1,9.9,3.8,12.3,12.3,0,0,1,0,18.332,14.492,14.492,0,0,1-9.9,3.8,15.058,15.058,0,0,1-4.016-.542L5.219,28Zm6.609-14.345h0l3.564,3.8,7.653-8.123-6.87,3.8-3.652-3.8L4.87,17.456l6.955-3.8Z" fill="#dea68c"/>
</svg>
