<svg xmlns="http://www.w3.org/2000/svg" xmlns:xlink="http://www.w3.org/1999/xlink" width="51.624" height="56" viewBox="0 0 51.624 56">
  <defs>
    <clipPath id="clip-path">
      <path id="Clip_2" data-name="Clip 2" d="M0,0H51.624V56H0Z" transform="translate(0.001 0)" fill="none"/>
    </clipPath>
  </defs>
  <g id="Group_3" data-name="Group 3" transform="translate(0 0)">
    <path id="Clip_2-2" data-name="Clip 2" d="M0,0H51.624V56H0Z" transform="translate(0.001 0)" fill="none"/>
    <g id="Group_3-2" data-name="Group 3" clip-path="url(#clip-path)">
      <path id="Fill_1" data-name="Fill 1" d="M25.812,56A25.848,25.848,0,0,1,7.56,48.506a25.488,25.488,0,0,1-5.532-8.132A25.362,25.362,0,0,1,5.244,14.968,25.865,25.865,0,0,1,18.511,5.885a.17.17,0,0,0-.009-.041.868.868,0,0,1-.01-.094c0-.028,0-.054-.008-.08A2.888,2.888,0,0,1,16.11,3.4a2.066,2.066,0,0,1-.023-.313c.04-1.522,1.4-2.774,3.318-3.043A5.1,5.1,0,0,1,20.07,0h.008A4.1,4.1,0,0,1,22.3.614a2.581,2.581,0,0,1,1.191,1.778,2.64,2.64,0,0,1,.02.31A2.741,2.741,0,0,1,22.6,4.638a2.244,2.244,0,0,1,.105.393,25.858,25.858,0,0,1,21.358,7.3A25.482,25.482,0,0,1,49.6,20.462a25.45,25.45,0,0,1,0,19.913A25.792,25.792,0,0,1,35.859,53.989,25.847,25.847,0,0,1,25.812,56ZM25.7,11.669a19.038,19.038,0,0,0-13.424,5.492A18.671,18.671,0,0,0,8.206,23.12a18.6,18.6,0,0,0,0,14.6,18.666,18.666,0,0,0,4.068,5.96,19.117,19.117,0,0,0,26.845,0,18.666,18.666,0,0,0,4.068-5.96,18.6,18.6,0,0,0,0-14.6,18.671,18.671,0,0,0-4.068-5.959A19.034,19.034,0,0,0,25.7,11.669ZM20.07,1.388a3.161,3.161,0,0,0-.474.033c-1.381.177-2.165,1.09-2.119,1.666a.992.992,0,0,0,.007.122c.032.446.533.892,1.217,1.084A2.071,2.071,0,0,1,20.17,3.127a1.974,1.974,0,0,1,.365-.034,2.067,2.067,0,0,1,1.219.418,1.206,1.206,0,0,0,.365-.809c0-.006,0-.012,0-.018s0-.012,0-.018V2.65a.663.663,0,0,0-.006-.069C22.07,2,21.241,1.388,20.07,1.388Zm7.581,45.227h0l-.225-1.394.521-.087c.312.527.6.742.994.742a1.13,1.13,0,0,0,.2-.017.654.654,0,0,0,.444-.247.5.5,0,0,0,.088-.368c-.063-.387-.506-.451-1.126-.5-.64-.049-1.393-.215-1.534-1.075a1.6,1.6,0,0,1,.351-1.245A1.143,1.143,0,0,1,28.246,42h.023l-3.087-5.89-.314-.035-.018,0h-.013a4.442,4.442,0,0,1-1.425-.309L14.619,43.22l-.338-.3L20.9,33.635c-.017-.029-.036-.056-.055-.082l0-.005-.013-.018,0-.005-.015-.021-.016-.023a1.734,1.734,0,0,1-.146-.222l-7.088-.316,6.41-3.174a2.957,2.957,0,0,1,.269-.905l.022-.052c.026-.06.055-.126.091-.22l-2.678-2.932,3.64,2a5.291,5.291,0,0,0,.025,5.333l2.9-4.064.025.019-.03-.027,4.027-3.391a5.275,5.275,0,0,0-5.321.381l.5-8.617,3.506,7.007.043.089a6.023,6.023,0,0,1,1.842.653l8.864-7.467-6.624,9.623c.012.02.024.039.037.058l.014.022,0,.006a1.564,1.564,0,0,1,.083.134l7.048.246-.276-1.746.517-.082.085.534,2.878-.455-.086-.535.517-.082.593,3.721-1.39.221-.082-.519c.778-.285.84-.421.768-.877l-.153-.959-1.185.184.052.323c.055.332.122.352.62.357l.073.465-1.591.253-.072-.465c.482-.149.542-.214.49-.535l-.052-.319-1.235.194.148.942c.1.6.342.635,1.169.648l.082.516-1.543.246-.294-1.845-6.421,3.39a5.91,5.91,0,0,1-.332,1.251l2.624,3.172-3.785-1.305a6.084,6.084,0,0,1-1.461,1.175l-.476,6.79.016,0h.083a1.41,1.41,0,0,1,.922.3l.068-.488.519-.082.232,1.449-.522.086c-.328-.565-.65-.8-1.112-.8a1.532,1.532,0,0,0-.258.022c-.406.067-.626.306-.575.625.058.35.446.384,1.033.436l.059,0c.716.049,1.427.169,1.569,1.022A1.3,1.3,0,0,1,29.3,46.36a1.619,1.619,0,0,1-.263.022,1.139,1.139,0,0,1-.808-.293l-.055.44-.524.086ZM24.591,29.22,15.742,41.646l11.569-9.8-.205-.2a1.612,1.612,0,0,1-2.317-2.24l-.2-.191Zm3.028,2.967h0L24,35.258a5.205,5.205,0,0,0,1.925.367,5.314,5.314,0,0,0,4.706-7.8l-3.008,4.37Zm-1.648-2.6a.918.918,0,1,0,.919.92A.92.92,0,0,0,25.971,29.585Zm-15.6,7.028h0l-.345-2.018.51-.087.082.474,2.361-1.115-.009-.045-2.1-.38-.476.236.075.437-.509.09-.34-1.967.508-.09.089.5,2.349-1.1-.007-.05-2.584-.263.082.489-.509.085L9.287,30.3l.513-.089.08.453,3.591.467.164.936-2.069,1.017,2.315.413.158.925-3.233,1.61.084.491-.517.088ZM21.944,28h0l-.629-.345a5.426,5.426,0,0,1,1.621-1.75l-.016.292a.694.694,0,0,1-.2.07c-.274.066-.533.128-.776,1.733Zm-.6-9.488h0L21.273,18l.509-.072-.391-2.886-.512.069-.071-.519,1.668-.227,2.039,2.516.055-.007-.305-2.223-.535.073-.07-.519,1.579-.217.073.52-.513.069.472,3.458-.98.134-2.256-2.789-.055,0,.338,2.471.536-.073.069.52-1.578.21Z" transform="translate(0.001 0)" fill="#dea68c"/>
    </g>
  </g>
</svg>
