<svg xmlns="http://www.w3.org/2000/svg" width="18.848" height="19.559" viewBox="0 0 18.848 19.559">
  <g id="noun_Share_3127024" transform="translate(-0.214 -0.227)">
    <path id="Shape" d="M15.179,19.559a3.7,3.7,0,0,1-1.715-.428,3.532,3.532,0,0,1-1.75-4L6.142,12.166l-.071.072c-.05.05-.1.094-.157.14l-.012.01c-.047.039-.1.084-.152.136l-.071.071c-.078.04-.2.121-.286.179a.188.188,0,0,1-.053.035l0,0a.191.191,0,0,0-.049.033.177.177,0,0,1-.049.033l0,0a.188.188,0,0,0-.053.035.5.5,0,0,0-.157.061L5,12.985l0,0a.117.117,0,0,0-.054.018.129.129,0,0,1-.053.018,1.068,1.068,0,0,1-.357.142H4.5a4.115,4.115,0,0,1-.929.107,1.675,1.675,0,0,1-.184-.014l-.014,0-.015,0a1.7,1.7,0,0,0-.215-.018H3.107a1.16,1.16,0,0,1-.307-.05l-.014,0-.005,0-.02-.005-.046-.012c-.036-.035-.036-.035-.071-.035a.249.249,0,0,1-.072-.018A.284.284,0,0,0,2.5,13.1a.26.26,0,0,1-.071-.018.28.28,0,0,0-.072-.018.243.243,0,0,1-.087-.018l-.008,0a.135.135,0,0,0-.048-.014A3.39,3.39,0,0,1,.393,11.38,3.193,3.193,0,0,1,0,10.13V9.274a3.193,3.193,0,0,1,.393-1.25.617.617,0,0,1,.084-.156l.006-.009a.647.647,0,0,0,.052-.085.046.046,0,0,1,.018-.035A.047.047,0,0,0,.571,7.7a.348.348,0,0,1,.071-.089.355.355,0,0,0,.072-.09A.188.188,0,0,0,.75,7.47l0,0a.177.177,0,0,1,.033-.049l.07-.069.038-.038L.91,7.293l.019-.019.107-.107A.426.426,0,0,1,1.1,7.117l.007,0,.015-.01a.4.4,0,0,0,.058-.043.484.484,0,0,0,.142-.108.471.471,0,0,0,.14-.1l.008-.008a.5.5,0,0,1,.138-.1A.188.188,0,0,1,1.66,6.7l0,0a.191.191,0,0,0,.049-.033l.14-.07.074-.037a3.2,3.2,0,0,1,1.25-.393h.857a3.2,3.2,0,0,1,1.25.393l.036.036a3.147,3.147,0,0,1,.357.214.188.188,0,0,0,.053.035l0,0a.177.177,0,0,1,.049.033,2.254,2.254,0,0,1,.314.279l.007.007.035.035.072.072L11.785,4.38A3.588,3.588,0,0,1,15.276,0a3.517,3.517,0,0,1,3.153,1.916,3.419,3.419,0,0,1,.25,2.714,3.449,3.449,0,0,1-1.75,2.107,3.491,3.491,0,0,1-2.714.214,3.491,3.491,0,0,1-1.571-1L7.071,8.88v.072a.65.65,0,0,0,.018.124.667.667,0,0,1,.018.125.216.216,0,0,1,.036.143v.428a1.261,1.261,0,0,1-.018.178,1.359,1.359,0,0,0-.018.179.255.255,0,0,1-.017.086.278.278,0,0,0-.019.093.222.222,0,0,1-.011.05l0,.007a.457.457,0,0,0-.023.122v.071l5.536,3a3.6,3.6,0,0,1,1.607-1,3.531,3.531,0,0,1,1.037-.158,3.415,3.415,0,0,1,1.678.444,3.7,3.7,0,0,1,1.715,2.143,3.421,3.421,0,0,1-.286,2.714A3.622,3.622,0,0,1,15.179,19.559Zm0-5.357a1.983,1.983,0,0,0-.418.055l-.082.017a1.714,1.714,0,0,0-1.072.858,1.785,1.785,0,0,0-.138,1.361,1.758,1.758,0,0,0,1.7,1.28,1.777,1.777,0,0,0,1.726-2.284,1.712,1.712,0,0,0-.858-1.072A1.9,1.9,0,0,0,15.179,14.2ZM2.965,7.88a.562.562,0,0,1-.086.034.68.68,0,0,0-.094.038h0a.038.038,0,0,0-.028.014.053.053,0,0,1-.039.02.179.179,0,0,1-.05.034.209.209,0,0,0-.057.038.674.674,0,0,1-.12.085l-.005,0a.613.613,0,0,0-.125.089l-.036.036a.335.335,0,0,0-.112.1L2.2,8.386c-.018.021-.036.043-.059.066a.046.046,0,0,1-.018.036.047.047,0,0,0-.018.036,1.873,1.873,0,0,0-.25.464.117.117,0,0,1-.018.054l0,.005a.121.121,0,0,0-.014.048.421.421,0,0,1-.016.1l0,.009a.445.445,0,0,0-.018.108.13.13,0,0,0-.036.107v.356a.266.266,0,0,0,.018.071.27.27,0,0,1,.018.072.451.451,0,0,0,.036.214.5.5,0,0,0,.071.214,1.449,1.449,0,0,0,.179.321.2.2,0,0,1,.033.05l0,.005a.2.2,0,0,0,.035.052,1.65,1.65,0,0,0,.536.464c.036.036.036.036.072.036A1.72,1.72,0,0,0,3,11.38a.216.216,0,0,0,.143.036.453.453,0,0,1,.1.016H3.25l.009,0a.422.422,0,0,0,.1.016h.036c.055,0,.106.007.15.007a1.745,1.745,0,0,0,.957-.293l.014-.007a.689.689,0,0,0,.165-.1l.143-.143.107-.107c.076-.075.106-.153.072-.392a1.112,1.112,0,0,0,.178-.357v-.036A1.04,1.04,0,0,0,5.25,9.7V9.345a.522.522,0,0,1-.037-.137l0-.017V9.184a.873.873,0,0,0-.03-.125c-.036-.036-.036-.036-.036-.072A2.551,2.551,0,0,1,5.035,8.7a.613.613,0,0,1-.089-.125l0-.005a.674.674,0,0,0-.085-.12l-.072-.071c-.01-.011-.021-.024-.031-.039l0,0a.322.322,0,0,0-.107-.1l-.072-.071A.679.679,0,0,1,4.466,8.1l-.012-.009-.018-.012a.652.652,0,0,0-.08-.051A.037.037,0,0,0,4.348,8a.039.039,0,0,0-.026-.011c-.051-.017-.094-.033-.126-.046l-.022-.009-.005,0c-.039-.017-.082-.034-.133-.05C4,7.845,4,7.845,3.964,7.845a.255.255,0,0,1-.086-.017.278.278,0,0,0-.093-.019H3.464A2.129,2.129,0,0,0,3,7.88ZM15.286,1.774a1.652,1.652,0,0,0-.822.214,1.724,1.724,0,0,0-.893,1.035,1.7,1.7,0,0,0,.143,1.322,1.725,1.725,0,0,0,1.036.893,1.9,1.9,0,0,0,.555.085,1.78,1.78,0,0,0,.8-.193,1.75,1.75,0,0,0,.871-1.039,1.732,1.732,0,0,0-.122-1.355A1.75,1.75,0,0,0,15.286,1.774Z" transform="translate(0.214 0.227)" fill="#dea68c"/>
  </g>
</svg>
