<svg xmlns="http://www.w3.org/2000/svg" width="28" height="27.999" viewBox="0 0 28 27.999">
  <path id="Shape" d="M0,28v0L2.48,20.682A13.563,13.563,0,0,1,4.535,4,13.821,13.821,0,0,1,23.974,4a13.565,13.565,0,0,1,0,19.289,13.833,13.833,0,0,1-16.364,2.3L0,28Zm8-4.71H8a11.563,11.563,0,1,0-3-2.868L3.557,24.711,8,23.289ZM18.356,20.3h0a10.554,10.554,0,0,1-3.365-.947,13.228,13.228,0,0,1-5.81-4.918c-.037-.052-.061-.087-.074-.1A6.324,6.324,0,0,1,7.7,10.891,3.61,3.61,0,0,1,8.839,8.186l.067-.069A1.274,1.274,0,0,1,9.823,7.7c.119,0,.238.007.353.015s.211.013.308.013c.024,0,.05,0,.076,0s.059,0,.09,0c.181,0,.4.067.608.561.1.221.235.549.382.9.292.686.622,1.463.68,1.574a.593.593,0,0,1,.029.582l-.044.087a1.9,1.9,0,0,1-.3.469c-.058.065-.117.135-.177.2-.117.137-.237.279-.341.378-.166.16-.354.341-.15.679a10.015,10.015,0,0,0,1.915,2.3A9.045,9.045,0,0,0,15.8,17.006c.1.04.172.072.228.1a.879.879,0,0,0,.375.107.482.482,0,0,0,.371-.191c.252-.278.876-.991,1.092-1.3a.476.476,0,0,1,.4-.252,1.178,1.178,0,0,1,.37.086c.3.1,1.838.834,2.354,1.082l.186.088a1.123,1.123,0,0,1,.474.3,2.7,2.7,0,0,1-.2,1.582,3.464,3.464,0,0,1-2.325,1.581,1.963,1.963,0,0,0-.29.052A1.905,1.905,0,0,1,18.356,20.3Z" fill="#dea68c"/>
</svg>
