<svg width="18" height="18" viewBox="0 0 18 18" fill="none" xmlns="http://www.w3.org/2000/svg">
<g clip-path="url(#clip0)">
<path d="M7.40536 8.45993C7.77889 8.27204 8.06129 8.06277 8.2548 7.83663C8.59908 7.42934 8.76897 6.8893 8.76897 6.21987C8.76897 5.56844 8.59908 5.01152 8.2593 4.54461C7.69226 3.78405 6.73255 3.39476 5.37569 3.37451H0V14.3475H5.01229C5.57708 14.3475 6.10025 14.2992 6.58404 14.2001C7.06783 14.1 7.48636 13.9166 7.84077 13.6489C8.15579 13.416 8.41907 13.1268 8.62833 12.7859C8.95911 12.2706 9.1245 11.6867 9.1245 11.0364C9.1245 10.4063 8.97936 9.86967 8.69134 9.42863C8.39994 8.9876 7.9724 8.6647 7.40536 8.45993ZM2.21756 5.28042H4.63876C5.17092 5.28042 5.60971 5.3378 5.95399 5.45143C6.35227 5.61682 6.55141 5.95322 6.55141 6.46627C6.55141 6.92643 6.39952 7.2482 6.09913 7.42934C5.79648 7.61048 5.40382 7.70162 4.92228 7.70162H2.21756V5.28042ZM6.04625 12.2504C5.77847 12.3798 5.40157 12.4439 4.9189 12.4439H2.21756V9.51752H4.95603C5.43307 9.52089 5.80435 9.5839 6.06987 9.70203C6.54241 9.9158 6.77756 10.3073 6.77756 10.88C6.77756 11.5551 6.53454 12.0096 6.04625 12.2504Z" fill="white"/>
<path d="M16.2699 3.88647H11.5029V5.25234H16.2699V3.88647Z" fill="white"/>
<path d="M17.9261 9.27683C17.8271 8.64115 17.6088 8.08198 17.2691 7.59932C16.8967 7.05252 16.4241 6.65199 15.8492 6.39884C15.2765 6.14457 14.6319 6.01744 13.914 6.01856C12.7091 6.01856 11.7302 6.39547 10.9731 7.14365C10.2181 7.89409 9.84009 8.97305 9.84009 10.3794C9.84009 11.8792 10.2575 12.9626 11.0968 13.6276C11.9328 14.2936 12.8981 14.6255 13.9939 14.6255C15.3204 14.6255 16.3521 14.2306 17.0891 13.443C17.5605 12.9458 17.8271 12.4563 17.8856 11.9759H15.6894C15.5623 12.2133 15.4149 12.399 15.2462 12.534C14.9401 12.7815 14.5418 12.9052 14.0536 12.9052C13.5889 12.9052 13.1951 12.8029 12.8666 12.5992C12.3243 12.2729 12.0408 11.7014 12.0048 10.888H17.9981C18.0071 10.187 17.9846 9.64811 17.9261 9.27683ZM12.0588 9.48722C12.1375 8.95955 12.3288 8.54102 12.6326 8.23162C12.9363 7.92334 13.3661 7.76808 13.9163 7.76695C14.4237 7.76695 14.8479 7.91209 15.1933 8.20349C15.5342 8.49714 15.7266 8.92355 15.7659 9.48722H12.0588Z" fill="white"/>
</g>
<defs>
<clipPath id="clip0">
<rect width="18" height="18" fill="white"/>
</clipPath>
</defs>
</svg>
