<svg width="52" height="48" viewBox="0 0 52 48" fill="none" xmlns="http://www.w3.org/2000/svg">
<path d="M50.0234 0.75H1.97656C1.31893 0.75 0.75 1.2456 0.75 1.89923V11.1486C0.75 11.8023 1.31893 12.2979 1.97656 12.2979H50.0234C50.6811 12.2979 51.25 11.8023 51.25 11.1486V1.89923C51.25 1.2456 50.6811 0.75 50.0234 0.75ZM48.7969 9.99941H3.20312V3.04846H48.7969V9.99941Z" fill="white" stroke="white" stroke-width="0.5"/>
<path d="M49.8945 15.1248H36.3631C35.7609 15.1248 35.2327 15.5751 35.2327 16.1778V32.0134C35.2327 32.6161 35.7609 33.0665 36.3631 33.0665H49.8945C50.4967 33.0665 51.025 32.6161 51.025 32.0134V16.1778C51.025 15.5751 50.4967 15.1248 49.8945 15.1248ZM48.7641 30.9604H37.4935V17.2308H48.7641V30.9604Z" fill="white" stroke="white" stroke-width="0.5"/>
<path d="M31.2079 15.1245H19.0336C18.4548 15.1245 17.9915 15.5993 17.9915 16.1775V32.0132C17.9915 32.5915 18.4548 33.0662 19.0336 33.0662H31.2079C31.7867 33.0662 32.25 32.5915 32.25 32.0132V16.1775C32.25 15.5993 31.7867 15.1245 31.2079 15.1245ZM30.1657 30.9602H20.0757V17.2306H30.1657V30.9602Z" fill="white" stroke="white" stroke-width="0.5"/>
<path d="M14.194 15.1245H1.80603C1.22365 15.1245 0.75 15.5952 0.75 16.1775V32.0132C0.75 32.5956 1.22365 33.0662 1.80603 33.0662H14.194C14.7763 33.0662 15.25 32.5956 15.25 32.0132V16.1775C15.25 15.5952 14.7763 15.1245 14.194 15.1245ZM13.1379 30.9602H2.86207V17.2306H13.1379V30.9602Z" fill="white" stroke="white" stroke-width="0.5"/>
<path d="M16.8265 35.75H1.96686C1.31216 35.75 0.75 36.2479 0.75 36.8992V46.1615C0.75 46.8129 1.31216 47.3107 1.96686 47.3107H16.8265C17.4812 47.3107 18.0433 46.8129 18.0433 46.1615V36.8992C18.0433 36.2479 17.4812 35.75 16.8265 35.75ZM15.6096 45.0123H3.18371V38.0485H15.6096V45.0123Z" fill="white" stroke="white" stroke-width="0.5"/>
<path d="M49.4451 35.75H20.9096C20.2617 35.75 19.7156 36.2533 19.7156 36.8992V46.1615C19.7156 46.8074 20.2617 47.3107 20.9096 47.3107H49.4451C50.0929 47.3107 50.6391 46.8074 50.6391 46.1615V36.8992C50.6391 36.2533 50.0929 35.75 49.4451 35.75ZM48.251 45.0123H22.1036V38.0485H48.251V45.0123Z" fill="white" stroke="white" stroke-width="0.5"/>
</svg>
