<svg width="17" height="16" viewBox="0 0 17 16" fill="none" xmlns="http://www.w3.org/2000/svg">
<g clip-path="url(#clip0)">
<path fill-rule="evenodd" clip-rule="evenodd" d="M8.49998 16.0003C3.81293 16.0003 0 12.4114 0 8.00083C0 3.59107 3.81293 0.00219727 8.49998 0.00219727C13.187 0.00219727 17 3.59107 17 8.00083C17 12.4114 13.187 16.0003 8.49998 16.0003ZM15.2931 9.03879C15.058 8.9698 13.1635 8.43713 11.0078 8.76171C11.9076 11.0887 12.274 12.9852 12.3443 13.3783C13.8877 12.3961 14.9869 10.8405 15.2931 9.03879ZM11.1879 13.9716C11.085 13.4036 10.6855 11.4233 9.71955 9.06148C9.705 9.06624 9.68988 9.07043 9.67419 9.07571C5.7941 10.3474 4.40102 12.8814 4.27704 13.1196C5.44312 13.9752 6.90958 14.486 8.49998 14.486C9.4528 14.486 10.3617 14.3021 11.1879 13.9716ZM3.38861 12.3403C3.5442 12.089 5.43274 9.1468 8.9809 8.06725C9.07072 8.03984 9.16113 8.01455 9.25181 7.99082C9.07938 7.6223 8.89161 7.25502 8.69404 6.8915C5.25841 7.85939 1.92442 7.81934 1.62291 7.81305C1.62093 7.8789 1.61985 7.94502 1.61985 8.01087C1.61985 9.67423 2.28965 11.1925 3.38861 12.3403ZM1.7651 6.68496C2.07304 6.68861 4.9074 6.6997 8.12581 5.89619C6.98601 3.9886 5.75635 2.385 5.57469 2.15162C3.65001 3.00566 2.211 4.67565 1.7651 6.68496ZM6.88774 1.71667C7.07806 1.95614 8.32755 3.55737 9.45503 5.50708C11.902 4.64303 12.9371 3.33396 13.0605 3.1685C11.8457 2.15321 10.248 1.53701 8.49995 1.53701C7.94468 1.53701 7.40501 1.59917 6.88774 1.71667ZM13.8255 3.91643C13.6808 4.1014 12.5273 5.49234 9.98375 6.46892C10.1439 6.77823 10.2972 7.09223 10.4406 7.40734C10.4907 7.51957 10.5402 7.63075 10.5884 7.74139C12.8777 7.47055 15.1523 7.90445 15.3799 7.95029C15.3645 6.42204 14.7842 5.01866 13.8255 3.91643Z" fill="white"/>
</g>
<defs>
<clipPath id="clip0">
<rect width="17" height="16" fill="white"/>
</clipPath>
</defs>
</svg>
