<svg width="58" height="58" viewBox="0 0 58 58" fill="none" xmlns="http://www.w3.org/2000/svg">
<path d="M30.9927 51.6288H40.1266L39.3472 52.4083L39.1704 52.5851L39.3472 52.7619L40.6664 54.0811L40.8432 54.2579L41.0199 54.0811L43.8188 51.2823C44.0497 51.0513 44.1653 50.7482 44.1653 50.4459C44.1653 50.1435 44.0497 49.8404 43.8188 49.6095L41.0199 46.8107L40.8432 46.6339L40.6664 46.8107L39.3472 48.1299L39.1704 48.3067L39.3472 48.4834L40.1266 49.2629H30.9927C30.4308 46.0875 27.6587 43.6653 24.3236 43.6653C20.5849 43.6653 17.543 46.7068 17.543 50.4459C17.543 54.185 20.5849 57.2265 24.3236 57.2265C27.6587 57.2265 30.4308 54.8042 30.9927 51.6288ZM24.3236 46.0312C26.7575 46.0312 28.7383 48.012 28.7383 50.4459C28.7383 52.8798 26.7575 54.8606 24.3236 54.8606C21.8897 54.8606 19.9089 52.8798 19.9089 50.4459C19.9089 48.012 21.8897 46.0312 24.3236 46.0312Z" fill="white" stroke="white" stroke-width="0.5"/>
<path d="M50.4459 57.2265C54.1845 57.2265 57.2265 54.185 57.2265 50.4459C57.2265 46.7068 54.1845 43.6653 50.4459 43.6653C46.7072 43.6653 43.6653 46.7068 43.6653 50.4459C43.6653 54.185 46.7072 57.2265 50.4459 57.2265ZM50.4459 46.0312C52.8798 46.0312 54.8606 48.012 54.8606 50.4459C54.8606 52.8798 52.8798 54.8606 50.4459 54.8606C48.012 54.8606 46.0312 52.8798 46.0312 50.4459C46.0312 48.012 48.012 46.0312 50.4459 46.0312Z" fill="white" stroke="white" stroke-width="0.5"/>
<path d="M12.6618 51.6288H14.0043L13.2248 52.4083L13.048 52.5851L13.2248 52.7618L14.544 54.0811L14.7208 54.2579L14.8976 54.0811L17.6964 51.2823C17.9273 51.0513 18.0429 50.7482 18.0429 50.4459C18.0429 50.1435 17.9273 49.8404 17.6964 49.6095L14.8976 46.8106L14.7208 46.6339L14.544 46.8106L13.2248 48.1299L13.048 48.3067L13.2248 48.4834L14.0043 49.2629H12.6618C7.39807 49.2629 3.11588 44.9803 3.11588 39.717C3.11588 34.4538 7.39807 30.1712 12.6618 30.1712H13.9227C14.4846 33.3466 17.2566 35.7688 20.5918 35.7688C24.3304 35.7688 27.3723 32.7273 27.3723 28.9882C27.3723 25.2491 24.3304 22.2076 20.5918 22.2076C17.2566 22.2076 14.4846 24.6299 13.9227 27.8053H12.6618C6.09332 27.8053 0.75 33.1486 0.75 39.717C0.75 46.2855 6.09332 51.6288 12.6618 51.6288ZM20.5918 33.4029C18.1579 33.4029 16.1771 31.4221 16.1771 28.9882C16.1771 26.5543 18.1579 24.5735 20.5918 24.5735C23.0257 24.5735 25.0065 26.5543 25.0065 28.9882C25.0065 31.4221 23.0257 33.4029 20.5918 33.4029Z" fill="white" stroke="white" stroke-width="0.5"/>
<path d="M24.227 3.89537L24.0502 3.71859L23.8734 3.89537L22.5542 5.2146L22.3774 5.39138L22.5542 5.56816L23.3337 6.34764H14.1997C13.6378 3.17222 10.8657 0.75 7.53059 0.75C3.79195 0.75 0.75 3.79148 0.75 7.53059C0.75 11.2697 3.79195 14.3112 7.53059 14.3112C10.8657 14.3112 13.6378 11.8889 14.1997 8.71353H23.3337L22.5542 9.49301L22.3774 9.66979L22.5542 9.84657L23.8734 11.1658L24.0502 11.3426L24.227 11.1658L27.0258 8.36698C27.2567 8.13604 27.3723 7.83293 27.3723 7.53059C27.3723 7.22824 27.2567 6.92514 27.0258 6.69419L24.227 3.89537ZM7.53059 11.9453C5.09669 11.9453 3.11588 9.96448 3.11588 7.53059C3.11588 5.09669 5.09669 3.11588 7.53059 3.11588C9.96448 3.11588 11.9453 5.09669 11.9453 7.53059C11.9453 9.96448 9.96448 11.9453 7.53059 11.9453Z" fill="white" stroke="white" stroke-width="0.5"/>
<path d="M45.3147 27.8053H30.911L31.6905 27.0258L31.8672 26.849L31.6905 26.6722L30.3712 25.353L30.1945 25.1762L30.0177 25.353L27.2189 28.1518C26.9879 28.3828 26.8723 28.6859 26.8723 28.9882C26.8723 29.2906 26.9879 29.5937 27.2189 29.8246L30.0177 32.6234L30.1945 32.8002L30.3712 32.6234L31.6905 31.3042L31.8672 31.1274L31.6905 30.9507L30.911 30.1712H45.3147C51.8831 30.1712 57.2264 24.8278 57.2264 18.2594C57.2264 11.691 51.8831 6.34764 45.3147 6.34764H40.3221C39.7601 3.17222 36.988 0.75 33.6529 0.75C29.9143 0.75 26.8723 3.79148 26.8723 7.53059C26.8723 11.2697 29.9143 14.3112 33.6529 14.3112C36.988 14.3112 39.7601 11.8889 40.3221 8.71353H45.3147C50.5783 8.71353 54.8605 12.9962 54.8605 18.2594C54.8605 23.5226 50.5783 27.8053 45.3147 27.8053ZM33.6529 11.9453C31.219 11.9453 29.2382 9.96448 29.2382 7.53059C29.2382 5.09669 31.219 3.11588 33.6529 3.11588C36.0868 3.11588 38.0676 5.09669 38.0676 7.53059C38.0676 9.96448 36.0868 11.9453 33.6529 11.9453Z" fill="white" stroke="white" stroke-width="0.5"/>
</svg>
