<svg width="15" height="16" viewBox="0 0 15 16" fill="none" xmlns="http://www.w3.org/2000/svg">
<g clip-path="url(#clip0)">
<path d="M14.9853 4.70404C14.9502 3.8539 14.8213 3.26944 14.6367 2.76299C14.4462 2.22541 14.1532 1.74411 13.7693 1.34401C13.3942 0.937683 12.94 0.621948 12.4419 0.421957C11.9643 0.22502 11.4192 0.0875415 10.6222 0.0500586C9.81927 0.00940124 9.56436 0 7.52783 0C5.4913 0 5.23639 0.00940124 4.43641 0.0468842C3.6394 0.0843671 3.09146 0.221967 2.61678 0.418783C2.11269 0.621948 1.66147 0.934509 1.28638 1.34401C0.905445 1.74411 0.609557 2.22858 0.421952 2.75994C0.237323 3.26944 0.108437 3.85073 0.0732971 4.70087C0.0351808 5.55736 0.0263672 5.82926 0.0263672 8.00156C0.0263672 10.1739 0.0351808 10.4458 0.0703211 11.2991C0.105461 12.1492 0.234461 12.7337 0.419091 13.2401C0.609557 13.7777 0.905445 14.259 1.28638 14.6591C1.66147 15.0654 2.11566 15.3812 2.61381 15.5812C3.09146 15.7781 3.63642 15.9156 4.43355 15.9531C5.23341 15.9907 5.48844 15.9999 7.52497 15.9999C9.5615 15.9999 9.81641 15.9907 10.6164 15.9531C11.4134 15.9156 11.9613 15.7781 12.436 15.5812C13.4441 15.1654 14.2411 14.3153 14.6308 13.2401C14.8154 12.7306 14.9444 12.1492 14.9795 11.2991C15.0146 10.4458 15.0235 10.1739 15.0235 8.00156C15.0235 5.82926 15.0205 5.55736 14.9853 4.70404ZM13.6346 11.2366C13.6023 12.018 13.4792 12.4399 13.3767 12.7212C13.1246 13.4183 12.606 13.9715 11.9525 14.2403C11.6888 14.3497 11.2904 14.481 10.5606 14.5153C9.76948 14.5529 9.5322 14.5622 7.53081 14.5622C5.52942 14.5622 5.28916 14.5529 4.50085 14.5153C3.76828 14.481 3.3727 14.3497 3.10898 14.2403C2.78379 14.1121 2.48778 13.909 2.24753 13.6433C1.99845 13.3838 1.80799 13.0713 1.6878 12.7244C1.58524 12.4431 1.46219 12.018 1.43003 11.2397C1.39478 10.3958 1.38608 10.1426 1.38608 8.00779C1.38608 5.87297 1.39478 5.6167 1.43003 4.77596C1.46219 3.99455 1.58524 3.5726 1.6878 3.29129C1.80799 2.9443 1.99845 2.62869 2.2505 2.37229C2.49362 2.10661 2.78665 1.90345 3.11195 1.77537C3.37568 1.66597 3.77424 1.53472 4.50383 1.50029C5.295 1.46281 5.53239 1.45341 7.53367 1.45341C9.53803 1.45341 9.77532 1.46281 10.5636 1.50029C11.2962 1.53472 11.6918 1.66597 11.9555 1.77537C12.2807 1.90345 12.5767 2.10661 12.8169 2.37229C13.066 2.63174 13.2565 2.9443 13.3767 3.29129C13.4792 3.5726 13.6023 3.99761 13.6346 4.77596C13.6697 5.61987 13.6785 5.87297 13.6785 8.00779C13.6785 10.1426 13.6697 10.3927 13.6346 11.2366Z" fill="white"/>
<path d="M7.52779 3.89136C5.40049 3.89136 3.6745 5.73229 3.6745 8.00153C3.6745 10.2708 5.40049 12.1117 7.52779 12.1117C9.6552 12.1117 11.3811 10.2708 11.3811 8.00153C11.3811 5.73229 9.6552 3.89136 7.52779 3.89136ZM7.52779 10.6677C6.14771 10.6677 5.02826 9.47375 5.02826 8.00153C5.02826 6.52932 6.14771 5.33536 7.52779 5.33536C8.90799 5.33536 10.0273 6.52932 10.0273 8.00153C10.0273 9.47375 8.90799 10.6677 7.52779 10.6677Z" fill="white"/>
<path d="M12.4332 3.72883C12.4332 4.25872 12.0304 4.68836 11.5335 4.68836C11.0367 4.68836 10.6339 4.25872 10.6339 3.72883C10.6339 3.19881 11.0367 2.76929 11.5335 2.76929C12.0304 2.76929 12.4332 3.19881 12.4332 3.72883Z" fill="white"/>
</g>
<defs>
<clipPath id="clip0">
<rect width="15" height="16" fill="white"/>
</clipPath>
</defs>
</svg>
