<svg width="60" height="60" viewBox="0 0 60 60" fill="none" xmlns="http://www.w3.org/2000/svg">
<path d="M53.2942 38.6524C50.364 38.6524 47.8883 40.6283 47.1247 43.3171H40.9328V36.4886H47.255C54.1218 36.4886 59.7082 30.9021 59.7082 24.0354C59.7082 18.5297 56.0567 13.6931 50.8728 12.1179C49.3058 5.84336 43.6419 1.3432 37.0823 1.3432C34.5395 1.3432 32.1035 1.99894 29.9538 3.25177C27.6771 1.16967 24.6918 0 21.5551 0C14.8271 0 9.32813 5.36336 9.10865 12.0388C3.78378 13.5272 0 18.4026 0 24.0354C0 30.9021 5.58645 36.4886 12.4532 36.4886H18.7754V43.3171H12.5835C11.82 40.6283 9.34422 38.6524 6.41397 38.6524C2.87731 38.6524 0 41.5297 0 45.0664C0 48.6031 2.87731 51.4804 6.41397 51.4804C9.34422 51.4804 11.8199 49.5045 12.5835 46.8157H20.5247C21.4908 46.8157 22.274 46.0325 22.274 45.0664V36.4886H28.1048V47.0601C25.416 47.8236 23.4401 50.2994 23.4401 53.2296C23.4401 56.7663 26.3174 59.6436 29.8541 59.6436C33.3908 59.6436 36.2681 56.7663 36.2681 53.2296C36.2681 50.2994 34.2922 47.8237 31.6034 47.0601V36.4886H37.4342V45.0664C37.4342 46.0325 38.2175 46.8157 39.1835 46.8157H47.1247C47.8882 49.5045 50.364 51.4804 53.2942 51.4804C56.8309 51.4804 59.7082 48.6031 59.7082 45.0664C59.7082 41.5297 56.8309 38.6524 53.2942 38.6524ZM6.41397 47.9818C4.80639 47.9818 3.49853 46.674 3.49853 45.0664C3.49853 43.4588 4.80639 42.151 6.41397 42.151C8.02154 42.151 9.32941 43.4588 9.32941 45.0664C9.32941 46.674 8.02154 47.9818 6.41397 47.9818ZM32.7695 53.2296C32.7695 54.8372 31.4617 56.1451 29.8541 56.1451C28.2465 56.1451 26.9387 54.8372 26.9387 53.2296C26.9387 51.6221 28.2465 50.3142 29.8541 50.3142C31.4617 50.3142 32.7695 51.6221 32.7695 53.2296ZM12.4532 32.9901C7.51566 32.9901 3.49853 28.9731 3.49853 24.0354C3.49853 19.6222 6.78796 15.8131 11.1498 15.1752C12.0703 15.0406 12.7243 14.2092 12.6384 13.283C12.6131 13.0097 12.6003 12.7306 12.6003 12.4531C12.6003 7.51566 16.6174 3.49864 21.555 3.49864C24.1894 3.49864 26.6737 4.64383 28.3707 6.64056C28.9665 7.34154 30.0034 7.46119 30.7433 6.91449C32.5779 5.55846 34.7699 4.84173 37.0822 4.84173C42.4032 4.84173 46.8283 8.74597 47.6554 13.8248C47.7724 14.5429 48.3218 15.1136 49.0349 15.258C53.1922 16.0996 56.2096 19.7909 56.2096 24.0354C56.2096 28.9731 52.1924 32.9901 47.2549 32.9901H12.4532ZM53.2942 47.9818C51.6867 47.9818 50.3788 46.674 50.3788 45.0664C50.3788 43.4588 51.6867 42.151 53.2942 42.151C54.9018 42.151 56.2097 43.4588 56.2097 45.0664C56.2097 46.674 54.9018 47.9818 53.2942 47.9818Z" fill="white"/>
</svg>
