<svg width="51" height="60" viewBox="0 0 51 60" fill="none" xmlns="http://www.w3.org/2000/svg">
<path d="M48.9408 9.66828L26.0837 0.178294C25.5112 -0.0593729 24.8675 -0.0594895 24.2951 0.178294L1.43801 9.66828C0.567461 10.0298 0 10.8797 0 11.8223V23.3587C0 39.2436 9.60101 53.5324 24.308 59.5353C24.8729 59.7658 25.5058 59.7658 26.0708 59.5353C40.7776 53.5325 50.3788 39.2437 50.3788 23.3587V11.8223C50.3788 10.8797 49.8115 10.0298 48.9408 9.66828ZM45.7141 23.3587C45.7141 36.8625 37.7841 49.2935 25.1894 54.8424C12.9313 49.4418 4.6647 37.2284 4.6647 23.3587V13.3794L25.1894 4.85769L45.7141 13.3794V23.3587ZM22.6115 31.2204L32.6364 21.1956C33.5471 20.2848 35.0239 20.2847 35.9348 21.1956C36.8457 22.1065 36.8456 23.5832 35.9347 24.494L24.2607 36.168C23.3496 37.079 21.8729 37.0787 20.9622 36.168L14.444 29.6498C13.5331 28.7389 13.5331 27.2621 14.444 26.3514C15.3549 25.4406 16.8317 25.4405 17.7424 26.3514L22.6115 31.2204Z" fill="white"/>
</svg>
