<?xml version="1.0" encoding="utf-8"?>
<!-- Generator: Adobe Illustrator 22.1.0, SVG Export Plug-In . SVG Version: 6.00 Build 0)  -->
<svg version="1.1" id="Capa_1" xmlns="http://www.w3.org/2000/svg" xmlns:xlink="http://www.w3.org/1999/xlink" x="0px" y="0px"
	 viewBox="0 0 25.1 24.9" style="enable-background:new 0 0 25.1 24.9;" xml:space="preserve">
<style type="text/css">
	.st0{fill:#F4B245;stroke:#F4B245;stroke-width:0.5;stroke-miterlimit:10;}
</style>
<path class="st0" d="M20.6,8.3c-0.2,0-0.3,0-0.5,0c-0.8-1.6-2.2-2.8-3.7-3.6c0-0.2,0-0.3,0-0.5c0.2-2.2-1.7-4-3.9-4s-4.2,1.9-4.2,4
	c0,0.2,0,0.3,0,0.5C6.8,5.5,5.5,6.9,4.8,8.5c-0.2,0-0.3,0-0.5,0c-2.2-0.2-4,1.7-4,4s1.9,4,4,4c0.2,0,0.3,0,0.5,0
	c0.8,1.6,2.2,2.8,3.7,3.6c0,0.2,0,0.3,0,0.5c0,2.2,1.9,4,4,4s4-1.9,4-4c0-0.2,0-0.3,0-0.5c1.6-0.8,2.8-2,3.7-3.6c0.2,0,0.3,0,0.5,0
	c2.2,0,4-1.9,4-4S23,8.3,20.6,8.3z M12.5,1.8c1.4,0,2.5,1.1,2.5,2.5s-1.1,2.5-2.5,2.5S9.9,5.7,9.9,4.3S11.2,1.8,12.5,1.8z M1.8,12.5
	c0-1.4,1.1-2.7,2.5-2.7s2.5,1.3,2.5,2.7S5.7,15,4.3,15S1.8,13.9,1.8,12.5z M12.5,23.3c-1.4,0-2.5-1.1-2.5-2.5s1.1-2.5,2.5-2.5
	s2.5,1.1,2.5,2.5S13.9,23.3,12.5,23.3z M16.1,18.8c-0.6-1.3-2-2.2-3.6-2.2s-3,0.9-3.6,2.2c-1.1-0.6-2-1.6-2.7-2.7
	c1.3-0.6,2.2-2,2.2-3.6S7.6,9.7,6.3,9c0.6-1.1,1.6-2,2.7-2.7c0.6,1.3,2,2,3.6,2s2.8-0.9,3.6-2.2c1.1,0.6,2,1.6,2.7,2.7
	c-1.3,0.6-2.2,2-2.2,3.6s0.9,2.8,2.2,3.6C18.1,17.2,17.2,18.1,16.1,18.8z M20.6,15c-1.4,0-2.5-1.1-2.5-2.5s1.1-2.5,2.5-2.5
	c1.4,0,2.5,1.1,2.5,2.5S22,15,20.6,15z"/>
</svg>
