<?xml version="1.0" encoding="utf-8"?>
<!-- Generator: Adobe Illustrator 22.1.0, SVG Export Plug-In . SVG Version: 6.00 Build 0)  -->
<svg version="1.1" id="Capa_1" xmlns="http://www.w3.org/2000/svg" xmlns:xlink="http://www.w3.org/1999/xlink" x="0px" y="0px"
	 viewBox="0 0 28.3 22" style="enable-background:new 0 0 28.3 22;" xml:space="preserve">
<style type="text/css">
	.st0{fill:#68BB88;}
</style>
<path class="st0" d="M2.2,0C1,0,0,1,0,2.2v17.5C0,21,1,22,2.2,22h17.5c1.2,0,2.2-1,2.2-2.2v-5.5l6-6c0.4-0.4,0.4-1,0-1.3
	c0,0,0,0,0,0L25.2,4c-0.2-0.2-0.4-0.3-0.7-0.3c-0.2,0-0.5,0.1-0.7,0.3L22,5.9V2.2C22,1,21,0,19.8,0c0,0-0.1,0-0.1,0
	c-0.5,0-0.9,0.5-0.9,1c0,0.5,0.5,0.9,1,0.9h0c0.2,0,0.4,0.1,0.4,0.4v5.5l-5.4,5.4c-0.2,0.2-0.3,0.4-0.3,0.7v2.8
	c0,0.5,0.4,0.9,0.9,0.9h2.8c0.3,0,0.5-0.1,0.7-0.3l1.2-1.2v3.7c0,0.2-0.1,0.4-0.4,0.4H2.2c-0.2,0-0.4-0.1-0.4-0.4V2.2
	C1.9,2,2,1.9,2.2,1.9h14.4c0.5,0,0.9-0.4,1-0.9S17.2,0,16.7,0c0,0,0,0,0,0H2.2z M4.6,4.4c-0.5,0-0.9,0.5-0.9,1c0,0.5,0.5,0.9,1,0.9
	h12.6c0.5,0,0.9-0.4,1-0.9c0-0.5-0.4-0.9-0.9-1c0,0,0,0,0,0H4.6C4.7,4.4,4.6,4.4,4.6,4.4z M24.5,6.1L26,7.6l-1,1l-1.5-1.5L24.5,6.1z
	 M4.6,8.2c-0.5,0-0.9,0.5-0.9,1c0,0.5,0.5,0.9,1,0.9l0,0h11c0.5,0,0.9-0.4,1-0.9c0-0.5-0.4-0.9-0.9-1c0,0,0,0,0,0H4.6
	C4.7,8.2,4.6,8.2,4.6,8.2z M22.1,8.4l1.5,1.5l-5.8,5.8h-1.5v-1.5L22.1,8.4z M4.6,11.9c-0.5,0-0.9,0.5-0.9,1c0,0.5,0.5,0.9,1,0.9h7.5
	c0.5,0,0.9-0.4,1-0.9c0-0.5-0.4-0.9-0.9-1c0,0,0,0,0,0H4.6C4.7,11.9,4.6,11.9,4.6,11.9z M4.6,15.7c-0.5,0-0.9,0.5-0.9,1
	c0,0.5,0.5,0.9,1,0.9l0,0h7.5c0.5,0,0.9-0.4,1-0.9c0-0.5-0.4-0.9-0.9-1c0,0,0,0,0,0H4.6C4.7,15.7,4.6,15.7,4.6,15.7z"/>
</svg>
