<?xml version="1.0" encoding="utf-8"?>
<!-- Generator: Adobe Illustrator 22.1.0, SVG Export Plug-In . SVG Version: 6.00 Build 0)  -->
<svg version="1.1" id="Capa_1" xmlns="http://www.w3.org/2000/svg" xmlns:xlink="http://www.w3.org/1999/xlink" x="0px" y="0px"
	 viewBox="0 0 24.1 22.8" style="enable-background:new 0 0 24.1 22.8;" xml:space="preserve">
<style type="text/css">
	.st0{fill:#2B88C9;}
</style>
<g>
	<path class="st0" d="M19,4.6h-8.1c-0.9,0-1.6,0.7-1.6,1.6v3.9c0,0.9,0.7,1.6,1.6,1.6H19c0.9,0,1.6-0.7,1.6-1.6V6.2
		C20.5,5.3,19.8,4.6,19,4.6z M18.7,9.8h-7.5V6.4h7.5V9.8z"/>
	<path class="st0" d="M21.9,0H7.9C6.6,0,5.6,1,5.6,2.2v6.2H2.2C1,8.5,0,9.4,0,10.7v8.4c0,2.1,1.7,3.7,3.7,3.7h16
		c2.4,0,4.4-2,4.4-4.4V2.2C24.1,1,23.1,0,21.9,0z M5.6,19.1c0,1-0.9,1.9-1.9,1.9s-1.9-0.8-1.9-1.9v-8.4c0-0.2,0.2-0.4,0.4-0.4h3.4
		V19.1z M22.3,18.4c0,1.4-1.2,2.6-2.6,2.6H6.9c0.3-0.5,0.5-1.2,0.5-1.9V2.2c0-0.2,0.2-0.4,0.4-0.4h14.1c0.2,0,0.4,0.2,0.4,0.4V18.4z
		"/>
	<rect x="9.6" y="13.2" class="st0" width="7.5" height="1.8"/>
	<rect x="9.6" y="17" class="st0" width="10.6" height="1.8"/>
</g>
</svg>
