<?xml version="1.0" encoding="utf-8"?>
<!-- Generator: Adobe Illustrator 22.1.0, SVG Export Plug-In . SVG Version: 6.00 Build 0)  -->
<svg version="1.1" id="Capa_1" xmlns="http://www.w3.org/2000/svg" xmlns:xlink="http://www.w3.org/1999/xlink" x="0px" y="0px"
	 viewBox="0 0 33.1 22" style="enable-background:new 0 0 33.1 22;" xml:space="preserve">
<style type="text/css">
	.st0{fill:#E7267A;}
</style>
<g>
	<path class="st0" d="M32.7,5.8c0-0.5-0.1-1-0.5-1.4l-2.6-3.3c-0.4-0.5-1.1-0.8-1.7-0.8c-0.4,0-0.8,0.1-1.1,0.3l-2.5,1.6
		c-0.3,0.2-0.7,0.3-1.2,0.3c-0.3,0-0.7-0.1-0.9-0.2l-2.5-1.2c-0.4-0.2-0.8-0.3-1.3-0.3c-0.6,0-1.3,0.2-1.8,0.5l-0.3,0.2
		c-0.2-0.1-0.6-0.3-1-0.5c-0.5-0.2-1-0.3-1.6-0.3c-0.5,0-1,0.1-1.5,0.3l-1.7,0.7c-0.3,0.1-0.7,0.2-1.1,0.2c-0.4,0-0.9-0.1-1.1-0.2
		L6.8,1c-0.3-0.1-0.6-0.2-1-0.2C5.5,0.8,5.1,0.9,4.8,1C4.4,1.2,4.1,1.4,3.9,1.7l-3,3.4C0.5,5.5,0.3,5.9,0.3,6.4C0.3,7,0.6,7.5,1,7.9
		l2.8,2.4l-1.3,1.4c-0.4,0.4-0.6,0.9-0.6,1.4c0,0.5,0.2,1.1,0.6,1.5l0.3,0.3c0.3,0.2,0.6,0.4,0.9,0.5c-0.2,0.3-0.3,0.6-0.3,1
		c0,0.5,0.2,1.1,0.6,1.5l0,0L4.4,18c0.4,0.4,0.9,0.6,1.4,0.6c0.3,0,0.5-0.1,0.8-0.2c0.1,0.4,0.3,0.7,0.6,1l0.3,0.3
		c0.4,0.4,0.9,0.6,1.4,0.6c0.4,0,0.8-0.1,1.1-0.3c0.1,0.3,0.3,0.6,0.5,0.9l0.3,0.3c0.4,0.4,0.9,0.6,1.4,0.6c0.5,0,1.1-0.2,1.5-0.6
		l1.2-1.2l1.6,1.5c0.4,0.4,0.9,0.5,1.4,0.5c0.5,0,1.1-0.2,1.5-0.6l0.3-0.3c0.2-0.2,0.4-0.5,0.5-0.8l0.6,0.6c0.4,0.4,0.9,0.5,1.4,0.5
		c0.5,0,1.1-0.2,1.5-0.6l0.3-0.3c0.3-0.3,0.5-0.7,0.5-1.1c0.2,0,0.3,0.1,0.5,0.1c0.5,0,1.1-0.2,1.5-0.6l0.3-0.3
		c0.4-0.4,0.5-0.9,0.5-1.4c0-0.2,0-0.3-0.1-0.5c0.4-0.1,0.9-0.3,1.2-0.6l0.3-0.3c0.4-0.4,0.5-0.9,0.5-1.4c0-0.5-0.2-1.1-0.6-1.5
		l-0.5-0.4l4.4-4.8C32.6,6.9,32.7,6.4,32.7,5.8z M3.3,13.8c-0.2-0.2-0.3-0.4-0.3-0.7c0-0.2,0.1-0.5,0.3-0.6l2.8-2.9
		c0.2-0.2,0.4-0.3,0.7-0.3c0.2,0,0.5,0.1,0.6,0.3l0.3,0.3c0,0,0.3,0.4,0.3,0.7c0,0.2-0.1,0.4-0.2,0.5c0,0-3,3.1-3,3.1
		c-0.2,0.1-0.3,0.2-0.5,0.2c-0.2,0-0.5-0.1-0.6-0.3L3.3,13.8z M5.8,17.5c-0.2,0-0.5-0.1-0.6-0.3l-0.3-0.3l0,0
		c-0.2-0.2-0.3-0.4-0.3-0.7c0-0.2,0.1-0.5,0.3-0.6c0,0,3.7-3.8,3.7-3.9c0.2-0.2,0.4-0.3,0.6-0.3c0.2,0,0.5,0.1,0.6,0.3l0.3,0.3l0,0
		c0.2,0.2,0.3,0.4,0.3,0.7c0,0.2-0.1,0.5-0.3,0.6l-3.7,3.8C6.3,17.4,6,17.4,5.8,17.5z M8.8,19.1c-0.2,0-0.5-0.1-0.6-0.3l-0.3-0.3
		c-0.2-0.2-0.3-0.4-0.3-0.7c0-0.2,0.1-0.4,0.2-0.6l2.6-2.7c0.2-0.2,0.4-0.2,0.6-0.2c0.2,0,0.5,0.1,0.6,0.3l0.3,0.3l0,0
		c0.2,0.2,0.3,0.4,0.3,0.7c0,0.2-0.1,0.5-0.3,0.6l-2.5,2.6C9.3,19,9,19.1,8.8,19.1z M12.8,20.1c-0.2,0.2-0.4,0.3-0.7,0.3
		c-0.2,0-0.5-0.1-0.6-0.3l-0.3-0.3c-0.2-0.2-0.3-0.4-0.3-0.7c0-0.2,0.1-0.5,0.3-0.6l1.6-1.6c0.2-0.2,0.4-0.3,0.7-0.3
		c0.2,0,0.5,0.1,0.6,0.3l0.3,0.3l0,0c0.2,0.2,0.3,0.4,0.3,0.7c0,0.2-0.1,0.5-0.3,0.6L12.8,20.1z M27.6,14.7L27.3,15
		c-0.2,0.2-0.4,0.3-0.7,0.3c-0.2,0-0.4-0.1-0.6-0.2l-4.3-4l-0.8,0.8l4.6,4.3c0.2,0.2,0.3,0.4,0.3,0.7c0,0.2-0.1,0.4-0.2,0.6
		l-0.3,0.3C25.2,17.9,25,18,24.7,18c-0.2,0-0.4-0.1-0.6-0.2l-4.3-4L19,14.6l3.9,3.6c0.2,0.2,0.3,0.4,0.3,0.7c0,0.2-0.1,0.4-0.2,0.6
		l-0.3,0.3c-0.2,0.2-0.4,0.3-0.7,0.3c-0.2,0-0.4-0.1-0.6-0.2l-3.8-3.5h0l0,0L16.7,17l0,0l0,0l0,0l1.9,1.8c0.2,0.2,0.3,0.4,0.3,0.6
		c0,0.2-0.1,0.4-0.2,0.6l-0.3,0.3c-0.2,0.2-0.4,0.3-0.7,0.3c-0.2,0-0.4-0.1-0.6-0.2l-1.7-1.6c0.1-0.3,0.2-0.6,0.2-0.9
		c0-0.5-0.2-1.1-0.6-1.5l-0.3-0.3c-0.4-0.4-0.9-0.6-1.4-0.6c0,0-0.1,0-0.1,0c0,0,0,0,0,0c0-0.5-0.6-1.5-0.6-1.5l-0.3-0.3
		c-0.3-0.3-0.6-0.4-1-0.5c0.1-0.2,0.1-0.4,0.1-0.7c0-0.5-0.2-1.1-0.6-1.5L10.6,11c-0.4-0.4-0.9-0.6-1.4-0.6c-0.1,0-0.1,0-0.2,0
		c0-0.5-0.2-1-0.6-1.4v0L8.1,8.8C7.7,8.4,7.2,8.2,6.7,8.2c-0.5,0-1.1,0.2-1.5,0.6L4.6,9.5L1.7,7.1C1.5,6.9,1.4,6.7,1.4,6.4
		c0-0.2,0.1-0.4,0.2-0.6l3-3.4C4.8,2.3,5,2.1,5.2,2.1C5.4,2,5.6,1.9,5.9,1.9c0.2,0,0.4,0,0.5,0.1l1.7,0.7C8.5,2.9,9.1,3,9.6,3
		c0.6,0,1.1-0.1,1.6-0.3L12.9,2c0.3-0.1,0.6-0.2,1-0.2c0.4,0,0.9,0.1,1.1,0.2c0.2,0.1,0.3,0.2,0.4,0.2l-1.7,1.2
		c-0.5,0.4-0.8,1-0.8,1.6c0,0.4,0.1,0.8,0.4,1.2l0,0l0.2,0.3c0.4,0.6,1.1,0.9,1.8,0.9c0.4,0,0.8-0.1,1.1-0.3l1-0.6
		c0.2-0.1,0.5-0.2,0.8-0.2c0.4,0,0.8,0.1,1,0.3l2.8,2c0.6,0.4,1.6,1.3,2.2,1.8l3.3,3c0.2,0.2,0.3,0.4,0.3,0.7
		C27.8,14.3,27.8,14.6,27.6,14.7z M31.3,6.6L27,11.4l-2-1.8c-0.6-0.6-1.6-1.4-2.3-1.9l-2.8-2c-0.5-0.3-1.1-0.5-1.6-0.5
		c-0.5,0-1,0.1-1.4,0.4l-1,0.6c-0.2,0.1-0.3,0.1-0.5,0.1c-0.3,0-0.7-0.2-0.9-0.4l-0.2-0.3l0,0C14.1,5.5,14,5.3,14,5.1
		c0-0.3,0.1-0.5,0.4-0.7l3-2.1c0.3-0.2,0.7-0.3,1.2-0.3c0.3,0,0.6,0.1,0.8,0.2l2.5,1.2c0.4,0.2,0.9,0.3,1.4,0.3
		c0.6,0,1.2-0.1,1.7-0.4l2.5-1.6c0.2-0.1,0.4-0.2,0.6-0.2c0.3,0,0.7,0.2,0.9,0.4l2.6,3.3c0.1,0.2,0.2,0.5,0.2,0.7
		C31.6,6.1,31.5,6.4,31.3,6.6z"/>
	<path class="st0" d="M17.7,22c-0.6,0-1.2-0.2-1.6-0.6l-1.4-1.3l-1,1c-0.9,0.9-2.4,0.9-3.3,0.1l-0.3-0.3c-0.2-0.2-0.3-0.4-0.5-0.6
		c-0.8,0.4-1.9,0.2-2.6-0.4l-0.3-0.3c-0.2-0.2-0.4-0.5-0.5-0.8c-0.8,0.2-1.6,0-2.2-0.6L3.9,18c-0.5-0.4-0.7-1-0.7-1.7
		c0-0.3,0-0.5,0.1-0.8c-0.3-0.1-0.5-0.3-0.7-0.4l-0.3-0.3c-0.5-0.4-0.7-1-0.7-1.7c0-0.6,0.2-1.2,0.6-1.6l1.1-1.2L0.8,8.1
		C0.3,7.7,0,7.1,0,6.4c0-0.6,0.2-1.1,0.6-1.5l3-3.4c0.3-0.3,0.6-0.5,1-0.7c0.7-0.3,1.6-0.3,2.3,0l1.7,0.7c0.2,0.1,0.7,0.2,1,0.2
		c0.4,0,0.8-0.1,1-0.2l1.7-0.7c0.5-0.2,1-0.3,1.6-0.3c0.7,0,1.3,0.1,1.7,0.4l0.8,0.4l0.1-0.1c0.5-0.4,1.2-0.6,2-0.6
		c0.5,0,1,0.1,1.4,0.3L22.4,2c0.2,0.1,0.5,0.1,0.7,0.1c0,0,0,0,0,0c0.4,0,0.8-0.1,1-0.2l2.5-1.6C27,0.1,27.5,0,28,0
		c0.8,0,1.5,0.3,2,0.9l2.6,3.3c0.3,0.4,0.5,1,0.5,1.6l0,0c0,0.7-0.2,1.3-0.7,1.8l-4.2,4.6l0.3,0.2c0.5,0.4,0.7,1.1,0.7,1.7
		c0,0.6-0.2,1.2-0.6,1.6L28.4,16c-0.3,0.3-0.7,0.5-1.1,0.6c0,0.1,0,0.1,0,0.2c0,0.6-0.2,1.1-0.6,1.6l-0.3,0.3
		c-0.5,0.5-1.2,0.8-2,0.7c-0.1,0.4-0.3,0.7-0.5,1l-0.3,0.3c-0.8,0.9-2.4,1-3.3,0.1l-0.3-0.3c-0.1,0.2-0.2,0.3-0.3,0.5l-0.3,0.3
		C19,21.7,18.4,22,17.7,22C17.8,22,17.8,22,17.7,22z M14.7,19.2l1.8,1.7c0.3,0.3,0.7,0.5,1.2,0.5c0,0,0,0,0,0c0.5,0,0.9-0.2,1.2-0.5
		l0.3-0.3c0.2-0.2,0.3-0.4,0.4-0.7l0.1-0.5l1,0.9c0.7,0.6,1.8,0.6,2.4-0.1l0.3-0.3c0.2-0.3,0.4-0.6,0.4-0.9l0-0.4l0.3,0.1
		c0.2,0,0.3,0.1,0.4,0.1c0.5,0,0.9-0.2,1.3-0.5l0.3-0.3c0.3-0.3,0.5-0.7,0.5-1.2c0-0.1,0-0.2,0-0.4l-0.1-0.3l0.3,0
		c0.4-0.1,0.8-0.2,1-0.5l0.3-0.3c0.3-0.3,0.5-0.7,0.5-1.2c0-0.5-0.2-0.9-0.5-1.2l-0.7-0.7l4.6-5.1c0.3-0.3,0.5-0.8,0.5-1.3
		c0-0.5-0.1-0.9-0.4-1.2l-2.6-3.3c-0.6-0.7-1.7-0.9-2.5-0.4l-2.5,1.6c-0.3,0.2-0.8,0.4-1.3,0.3c-0.4,0-0.8-0.1-1-0.2l-2.5-1.2
		c-0.3-0.2-0.7-0.2-1.1-0.2c-0.4,0-1.1,0.1-1.6,0.5l-0.4,0.3l-1.1-0.6c-0.4-0.2-0.9-0.3-1.5-0.3c-0.5,0-1,0.1-1.3,0.2L10.9,2
		c-0.3,0.1-0.8,0.2-1.3,0.2C9.2,2.2,8.7,2.2,8.4,2L6.7,1.3c-0.5-0.2-1.2-0.2-1.8,0C4.6,1.5,4.3,1.6,4.1,1.9l-3,3.4
		C0.8,5.6,0.6,6,0.6,6.4c0,0.5,0.2,0.9,0.6,1.3l3.1,2.6L2.7,12c-0.3,0.3-0.5,0.7-0.5,1.2c0,0.5,0.2,0.9,0.5,1.2l0.3,0.3
		c0.2,0.2,0.5,0.3,0.8,0.4l0.4,0.1L4,15.5c-0.1,0.3-0.2,0.5-0.2,0.8c0,0.5,0.2,0.9,0.5,1.2l0.3,0.3c0.5,0.5,1.2,0.6,1.8,0.3L6.8,18
		l0.1,0.4c0.1,0.3,0.2,0.6,0.5,0.8l0.3,0.3c0.6,0.5,1.5,0.6,2.1,0.2l0.3-0.2l0.1,0.4c0.1,0.3,0.2,0.5,0.4,0.7l0.3,0.3
		c0.7,0.6,1.8,0.6,2.4-0.1L14.7,19.2z M17.8,20.9c-0.3,0-0.6-0.1-0.8-0.3l-1.9-1.7l0.1-0.2c0.1-0.2,0.2-0.5,0.2-0.8
		c0-0.5-0.2-0.9-0.5-1.2l-0.3-0.3c-0.3-0.3-0.7-0.5-1.2-0.5c0,0,0,0,0,0l-0.3,0L13,15.6c0-0.3-0.3-1-0.6-1.3l-0.2-0.2
		c-0.2-0.2-0.5-0.4-0.9-0.4l-0.4-0.1l0.1-0.3c0.1-0.2,0.1-0.4,0.1-0.6c0-0.5-0.2-0.9-0.5-1.2l-0.3-0.3c-0.3-0.3-0.7-0.5-1.2-0.5
		l-0.5,0l0-0.3c0-0.5-0.2-0.9-0.5-1.2L7.9,9C7.3,8.4,6.1,8.4,5.5,9.1L4.6,10L1.5,7.3C1.3,7.1,1.1,6.8,1.1,6.4c0-0.3,0.1-0.6,0.3-0.8
		l3-3.4C4.6,2,4.8,1.9,5.1,1.8c0.5-0.2,1-0.2,1.4,0l1.7,0.7c0.4,0.2,0.9,0.3,1.4,0.3c0.6,0,1-0.1,1.4-0.3l1.7-0.7
		c0.3-0.1,0.7-0.2,1.2-0.2c0.5,0,0.9,0.1,1.2,0.2l0.9,0.5l-2.1,1.5c-0.4,0.3-0.7,0.8-0.7,1.4c0,0.4,0.1,0.7,0.3,1l0.2,0.3
		c0.5,0.7,1.7,0.9,2.4,0.5l1-0.6c0.3-0.2,0.6-0.3,1-0.3c0,0,0,0,0,0c0.4,0,0.9,0.1,1.2,0.3l2.8,2c0.6,0.5,1.7,1.3,2.2,1.8l3.3,3
		c0.3,0.2,0.4,0.6,0.4,0.9c0,0.3-0.1,0.6-0.3,0.8l0,0l-0.3,0.3c-0.4,0.5-1.3,0.5-1.7,0.1l-4.1-3.8l-0.3,0.3l4.4,4.1
		c0.3,0.2,0.4,0.6,0.4,0.9c0,0.3-0.1,0.6-0.3,0.8l-0.3,0.3c-0.4,0.5-1.3,0.5-1.7,0.1l-4.1-3.8l-0.3,0.3l3.6,3.3
		c0.2,0.2,0.4,0.6,0.4,0.9c0,0.3-0.1,0.6-0.3,0.8l-0.3,0.3c-0.4,0.5-1.3,0.5-1.7,0.1l-3.6-3.3L17.2,17l1.7,1.6
		c0.2,0.2,0.4,0.5,0.4,0.9c0,0.3-0.1,0.6-0.3,0.8l-0.3,0.3C18.4,20.8,18.1,20.9,17.8,20.9z M15.8,18.7l1.5,1.4
		c0.2,0.2,0.6,0.2,0.9,0l0.3-0.3c0.1-0.1,0.2-0.3,0.2-0.4c0-0.2-0.1-0.3-0.2-0.4l-2.1-2l0.2-0.2l1-1l0.2,0.2l3.8,3.5
		c0.2,0.2,0.6,0.2,0.9,0l0.3-0.3c0.1-0.1,0.2-0.3,0.2-0.4c0-0.2-0.1-0.3-0.2-0.4l-4.1-3.8l1.2-1.3l4.6,4.2c0.2,0.2,0.6,0.2,0.9,0
		l0.3-0.3c0.1-0.1,0.2-0.3,0.2-0.4c0-0.2-0.1-0.3-0.2-0.4l-4.9-4.5l1.2-1.3l4.6,4.2c0.2,0.2,0.6,0.2,0.9,0l0.3-0.3
		c0.1-0.1,0.2-0.3,0.2-0.4c0-0.2-0.1-0.3-0.2-0.4l-3.3-3c-0.6-0.5-1.6-1.3-2.2-1.8l-2.8-2c-0.2-0.1-0.5-0.2-0.8-0.2c0,0,0,0,0,0
		c-0.3,0-0.5,0.1-0.7,0.2l-1,0.6c-1,0.6-2.5,0.3-3.3-0.6L13,6.5c-0.3-0.4-0.5-0.9-0.5-1.4c0-0.7,0.4-1.4,1-1.9l1.3-0.9
		c-0.2-0.1-0.5-0.2-0.9-0.2c0,0,0,0,0,0c-0.3,0-0.7,0.1-0.9,0.2L11.3,3c-0.5,0.2-1,0.3-1.7,0.3C9,3.3,8.4,3.2,7.9,3L6.3,2.3
		C6,2.2,5.6,2.2,5.3,2.3C5.2,2.4,5,2.5,4.9,2.6L1.9,6C1.8,6.1,1.7,6.3,1.7,6.4c0,0.2,0.1,0.3,0.2,0.4l2.7,2.3L5,8.6
		c0.9-0.9,2.4-0.9,3.3-0.1l0.3,0.3C9,9.2,9.2,9.6,9.3,10.1c0.6,0,1.1,0.3,1.5,0.6l0.3,0.3c0.5,0.4,0.7,1,0.7,1.7c0,0.1,0,0.3,0,0.4
		c0.3,0.1,0.6,0.3,0.8,0.5l0.3,0.3c0.1,0.1,0.6,0.8,0.7,1.4c0.5,0,1.1,0.3,1.4,0.6l0.3,0.3c0.5,0.4,0.7,1.1,0.7,1.7
		C16,18.2,15.9,18.4,15.8,18.7z M12.1,20.7c-0.3,0-0.6-0.1-0.9-0.3L11,20.1c-0.2-0.2-0.4-0.5-0.4-0.9c0-0.3,0.1-0.6,0.3-0.8l1.6-1.6
		c0.5-0.5,1.3-0.5,1.7,0l0.3,0.3c0.2,0.2,0.4,0.5,0.4,0.9c0,0.3-0.1,0.6-0.3,0.8L13,20.4C12.8,20.6,12.5,20.7,12.1,20.7z M13.4,17
		c-0.2,0-0.3,0.1-0.4,0.2l-1.6,1.6c-0.1,0.1-0.2,0.3-0.2,0.4c0,0.2,0.1,0.3,0.2,0.4l0.3,0.3c0.2,0.2,0.6,0.2,0.9,0l1.6-1.6
		c0.1-0.1,0.2-0.3,0.2-0.4c0-0.2-0.1-0.3-0.2-0.4l-0.3-0.3C13.7,17.1,13.5,17,13.4,17z M8.8,19.4L8.8,19.4c-0.3,0-0.6-0.1-0.9-0.3
		l-0.3-0.3c-0.2-0.2-0.4-0.5-0.4-0.9c0-0.3,0.1-0.5,0.3-0.8l2.6-2.7c0.5-0.5,1.2-0.4,1.7,0l0.3,0.3c0.2,0.2,0.4,0.5,0.4,0.9
		c0,0.3-0.1,0.6-0.3,0.8L9.7,19C9.5,19.3,9.1,19.4,8.8,19.4z M11,14.7c-0.1,0-0.3,0.1-0.4,0.2L8,17.6c-0.1,0.1-0.1,0.2-0.1,0.4
		c0,0.2,0.1,0.3,0.2,0.4l0.3,0.3c0.2,0.2,0.6,0.2,0.9,0l2.5-2.6c0.1-0.1,0.2-0.3,0.2-0.4c0-0.2-0.1-0.3-0.2-0.4l-0.3-0.3
		C11.3,14.8,11.1,14.7,11,14.7z M5.8,17.8c-0.3,0-0.6-0.1-0.8-0.3l-0.3-0.3c-0.2-0.2-0.4-0.5-0.4-0.9c0-0.3,0.1-0.6,0.3-0.8
		c1.2-1.3,3.6-3.8,3.7-3.9c0.5-0.5,1.3-0.5,1.7,0l0.3,0.3c0.2,0.2,0.4,0.5,0.4,0.9c0,0.3-0.1,0.6-0.3,0.8l-3.7,3.8
		C6.4,17.6,6.1,17.8,5.8,17.8L5.8,17.8z M8.8,12c0,0-0.2,0.2-3.7,3.9C5,16,4.9,16.1,4.9,16.3c0,0.2,0.1,0.3,0.2,0.4L5.4,17
		c0.2,0.2,0.6,0.2,0.9,0l3.7-3.8c0.1-0.1,0.2-0.3,0.2-0.4c0-0.2-0.1-0.3-0.2-0.4L9.6,12C9.4,11.8,9,11.8,8.8,12
		C8.8,12,8.8,12,8.8,12z M4.2,14.6c-0.3,0-0.6-0.1-0.9-0.3L3.1,14c-0.2-0.2-0.4-0.5-0.4-0.9c0-0.3,0.1-0.6,0.3-0.8l2.8-2.9
		c0.4-0.5,1.3-0.5,1.7,0l0.3,0.3c0.1,0.2,0.4,0.6,0.4,0.9c0,0.3-0.1,0.5-0.2,0.7c0,0-3,3.1-3,3.1C4.7,14.5,4.5,14.6,4.2,14.6z
		 M3.5,13.6l0.3,0.3c0.3,0.3,0.6,0.2,0.8,0.1c0,0,2.9-3,2.9-3.1c0-0.1,0.1-0.2,0.1-0.3c0-0.1-0.1-0.3-0.2-0.5L7.1,9.8
		c-0.2-0.2-0.6-0.2-0.9,0l-2.8,2.9c-0.1,0.1-0.2,0.3-0.2,0.4C3.4,13.3,3.4,13.4,3.5,13.6z M27,11.9l-2.2-2c-0.6-0.6-1.6-1.4-2.3-1.9
		l-2.8-2c-0.4-0.3-0.9-0.4-1.5-0.4c-0.5,0-0.9,0.1-1.3,0.3l-1,0.6c-0.6,0.3-1.4,0.2-1.8-0.4l-0.2-0.3c-0.2-0.2-0.2-0.5-0.2-0.7
		c0-0.4,0.2-0.7,0.5-1l3-2.1c0.3-0.2,0.8-0.4,1.3-0.4c0,0,0,0,0,0c0.3,0,0.7,0.1,0.9,0.2L21.9,3c0.3,0.2,0.8,0.3,1.2,0.3
		c0.6,0,1.1-0.1,1.6-0.4l2.5-1.6c0.2-0.1,0.5-0.2,0.7-0.2c0,0,0,0,0,0c0.4,0,0.9,0.2,1.1,0.5l2.6,3.3C31.8,5.1,32,5.5,32,5.8
		c0,0.4-0.1,0.8-0.4,1L27,11.9z M18.2,4.9c0.7,0,1.3,0.2,1.8,0.5l2.8,2c0.7,0.5,1.7,1.3,2.4,1.9L27,11l4.1-4.6
		c0.1-0.1,0.2-0.4,0.2-0.6c0-0.2-0.1-0.4-0.2-0.5L28.6,2c-0.1-0.2-0.4-0.3-0.6-0.3c0,0,0,0,0,0c-0.1,0-0.3,0-0.4,0.1l-2.5,1.6
		c-0.5,0.3-1.2,0.5-1.9,0.5c-0.6,0-1.1-0.1-1.5-0.3l-2.5-1.2c-0.2-0.1-0.4-0.1-0.7-0.1c0,0,0,0,0,0c-0.4,0-0.8,0.1-1,0.3l-3,2.1
		c-0.2,0.1-0.2,0.3-0.2,0.5c0,0.1,0,0.2,0.1,0.3l0.2,0.3c0.2,0.3,0.7,0.4,1,0.2l1-0.6C17.1,5,17.7,4.9,18.2,4.9z"/>
</g>
</svg>
