<?xml version="1.0" encoding="utf-8"?>
<!-- Generator: Adobe Illustrator 22.1.0, SVG Export Plug-In . SVG Version: 6.00 Build 0)  -->
<svg version="1.1" id="Capa_1" xmlns="http://www.w3.org/2000/svg" xmlns:xlink="http://www.w3.org/1999/xlink" x="0px" y="0px"
	 viewBox="0 0 26 22" style="enable-background:new 0 0 26 22;" xml:space="preserve">
<style type="text/css">
	.st0{fill:#544293;}
</style>
<g>
	<path class="st0" d="M0,15.5V16c0,0.9,0.7,1.6,1.6,1.6l0,0h6.1c-0.3,0.7-0.4,1.4-0.4,2.2v0.5C7.3,21.3,8,22,8.9,22h0h8.2
		c0.9,0,1.6-0.7,1.6-1.6v-0.5c0-0.7-0.2-1.5-0.4-2.2h6.1c0.9,0,1.6-0.7,1.6-1.6v-0.5c0-2.1-1.2-4.1-3.1-5.1c0.6-0.7,0.8-1.6,0.8-2.5
		c0.1-1.9-1.4-3.5-3.4-3.6c-0.1,0-0.1,0-0.2,0c-1.5,0-2.9,1-3.4,2.5c-0.4-0.3-0.8-0.6-1.2-0.8c0.6-0.7,0.8-1.6,0.8-2.5
		C16.6,1.6,15,0,13,0S9.5,1.6,9.5,3.5c0,0.9,0.3,1.8,0.8,2.5C9.9,6.2,9.5,6.5,9.2,6.8C8.7,5.3,7.4,4.3,5.8,4.4
		C3.9,4.3,2.3,5.8,2.2,7.7c0,0.1,0,0.2,0,0.3c0,0.9,0.3,1.8,0.8,2.5C1.2,11.4,0,13.4,0,15.5z M17.1,20.4H8.9v-0.5c0-1.8,1.2-3.5,3-4
		c0.7,0.3,1.6,0.3,2.3,0c1.8,0.5,3,2.1,3,4V20.4z M13,14.5c-1,0-1.9-1-1.9-2.2c0-1,0.8-1.9,1.9-1.9c1,0,1.9,0.8,1.9,1.9c0,0,0,0,0,0
		C14.9,13.5,14.1,14.5,13,14.5z M24.4,15.5V16h-7.1c-0.3-0.4-0.7-0.7-1.1-1c0.2-1.7,1.3-3,2.9-3.5c0.7,0.3,1.6,0.3,2.3,0
		C23.2,12.1,24.4,13.7,24.4,15.5z M20.3,6c1,0,1.9,0.8,1.9,1.8c0,0,0,0.1,0,0.1c0,1.2-0.8,2.2-1.9,2.2s-1.9-1-1.9-2.2
		c-0.1-1,0.7-1.9,1.7-2C20.2,6,20.2,6,20.3,6z M13,1.6c1,0,1.9,0.8,1.9,1.8c0,0,0,0.1,0,0.1c0,1.2-0.8,2.2-1.9,2.2s-1.9-1-1.9-2.2
		c0-1,0.7-1.9,1.8-1.9C12.9,1.6,13,1.6,13,1.6z M11.9,7.1c0.7,0.3,1.6,0.3,2.3,0c1.6,0.5,2.8,1.9,2.9,3.6c-0.3,0.2-0.5,0.4-0.7,0.6
		c-0.6-1.9-2.5-2.9-4.4-2.4c-1.1,0.3-2,1.2-2.4,2.4c-0.2-0.2-0.5-0.4-0.7-0.5C9.1,9,10.2,7.6,11.9,7.1z M5.8,6c1,0,1.9,0.8,1.9,1.8
		c0,0,0,0.1,0,0.1c0,1.2-0.8,2.2-1.9,2.2S3.9,9.1,3.9,8c-0.1-1,0.7-1.9,1.7-2C5.7,6,5.7,6,5.8,6z M1.6,15.5c0-1.8,1.2-3.5,3-4
		c0.7,0.3,1.6,0.3,2.3,0C8.5,12,9.7,13.4,9.9,15c-0.4,0.3-0.8,0.6-1.1,1H1.6V15.5z"/>
</g>
</svg>
